<svg xmlns="http://www.w3.org/2000/svg" width="979.57" height="186.157" viewBox="0 0 979.57 186.157"><path d="M110.258,127.93v13.794h-.488Q96.1,125.854,73.759,125.854a55.721,55.721,0,0,0-41.077,17.822,60.436,60.436,0,0,0-12.024,20.142,76.787,76.787,0,0,0,0,51.208,57.472,57.472,0,0,0,12.146,19.9,54.253,54.253,0,0,0,18.555,12.634,59.991,59.991,0,0,0,23.376,4.517q23.438,0,36.5-16.846h.61V250h31.128V127.93ZM80.717,222.778q-13.794,0-22.522-9.277t-8.728-24.048q0-15.381,8.972-24.78a29.691,29.691,0,0,1,22.4-9.4,28.281,28.281,0,0,1,22.034,9.766q8.728,9.766,8.728,24.414,0,14.771-8.911,24.048A29.262,29.262,0,0,1,80.717,222.778Zm162.051-96.924q-23.071,0-36.865,15.869h-.61V65.918H172.578V250h31.25V235.229h.61q13.306,16.846,37.354,16.846a59.991,59.991,0,0,0,23.376-4.517,54.253,54.253,0,0,0,18.555-12.634,57.472,57.472,0,0,0,12.146-19.9,76.787,76.787,0,0,0,0-51.208,60.436,60.436,0,0,0-12.024-20.142,55.721,55.721,0,0,0-41.077-17.822Zm-6.958,96.924a30.97,30.97,0,0,1-22.888-9.277q-9.216-9.277-9.216-24.048t9.033-24.475q9.033-9.7,23.071-9.7a29.5,29.5,0,0,1,22.339,9.4q8.911,9.4,8.911,24.78,0,14.771-8.728,24.048T235.81,222.778Zm146.792,29.3q18.8,0,33.569-7.874a57.1,57.1,0,0,0,23.071-22.278q8.3-14.4,8.3-32.837a67.188,67.188,0,0,0-4.822-25.7,57.848,57.848,0,0,0-13.367-20.02,60.579,60.579,0,0,0-20.63-12.878,75.976,75.976,0,0,0-52.612.122,59.555,59.555,0,0,0-20.63,13.123,58.693,58.693,0,0,0-13.123,20.081,67.252,67.252,0,0,0-4.7,25.269,68.859,68.859,0,0,0,2.991,20.508,57.734,57.734,0,0,0,8.728,17.4A59.859,59.859,0,0,0,361,249.023,74.547,74.547,0,0,0,382.6,252.075Zm0-29.3q-13.916,0-22.888-9.7t-8.972-23.987q0-14.648,8.85-24.231t23.01-9.583q13.672,0,22.705,9.46t9.033,24.353q0,14.648-9.155,24.17A30.089,30.089,0,0,1,382.6,222.778ZM550.878,127.93v59.2q0,16.968-7.812,26.245t-19.287,9.277q-11.719,0-16.785-6.653t-5.066-23.132V127.93H469.213v73.486q0,13.672,3.235,23.56t9.4,15.747a38.564,38.564,0,0,0,14.1,8.606,55.49,55.49,0,0,0,18.188,2.747,46.559,46.559,0,0,0,19.836-4.333,48.017,48.017,0,0,0,16.418-12.634h.488V250h32.715V127.93ZM651.162,252.075q11.23,0,18.311-1.953a66.238,66.238,0,0,0,14.038-5.737l-8.423-26.123q-8.3,4.272-15.381,4.272-5.737,0-8.24-3.784t-2.5-11.841v-51.88h33.2v-27.1h-33.2V84.473l-32.715,3.54V127.93h-14.4v27.1h14.4v56.4q0,20.02,9.338,30.334T651.162,252.075ZM846.723,127.93v59.2q0,16.968-7.812,26.245t-19.287,9.277q-11.719,0-16.785-6.653t-5.066-23.132V127.93H765.058v73.486q0,13.672,3.235,23.56t9.4,15.747a38.563,38.563,0,0,0,14.1,8.606,55.49,55.49,0,0,0,18.188,2.747,46.559,46.559,0,0,0,19.836-4.333,48.017,48.017,0,0,0,16.418-12.634h.488V250h32.715V127.93ZM948.471,252.075q23.071,0,35.217-10.5t12.146-27.466a41.849,41.849,0,0,0-.732-8.179q-2.319-12.207-14.16-19.531-6.836-4.395-27.1-11.841-9.644-3.662-13.977-6.592t-4.333-6.592a7.618,7.618,0,0,1,3.662-6.775,14.9,14.9,0,0,1,8.3-2.38,37.61,37.61,0,0,1,14.709,3.235,48.836,48.836,0,0,1,14.465,9.7l15.869-23.926a68.45,68.45,0,0,0-44.678-15.381,53.6,53.6,0,0,0-22.4,4.517,37.609,37.609,0,0,0-15.747,12.878,32.912,32.912,0,0,0-5.8,19.226,39.945,39.945,0,0,0,1.343,10.62,28.182,28.182,0,0,0,3.967,8.667,43.231,43.231,0,0,0,5.859,6.836,38.2,38.2,0,0,0,7.751,5.554,92.946,92.946,0,0,0,8.85,4.333q4.333,1.831,9.827,3.662,8.667,2.808,13,4.639a25.2,25.2,0,0,1,6.775,3.967,6.414,6.414,0,0,1,2.441,4.944,8.564,8.564,0,0,1-4.028,7.324q-4.028,2.808-10.986,2.808-18.555,0-33.813-14.282l-15.869,22.583Q919.418,252.075,948.471,252.075Z" transform="translate(-16.264 -65.918)" fill="#e8ebef"/></svg>