<svg xmlns="http://www.w3.org/2000/svg" xmlns:xlink="http://www.w3.org/1999/xlink" width="150" height="150" viewBox="0 0 150 150"><defs><clipPath id="a"><rect width="150" height="150" transform="translate(1299.5 1671)" fill="#fff" stroke="#707070" stroke-width="1"/></clipPath></defs><g transform="translate(-1299.5 -1671)" clip-path="url(#a)"><g transform="translate(1318.886 1695.061)"><path d="M3.1,77.692,40.08,13.628l32.048,18.5L35.148,96.2Z" transform="translate(-0.8 -3.523)" fill="#fbbc04"/><path d="M121.431,73.946,84.424,9.86a18.5,18.5,0,0,0-32.717,17.3c.209.4.433.783.669,1.166L89.384,92.408a18.5,18.5,0,0,0,32.293-18.075c-.082-.146-.164-.287-.246-.428v.041Z" transform="translate(-12.81 0)" fill="#4285f4"/><circle cx="18.504" cy="18.504" r="18.504" transform="translate(0 64.774)" fill="#34a853"/></g></g></svg>