<svg xmlns="http://www.w3.org/2000/svg" xmlns:xlink="http://www.w3.org/1999/xlink" width="150" height="150" viewBox="0 0 150 150"><defs><clipPath id="a"><rect width="150" height="150" transform="translate(1133.5 1671)" fill="#fff" stroke="#707070" stroke-width="1"/></clipPath><radialGradient id="b" cx="40.954" cy="57.947" r="83.111" gradientTransform="translate(0.947 1.092) scale(0.973 0.942)" gradientUnits="userSpaceOnUse"><stop offset="0" stop-color="#423325" stop-opacity="0.98"/><stop offset="1" stop-color="#1c0a00"/></radialGradient></defs><g transform="translate(-1133.5 -1671)" clip-path="url(#a)"><g transform="translate(1150.478 1656.483)"><path d="M6.25,39.2H112.624V142.669H6.25Z" transform="translate(-1.415 -1.415)" fill="url(#b)"/><path d="M4.835,37.781H111.209V141.254H4.835ZM0,146.089H116.044V32.946H0ZM76.009,73.271c0-.387.145-.58.58-.58h7.591c.387,0,.58.145.58.58v38.15c0,.387-.1.58-.58.58H76.686c-.483,0-.629-.242-.629-.628v-38.1h-.048ZM75.477,62.3a4.932,4.932,0,0,1,9.864,0c0,3.191-2.079,4.932-5.029,4.932A4.545,4.545,0,0,1,75.477,62.3ZM53.719,89.179c-1.354-5.367-4.545-17.068-5.754-22.725h-.1c-1.015,5.657-3.578,15.231-5.609,22.725ZM40.277,97.012l-3.82,14.506c-.1.387-.242.483-.725.483H28.624c-.483,0-.58-.145-.483-.725L41.873,63.214a15.663,15.663,0,0,0,.483-4.013c0-.338.145-.483.387-.483H52.9c.338,0,.483.1.58.483l15.376,52.172c.1.387,0,.628-.387.628H60.44c-.387,0-.629-.1-.725-.435L55.75,97.012H40.277Z" fill="#ff7f18"/></g></g></svg>