<svg xmlns="http://www.w3.org/2000/svg" xmlns:xlink="http://www.w3.org/1999/xlink" width="150" height="150" viewBox="0 0 150 150"><defs><clipPath id="a"><rect width="150" height="150" transform="translate(1465.5 1671)" fill="#fff" stroke="#707070" stroke-width="1"/></clipPath></defs><g transform="translate(-1465.5 -1671)" clip-path="url(#a)"><g transform="translate(1492.654 1693.033)"><path d="M124.584,92.677a13.165,13.165,0,0,1-13.1,13.235,12.591,12.591,0,0,1-1.621-.092A13.5,13.5,0,0,1,98.345,92.136V13.775A13.507,13.507,0,0,1,109.889.092a13.149,13.149,0,0,1,14.694,13.143Z" transform="translate(-28.892 0)" fill="#f9ab00"/><path d="M13.121,96.3A13.121,13.121,0,1,1,0,109.419,13.121,13.121,0,0,1,13.121,96.3ZM47.643,56.533a13.5,13.5,0,0,0-12.76,13.8v35.241c0,9.565,4.21,15.37,10.376,16.607a13.141,13.141,0,0,0,15.492-10.271,12.844,12.844,0,0,0,.261-2.645V69.72A13.165,13.165,0,0,0,47.87,56.529C47.8,56.529,47.717,56.529,47.643,56.533Z" transform="translate(0 -16.607)" fill="#e37400"/></g></g></svg>