<svg xmlns="http://www.w3.org/2000/svg" width="29.592" height="22.819" viewBox="0 0 29.592 22.819">
  <g id="rigth-arrow" transform="translate(0 -58.595)">
    <g id="Grupo_1539" data-name="Grupo 1539" transform="translate(0 58.595)">
      <path id="Trazado_8370" data-name="Trazado 8370" d="M29.354,69.386,19.917,58.9a.927.927,0,0,0-.64-.305.9.9,0,0,0-.668.237l-2.748,2.473a.926.926,0,0,0-.068,1.306l4.156,4.618H.925L.3,67.473l-.3.682v3.7l.252.634.673.29H19.948l-4.156,4.616a.927.927,0,0,0,.068,1.308l2.748,2.475a.929.929,0,0,0,1.308-.068l9.438-10.484A.925.925,0,0,0,29.354,69.386Z" transform="translate(0 -58.595)" fill="#fff"/>
    </g>
  </g>
</svg>
