<svg xmlns="http://www.w3.org/2000/svg" width="183" height="183" viewBox="0 0 183 183"><g transform="translate(-248 -1383)"><circle cx="91.5" cy="91.5" r="91.5" transform="translate(248 1383)" fill="#fff" opacity="0.2"/><g transform="translate(289.27 1420.343)"><path d="M.459,136.6a.174.174,0,0,0,.009.023,1.389,1.389,0,0,0,.095.195c.006.009.01.017.017.025a1.292,1.292,0,0,0,.127.172l.01.012,21.225,23.709V185.2a1.336,1.336,0,0,0,2.149,1.06l12.534-9.6a1.336,1.336,0,0,0,.524-1.06v-1.046a22.98,22.98,0,0,0,2.4,1.974l-.109,3.685a1.337,1.337,0,0,0,.854,1.286l7.395,2.854a1.336,1.336,0,0,0,1.492-.374l2.392-2.772a25.639,25.639,0,0,0,6.5-.168l2.559,2.668a1.336,1.336,0,0,0,1.5.3l7.264-3.178a1.337,1.337,0,0,0,.8-1.322l-.271-3.69a23.082,23.082,0,0,0,4.49-4.715l3.685.109a1.337,1.337,0,0,0,1.286-.854l2.853-7.394a1.335,1.335,0,0,0-.373-1.492l-2.771-2.392a25.687,25.687,0,0,0-.169-6.5l2.669-2.558a1.336,1.336,0,0,0,.3-1.5l-3.179-7.264a1.332,1.332,0,0,0-1.321-.8l-3.691.271a23.1,23.1,0,0,0-4.714-4.49l.109-3.684a1.338,1.338,0,0,0-.854-1.287l-7.394-2.853a1.335,1.335,0,0,0-1.492.373l-.64.743v-2.119a1.336,1.336,0,0,0-1.336-1.336H51.868a6.268,6.268,0,1,0-11.684,0H1.711a1.337,1.337,0,0,0-1.336,1.336v8.728a1.445,1.445,0,0,0,.021.23c0,.007,0,.014,0,.02a1.268,1.268,0,0,0,.06.213Zm34.015,38.34L24.612,182.5V160.231a1.336,1.336,0,0,0-.34-.891L4.7,137.478H54.387l-3.567,3.984-.012.014L34.815,159.34a1.337,1.337,0,0,0-.341.891Zm19.792-31.474A12.916,12.916,0,1,1,41.35,156.387c0-.117.008-.235.011-.353L52.5,143.592a13.074,13.074,0,0,1,1.768-.121Zm6.495-12.222,5.634,2.175-.1,3.466a1.335,1.335,0,0,0,.594,1.151A20.432,20.432,0,0,1,72,142.912a1.332,1.332,0,0,0,1.173.538l3.467-.255,2.425,5.544-2.5,2.4a1.336,1.336,0,0,0-.39,1.2,23,23,0,0,1,.184,7.111,1.338,1.338,0,0,0,.452,1.184l2.595,2.24-2.175,5.633-3.466-.1a1.337,1.337,0,0,0-1.151.6,20.431,20.431,0,0,1-4.871,5.115,1.337,1.337,0,0,0-.538,1.172l.256,3.468-5.545,2.425-2.4-2.505a1.339,1.339,0,0,0-1.2-.39,22.973,22.973,0,0,1-7.111.184,1.335,1.335,0,0,0-1.184.452l-2.239,2.6-5.633-2.175.1-3.465a1.339,1.339,0,0,0-.594-1.152,20.486,20.486,0,0,1-4.5-4.087v-9.905l1.722-1.923a15.589,15.589,0,1,0,16.116-18l3.387-3.784.01-.012a1.438,1.438,0,0,0,.128-.171c.005-.009.01-.017.016-.026a1.391,1.391,0,0,0,.095-.195c0-.008.006-.016.009-.023a1.269,1.269,0,0,0,.06-.213c0-.006,0-.013,0-.02a1.352,1.352,0,0,0,.022-.23v-2.519Zm-17.278-9.985a3.6,3.6,0,0,1,5.334,4.814H43.236a3.6,3.6,0,0,1,.247-4.814Zm12.558,7.486v6.055H3.047v-6.055Zm0,0" transform="translate(0 -91.363)" fill="#fff"/><path d="M113.93,1.834a6.266,6.266,0,1,0,0,8.866,6.266,6.266,0,0,0,0-8.866Zm-1.889,6.977a3.6,3.6,0,1,1,0-5.087,3.6,3.6,0,0,1,0,5.087Zm0,0" transform="translate(-79.954 0)" fill="#fff"/><path d="M9.451,75.292a6.27,6.27,0,1,0,8.867,0,6.271,6.271,0,0,0-8.867,0Zm6.977,6.977a3.6,3.6,0,1,1,0-5.087,3.6,3.6,0,0,1,0,5.087Zm0,0" transform="translate(-5.628 -57.1)" fill="#fff"/><path d="M109.451,435.292a6.27,6.27,0,1,0,8.867,0A6.271,6.271,0,0,0,109.451,435.292Zm6.977,6.977a3.6,3.6,0,1,1,0-5.087,3.6,3.6,0,0,1,0,5.087Zm0,0" transform="translate(-83.358 -336.93)" fill="#fff"/><path d="M169.854,30.516l-5.909,5.908a1.337,1.337,0,0,0,0,1.889l5.909,5.909a1.337,1.337,0,0,0,1.889,0l5.909-5.909a1.336,1.336,0,0,0,0-1.889l-5.909-5.909a1.336,1.336,0,0,0-1.889,0Zm.945,10.872-4.019-4.019L170.8,33.35l4.019,4.019Zm0,0" transform="translate(-126.84 -23.416)" fill="#fff"/><path d="M114.48,93.376l-9.691-2.224a1.336,1.336,0,0,0-1.632,1.4l.723,9.918a1.336,1.336,0,0,0,2.2.917l8.969-7.694a1.336,1.336,0,0,0-.572-2.316Zm-8.128,6.257-.4-5.472,5.348,1.227Zm0,0" transform="translate(-79.89 -70.826)" fill="#fff"/><path d="M267.907,129.61l4.546-4.546a1.336,1.336,0,0,0-.672-2.253l-13.362-2.777a1.337,1.337,0,0,0-1.581,1.58l2.778,13.362a1.335,1.335,0,0,0,2.252.672l4.148-4.147a39.374,39.374,0,0,1,8.413,27.542c-.7,9.089-4.436,17.641-10.26,23.464a35.44,35.44,0,0,1-14.444,8.522,40.386,40.386,0,0,1-18.176,1.392,1.336,1.336,0,1,0-.408,2.641,42.5,42.5,0,0,0,6.469.494,43.162,43.162,0,0,0,12.916-1.978,38.1,38.1,0,0,0,15.531-9.182c6.268-6.267,10.289-15.433,11.035-25.149a42.042,42.042,0,0,0-9.05-29.492,1.34,1.34,0,0,0-.135-.145Zm-6.178,2.4-1.859-8.944,8.944,1.859Zm0,0" transform="translate(-178.495 -93.281)" fill="#fff"/></g></g></svg>