<svg xmlns="http://www.w3.org/2000/svg" xmlns:xlink="http://www.w3.org/1999/xlink" width="150" height="150" viewBox="0 0 150 150"><defs><clipPath id="a"><rect width="150" height="150" transform="translate(137.5 1331)" fill="#fff" stroke="#707070" stroke-width="1"/></clipPath></defs><g transform="translate(-137.5 -1331)" clip-path="url(#a)"><g transform="translate(145.01 1371.632)"><path d="M38.651,29.322a13.586,13.586,0,0,0,.494,4,24.035,24.035,0,0,0,1.437,3.233,1.953,1.953,0,0,1,.314,1.033,1.778,1.778,0,0,1-.853,1.347l-2.829,1.886a2.153,2.153,0,0,1-1.167.4,2.066,2.066,0,0,1-1.347-.629,13.891,13.891,0,0,1-1.617-2.11c-.449-.763-.9-1.617-1.392-2.649a16.588,16.588,0,0,1-13.2,6.2c-3.772,0-6.78-1.078-8.981-3.233a11.535,11.535,0,0,1-3.323-8.621,11.559,11.559,0,0,1,4.086-9.25c2.739-2.335,6.376-3.5,11-3.5a35.552,35.552,0,0,1,4.76.359c1.661.225,3.368.584,5.164.988V15.492c0-3.413-.718-5.793-2.11-7.185-1.437-1.392-3.862-2.066-7.319-2.066a20.43,20.43,0,0,0-4.85.584,35.779,35.779,0,0,0-4.85,1.527,12.884,12.884,0,0,1-1.572.584,2.754,2.754,0,0,1-.718.135c-.629,0-.943-.449-.943-1.392v-2.2A2.841,2.841,0,0,1,9.15,3.907a3.362,3.362,0,0,1,1.257-.943A25.851,25.851,0,0,1,16.065.943a27.224,27.224,0,0,1,7-.853c5.344,0,9.25,1.212,11.765,3.637,2.47,2.425,3.727,6.107,3.727,11.046V29.322ZM20.421,36.147a14.553,14.553,0,0,0,4.625-.808,10.006,10.006,0,0,0,4.266-2.874,7.127,7.127,0,0,0,1.527-2.874,16.12,16.12,0,0,0,.449-3.907V23.8a37.5,37.5,0,0,0-4.131-.763,33.835,33.835,0,0,0-4.221-.269c-3.009,0-5.209.584-6.691,1.8a6.259,6.259,0,0,0-2.2,5.164,6.268,6.268,0,0,0,1.661,4.76,6.227,6.227,0,0,0,4.715,1.661ZM56.478,41a2.507,2.507,0,0,1-1.706-.449,3.66,3.66,0,0,1-.943-1.751L43.276,4.086a7.866,7.866,0,0,1-.4-1.8A.985.985,0,0,1,43.95,1.167h4.4a2.489,2.489,0,0,1,1.751.449A3.674,3.674,0,0,1,51,3.368l7.544,29.726,7-29.726A3.15,3.15,0,0,1,66.4,1.617a3.089,3.089,0,0,1,1.8-.449H71.79a2.7,2.7,0,0,1,1.8.449,3.026,3.026,0,0,1,.853,1.751l7.095,30.085L89.3,3.368a3.851,3.851,0,0,1,.9-1.751,2.93,2.93,0,0,1,1.751-.449h4.176A1,1,0,0,1,97.25,2.29a4.478,4.478,0,0,1-.09.718,6.39,6.39,0,0,1-.314,1.123L86.024,38.841a3.443,3.443,0,0,1-.943,1.751,2.873,2.873,0,0,1-1.706.449H79.513a2.7,2.7,0,0,1-1.8-.449,3.183,3.183,0,0,1-.853-1.8L69.9,9.834,62.989,38.752a3.5,3.5,0,0,1-.853,1.8,2.783,2.783,0,0,1-1.8.449Zm57.7,1.212a29.715,29.715,0,0,1-6.915-.808,20.428,20.428,0,0,1-5.164-1.8,3.235,3.235,0,0,1-1.392-1.257,3.17,3.17,0,0,1-.269-1.257V34.8c0-.943.359-1.392,1.033-1.392a2.543,2.543,0,0,1,.808.135c.269.09.674.269,1.123.449a24.425,24.425,0,0,0,4.939,1.572,26.967,26.967,0,0,0,5.343.539,12.115,12.115,0,0,0,6.556-1.482,4.835,4.835,0,0,0,2.335-4.266,4.373,4.373,0,0,0-1.212-3.143,11.267,11.267,0,0,0-4.535-2.335l-6.511-2.021c-3.278-1.033-5.7-2.559-7.185-4.58a10.7,10.7,0,0,1-2.245-6.511A9.993,9.993,0,0,1,102.1,6.78,11.546,11.546,0,0,1,105.333,3.1,14.252,14.252,0,0,1,110,.763,19.571,19.571,0,0,1,115.661,0a22.542,22.542,0,0,1,3.009.18c1.033.135,1.976.314,2.919.494.9.225,1.751.449,2.559.718a9.8,9.8,0,0,1,1.886.808,3.883,3.883,0,0,1,1.347,1.123,2.42,2.42,0,0,1,.4,1.482v2.11c0,.943-.359,1.437-1.033,1.437a4.671,4.671,0,0,1-1.706-.539,20.543,20.543,0,0,0-8.621-1.751,11.59,11.59,0,0,0-5.972,1.257,4.336,4.336,0,0,0-2.11,4,4.24,4.24,0,0,0,1.347,3.188,13.413,13.413,0,0,0,4.939,2.47L121,18.994c3.233,1.033,5.568,2.47,6.96,4.311a10.161,10.161,0,0,1,2.066,6.286,11.544,11.544,0,0,1-1.167,5.209,12.076,12.076,0,0,1-3.278,3.951,14.475,14.475,0,0,1-4.984,2.515,21.353,21.353,0,0,1-6.421.943Z" transform="translate(-0.62 0)" fill="#252f3e"/><path d="M122.046,69.917c-14.773,10.912-36.237,16.7-54.692,16.7A98.945,98.945,0,0,1,.582,61.161C-.81,59.9.447,58.2,2.109,59.185A134.659,134.659,0,0,0,68.925,76.922,133.334,133.334,0,0,0,119.89,66.5c2.47-1.123,4.58,1.617,2.155,3.413Z" transform="translate(0 -5.884)" fill="#f90"/><path d="M140.377,62.615c-1.886-2.425-12.483-1.167-17.288-.584-1.437.18-1.661-1.078-.359-2.021,8.442-5.927,22.317-4.221,23.934-2.245,1.617,2.021-.449,15.9-8.352,22.541-1.212,1.033-2.38.494-1.841-.853C138.266,75.008,142.263,65,140.377,62.615Z" transform="translate(-12.179 -5.588)" fill="#f90"/></g></g></svg>