<svg xmlns="http://www.w3.org/2000/svg" width="282.715" height="590.186" viewBox="0 0 282.715 590.186">
  <path id="blog" d="M104.15-148.975q-27.686,0-44.238,19.043H59.18V-220.9H19.922V0h37.5V-17.725h.732Q74.121,2.49,102.979,2.49A71.989,71.989,0,0,0,131.03-2.93,65.1,65.1,0,0,0,153.3-18.091a68.966,68.966,0,0,0,14.575-23.877A87.553,87.553,0,0,0,173.145-72.8a87.3,87.3,0,0,0-5.273-30.615,72.523,72.523,0,0,0-14.429-24.17,65.909,65.909,0,0,0-21.973-15.674A66.344,66.344,0,0,0,104.15-148.975ZM95.8-32.666q-16.406,0-27.466-11.133T57.275-72.656q0-17.725,10.84-29.37T95.8-113.672q16.113,0,26.807,11.279T133.3-72.656q0,17.725-10.474,28.857T95.8-32.666ZM206.836,0h39.258V-220.9H206.836ZM357.422,2.49q22.559,0,40.283-9.448a68.518,68.518,0,0,0,27.686-26.733q9.961-17.285,9.961-39.4a80.625,80.625,0,0,0-5.786-30.835,69.418,69.418,0,0,0-16.04-24.023,72.694,72.694,0,0,0-24.756-15.454,86.742,86.742,0,0,0-31.348-5.566,86.73,86.73,0,0,0-31.787,5.713,71.466,71.466,0,0,0-24.756,15.747,70.431,70.431,0,0,0-15.747,24.1,80.7,80.7,0,0,0-5.64,30.322,82.631,82.631,0,0,0,3.589,24.609,69.281,69.281,0,0,0,10.474,20.874,72.733,72.733,0,0,0,16.333,16.04,73.293,73.293,0,0,0,21.606,10.4A89.456,89.456,0,0,0,357.422,2.49Zm0-35.156q-16.7,0-27.466-11.646T319.189-73.1q0-17.578,10.62-29.077t27.612-11.5q16.406,0,27.246,11.353T395.508-73.1q0,17.578-10.986,29A36.106,36.106,0,0,1,357.422-32.666ZM570.85-146.484V-131.4h-.732a56.57,56.57,0,0,0-19.849-13.11,64.808,64.808,0,0,0-23.95-4.468,65.355,65.355,0,0,0-34.863,9.521,65.347,65.347,0,0,0-24.243,26.514Q458.5-95.947,458.5-74.707q0,20.947,9.009,37.427a64.345,64.345,0,0,0,24.9,25.562Q508.3-2.637,528.369-2.637q26.367,0,42.627-17.139h.732V-4.98a29.289,29.289,0,0,1-10.84,23.291q-10.84,9.229-30.615,9.229a81.312,81.312,0,0,1-24.316-3.516,127.52,127.52,0,0,1-23.291-10.107l-9.082,33.105q25.781,14.795,60.059,14.795a104.789,104.789,0,0,0,29.517-3.809,64.252,64.252,0,0,0,21.753-10.693,57.819,57.819,0,0,0,14.5-16.772,73.361,73.361,0,0,0,8.2-21.606,124.187,124.187,0,0,0,2.49-25.781V-146.484Zm-35.3,108.252a41.5,41.5,0,0,1-11.938-1.685,35.531,35.531,0,0,1-10.254-4.907,34.423,34.423,0,0,1-7.983-7.764,34.475,34.475,0,0,1-5.2-10.474,43.257,43.257,0,0,1-1.831-12.817q0-16.553,10.4-26.953t26.807-10.4q15.82,0,26.44,10.254t10.62,26.807q0,16.553-10.4,27.246T535.547-38.232Z" transform="translate(220.898 610.107) rotate(-90)" fill="#e8ebef"/>
</svg>
