<svg xmlns="http://www.w3.org/2000/svg" xmlns:xlink="http://www.w3.org/1999/xlink" width="150" height="150" viewBox="0 0 150 150"><defs><clipPath id="a"><rect width="150" height="150" transform="translate(303.5 1671)" fill="#fff" stroke="#707070" stroke-width="1"/></clipPath></defs><g transform="translate(-303.5 -1671)" clip-path="url(#a)"><g transform="translate(324.282 1691.782)"><path d="M0,94.454a13.982,13.982,0,0,0,13.982,13.982H94.454a13.982,13.982,0,0,0,13.982-13.982V13.982A13.982,13.982,0,0,0,94.454,0H13.982A13.982,13.982,0,0,0,0,13.982V94.454Z" fill="#563d7c"/><path d="M56.668,56.164V40.808H70.185a21.025,21.025,0,0,1,3.724.322,9.3,9.3,0,0,1,3.173,1.149,6.13,6.13,0,0,1,2.207,2.3,7.634,7.634,0,0,1,.828,3.77q0,4.138-2.483,5.977a10.377,10.377,0,0,1-6.345,1.839H56.668ZM42.231,29.59V95.245H74.047a33.567,33.567,0,0,0,8.6-1.1,23,23,0,0,0,7.448-3.4,16.759,16.759,0,0,0,5.2-5.931,18.066,18.066,0,0,0,1.931-8.6,18.193,18.193,0,0,0-2.988-10.528,15.781,15.781,0,0,0-9.058-6.115,16.364,16.364,0,0,0,6.667-5.425,14.382,14.382,0,0,0,2.253-8.276,17.611,17.611,0,0,0-1.517-7.724A12.618,12.618,0,0,0,88.3,33.13a18.455,18.455,0,0,0-6.621-2.713,40.873,40.873,0,0,0-8.552-.828h-30.9ZM56.668,84.026V66H72.392a12.164,12.164,0,0,1,7.541,2.161q2.85,2.161,2.851,7.218a9.023,9.023,0,0,1-.874,4.23,6.939,6.939,0,0,1-2.345,2.621,9.93,9.93,0,0,1-3.4,1.38,19.3,19.3,0,0,1-4.046.413Z" transform="translate(-11.702 -8.199)" fill="#fff"/></g></g></svg>