<svg xmlns="http://www.w3.org/2000/svg" width="183" height="183" viewBox="0 0 183 183"><g transform="translate(-248 -1383)"><circle cx="91.5" cy="91.5" r="91.5" transform="translate(248 1383)" fill="#fff" opacity="0.2"/><g transform="translate(205.554 1402.912)"><path d="M202.652,183.368a1.286,1.286,0,0,0-.07-1.209l-18.695-30.643a1.286,1.286,0,0,0-2.2,0L163,182.159a1.286,1.286,0,0,0-.07,1.209l9.636,20.876v2.982h-.493a1.286,1.286,0,0,0-1.286,1.286v13.937a1.286,1.286,0,0,0,1.286,1.286H193.51a1.286,1.286,0,0,0,1.286-1.286V208.512a1.286,1.286,0,0,0-1.286-1.286h-.493v-2.982Zm-19.863-4.048a4.4,4.4,0,1,1-4.4,4.4A4.4,4.4,0,0,1,182.789,179.32ZM181.5,156.764v20.1a6.976,6.976,0,1,0,2.573,0v-20.1l15.952,26.148-9.121,19.763H174.671l-9.121-19.763Zm10.72,64.4H173.355V209.8h18.868Zm-17.088-13.937v-1.977h15.309v1.977Z" transform="translate(-49.342 -101.739)" fill="#fff"/><path d="M106.207,34.208a6.254,6.254,0,0,0,6.08-5.06h10.544a17.909,17.909,0,0,0-7.348,13.431h-3.572a1.286,1.286,0,0,0-1.286,1.286V54.228a1.286,1.286,0,0,0,1.286,1.286h10.363a1.286,1.286,0,0,0,1.286-1.286V43.865a1.286,1.286,0,0,0-1.286-1.286H118.06a15.335,15.335,0,0,1,8.85-12.857v3.321a1.286,1.286,0,0,0,1.286,1.286h10.363a1.286,1.286,0,0,0,1.286-1.286V29.719a15.287,15.287,0,0,1,8.85,12.859h-4.215a1.286,1.286,0,0,0-1.286,1.286V54.227a1.286,1.286,0,0,0,1.286,1.286h10.363a1.286,1.286,0,0,0,1.286-1.286V43.865a1.286,1.286,0,0,0-1.286-1.286h-3.571a17.856,17.856,0,0,0-7.333-13.431h10.4a6.211,6.211,0,1,0,0-2.573H139.846v-3.9a1.286,1.286,0,0,0-1.286-1.286H128.2a1.286,1.286,0,0,0-1.286,1.286v3.9H112.287a6.225,6.225,0,1,0-6.08,7.633Zm14.781,18.733H113.2v-7.79h7.79Zm32.569,0h-7.789v-7.79h7.79Zm6.992-28.716a3.638,3.638,0,1,1-3.774,3.636A3.712,3.712,0,0,1,160.548,24.225Zm-31.066-.259h7.79v7.79h-7.79Zm-23.275.121a3.776,3.776,0,1,1-3.635,3.774A3.711,3.711,0,0,1,106.207,24.087Z" fill="#fff"/></g></g></svg>