<svg xmlns="http://www.w3.org/2000/svg" width="90.891" height="90.427" viewBox="0 0 90.891 115.392"><g transform="translate(-0.501)"><path d="M331.759,53.615,325.449,51,313.188,63.26l4.192,1.758a6.11,6.11,0,0,0,6.626-1.307l8.159-8.158a1.2,1.2,0,0,0,0-1.667,3.091,3.091,0,0,0-.406-.27Zm0,0" transform="translate(-242.215 -39.506)" fill="#fcd770"/><path d="M292.833,24.13l12.261-12.26-2.57-6.176a1.175,1.175,0,0,0-1.532-.631.7.7,0,0,0-.361.271l-8.158,8.158a6.045,6.045,0,0,0-1.307,6.626Zm0,0" transform="translate(-224.79 -3.846)" fill="#fcd770"/><path d="M331.988,72.5l7.979,3.29,4.1-4.1L336.135,68.4Zm0,0" transform="translate(-256.778 -52.983)" fill="#ffae2c"/><path d="M312.137,26.042,308.891,18.2l-4.1,4.147,3.2,7.8Zm0,0" transform="translate(-235.709 -14.098)" fill="#ffae2c"/><path d="M188.266,59.939a2.231,2.231,0,0,1,0-3.2L229.24,15.811a2.263,2.263,0,0,1,3.2,3.2L191.466,59.984a2.272,2.272,0,0,1-3.2-.045Zm0,0" transform="translate(-144.924 -11.754)" fill="#c1814c"/><path d="M97.233,54.018,93.04,52.26,68.61,76.691a2.263,2.263,0,0,1-3.2-3.2l24.7-24.7-1.667-4.057a7.164,7.164,0,0,1-.406-1.4A37.636,37.636,0,0,0,66.9,36.8,38.194,38.194,0,1,0,98.766,54.379a6.286,6.286,0,0,1-1.533-.361Zm0,0" transform="translate(-22.067 -28.506)" fill="#f75c64"/><path d="M116.2,81.818,94.792,103.229a2.263,2.263,0,0,1-3.2-3.2l21.456-21.456A30.055,30.055,0,0,0,93.125,71a30.653,30.653,0,1,0,30.335,30.651A31.22,31.22,0,0,0,116.2,81.818Zm0,0" transform="translate(-48.249 -54.998)" fill="#e9e9ea"/><path d="M117.464,129.213a2.231,2.231,0,0,1,0-3.2l16.091-16.092A22.622,22.622,0,0,0,119,104.6,23.034,23.034,0,1,0,141.8,127.635a23.234,23.234,0,0,0-5.094-14.515l-16.091,16.092a2.178,2.178,0,0,1-3.155,0Zm0,0" transform="translate(-74.121 -81.027)" fill="#f75c64"/><path d="M143.491,156.012a2.231,2.231,0,0,1,0-3.2l10.593-10.593a14.869,14.869,0,0,0-9.015-3.021,15.164,15.164,0,1,0,12.215,6.266l-10.548,10.548A2.285,2.285,0,0,1,143.491,156.012Zm0,0" transform="translate(-100.149 -107.827)" fill="#e9e9ea"/><path d="M170.137,182.814a2.231,2.231,0,0,1,0-3.2l4.958-4.958a7.439,7.439,0,1,0,3.966,6.626,7.658,7.658,0,0,0-.811-3.426l-4.958,4.958a2.178,2.178,0,0,1-3.155,0Zm0,0" transform="translate(-126.794 -134.629)" fill="#f75c64"/><path d="M251.827,361.8a34.233,34.233,0,0,1-4.237,1.623l11.675,29.66a2.268,2.268,0,0,0,4.236-1.623v-.045Zm0,0" transform="translate(-191.401 -280.26)" fill="#6d6c6b"/><path d="M87.318,361.8,75.644,391.46a2.256,2.256,0,0,0,4.192,1.668v-.045l11.675-29.66a40.037,40.037,0,0,1-4.192-1.623Zm0,0" transform="translate(-58.085 -280.26)" fill="#6d6c6b"/><path d="M187.188,376.6v27.135a2.254,2.254,0,1,0,4.507,0V376.6A37.724,37.724,0,0,1,187.188,376.6Zm0,0" transform="translate(-144.612 -291.725)" fill="#6d6c6b"/><path d="M38.594,367.455a5,5,0,0,1-3.967-3.966.1.1,0,0,0-.09-.091c-.045,0-.045.046-.09.091a5,5,0,0,1-3.967,3.966.1.1,0,0,0-.09.091c0,.045.045.045.09.09a5,5,0,0,1,3.967,3.967.1.1,0,0,0,.09.09c.045,0,.045-.045.09-.09a4.946,4.946,0,0,1,3.967-3.967c.045,0,.09-.045.045-.09C38.639,367.5,38.639,367.455,38.594,367.455Zm0,0" transform="translate(-23.153 -281.497)" fill="#6dcc6d"/><path d="M22.392,36.455a5,5,0,0,1-3.967-3.966.1.1,0,0,0-.09-.091c-.045,0-.045.046-.091.091a5,5,0,0,1-3.966,3.966.1.1,0,0,0-.091.091c0,.045.046.045.091.09A5,5,0,0,1,18.244,40.6a.1.1,0,0,0,.091.09c.045,0,.045-.045.09-.09a5,5,0,0,1,3.967-3.967.1.1,0,0,0,.09-.09C22.436,36.5,22.436,36.455,22.392,36.455Zm0,0" transform="translate(-10.602 -25.097)" fill="#ffae2c"/><path d="M356.638,339.856h-3.921a1.127,1.127,0,0,1,0-2.254h3.921a1.127,1.127,0,0,1,0,2.254Zm0,0" transform="translate(-271.962 -261.515)" fill="#f75c64"/><path d="M361.518,334.976a1.116,1.116,0,0,1-1.127-1.127v-3.921a1.127,1.127,0,0,1,2.254,0v3.921A1.116,1.116,0,0,1,361.518,334.976Zm0,0" transform="translate(-278.78 -254.697)" fill="#f75c64"/><path d="M1.6,109.248a1.3,1.3,0,0,1-.812-.315.656.656,0,0,1-.136-.18.343.343,0,0,1-.09-.18.408.408,0,0,1-.045-.225c0-.09-.045-.136,0-.225V107.9c0-.09.045-.136.045-.225.045-.09.045-.136.09-.18s.091-.135.136-.18a1.109,1.109,0,0,1,1.217-.225c.091.046.136.046.18.091s.136.09.18.135a.656.656,0,0,1,.136.18.343.343,0,0,1,.09.18.408.408,0,0,1,.045.225v.451c0,.09-.045.136-.045.225-.045.09-.045.136-.09.18s-.091.135-.136.18a.613.613,0,0,1-.18.135.342.342,0,0,1-.18.091.406.406,0,0,1-.225.045c0,.045-.09.045-.18.045Zm0,0" transform="translate(0 -82.879)" fill="#60bae2"/><path d="M395.115,277.248a1.3,1.3,0,0,1-.811-.315.623.623,0,0,1-.136-.18.343.343,0,0,1-.09-.18.4.4,0,0,1-.046-.225c0-.09-.045-.136-.045-.225a.407.407,0,0,1,.045-.225c0-.09.046-.136.046-.225.045-.09.045-.136.09-.18s.09-.135.136-.18a1.109,1.109,0,0,1,1.217-.225c.09.046.136.046.18.091s.135.09.18.135a.639.639,0,0,1,.135.18.345.345,0,0,1,.091.18.408.408,0,0,1,.045.225.407.407,0,0,0,.045.225.408.408,0,0,1-.045.225c0,.09-.045.136-.045.225-.046.09-.046.136-.091.18s-.09.135-.135.18a.638.638,0,0,1-.18.135.344.344,0,0,1-.18.091.407.407,0,0,1-.225.045A.273.273,0,0,1,395.115,277.248Zm0,0" transform="translate(-304.805 -213.016)" fill="#60bae2"/><g transform="translate(5.795)"><path d="M257.546,391.723a3.37,3.37,0,0,1-3.155-2.164L242.716,359.9a1.1,1.1,0,0,1,.631-1.443c.045,0,.045,0,.09-.045a34.855,34.855,0,0,0,4.1-1.578,1.122,1.122,0,0,1,1.487.541.044.044,0,0,0,.045.045l11.675,29.614a3.363,3.363,0,0,1-1.938,4.373,2.5,2.5,0,0,1-1.262.315Zm-12.26-31.553,11.223,28.578a1.158,1.158,0,0,0,1.443.676,1.14,1.14,0,0,0,.676-1.443v-.045L247.4,359.4C246.683,359.675,245.962,359.945,245.286,360.17Zm0,0" transform="translate(-193.359 -276.331)" fill="#231f20"/><path d="M73.97,391.815a3.406,3.406,0,0,1-3.381-3.381,3.629,3.629,0,0,1,.225-1.217l11.675-29.66a1.112,1.112,0,0,1,1.442-.631.044.044,0,0,1,.045.045,40.593,40.593,0,0,0,4.1,1.578,1.115,1.115,0,0,1,.722,1.4c0,.045,0,.045-.046.09L77.081,389.7A3.336,3.336,0,0,1,73.97,391.815Zm10.187-32.364L72.933,387.984a1.143,1.143,0,0,0,2.119.857l11.223-28.578A17.052,17.052,0,0,1,84.157,359.451Zm0,0" transform="translate(-60.087 -276.423)" fill="#231f20"/><path d="M185.569,403.244a3.405,3.405,0,0,1-3.381-3.381V372.729a1.116,1.116,0,0,1,1.127-1.127h.091a35.515,35.515,0,0,0,4.372,0,1.189,1.189,0,0,1,.857.315,1.129,1.129,0,0,1,.361.812v27.135A3.445,3.445,0,0,1,185.569,403.244ZM184.442,373.9v25.963a1.127,1.127,0,1,0,2.254,0V373.9Zm0,0" transform="translate(-146.534 -287.852)" fill="#231f20"/><path d="M134.98,422.055H120.916a1.127,1.127,0,0,1,0-2.254H134.98a1.127,1.127,0,0,1,0,2.254Zm0,0" transform="translate(-98.199 -325.188)" fill="#231f20"/><path d="M217.379,422.055H203.315a1.127,1.127,0,0,1,0-2.254h14.064a1.127,1.127,0,0,1,0,2.254Zm0,0" transform="translate(-162.026 -325.188)" fill="#231f20"/><path d="M315.891,62.717a7.131,7.131,0,0,1-2.749-.541l-4.191-1.758a1.147,1.147,0,0,1-.631-1.488.971.971,0,0,1,.225-.36L320.8,46.309a1.111,1.111,0,0,1,1.218-.225l6.31,2.615a2.361,2.361,0,0,1,1.262,3.02,2.769,2.769,0,0,1-.5.767l-8.158,8.158a7.2,7.2,0,0,1-5.049,2.073Zm-4.552-3.741L314,60.057a4.937,4.937,0,0,0,5.409-1.081l8.158-8.159v-.045a.044.044,0,0,0-.045-.045l-5.634-2.344Zm0,0" transform="translate(-244.176 -35.627)" fill="#231f20"/><path d="M288.993,21.411a1.138,1.138,0,0,1-1.036-.676l-1.668-4.057a7.136,7.136,0,0,1,1.578-7.843L296.026.676a2.285,2.285,0,0,1,3.245,0,1.736,1.736,0,0,1,.5.766l2.57,6.176a1.109,1.109,0,0,1-.225,1.217L289.85,21.1a1.263,1.263,0,0,1-.857.315ZM297.6,2.254l-8.159,8.158a4.922,4.922,0,0,0-1.081,5.409L289.4,18.3,299.947,7.753l-2.254-5.5h-.09Zm0,0" transform="translate(-226.745)" fill="#231f20"/><path d="M186.209,57.636a3.381,3.381,0,0,1-2.389-5.77l40.973-40.973a3.36,3.36,0,0,1,4.778-.045,3.4,3.4,0,0,1,.046,4.778l-.046.046L188.6,56.644a3.458,3.458,0,0,1-2.389.992Zm-.812-2.57a1.144,1.144,0,0,0,1.623,0l40.973-40.973a1.148,1.148,0,0,0-1.623-1.623L185.4,53.444a1.142,1.142,0,0,0,0,1.623Zm0,0" transform="translate(-147.039 -7.648)" fill="#231f20"/><path d="M336.134,73.04a1.6,1.6,0,0,1-.451-.09l-7.934-3.291a1.146,1.146,0,0,1-.63-1.487.968.968,0,0,1,.225-.361l4.1-4.1a1.106,1.106,0,0,1,1.217-.225l7.933,3.29a1.147,1.147,0,0,1,.631,1.488.974.974,0,0,1-.225.361l-4.1,4.1A1.175,1.175,0,0,1,336.134,73.04Zm-6-4.823,5.724,2.344,2.389-2.388-5.724-2.344Zm0,0" transform="translate(-258.74 -49.105)" fill="#231f20"/><path d="M304.11,27.477a1.137,1.137,0,0,1-1.036-.676l-3.2-7.843a1.109,1.109,0,0,1,.225-1.217l4.1-4.1a1.089,1.089,0,0,1,1.578,0A1,1,0,0,1,306,14l3.245,7.8a1.107,1.107,0,0,1-.225,1.217l-4.1,4.1a1.128,1.128,0,0,1-.812.36Zm-1.893-8.654,2.3,5.544,2.389-2.388-2.3-5.545Zm0,0" transform="translate(-237.625 -10.303)" fill="#231f20"/><path d="M63.024,110.836a39.42,39.42,0,0,1,0-78.836A38.661,38.661,0,0,1,84.8,38.716a1.106,1.106,0,0,1,.5.766,4.6,4.6,0,0,0,.316,1.127l1.667,4.057a1.109,1.109,0,0,1-.225,1.218l-24.7,24.7a1.148,1.148,0,0,0,1.623,1.623L88.4,47.776a1.108,1.108,0,0,1,1.217-.225l4.192,1.758a3.99,3.99,0,0,0,1.262.315,1.2,1.2,0,0,1,.811.5A39.733,39.733,0,0,1,102.1,71.441a39.312,39.312,0,0,1-39.08,39.4Zm0-76.583A37.189,37.189,0,1,0,99.806,71.441a37.531,37.531,0,0,0-5.589-19.7,5.926,5.926,0,0,1-1.262-.406l-3.515-1.443-23.89,23.89a3.362,3.362,0,0,1-4.779.046,3.4,3.4,0,0,1-.045-4.779l.045-.045,24.161-24.16-1.4-3.381a10.914,10.914,0,0,1-.36-1.127,36.477,36.477,0,0,0-20.149-6.085Zm0,0" transform="translate(-23.989 -24.788)" fill="#231f20"/><path d="M89.052,129.511a31.757,31.757,0,0,1,0-63.511,31.275,31.275,0,0,1,20.69,7.843,1.132,1.132,0,0,1,.091,1.578l-.046.045L88.376,96.921A1.148,1.148,0,0,0,90,98.544l21.365-21.411a1.089,1.089,0,0,1,1.578,0c.046.046.046.046.046.091a32.032,32.032,0,0,1,7.482,20.554,31.569,31.569,0,0,1-31.418,31.733Zm0-61.257a29.526,29.526,0,1,0,29.209,29.524,29.785,29.785,0,0,0-6.175-18.166L91.577,100.121a3.362,3.362,0,0,1-4.779.046,3.4,3.4,0,0,1-.045-4.779l.045-.045L107.353,74.79a28.874,28.874,0,0,0-18.3-6.536Zm0,0" transform="translate(-50.017 -51.125)" fill="#231f20"/><path d="M115.326,148.121a24.16,24.16,0,1,1,15.281-42.776,1.1,1.1,0,0,1,.135,1.578c0,.046-.045.046-.045.091L114.559,123.1a1.148,1.148,0,1,0,1.623,1.623l16.091-16.091a1.025,1.025,0,0,1,.857-.315,1.093,1.093,0,0,1,.811.4,24.2,24.2,0,0,1-18.615,39.4Zm0-46.111a21.907,21.907,0,1,0,21.681,21.906,22.081,22.081,0,0,0-4.1-12.8L117.76,126.26a3.379,3.379,0,0,1-4.779-4.778l15.236-15.236a22.171,22.171,0,0,0-12.891-4.236Zm0,0" transform="translate(-76.2 -77.308)" fill="#231f20"/><path d="M141.968,167.124a16.364,16.364,0,0,1,0-32.725,15.977,15.977,0,0,1,9.691,3.246,1.14,1.14,0,0,1,.225,1.578c-.045.045-.045.09-.091.135L141.2,149.9a1.148,1.148,0,0,0,1.623,1.623l10.547-10.547a1.071,1.071,0,0,1,.9-.316,1.142,1.142,0,0,1,.812.451,16.417,16.417,0,0,1-3.651,22.9,16.732,16.732,0,0,1-9.466,3.11Zm0-30.471a14.064,14.064,0,1,0,13.973,14.154A14.574,14.574,0,0,0,154,143.549l-9.556,9.556a3.378,3.378,0,0,1-4.778-4.778l9.6-9.6a13.3,13.3,0,0,0-7.3-2.074Zm0,0" transform="translate(-102.843 -104.109)" fill="#231f20"/><path d="M168.307,185.974a8.587,8.587,0,0,1,0-17.173,8.216,8.216,0,0,1,3.966.991,1.115,1.115,0,0,1,.451,1.533c-.045.09-.135.18-.18.27l-4.958,4.958a1.147,1.147,0,0,0,1.623,1.623l4.958-4.958a1.089,1.089,0,0,1,1.578,0c.09.091.135.18.225.271a8.626,8.626,0,0,1-7.663,12.485Zm0-14.92a6.333,6.333,0,1,0,6.266,6.4v-.09a6.906,6.906,0,0,0-.136-1.352l-3.7,3.7a3.379,3.379,0,1,1-4.779-4.778l3.742-3.742a7.73,7.73,0,0,0-1.4-.135Zm0,0" transform="translate(-129.182 -130.757)" fill="#231f20"/></g></g></svg>
