<svg xmlns="http://www.w3.org/2000/svg" xmlns:xlink="http://www.w3.org/1999/xlink" width="150" height="150" viewBox="0 0 150 150"><defs><clipPath id="a"><rect width="150" height="150" transform="translate(303.5 1331)" fill="#fff" stroke="#707070" stroke-width="1"/></clipPath></defs><g transform="translate(-303.5 -1331)" clip-path="url(#a)"><g transform="translate(314.844 1354.772)"><path d="M83.518,28.213H87.4L98.47,17.146l.544-4.7A49.743,49.743,0,0,0,18.1,36.714a6.027,6.027,0,0,1,3.885-.235l22.129-3.65s1.126-1.862,1.708-1.745A27.608,27.608,0,0,1,83.6,28.213h-.08Z" transform="translate(-2.737 0)" fill="#ea4335"/><path d="M122.311,38.939a49.852,49.852,0,0,0-15.027-24.227L91.755,30.241a27.6,27.6,0,0,1,10.134,21.9V54.9a13.821,13.821,0,0,1,0,27.642H74.242l-2.759,2.8v16.58l2.759,2.759h27.647a35.954,35.954,0,0,0,20.422-65.737Z" transform="translate(-10.815 -2.226)" fill="#4285f4"/><path d="M38.244,116.365H65.891V94.236H38.244a13.7,13.7,0,0,1-5.71-1.243l-3.885,1.2L17.507,105.261l-.971,3.885a35.783,35.783,0,0,0,21.708,7.22Z" transform="translate(-2.501 -14.069)" fill="#34a853"/><path d="M35.743,35.939a35.952,35.952,0,0,0-21.7,64.451L30.076,84.355A13.822,13.822,0,1,1,48.363,66.068L64.4,50.033A35.938,35.938,0,0,0,35.743,35.939Z" transform="translate(0 -5.437)" fill="#fbbc05"/></g></g></svg>