<svg xmlns="http://www.w3.org/2000/svg" width="107.391" height="90.427" viewBox="0 0 107.391 115.393"><g transform="translate(-0.001)"><path d="M27.176,23.174,9.822,40.528a1.525,1.525,0,0,0,0,2.209l15.6,15.6a1.525,1.525,0,0,0,2.209,0L44.981,40.978a1.525,1.525,0,0,0,0-2.209l-15.6-15.6A1.525,1.525,0,0,0,27.176,23.174Zm0,0" transform="translate(-7.241 -17.584)" fill="#60bae2"/><path d="M324.778,329.69l-17.354,17.354a1.525,1.525,0,0,0,0,2.209l15.6,15.6a1.525,1.525,0,0,0,2.209,0l17.354-17.354a1.525,1.525,0,0,0,0-2.209l-15.6-15.6A1.608,1.608,0,0,0,324.778,329.69Zm0,0" transform="translate(-237.77 -255.045)" fill="#e9e9ea"/><path d="M327.417,27.572l-15.6,15.6a1.525,1.525,0,0,0,0,2.209l17.354,17.354a1.525,1.525,0,0,0,2.209,0l15.6-15.6a1.525,1.525,0,0,0,0-2.209L329.626,27.572A1.525,1.525,0,0,0,327.417,27.572Zm0,0" transform="translate(-241.177 -20.991)" fill="#fcd770"/><path d="M21.019,325.29l-15.6,15.6a1.525,1.525,0,0,0,0,2.209l17.354,17.354a1.525,1.525,0,0,0,2.209,0l15.6-15.6a1.525,1.525,0,0,0,0-2.209L23.228,325.29A1.606,1.606,0,0,0,21.019,325.29Zm0,0" transform="translate(-3.834 -251.636)" fill="#6d6c6b"/><path d="M111.748,106.794,108.954,104l-16.9,16.948,2.794,2.8a.9.9,0,0,0,1.218,0l15.731-15.687A1.014,1.014,0,0,0,111.748,106.794Zm0,0" transform="translate(-71.304 -80.561)" fill="#e9e9ea"/><path d="M296.216,336.69l2.794,2.794,16.9-16.9-2.794-2.794a.9.9,0,0,0-1.218,0l-15.731,15.731A.893.893,0,0,0,296.216,336.69Zm0,0" transform="translate(-229.267 -247.531)" fill="#e9e9ea"/><path d="M318.94,129.5l2.794-2.794-16.9-16.9-2.794,2.794a.9.9,0,0,0,0,1.218L317.768,129.5a.843.843,0,0,0,1.173,0Zm0,0" transform="translate(-233.781 -85.054)" fill="#e9e9ea"/><path d="M89.044,313.966,86.25,316.76l16.9,16.9,2.794-2.794a.9.9,0,0,0,0-1.218L90.262,313.921A.953.953,0,0,0,89.044,313.966Zm0,0" transform="translate(-66.811 -243.017)" fill="#e9e9ea"/><path d="M121.615,149.836l2.7-2.7a3.092,3.092,0,0,1,4.372,4.373l-.09.135,14.92-14.965a11.692,11.692,0,0,1,2.389-1.848,14.165,14.165,0,0,0-7.437-3.877c-2.3-.63-5.094-.18-8.7-3.515L127.25,125l-14.2,14.244,4.823,4.824a18.356,18.356,0,0,1,3.381,5.229c.091.18.225.406.316.585l.045-.045Zm0,0" transform="translate(-87.571 -96.828)" fill="#f9d0b4"/><path d="M242.1,271.067l-2.7,2.7a3.092,3.092,0,0,1-4.372-4.373l-9.556,9.6-.045.045a.77.77,0,0,1-.225.18l-4.958,4.958a11.711,11.711,0,0,1-2.388,1.848,14.154,14.154,0,0,0,7.437,3.876c2.3.631,5.093.18,8.7,3.516l2.524,2.434,14.244-14.244-4.824-4.824a18.376,18.376,0,0,1-3.381-5.229c-.09-.181-.225-.406-.315-.586A.566.566,0,0,0,242.1,271.067Zm0,0" transform="translate(-168.752 -208.683)" fill="#f9d0b4"/><path d="M179.2,160.317a2.774,2.774,0,0,0,3.921,0,2.773,2.773,0,0,0,3.921,3.922,2.773,2.773,0,0,0,3.922,3.921,1.774,1.774,0,0,0-.361.451,2.772,2.772,0,0,0,4.282,3.471l.045-.046,9.556-9.556a3.091,3.091,0,0,0,4.372,4.372l2.7-2.7a14.048,14.048,0,0,0,3.922-7.482c.63-2.3.18-5.093,3.515-8.7l2.434-2.525L207.189,131.2l-4.824,4.824a18.377,18.377,0,0,1-5.229,3.381,11.69,11.69,0,0,0-2.975,2.163l-14.92,14.92a2.706,2.706,0,0,0-.045,3.831Zm0,0" transform="translate(-138.212 -101.63)" fill="#f9d0b4"/><path d="M123.91,224.371l.09-.136a3.091,3.091,0,0,0-4.372-4.372l-2.7,2.7A14.045,14.045,0,0,0,113,230.051c-.631,2.3-.18,5.094-3.515,8.7l-2.434,2.524,14.244,14.244,4.823-4.823a18.358,18.358,0,0,1,5.229-3.381,11.73,11.73,0,0,0,2.975-2.164l4.958-4.958a2.741,2.741,0,0,1-3.876-.451,2.706,2.706,0,0,1-.136-3.245,3.068,3.068,0,0,1,.361-.451,2.773,2.773,0,1,1-3.922-3.922,2.773,2.773,0,1,1-3.921-3.921,2.725,2.725,0,1,1-3.876-3.831Zm0,0" transform="translate(-82.924 -169.605)" fill="#f9d0b4"/><path d="M217.055,4.057A5,5,0,0,1,213.088.09.1.1,0,0,0,213,0c-.045,0-.045.045-.09.09a5,5,0,0,1-3.967,3.967.1.1,0,0,0-.09.09c0,.046.045.046.09.091A5,5,0,0,1,212.908,8.2a.1.1,0,0,0,.09.091c.045,0,.045-.045.09-.091a5,5,0,0,1,3.967-3.966.1.1,0,0,0,.09-.091c0-.09-.045-.09-.09-.09Zm0,0" transform="translate(-161.781 0)" fill="#fcd770"/><path d="M41.853,266.659a5,5,0,0,1-3.967-3.967.1.1,0,0,0-.09-.09c-.045,0-.045.045-.091.09a5,5,0,0,1-3.966,3.967.1.1,0,0,0-.091.09c0,.045.046.045.091.09a5,5,0,0,1,3.966,3.967.1.1,0,0,0,.091.09c.045,0,.045-.045.09-.09a5,5,0,0,1,3.967-3.967.09.09,0,1,0,0-.18Zm0,0" transform="translate(-26.064 -203.418)" fill="#f75c64"/><path d="M265.1,495.652h-3.921a1.127,1.127,0,0,1,0-2.254H265.1a1.127,1.127,0,0,1,0,2.254Zm0,0" transform="translate(-201.441 -382.198)" fill="#6dcc6d"/><path d="M269.979,490.776a1.116,1.116,0,0,1-1.127-1.127v-3.921a1.127,1.127,0,1,1,2.254,0v3.921A1.145,1.145,0,0,1,269.979,490.776Zm0,0" transform="translate(-208.258 -375.384)" fill="#6dcc6d"/><path d="M309.377,457.448a1.3,1.3,0,0,1-.812-.315.626.626,0,0,1-.135-.18.345.345,0,0,1-.091-.18.407.407,0,0,1-.045-.225c0-.09-.045-.135-.045-.225a.409.409,0,0,1,.045-.225c0-.09.045-.135.045-.225.046-.09.046-.135.091-.18s.09-.135.135-.18a1.108,1.108,0,0,1,1.218-.225c.045.045.135.045.18.09s.135.09.18.135a.605.605,0,0,1,.136.18.346.346,0,0,1,.09.18.334.334,0,0,1,.046.225.406.406,0,0,0,.045.225.406.406,0,0,1-.045.225c0,.091-.046.136-.046.225-.045.091-.045.135-.09.18s-.09.136-.136.18a.62.62,0,0,1-.18.135.341.341,0,0,1-.18.091.409.409,0,0,1-.225.045C309.512,457.4,309.422,457.448,309.377,457.448Zm0,0" transform="translate(-238.777 -352.603)" fill="#60bae2"/><path d="M181.979,64.047a1.3,1.3,0,0,1-.812-.316.637.637,0,0,1-.136-.18.346.346,0,0,1-.09-.18.409.409,0,0,1-.045-.225c0-.091-.045-.136-.045-.225a.406.406,0,0,1,.045-.225c0-.091.045-.136.045-.225.045-.091.045-.136.09-.18s.091-.136.136-.18a1.108,1.108,0,0,1,1.217-.225c.046.045.136.045.18.091s.136.09.18.135a.642.642,0,0,1,.136.18.343.343,0,0,1,.09.18.338.338,0,0,1,.045.225.409.409,0,0,0,.045.225.409.409,0,0,1-.045.225c0,.09-.045.135-.045.225-.045.09-.045.135-.09.18s-.091.135-.136.18a.6.6,0,0,1-.18.136.34.34,0,0,1-.18.09.4.4,0,0,1-.225.046C182.158,64.047,182.069,64.047,181.979,64.047Zm0,0" transform="translate(-140.091 -47.865)" fill="#f75c64"/><g transform="translate(0.001 3.955)"><path d="M91.48,121.377a1.974,1.974,0,0,1-1.4-.586L87.288,118a1.089,1.089,0,0,1,0-1.578l16.9-16.9A1.087,1.087,0,0,1,105,99.2a1.3,1.3,0,0,1,.811.316l2.8,2.794a1.986,1.986,0,0,1,0,2.794L92.877,120.791A1.977,1.977,0,0,1,91.48,121.377Zm-1.8-4.147,1.8,1.8,15.326-15.326-1.8-1.8Zm17.309-13.342" transform="translate(-67.353 -80.798)" fill="#231f20"/><path d="M124.65,148.927a1.116,1.116,0,0,1-1.127-1.127,1.1,1.1,0,0,1,.27-.721l.09-.136.091-.09a1.945,1.945,0,0,0-2.7-2.8l-.045.046-2.7,2.7-.046-.046-.811-.721.766.812a1.13,1.13,0,0,1-1.578.045.811.811,0,0,1-.18-.225,3.738,3.738,0,0,1-.315-.586c-.18-.36-.361-.721-.586-1.081a13.327,13.327,0,0,0-2.614-3.877l-4.868-4.868a1.089,1.089,0,0,1,0-1.578l14.244-14.244a1.089,1.089,0,0,1,1.578,0l2.525,2.433a10.739,10.739,0,0,0,6.355,2.885,12.84,12.84,0,0,1,1.8.361,15.031,15.031,0,0,1,7.978,4.147,1.089,1.089,0,0,1,0,1.578.768.768,0,0,1-.225.18,9.9,9.9,0,0,0-2.163,1.667l-14.921,14.921a1.534,1.534,0,0,1-.811.315Zm-2.119-7.618a4.206,4.206,0,0,1,4.012,2.975l12.17-12.17a17.035,17.035,0,0,1,1.352-1.172,12.474,12.474,0,0,0-5.769-2.614h-.091c-.541-.136-1.082-.225-1.623-.316a12.553,12.553,0,0,1-7.573-3.47l-1.667-1.758-12.666,12.666,4.012,4.012a16.053,16.053,0,0,1,3.065,4.463l.136.27,1.712-1.713A3.98,3.98,0,0,1,122.531,141.309Zm0,0" transform="translate(-83.62 -96.989)" fill="#231f20"/><path d="M295.081,336.662a1.3,1.3,0,0,1-.811-.315l-2.8-2.8a1.986,1.986,0,0,1,0-2.794l15.731-15.732a1.986,1.986,0,0,1,2.794,0l2.8,2.794a1.089,1.089,0,0,1,0,1.578l-16.9,16.9A1.214,1.214,0,0,1,295.081,336.662Zm-1.8-4.508,1.8,1.8,15.326-15.326-1.8-1.8Zm0,0" transform="translate(-225.338 -247.536)" fill="#231f20"/><path d="M232.515,293.39a1.09,1.09,0,0,1-.766-.315l-2.524-2.434a10.741,10.741,0,0,0-6.356-2.885,12.721,12.721,0,0,1-1.8-.361,15.028,15.028,0,0,1-7.978-4.147,1.089,1.089,0,0,1,0-1.578.8.8,0,0,1,.225-.18,9.874,9.874,0,0,0,2.164-1.667l4.958-4.958.09-.091.136-.135.045-.045,9.556-9.556a1.116,1.116,0,1,1,1.578,1.578,1.944,1.944,0,0,0,2.749,2.749l2.7-2.7.046.046.811.721-.766-.812a1.13,1.13,0,0,1,1.578-.045.812.812,0,0,1,.18.225,3.739,3.739,0,0,1,.315.586c.18.36.361.721.586,1.081a13.328,13.328,0,0,0,2.614,3.877l4.824,4.823a1.089,1.089,0,0,1,0,1.578l-14.244,14.244a.812.812,0,0,1-.721.406ZM215.7,282.572a12.484,12.484,0,0,0,5.769,2.615h.091c.541.135,1.081.225,1.623.315a12.549,12.549,0,0,1,7.572,3.47l1.758,1.668,12.666-12.666-4.011-4.012A16.051,16.051,0,0,1,238.1,269.5c-.045-.09-.09-.18-.136-.27l-1.712,1.712a4.244,4.244,0,0,1-5.95,0,3.992,3.992,0,0,1-1.036-1.712l-6.987,6.987a1.217,1.217,0,0,1-.27.225l-4.913,4.913A11.787,11.787,0,0,1,215.7,282.572Zm0,0" transform="translate(-164.801 -208.997)" fill="#231f20"/><path d="M314.359,127.059a1.977,1.977,0,0,1-1.4-.585l-15.687-15.731a1.986,1.986,0,0,1,0-2.794l2.794-2.8a1.174,1.174,0,0,1,1.578,0l16.9,16.9a1.089,1.089,0,0,1,0,1.578l-2.794,2.8a1.851,1.851,0,0,1-1.4.63Zm-15.281-17.714L314.4,124.671l1.8-1.8-15.326-15.326Zm0,0" transform="translate(-229.832 -85.173)" fill="#231f20"/><path d="M289.979,259.676a1.116,1.116,0,0,1-1.127-1.127,1.3,1.3,0,0,1,.315-.812l2.118-2.118a1.116,1.116,0,0,1,1.623,1.533l-.046.045-2.118,2.118A.963.963,0,0,1,289.979,259.676Zm0,0" transform="translate(-223.752 -201.697)" fill="#231f20"/><path d="M189.278,170.143h-.09a3.867,3.867,0,0,1-3.786-3.921,3.877,3.877,0,0,1-3.876-3.877,3.875,3.875,0,0,1-3.876-3.876,3.876,3.876,0,0,1-2.749-6.626l14.92-14.92a11.933,11.933,0,0,1,3.245-2.344c.361-.18.721-.36,1.082-.585a13.355,13.355,0,0,0,3.876-2.615l4.824-4.823a1.174,1.174,0,0,1,1.578,0L218.668,140.8a1.089,1.089,0,0,1,0,1.578l-2.434,2.524a10.746,10.746,0,0,0-2.885,6.355,12.79,12.79,0,0,1-.36,1.8,14.835,14.835,0,0,1-4.237,8.024l-2.7,2.7a4.246,4.246,0,0,1-5.95,0,4,4,0,0,1-1.036-1.713l-6.987,6.987a4.249,4.249,0,0,1-2.8,1.082Zm-1.172-5.048c-.09.09-.135.18-.225.27a1.618,1.618,0,0,0,.5,2.254,1.711,1.711,0,0,0,2.074-.225l.045-.045,9.556-9.556a1.116,1.116,0,0,1,1.578,1.578,1.944,1.944,0,1,0,2.749,2.749l2.7-2.7a12.818,12.818,0,0,0,3.606-6.9v-.091c.136-.541.225-1.081.316-1.623a12.549,12.549,0,0,1,3.47-7.572l1.668-1.758-12.667-12.666-4.011,4.011A16.05,16.05,0,0,1,195,135.886a10.066,10.066,0,0,0-.992.541l-.045.046a10.467,10.467,0,0,0-2.7,1.983l-14.92,14.921a1.625,1.625,0,0,0,2.3,2.3,1.116,1.116,0,0,1,1.623,1.533l-.045.045a1.625,1.625,0,1,0,2.3,2.3,1.116,1.116,0,0,1,1.578,1.578,1.626,1.626,0,1,0,2.3,2.3,1.2,1.2,0,0,1,1.712,1.668Zm0,0" transform="translate(-134.592 -101.752)" fill="#231f20"/><path d="M230.178,270.466a1.116,1.116,0,0,1-1.127-1.127,1.3,1.3,0,0,1,.315-.812l6.311-6.31a1.116,1.116,0,0,1,1.623,1.533l-.045.045-6.311,6.311A1.032,1.032,0,0,1,230.178,270.466Zm0,0" transform="translate(-177.429 -206.808)" fill="#231f20"/><path d="M212.775,253.008a1.117,1.117,0,0,1-1.127-1.127,1.3,1.3,0,0,1,.316-.812l6.311-6.311a1.116,1.116,0,1,1,1.623,1.533l-.045.045-6.311,6.311A.849.849,0,0,1,212.775,253.008Zm0,0" transform="translate(-163.948 -193.271)" fill="#231f20"/><path d="M195.377,235.867a1.116,1.116,0,0,1-1.127-1.127,1.3,1.3,0,0,1,.315-.811l6.311-6.311a1.116,1.116,0,0,1,1.623,1.533l-.046.045-6.311,6.311A.961.961,0,0,1,195.377,235.867Zm0,0" transform="translate(-150.471 -180.007)" fill="#231f20"/><path d="M99.4,331.015a1.294,1.294,0,0,1-.811-.315l-16.9-16.9a1.089,1.089,0,0,1,0-1.578l2.794-2.8a1.986,1.986,0,0,1,2.794,0l15.687,15.731a1.987,1.987,0,0,1,0,2.8l-2.794,2.794A1.425,1.425,0,0,1,99.4,331.015Zm-15.326-18.03L99.4,328.311l1.8-1.8L85.881,311.182Zm0,0" transform="translate(-63.017 -243.197)" fill="#231f20"/><path d="M169.377,241.476a1.116,1.116,0,0,1-1.127-1.127,1.3,1.3,0,0,1,.315-.812l2.119-2.118a1.116,1.116,0,1,1,1.623,1.532l-.045.046-2.119,2.118A.962.962,0,0,1,169.377,241.476Zm0,0" transform="translate(-130.331 -187.6)" fill="#231f20"/><path d="M117.542,252.828a1.294,1.294,0,0,1-.811-.315l-14.244-14.244a1.089,1.089,0,0,1,0-1.578l2.434-2.525a10.739,10.739,0,0,0,2.885-6.355,12.716,12.716,0,0,1,.361-1.8,14.831,14.831,0,0,1,4.236-8.023l2.7-2.7a4.207,4.207,0,1,1,6,5.9l-.09.09-.091.091a1.625,1.625,0,0,0,2.3,2.3,1.116,1.116,0,0,1,1.623,1.533l-.046.045a1.626,1.626,0,0,0,2.3,2.3,1.116,1.116,0,0,1,1.623,1.533l-.045.045a1.625,1.625,0,0,0,2.3,2.3,1.116,1.116,0,0,1,1.623,1.533l-.045.045c-.091.091-.136.18-.225.27a1.652,1.652,0,0,0,2.434,2.164,1.093,1.093,0,0,1,1.578.18,1.108,1.108,0,0,1-.091,1.487l-4.958,4.958a11.933,11.933,0,0,1-3.245,2.344c-.361.18-.721.36-1.082.585a13.355,13.355,0,0,0-3.876,2.615l-4.824,4.823a.7.7,0,0,1-.721.406Zm-12.666-15.37,12.666,12.666,4.012-4.012a16.054,16.054,0,0,1,4.463-3.065,9.859,9.859,0,0,0,.991-.541.044.044,0,0,0,.045-.045,10.421,10.421,0,0,0,2.7-1.983l2.66-2.659a3.9,3.9,0,0,1-2.524-3.652,3.914,3.914,0,0,1-3.921-3.876v-.045a3.877,3.877,0,0,1-3.877-3.876,3.876,3.876,0,0,1-3.876-3.876,4.019,4.019,0,0,1,1.082-2.7l.09-.091.091-.09a1.945,1.945,0,0,0-2.7-2.8l-.045.046-2.7,2.7a12.819,12.819,0,0,0-3.606,6.9v.091c-.136.541-.225,1.081-.316,1.623a12.55,12.55,0,0,1-3.47,7.572Zm15.236-16.9" transform="translate(-79.127 -169.743)" fill="#231f20"/><path d="M22.667,55.92a2.521,2.521,0,0,1-1.893-.812l-15.6-15.6a2.748,2.748,0,0,1,0-3.831L22.532,18.327a2.748,2.748,0,0,1,3.831,0l15.6,15.6a2.75,2.75,0,0,1,0,3.831L24.605,55.108A2.7,2.7,0,0,1,22.667,55.92Zm1.758-36.06a.408.408,0,0,0-.315.135L6.8,37.3a.436.436,0,0,0,0,.631l15.6,15.6a.436.436,0,0,0,.631,0L40.382,36.176a.436.436,0,0,0,0-.631L24.74,19.994a.408.408,0,0,0-.315-.135Zm-1.082-.676" transform="translate(-3.409 -17.549)" fill="#231f20"/><path d="M320.467,362.475a2.657,2.657,0,0,1-1.893-.766l-15.6-15.6a2.749,2.749,0,0,1,0-3.831l17.354-17.354a2.748,2.748,0,0,1,3.831,0l15.6,15.6a2.749,2.749,0,0,1,0,3.831l-17.354,17.354A2.847,2.847,0,0,1,320.467,362.475Zm1.758-36.06a.409.409,0,0,0-.316.136L304.555,343.9a.437.437,0,0,0,0,.631l15.6,15.6a.435.435,0,0,0,.63,0l17.354-17.354a.436.436,0,0,0,0-.631l-15.6-15.6A.484.484,0,0,0,322.225,326.415Zm0,0" transform="translate(-234.092 -255.05)" fill="#231f20"/><path d="M326.624,60.2a2.523,2.523,0,0,1-1.893-.811L307.377,42.04a2.748,2.748,0,0,1,0-3.831l15.6-15.6a2.7,2.7,0,0,1,1.893-.811,2.524,2.524,0,0,1,1.894.811l17.354,17.354a2.749,2.749,0,0,1,0,3.831l-15.6,15.6a2.527,2.527,0,0,1-1.894.811Zm-1.758-36.06a.407.407,0,0,0-.315.136l-15.6,15.6a.436.436,0,0,0,0,.631l17.354,17.354a.436.436,0,0,0,.631,0l15.6-15.6a.436.436,0,0,0,0-.631L325.182,24.28A.486.486,0,0,0,324.866,24.144Zm-1.127-.676" transform="translate(-237.499 -20.842)" fill="#231f20"/><path d="M20.026,357.92a2.521,2.521,0,0,1-1.894-.812L.778,339.754a2.75,2.75,0,0,1,0-3.831l15.6-15.6a2.748,2.748,0,0,1,3.831,0l17.354,17.354a2.748,2.748,0,0,1,0,3.831l-15.6,15.6a2.691,2.691,0,0,1-1.938.812Zm-2.074-35.925-15.6,15.6a.435.435,0,0,0,0,.63L19.71,355.575a.435.435,0,0,0,.631,0l15.6-15.6a.436.436,0,0,0,0-.631L18.583,321.994A.437.437,0,0,0,17.952,321.994Zm0,0" transform="translate(-0.001 -251.485)" fill="#231f20"/></g></g></svg>
