<svg xmlns="http://www.w3.org/2000/svg" width="90.427" height="90.427" viewBox="0 0 103.243 115.781"><g transform="translate(-0.309 -0.001)"><path d="M418.657,220.1a3.358,3.358,0,0,0-.95,0v5.7a2.891,2.891,0,1,0,.95-5.7Zm0,0" transform="translate(-322.938 -170.262)" fill="#f9d0b4"/><path d="M345.057,225.349V220.1a3.354,3.354,0,0,0-.95,0,2.953,2.953,0,0,0-2.4,2.9,2.878,2.878,0,0,0,2.9,2.851,1.549,1.549,0,0,0,.453-.045Zm0,0" transform="translate(-264.138 -170.262)" fill="#f9d0b4"/><path d="M364.32,205.75a7.5,7.5,0,0,1-7.558,2.489.4.4,0,0,0-.453.271v5.7a6.925,6.925,0,1,0,13.85,0v-6.291a.39.39,0,0,0-.362-.362,7.128,7.128,0,0,1-4.979-1.81c-.09-.181-.317-.181-.5,0Zm0,0" transform="translate(-275.435 -159.081)" fill="#f9d0b4"/><path d="M348.318,186.9a1.548,1.548,0,0,1,.453.045v-.317a.357.357,0,0,1,.362-.362h.091a7.5,7.5,0,0,0,7.558-2.489.37.37,0,0,1,.544-.045l.045.045a7.126,7.126,0,0,0,4.979,1.81.389.389,0,0,1,.362.362v1.041a2.838,2.838,0,0,1,2.444.769v-5.114a4.072,4.072,0,0,0-3.168-3.983,3.967,3.967,0,0,0-2.851.5,3.915,3.915,0,0,0-3.395-1.946h-2.083a7.166,7.166,0,0,0-7.151,7.151v3.214A2.648,2.648,0,0,1,348.318,186.9Zm0,0" transform="translate(-267.852 -137.109)" fill="#6d6c6b"/><path d="M376.585,271.428a7.152,7.152,0,0,1-3.077-.724v2.58l1.086,3.123a.449.449,0,0,0,.453.316H378.4a.544.544,0,0,0,.453-.316l1.086-3.123v-2.671A7.774,7.774,0,0,1,376.585,271.428Zm0,0" transform="translate(-288.741 -209.37)" fill="#f9d0b4"/><path d="M352.229,287.845a2.7,2.7,0,0,0-2.082-2.489L344.761,284l-3.258-1.584-1.086,3.123a.449.449,0,0,1-.453.317h-3.35a.546.546,0,0,1-.453-.317l-1.086-3.123L331.816,284l-5.386,1.358a2.749,2.749,0,0,0-2.082,2.489l-.453,8.147a.978.978,0,0,0,.95,1.041H351.6a1,1,0,0,0,1-1v-.045Zm0,0" transform="translate(-250.354 -218.501)" fill="#e9e9ea"/><path d="M301.609,102.043a40.946,40.946,0,0,0-15.615-10.727,2.492,2.492,0,1,1,1.765-4.661,45.545,45.545,0,0,1,17.516,12.039,2.545,2.545,0,0,1-.181,3.531,2.449,2.449,0,0,1-3.485-.181Zm0,0" transform="translate(-219.785 -66.916)" fill="#fcd770"/><path d="M76.655,385.746A45.149,45.149,0,0,1,58.913,369.86a2.486,2.486,0,1,1,4.164-2.716,40.592,40.592,0,0,0,15.8,14.121,2.5,2.5,0,1,1-2.218,4.481Zm0,0" transform="translate(-45.026 -283.18)" fill="#fcd770"/><path d="M75.208,103.1a2.452,2.452,0,0,1-.226-3.485A44.888,44.888,0,0,1,92.86,87.032a2.48,2.48,0,1,1,1.81,4.617,40.785,40.785,0,0,0-15.932,11.179,2.508,2.508,0,0,1-3.531.271Zm0,0" transform="translate(-57.293 -67.204)" fill="#fcd770"/><path d="M301.768,384.615a2.467,2.467,0,0,1,1.132-3.349,40.288,40.288,0,0,0,15.8-14.121,2.486,2.486,0,1,1,4.164,2.716,45.459,45.459,0,0,1-17.742,15.887A2.546,2.546,0,0,1,301.768,384.615Zm0,0" transform="translate(-233.024 -283.179)" fill="#fcd770"/><path d="M99.277,10.632H95.339a1.111,1.111,0,0,1,0-2.218h3.938a1.125,1.125,0,0,1,1.04,1.222A1.078,1.078,0,0,1,99.277,10.632Zm0,0" transform="translate(-72.717 -6.509)" fill="#f75c64"/><path d="M103.839,6.115a1.121,1.121,0,0,1-1.132-1.132V1.045A1.124,1.124,0,0,1,103.929,0a1.084,1.084,0,0,1,1.041,1.04V4.983A1.217,1.217,0,0,1,103.839,6.115Zm0,0" transform="translate(-79.225 0)" fill="#f75c64"/><path d="M143.678,32.794h-.226c-.091,0-.136-.045-.226-.045-.091-.045-.136-.045-.181-.091s-.136-.09-.181-.135a.628.628,0,0,1-.135-.181.34.34,0,0,1-.091-.181.408.408,0,0,1-.045-.226.774.774,0,0,1,0-.453c0-.09.045-.135.045-.226.045-.045.045-.135.091-.181a1.049,1.049,0,0,1,.316-.316.344.344,0,0,1,.181-.09.957.957,0,0,1,.86,0c.09.045.135.045.18.09a1.062,1.062,0,0,1,.317.316.347.347,0,0,1,.09.181.411.411,0,0,1,.045.226c0,.091.046.136.046.226a1.3,1.3,0,0,1-.317.815A1.064,1.064,0,0,1,143.678,32.794Zm0,0" transform="translate(-110.057 -23.646)" fill="#ffcd29"/><path d="M421.237,396.767a.411.411,0,0,1-.226-.045c-.09,0-.135-.045-.226-.045-.045-.046-.135-.046-.18-.091s-.136-.09-.181-.135a1.093,1.093,0,0,1-.317-.815.4.4,0,0,1,.046-.226c0-.09.045-.136.045-.226.045-.09.045-.136.09-.181s.091-.135.136-.181a.619.619,0,0,1,.181-.135.344.344,0,0,1,.18-.091.41.41,0,0,1,.226-.045,1.459,1.459,0,0,1,.634.045c.091.046.136.046.181.091s.136.09.181.135a.642.642,0,0,1,.135.181.808.808,0,0,1,.136.408c0,.09.045.136.045.226a.41.41,0,0,1-.045.226c0,.09-.045.136-.045.226-.045.09-.045.136-.091.181a1.049,1.049,0,0,1-.317.316.346.346,0,0,1-.181.091.339.339,0,0,1-.226.045A.468.468,0,0,1,421.237,396.767Zm0,0" transform="translate(-324.794 -305.244)" fill="#6dcc6d"/><g transform="translate(12.328 18.416)"><path d="M414.479,222.992a2.8,2.8,0,0,1-.634-.045,1.1,1.1,0,0,1-.95-1.177v-5.613a1.1,1.1,0,0,1,.95-1.177,3.186,3.186,0,0,1,1.313,0,4.034,4.034,0,0,1-.679,8.011Zm.679-5.658v3.259a1.775,1.775,0,0,0,1.086-1.584,1.991,1.991,0,0,0-1.086-1.675Zm0,0" transform="translate(-331.54 -184.691)" fill="#231f20"/><path d="M340.582,223.148a4.067,4.067,0,0,1-4.073-3.983,4,4,0,0,1,3.395-3.983,3.218,3.218,0,0,1,1.313,0,1.1,1.1,0,0,1,.95,1.177v5.613a1.1,1.1,0,0,1-.95,1.177h-.634Zm-.679-5.658a1.838,1.838,0,0,0-1.086,1.629A1.774,1.774,0,0,0,339.9,220.7Zm0,0" transform="translate(-272.443 -184.848)" fill="#231f20"/><path d="M359.563,218.688a8.074,8.074,0,0,1-8.056-8.057v-5.567A1.507,1.507,0,0,1,353,203.571a.775.775,0,0,1,.317.045,6.312,6.312,0,0,0,6.427-2.082,1.494,1.494,0,0,1,1.086-.543,1.462,1.462,0,0,1,1.132.407,6.142,6.142,0,0,0,4.21,1.494,1.5,1.5,0,0,1,1.448,1.494v6.337a8.027,8.027,0,0,1-8.057,7.966Zm-5.793-12.809v4.707a5.793,5.793,0,1,0,11.587,0v-5.568a8.414,8.414,0,0,1-4.39-1.538A8.546,8.546,0,0,1,353.77,205.879Zm6.608-2.942" transform="translate(-284.048 -173.915)" fill="#231f20"/><path d="M361.4,184.824a1.177,1.177,0,0,1-.769-.316,1.67,1.67,0,0,0-1.494-.453,1.162,1.162,0,0,1-1.313-.95v-.5a8.415,8.415,0,0,1-4.39-1.538,8.568,8.568,0,0,1-7.378,2.4,1.2,1.2,0,0,1-1.177.589,1.615,1.615,0,0,0-1.358.362,1.1,1.1,0,0,1-1.584-.18,1,1,0,0,1-.226-.725V180.3a8.286,8.286,0,0,1,8.283-8.282h2.037a4.942,4.942,0,0,1,3.756,1.674,5.037,5.037,0,0,1,2.716-.181,5.143,5.143,0,0,1,4.074,5.07v5.114A1.189,1.189,0,0,1,361.4,184.824Zm-1.313-3.032c.045,0,.136.045.181.045v-3.258A2.867,2.867,0,0,0,358,175.726a2.728,2.728,0,0,0-2.037.362,1.118,1.118,0,0,1-1.539-.408,2.849,2.849,0,0,0-2.444-1.4h-2.037a6.017,6.017,0,0,0-6.019,6.019v1.494c.09,0,.135-.045.226-.045a1.53,1.53,0,0,1,1.584-.679,6.313,6.313,0,0,0,6.427-2.083,1.493,1.493,0,0,1,1.086-.543,1.466,1.466,0,0,1,1.132.408,6.144,6.144,0,0,0,4.21,1.493A1.565,1.565,0,0,1,360.083,181.792Zm-7.287-1.268" transform="translate(-276.465 -151.502)" fill="#231f20"/><path d="M383.877,311.716a1.307,1.307,0,0,1-.815-.317.64.64,0,0,1-.135-.181.346.346,0,0,1-.091-.181.341.341,0,0,1-.045-.226.773.773,0,0,1,0-.453,1.614,1.614,0,0,1,.181-.408c.045-.045.09-.135.136-.181a1.181,1.181,0,0,1,1.584,0,1.094,1.094,0,0,1,0,1.584A1.219,1.219,0,0,1,383.877,311.716Zm0,0" transform="translate(-308.225 -257.845)" fill="#231f20"/><path d="M383.839,328.116a1.3,1.3,0,0,1-.815-.317.615.615,0,0,1-.135-.181.344.344,0,0,1-.091-.181.408.408,0,0,1-.045-.226c0-.09-.045-.135-.045-.226a.411.411,0,0,1,.045-.226c0-.09.045-.135.045-.226.046-.09.046-.135.091-.18s.09-.136.135-.181a1.179,1.179,0,0,1,1.584,0,1.094,1.094,0,0,1,0,1.584.623.623,0,0,1-.18.135,2.269,2.269,0,0,0-.589.226Zm0,0" transform="translate(-308.187 -270.534)" fill="#231f20"/><path d="M419.64,330.86a1.12,1.12,0,0,1-1.132-1.132v-3.983a1.132,1.132,0,0,1,2.263,0v3.938A1.16,1.16,0,0,1,419.64,330.86Zm0,0" transform="translate(-335.886 -269.566)" fill="#231f20"/><path d="M347.038,330.86a1.12,1.12,0,0,1-1.132-1.132v-3.983a1.132,1.132,0,0,1,2.263,0v3.938A1.191,1.191,0,0,1,347.038,330.86Zm0,0" transform="translate(-279.714 -269.566)" fill="#231f20"/><path d="M374.482,273.757h-3.35a1.547,1.547,0,0,1-1.493-1.086l-1.086-3.123a1,1,0,0,1-.045-.362V266.6a1.121,1.121,0,0,1,1.132-1.132.915.915,0,0,1,.5.136,5.713,5.713,0,0,0,2.58.634,5.478,5.478,0,0,0,2.762-.724,1.13,1.13,0,0,1,1.538.453,1.2,1.2,0,0,1,.136.543v2.671a.884.884,0,0,1-.045.362l-1.086,3.123A1.6,1.6,0,0,1,374.482,273.757Zm-2.851-2.263h2.4l.86-2.489v-.815a7.947,7.947,0,0,1-4.119.046V269Zm0,0" transform="translate(-297.201 -223.733)" fill="#231f20"/><path d="M348.14,294.4h-26.7a2.125,2.125,0,0,1-2.127-2.128v-.135l.453-8.147a3.85,3.85,0,0,1,2.942-3.531l5.3-1.313,3.123-1.538a1.121,1.121,0,0,1,1.493.5c0,.045.046.09.046.135l.95,2.671h2.4l.951-2.671a1.124,1.124,0,0,1,1.448-.679c.045,0,.09.046.136.046l3.122,1.538,5.3,1.313a3.906,3.906,0,0,1,2.942,3.531l.453,8.147a2.165,2.165,0,0,1-2.037,2.263Zm-26.614-2.263H348l-.453-8.012a1.547,1.547,0,0,0-1.222-1.448l-5.386-1.358c-.09,0-.135-.045-.226-.09l-2.082-1.041-.679,1.947a1.607,1.607,0,0,1-1.494,1.086h-3.395a1.546,1.546,0,0,1-1.493-1.086l-.679-1.947-2.082,1.041c-.091.045-.136.045-.226.09l-5.386,1.358a1.638,1.638,0,0,0-1.223,1.448Zm0,0" transform="translate(-259.136 -233.106)" fill="#231f20"/><path d="M299.791,100.312a3.662,3.662,0,0,1-2.671-1.177,39.428,39.428,0,0,0-15.163-10.41,3.61,3.61,0,0,1,2.58-6.744,46.958,46.958,0,0,1,17.968,12.312,3.6,3.6,0,0,1-.271,5.114A3.959,3.959,0,0,1,299.791,100.312ZM298.749,97.6a1.347,1.347,0,1,0,2.037-1.764v-.046a44.378,44.378,0,0,0-17.063-11.722,1.361,1.361,0,1,0-1,2.534h.045a41.515,41.515,0,0,1,15.977,11Zm0,0" transform="translate(-228.438 -81.655)" fill="#231f20"/><path d="M73.806,383.54a3.477,3.477,0,0,1-1.629-.408,46.655,46.655,0,0,1-18.2-16.249,3.616,3.616,0,0,1,6.065-3.937,39.252,39.252,0,0,0,15.389,13.76,3.6,3.6,0,0,1-1.629,6.834ZM57.059,363.535a1.333,1.333,0,0,0-1.358,1.358,1.364,1.364,0,0,0,.226.724A44.5,44.5,0,0,0,73.217,381.1a1.346,1.346,0,0,0,1.223-2.4,41.553,41.553,0,0,1-16.249-14.53,1.306,1.306,0,0,0-.86-.588c-.09,0-.181-.045-.271-.045Zm0,0" transform="translate(-53.418 -297.986)" fill="#231f20"/><path d="M73.012,100.572a3.484,3.484,0,0,1-2.354-.905,3.641,3.641,0,0,1-.362-5.115,47.137,47.137,0,0,1,18.331-12.9,3.6,3.6,0,0,1,2.761,6.654c-.045.045-.091.045-.181.045A39.632,39.632,0,0,0,75.727,99.214a3.563,3.563,0,0,1-2.489,1.222c-.046.136-.136.136-.226.136ZM89.939,83.734a1.94,1.94,0,0,0-.5.091A44.3,44.3,0,0,0,72.015,96.09a1.348,1.348,0,0,0,2.037,1.765,41.53,41.53,0,0,1,16.339-11.5,1.372,1.372,0,0,0,.77-1.765A1.325,1.325,0,0,0,89.939,83.734Zm0,0" transform="translate(-65.795 -81.371)" fill="#231f20"/><path d="M300.235,383.214a3.687,3.687,0,0,1-3.259-1.992,3.589,3.589,0,0,1,1.629-4.843,39.532,39.532,0,0,0,15.389-13.76,3.61,3.61,0,1,1,6.11,3.847c0,.045-.045.045-.045.09a46.308,46.308,0,0,1-18.2,16.249A3.617,3.617,0,0,1,300.235,383.214Zm-1.222-3.032a1.3,1.3,0,0,0,1.81.588,43.882,43.882,0,0,0,17.29-15.479,1.344,1.344,0,0,0-2.263-1.449,41.558,41.558,0,0,1-16.249,14.53A1.3,1.3,0,0,0,299.013,380.182Zm0,0" transform="translate(-241.556 -297.66)" fill="#231f20"/></g><path d="M387.79,440.18a5.081,5.081,0,0,1-3.983-3.983c0-.045-.045-.09-.09-.045a.044.044,0,0,0-.045.045,5.081,5.081,0,0,1-3.983,3.983c-.045,0-.09.045-.045.09a.044.044,0,0,0,.045.045,5.082,5.082,0,0,1,3.983,3.983c0,.045.045.09.09.045a.044.044,0,0,0,.045-.045,5.081,5.081,0,0,1,3.983-3.983c.045,0,.09-.045.045-.09C387.835,440.18,387.835,440.18,387.79,440.18Zm0,0" transform="translate(-293.474 -337.432)" fill="#ffcd29"/><path d="M99.657,220.1a3.359,3.359,0,0,0-.95,0v5.7a2.916,2.916,0,0,0,3.35-2.4,2.871,2.871,0,0,0-2.4-3.3Zm0,0" transform="translate(-76.13 -170.262)" fill="#f9d0b4"/><path d="M26.057,225.349V220.1a3.354,3.354,0,0,0-.95,0,2.953,2.953,0,0,0-2.4,2.9,2.878,2.878,0,0,0,2.9,2.851,1.549,1.549,0,0,0,.453-.045v-.453Zm0,0" transform="translate(-17.329 -170.262)" fill="#f9d0b4"/><path d="M45.32,205.75a7.5,7.5,0,0,1-7.558,2.489.4.4,0,0,0-.453.271v5.7a6.925,6.925,0,1,0,13.85,0v-6.291a.39.39,0,0,0-.362-.362,7.128,7.128,0,0,1-4.979-1.81c-.09-.181-.316-.181-.5,0,.045-.045.045,0,0,0Zm0,0" transform="translate(-28.627 -159.081)" fill="#f9d0b4"/><path d="M29.472,186.9a1.548,1.548,0,0,1,.453.045v-.317a.356.356,0,0,1,.362-.362h.091a7.5,7.5,0,0,0,7.558-2.489.37.37,0,0,1,.544-.045l.045.045a7.126,7.126,0,0,0,4.979,1.81.389.389,0,0,1,.362.362v1.041a2.838,2.838,0,0,1,2.444.769v-5.114a4.072,4.072,0,0,0-3.168-3.983,3.967,3.967,0,0,0-2.851.5,3.915,3.915,0,0,0-3.395-1.946H34.859a7.166,7.166,0,0,0-7.152,7.151v3.214a2.461,2.461,0,0,1,1.765-.679Zm0,0" transform="translate(-21.198 -137.109)" fill="#6d6c6b"/><path d="M57.585,271.428a7.152,7.152,0,0,1-3.077-.724v2.58l1.086,3.123a.449.449,0,0,0,.453.316H59.4a.543.543,0,0,0,.453-.316l1.086-3.123v-2.671a7.774,7.774,0,0,1-3.35.815Zm0,0" transform="translate(-41.934 -209.37)" fill="#f9d0b4"/><path d="M33.229,287.845a2.7,2.7,0,0,0-2.082-2.489L25.761,284,22.5,282.414l-1.086,3.123a.449.449,0,0,1-.453.317h-3.35a.546.546,0,0,1-.453-.317l-1.086-3.123L12.816,284,7.43,285.356a2.749,2.749,0,0,0-2.082,2.489L4.9,295.992a.978.978,0,0,0,.95,1.041H32.6a1,1,0,0,0,1-1v-.045Zm0,0" transform="translate(-3.546 -218.501)" fill="#e9e9ea"/><path d="M95.479,222.992a2.8,2.8,0,0,1-.634-.045,1.1,1.1,0,0,1-.95-1.177v-5.613a1.1,1.1,0,0,1,.95-1.177,3.186,3.186,0,0,1,1.313,0,4.034,4.034,0,0,1-.679,8.011Zm.679-5.658v3.259a1.775,1.775,0,0,0,1.086-1.584,1.9,1.9,0,0,0-1.086-1.675Zm0,0" transform="translate(-72.404 -166.275)" fill="#231f20"/><path d="M21.581,223.148a4.067,4.067,0,0,1-4.074-3.983,4,4,0,0,1,3.395-3.983,3.218,3.218,0,0,1,1.313,0,1.1,1.1,0,0,1,.95,1.177v5.613a1.1,1.1,0,0,1-.95,1.177h-.634Zm-.679-5.658a1.838,1.838,0,0,0-1.086,1.629A1.774,1.774,0,0,0,20.9,220.7Zm0,0" transform="translate(-13.307 -166.432)" fill="#231f20"/><path d="M40.564,218.688a8.074,8.074,0,0,1-8.056-8.057v-5.567A1.507,1.507,0,0,1,34,203.571a.776.776,0,0,1,.317.045,6.312,6.312,0,0,0,6.427-2.082,1.494,1.494,0,0,1,1.086-.543,1.462,1.462,0,0,1,1.132.407,6.142,6.142,0,0,0,4.21,1.494,1.5,1.5,0,0,1,1.448,1.494v6.337a8.027,8.027,0,0,1-8.057,7.966Zm-5.793-12.809v4.707a5.816,5.816,0,0,0,11.632,0v-5.568a8.415,8.415,0,0,1-4.39-1.538A8.669,8.669,0,0,1,34.771,205.879Zm6.834-3.711" transform="translate(-24.912 -155.499)" fill="#231f20"/><path d="M42.242,184.824a1.178,1.178,0,0,1-.769-.316,1.556,1.556,0,0,0-1.494-.453,1.162,1.162,0,0,1-1.313-.95v-.5a8.415,8.415,0,0,1-4.39-1.538,8.568,8.568,0,0,1-7.378,2.4,1.2,1.2,0,0,1-1.177.589,1.616,1.616,0,0,0-1.358.362,1.1,1.1,0,0,1-1.584-.18,1.028,1.028,0,0,1-.271-.725V180.3a8.286,8.286,0,0,1,8.282-8.282h2.037a4.942,4.942,0,0,1,3.757,1.674,5.037,5.037,0,0,1,2.716-.181,5.143,5.143,0,0,1,4.074,5.07v5.114a1.12,1.12,0,0,1-1.132,1.132Zm-1.313-3.032c.045,0,.136.045.181.045v-3.258a2.867,2.867,0,0,0-2.263-2.852,2.727,2.727,0,0,0-2.037.362,1.118,1.118,0,0,1-1.539-.408,2.849,2.849,0,0,0-2.444-1.4H30.79a6.017,6.017,0,0,0-6.019,6.019v1.494c.09,0,.135-.045.226-.045a1.53,1.53,0,0,1,1.584-.679,6.313,6.313,0,0,0,6.427-2.083,1.507,1.507,0,0,1,2.128-.226c.045.046.09.091.135.091a6.146,6.146,0,0,0,4.21,1.493,1.558,1.558,0,0,1,1.448,1.449Zm0,0" transform="translate(-17.175 -133.086)" fill="#231f20"/><path d="M64.678,311.716a1.3,1.3,0,0,1-.815-.317.64.64,0,0,1-.135-.181.809.809,0,0,1-.136-.408.774.774,0,0,1,0-.453c0-.09.045-.136.045-.226.045-.045.045-.136.091-.181s.09-.135.135-.181a1.181,1.181,0,0,1,1.584,0,.64.64,0,0,1,.136.181.344.344,0,0,1,.09.181.409.409,0,0,1,.045.226c0,.09.046.136,0,.226a1,1,0,0,1-1.04,1.132Zm0,0" transform="translate(-48.935 -239.43)" fill="#231f20"/><path d="M64.639,328.115a1.12,1.12,0,0,1-1.132-1.132,1.3,1.3,0,0,1,.316-.814.628.628,0,0,1,.181-.136.344.344,0,0,1,.181-.09.339.339,0,0,1,.226-.045.761.761,0,0,1,.453,0c.09,0,.135.045.226.045.09.045.135.045.181.09s.135.091.18.136a1.094,1.094,0,0,1,0,1.584A1.058,1.058,0,0,1,64.639,328.115Zm0,0" transform="translate(-48.897 -252.117)" fill="#231f20"/><path d="M100.64,330.86a1.12,1.12,0,0,1-1.132-1.132v-3.983a1.132,1.132,0,0,1,2.263,0v3.938A1.16,1.16,0,0,1,100.64,330.86Zm0,0" transform="translate(-76.75 -251.15)" fill="#231f20"/><path d="M28.038,330.86a1.12,1.12,0,0,1-1.132-1.132v-3.983a1.132,1.132,0,0,1,2.263,0v3.938A1.191,1.191,0,0,1,28.038,330.86Zm0,0" transform="translate(-20.578 -251.15)" fill="#231f20"/><path d="M55.681,273.757H52.333a1.548,1.548,0,0,1-1.494-1.086l-1.086-3.123a1,1,0,0,1-.045-.362V266.6a1.121,1.121,0,0,1,1.132-1.132.913.913,0,0,1,.5.136,5.717,5.717,0,0,0,2.58.634,5.477,5.477,0,0,0,2.761-.724,1.131,1.131,0,0,1,1.539.453,1.2,1.2,0,0,1,.135.543v2.671a.883.883,0,0,1-.045.362L57.22,272.67a1.691,1.691,0,0,1-1.539,1.086Zm-2.9-2.263h2.4l.86-2.489v-.815a7.947,7.947,0,0,1-4.119.046V269Zm0,0" transform="translate(-38.219 -205.317)" fill="#231f20"/><path d="M29.14,294.4H2.435a2.125,2.125,0,0,1-2.127-2.128v-.135l.453-8.147A3.85,3.85,0,0,1,3.7,280.459L9,279.146l3.123-1.538a1.121,1.121,0,0,1,1.493.5c0,.045.046.09.046.135l.95,2.671h2.4l.951-2.671a1.124,1.124,0,0,1,1.448-.679c.045,0,.09.046.136.046l3.122,1.538,5.3,1.313a3.906,3.906,0,0,1,2.942,3.531l.453,8.147a2.16,2.16,0,0,1-1.992,2.263ZM2.526,292.137H28.958l-.453-8.012a1.547,1.547,0,0,0-1.222-1.448L21.9,281.319c-.09,0-.136-.045-.226-.09l-2.082-1.041-.679,1.947a1.607,1.607,0,0,1-1.494,1.086h-3.35a1.546,1.546,0,0,1-1.493-1.086l-.679-1.947-2.082,1.041c-.091.045-.136.045-.226.09L4.2,282.677a1.638,1.638,0,0,0-1.223,1.448Zm0,0" transform="translate(0 -214.69)" fill="#231f20"/><path d="M259.259,379.7a3.354,3.354,0,0,0-.95,0v5.7a2.915,2.915,0,0,0,3.349-2.4,2.847,2.847,0,0,0-2.4-3.3Zm0,0" transform="translate(-199.613 -293.742)" fill="#f9d0b4"/><path d="M185.455,384.948V379.7a3.358,3.358,0,0,0-.95,0,2.955,2.955,0,0,0-2.4,2.9,2.879,2.879,0,0,0,2.9,2.852,1.542,1.542,0,0,0,.453-.045v-.453Zm0,0" transform="translate(-140.655 -293.742)" fill="#f9d0b4"/><path d="M204.919,365.148a7.5,7.5,0,0,1-7.559,2.489.4.4,0,0,0-.453.271v5.7a6.925,6.925,0,0,0,13.85,0v-6.292a.389.389,0,0,0-.362-.362,7.118,7.118,0,0,1-4.979-1.81c-.091-.181-.317-.181-.5,0Zm0,0" transform="translate(-152.107 -282.406)" fill="#f9d0b4"/><path d="M188.871,346.5a1.542,1.542,0,0,1,.453.045v-.316a.357.357,0,0,1,.362-.362h.09a7.5,7.5,0,0,0,7.559-2.489.37.37,0,0,1,.543-.045l.045.045a7.12,7.12,0,0,0,4.979,1.81.39.39,0,0,1,.362.362v1.041a2.835,2.835,0,0,1,2.444.769v-5.115a4.071,4.071,0,0,0-3.168-3.982,3.969,3.969,0,0,0-2.852.5,3.914,3.914,0,0,0-3.395-1.947h-2.037a7.168,7.168,0,0,0-7.152,7.152v3.213A2.62,2.62,0,0,1,188.871,346.5Zm0,0" transform="translate(-144.523 -260.588)" fill="#6d6c6b"/><path d="M217.184,430.83a7.156,7.156,0,0,1-3.078-.724v2.58l1.086,3.123a.45.45,0,0,0,.453.317h3.35a.545.545,0,0,0,.453-.317l1.086-3.123v-2.67a7.459,7.459,0,0,1-3.35.814Zm0,0" transform="translate(-165.413 -332.699)" fill="#f9d0b4"/><path d="M192.631,447.244a2.7,2.7,0,0,0-2.082-2.489l-5.386-1.358-3.259-1.584-1.086,3.123a.45.45,0,0,1-.453.317h-3.35a.545.545,0,0,1-.453-.317l-1.086-3.123-3.258,1.584-5.386,1.358a2.748,2.748,0,0,0-2.082,2.489l-.453,8.147a.977.977,0,0,0,.95,1.041H192a1,1,0,0,0,1-1v-.046Zm0,0" transform="translate(-126.875 -341.826)" fill="#e9e9ea"/><path d="M254.881,382.593a2.8,2.8,0,0,1-.634-.045,1.1,1.1,0,0,1-.95-1.177v-5.612a1.1,1.1,0,0,1,.95-1.177,3.218,3.218,0,0,1,1.313,0,4.035,4.035,0,0,1-.679,8.012Zm.679-5.658v3.258a1.765,1.765,0,0,0,0-3.258Zm0,0" transform="translate(-195.733 -289.758)" fill="#231f20"/><path d="M180.98,382.748a4.067,4.067,0,0,1-4.074-3.983,4,4,0,0,1,3.395-3.982,3.186,3.186,0,0,1,1.313,0,1.1,1.1,0,0,1,.95,1.177v5.613a1.1,1.1,0,0,1-.95,1.177A2.969,2.969,0,0,0,180.98,382.748Zm-.679-5.658a1.838,1.838,0,0,0-1.086,1.629A1.774,1.774,0,0,0,180.3,380.3Zm0,0" transform="translate(-136.632 -289.912)" fill="#231f20"/><path d="M200.162,378.037a8.074,8.074,0,0,1-8.057-8.056v-5.568a1.507,1.507,0,0,1,1.494-1.494.759.759,0,0,1,.316.046,6.314,6.314,0,0,0,6.428-2.083,1.506,1.506,0,0,1,2.127-.226c.045.046.091.046.136.091a6.257,6.257,0,0,0,4.209,1.493,1.5,1.5,0,0,1,1.449,1.494v6.337A8.125,8.125,0,0,1,200.162,378.037Zm-5.839-12.763v4.707a5.793,5.793,0,0,0,11.587,0v-5.568a8.419,8.419,0,0,1-4.39-1.539A8.508,8.508,0,0,1,194.323,365.273Zm6.88-3.757" transform="translate(-148.392 -278.774)" fill="#231f20"/><path d="M201.794,344.423a1.181,1.181,0,0,1-.769-.317,1.674,1.674,0,0,0-1.494-.453,1.16,1.16,0,0,1-1.312-.95v-.5a8.421,8.421,0,0,1-4.391-1.539,8.565,8.565,0,0,1-7.377,2.4,1.193,1.193,0,0,1-1.177.588,1.619,1.619,0,0,0-1.358.362,1.1,1.1,0,0,1-1.584-.181,1,1,0,0,1-.226-.724V339.9a8.288,8.288,0,0,1,8.283-8.283h2.037a4.946,4.946,0,0,1,3.757,1.675,5.027,5.027,0,0,1,2.716-.181,5.143,5.143,0,0,1,4.074,5.069v5.115A1.225,1.225,0,0,1,201.794,344.423Zm-1.312-3.033c.045,0,.135.046.18.046v-3.259a2.866,2.866,0,0,0-2.263-2.851,2.727,2.727,0,0,0-2.037.362,1.115,1.115,0,0,1-1.538-.408,2.854,2.854,0,0,0-2.444-1.4h-2.037a6.017,6.017,0,0,0-6.02,6.02v1.493c.091,0,.136-.045.226-.045a1.534,1.534,0,0,1,1.584-.679,6.313,6.313,0,0,0,6.428-2.082,1.505,1.505,0,0,1,2.127-.226c.045.045.09.045.136.09a6.253,6.253,0,0,0,4.209,1.494,1.558,1.558,0,0,1,1.449,1.448Zm0,0" transform="translate(-140.655 -256.566)" fill="#231f20"/><path d="M224.276,471.116a1.3,1.3,0,0,1-.814-.316.617.617,0,0,1-.136-.181.341.341,0,0,1-.09-.181.408.408,0,0,1-.045-.226.76.76,0,0,1,0-.453c0-.09.045-.135.045-.226.045-.09.045-.135.09-.18s.091-.136.136-.181a1.179,1.179,0,0,1,1.584,0,.614.614,0,0,1,.135.181.338.338,0,0,1,.091.18.411.411,0,0,1,.045.226.774.774,0,0,1,0,.453c0,.091-.045.136-.045.226-.045.046-.045.136-.091.181s-.09.136-.135.181A1.092,1.092,0,0,1,224.276,471.116Zm0,0" transform="translate(-172.415 -362.756)" fill="#231f20"/><path d="M224.237,487.515a1.3,1.3,0,0,1-.814-.317.622.622,0,0,1-.136-.18.347.347,0,0,1-.09-.181.411.411,0,0,1-.045-.226.4.4,0,0,0-.046-.226.4.4,0,0,1,.046-.226c0-.091.045-.136.045-.226.045-.091.045-.136.09-.181s.091-.136.136-.181a1.179,1.179,0,0,1,1.584,0,.627.627,0,0,1,.135.181.808.808,0,0,1,.136.407.411.411,0,0,0,.045.226.411.411,0,0,1-.045.226c0,.09-.045.135-.045.226-.045.045-.045.135-.091.181s-.09.135-.135.18A1.092,1.092,0,0,1,224.237,487.515Zm0,0" transform="translate(-172.376 -375.443)" fill="#231f20"/><path d="M260.038,490.415a1.12,1.12,0,0,1-1.132-1.131v-3.937a1.132,1.132,0,0,1,2.263,0v3.938A1.12,1.12,0,0,1,260.038,490.415Zm0,0" transform="translate(-200.075 -374.632)" fill="#231f20"/><path d="M187.441,490.415a1.12,1.12,0,0,1-1.132-1.131v-3.937a1.132,1.132,0,0,1,2.263,0v3.938A1.121,1.121,0,0,1,187.441,490.415Zm0,0" transform="translate(-143.907 -374.632)" fill="#231f20"/><path d="M215.081,433.357h-3.35a1.548,1.548,0,0,1-1.494-1.086l-1.086-3.123a.984.984,0,0,1-.046-.362v-2.58a1.121,1.121,0,0,1,1.132-1.132.911.911,0,0,1,.5.136,5.722,5.722,0,0,0,2.579.633,5.479,5.479,0,0,0,2.761-.724,1.132,1.132,0,0,1,1.539.453,1.212,1.212,0,0,1,.136.544v2.67a.87.87,0,0,1-.046.362l-1.086,3.123a1.713,1.713,0,0,1-1.539,1.086Zm-2.852-2.263h2.4l.86-2.489v-.815a7.941,7.941,0,0,1-4.12.045v.77Zm0,0" transform="translate(-161.545 -328.799)" fill="#231f20"/><path d="M188.538,453.8h-26.7a2.124,2.124,0,0,1-2.127-2.127v-.136l.453-8.147a3.85,3.85,0,0,1,2.942-3.53l5.3-1.313,3.123-1.539a1.124,1.124,0,0,1,1.494.5c0,.045.045.091.045.136l.95,2.671h2.4l.95-2.671a1.123,1.123,0,0,1,1.448-.679c.046,0,.091.045.136.045l3.123,1.539,5.3,1.313a3.9,3.9,0,0,1,2.942,3.53l.453,8.147a2.159,2.159,0,0,1-1.992,2.263Zm-26.568-2.263H188.4l-.453-8.011a1.549,1.549,0,0,0-1.223-1.449l-5.385-1.358c-.091,0-.136-.045-.226-.09l-2.083-1.041-.679,1.947a1.605,1.605,0,0,1-1.493,1.086h-3.35a1.548,1.548,0,0,1-1.494-1.086l-.679-1.947-2.082,1.041c-.09.045-.135.045-.226.09l-5.386,1.358a1.637,1.637,0,0,0-1.222,1.449Zm0,0" transform="translate(-123.325 -338.018)" fill="#231f20"/><path d="M259.259,60.7a3.355,3.355,0,0,0-.95,0v5.7a2.915,2.915,0,0,0,3.349-2.4,2.88,2.88,0,0,0-2.4-3.3Zm0,0" transform="translate(-199.613 -46.933)" fill="#f9d0b4"/><path d="M185.455,65.948V60.7a3.355,3.355,0,0,0-.95,0,2.955,2.955,0,0,0-2.4,2.9,2.879,2.879,0,0,0,2.9,2.852,1.543,1.543,0,0,0,.453-.045v-.453Zm0,0" transform="translate(-140.655 -46.933)" fill="#f9d0b4"/><path d="M204.919,46.149a7.5,7.5,0,0,1-7.559,2.489.4.4,0,0,0-.453.271v5.7a6.925,6.925,0,0,0,13.85,0V48.322a.389.389,0,0,0-.362-.362,7.118,7.118,0,0,1-4.979-1.81c-.091-.181-.317-.181-.5,0Zm0,0" transform="translate(-152.107 -35.599)" fill="#f9d0b4"/><path d="M188.871,27.19a1.543,1.543,0,0,1,.453.045v-.316a.357.357,0,0,1,.362-.362h.09a7.5,7.5,0,0,0,7.559-2.489.37.37,0,0,1,.543-.045l.045.045a7.12,7.12,0,0,0,4.979,1.81.39.39,0,0,1,.362.362v1.041a2.835,2.835,0,0,1,2.444.769V22.845a4.072,4.072,0,0,0-3.168-3.983,3.97,3.97,0,0,0-2.852.5,3.912,3.912,0,0,0-3.395-1.947h-2.037a7.167,7.167,0,0,0-7.152,7.152v3.213a3.058,3.058,0,0,1,1.765-.589Zm0,0" transform="translate(-144.523 -13.472)" fill="#6d6c6b"/><path d="M217.184,111.829a7.156,7.156,0,0,1-3.078-.724v2.58l1.086,3.123a.45.45,0,0,0,.453.317h3.35a.545.545,0,0,0,.453-.317l1.086-3.123v-2.67a7.46,7.46,0,0,1-3.35.814Zm0,0" transform="translate(-165.413 -85.891)" fill="#f9d0b4"/><path d="M192.631,128.244a2.7,2.7,0,0,0-2.082-2.489l-5.386-1.358-3.259-1.584-1.086,3.123a.45.45,0,0,1-.453.317h-3.35a.545.545,0,0,1-.453-.317l-1.086-3.123-3.258,1.584-5.386,1.358a2.748,2.748,0,0,0-2.082,2.489l-.453,8.147a.976.976,0,0,0,.95,1.041H192a1,1,0,0,0,1-1v-.046Zm0,0" transform="translate(-126.875 -95.018)" fill="#e9e9ea"/><path d="M254.881,63.593a2.8,2.8,0,0,1-.634-.045,1.1,1.1,0,0,1-.95-1.177V56.759a1.1,1.1,0,0,1,.95-1.178,3.217,3.217,0,0,1,1.313,0,4.035,4.035,0,0,1-.679,8.012Zm.679-5.658v3.258a1.765,1.765,0,0,0,0-3.258Zm0,0" transform="translate(-195.733 -42.949)" fill="#231f20"/><path d="M180.98,63.748a4.067,4.067,0,0,1-4.074-3.983,4,4,0,0,1,3.395-3.982,3.187,3.187,0,0,1,1.313,0,1.1,1.1,0,0,1,.95,1.177v5.613a1.1,1.1,0,0,1-.95,1.177,2.971,2.971,0,0,0-.634,0ZM180.3,58.09a1.838,1.838,0,0,0-1.086,1.629A1.774,1.774,0,0,0,180.3,61.3Zm0,0" transform="translate(-136.632 -43.104)" fill="#231f20"/><path d="M200.162,58.882a8.074,8.074,0,0,1-8.057-8.056V45.213a1.507,1.507,0,0,1,1.494-1.494.771.771,0,0,1,.316.045,6.311,6.311,0,0,0,6.428-2.082,1.505,1.505,0,0,1,2.127-.226c.045.045.091.045.136.091a6.147,6.147,0,0,0,4.209,1.493,1.5,1.5,0,0,1,1.449,1.494v6.337a8.134,8.134,0,0,1-8.1,8.011Zm-5.839-12.763v4.707a5.793,5.793,0,0,0,11.587,0V45.213a8.426,8.426,0,0,1-4.39-1.539,8.423,8.423,0,0,1-7.2,2.444Zm6.88-3.757" transform="translate(-148.392 -31.811)" fill="#231f20"/><path d="M201.794,25.423a1.18,1.18,0,0,1-.769-.317,1.674,1.674,0,0,0-1.494-.453,1.16,1.16,0,0,1-1.312-.95v-.5a8.421,8.421,0,0,1-4.391-1.539,8.565,8.565,0,0,1-7.377,2.4,1.193,1.193,0,0,1-1.177.588,1.619,1.619,0,0,0-1.358.362,1.1,1.1,0,0,1-1.584-.181,1,1,0,0,1-.226-.724V20.9a8.288,8.288,0,0,1,8.283-8.283h2.037a4.946,4.946,0,0,1,3.757,1.675,5.027,5.027,0,0,1,2.716-.181,5.143,5.143,0,0,1,4.074,5.069v5.115a1.191,1.191,0,0,1-1.177,1.132Zm-1.312-3.033c.045,0,.135.046.18.046V19.176a2.866,2.866,0,0,0-2.263-2.851,2.727,2.727,0,0,0-2.037.362,1.115,1.115,0,0,1-1.538-.408,2.854,2.854,0,0,0-2.444-1.4h-2.037a6.017,6.017,0,0,0-6.02,6.02V22.39c.091,0,.136-.045.226-.045a1.534,1.534,0,0,1,1.584-.679,6.313,6.313,0,0,0,6.428-2.082,1.505,1.505,0,0,1,2.127-.226c.045.045.09.045.136.09a6.139,6.139,0,0,0,4.209,1.494,1.558,1.558,0,0,1,1.449,1.448Zm0,0" transform="translate(-140.655 -9.758)" fill="#231f20"/><path d="M224.121,151.961a1.3,1.3,0,0,1-.814-.316.616.616,0,0,1-.136-.181,1.633,1.633,0,0,1-.181-.408.774.774,0,0,1,0-.453,1.642,1.642,0,0,1,.181-.407,1.065,1.065,0,0,1,.317-.317,1.643,1.643,0,0,1,.407-.181.774.774,0,0,1,.453,0c.091,0,.136.046.226.046.091.045.136.045.181.09s.136.09.181.136a.639.639,0,0,1,.136.18.347.347,0,0,1,.09.181.411.411,0,0,1,.045.226.774.774,0,0,1,0,.453c0,.091-.045.136-.045.226-.045.045-.045.136-.09.181s-.091.136-.136.181A1.133,1.133,0,0,1,224.121,151.961Zm0,0" transform="translate(-172.26 -115.793)" fill="#231f20"/><path d="M224.276,168.515a1.3,1.3,0,0,1-.814-.317.623.623,0,0,1-.136-.18.347.347,0,0,1-.09-.181.34.34,0,0,1-.045-.226.76.76,0,0,1,0-.453,1.612,1.612,0,0,1,.18-.408c.046-.045.091-.136.136-.181a1.179,1.179,0,0,1,1.584,0,.645.645,0,0,1,.136.181.344.344,0,0,1,.09.181.408.408,0,0,1,.045.226.774.774,0,0,1,0,.453c0,.09-.045.135-.045.226-.045.09-.045.135-.09.181s-.091.135-.136.18A1.3,1.3,0,0,1,224.276,168.515Zm0,0" transform="translate(-172.415 -128.635)" fill="#231f20"/><path d="M260.038,171.415a1.12,1.12,0,0,1-1.132-1.132v-3.937a1.132,1.132,0,1,1,2.263,0v3.937A1.12,1.12,0,0,1,260.038,171.415Zm0,0" transform="translate(-200.075 -127.824)" fill="#231f20"/><path d="M187.441,171.415a1.12,1.12,0,0,1-1.132-1.132v-3.937a1.132,1.132,0,0,1,2.263,0v3.937A1.121,1.121,0,0,1,187.441,171.415Zm0,0" transform="translate(-143.907 -127.824)" fill="#231f20"/><path d="M215.081,114.358h-3.35a1.548,1.548,0,0,1-1.494-1.086l-1.086-3.123a.984.984,0,0,1-.046-.362v-2.58a1.121,1.121,0,0,1,1.132-1.132.911.911,0,0,1,.5.136,5.722,5.722,0,0,0,2.579.633,5.479,5.479,0,0,0,2.761-.724,1.132,1.132,0,0,1,1.539.453,1.213,1.213,0,0,1,.136.544v2.67a.87.87,0,0,1-.046.362l-1.086,3.123A1.713,1.713,0,0,1,215.081,114.358Zm-2.852-2.263h2.4l.86-2.489v-.815a7.941,7.941,0,0,1-4.12.045v.77Zm0,0" transform="translate(-161.545 -81.991)" fill="#231f20"/><path d="M188.538,134.8h-26.7a2.124,2.124,0,0,1-2.127-2.127v-.136l.453-8.147a3.85,3.85,0,0,1,2.942-3.53l5.3-1.313,3.123-1.539a1.124,1.124,0,0,1,1.494.5c0,.045.045.091.045.136l.95,2.671h2.4l.95-2.671a1.123,1.123,0,0,1,1.448-.679c.046,0,.091.045.136.045l3.123,1.539,5.3,1.313a3.9,3.9,0,0,1,2.942,3.53l.453,8.147a2.164,2.164,0,0,1-2.037,2.263Zm-26.568-2.263H188.4l-.453-8.011a1.549,1.549,0,0,0-1.223-1.449l-5.385-1.358c-.091,0-.136-.045-.226-.09l-2.083-1.041-.679,1.947a1.605,1.605,0,0,1-1.493,1.086h-3.35a1.548,1.548,0,0,1-1.494-1.086l-.679-1.947-2.082,1.041c-.09.045-.135.045-.226.09l-5.386,1.358a1.637,1.637,0,0,0-1.222,1.449Zm0,0" transform="translate(-123.325 -91.21)" fill="#231f20"/></g></svg>
