<svg xmlns="http://www.w3.org/2000/svg" width="183" height="183" viewBox="0 0 183 183"><g transform="translate(-248 -1383)"><circle cx="91.5" cy="91.5" r="91.5" transform="translate(248 1383)" fill="#fff" opacity="0.2"/><g transform="translate(289.751 1424.751)"><path d="M332.36,104.215a8.992,8.992,0,1,0-8.992-8.992A9,9,0,0,0,332.36,104.215Zm0-14.81a5.818,5.818,0,1,1-5.818,5.818A5.825,5.825,0,0,1,332.36,89.4Z" transform="translate(-259.896 -69.305)" fill="#fff"/><path d="M90.448,175.764h-3.7v-6.149a14.288,14.288,0,0,0-18.466-13.657,19.579,19.579,0,0,0-16.87-9.661H49.089a19.584,19.584,0,0,0-17.059,9.99,1.6,1.6,0,0,0-.293-.138,14.286,14.286,0,0,0-19.042,13.467v6.149H10.05a10.05,10.05,0,0,0,0,20.1H28.676a23.845,23.845,0,0,0,19.986,13.7v6.93a1.587,1.587,0,1,0,3.174,0v-6.93a23.845,23.845,0,0,0,19.986-13.7H90.448a10.05,10.05,0,0,0,0-20.1Zm-57.756-9.9a16.415,16.415,0,0,1,16.4-16.4h2.321a16.416,16.416,0,0,1,16.4,16.4v3.892a23.753,23.753,0,0,0-15.97-7.694v-6.931a1.587,1.587,0,0,0-3.174,0v6.93a23.753,23.753,0,0,0-15.97,7.694v-3.892Zm38.125,18.359H66.568a16.424,16.424,0,0,0-14.732-14.732v-4.249A20.661,20.661,0,0,1,70.817,184.227ZM48.662,165.246V169.5A16.424,16.424,0,0,0,33.93,184.227H29.681A20.661,20.661,0,0,1,48.662,165.246ZM10.05,192.69a6.876,6.876,0,0,1,0-13.752h2.645v5.289H10.579a1.587,1.587,0,1,0,0,3.174H26.5a23.653,23.653,0,0,0,.96,5.289H10.05Zm19.468-18.559a23.634,23.634,0,0,0-3.017,10.1H15.868V169.615a11.113,11.113,0,0,1,14.81-10.475l.029.008a19.479,19.479,0,0,0-1.188,6.719v8.263Zm19.144,32.251A20.662,20.662,0,0,1,29.681,187.4H33.93a16.424,16.424,0,0,0,14.732,14.732Zm1.587-10.518a1.586,1.586,0,0,0-1.587,1.587v1.488A13.245,13.245,0,0,1,37.124,187.4h.959a1.587,1.587,0,1,0,0-3.174h-.959a13.245,13.245,0,0,1,11.538-11.538v1.488a1.587,1.587,0,0,0,3.174,0v-1.488a13.245,13.245,0,0,1,11.538,11.538h-.959a1.587,1.587,0,1,0,0,3.174h.959a13.245,13.245,0,0,1-11.538,11.538V197.45A1.587,1.587,0,0,0,50.249,195.863Zm1.587,10.518v-4.249A16.424,16.424,0,0,0,66.568,187.4h4.249A20.662,20.662,0,0,1,51.836,206.382ZM70.979,174.13v-8.263a19.476,19.476,0,0,0-1.3-7.008,11.115,11.115,0,0,1,13.89,10.755v14.612H74A23.63,23.63,0,0,0,70.979,174.13Zm19.468,18.56H73.037A23.654,23.654,0,0,0,74,187.4H89.919a1.587,1.587,0,0,0,0-3.174H86.745v-5.289h3.7a6.876,6.876,0,1,1,0,13.752Z" transform="translate(0 -117.581)" fill="#fff"/><path d="M203.776,25.508a12.754,12.754,0,1,0-12.754-12.754A12.769,12.769,0,0,0,203.776,25.508Zm0-22.335a9.581,9.581,0,1,1-9.58,9.581A9.591,9.591,0,0,1,203.776,3.174Z" transform="translate(-153.527)" fill="#fff"/><path d="M237.995,323.8a5.818,5.818,0,1,0-5.818,5.818A5.825,5.825,0,0,0,237.995,323.8Zm-5.818,2.645a2.645,2.645,0,1,1,2.645-2.645A2.648,2.648,0,0,1,232.176,326.442Z" transform="translate(-181.927 -255.565)" fill="#fff"/><path d="M100.614,104.215a8.992,8.992,0,1,0-8.992-8.992A9,9,0,0,0,100.614,104.215Zm0-14.81A5.818,5.818,0,1,1,94.8,95.223,5.825,5.825,0,0,1,100.614,89.4Z" transform="translate(-73.638 -69.305)" fill="#fff"/></g></g></svg>