<svg id="contact" xmlns="http://www.w3.org/2000/svg" width="625.974" height="666.05" viewBox="0 0 625.974 666.05">
  <path id="Trazado_8625" data-name="Trazado 8625" d="M0,196.888v76.4a25.034,25.034,0,0,0,25.034,25.034H298.963a25.036,25.036,0,0,0,25.018-25.034V208.739l34.111-35.827L25.13,171.87A25.033,25.033,0,0,0,0,196.888Z" transform="translate(0 103.759)" fill="#f5f5f5"/>
  <path id="Trazado_8626" data-name="Trazado 8626" d="M270.414,204.038,21.84,202.884l.032-7.634,248.574,1.139Z" transform="translate(13.185 117.873)" fill="#e0e0e0"/>
  <path id="Trazado_8627" data-name="Trazado 8627" d="M270.414,219.708,21.84,218.554l.032-7.634,248.574,1.155Z" transform="translate(13.185 127.333)" fill="#e0e0e0"/>
  <path id="Trazado_8628" data-name="Trazado 8628" d="M115.538,226.6l-.037,7.634,98.354.481.037-7.634Z" transform="translate(69.728 136.799)" fill="#e0e0e0"/>
  <path id="Trazado_8629" data-name="Trazado 8629" d="M158.27,361.488v76.4A25.033,25.033,0,0,0,183.3,462.922H457.2a25.036,25.036,0,0,0,25.018-25.034V373.339l34.111-35.827L183.352,336.47a25.033,25.033,0,0,0-25.082,25.018Z" transform="translate(95.548 203.128)" fill="#f5f5f5"/>
  <path id="Trazado_8630" data-name="Trazado 8630" d="M429.418,367.4,180.86,366.244l.016-7.634,248.574,1.139Z" transform="translate(109.186 216.494)" fill="#e0e0e0"/>
  <path id="Trazado_8631" data-name="Trazado 8631" d="M429.418,383.068,180.86,381.93l.016-7.65,248.574,1.155Z" transform="translate(109.186 225.954)" fill="#e0e0e0"/>
  <path id="Trazado_8632" data-name="Trazado 8632" d="M274.543,389.96l-.037,7.634,98.354.481.037-7.634Z" transform="translate(165.72 235.42)" fill="#e0e0e0"/>
  <path id="Trazado_8633" data-name="Trazado 8633" d="M91.3,8.03H252.857A14.433,14.433,0,0,1,267.29,22.463v79.015a14.433,14.433,0,0,1-14.433,14.433H115.773a14.433,14.433,0,0,1-14.433-14.433V18.021Z" transform="translate(55.118 4.848)" fill="#f5f5f5"/>
  <path id="Trazado_8634" data-name="Trazado 8634" d="M239.054,62.178v50.677a16.6,16.6,0,0,1-16.6,16.6H40.821a16.614,16.614,0,0,1-16.662-16.6V70.036L1.61,46.27l220.846-.69a16.6,16.6,0,0,1,16.6,16.6Z" transform="translate(0.972 27.517)" fill="#e0e0e0"/>
  <path id="Trazado_8635" data-name="Trazado 8635" d="M32.416,66.911l164.861-.754-.016-5.068L32.4,61.844Z" transform="translate(19.56 36.88)" fill="#f5f5f5"/>
  <path id="Trazado_8636" data-name="Trazado 8636" d="M32.416,77.317l164.861-.77-.016-5.068L32.4,72.25Z" transform="translate(19.56 43.153)" fill="#f5f5f5"/>
  <path id="Trazado_8637" data-name="Trazado 8637" d="M97.059,82.51H31.82v5.068H97.059Z" transform="translate(19.21 49.812)" fill="#f5f5f5"/>
  <path id="Trazado_8638" data-name="Trazado 8638" d="M453.719,208.688v50.677a16.6,16.6,0,0,1-16.6,16.6H255.437a16.615,16.615,0,0,1-16.614-16.6V216.547L216.21,192.78l220.846-.69a16.614,16.614,0,0,1,16.662,16.6Z" transform="translate(130.527 115.965)" fill="#e0e0e0"/>
  <path id="Trazado_8639" data-name="Trazado 8639" d="M247.026,213.421l164.861-.754-.016-5.068-164.861.754Z" transform="translate(149.121 125.329)" fill="#f5f5f5"/>
  <path id="Trazado_8640" data-name="Trazado 8640" d="M247.026,223.827l164.861-.77-.016-5.068-164.861.77Z" transform="translate(149.121 131.602)" fill="#f5f5f5"/>
  <path id="Trazado_8641" data-name="Trazado 8641" d="M310.949,230.08H245.71v5.068h65.239Z" transform="translate(148.336 138.9)" fill="#f5f5f5"/>
  <path id="Trazado_8642" data-name="Trazado 8642" d="M276.45,432.3c-27.151-26.445-27.6-67.356-20.543-102.878,1.187-5.934,1.6-12.332,5.26-17.112s10.889-7.265,15.829-3.865c4.089,2.806,5.18,8.275,6.96,12.942a35.171,35.171,0,0,0,11.8,15.652c3.48,2.6,8.018,4.57,12.06,3.127,5.613-2,7.393-9.013,8.323-14.947q2.6-16.615,5.228-33.213c.93-5.95,1.908-12.012,4.667-17.336s7.714-9.895,13.615-10.552,12.349,3.737,12.589,9.751a56.266,56.266,0,0,1-1.042,7.409c-.241,2.486.465,5.4,2.694,6.415s4.907-.208,6.96-1.6c7.1-4.987,12.525-12.012,17.641-19.052s10.2-14.289,16.839-19.918,15.155-9.542,23.735-8.628,16.791,7.634,17.561,16.358-5.485,16.406-11.9,22.307a134.514,134.514,0,0,1-31.882,21.778c-2.085,1.026-4.346,2.117-5.421,4.2-1.94,3.753,1.171,8.291,4.811,10.232,4.186,2.2,9.045,2.518,13.583,3.833s9.221,4.154,10.264,8.82c1.427,6.415-4.683,11.98-10.36,15.331a114.963,114.963,0,0,1-36.757,13.888c-4.619.882-9.446,1.523-13.471,4.025s-7.008,7.473-5.565,12,6.671,6.768,11.386,6.671,9.205-1.924,13.84-2.855c8.66-1.732,19.1.545,23.157,8.452,2.678,5.2,1.924,11.691-.722,16.935a43.763,43.763,0,0,1-11.386,13.2c-15.588,13.182-34.335,22.789-54.334,26.253s-37.8,2.373-55.472-7.586" transform="translate(152.172 143.897)" fill="#3088f4"/>
  <path id="Trazado_8643" data-name="Trazado 8643" d="M264.27,456.141a263.859,263.859,0,0,1,17.641-47.325,540.408,540.408,0,0,1,30.47-53.788l8.724-13.68c2.871-4.49,5.709-8.949,8.772-13.118a268.407,268.407,0,0,1,18.972-23.045c6.415-7.04,12.669-13.471,18.619-19.453s11.595-11.418,16.967-16.165a213.468,213.468,0,0,1,26.942-20.527c3.368-2.165,6.03-3.769,7.842-4.811l2.085-1.2a4.365,4.365,0,0,1,.77-.385,4.855,4.855,0,0,1-.674.481L419.38,244.4c-1.78,1.107-4.394,2.758-7.714,4.988A222.805,222.805,0,0,0,385,270.144c-5.324,4.811-10.921,10.248-16.839,16.229s-12.172,12.461-18.507,19.485a272.181,272.181,0,0,0-18.8,22.965c-3.031,4.154-5.854,8.58-8.724,13.07s-5.757,9.061-8.708,13.68a556.422,556.422,0,0,0-30.47,53.644,268.851,268.851,0,0,0-17.865,47.069" transform="translate(159.541 146.483)" fill="#263238"/>
  <path id="Trazado_8644" data-name="Trazado 8644" d="M305.474,321.118a13.125,13.125,0,0,1-.16-2.63v-7.152c.128-6.046.593-14.433,1.123-23.59s.9-17.512.93-23.558V257.05a11.28,11.28,0,0,1,.1-2.63,13.174,13.174,0,0,1,.337,2.614c.16,1.6.273,4.122.353,7.153.16,6.046,0,14.433-.609,23.623s-1.058,17.288-1.459,23.558c-.144,2.823-.273,5.212-.385,7.136a11.262,11.262,0,0,1-.225,2.614Z" transform="translate(184.313 153.594)" fill="#263238"/>
  <path id="Trazado_8645" data-name="Trazado 8645" d="M384.04,295.758a15.611,15.611,0,0,1-3.1-.128c-1.989-.144-4.811-.385-8.419-.545-7.12-.385-16.951-.577-27.824-.321s-20.688.946-27.792,1.6c-3.544.321-6.415.658-8.387.882a16.579,16.579,0,0,1-3.111.241,17.5,17.5,0,0,1,3.047-.674c1.973-.353,4.811-.8,8.371-1.235,7.1-.9,16.951-1.684,27.856-1.973a273.774,273.774,0,0,1,27.888.658c3.56.273,6.415.609,8.419.9a15.9,15.9,0,0,1,3.047.593Z" transform="translate(184.377 177.191)" fill="#263238"/>
  <path id="Trazado_8646" data-name="Trazado 8646" d="M284.5,384.528a8.339,8.339,0,0,1-.369-1.01c-.208-.674-.513-1.78-.866-2.983-.722-2.582-1.684-6.415-2.806-11.017-2.245-9.35-4.939-22.34-7.73-36.741S267.354,305.385,265.3,296c-1.01-4.555-1.844-8.307-2.454-11.1-.273-1.2-.481-2.213-.658-3.031a4.061,4.061,0,0,1-.16-1.074,3.625,3.625,0,0,1,.385,1.026c.225.8.5,1.78.85,2.967.722,2.582,1.684,6.415,2.806,11.033,2.245,9.334,4.955,22.34,7.73,36.741s5.372,27.391,7.425,36.773c1.01,4.555,1.844,8.307,2.454,11.1.273,1.2.481,2.2.658,3.015a4.2,4.2,0,0,1,.16,1.075Z" transform="translate(158.189 169.52)" fill="#263238"/>
  <path id="Trazado_8647" data-name="Trazado 8647" d="M382.791,335.473a4.122,4.122,0,0,1-1.074.241l-3.111.513-11.434,1.732c-9.622,1.475-22.949,3.672-37.655,6.094s-28.049,4.506-37.735,5.773c-4.811.641-8.772,1.123-11.483,1.4l-3.207.3a3.553,3.553,0,0,1-1.091,0,5.133,5.133,0,0,1,1.074-.241l3.1-.513,11.434-1.732c9.622-1.475,22.965-3.656,37.671-6.094s28.049-4.506,37.735-5.773c4.811-.641,8.756-1.123,11.483-1.4l3.207-.289a3.454,3.454,0,0,1,1.091-.016Z" transform="translate(166.622 202.505)" fill="#263238"/>
  <path id="Trazado_8648" data-name="Trazado 8648" d="M101.466,147.388a17.848,17.848,0,0,1-6.142-16.839,23.733,23.733,0,0,1,10.2-15.2c2.39-1.6,5.356-2.951,8.147-2.133a7.666,7.666,0,0,1,4.939,5.966,15.453,15.453,0,0,1-.93,8.019c-3.047,8.788-7.6,16.743-16.214,20.239" transform="translate(57.381 68.198)" fill="#455a64"/>
  <path id="Trazado_8649" data-name="Trazado 8649" d="M110.714,147.789a41.7,41.7,0,0,0-36.885-9.622c-3.207.754-6.976,2.486-7.505,5.805s2.422,6.158,5.34,7.858a35.7,35.7,0,0,0,39.467-3.207" transform="translate(40.002 82.808)" fill="#455a64"/>
  <path id="Trazado_8650" data-name="Trazado 8650" d="M65.966,100.652A20.949,20.949,0,0,1,82,103.442,36.749,36.749,0,0,1,93.55,115.5c5.805,9.173,7.858,21.522,8.115,32.379C89.6,147.4,79.309,137.922,74.4,132.774c-7.794-8.115-16.935-27.5-8.532-32.074" transform="translate(37.745 60.44)" fill="#455a64"/>
  <path id="Trazado_8651" data-name="Trazado 8651" d="M109.317,173.447a44.583,44.583,0,0,1-3.015-4.555,76.409,76.409,0,0,1-6.784-19.357,38.279,38.279,0,0,1,1.507-20.415,25.049,25.049,0,0,1,2.9-5.533,7.629,7.629,0,0,1,1.491-1.748,53.39,53.39,0,0,0-3.592,7.569,40.381,40.381,0,0,0-1.123,19.918,89.085,89.085,0,0,0,6.415,19.244" transform="translate(59.633 73.555)" fill="#263238"/>
  <path id="Trazado_8652" data-name="Trazado 8652" d="M126.918,181.2l-6.287-8.1c-5.276-6.848-12.605-16.294-20.848-26.621s-15.8-19.565-21.281-26.237l-6.415-8.019a21.713,21.713,0,0,1-2.277-3,23.941,23.941,0,0,1,2.63,2.694c1.6,1.8,3.961,4.41,6.8,7.682,5.661,6.543,13.343,15.716,21.586,26.044s15.444,19.87,20.56,26.862c2.566,3.5,4.6,6.415,5.982,8.323" transform="translate(42.145 65.943)" fill="#263238"/>
  <path id="Trazado_8653" data-name="Trazado 8653" d="M75.67,142.814a6.8,6.8,0,0,1,2.085-.641,15.991,15.991,0,0,1,2.518-.481,30.72,30.72,0,0,1,3.384-.369,44.088,44.088,0,0,1,8.868.337,50.682,50.682,0,0,1,10.5,2.742,51.582,51.582,0,0,1,9.622,5.084,44.024,44.024,0,0,1,6.752,5.741,30.17,30.17,0,0,1,2.261,2.55,19.82,19.82,0,0,1,1.6,2.053c.786,1.171.674,1.716.609,1.764a71.436,71.436,0,0,0-5-5.757,49.448,49.448,0,0,0-6.768-5.421,53.324,53.324,0,0,0-9.414-4.811,54.222,54.222,0,0,0-10.248-2.774,47.584,47.584,0,0,0-8.66-.577C78.717,142.3,75.67,143.039,75.67,142.814Z" transform="translate(45.682 85.265)" fill="#263238"/>
  <path id="Trazado_8654" data-name="Trazado 8654" d="M328.231,602.893,143,602.027a40.332,40.332,0,0,1-40.093-40.51l1.957-464.385A40.348,40.348,0,0,1,145.344,56.96l185.228.85a40.366,40.366,0,0,1,40.093,40.526L368.74,562.7a40.365,40.365,0,0,1-40.51,40.189Z" transform="translate(62.127 34.387)" fill="#263238"/>
  <path id="Trazado_8655" data-name="Trazado 8655" d="M325.669,67.792l-35.923-.176a8.918,8.918,0,0,0-8.756,9.077V83.2a8.917,8.917,0,0,1-8.756,9.077l-70-.321a8.933,8.933,0,0,1-8.676-9.157V76.292a8.932,8.932,0,0,0-8.692-9.157H172.243L140.81,66.99a28.289,28.289,0,0,0-28.4,28.145L110.5,548.39a28.273,28.273,0,0,0,28.129,28.386l184.859.85A28.258,28.258,0,0,0,351.874,549.5l1.908-453.271a28.225,28.225,0,0,0-28.113-28.434Z" transform="translate(66.709 40.442)" fill="#fafafa"/>
  <path id="Trazado_8656" data-name="Trazado 8656" d="M182.364,359.54a3.865,3.865,0,1,1-3.8-3.288,3.594,3.594,0,0,1,3.8,3.288Z" transform="translate(105.453 215.067)" fill="#455a64"/>
  <path id="Trazado_8657" data-name="Trazado 8657" d="M189.734,359.586a3.864,3.864,0,1,1-3.8-3.3,3.593,3.593,0,0,1,3.8,3.3Z" transform="translate(109.902 215.085)" fill="#455a64"/>
  <path id="Trazado_8658" data-name="Trazado 8658" d="M197.1,359.611a3.865,3.865,0,1,1-3.8-3.288,3.577,3.577,0,0,1,3.8,3.288Z" transform="translate(114.352 215.109)" fill="#455a64"/>
  <path id="Trazado_8659" data-name="Trazado 8659" d="M146.19,203.74c3.015.433,184.715,36.067,184.715,36.067V203.74Z" transform="translate(88.256 122.999)" fill="#ebebeb"/>
  <path id="Trazado_8660" data-name="Trazado 8660" d="M110.54,356.75s197.673-27.969,195.941-27.1-195.941,0-195.941,0Z" transform="translate(66.733 198.998)" fill="#ebebeb"/>
  <path id="Trazado_8661" data-name="Trazado 8661" d="M253.827,16.55c.225,0,.417,9.991.417,22.308s-.192,22.324-.417,22.324-.417-9.991-.417-22.324S253.6,16.55,253.827,16.55Z" transform="translate(152.985 9.991)" fill="#263238"/>
  <path id="Trazado_8662" data-name="Trazado 8662" d="M318.377,48.583c.1.208-8.981,4.41-20.255,9.382s-20.5,8.852-20.592,8.628,8.981-4.41,20.255-9.382S318.28,48.359,318.377,48.583Z" transform="translate(167.546 29.324)" fill="#263238"/>
  <path id="Trazado_8663" data-name="Trazado 8663" d="M321.062,0a3.218,3.218,0,0,1-.417.866c-.369.609-.818,1.4-1.379,2.357-1.2,2.053-2.983,4.988-5.228,8.58-4.49,7.217-10.953,17-18.282,27.68S281.916,59.9,277.3,67.019c-2.261,3.48-4.105,6.415-5.453,8.435l-1.507,2.277a3.947,3.947,0,0,1-.577.77,5.479,5.479,0,0,1,.433-.866c.369-.609.818-1.4,1.379-2.357,1.187-2.053,2.983-4.971,5.228-8.58,4.49-7.217,10.953-17,18.266-27.68s13.856-20.351,18.475-27.52l5.453-8.452L320.5.77a5.7,5.7,0,0,1,.561-.77Z" transform="translate(162.855)" fill="#263238"/>
  <path id="Trazado_8664" data-name="Trazado 8664" d="M512.324,117.73H150.769a14.129,14.129,0,0,0-14.129,14.145V244.022a14.13,14.13,0,0,0,14.129,14.145h26.942c2.165,11.707,4.7,26.477,4.7,26.477l24.376-26.477H512.324a14.129,14.129,0,0,0,14.129-14.145V131.875a14.13,14.13,0,0,0-14.129-14.145Z" transform="translate(82.49 71.074)" fill="#3088f4"/>
  <path id="Trazado_8665" data-name="Trazado 8665" d="M350.234,155.8c0,.225-43.027.417-96.094.417s-96.11-.192-96.11-.417,43.027-.433,96.11-.433S350.234,155.611,350.234,155.8Z" transform="translate(95.403 93.798)" fill="#f5f5f5"/>
  <path id="Trazado_8666" data-name="Trazado 8666" d="M350.234,145.077c0,.225-43.027.417-96.094.417s-96.11-.192-96.11-.417,43.027-.417,96.11-.417S350.234,144.836,350.234,145.077Z" transform="translate(95.403 87.332)" fill="#f5f5f5"/>
  <path id="Trazado_8667" data-name="Trazado 8667" d="M350.234,166.457c0,.225-43.027.417-96.094.417s-96.11-.192-96.11-.417,43.027-.417,96.11-.417S350.234,166.216,350.234,166.457Z" transform="translate(95.403 100.239)" fill="#f5f5f5"/>
  <path id="Trazado_8668" data-name="Trazado 8668" d="M283.921,177.467c0,.225-28.177.417-62.945.417s-62.945-.192-62.945-.417,28.177-.417,62.945-.417S283.921,177.226,283.921,177.467Z" transform="translate(95.403 106.886)" fill="#f5f5f5"/>
  <path id="Trazado_8669" data-name="Trazado 8669" d="M409.971,243.46H45.465a9.878,9.878,0,0,0-9.895,9.911V372.045a9.894,9.894,0,0,0,9.895,9.895H310.2l24.056,26.189s2.518-14.722,4.651-26.189h71.012a9.894,9.894,0,0,0,9.895-9.895V253.371a9.881,9.881,0,0,0-9.847-9.911Z" transform="translate(21.474 146.978)" fill="#455a64"/>
  <path id="Trazado_8670" data-name="Trazado 8670" d="M332.48,281.8c0,.224-43.027.417-96.11.417s-96.11-.192-96.11-.417,43.027-.417,96.11-.417S332.48,281.508,332.48,281.8Z" transform="translate(84.676 169.87)" fill="#f5f5f5"/>
  <path id="Trazado_8671" data-name="Trazado 8671" d="M332.48,271.017c0,.225-43.027.417-96.11.417s-96.11-.192-96.11-.417,43.027-.417,96.11-.417S332.48,270.776,332.48,271.017Z" transform="translate(84.676 163.362)" fill="#f5f5f5"/>
  <path id="Trazado_8672" data-name="Trazado 8672" d="M332.48,292.4c0,.225-43.027.417-96.11.417s-96.11-.192-96.11-.417,43.027-.417,96.11-.417S332.48,292.172,332.48,292.4Z" transform="translate(84.676 176.27)" fill="#f5f5f5"/>
  <path id="Trazado_8673" data-name="Trazado 8673" d="M266.167,303.407c0,.241-28.177.417-62.945.417s-62.961-.176-62.961-.417,28.193-.417,62.961-.417S266.167,303.182,266.167,303.407Z" transform="translate(84.676 182.916)" fill="#f5f5f5"/>
  <path id="Trazado_8674" data-name="Trazado 8674" d="M317.228,106.89c.224-2.951-2.406-7.008-4.811-9.35a9.622,9.622,0,0,1-2.678-10.216c.978-3.64,3.288-3.368,4.2-5.517a16.323,16.323,0,0,0,.529-5.1,10.649,10.649,0,0,1,12.7-9.045,14.738,14.738,0,0,1,27.263-2.839,11.337,11.337,0,0,1,16.438,9.205,8.275,8.275,0,0,1,10.745,1.6,10.18,10.18,0,0,1,.77,11.226,13.281,13.281,0,0,1-9.622,6.415,19.5,19.5,0,0,1-11.563-2.1A36.879,36.879,0,0,1,351.708,84" transform="translate(186.688 34.349)" fill="#263238"/>
  <path id="Trazado_8675" data-name="Trazado 8675" d="M356.7,254.039c38.341,0,69.424-30.357,69.424-67.8s-31.083-67.8-69.424-67.8-69.424,30.357-69.424,67.8S318.363,254.039,356.7,254.039Z" transform="translate(173.432 71.497)" fill="#e0e0e0"/>
  <path id="Trazado_8676" data-name="Trazado 8676" d="M387.3,168.154l-7.682-19.693-27.536,17.3L376.617,203.6S386.592,190.637,387.3,168.154Z" transform="translate(212.552 89.626)" fill="#eb996e"/>
  <path id="Trazado_8677" data-name="Trazado 8677" d="M333.637,173.472a18.474,18.474,0,0,0,18.555-17.464c.4-8.163.754-16.037.754-16.037s15.139-1.09,16.534-15.909S371.083,75,371.083,75A52.522,52.522,0,0,0,318.322,77.3l-1.443.914-1.748,76.657a18.476,18.476,0,0,0,18.507,18.6Z" transform="translate(190.245 41.648)" fill="#ffbe9d"/>
  <path id="Trazado_8678" data-name="Trazado 8678" d="M333.128,87a2.149,2.149,0,1,1-2.758,1.363A2.18,2.18,0,0,1,333.128,87Z" transform="translate(199.382 52.455)" fill="#263238"/>
  <path id="Trazado_8679" data-name="Trazado 8679" d="M337.535,88.327c-.257.241-1.6-.978-3.721-1.107s-3.624.834-3.833.561.16-.577.834-1.026a5.083,5.083,0,0,1,3.1-.77,5.02,5.02,0,0,1,2.935,1.2C337.407,87.733,337.616,88.215,337.535,88.327Z" transform="translate(199.176 51.901)" fill="#263238"/>
  <path id="Trazado_8680" data-name="Trazado 8680" d="M347.228,87a2.148,2.148,0,1,1-2.758,1.363A2.182,2.182,0,0,1,347.228,87Z" transform="translate(207.894 52.455)" fill="#263238"/>
  <path id="Trazado_8681" data-name="Trazado 8681" d="M351.775,88.341c-.241.257-1.6-.962-3.721-1.091s-3.624.834-3.833.561.16-.577.85-1.026a5,5,0,0,1,3.079-.77,5.114,5.114,0,0,1,2.951,1.2C351.711,87.764,351.9,88.245,351.775,88.341Z" transform="translate(207.773 51.919)" fill="#263238"/>
  <path id="Trazado_8682" data-name="Trazado 8682" d="M339.21,104.2a9.96,9.96,0,0,1,3.384-.433c.545,0,.978-.1,1.042-.385a2.8,2.8,0,0,0-.257-1.6c-.417-1.4-.85-2.806-1.3-4.282-1.764-6.094-2.935-11.1-2.63-11.226s2,4.811,3.769,10.873c.417,1.475.8,2.9,1.2,4.3a3.4,3.4,0,0,1,.112,2.245,1.445,1.445,0,0,1-1.01.786,3.808,3.808,0,0,1-.93,0A10.026,10.026,0,0,1,339.21,104.2Z" transform="translate(204.782 52.081)" fill="#263238"/>
  <path id="Trazado_8683" data-name="Trazado 8683" d="M345.842,115.792a35.115,35.115,0,0,1-19.052-7.072s3.737,11.05,18.779,10.921Z" transform="translate(197.285 65.635)" fill="#eb996e"/>
  <path id="Trazado_8684" data-name="Trazado 8684" d="M319.773,89.187a2.245,2.245,0,0,0-2.117-2.293c-2.79-.128-7.377.882-8.018,8.516-.834,10.905,9.815,8.387,9.863,8.019S319.725,93.437,319.773,89.187Z" transform="translate(186.901 52.452)" fill="#ffbe9d"/>
  <path id="Trazado_8685" data-name="Trazado 8685" d="M316.086,97.815a2.868,2.868,0,0,1-.545.241,1.859,1.859,0,0,1-1.427,0,4.7,4.7,0,0,1-1.876-4.394,6.191,6.191,0,0,1,.738-2.678,2.245,2.245,0,0,1,1.6-1.347.963.963,0,0,1,1.091.609c.128.3,0,.529.1.545s.257-.16.192-.625a1.158,1.158,0,0,0-.385-.706,1.461,1.461,0,0,0-1.026-.369,2.691,2.691,0,0,0-2.133,1.6,6.155,6.155,0,0,0-.9,2.983,4.951,4.951,0,0,0,2.438,4.923,2.117,2.117,0,0,0,1.78-.16C316.038,98.087,316.118,97.847,316.086,97.815Z" transform="translate(188.039 53.784)" fill="#eb996e"/>
  <path id="Trazado_8686" data-name="Trazado 8686" d="M328.589,84.925c.545.706,2.438.385,4.907.273s4.378-.1,4.811-.866-1.86-2.614-5.036-2.341S327.98,84.2,328.589,84.925Z" transform="translate(198.308 49.481)" fill="#263238"/>
  <path id="Trazado_8687" data-name="Trazado 8687" d="M343.542,84.242c.289.946,2.1,1.235,4.105,1.219s3.8-.369,4.073-1.331-1.6-2.261-4.122-2.229S343.238,83.311,343.542,84.242Z" transform="translate(207.378 49.443)" fill="#263238"/>
  <path id="Trazado_8688" data-name="Trazado 8688" d="M373.193,80.693s-9,4.362-20.688-1.475c-7.682-3.833-16.614-5.709-18.587-4.17s-2.389,9.462-9.991,11.771c0,0,.513,15.075-5.5,14.546s-2.261-23.879-2.261-23.879L330.887,70.3l16.037-3.031L362.047,69.4l11.707,3.207Z" transform="translate(190.172 40.611)" fill="#263238"/>
  <path id="Trazado_8689" data-name="Trazado 8689" d="M288.48,135.574c15.732-16.181,43.412-14.433,43.412-14.433l22.949,16.438,13.006-15.155a84.617,84.617,0,0,1,26.493,8.195l.882.273v.176c10.071,5.469,24.312,18.587,37.9,31.3l-16.246,15.075-17.994,16.037a.427.427,0,0,1,0,.321c-.176.978,2.5,22.933,5.26,39.612a67.708,67.708,0,0,1-60.428,18.266c-7.361-1.3-10.921-3.079-17.737-4.811a24.683,24.683,0,0,1-18.266-21.73h0c-1.219-13.984-2.149-31.3-2.149-31.3" transform="translate(174.157 73.1)" fill="#455a64"/>
  <path id="Trazado_8690" data-name="Trazado 8690" d="M346.94,123.69a16.722,16.722,0,0,1,.994,2.582c.593,1.6,1.379,4.122,2.325,7.153,1.892,6.062,4.314,14.433,6.591,23.943s3.993,18.058,5.068,24.312c.545,3.207.946,5.677,1.187,7.441a17.877,17.877,0,0,1,.3,2.742,16.671,16.671,0,0,1-.625-2.694c-.369-1.876-.85-4.362-1.443-7.377-1.235-6.222-3.031-14.8-5.308-24.232s-4.587-17.913-6.319-23.959l-2.085-7.233a19.765,19.765,0,0,1-.69-2.678Z" transform="translate(209.449 74.672)" fill="#263238"/>
  <path id="Trazado_8691" data-name="Trazado 8691" d="M356.151,169.3c-.144-.176,6.72-6.014,15.331-13.022s15.7-12.557,15.845-12.381-6.7,6.014-15.315,13.022S356.311,169.481,356.151,169.3Z" transform="translate(215.008 86.871)" fill="#263238"/>
  <path id="Trazado_8692" data-name="Trazado 8692" d="M306.718,143.96l-14.048,46.3,5.244,2.726,5.164-13.086S308.338,152.379,306.718,143.96Z" transform="translate(176.686 86.909)" opacity="0.2"/>
  <g id="Grupo_1541" data-name="Grupo 1541" transform="translate(534.851 195.299)" opacity="0.2">
    <path id="Trazado_8693" data-name="Trazado 8693" d="M353.524,124.875c7.586,3.993-11.434,13.615-20.014,13.359l6.238-16.454S350.974,123.528,353.524,124.875Z" transform="translate(-333.51 -121.78)" opacity="0.2"/>
  </g>
  <path id="Trazado_8694" data-name="Trazado 8694" d="M314.14,126.4V114.13s23.943,6.174,24.809,20.5c0,0,3.047-15.845,15.4-16.6l1.748,22.275-14.433,12.509H327.178l-11.531-9.959-1.507-15.46" transform="translate(189.648 68.901)" fill="#455a64"/>
  <path id="Trazado_8695" data-name="Trazado 8695" d="M335.045,194.83a14.116,14.116,0,0,1,0-2.63c0-1.7,0-4.154.08-7.185,0-6.046-.176-14.433-.93-23.623s-1.973-17.5-2.983-23.462c-.513-2.871-.946-5.244-1.267-7.056a14.383,14.383,0,0,1-.385-2.614,16.925,16.925,0,0,1,.706,2.55c.417,1.6.946,4.041,1.524,7.024A223.748,223.748,0,0,1,335,161.328a221,221,0,0,1,.673,23.7c-.08,3.031-.192,5.485-.337,7.185a18.817,18.817,0,0,1-.289,2.614Z" transform="translate(198.957 77.431)" fill="#263238"/>
  <path id="Trazado_8696" data-name="Trazado 8696" d="M338.206,126.731a2.824,2.824,0,0,0-1.427.128,5.1,5.1,0,0,0-2.406,3.063,70.192,70.192,0,0,0-4.6,13.327l-.128.545-.481-.289c-1.427-.866-2.9-1.8-4.378-2.79a93.28,93.28,0,0,1-7.762-5.9,9.868,9.868,0,0,1-2.646-3.464,10.858,10.858,0,0,1-.8-3.7,21.56,21.56,0,0,1,.529-5.356,7.955,7.955,0,0,1,.529-1.908,13.141,13.141,0,0,1-.208,1.957,24.931,24.931,0,0,0-.257,5.276,10.066,10.066,0,0,0,.85,3.448,9.149,9.149,0,0,0,2.518,3.207c2.261,1.892,4.891,3.849,7.714,5.773,1.475.994,2.919,1.94,4.346,2.806l-.609.257A59.7,59.7,0,0,1,333.8,129.81a9.472,9.472,0,0,1,1.251-2.069,3.205,3.205,0,0,1,1.524-1.042C337.789,126.314,338.238,126.715,338.206,126.731Z" transform="translate(189.301 72.674)" fill="#263238"/>
  <path id="Trazado_8697" data-name="Trazado 8697" d="M344.307,116.56a8.685,8.685,0,0,1,.225,1.908l.385,5.228c.176,2.2.449,4.811.9,7.682a12.93,12.93,0,0,1,.289,4.715,8.168,8.168,0,0,1-3.207,4.025,35.271,35.271,0,0,0-5.26,3.993l-.641.722v-.962a28.614,28.614,0,0,0-3.544-11.932c-1.524-2.742-2.774-4.138-2.678-4.218s.385.289.946.946a23.546,23.546,0,0,1,2.181,3.015,27.548,27.548,0,0,1,3.9,12.14l-.706-.241a33.853,33.853,0,0,1,5.372-4.138,7.407,7.407,0,0,0,2.855-3.56,12.816,12.816,0,0,0-.257-4.394c-.4-2.9-.609-5.549-.722-7.762s-.128-4.009-.112-5.244a7.579,7.579,0,0,1,.08-1.924Z" transform="translate(199.685 70.368)" fill="#263238"/>
  <path id="Trazado_8698" data-name="Trazado 8698" d="M400.93,118.48c-.978,1.139-36.26,48.368-36.26,48.368l4.971,2.823,36.18-46.507Z" transform="translate(220.153 71.527)" fill="#263238"/>
  <path id="Trazado_8699" data-name="Trazado 8699" d="M306.02,147.381s37.094,53.4,39.339,54.446c4.394,2.069,55.135-41.776,59.979-45.978.674-.9,2.053-2.774,4.811-6.511,0,0,4.009-18.314,8.275-16.919s-2.341,9.318.449,16.278,15.524-9.622,16.037-11.13l3.288-4.3s3.448,9.767,3.207,13.856c-.754,13.07-13.118,28.61-13.118,28.61s-55.536,68.8-93.576,70.932c-10.953.609-30.47-30.47-43.444-53.788a31.913,31.913,0,0,1,9.093-41.311Z" transform="translate(173.407 79.896)" fill="#ffbe9d"/>
  <path id="Trazado_8700" data-name="Trazado 8700" d="M379.452,146.622q1.066-2.463,2.374-4.811A50.2,50.2,0,0,1,384.231,137a30.011,30.011,0,0,1-4.811,9.622Z" transform="translate(229.057 82.707)" fill="#eb996e"/>
  <path id="Trazado_8701" data-name="Trazado 8701" d="M303.006,125.47s-39.82,14.161-10.216,81.115l45.962-27.744-6.543-15.652Z" transform="translate(170.15 75.747)" fill="#455a64"/>
  <path id="Trazado_8702" data-name="Trazado 8702" d="M295.839,126.222a13.785,13.785,0,0,1,4.811.4,19.5,19.5,0,0,1,5.212,2.2,27.992,27.992,0,0,1,5.805,4.811,69.484,69.484,0,0,1,10.809,16.149c3.368,6.511,6.511,13.936,9.734,21.714.962,2.341,1.924,4.635,2.822,6.816l.144.353-.337.176c-13.295,7.249-24.873,14.032-33.052,19.116-4.105,2.534-7.361,4.619-9.622,6.062l-2.566,1.6a5.917,5.917,0,0,1-.93.529,5.239,5.239,0,0,1,.834-.657c.561-.417,1.4-1.026,2.5-1.78,2.181-1.6,5.4-3.689,9.462-6.286,8.115-5.212,19.661-12.108,32.972-19.373l-.192.513c-.9-2.181-1.86-4.474-2.823-6.816-3.207-7.778-6.415-15.187-9.622-21.682a70.872,70.872,0,0,0-10.552-16.037,28.373,28.373,0,0,0-5.613-4.811,20.321,20.321,0,0,0-5.1-2.293,27.868,27.868,0,0,0-4.7-.706Z" transform="translate(174.271 76.165)" fill="#263238"/>
  <path id="Trazado_8703" data-name="Trazado 8703" d="M358.65,64.3a2.3,2.3,0,0,1,.192.706,9.03,9.03,0,0,1,.128,2.069,10.924,10.924,0,0,1-3.047,6.944,10.809,10.809,0,0,1-10.713,2.71,9.426,9.426,0,0,1-5.485-3.977,5.646,5.646,0,0,1-.818-3.624,4.633,4.633,0,0,1,1.973-3.3,4.058,4.058,0,0,1,3.849-.257,4.942,4.942,0,0,1,2.63,2.646,7.057,7.057,0,0,1-1.058,6.671,8.355,8.355,0,0,1-10.52,2.277,17.885,17.885,0,0,0-3.961-1.507,4.813,4.813,0,0,0-3.063.321,15.177,15.177,0,0,0-2.277,1.507,6.166,6.166,0,0,1,.465-.561,4.2,4.2,0,0,1,.658-.593,4.979,4.979,0,0,1,1.026-.658,5.244,5.244,0,0,1,3.207-.481,17.63,17.63,0,0,1,4.122,1.443,12.176,12.176,0,0,0,2.309.754,7.023,7.023,0,0,0,2.582,0,7.477,7.477,0,0,0,4.811-2.9,6.276,6.276,0,0,0,.93-5.9,3.8,3.8,0,0,0-5.276-2.021,3.9,3.9,0,0,0-1.6,2.726,4.914,4.914,0,0,0,.706,3.1,8.709,8.709,0,0,0,5,3.656,10.232,10.232,0,0,0,10.071-2.39,10.826,10.826,0,0,0,3.127-6.543,22.771,22.771,0,0,0,.032-2.806Z" transform="translate(197.097 38.818)" fill="#455a64"/>
  <path id="Trazado_8704" data-name="Trazado 8704" d="M344.087,103.5c0,.1-.481.321-1.363.353a7.2,7.2,0,0,1-5.934-2.983c-.481-.738-.625-1.267-.529-1.315a18.845,18.845,0,0,0,3.512,2.79,18.6,18.6,0,0,0,4.314,1.155Z" transform="translate(202.985 60.099)" fill="#263238"/>
  <path id="Trazado_8705" data-name="Trazado 8705" d="M316.867,98.714c.08,0,.529.706,0,1.812a2.658,2.658,0,0,1-1.6,1.3,2.79,2.79,0,0,1-2.486-.658,3.018,3.018,0,0,1-1.107-2.454,3.208,3.208,0,0,1,.738-1.924c.77-.9,1.6-.994,1.6-.9a7.071,7.071,0,0,0-1.091,1.251,2.486,2.486,0,0,0,.385,3.207,2.13,2.13,0,0,0,1.764.529,2.23,2.23,0,0,0,1.315-.866C316.9,99.355,316.738,98.714,316.867,98.714Z" transform="translate(188.156 57.872)" fill="#263238"/>
  <path id="Trazado_8706" data-name="Trazado 8706" d="M352.4,67.64a5.529,5.529,0,0,1,.77,2.951,9.832,9.832,0,0,1-8.917,10.28,5.42,5.42,0,0,1-3.031-.353c0-.144,1.171,0,2.951-.241a9.91,9.91,0,0,0,8.4-9.622C352.622,68.827,352.253,67.72,352.4,67.64Z" transform="translate(205.996 40.835)" fill="#455a64"/>
  <path id="Trazado_8707" data-name="Trazado 8707" d="M332.319,151.342c.1.208-10.472,5.645-23.623,12.14s-23.879,11.611-24.056,11.4,10.456-5.645,23.607-12.156S332.223,151.134,332.319,151.342Z" transform="translate(171.838 91.362)" fill="#e0e0e0"/>
  <path id="Trazado_8708" data-name="Trazado 8708" d="M324.334,140c.112.192-9.3,5.469-21.025,11.755S282,162.983,281.9,162.775s9.3-5.469,21.025-11.755S324.222,139.794,324.334,140Z" transform="translate(170.184 84.516)" fill="#e0e0e0"/>
  <path id="Trazado_8709" data-name="Trazado 8709" d="M314.775,130.83a37.559,37.559,0,0,1-4.7,2.774l-11.515,6.415-11.45,6.543a38.193,38.193,0,0,1-4.811,2.6,32.21,32.21,0,0,1,4.522-3.1c2.855-1.812,6.848-4.218,11.338-6.768s8.628-4.7,11.659-6.206a31.957,31.957,0,0,1,4.955-2.261Z" transform="translate(170.426 78.983)" fill="#e0e0e0"/>
  <path id="Trazado_8710" data-name="Trazado 8710" d="M330.756,133.663a7.551,7.551,0,0,1-3.111-.834,24.055,24.055,0,0,1-6.415-4.218A44.592,44.592,0,0,1,316,122.934a11.75,11.75,0,0,1-1.812-2.614,16.389,16.389,0,0,1,2.261,2.245,71.352,71.352,0,0,0,5.34,5.421,29.166,29.166,0,0,0,6.174,4.3C329.618,133.2,330.788,133.567,330.756,133.663Z" transform="translate(189.678 72.638)" fill="#e0e0e0"/>
  <path id="Trazado_8711" data-name="Trazado 8711" d="M342.348,123.24a11.083,11.083,0,0,1-8.628,7.265,49.476,49.476,0,0,0,4.811-3.1,56.228,56.228,0,0,0,3.817-4.17Z" transform="translate(201.468 74.401)" fill="#e0e0e0"/>
  <path id="Trazado_8712" data-name="Trazado 8712" d="M398.628,138.291a3.718,3.718,0,0,1-.9.16l-2.582.321c-2.245.257-5.5.561-9.51.882-8.018.641-19.244,1.267-31.481,1.716s-23.446.593-31.529.529c-4.025,0-7.3-.112-9.542-.192l-2.6-.128a3.608,3.608,0,0,1-.9-.112,3.507,3.507,0,0,1,.9,0h2.6l9.542-.08c8.019-.08,19.244-.337,31.5-.77s23.414-.994,31.465-1.475l9.526-.609,2.6-.16a3.432,3.432,0,0,1,.914-.08Z" transform="translate(186.901 83.485)" fill="#e0e0e0"/>
  <path id="Trazado_8713" data-name="Trazado 8713" d="M382.716,150.161a19.942,19.942,0,0,1-2.63.417c-1.716.208-4.186.465-7.233.754-6.11.561-14.562,1.139-23.911,1.524s-17.833.465-24.056.4c-3.063,0-5.549-.1-7.265-.16a15.589,15.589,0,0,1-2.662-.208,18.682,18.682,0,0,1,2.662-.128l7.265-.1c6.126,0,14.594-.273,23.927-.642s17.8-.866,23.911-1.283l7.249-.5a14.651,14.651,0,0,1,2.742-.08Z" transform="translate(190.143 90.635)" fill="#e0e0e0"/>
  <path id="Trazado_8714" data-name="Trazado 8714" d="M353.026,164.781a31.191,31.191,0,0,1-5.308.754c-3.3.337-7.858.706-12.91.962s-9.622.337-12.942.321a31.306,31.306,0,0,1-5.356-.208,33.814,33.814,0,0,1,5.34-.385l12.91-.561,12.83-.722a39.693,39.693,0,0,1,5.436-.16Z" transform="translate(191.078 99.461)" fill="#e0e0e0"/>
  <path id="Trazado_8715" data-name="Trazado 8715" d="M324.641,130.2c0,.241-4.923.289-10.985.545s-10.953.593-10.985.353a82.207,82.207,0,0,1,21.971-.9Z" transform="translate(182.723 78.389)" fill="#e0e0e0"/>
  <path id="Trazado_8716" data-name="Trazado 8716" d="M369.278,129.735a124.114,124.114,0,0,1-14.241.353,121.226,121.226,0,0,1-14.257-.465,122.251,122.251,0,0,1,14.257-.369,117.927,117.927,0,0,1,14.241.481Z" transform="translate(205.73 77.992)" fill="#e0e0e0"/>
  <path id="Trazado_8717" data-name="Trazado 8717" d="M375.611,190.384a7,7,0,0,1-1.459.834c-.962.5-2.389,1.155-4.17,1.908a92.578,92.578,0,0,1-14.433,4.6,93.846,93.846,0,0,1-14.979,2.165c-1.924.112-3.5.144-4.587.112a6.892,6.892,0,0,1-1.6-.112c0-.128,2.373-.225,6.206-.593a117.724,117.724,0,0,0,14.834-2.39,112.869,112.869,0,0,0,14.433-4.346A61.2,61.2,0,0,1,375.611,190.384Z" transform="translate(201.867 114.929)" fill="#e0e0e0"/>
  <path id="Trazado_8718" data-name="Trazado 8718" d="M116.094,376.356c38.341,0,69.424-29.654,69.424-66.233s-31.083-66.233-69.424-66.233S46.67,273.544,46.67,310.123,77.752,376.356,116.094,376.356Z" transform="translate(28.175 147.237)" fill="#e0e0e0"/>
  <path id="Trazado_8719" data-name="Trazado 8719" d="M93,185.64c-11,.577-15.331,12.06-16.646,14.626a22.192,22.192,0,0,0-1.764,8.4,18.119,18.119,0,0,1-2.117,8.291c-2.422,3.865-7.521,5.87-8.9,10.216-1.6,4.923,2.454,10.184,1.379,15.235-.577,2.71-2.55,4.939-3.207,7.618a11.227,11.227,0,0,0,1.491,8.323c3.608,6.222,11.114,9.334,18.3,9.622s14.209-1.892,21.089-4.009" transform="translate(37.127 112.072)" fill="#263238"/>
  <path id="Trazado_8720" data-name="Trazado 8720" d="M115.1,194.52a6.9,6.9,0,0,0,1.6,7.1,44.676,44.676,0,0,0,5.966,4.811,9.782,9.782,0,0,1,4.073,6.3c.208,2.341-.978,4.683-.658,7.008.834,6.014,10.408,7.81,10.905,13.84.353,4.025-3.785,7.73-2.63,11.595a18.493,18.493,0,0,0,2.406,4.057c2.726,4.522.882,10.745-3.063,14.241s-9.4,4.731-14.658,4.971c-4.426.192-9.462-.529-12.06-4.105-2.39-3.288-1.892-7.746-1.427-11.771,2.229-18.8,1.844-37.783,1.475-56.707" transform="translate(63.491 117.433)" fill="#263238"/>
  <path id="Trazado_8721" data-name="Trazado 8721" d="M88.926,283.739c.08-9.879,0-20.271,0-20.271s-12.685-2.261-15.139-18.876c-2.325-15.861,1.6-49.955,1.6-49.955,18.394-7.265,39.114-4.458,51.992,10.344l-2.021,80.185c-.225,9.3-8.419,16.518-18.378,16.2C96.928,301.027,88.846,293.185,88.926,283.739Z" transform="translate(44.101 115.182)" fill="#ffbe9d"/>
  <path id="Trazado_8722" data-name="Trazado 8722" d="M76.67,210.225a2.132,2.132,0,0,0,2.021,2.181,2.065,2.065,0,0,0,.8-.088,2.055,2.055,0,0,0,1.426-1.8,2.15,2.15,0,0,0-2.037-2.181,2.036,2.036,0,0,0-2.213,1.892Z" transform="translate(46.286 125.767)" fill="#263238"/>
  <path id="Trazado_8723" data-name="Trazado 8723" d="M74.553,209.317c.257.273,1.876-.9,4.17-.866,4.314.625,4.234,1.283,4.2.914.128-.112-.128-.625-.866-1.155a5.77,5.77,0,0,0-3.352-1.091,5.682,5.682,0,0,0-3.336,1.042C74.665,208.692,74.424,209.189,74.553,209.317Z" transform="translate(44.988 125.039)" fill="#263238"/>
  <path id="Trazado_8724" data-name="Trazado 8724" d="M91.29,210.661a2.117,2.117,0,0,0,2.021,2.165,2.019,2.019,0,0,0,1.509-.475,2.054,2.054,0,0,0,.5-.637,2.026,2.026,0,0,0,.207-.781,2.132,2.132,0,0,0-2.021-2.181,2.031,2.031,0,0,0-.8.095,2.081,2.081,0,0,0-.7.4,2.057,2.057,0,0,0-.708,1.418Z" transform="translate(55.112 126.021)" fill="#263238"/>
  <path id="Trazado_8725" data-name="Trazado 8725" d="M89.442,209.8c.257.289,1.892-.9,4.17-.866s3.961,1.2,4.218.93-.144-.625-.866-1.171A5.762,5.762,0,0,0,93.6,207.62a5.614,5.614,0,0,0-3.336,1.026C89.555,209.256,89.314,209.673,89.442,209.8Z" transform="translate(53.977 125.341)" fill="#263238"/>
  <path id="Trazado_8726" data-name="Trazado 8726" d="M86.3,226.415a13.837,13.837,0,0,0-3.7-.722c-.577,0-1.139-.192-1.235-.593a3.1,3.1,0,0,1,.417-1.732l1.78-4.426a79.3,79.3,0,0,0,4.025-11.611c-.257-.1-2.47,4.955-4.955,11.226-.593,1.6-1.155,3.047-1.7,4.458a3.337,3.337,0,0,0-.337,2.293,1.427,1.427,0,0,0,.962.866,3.209,3.209,0,0,0,.978.144A14.971,14.971,0,0,0,86.3,226.415Z" transform="translate(48.607 125.166)" fill="#263238"/>
  <path id="Trazado_8727" data-name="Trazado 8727" d="M82.94,238.241a42.231,42.231,0,0,0,22.291-5.661s-5.517,11.338-22.115,9.622Z" transform="translate(50.071 140.41)" fill="#eb996e"/>
  <path id="Trazado_8728" data-name="Trazado 8728" d="M84.719,223.213a4.158,4.158,0,0,1,3.721-1.491,3.778,3.778,0,0,1,2.694,1.491,2.405,2.405,0,0,1,.144,2.742,2.808,2.808,0,0,1-3.015.722,8.676,8.676,0,0,1-2.9-1.78,2.624,2.624,0,0,1-.641-.69.754.754,0,0,1,0-.85" transform="translate(51.066 133.836)" fill="#eb996e"/>
  <path id="Trazado_8729" data-name="Trazado 8729" d="M91.1,220.26c-.385,0-.417,2.47-2.566,4.2s-4.811,1.443-4.811,1.78.593.5,1.7.529a6.062,6.062,0,0,0,4.025-1.347,5.4,5.4,0,0,0,1.973-3.512C91.53,220.87,91.257,220.244,91.1,220.26Z" transform="translate(50.542 132.972)" fill="#263238"/>
  <path id="Trazado_8730" data-name="Trazado 8730" d="M120.246,196.794c-6.062,8.66-22.147,17.561-33.678,19.629,1.331-1.764,8.4-6.126,9.751-7.89-5.212,3.881-12.685,9.109-19.6,9.446a4.1,4.1,0,0,1-2.39-.369,3.209,3.209,0,0,1-1.2-2.6,68.408,68.408,0,0,1,.481-15.043,16.6,16.6,0,0,1,5.982-10.729c4.442-3.432,10.777-4.266,16.759-4.41a37.751,37.751,0,0,1,14.77,1.989c4.587,1.8,8.516,5.372,9.189,9.622" transform="translate(44.022 111.535)" fill="#263238"/>
  <path id="Trazado_8731" data-name="Trazado 8731" d="M125.175,234.842a91.794,91.794,0,0,0,1.6-11.1c.5-8.564-1.973-40.093-31.5-37.623l-1.2,9s-4.555,30.775,14.546,31a34.2,34.2,0,0,0,9.622,18.09s5-.144,6.8-9.366" transform="translate(56.509 112.28)" fill="#263238"/>
  <path id="Trazado_8732" data-name="Trazado 8732" d="M103.29,211.081a10.072,10.072,0,0,1,5.34.4,6.945,6.945,0,0,1,3.865,3.608,7.264,7.264,0,0,1,0,5.292,12.306,12.306,0,0,1-3.079,4.426,8.025,8.025,0,0,1-3.207,2.1,3.93,3.93,0,0,1-3.689-.609" transform="translate(61.892 127.316)" fill="#ffbe9d"/>
  <path id="Trazado_8733" data-name="Trazado 8733" d="M103.543,220.942c-.208,0,.561,1.139,2.181.722a3.406,3.406,0,0,0,2.021-1.732,7.729,7.729,0,0,0,.93-2.919,4.7,4.7,0,0,0-.722-3.207,3.014,3.014,0,0,0-2.309-1.4c-1.6,0-2.2,1.091-2.021,1.123a3.266,3.266,0,0,1,1.876-.176,2.969,2.969,0,0,1,1.812,3.448c-.208,1.828-.93,3.5-1.908,3.9S103.655,220.8,103.543,220.942Z" transform="translate(62.489 128.233)" fill="#eb996e"/>
  <path id="Trazado_8734" data-name="Trazado 8734" d="M105.96,195.145a10.072,10.072,0,0,0,13.615-3.592,6.415,6.415,0,0,0,.93-4.811,6.589,6.589,0,0,0-4.955-4.3,10.15,10.15,0,0,0-9.3,2.229,8.884,8.884,0,0,0-2.406,9.141,8.022,8.022,0,0,0,7.65,5.292" transform="translate(62.445 109.944)" fill="#263238"/>
  <path id="Trazado_8735" data-name="Trazado 8735" d="M110.313,220.08a23.969,23.969,0,0,0-4.587,3.961,7.89,7.89,0,0,0-1.973,5.581,15.156,15.156,0,0,1,.369,3.368A11.218,11.218,0,0,1,101.8,237a9.512,9.512,0,0,0,1.491,11.146,15.427,15.427,0,0,0,10.921,4.426,10.958,10.958,0,0,0,6.7-1.6c2.758-1.924,3.817-5.549,3.9-8.933" transform="translate(60.754 132.863)" fill="#263238"/>
  <path id="Trazado_8736" data-name="Trazado 8736" d="M114.571,194.37a10.634,10.634,0,0,1-1.732,3.015,33.77,33.77,0,0,1-5.693,6.222,34.293,34.293,0,0,1-7.008,4.7,11.229,11.229,0,0,1-3.207,1.267,74.7,74.7,0,0,0,9.718-6.591,74.866,74.866,0,0,0,7.922-8.612Z" transform="translate(58.517 117.342)" fill="#455a64"/>
  <path id="Trazado_8737" data-name="Trazado 8737" d="M115.08,194.26a12.631,12.631,0,0,1-.529,4.057,33.311,33.311,0,0,1-3.753,9.125,32.942,32.942,0,0,1-6.3,7.586,12.866,12.866,0,0,1-3.336,2.373,50.7,50.7,0,0,0,8.917-10.392,50,50,0,0,0,5-12.749Z" transform="translate(61.071 117.276)" fill="#455a64"/>
  <path id="Trazado_8738" data-name="Trazado 8738" d="M69.878,202.64c.241,0,.561,2.758,1.6,6.046s2.149,5.805,1.924,5.918a19.1,19.1,0,0,1-3.528-11.964Z" transform="translate(42.173 122.335)" fill="#455a64"/>
  <path id="Trazado_8739" data-name="Trazado 8739" d="M116.479,258.033a4.8,4.8,0,0,0,2.438.786,5.09,5.09,0,0,0,2.823-.9,5.628,5.628,0,0,0,2.133-3.207,10.167,10.167,0,0,0,0-4.811c-.337-1.748-1.01-3.544-1.6-5.517a14.3,14.3,0,0,1-.722-6.415c.369-2.341,1.892-4.25,2.63-6.415a8.181,8.181,0,0,0-.465-6.335,8.264,8.264,0,0,0-4.394-4.025,28,28,0,0,1-2.758-1.2,5.538,5.538,0,0,1-2.2-1.956,9.391,9.391,0,0,1-.994-5.052,17.232,17.232,0,0,0-.16-4.073,6.409,6.409,0,0,0-1.2-2.758,3.944,3.944,0,0,0-2.165-1.347,1.5,1.5,0,0,1,.706,0,3.429,3.429,0,0,1,1.716,1.058,7.188,7.188,0,0,1,1.411,2.871,16.512,16.512,0,0,1,.289,4.186,8.646,8.646,0,0,0,.994,4.667c.9,1.475,2.758,2.085,4.651,2.839a8.928,8.928,0,0,1,4.811,4.362,9.039,9.039,0,0,1,.545,6.976c-.834,2.293-2.309,4.122-2.63,6.222a13.77,13.77,0,0,0,.658,6.11c.561,1.924,1.219,3.769,1.6,5.581a11,11,0,0,1-.144,5.132A6.156,6.156,0,0,1,122,258.273a5.159,5.159,0,0,1-3.1.834,3.8,3.8,0,0,1-1.924-.625,1.6,1.6,0,0,1-.5-.449Z" transform="translate(66.311 123.617)" fill="#455a64"/>
  <path id="Trazado_8740" data-name="Trazado 8740" d="M106.764,247.6a1.944,1.944,0,0,0,.978.882,2.631,2.631,0,0,0,3.111-.85,4.909,4.909,0,0,0-.257-5.02c-.914-1.812-2.726-3.592-3.207-6.238a4.521,4.521,0,0,1,.882-3.7c.786-.962,1.716-1.6,2.309-2.39a7,7,0,0,0,1.123-5.132,21.562,21.562,0,0,0-.914-3.64,5.393,5.393,0,0,1-.385-1.347,7.531,7.531,0,0,1,.674,1.235,14.8,14.8,0,0,1,1.2,3.673,7.453,7.453,0,0,1-1.074,5.661c-.69.93-1.6,1.6-2.277,2.454a3.718,3.718,0,0,0-.722,3.063c.385,2.293,2.085,4.041,3.063,6.014a5.483,5.483,0,0,1,0,5.725,3.021,3.021,0,0,1-3.737.786C106.732,248.193,106.732,247.583,106.764,247.6Z" transform="translate(64.448 132.912)" fill="#455a64"/>
  <path id="Trazado_8741" data-name="Trazado 8741" d="M69.36,249.914a7.28,7.28,0,0,1-1.315-1.3,16.239,16.239,0,0,1-2.79-4.218,8.291,8.291,0,0,1-.674-3.5,6.173,6.173,0,0,1,1.411-3.9c.994-1.139,2.438-1.748,3.3-2.823a4.7,4.7,0,0,0,.658-4.122,17.186,17.186,0,0,0-1.748-4.234,14.43,14.43,0,0,1-1.6-4.218,5.518,5.518,0,0,1,.818-4.041,13.815,13.815,0,0,1,2.438-2.55A7.313,7.313,0,0,0,72.6,211.1a4.811,4.811,0,0,0,0-1.764,1.283,1.283,0,0,1,.241.417,2.917,2.917,0,0,1,.144,1.4,7.3,7.3,0,0,1-2.662,4.3,14.715,14.715,0,0,0-2.261,2.486,4.811,4.811,0,0,0-.641,3.544,14.092,14.092,0,0,0,1.6,3.961,17.994,17.994,0,0,1,1.844,4.426,5.55,5.55,0,0,1-.834,4.811c-1.091,1.283-2.534,1.844-3.368,2.822a5.419,5.419,0,0,0-1.3,3.4,7.858,7.858,0,0,0,.529,3.207,17.461,17.461,0,0,0,2.5,4.234A9.515,9.515,0,0,1,69.36,249.914Z" transform="translate(38.986 126.379)" fill="#455a64"/>
  <path id="Trazado_8742" data-name="Trazado 8742" d="M112.671,194.118a26.568,26.568,0,0,0-3.913-4.25,26.313,26.313,0,0,0-5.148-2.6,9.62,9.62,0,0,1,9.061,6.848Z" transform="translate(62.55 113.056)" fill="#3088f4"/>
  <path id="Trazado_8743" data-name="Trazado 8743" d="M111.939,181.97A3.651,3.651,0,0,1,113,183.782a8.7,8.7,0,0,1-2.582,9.382c-1.026.85-1.8,1.107-1.844,1.026s.593-.545,1.427-1.443a9.538,9.538,0,0,0,2.438-8.8,11.764,11.764,0,0,1-.5-1.973Z" transform="translate(65.543 109.856)" fill="#455a64"/>
  <path id="Trazado_8744" data-name="Trazado 8744" d="M59.92,308.343s39.852,37.847,63.539,30.984,30.679-24.617,30.679-24.617l.577-6.415-2.373-1.6L61.123,299.41Z" transform="translate(36.174 180.755)" opacity="0.3"/>
  <path id="Trazado_8745" data-name="Trazado 8745" d="M45.23,290.269l7.682-19.629,27.536,17.3L55.911,325.775S45.936,312.753,45.23,290.269Z" transform="translate(27.306 163.387)" fill="#eb996e"/>
  <path id="Trazado_8746" data-name="Trazado 8746" d="M76.819,252.551c12.83-6.7,29.412-8.628,29.412-8.628,4.811,9.622,20,10.857,29.187,4.282l7.762-5.244a26.767,26.767,0,0,1,3.207.144,41.374,41.374,0,0,1,36.693,33.02,82.445,82.445,0,0,1,1.94,20.848c-1.01,17.528-19.148,19.116-19.148,19.116s-.93,17.3-2.165,31.3a26.138,26.138,0,0,1-15.861,22.628,64.612,64.612,0,0,1-20.223,6.238,68,68,0,0,1-60.283-20.848c2.758-16.679,5.388-38.28,5.2-39.259a.56.56,0,0,1,0-.321L54.56,299.877l-10.2-8.564s22.452-33.2,32.427-38.649" transform="translate(26.78 146.675)" fill="#3088f4"/>
  <path id="Trazado_8747" data-name="Trazado 8747" d="M89.077,256.313a9.479,9.479,0,0,0-4.442-1.235,7.312,7.312,0,0,0-4.587,1.6,19.579,19.579,0,0,0-2.053,2.2,5.157,5.157,0,0,1-2.9,1.924,4.671,4.671,0,0,1-3.384-.9c-.93-.593-1.716-1.235-2.534-1.7a5.5,5.5,0,0,0-4.7-.417,6.108,6.108,0,0,0-2.742,1.892c-.5.625-.674,1.042-.754,1.01a2.581,2.581,0,0,1,.5-1.2,5.843,5.843,0,0,1,2.79-2.245,5.988,5.988,0,0,1,5.292.289c.9.481,1.7,1.139,2.582,1.684a3.945,3.945,0,0,0,2.806.77,4.557,4.557,0,0,0,2.454-1.6,16.885,16.885,0,0,1,2.165-2.245,7.731,7.731,0,0,1,5.068-1.6,7.425,7.425,0,0,1,3.432.978A3.263,3.263,0,0,1,89.077,256.313Z" transform="translate(36.814 153.658)" fill="#fafafa"/>
  <path id="Trazado_8748" data-name="Trazado 8748" d="M100.422,273.324a9.375,9.375,0,0,0-3.817-2.6,7.425,7.425,0,0,0-4.811,0,21.809,21.809,0,0,0-2.63,1.427,5.232,5.232,0,0,1-3.368.9,4.655,4.655,0,0,1-2.919-1.94c-.69-.85-1.235-1.716-1.86-2.422A5.494,5.494,0,0,0,76.7,266.8a6.305,6.305,0,0,0-3.207.914c-.674.433-.978.77-1.042.722s.208-.449.866-.994a6.205,6.205,0,0,1,8.275.738c.69.754,1.251,1.6,1.908,2.422a4.06,4.06,0,0,0,2.406,1.6,4.683,4.683,0,0,0,2.855-.786,16.9,16.9,0,0,1,2.774-1.443,7.626,7.626,0,0,1,5.324.144,7.232,7.232,0,0,1,2.951,2.021C100.294,272.8,100.454,273.228,100.422,273.324Z" transform="translate(43.735 160.702)" fill="#fafafa"/>
  <path id="Trazado_8749" data-name="Trazado 8749" d="M125.194,249.106a9.626,9.626,0,0,0-4.6-.273,7.327,7.327,0,0,0-4.154,2.534,20.984,20.984,0,0,0-1.524,2.566,5.277,5.277,0,0,1-2.438,2.518,4.815,4.815,0,0,1-3.5-.176c-1.026-.385-1.94-.85-2.839-1.139a5.52,5.52,0,0,0-4.683.609,6.285,6.285,0,0,0-2.277,2.422c-.353.706-.449,1.171-.513,1.155s0-.481.225-1.3a6.208,6.208,0,0,1,7.489-3.608c.978.289,1.908.738,2.871,1.09a3.9,3.9,0,0,0,2.9.16,4.571,4.571,0,0,0,2.053-2.133,17.225,17.225,0,0,1,1.6-2.646,7.763,7.763,0,0,1,4.635-2.63,7.154,7.154,0,0,1,3.56.241,2.636,2.636,0,0,1,1.187.609Z" transform="translate(59.553 149.8)" fill="#fafafa"/>
  <path id="Trazado_8750" data-name="Trazado 8750" d="M111.585,267.513a8.229,8.229,0,0,0-2.871-2.053,5.517,5.517,0,0,0-3.689-.112,14.128,14.128,0,0,0-2.069.994,4.172,4.172,0,0,1-2.694.593,3.708,3.708,0,0,1-2.245-1.6c-.5-.69-.882-1.379-1.331-1.94a4.152,4.152,0,0,0-3.207-1.6,5.917,5.917,0,0,0-3.32,1.042,2.317,2.317,0,0,1,.674-.754,4.812,4.812,0,0,1,6.415.818c.513.609.93,1.3,1.4,1.924a3,3,0,0,0,1.748,1.315c1.475.257,2.823-1.075,4.362-1.508a5.967,5.967,0,0,1,4.154.3C111.169,265.942,111.682,267.545,111.585,267.513Z" transform="translate(54.43 157.693)" fill="#fafafa"/>
  <path id="Trazado_8751" data-name="Trazado 8751" d="M85.854,281.31a8.431,8.431,0,0,0-2.887-2.053,5.515,5.515,0,0,0-3.689-.064,14.96,14.96,0,0,0-2.069.994,4.117,4.117,0,0,1-2.742.609,3.724,3.724,0,0,1-2.229-1.6c-.513-.69-.9-1.379-1.331-1.924a4.2,4.2,0,0,0-3.207-1.6,5.783,5.783,0,0,0-3.32,1.042,2.086,2.086,0,0,1,.674-.754,4.542,4.542,0,0,1,2.646-.882,4.7,4.7,0,0,1,3.8,1.7c.513.609.914,1.3,1.4,1.924a2.95,2.95,0,0,0,1.732,1.315c1.475.257,2.839-1.074,4.378-1.508a5.915,5.915,0,0,1,4.138.3C85.421,279.738,85.934,281.342,85.854,281.31Z" transform="translate(38.866 166.06)" fill="#fafafa"/>
  <path id="Trazado_8752" data-name="Trazado 8752" d="M110.032,279.906a7.71,7.71,0,0,0-3.384-1.026,5.6,5.6,0,0,0-3.528,1.091,14.046,14.046,0,0,0-1.6,1.6A4.184,4.184,0,0,1,99.159,283a3.749,3.749,0,0,1-2.646-.834c-.706-.481-1.283-1.01-1.892-1.4a4.183,4.183,0,0,0-3.544-.465,5.961,5.961,0,0,0-2.806,2.069,1.824,1.824,0,0,1,.4-.946,4.6,4.6,0,0,1,2.229-1.684,4.667,4.667,0,0,1,4.138.385c.674.4,1.283.93,1.94,1.363a2.923,2.923,0,0,0,2.069.674c1.475-.225,2.325-1.924,3.64-2.839a6.028,6.028,0,0,1,4.025-1.058,4.27,4.27,0,0,1,3.32,1.636Z" transform="translate(53.289 167.976)" fill="#fafafa"/>
  <path id="Trazado_8753" data-name="Trazado 8753" d="M102.088,290.885a8.385,8.385,0,0,0-3.384-1.026,5.663,5.663,0,0,0-3.544,1.091,15.408,15.408,0,0,0-1.6,1.6A4.159,4.159,0,0,1,91.2,293.98a3.81,3.81,0,0,1-2.646-.818c-.706-.5-1.283-1.026-1.892-1.4a4.139,4.139,0,0,0-3.544-.481,5.848,5.848,0,0,0-2.806,2.069,1.831,1.831,0,0,1,.385-.946,4.811,4.811,0,0,1,6.415-1.3c.69.4,1.3.93,1.957,1.363a2.923,2.923,0,0,0,2.069.674c1.475-.225,2.325-1.924,3.64-2.839A6.1,6.1,0,0,1,98.8,289.25a4.314,4.314,0,0,1,3.288,1.636Z" transform="translate(48.484 174.606)" fill="#fafafa"/>
  <path id="Trazado_8754" data-name="Trazado 8754" d="M85.184,319.8a8.508,8.508,0,0,0-2.919-2.021,5.554,5.554,0,0,0-3.689,0,14.664,14.664,0,0,0-2.053,1.042,4.1,4.1,0,0,1-2.678.609,3.686,3.686,0,0,1-2.261-1.6c-.513-.674-.914-1.363-1.363-1.908a4.253,4.253,0,0,0-3.207-1.6,5.725,5.725,0,0,0-3.3,1.107,2.188,2.188,0,0,1,.658-.786,4.827,4.827,0,0,1,6.463.706c.513.609.93,1.3,1.411,1.908a2.951,2.951,0,0,0,1.764,1.283c1.475.241,2.806-1.107,4.346-1.6a6,6,0,0,1,4.154.257C84.719,318.233,85.264,319.821,85.184,319.8Z" transform="translate(38.462 189.403)" fill="#fafafa"/>
  <path id="Trazado_8755" data-name="Trazado 8755" d="M104.93,323.942a8.205,8.205,0,0,0-3.336-1.091,5.631,5.631,0,0,0-3.544,1.042,13.8,13.8,0,0,0-1.6,1.6,4.158,4.158,0,0,1-2.373,1.379,3.682,3.682,0,0,1-2.63-.85c-.706-.5-1.283-1.042-1.876-1.427a4.223,4.223,0,0,0-3.544-.529,5.916,5.916,0,0,0-2.823,2.037,1.756,1.756,0,0,1,.4-.93,4.652,4.652,0,0,1,2.245-1.6,4.817,4.817,0,0,1,4.138.449c.674.417,1.283.946,1.924,1.4a3.03,3.03,0,0,0,2.069.706c1.475-.225,2.357-1.892,3.672-2.79a6.124,6.124,0,0,1,4.041-1.01,4.318,4.318,0,0,1,3.239,1.62Z" transform="translate(50.228 194.568)" fill="#fafafa"/>
  <path id="Trazado_8756" data-name="Trazado 8756" d="M33.843,240.64c.962,1.139,36.228,48.288,36.228,48.288l-4.955,2.823-36.2-46.507Z" transform="translate(17.459 145.275)" fill="#263238"/>
  <path id="Trazado_8757" data-name="Trazado 8757" d="M167.212,265.931s-33.068,57.044-35.281,58.086c-4.41,2.069-55.151-41.793-59.995-45.978-.658-.9-2.037-2.774-4.811-6.511,0,0-3.993-18.33-8.275-16.919s2.341,9.318-.433,16.278-15.524-9.622-16.037-11.13l-3.207-4.3s-3.448,9.767-3.207,13.856c.738,13.07,13.1,28.61,13.1,28.61s50.26,62.961,88.3,65.094c10.953.625,31.882-30.919,44.9-54.237,7.858-14.081,4.2-28.369-8.82-37.879Z" transform="translate(21.705 153.662)" fill="#ffbe9d"/>
  <path id="Trazado_8758" data-name="Trazado 8758" d="M41.641,268.762a30,30,0,0,1-4.811-9.622c.128,0,1.074,2.165,2.406,4.811S41.753,268.7,41.641,268.762Z" transform="translate(22.234 156.444)" fill="#eb996e"/>
  <path id="Trazado_8759" data-name="Trazado 8759" d="M128.9,251.7c-1.3.786-32.074,57.878-32.074,57.878l39.6,31A456.062,456.062,0,0,0,152.142,294.6c1.475-5.6.722-20.56-1.363-26.333-2.951-8.195-7.409-6.158-14.1-10.953Z" transform="translate(58.457 151.952)" fill="#3088f4"/>
  <g id="Grupo_1542" data-name="Grupo 1542" transform="translate(154.757 401.916)" opacity="0.7">
    <path id="Trazado_8760" data-name="Trazado 8760" d="M142.109,252.354s-.385-.225-1.123-.593a6.759,6.759,0,0,0-3.48-.722,9.445,9.445,0,0,0-5.164,2.149,25.527,25.527,0,0,0-5.1,5.485,89.491,89.491,0,0,0-4.811,8.019c-1.6,2.9-3.432,6.014-5.292,9.285-3.737,6.527-7.858,13.712-12.156,21.249-2.646,4.571-5.2,9.013-7.6,13.182l-.1-.513,26.782,21.169,7.778,6.238L133.9,339a4.4,4.4,0,0,1,.69.625,4.494,4.494,0,0,1-.77-.513l-2.149-1.6-7.922-6.062L96.789,310.6l-.289-.224.273-.385c2.406-4.17,4.955-8.612,7.569-13.2,4.33-7.521,8.468-14.674,12.22-21.2l5.356-9.253a88.738,88.738,0,0,1,4.811-8.019,25.2,25.2,0,0,1,5.356-5.581,9.847,9.847,0,0,1,5.421-2.117,6.541,6.541,0,0,1,3.576.914,6.186,6.186,0,0,1,.8.529C142.045,252.257,142.125,252.338,142.109,252.354Z" transform="translate(-96.5 -250.617)" opacity="0.7"/>
  </g>
  <path id="Trazado_8761" data-name="Trazado 8761" d="M125.635,287.46a8.019,8.019,0,0,0-2.871-2.053,5.618,5.618,0,0,0-3.688-.128,14.341,14.341,0,0,0-2.069,1.01,4.265,4.265,0,0,1-2.694.593,3.71,3.71,0,0,1-2.245-1.6c-.5-.69-.882-1.379-1.331-1.94a4.149,4.149,0,0,0-3.207-1.6,5.918,5.918,0,0,0-3.32,1.042,2.444,2.444,0,0,1,.674-.77,4.8,4.8,0,0,1,2.662-.866,4.664,4.664,0,0,1,3.785,1.7c.513.609.93,1.3,1.4,1.924a3.064,3.064,0,0,0,1.748,1.315c1.475.257,2.823-1.074,4.362-1.507a5.967,5.967,0,0,1,4.154.289C125.219,285.872,125.8,287.476,125.635,287.46Z" transform="translate(62.912 169.724)" fill="#fafafa"/>
  <path id="Trazado_8762" data-name="Trazado 8762" d="M136.137,284.677a7.689,7.689,0,0,0-2.213-2.774,5.662,5.662,0,0,0-3.512-1.107,17.2,17.2,0,0,0-2.261.417,4.231,4.231,0,0,1-2.758-.16,3.719,3.719,0,0,1-1.716-2.181c-.289-.8-.481-1.6-.754-2.213a4.183,4.183,0,0,0-2.662-2.406,5.908,5.908,0,0,0-3.48.112,2.111,2.111,0,0,1,.85-.545,4.467,4.467,0,0,1,2.79-.128,4.7,4.7,0,0,1,3.207,2.662c.321.722.529,1.491.818,2.229a2.923,2.923,0,0,0,1.331,1.716c1.347.658,3-.257,4.6-.273a6.108,6.108,0,0,1,3.913,1.411,4.3,4.3,0,0,1,1.844,3.24Z" transform="translate(70.501 165.13)" fill="#fafafa"/>
  <path id="Trazado_8763" data-name="Trazado 8763" d="M136.717,269.955A7.861,7.861,0,0,0,134.5,267.2a5.564,5.564,0,0,0-3.512-1.107,13.056,13.056,0,0,0-2.261.417,4.131,4.131,0,0,1-2.758-.176,3.738,3.738,0,0,1-1.716-2.165c-.289-.8-.481-1.6-.754-2.229a4.282,4.282,0,0,0-2.662-2.406,5.908,5.908,0,0,0-3.48.112,2.336,2.336,0,0,1,.85-.545,4.585,4.585,0,0,1,2.79-.128,4.81,4.81,0,0,1,3.207,2.662c.321.722.529,1.507.818,2.229a2.948,2.948,0,0,0,1.331,1.732c1.347.642,3-.273,4.6-.273a5.931,5.931,0,0,1,3.913,1.411,4.319,4.319,0,0,1,1.844,3.223Z" transform="translate(70.851 156.245)" fill="#fafafa"/>
  <path id="Trazado_8764" data-name="Trazado 8764" d="M131.257,303.831a8.111,8.111,0,0,0-2.213-2.758,5.583,5.583,0,0,0-3.528-1.107,12.875,12.875,0,0,0-2.245.417,4.231,4.231,0,0,1-2.758-.16,3.81,3.81,0,0,1-1.716-2.181c-.3-.8-.481-1.6-.77-2.229a4.255,4.255,0,0,0-2.646-2.406,5.661,5.661,0,0,0-3.48.128,2.227,2.227,0,0,1,.85-.561,4.809,4.809,0,0,1,5.982,2.534c.337.722.545,1.508.834,2.229a2.99,2.99,0,0,0,1.315,1.732c1.363.641,3.015-.273,4.619-.273a5.93,5.93,0,0,1,3.913,1.411,4.319,4.319,0,0,1,1.844,3.223Z" transform="translate(67.555 176.703)" fill="#fafafa"/>
</svg>
