<svg xmlns="http://www.w3.org/2000/svg" xmlns:xlink="http://www.w3.org/1999/xlink" width="150" height="150" viewBox="0 0 150 150"><defs><clipPath id="a"><rect width="150" height="150" transform="translate(303.5 1331)" fill="#fff" stroke="#707070" stroke-width="1"/></clipPath><linearGradient id="b" x1="-10.229" y1="13.597" x2="-10.229" y2="14.597" gradientUnits="objectBoundingBox"><stop offset="0.387" stop-color="#d1d3d4" stop-opacity="0"/><stop offset="1" stop-color="#d1d3d4"/></linearGradient><linearGradient id="c" x1="-9.516" y1="14.078" x2="-9.516" y2="15.078" xlink:href="#b"/><linearGradient id="d" x1="-5.39" y1="6.703" x2="-4.39" y2="6.703" gradientUnits="objectBoundingBox"><stop offset="0" stop-color="#e8e7e5"/><stop offset="1" stop-color="#fff"/></linearGradient><linearGradient id="e" x1="-4.964" y1="30.297" x2="-3.964" y2="30.297" xlink:href="#d"/></defs><g transform="translate(-303.5 -1331)" clip-path="url(#a)"><g transform="translate(303.5 1331)"><path d="M0,0H150V150H0Z" fill="none"/><path d="M112.935,130.19,75,140.4,37.063,130.19,28.309,35.351H121.69Z" fill="#2062af"/><path d="M75,43.033v89.225l.086.023,30.7-8.267,7.086-80.982H75Z" fill="#3c9cd7"/><path d="M53.469,21.417V15.772h8.236V9.6H47.293V27.053H61.705V21.417ZM76.52,15.772h5.758V9.6H67.864v6.177c1.928,1.928,2.934,2.851,5.723,5.64-1.63,0-5.723.006-5.723.006v5.635H82.278V21.417L76.52,15.772Zm20.429,0h5.758V9.6H88.293v6.177c1.928,1.928,2.935,2.851,5.724,5.64-1.63,0-5.724.006-5.724.006v5.635h14.415V21.417l-5.758-5.645Z"/><path d="M74.965,66.746,47.814,78.054l.9,11.2L74.965,78.026,102.89,66.087l1.158-11.453L74.965,66.746Z" fill="#fff"/><path d="M47.813,78.054l.9,11.2L74.965,78.026V66.746Z" fill="url(#b)"/><path d="M104.048,54.634,74.965,66.746v11.28L102.89,66.087Z" fill="url(#c)"/><path d="M47.855,78.054l.9,11.2,40.279.128-.9,14.927L74.88,108.037,62.139,104.82l-.772-9.265H49.528l1.544,17.887,23.936,7.077,23.807-6.949L101.9,78.054Z" fill="url(#d)"/><path d="M74.965,78.054H47.814l.9,11.2,26.251.084V78.054Zm0,29.947-.129.036L62.1,104.82l-.772-9.265H49.487l1.544,17.887,23.935,7.077Z" opacity="0.05"/><path d="M45.368,54.634h58.679L102.89,66.087H46.784L45.368,54.634Z" fill="url(#e)"/><path d="M74.965,54.634h-29.6l1.415,11.453H74.965V54.634Z" opacity="0.05"/></g></g></svg>