<svg xmlns="http://www.w3.org/2000/svg" width="183" height="183" viewBox="0 0 183 183"><g transform="translate(-248 -1383)"><circle cx="91.5" cy="91.5" r="91.5" transform="translate(248 1383)" fill="#fff" opacity="0.2"/><g transform="translate(180.978 1389.096)"><path d="M177.449,35H140.6A10.608,10.608,0,0,0,130,45.6v80.617a10.608,10.608,0,0,0,10.6,10.6h36.853a10.608,10.608,0,0,0,10.6-10.6V45.6A10.608,10.608,0,0,0,177.449,35Zm0,99.043H140.6a7.84,7.84,0,0,1-7.831-7.831v-5.989H185.28v5.989a7.84,7.84,0,0,1-7.831,7.831ZM185.28,48.82h-3.225a1.382,1.382,0,1,0,0,2.764h3.225v65.875H132.764V51.584h37.544a1.382,1.382,0,0,0,0-2.764H132.764V45.6a7.84,7.84,0,0,1,7.831-7.831h36.853A7.84,7.84,0,0,1,185.28,45.6Z" transform="translate(0 0)" fill="#fff"/><path d="M320.076,97.764h2.561a1.382,1.382,0,0,0,0-2.764h-2.561a1.382,1.382,0,0,0,0,2.764Z" transform="translate(-145.232 -46.18)" fill="#fff"/><path d="M239.837,414a4.837,4.837,0,1,0,4.837,4.837A4.837,4.837,0,0,0,239.837,414Zm0,6.91a2.073,2.073,0,1,1,2.073-2.073,2.073,2.073,0,0,1-2.073,2.073Z" transform="translate(-80.815 -291.704)" fill="#fff"/><path d="M247.6,223.382a1.382,1.382,0,0,0,1.382,1.382h7.739a1.382,1.382,0,0,0,0-2.764h-7.739A1.382,1.382,0,0,0,247.6,223.382Z" transform="translate(-90.513 -143.928)" fill="#fff"/><path d="M322.357,222h-4.975a1.382,1.382,0,0,0,0,2.764h4.975a1.382,1.382,0,0,0,0-2.764Z" transform="translate(-143.158 -143.928)" fill="#fff"/><path d="M167.1,278h-3.317a1.382,1.382,0,1,0,0,2.764H167.1a1.382,1.382,0,1,0,0-2.764Z" transform="translate(-24.937 -187.029)" fill="#fff"/><path d="M213.521,278h-7.739a1.382,1.382,0,1,0,0,2.764h7.739a1.382,1.382,0,1,0,0-2.764Z" transform="translate(-57.263 -187.029)" fill="#fff"/><path d="M289.108,278H274.182a1.382,1.382,0,1,0,0,2.764h14.926a1.382,1.382,0,1,0,0-2.764Z" transform="translate(-109.908 -187.029)" fill="#fff"/><path d="M167.1,334h-3.317a1.382,1.382,0,0,0,0,2.764H167.1a1.382,1.382,0,0,0,0-2.764Z" transform="translate(-24.937 -230.13)" fill="#fff"/><path d="M224.577,334h-18.8a1.382,1.382,0,1,0,0,2.764h18.8a1.382,1.382,0,1,0,0-2.764Z" transform="translate(-57.263 -230.13)" fill="#fff"/><path d="M326.052,334h-3.87a1.382,1.382,0,0,0,0,2.764h3.87a1.382,1.382,0,0,0,0-2.764Z" transform="translate(-146.852 -230.13)" fill="#fff"/><path d="M203,136.384a1.382,1.382,0,1,0-2.622-.875l-6.91,20.73a1.382,1.382,0,1,0,2.622.875Z" transform="translate(-48.795 -76.631)" fill="#fff"/><path d="M159.389,166.547a1.382,1.382,0,0,0,.977-2.359l-3.629-3.629,3.629-3.63a1.382,1.382,0,1,0-1.954-1.954l-4.607,4.607a1.382,1.382,0,0,0,0,1.954l4.607,4.607A1.377,1.377,0,0,0,159.389,166.547Z" transform="translate(-18.011 -92.029)" fill="#fff"/><path d="M243.805,166.142a1.382,1.382,0,0,0,1.954,0l4.607-4.607a1.382,1.382,0,0,0,0-1.954l-4.607-4.607a1.382,1.382,0,1,0-1.954,1.954l3.629,3.63-3.629,3.629A1.382,1.382,0,0,0,243.805,166.142Z" transform="translate(-87.281 -92.029)" fill="#fff"/></g></g></svg>