<svg xmlns="http://www.w3.org/2000/svg" width="183" height="183" viewBox="0 0 183 183"><g transform="translate(-248 -1383)"><circle cx="91.5" cy="91.5" r="91.5" transform="translate(248 1383)" fill="#fff" opacity="0.2"/><path d="M339.807,1511.14a2.675,2.675,0,1,0,2.675,2.675,2.675,2.675,0,0,0-2.675-2.675Zm0,2.833a.158.158,0,1,1,.158-.158.158.158,0,0,1-.158.158Zm0,0" fill="#fff"/><path d="M363.772,1428.75H360.88a1.458,1.458,0,0,0,0,2.917h2.887a6.4,6.4,0,0,1,6.4,6.4v3.156H313.853v-3.156a6.4,6.4,0,0,1,6.4-6.4H355.1a1.458,1.458,0,0,0,0-2.917H320.25a9.325,9.325,0,0,0-9.314,9.314V1519a9.325,9.325,0,0,0,9.314,9.314h43.522a9.325,9.325,0,0,0,9.314-9.314v-80.932a9.325,9.325,0,0,0-9.314-9.314Zm0,96.643H320.25a6.4,6.4,0,0,1-6.4-6.4v-74.859h56.316V1512.4H318.255a1.458,1.458,0,1,0,0,2.917h51.914V1519a6.4,6.4,0,0,1-6.4,6.4Zm0,0" transform="translate(-2.205 -3.532)" fill="#fff"/><path d="M330.47,1481.12a1.355,1.355,0,1,0,1.916-1.916l-5.822-5.823,5.822-5.822a1.355,1.355,0,1,0-1.916-1.916l-6.78,6.78a1.354,1.354,0,0,0,0,1.916Zm16.756,0a1.355,1.355,0,0,0,1.916,0l6.78-6.78a1.354,1.354,0,0,0,0-1.916l-6.78-6.78a1.355,1.355,0,1,0-1.916,1.916l5.823,5.822-5.823,5.823a1.354,1.354,0,0,0,0,1.916Zm-10.393,5.794a1.369,1.369,0,0,0,.263.025,1.355,1.355,0,0,0,1.328-1.094l4.794-24.408a1.355,1.355,0,1,0-2.659-.522l-4.794,24.408a1.354,1.354,0,0,0,1.068,1.591Zm0,0" fill="#fff"/></g></svg>