<svg xmlns="http://www.w3.org/2000/svg" width="183" height="183" viewBox="0 0 183 183"><g transform="translate(-248 -1383)"><circle cx="91.5" cy="91.5" r="91.5" transform="translate(248 1383)" fill="#fff" opacity="0.2"/><g transform="translate(285.574 1426.906)"><path d="M128.177,203.958a1.757,1.757,0,0,1-1.142-.421l-11.415-9.72a1.765,1.765,0,0,1,0-2.686l11.415-9.72a1.764,1.764,0,1,1,2.287,2.685l-9.837,8.377,9.837,8.377a1.764,1.764,0,0,1-1.145,3.108Zm0,0" transform="translate(-86.019 -135.378)" fill="#fff"/><path d="M251.472,203.958a1.765,1.765,0,0,1-1.145-3.108l9.837-8.377-9.837-8.377a1.764,1.764,0,0,1,2.287-2.685l11.415,9.72a1.765,1.765,0,0,1,0,2.686l-11.415,9.72a1.757,1.757,0,0,1-1.142.421Zm0,0" transform="translate(-186.779 -135.378)" fill="#fff"/><path d="M190.721,190.332a1.8,1.8,0,0,1-.366-.038,1.765,1.765,0,0,1-1.362-2.09l7.114-33.778a1.764,1.764,0,1,1,3.452.727l-7.114,33.778A1.764,1.764,0,0,1,190.721,190.332Zm0,0" transform="translate(-141.336 -114.461)" fill="#fff"/><path d="M95.007,94.273H11.844A11.858,11.858,0,0,1,0,82.428V11.844A11.858,11.858,0,0,1,11.844,0H95.007a11.858,11.858,0,0,1,11.844,11.844V82.428A11.858,11.858,0,0,1,95.007,94.273ZM11.844,3.528a8.326,8.326,0,0,0-8.316,8.316V82.428a8.326,8.326,0,0,0,8.316,8.316H95.007a8.326,8.326,0,0,0,8.316-8.316V11.844a8.326,8.326,0,0,0-8.316-8.316Zm0,0" fill="#fff"/><path d="M105.088,101.618H1.764a1.764,1.764,0,0,1,0-3.528H105.088a1.764,1.764,0,0,1,0,3.528Zm0,0" transform="translate(0 -73.37)" fill="#fff"/><path d="M103.032,45.454a5.583,5.583,0,1,1,5.583-5.583A5.59,5.59,0,0,1,103.032,45.454Zm0-7.637a2.054,2.054,0,1,0,2.054,2.054A2.057,2.057,0,0,0,103.032,37.817Zm0,0" transform="translate(-72.892 -25.648)" fill="#fff"/><path d="M34.969,45.239a5.583,5.583,0,1,1,5.583-5.583A5.589,5.589,0,0,1,34.969,45.239Zm0-7.637a2.054,2.054,0,1,0,2.054,2.054A2.058,2.058,0,0,0,34.969,37.6Zm0,0" transform="translate(-21.981 -25.487)" fill="#fff"/><path d="M171.1,45.668a5.582,5.582,0,1,1,5.583-5.583A5.589,5.589,0,0,1,171.1,45.668Zm0-7.637a2.054,2.054,0,1,0,2.054,2.054A2.056,2.056,0,0,0,171.1,38.031Zm0,0" transform="translate(-123.804 -25.809)" fill="#fff"/></g></g></svg>