<svg xmlns="http://www.w3.org/2000/svg" xmlns:xlink="http://www.w3.org/1999/xlink" width="150" height="150" viewBox="0 0 150 150"><defs><clipPath id="a"><rect width="150" height="150" transform="translate(303.5 1501)" fill="#fff" stroke="#707070" stroke-width="1"/></clipPath></defs><g transform="translate(-303.5 -1501)" clip-path="url(#a)"><g transform="translate(312.809 1520.887)"><path d="M19.856,89.4V80.994A1.836,1.836,0,0,1,21.691,79h.317a1.834,1.834,0,0,1,1.831,1.992V98.7a11.155,11.155,0,0,1-5.849,9.939,10.983,10.983,0,0,1-5.624,1.534h-.79a11.162,11.162,0,0,1-9.939-5.848A10.952,10.952,0,0,1,.1,98.7v-.789A11.167,11.167,0,0,1,5.95,87.964a10.944,10.944,0,0,1,5.626-1.534h.79A11.113,11.113,0,0,1,19.856,89.4ZM4.085,98.3a7.563,7.563,0,0,0,4.243,6.958,7.365,7.365,0,0,0,3.565.929,7.673,7.673,0,0,0,6.9-4.037,7.47,7.47,0,0,0,1.067-3.93A7.6,7.6,0,0,0,16.4,91.84a7.43,7.43,0,0,0-4.428-1.426,7.571,7.571,0,0,0-7.177,4.679A7.313,7.313,0,0,0,4.085,98.3ZM37.651,86.43H38.2a11.291,11.291,0,0,1,10.345,6.265,10.7,10.7,0,0,1,1.365,5.211V98.7a11.142,11.142,0,0,1-5.85,9.939,11.009,11.009,0,0,1-5.623,1.533h-.789a11.161,11.161,0,0,1-9.939-5.848A10.953,10.953,0,0,1,26.178,98.7v-.789a11.194,11.194,0,0,1,5.846-9.942,10.9,10.9,0,0,1,5.628-1.535ZM30.16,98.3a7.666,7.666,0,0,0,4.041,6.819,7.38,7.38,0,0,0,3.925,1.068,7.615,7.615,0,0,0,6.74-4.04,7.4,7.4,0,0,0,1.066-3.927A7.58,7.58,0,0,0,42.258,91.7a7.4,7.4,0,0,0-4.213-1.283,7.57,7.57,0,0,0-7.177,4.679A7.3,7.3,0,0,0,30.16,98.3Zm36.307-7.568a7.453,7.453,0,0,0-2.376-.4c-3.327-.125-5.734,1.748-7.146,4.683a7.281,7.281,0,0,0-.71,3.2c0,3.41,1.791,5.8,4.835,7.254a9.071,9.071,0,0,0,3.763.632A9.865,9.865,0,0,0,68.36,105l.164-.078h.736l.081.016a1.766,1.766,0,0,1,1.589,1.737v.394c0,2.424-4.43,2.979-6.121,3.1-5.966.413-10.428-2.864-12.128-8.554a10.311,10.311,0,0,1-.429-3v-.788A11.187,11.187,0,0,1,58.1,87.888a10.9,10.9,0,0,1,5.627-1.536h.789a10.138,10.138,0,0,1,5.829,1.8l.144.1.091.15a2.1,2.1,0,0,1,.352,1.049v.394a1.8,1.8,0,0,1-1.678,1.74l-.076.013h-.235a8.972,8.972,0,0,1-2.475-.865Zm12.915,2.7c1.547-1.549,3.1-3.094,4.668-4.617.437-.425,2.093-2.223,2.746-2.223h.713l.081.017a1.765,1.765,0,0,1,1.589,1.74v.394c0,.666-.78,1.44-1.21,1.9-.915.97-1.878,1.907-2.814,2.857l-4.811,4.884q3.107,3.114,6.195,6.245.855.866,1.7,1.745a4.364,4.364,0,0,1,.656.755,1.631,1.631,0,0,1,.288.9v.411l-.023.1a1.881,1.881,0,0,1-1.807,1.641h-.317c-.659,0-1.4-.745-1.854-1.171-.93-.877-1.828-1.8-2.739-2.694l-3.057-3v4.8a1.837,1.837,0,0,1-1.834,1.993h-.313A1.836,1.836,0,0,1,75.4,108.1V81.072a1.833,1.833,0,0,1,1.834-1.989h.313a1.833,1.833,0,0,1,1.834,1.989V93.429Zm49.626-6.841h.4a1.886,1.886,0,0,1,1.991,1.992c0,1.648-1.576,2.07-2.939,2.07a7.151,7.151,0,0,0-4.728,2.3,7.58,7.58,0,0,0-2.21,5.59v9.639a1.835,1.835,0,0,1-1.834,1.992h-.314a1.834,1.834,0,0,1-1.834-1.992V97.983a11.188,11.188,0,0,1,5.082-9.35,10.95,10.95,0,0,1,6.391-2.045Zm-28.3,19.1a9.316,9.316,0,0,0,4.588.175c.76-.323,2.7-1.172,3.42-1.047l.112.019.1.05a2.245,2.245,0,0,1,1.077.956,1.907,1.907,0,0,1-.753,2.68l-.341.2c-3.777,2.18-7.794,1.878-11.559-.158a10.718,10.718,0,0,1-4.193-4.179l-.237-.412a11.259,11.259,0,0,1,.637-12.609,10.9,10.9,0,0,1,3.62-3.28l.546-.315a11.225,11.225,0,0,1,11.022-.11A10.782,10.782,0,0,1,113.4,91.97l.2.342c.8,1.38-.235,2.583-1.3,3.4-1.236.954-2.484,2.1-3.669,3.124q-3.963,3.421-7.921,6.85Zm-3.42-2.4q4.432-3.8,8.857-7.613c1.007-.868,2.111-1.77,3.11-2.683a7.868,7.868,0,0,0-3.278-2.173,7.853,7.853,0,0,0-10.5,7.916,6.989,6.989,0,0,0,1.034,3.5A9.208,9.208,0,0,0,97.288,103.289ZM75.8,23.5H87.55V35.511H93.49a25.765,25.765,0,0,0,8.164-1.369,20.906,20.906,0,0,0,3.969-1.793,14.727,14.727,0,0,1-2.754-7.595c-.339-3.666.4-8.438,2.882-11.307l1.235-1.429,1.472,1.183c3.705,2.977,6.822,7.137,7.371,11.879a17.959,17.959,0,0,1,13.633,1.268l1.613.931-.849,1.658c-3.326,6.491-10.28,8.5-17.078,8.146-10.173,25.338-32.32,37.333-59.174,37.333-13.874,0-26.6-5.186-33.851-17.5l-.119-.2-1.056-2.149a34.079,34.079,0,0,1-2.712-17.284l.166-1.776H26.451V23.5H38.2V11.75H61.7V0H75.8V23.5" transform="translate(-0.013)" fill="#364548" fill-rule="evenodd"/><path d="M116.408,30.03c.788-6.123-3.794-10.932-6.636-13.216C106.5,20.6,105.988,30.523,111.126,34.7c-2.867,2.547-8.909,4.855-15.095,4.855h-75.3A31.733,31.733,0,0,0,23.85,57.05l.857,1.567a29.054,29.054,0,0,0,1.775,2.664q4.644.3,8.562.21h0a41.976,41.976,0,0,0,12.493-1.819.9.9,0,0,1,.592,1.709c-.422.147-.862.284-1.316.414h0A39.283,39.283,0,0,1,38.176,63.2c.206,0-.214.031-.215.031-.118.008-.266.025-.384.031-1.361.077-2.829.092-4.331.092-1.642,0-3.259-.031-5.068-.123l-.046.031c6.274,7.052,16.085,11.282,28.382,11.282,26.026,0,48.1-11.537,57.876-37.438,6.935.712,13.6-1.057,16.632-6.976-4.829-2.787-11.04-1.9-14.616-.1" transform="translate(-2.553 -2.087)" fill="#22a0c8" fill-rule="evenodd"/><path d="M117.059,30.03c.788-6.123-3.794-10.932-6.636-13.216-3.275,3.786-3.784,13.709,1.354,17.886-2.867,2.547-8.909,4.855-15.095,4.855H25.839c-.307,9.89,3.363,17.4,9.856,21.935h0a41.976,41.976,0,0,0,12.493-1.819.9.9,0,0,1,.592,1.709c-.422.147-.862.284-1.316.414h0A41.3,41.3,0,0,1,38.6,63.263l-.085-.08c8.857,4.543,21.7,4.527,36.424-1.129,16.51-6.343,31.874-18.427,42.593-32.248q-.242.109-.471.224" transform="translate(-3.205 -2.087)" fill="#37b1d9" fill-rule="evenodd"/><path d="M20.912,51.736a30.1,30.1,0,0,0,2.98,9.648l.857,1.567a29,29,0,0,0,1.775,2.664q4.645.3,8.563.21A41.976,41.976,0,0,0,47.58,64.006a.9.9,0,0,1,.592,1.709c-.422.147-.862.284-1.316.414h0A41.315,41.315,0,0,1,38,67.567c-.119.007-.326.009-.446.015-1.36.076-2.813.123-4.315.123-1.642,0-3.321-.031-5.128-.123,6.274,7.052,16.145,11.3,28.443,11.3,22.281,0,41.665-8.457,52.916-27.143H20.912" transform="translate(-2.596 -6.422)" fill="#1b81a5" fill-rule="evenodd"/><path d="M26.615,51.736a22.613,22.613,0,0,0,9.179,14.089,41.976,41.976,0,0,0,12.493-1.819.9.9,0,0,1,.592,1.709c-.422.147-.862.284-1.316.414h0a41.934,41.934,0,0,1-8.912,1.438c8.857,4.542,21.662,4.477,36.386-1.178a96.164,96.164,0,0,0,25.171-14.653H26.615" transform="translate(-3.304 -6.422)" fill="#1d91b4" fill-rule="evenodd"/><path d="M32.419,27.4H42.6V37.584H32.419Zm.848.849h.8v8.486h-.8Zm1.511,0h.836v8.486h-.836V28.249Zm1.543,0h.836v8.486h-.836Zm1.544,0H38.7v8.486h-.836Zm1.543,0h.836v8.486h-.836Zm1.543,0h.8v8.486h-.8Zm3.219-12.6H54.353V25.834H44.169V15.651Zm.849.849h.8v8.486h-.8Zm1.511,0h.836v8.486h-.835V16.5Zm1.543,0h.836v8.486h-.836Zm1.543,0h.836v8.486h-.836Zm1.543,0h.836v8.486h-.836Zm1.543,0h.8v8.486h-.8Z" transform="translate(-4.024 -1.943)" fill="#23a3c2" fill-rule="evenodd"/><path d="M45.834,29.065H56.018V39.249H45.834V29.065Zm.849.849h.8V38.4h-.8Zm1.511,0h.836V38.4h-.835V29.914Zm1.543,0h.836V38.4h-.836Zm1.543,0h.836V38.4h-.836Zm1.543,0h.836V38.4h-.836Zm1.543,0h.8V38.4h-.8Z" transform="translate(-5.689 -3.608)" fill="#34bbde" fill-rule="evenodd"/><path d="M59.25,29.065H69.433V39.249H59.25Zm.848.849h.8V38.4h-.8Zm1.511,0h.836V38.4h-.836Zm1.543,0h.836V38.4h-.836Zm1.543,0h.836V38.4h-.836Zm1.543,0h.837V38.4h-.837Zm1.543,0h.8V38.4h-.8Z" transform="translate(-7.354 -3.608)" fill="#23a3c2" fill-rule="evenodd"/><path d="M59.25,15.651H69.433V25.834H59.25Zm.848.849h.8v8.486h-.8Zm1.511,0h.836v8.486h-.836Zm1.543,0h.836v8.486h-.836Zm1.543,0h.836v8.486h-.836Zm1.543,0h.837v8.486h-.837Zm1.543,0h.8v8.486h-.8ZM71,27.4H81.183V37.584H71Zm.849.849h.8v8.486h-.8Zm1.511,0h.836v8.486h-.836Zm1.543,0h.836v8.486H74.9Zm1.543,0h.836v8.486h-.836Zm1.543,0h.836v8.486h-.836Zm1.543,0h.8v8.486h-.8Z" transform="translate(-7.354 -1.943)" fill="#34bbde" fill-rule="evenodd"/><path d="M72.664,15.651H82.848V25.834H72.664Zm.849.849h.8v8.486h-.8Zm1.511,0h.836v8.486h-.836Zm1.543,0H77.4v8.486h-.836Zm1.543,0h.836v8.486H78.11Zm1.543,0h.836v8.486h-.836Zm1.543,0H82v8.486h-.8Z" transform="translate(-9.019 -1.943)" fill="#23a3c2" fill-rule="evenodd"/><path d="M72.664,2.235H82.848V12.42H72.664Zm.849.848h.8V11.57h-.8V3.083Zm1.511,0h.836V11.57h-.836V3.083Zm1.543,0H77.4V11.57h-.836V3.083Zm1.543,0h.836V11.57H78.11V3.083Zm1.543,0h.836V11.57h-.836V3.083Zm1.543,0H82V11.57h-.8V3.083Z" transform="translate(-9.019 -0.277)" fill="#34bbde" fill-rule="evenodd"/><path d="M86.079,29.065H96.263V39.249H86.079Zm.848.849h.8V38.4h-.8V29.914Zm1.511,0h.836V38.4h-.836V29.914Zm1.544,0h.836V38.4h-.836Zm1.543,0h.836V38.4h-.836Zm1.544,0H93.9V38.4h-.836Zm1.543,0h.8V38.4h-.8Z" transform="translate(-10.684 -3.608)" fill="#23a3c2" fill-rule="evenodd"/><path d="M56.335,59.542a2.81,2.81,0,1,1-2.81,2.81,2.809,2.809,0,0,1,2.81-2.81" transform="translate(-6.644 -7.39)" fill="#d3ecec" fill-rule="evenodd"/><path d="M49.692,58.745a2,2,0,0,1,.728.136.821.821,0,1,0,1.13,1.1,2.012,2.012,0,1,1-1.859-1.24M0,52.126H130.687c-2.845-.721-9-1.7-7.987-5.426-5.174,5.987-17.652,4.2-20.8,1.249-3.507,5.086-23.922,3.152-25.346-.81-4.4,5.16-18.019,5.16-22.416,0-1.425,3.962-21.84,5.9-25.347.809C25.64,50.9,13.163,52.688,7.988,46.7,9,50.43,2.846,51.405,0,52.127" transform="translate(0 -5.796)" fill="#364548" fill-rule="evenodd"/><path d="M60.73,80.858c-6.958-3.3-10.776-7.79-12.9-12.689a43.1,43.1,0,0,1-9.3,1.412q-2.039.114-4.291.115-2.6,0-5.469-.153C35.15,75.92,43,80.829,57.533,80.919q1.609,0,3.2-.061" transform="translate(-3.571 -8.461)" fill="#bdd9d7" fill-rule="evenodd"/><path d="M51.8,72.69a24.389,24.389,0,0,1-2.583-4.522,43.071,43.071,0,0,1-9.3,1.413c2.48,1.346,6.026,2.593,11.885,3.109" transform="translate(-4.954 -8.461)" fill="#d3ecec" fill-rule="evenodd"/></g></g></svg>