<svg xmlns="http://www.w3.org/2000/svg" width="183" height="183" viewBox="0 0 183 183"><g transform="translate(-248 -1383)"><circle cx="91.5" cy="91.5" r="91.5" transform="translate(248 1383)" fill="#fff" opacity="0.2"/><g transform="translate(294.086 1421.219)"><path d="M86.606,21.479h-.122a14.813,14.813,0,0,0,.78-4.742c0-.014,0-.029,0-.043,0-.031,0-.061,0-.092s0-.035-.006-.053a1.538,1.538,0,0,0-.238-.677L77.635,1.456A3.19,3.19,0,0,0,74.951,0H16.284A3.19,3.19,0,0,0,13.6,1.456L4.224,15.873a1.538,1.538,0,0,0-.238.676c0,.018-.005.036-.006.055s0,.059,0,.09c0,.014,0,.029,0,.043a14.813,14.813,0,0,0,.78,4.742H4.737A6.473,6.473,0,0,0-1.73,27.944V37.965c-.026-.021-.072,25.3-.094,38.021a1.56,1.56,0,0,0-.012.184V78.9l.008-.006c-.005,2.6-.008,4.206-.008,4.206A6.475,6.475,0,0,0,4.63,89.564H30.618v4.979H26.356a5.39,5.39,0,0,0-5.384,5.383v3.124a2.515,2.515,0,0,0,2.513,2.513H67.642a2.515,2.515,0,0,0,2.512-2.513V99.926a5.389,5.389,0,0,0-5.383-5.383H60.509V89.564H86.5A6.474,6.474,0,0,0,92.962,83.1l.11-55.154a6.472,6.472,0,0,0-6.466-6.465ZM16.2,3.145a.107.107,0,0,1,.087-.048H74.951a.1.1,0,0,1,.087.048l7.821,12.023H8.378Zm41.1,15.14a11.777,11.777,0,0,1-23.349,0Zm-26.771,0a11.777,11.777,0,0,1-23.349,0ZM1.368,27.944a3.372,3.372,0,0,1,3.368-3.367H6.215A14.967,14.967,0,0,0,7.7,26.571V38.252H1.368ZM1.262,41.35H7.7V74.62H1.262ZM67.056,99.926v2.539H24.069V99.926a2.288,2.288,0,0,1,2.285-2.285H64.77a2.288,2.288,0,0,1,2.287,2.285ZM57.41,94.542H33.715V89.564h23.7v4.978ZM89.864,80.25V83.1A3.372,3.372,0,0,1,86.5,86.466H4.63A3.372,3.372,0,0,1,1.262,83.1V77.718h88.6Zm0-5.631H83.533V58.841a1.549,1.549,0,1,0-3.1,0V74.6H10.8V29.238a14.857,14.857,0,0,0,21.432-6.022A14.869,14.869,0,0,0,59,23.225,14.927,14.927,0,0,0,60.675,25.9a1.549,1.549,0,1,0,2.439-1.91,11.632,11.632,0,0,1-2.4-5.707h23.35a11.789,11.789,0,0,1-15.739,9.507A1.549,1.549,0,1,0,67.256,30.7a14.869,14.869,0,0,0,13.179-1.463v22.3a1.549,1.549,0,0,0,3.1,0V41.35h6.331V74.62Zm.11-36.367h-6.44V26.571a15.061,15.061,0,0,0,1.488-1.994h1.585a3.372,3.372,0,0,1,3.368,3.367Zm0,0" transform="translate(0 0)" fill="#fff"/><path d="M193.579,228.513a2.6,2.6,0,0,0,2.486-2.28l1.495-12.758a2.582,2.582,0,0,0-2.4-2.877l-28.987-1.829-5.09-4.363a1.549,1.549,0,1,0-2.015,2.352l5.154,4.418,2.688,16.111a10.182,10.182,0,0,0-2.03,6.462,1.548,1.548,0,0,0,1.547,1.481h2.782c-.012.128-.018.256-.018.385a4.526,4.526,0,0,0,9.052,0c0-.128-.006-.256-.016-.385h5.241c-.012.128-.017.256-.017.385a4.525,4.525,0,1,0,9.05,0c0-.128-.006-.256-.016-.385h2.8a1.549,1.549,0,1,0,0-3.1H168.077a7.34,7.34,0,0,1,1.232-2.882Zm-4.221,6.717a1.863,1.863,0,0,1,.043.385,1.427,1.427,0,1,1-2.8-.385Zm-14.258,0a1.779,1.779,0,0,1,.043.385,1.427,1.427,0,1,1-2.8-.385Zm19.319-21.575L193.04,225.43l-23.185.706-2.365-14.179Zm0,0" transform="translate(-133.911 -170.38)" fill="#fff"/></g></g></svg>