<svg xmlns="http://www.w3.org/2000/svg" width="183" height="183" viewBox="0 0 183 183"><g transform="translate(-248 -1383)"><circle cx="91.5" cy="91.5" r="91.5" transform="translate(248 1383)" fill="#fff" opacity="0.2"/><g transform="translate(290.452 1426.002)"><path d="M449.04,454.191H449a1.463,1.463,0,0,0,0,2.925h.039a1.463,1.463,0,1,0,0-2.925Zm0,0" transform="translate(-360.919 -366.284)" fill="#fff"/><path d="M412.73,454.191h-.044a1.463,1.463,0,1,0,0,2.925h.044a1.463,1.463,0,0,0,0-2.925Zm0,0" transform="translate(-331.632 -366.284)" fill="#fff"/><path d="M376.438,454.387H376.4a1.463,1.463,0,0,0,0,2.926h.039a1.463,1.463,0,0,0,0-2.926Zm0,0" transform="translate(-302.369 -366.442)" fill="#fff"/><path d="M213.594,77.93h-.006c-4.572,0-8.481,1.971-10.2,5.144a1.463,1.463,0,1,0,2.572,1.394c1.19-2.195,4.185-3.613,7.63-3.613h0c3.443,0,6.434,1.419,7.621,3.612a1.463,1.463,0,1,0,2.573-1.393C222.07,79.9,218.165,77.931,213.594,77.93Zm0,0" transform="translate(-163.879 -62.847)" fill="#fff"/><path d="M200.211,46.624a1.463,1.463,0,0,0,2.572-1.394c-2.809-5.18-9.258-8.4-16.833-8.4s-14.024,3.218-16.832,8.4a1.463,1.463,0,1,0,2.572,1.394c2.3-4.235,7.76-6.866,14.26-6.866s11.965,2.631,14.261,6.866Zm0,0" transform="translate(-136.243 -29.703)" fill="#fff"/><path d="M133.39,13.832a1.462,1.462,0,0,0,1.983-.589c3.451-6.364,11.609-10.318,21.292-10.318s17.841,3.953,21.292,10.318a1.463,1.463,0,1,0,2.572-1.394C176.566,4.54,167.423,0,156.666,0s-19.9,4.54-23.865,11.849a1.463,1.463,0,0,0,.589,1.983Zm0,0" transform="translate(-106.955)" fill="#fff"/><path d="M94.748,195.517h-.175V145.373a5.542,5.542,0,0,0-5.535-5.536H10.058a5.542,5.542,0,0,0-5.535,5.536v50.144H4.348A4.353,4.353,0,0,0,0,199.865v4.552a4.356,4.356,0,0,0,4.348,4.354h90.4a4.356,4.356,0,0,0,4.348-4.354v-4.552a4.353,4.353,0,0,0-4.348-4.349Zm-87.3-50.144a2.614,2.614,0,0,1,2.61-2.611H89.038a2.614,2.614,0,0,1,2.61,2.611v50.144H7.448Zm52.491,53.069v1.539a.684.684,0,0,1-.675.676H39.832a.682.682,0,0,1-.67-.676v-1.539Zm36.232,5.976a1.427,1.427,0,0,1-1.423,1.429H4.348a1.427,1.427,0,0,1-1.423-1.429v-4.552a1.425,1.425,0,0,1,1.423-1.424H36.237v1.539a3.6,3.6,0,0,0,3.595,3.6H59.264a3.6,3.6,0,0,0,3.6-3.6v-1.539H94.748a1.425,1.425,0,0,1,1.423,1.424Zm0,0" transform="translate(0 -112.772)" fill="#fff"/><path d="M134.841,219.188V180.3a2.521,2.521,0,0,0-2.518-2.518H99.8a1.463,1.463,0,1,0,0,2.925h32.114V218.77H61.246V180.71H92.97a1.463,1.463,0,1,0,0-2.925H60.838A2.521,2.521,0,0,0,58.32,180.3v38.885a2.515,2.515,0,0,0,2.518,2.507h71.485A2.515,2.515,0,0,0,134.841,219.188Zm0,0" transform="translate(-47.033 -143.376)" fill="#fff"/><path d="M155.914,236.618a1.462,1.462,0,0,0,1.462-1.462V229.3a3.164,3.164,0,0,0,1.414-2.745,3.273,3.273,0,0,0-2.729-3.3l-21.435-5.005a16.364,16.364,0,0,0-4.031-.694,16.355,16.355,0,0,0-4.03.694l-21.434,5.005a3.363,3.363,0,0,0,0,6.606l5.131,1.2V240.1a5.184,5.184,0,0,0,4.952,5.18c.75.034,1.525.045,2.306.045s1.567-.011,2.341-.023,1.5-.021,2.214-.021h5.717a1.463,1.463,0,0,0,0-2.925h-5.717c-.737,0-1.509.011-2.256.022-1.5.021-3.06.044-4.469-.02a2.289,2.289,0,0,1-2.162-2.258v-8.356l13.372,3.122a16.855,16.855,0,0,0,4.037.695,16.77,16.77,0,0,0,4.021-.691l13.389-3.126V240.1a2.263,2.263,0,0,1-2.264,2.256H134.5a1.463,1.463,0,0,0,0,2.925h11.242a5.191,5.191,0,0,0,5.189-5.182v-9.038l3.521-.823v4.92a1.462,1.462,0,0,0,1.463,1.462Zm-6.7-8.161a1.452,1.452,0,0,0-.163.038l-15.113,3.529a14.8,14.8,0,0,1-3.338.611,14.919,14.919,0,0,1-3.355-.615l-15.1-3.525a1.416,1.416,0,0,0-.16-.038l-6.189-1.445c-.485-.113-.473-.29-.468-.357a1.624,1.624,0,0,0,0-.2c0-.059-.017-.237.469-.351l21.445-5.007.021-.005a14.586,14.586,0,0,1,3.334-.609,14.58,14.58,0,0,1,3.334.609l.02.005L155.4,226.1c.485.113.473.292.469.35a1.372,1.372,0,0,0,0,.2c0,.062.014.218-.373.331l-.021.006-.076.02Zm0,0" transform="translate(-82.581 -175.448)" fill="#fff"/></g></g></svg>