<svg xmlns="http://www.w3.org/2000/svg" width="183" height="183" viewBox="0 0 183 183"><g transform="translate(-248 -1383)"><circle cx="91.5" cy="91.5" r="91.5" transform="translate(248 1383)" fill="#fff" opacity="0.2"/><g transform="translate(293.693 1420.085)"><path d="M90.035,68.974a1.579,1.579,0,0,0,1.58-1.58V59.918a5.76,5.76,0,0,0-2.193-4.537l-.011-.007-.055-.04a5.8,5.8,0,0,0-3.533-1.207H80.558V1.58A1.579,1.579,0,0,0,78.978,0H12.636a1.579,1.579,0,0,0-1.58,1.58V6.67a1.58,1.58,0,1,0,3.159,0V3.159H77.4V61.108L45.807,79.16l-8-4.568a1.579,1.579,0,1,0-1.566,2.742l47.842,27.339H5.792a2.636,2.636,0,0,1-2.633-2.633V59.918A2.612,2.612,0,0,1,3.5,58.624L30.393,73.99a1.58,1.58,0,1,0,1.568-2.743L14.216,61.108V13.479a1.58,1.58,0,1,0-3.159,0V54.126H5.792a5.8,5.8,0,0,0-3.534,1.208c-.018.013-.036.026-.053.039l-.009.006A5.762,5.762,0,0,0,0,59.918V102.04a5.794,5.794,0,0,0,5.792,5.792H85.823a5.8,5.8,0,0,0,3.544-1.215l.038-.028.015-.011a5.76,5.76,0,0,0,2.195-4.538V74.081a1.58,1.58,0,0,0-3.159,0V102.04a2.612,2.612,0,0,1-.344,1.294L48.991,80.979l39.12-22.355a2.612,2.612,0,0,1,.344,1.294v7.477a1.579,1.579,0,0,0,1.58,1.58ZM11.057,59.3,7.528,57.285h3.529Zm69.5-2.016h3.529L80.558,59.3Zm0,0" transform="translate(0 0)" fill="#fff"/><path d="M160.647,72.829a1.579,1.579,0,0,0,1.58-1.58V40.08a1.579,1.579,0,0,0-1.58-1.58H123.58A1.579,1.579,0,0,0,122,40.08V71.25a1.579,1.579,0,0,0,1.58,1.58ZM125.159,69.67V65.383l10.094-8.858L152.432,69.67Zm33.908,0h-1.436l-5.684-4.35,7.12-6.19Zm0-28.011V54.945l-9.681,8.416-12.711-9.727a2.4,2.4,0,0,0-3.032.1l-8.483,7.444V41.659Zm0,0" transform="translate(-96.306 -30.392)" fill="#fff"/><path d="M236.947,70.975a5.563,5.563,0,1,0-5.564-5.564A5.57,5.57,0,0,0,236.947,70.975Zm0-7.968a2.4,2.4,0,1,1-2.4,2.4A2.407,2.407,0,0,1,236.947,63.007Zm0,0" transform="translate(-182.652 -47.243)" fill="#fff"/><path d="M102,223.08a1.579,1.579,0,0,0,1.58,1.58h45.491a1.58,1.58,0,0,0,0-3.159H103.58A1.579,1.579,0,0,0,102,223.08Zm0,0" transform="translate(-80.518 -174.85)" fill="#fff"/><path d="M103.58,260.659h45.491a1.58,1.58,0,0,0,0-3.159H103.58a1.58,1.58,0,0,0,0,3.159Zm0,0" transform="translate(-80.518 -203.268)" fill="#fff"/><path d="M103.58,296.659h45.491a1.58,1.58,0,0,0,0-3.159H103.58a1.58,1.58,0,1,0,0,3.159Zm0,0" transform="translate(-80.518 -231.687)" fill="#fff"/></g></g></svg>