<svg xmlns="http://www.w3.org/2000/svg" width="35.385" height="35.385" viewBox="0 0 35.385 35.385"><path d="M17.692,0A17.692,17.692,0,1,0,35.385,17.692,17.686,17.686,0,0,0,17.692,0Zm4.857,10.817H19.837a.19.19,0,0,0-.126.032h0c-.063,0-.095.032-.158.063a.11.11,0,0,0-.063.032.435.435,0,0,0-.126.095c-.032.032-.063.032-.063.063-.032.032-.032.063-.063.095-.032.063-.095.126-.095.189a.594.594,0,0,0-.063.252.972.972,0,0,0-.032.315v2.4h3.564l-.41,4.068H19.049V29.96H14.192V18.386H11.921V14.318h2.271V11.7c0-1.892.883-4.825,4.825-4.825h3.532Z" fill="#fff"/></svg>