<svg xmlns="http://www.w3.org/2000/svg" width="183" height="183" viewBox="0 0 183 183"><g transform="translate(-248 -1383)"><circle cx="91.5" cy="91.5" r="91.5" transform="translate(248 1383)" fill="#fff" opacity="0.2"/><g transform="translate(284.569 1420.101)"><path d="M155.611,20.806A54.859,54.859,0,0,0,122.145,2.568a1.608,1.608,0,1,0-.458,3.183A51.686,51.686,0,1,1,78.163,93.893a1.608,1.608,0,0,0-2.247,2.3,54.9,54.9,0,0,0,79.7-75.388Zm0,0" transform="translate(-58.862 -2.004)" fill="#fff"/><path d="M3.716,54.9A51.68,51.68,0,0,1,55.391,3.216a1.608,1.608,0,0,0,0-3.216A54.905,54.905,0,0,0,11.352,87.675a1.608,1.608,0,0,0,2.578-1.922A51.264,51.264,0,0,1,3.716,54.9Zm0,0" transform="translate(0 0)" fill="#fff"/><path d="M148.925,143.024h-9.38a4.586,4.586,0,0,0-4.581,4.581v28.162a4.586,4.586,0,0,0,4.581,4.581h9.38a4.58,4.58,0,0,0,3.851-2.108c.023,0,.046,0,.07,0h25.771a5.129,5.129,0,0,0,5.1-4.379c.295-1.93.7-4.6,1.129-7.457a1.608,1.608,0,1,0-3.181-.477c-.427,2.852-.833,5.52-1.128,7.448a1.931,1.931,0,0,1-1.92,1.649h-25.11V147.9l13.455-13.61a1.587,1.587,0,0,0,.185-.225c.485-.712,2.067-3.161,2.094-4.792v-.4a2.125,2.125,0,0,1,1.863-2.107c.946.4,2.239,1.319,2.382,5.822v.219a2.179,2.179,0,0,1-.023.31,1.583,1.583,0,0,0-.016.281,28.469,28.469,0,0,1-2.174,10.846,1.608,1.608,0,0,0,1.493,2.2h7.446a3.65,3.65,0,0,1,3.645,3.646c0,.258-.116,1.641-1.168,8.893a1.608,1.608,0,0,0,3.183.462c1.2-8.289,1.2-9.035,1.2-9.355a6.869,6.869,0,0,0-6.862-6.862h-5.154a30.6,30.6,0,0,0,1.608-9.806,5.34,5.34,0,0,0,.036-.621v-.293c-.152-4.972-1.626-7.71-4.778-8.88a1.616,1.616,0,0,0-.56-.1,5.345,5.345,0,0,0-5.339,5.339v.348a10.25,10.25,0,0,1-1.457,2.915l-12.255,12.4a4.568,4.568,0,0,0-3.388-1.509Zm1.365,32.743a1.367,1.367,0,0,1-1.365,1.365h-9.38a1.367,1.367,0,0,1-1.365-1.365V147.605a1.367,1.367,0,0,1,1.365-1.365h9.38a1.367,1.367,0,0,1,1.365,1.365Zm0,0" transform="translate(-105.628 -97.043)" fill="#fff"/></g></g></svg>