<svg xmlns="http://www.w3.org/2000/svg" xmlns:xlink="http://www.w3.org/1999/xlink" width="150" height="150" viewBox="0 0 150 150"><defs><clipPath id="a"><rect width="150" height="150" transform="translate(635.5 1671)" fill="#fff" stroke="#707070" stroke-width="1"/></clipPath></defs><g transform="translate(-635.5 -1671)" clip-path="url(#a)"><g transform="translate(672.94 1689.66)"><path d="M18.78,137.56a18.787,18.787,0,0,0,18.78-18.78V100H18.78a18.78,18.78,0,0,0,0,37.56Z" transform="translate(0 -24.88)" fill="#0acf83"/><path d="M0,68.78A18.787,18.787,0,0,1,18.78,50H37.56V87.56H18.78A18.787,18.787,0,0,1,0,68.78Z" transform="translate(0 -12.44)" fill="#a259ff"/><path d="M0,18.78A18.787,18.787,0,0,1,18.78,0H37.56V37.56H18.78A18.787,18.787,0,0,1,0,18.78Z" fill="#f24e1e"/><path d="M50,0H68.78a18.78,18.78,0,0,1,0,37.56H50Z" transform="translate(-12.44)" fill="#ff7262"/><path d="M87.56,68.78A18.78,18.78,0,1,1,68.78,50,18.787,18.787,0,0,1,87.56,68.78Z" transform="translate(-12.44 -12.44)" fill="#1abcfe"/></g></g></svg>