<svg xmlns="http://www.w3.org/2000/svg" xmlns:xlink="http://www.w3.org/1999/xlink" width="150" height="150" viewBox="0 0 150 150"><defs><clipPath id="a"><rect width="150" height="150" transform="translate(469.5 1501)" fill="#fff" stroke="#707070" stroke-width="1"/></clipPath></defs><g transform="translate(-469.5 -1501)" clip-path="url(#a)"><g transform="translate(469.5 1544.131)"><path d="M89.9,21.868c-3.289,0-5.738,1.615-5.738,5.5,0,2.928,1.614,4.961,5.561,4.961,3.345,0,5.618-1.971,5.618-5.083,0-3.526-2.033-5.38-5.44-5.38ZM83.321,49.31a5.3,5.3,0,0,0-1.554,3.167c0,2.39,3.047,3.109,7.234,3.109,3.467,0,8.19-.243,8.19-3.467,0-1.916-2.272-2.034-5.143-2.214l-8.726-.6Zm17.7-27.262a9.482,9.482,0,0,1,2.212,6.038c0,6.635-5.2,10.521-12.732,10.521a19.007,19.007,0,0,1-4.723-.537L83.8,41.238l5.858.358C100,42.255,106.1,42.555,106.1,50.5c0,6.876-6.036,10.76-16.439,10.76-10.82,0-14.945-2.75-14.945-7.472,0-2.69,1.2-4.122,3.288-6.1a3.983,3.983,0,0,1-2.63-3.943A5.361,5.361,0,0,1,77.1,40.1c1.075-1.134,2.271-2.271,3.706-3.586-2.929-1.435-5.142-4.543-5.142-8.968,0-6.873,4.544-11.594,13.689-11.594a20.484,20.484,0,0,1,5.5.6h11.658v5.079l-5.5.419Zm16.018-10.863c-3.408,0-5.381-1.974-5.381-5.383S113.625.542,117.034.542c3.467,0,5.44,1.855,5.44,5.259S120.5,11.185,117.034,11.185ZM109.321,47.11V42.39l3.05-.417c.837-.12.956-.3.956-1.2V23.2c0-.656-.179-1.077-.779-1.254l-3.227-1.137.657-4.841h12.376V40.775c0,.958.058,1.077.957,1.2l3.049.417v4.72ZM150,44.793a23.906,23.906,0,0,1-9.746,2.39c-7.114,0-9.8-2.866-9.8-9.625V21.9c0-.358,0-.6-.48-.6h-4.184V15.977c5.262-.6,7.353-3.23,8.01-9.746h5.68v8.491c0,.417,0,.6.479.6h8.428V21.3h-8.907V35.585c0,3.527.838,4.9,4.065,4.9a14.227,14.227,0,0,0,4.842-.955L150,44.792" fill="#2f2707"/><path d="M61.424,29.1,34.09,1.773a4.031,4.031,0,0,0-5.7,0L22.712,7.449l7.2,7.2a4.788,4.788,0,0,1,6.064,6.1l6.938,6.939a4.794,4.794,0,1,1-2.873,2.7L33.57,23.926V40.955a4.847,4.847,0,0,1,1.269.907,4.8,4.8,0,1,1-5.214-1.047V23.628a4.739,4.739,0,0,1-1.57-1.047,4.8,4.8,0,0,1-1.034-5.245l-7.1-7.1L1.182,28.978a4.033,4.033,0,0,0,0,5.7L28.516,62.014a4.032,4.032,0,0,0,5.7,0L61.424,34.809a4.035,4.035,0,0,0,0-5.7" fill="#de4c36"/></g></g></svg>