<svg xmlns="http://www.w3.org/2000/svg" width="183" height="183" viewBox="0 0 183 183"><g transform="translate(-248 -1383)"><circle cx="91.5" cy="91.5" r="91.5" transform="translate(248 1383)" fill="#fff" opacity="0.2"/><g transform="translate(287.731 1422.731)"><g transform="translate(0 0)"><path d="M103.624,42.5a2.069,2.069,0,0,0-2.033-1.683H53.372A2.069,2.069,0,0,0,51.3,42.891V62.75a2.069,2.069,0,0,0,2.069,2.069H77.049a27.781,27.781,0,0,1-50.793-2.805,27.777,27.777,0,0,1,40.7-33.32,2.068,2.068,0,0,0,2.407-.154L85.621,15.226a2.068,2.068,0,0,0,.011-3.192A52.172,52.172,0,1,0,103.624,42.5ZM52.269,4.137a48.206,48.206,0,0,1,28.738,9.52L67.858,24.422a31.921,31.921,0,0,0-44.7,14.758L10.33,28.675A48.164,48.164,0,0,1,52.269,4.137ZM4.137,52.269A47.856,47.856,0,0,1,8.41,32.449L21.644,43.284a32.042,32.042,0,0,0,.246,18.773L8.739,72.822A48.278,48.278,0,0,1,4.137,52.269ZM52.269,100.4A48.112,48.112,0,0,1,10.706,76.559L23.5,66.084A31.915,31.915,0,0,0,67.116,80.516l13.242,10.84A48.245,48.245,0,0,1,52.269,100.4ZM99.347,62.32A48.266,48.266,0,0,1,83.684,88.732L70.838,78.216a32.026,32.026,0,0,0,11.314-14.74,2.068,2.068,0,0,0-1.937-2.794H55.441V44.959H99.847a48.559,48.559,0,0,1-.5,17.361Z" transform="translate(0 0)" fill="#fff"/></g></g></g></svg>