<svg xmlns="http://www.w3.org/2000/svg" xmlns:xlink="http://www.w3.org/1999/xlink" width="150" height="150" viewBox="0 0 150 150"><defs><clipPath id="a"><rect width="150" height="150" transform="translate(1631.5 1671)" fill="#fff" stroke="#707070" stroke-width="1"/></clipPath></defs><g transform="translate(-1631.5 -1671)" clip-path="url(#a)"><g transform="translate(1631.5 1710.094)"><path d="M9.233,28.274a17.937,17.937,0,0,1,8.618-1.817c5.76.2,8.926,3.124,9.052,8.856.14,6,.1,11.959.077,17.957,0,2.439-.643,3.006-3.055,3.006H20.585c-2.132,0-2.8-.65-2.838-2.8V37.4c0-2.488-1.174-3.509-3.691-3.411a8.2,8.2,0,0,0-1.307.126c-3.3.671-3.488.909-3.488,4.271V52.717c0,3.062-.524,3.579-3.544,3.579H2.37C.8,56.3.1,55.555,0,53.933V16.076c0-2.768.587-3.348,3.313-3.348h2.95c2.286,0,2.992.643,3.034,2.95.063,3.46,0,6.92,0,10.373-.063.636-.063,1.321-.063,2.223ZM58.49,42.3c-.2,1.594-.315,3.635-.741,5.627a10.451,10.451,0,0,1-8.625,8.779,20.848,20.848,0,0,1-9.268-.119,10.053,10.053,0,0,1-7.863-7.465,26.461,26.461,0,0,1,0-14.713c1.475-5.047,5.333-7.752,10.988-7.947a26.584,26.584,0,0,1,6.1.377c5.333,1.069,8.36,4.683,9.045,10.589.168,1.5.217,2.943.37,4.872Zm-9.317.119c-.1-1.643-.161-2.768-.266-3.872a8.987,8.987,0,0,0-.356-1.712,3.692,3.692,0,0,0-3.914-3.02,3.6,3.6,0,0,0-3.816,2.95,20.613,20.613,0,0,0,0,10.107,3.587,3.587,0,0,0,3.928,2.9,3.517,3.517,0,0,0,3.691-2.831,43.06,43.06,0,0,0,.741-4.529v.007ZM117.5,37.829c.405-3.082-.28-4.033-3.25-3.893A56.873,56.873,0,0,0,107.048,35c-2.013.363-3.488-.147-3.767-1.712-.454-2.579-.28-4.795,1.789-5.417a28.1,28.1,0,0,1,14.839-.741c4.473,1.069,6.64,4.026,6.64,8.856V53.08c0,1.293,0,2.621-1.538,3.124a4.27,4.27,0,0,1-4.774-1.314l-.475-.685a13.568,13.568,0,0,1-9.261,2.95c-7.269-.266-11.442-7.192-8.283-13.784,1.475-3.138,4.425-4.124,7.472-4.613C112.318,38.367,114.925,38.122,117.5,37.829Zm.14,5.033c-1.761.266-3.313.412-4.816.741a3.2,3.2,0,0,0-2.789,3.1,3.4,3.4,0,0,0,2.006,3.823c1.475.573,4.613,0,5.333-1.007a1.2,1.2,0,0,0,.224-.664c.042-1.943.042-3.872.042-6.018ZM64.809,27.491V23.674a2.341,2.341,0,0,1,1.761-2.537q2.254-.755,4.585-1.286a2.133,2.133,0,0,1,2.7,1.349,2.1,2.1,0,0,1,.091.93c.049,1.643,0,3.278,0,5.1H78.32c2.132.049,2.866.741,2.95,2.95.119,4.487-.126,4.739-4.557,4.739H74.14A10.008,10.008,0,0,0,74,36.13v9.464c0,2.95.888,3.851,3.753,4.061,2.516.182,3.2.741,3.2,2.789.091,3.271-.573,4.376-3.2,4.529a25.176,25.176,0,0,1-6.235-.315c-4.271-.867-6.57-3.635-6.717-8.15-.126-3.942-.049-7.884-.063-11.806V34.935H62.16a2.213,2.213,0,0,1-2.384-2.02v-.2c-.356-3.02.182-3.823,3.055-4.634ZM96.9,45.839c0,5.11.1,10.226,0,15.336A10.673,10.673,0,0,1,86.177,71.806a10.448,10.448,0,0,1-1.678-.14c-2.055-.259-2.789-1.069-2.817-3.2V66.57c.091-1.782.643-2.4,2.411-2.733,2.733-.51,3.621-1.538,3.628-4.39V30.37c0-2.467.629-3.124,3.1-3.2h3.355c1.985.091,2.733.811,2.747,2.81V45.741Zm41.212-16.58a14.981,14.981,0,0,1,8.269-2.8c2.95,0,3.628.622,3.621,3.544v1.314c0,1.887-.783,2.558-2.628,2.754a49.913,49.913,0,0,0-5.165.909c-1.146.245-1.58.937-1.559,2.216.091,5.333,0,10.624,0,15.93,0,2.607-.566,3.152-3.2,3.2h-3.8a1.987,1.987,0,0,1-2.139-1.817,1.9,1.9,0,0,1,.007-.4V29.574a1.987,1.987,0,0,1,1.824-2.132h.1c1.845-.315,3.781-.6,4.676,1.817Z"/><path d="M95.906,21.983c1.671-5.99,1.069-9.01-1.859-9.59.447,2.034.951,4.124-1.188,5.536-1.118.741-2.006.454-3.991-1.069-.916,1.88-.608,3.753-.182,5.76-2.845-.5-5.089-1.678-6.13-4.425a6.538,6.538,0,0,1,1.475-7.29A17.437,17.437,0,0,1,86.246,9c3.2-2.4,3.823-4.739,2.132-8.353A4.113,4.113,0,0,1,88.2.007a21.492,21.492,0,0,1,9.793,4.152c6.242,5.1,5.487,14.28-1.4,17.649a1.77,1.77,0,0,0-.678.175Z" fill="#ee4854"/></g></g></svg>