<svg xmlns="http://www.w3.org/2000/svg" xmlns:xlink="http://www.w3.org/1999/xlink" width="150" height="150" viewBox="0 0 150 150"><defs><clipPath id="a"><rect width="150" height="150" transform="translate(137.5 1331)" fill="#fff" stroke="#707070" stroke-width="1"/></clipPath></defs><g transform="translate(-137.5 -1331)" clip-path="url(#a)"><g transform="translate(166.945 1341.961)"><path d="M90.924,29.479l-8.266,92.606L45.5,132.386,8.443,122.1.185,29.479Z" transform="translate(0 -4.308)" fill="#e44d26"/><path d="M53.32,125.808l30.026-8.324L90.41,38.348H53.32Z" transform="translate(-7.766 -5.605)" fill="#f16529"/><path d="M32.375,63.011h16.07V51.652H19.961l.272,3.047L23.024,86h25.42V74.644H33.413Zm2.56,28.672h-11.4l1.591,17.836,23.269,6.459.052-.014V104.145l-.05.013-12.651-3.416-.809-9.06Z" transform="translate(-2.89 -7.549)" fill="#ebebeb"/><path d="M10.073,0h5.773V5.7h5.281V0H26.9V17.271H21.126V11.488H15.846v5.783H10.073V0ZM34.49,5.728H29.409V0h15.94V5.728H40.264V17.271H34.491V5.728h0ZM47.878,0H53.9l3.7,6.069L61.3,0h6.022V17.271H61.572V8.711L57.6,14.852h-.1L53.526,8.711v8.561H47.878ZM70.194,0h5.775V11.563h8.118v5.709H70.193V0Z" transform="translate(-1.445)"/><path d="M53.274,86H67.262l-1.319,14.732-12.669,3.42v11.818l23.288-6.454.171-1.919L79.4,77.694l.277-3.05h-26.4V86Zm0-23.019v.028H80.713l.228-2.553.518-5.759.271-3.047H53.274V62.984Z" transform="translate(-7.759 -7.549)" fill="#fff"/></g></g></svg>