<svg xmlns="http://www.w3.org/2000/svg" width="183" height="183" viewBox="0 0 183 183"><g transform="translate(-248 -1383)"><circle cx="91.5" cy="91.5" r="91.5" transform="translate(248 1383)" fill="#fff" opacity="0.2"/><g transform="translate(230.926 1401.3)"><path d="M206.214,45.533l-7.9,7.9a24.259,24.259,0,1,0,2.5,2.5l7.9-7.9,8.639,2.16a1.768,1.768,0,0,0,1.679-.465l13.213-13.211a1.768,1.768,0,0,0-1.076-3.009l-9.488-.938-.939-9.488A1.768,1.768,0,0,0,217.732,22L204.519,35.218a1.768,1.768,0,0,0-.465,1.679Zm-2.509,26.256a21.247,21.247,0,1,1-7.543-16.2l-7.8,7.8a10.279,10.279,0,1,0,2.506,2.495l7.795-7.793a21.116,21.116,0,0,1,5.041,13.705Zm-13.984,0a7.237,7.237,0,1,1-3.546-6.217l-4.97,4.97a1.768,1.768,0,1,0,2.5,2.5l4.979-4.979a7.183,7.183,0,0,1,1.037,3.727ZM217.239,46.52l-5.609-1.4,9.092-9.092,6.381.631Zm.352-19.376.631,6.38-9.092,9.092-1.4-5.609Z" transform="translate(-74.45 -7.913)" fill="#fff"/><path d="M130.1,145.582a21.621,21.621,0,0,1,6.916,15.912v16.338a6.558,6.558,0,0,0,6.55,6.55h8.177v5.02a1.515,1.515,0,1,0,3.031,0v-5.02h8.177a6.558,6.558,0,0,0,6.55-6.55V161.471a22.073,22.073,0,0,1,7.1-16.055,34.289,34.289,0,0,0,10.891-25.962,33.89,33.89,0,0,0-7.2-20.085,1.515,1.515,0,0,0-2.391,1.862,30.879,30.879,0,0,1,6.562,18.3,31.258,31.258,0,0,1-9.929,23.664,25.2,25.2,0,0,0-8.011,16.782H140a24.621,24.621,0,0,0-7.848-16.629,31.212,31.212,0,0,1,21.1-54.2h.294a30.916,30.916,0,0,1,18.383,6.23,1.515,1.515,0,1,0,1.818-2.424,33.928,33.928,0,0,0-20.173-6.834l-.322,0A34.243,34.243,0,0,0,130.1,145.582Zm32.85,35.77H143.57a3.524,3.524,0,0,1-3.519-3.52v-.65h17.363a1.515,1.515,0,0,0,0-3.031H140.051v-4.17h4.272a1.515,1.515,0,0,0,0-3.031h-4.272v-3.942h26.424v3.942H149.534a1.515,1.515,0,0,0,0,3.031h16.941v4.169h-3.85a1.515,1.515,0,1,0,0,3.031h3.85v.65a3.524,3.524,0,0,1-3.52,3.52Z" transform="translate(-45.151 -56.219)" fill="#fff"/><path d="M254.862,24a1.515,1.515,0,0,0,1.515-1.515V12.415a1.515,1.515,0,1,0-3.031,0v10.07A1.515,1.515,0,0,0,254.862,24Z" transform="translate(-145.555)" fill="#fff"/><path d="M400.253,200.9a1.515,1.515,0,0,0,0,3.031h10.07a1.515,1.515,0,0,0,0-3.031Z" transform="translate(-254.227 -142.016)" fill="#fff"/><path d="M60.127,203.931H70.2a1.515,1.515,0,1,0,0-3.031H60.127a1.515,1.515,0,1,0,0,3.031Z" transform="translate(0 -142.016)" fill="#fff"/><path d="M116.724,71.153a1.515,1.515,0,1,0,2.143-2.143l-7.858-7.858a1.515,1.515,0,1,0-2.143,2.143Z" transform="translate(-37.231 -37.229)" fill="#fff"/></g></g></svg>