<svg xmlns="http://www.w3.org/2000/svg" width="183" height="183" viewBox="0 0 183 183"><g transform="translate(-248 -1383)"><circle cx="91.5" cy="91.5" r="91.5" transform="translate(248 1383)" fill="#fff" opacity="0.2"/><g transform="translate(292.914 1432.5)"><path d="M126.614,201.232a1.549,1.549,0,0,1-1.006-.371l-10.061-8.567a1.555,1.555,0,0,1,0-2.368l10.061-8.567a1.554,1.554,0,1,1,2.015,2.367l-8.67,7.383,8.67,7.383a1.555,1.555,0,0,1-1.009,2.739Zm0,0" transform="translate(-89.458 -140.791)" fill="#fff"/><path d="M251.263,201.232a1.556,1.556,0,0,1-1.009-2.739l8.67-7.383-8.67-7.383a1.554,1.554,0,0,1,2.015-2.367l10.061,8.567a1.555,1.555,0,0,1,0,2.368l-10.061,8.567a1.549,1.549,0,0,1-1.006.371Zm0,0" transform="translate(-194.246 -140.791)" fill="#fff"/><path d="M190.511,185.9a1.582,1.582,0,0,1-.323-.034,1.555,1.555,0,0,1-1.2-1.842l6.27-29.77a1.555,1.555,0,1,1,3.043.641l-6.27,29.77A1.555,1.555,0,0,1,190.511,185.9Zm0,0" transform="translate(-146.987 -119.037)" fill="#fff"/><path d="M83.733,83.086H10.439A10.451,10.451,0,0,1,0,72.647V10.439A10.451,10.451,0,0,1,10.439,0H83.733A10.451,10.451,0,0,1,94.172,10.439V72.647A10.451,10.451,0,0,1,83.733,83.086ZM10.439,3.109a7.338,7.338,0,0,0-7.329,7.329V72.647a7.338,7.338,0,0,0,7.329,7.329H83.733a7.338,7.338,0,0,0,7.329-7.329V10.439a7.338,7.338,0,0,0-7.329-7.329Zm0,0" fill="#fff"/><path d="M92.617,101.2H1.555a1.555,1.555,0,0,1,0-3.109H92.617a1.555,1.555,0,0,1,0,3.109Zm0,0" transform="translate(0 -76.304)" fill="#fff"/><path d="M102.37,44.129a4.92,4.92,0,1,1,4.92-4.92A4.927,4.927,0,0,1,102.37,44.129Zm0-6.731a1.811,1.811,0,1,0,1.811,1.811A1.813,1.813,0,0,0,102.37,37.4Zm0,0" transform="translate(-75.806 -26.673)" fill="#fff"/><path d="M34.307,43.915a4.92,4.92,0,1,1,4.92-4.92A4.926,4.926,0,0,1,34.307,43.915Zm0-6.731a1.811,1.811,0,1,0,1.811,1.811A1.814,1.814,0,0,0,34.307,37.184Zm0,0" transform="translate(-22.86 -26.506)" fill="#fff"/><path d="M170.435,44.343a4.92,4.92,0,1,1,4.92-4.92A4.926,4.926,0,0,1,170.435,44.343Zm0-6.731a1.811,1.811,0,1,0,1.811,1.811A1.812,1.812,0,0,0,170.435,37.613Zm0,0" transform="translate(-128.754 -26.841)" fill="#fff"/></g></g></svg>