<svg xmlns="http://www.w3.org/2000/svg" width="183" height="183" viewBox="0 0 183 183"><g transform="translate(-248 -1383)"><circle cx="91.5" cy="91.5" r="91.5" transform="translate(248 1383)" fill="#fff" opacity="0.2"/><g transform="translate(310.936 1428.752)"><path d="M147.676,456.066a2.675,2.675,0,1,0,2.675,2.675A2.679,2.679,0,0,0,147.676,456.066Zm0,2.833a.158.158,0,1,1,.158-.158A.159.159,0,0,1,147.676,458.9Zm0,0" transform="translate(-118.805 -373.676)" fill="#fff"/><path d="M49.087,0H46.4a1.355,1.355,0,1,0,0,2.71h2.682A5.95,5.95,0,0,1,55.03,8.653v2.932H2.71V8.653A5.95,5.95,0,0,1,8.653,2.71H41.028a1.355,1.355,0,1,0,0-2.71H8.653A8.663,8.663,0,0,0,0,8.653V83.842a8.663,8.663,0,0,0,8.653,8.653H49.087a8.663,8.663,0,0,0,8.653-8.653V8.653A8.663,8.663,0,0,0,49.087,0Zm0,89.785H8.653A5.95,5.95,0,0,1,2.71,83.842V14.295H55.03V77.717H6.8a1.355,1.355,0,1,0,0,2.71H55.03v3.415a5.95,5.95,0,0,1-5.943,5.943Zm0,0" fill="#fff"/><path d="M75.576,217.906a1.355,1.355,0,1,0,1.916-1.916l-5.822-5.823,5.822-5.822a1.355,1.355,0,1,0-1.916-1.916l-6.78,6.78a1.354,1.354,0,0,0,0,1.916Zm0,0" transform="translate(-56.042 -165.535)" fill="#fff"/><path d="M199.079,217.906a1.355,1.355,0,0,0,1.916,0l6.78-6.78a1.354,1.354,0,0,0,0-1.916l-6.78-6.78a1.355,1.355,0,0,0-1.916,1.916l5.823,5.822-5.823,5.823a1.354,1.354,0,0,0,0,1.916Zm0,0" transform="translate(-162.789 -165.535)" fill="#fff"/><path d="M138.389,199.1a1.389,1.389,0,0,0,.263.025,1.355,1.355,0,0,0,1.328-1.094l4.794-24.408a1.355,1.355,0,1,0-2.659-.522l-4.794,24.408A1.354,1.354,0,0,0,138.389,199.1Zm0,0" transform="translate(-112.492 -140.935)" fill="#fff"/></g></g></svg>