<svg xmlns="http://www.w3.org/2000/svg" width="183" height="183" viewBox="0 0 183 183"><g transform="translate(-248 -1383)"><circle cx="91.5" cy="91.5" r="91.5" transform="translate(248 1383)" fill="#fff" opacity="0.2"/><g transform="translate(177.873 1383.65)"><path d="M182.525,35h-40.8A11.742,11.742,0,0,0,130,46.729v89.242A11.743,11.743,0,0,0,141.729,147.7h40.8a11.742,11.742,0,0,0,11.729-11.729V46.729A11.743,11.743,0,0,0,182.525,35Zm0,109.641h-40.8a8.679,8.679,0,0,1-8.669-8.669v-6.629h58.135v6.629a8.679,8.679,0,0,1-8.669,8.669ZM191.195,50.3h-3.57a1.53,1.53,0,1,0,0,3.06h3.57v72.924H133.06V53.358h41.561a1.53,1.53,0,0,0,0-3.06H133.06v-3.57a8.679,8.679,0,0,1,8.669-8.669h40.8a8.679,8.679,0,0,1,8.669,8.669Z" transform="translate(0 0)" fill="#fff"/><path d="M320.224,98.06h2.835a1.53,1.53,0,0,0,0-3.06h-2.835a1.53,1.53,0,0,0,0,3.06Z" transform="translate(-140.581 -44.701)" fill="#fff"/><path d="M240.355,414a5.355,5.355,0,1,0,5.355,5.355A5.355,5.355,0,0,0,240.355,414Zm0,7.649a2.295,2.295,0,1,1,2.295-2.295,2.295,2.295,0,0,1-2.295,2.295Z" transform="translate(-78.227 -282.363)" fill="#fff"/><path d="M247.6,223.53a1.53,1.53,0,0,0,1.53,1.53H257.7a1.53,1.53,0,1,0,0-3.06H249.13A1.53,1.53,0,0,0,247.6,223.53Z" transform="translate(-87.615 -139.319)" fill="#fff"/><path d="M323.037,222H317.53a1.53,1.53,0,0,0,0,3.06h5.508a1.53,1.53,0,0,0,0-3.06Z" transform="translate(-138.574 -139.319)" fill="#fff"/><path d="M167.6,278H163.93a1.53,1.53,0,1,0,0,3.06H167.6a1.53,1.53,0,1,0,0-3.06Z" transform="translate(-24.139 -181.04)" fill="#fff"/><path d="M214.5,278H205.93a1.53,1.53,0,1,0,0,3.06H214.5a1.53,1.53,0,1,0,0-3.06Z" transform="translate(-55.43 -181.04)" fill="#fff"/><path d="M290.852,278H274.33a1.53,1.53,0,0,0,0,3.06h16.523a1.53,1.53,0,1,0,0-3.06Z" transform="translate(-106.389 -181.04)" fill="#fff"/><path d="M167.6,334H163.93a1.53,1.53,0,0,0,0,3.06H167.6a1.53,1.53,0,0,0,0-3.06Z" transform="translate(-24.139 -222.762)" fill="#fff"/><path d="M226.736,334H205.93a1.53,1.53,0,1,0,0,3.06h20.806a1.53,1.53,0,1,0,0-3.06Z" transform="translate(-55.43 -222.762)" fill="#fff"/><path d="M326.613,334H322.33a1.53,1.53,0,0,0,0,3.06h4.284a1.53,1.53,0,0,0,0-3.06Z" transform="translate(-142.15 -222.762)" fill="#fff"/><path d="M204.029,136.579a1.53,1.53,0,1,0-2.9-.969l-7.649,22.948a1.53,1.53,0,0,0,2.9.969Z" transform="translate(-47.233 -74.177)" fill="#fff"/><path d="M160.03,167.828a1.53,1.53,0,0,0,1.082-2.612l-4.018-4.018,4.018-4.018a1.53,1.53,0,1,0-2.164-2.164l-5.1,5.1a1.53,1.53,0,0,0,0,2.163l5.1,5.1A1.525,1.525,0,0,0,160.03,167.828Z" transform="translate(-17.434 -89.082)" fill="#fff"/><path d="M243.849,167.38a1.53,1.53,0,0,0,2.163,0l5.1-5.1a1.53,1.53,0,0,0,0-2.163l-5.1-5.1a1.53,1.53,0,1,0-2.164,2.164l4.018,4.018-4.018,4.018A1.53,1.53,0,0,0,243.849,167.38Z" transform="translate(-84.486 -89.082)" fill="#fff"/></g></g></svg>