<svg xmlns="http://www.w3.org/2000/svg" width="68.852" height="60.712" viewBox="0 0 68.852 60.712"><g transform="translate(0 -7.328)"><path d="M27.661,19.383a3.311,3.311,0,0,0,1.666-4.443L26.605,9.219a3.321,3.321,0,0,0-4.332-1.61,38.266,38.266,0,0,0-12,7.776A29.021,29.021,0,0,0,2.222,28.1C.778,32.881,0,39.379,0,47.655V64.707a3.342,3.342,0,0,0,3.333,3.333H25.161a3.342,3.342,0,0,0,3.333-3.333V42.878a3.342,3.342,0,0,0-3.333-3.333H14.719c.111-5.61,1.444-10.109,3.888-13.5A21.112,21.112,0,0,1,27.661,19.383Z" transform="translate(0 0)" fill="#fff"/><path d="M98.305,19.428a3.311,3.311,0,0,0,1.666-4.443L97.25,9.32a3.321,3.321,0,0,0-4.332-1.611,40.235,40.235,0,0,0-11.942,7.721A29.643,29.643,0,0,0,72.866,28.2Q70.7,35.2,70.7,47.7V64.752a3.342,3.342,0,0,0,3.333,3.333H95.861a3.342,3.342,0,0,0,3.333-3.333V42.923a3.342,3.342,0,0,0-3.333-3.333h-10.5c.111-5.61,1.445-10.109,3.888-13.5A21.108,21.108,0,0,1,98.305,19.428Z" transform="translate(-31.431 -0.045)" fill="#fff"/></g></svg>