<svg xmlns="http://www.w3.org/2000/svg" width="183" height="183" viewBox="0 0 183 183"><g transform="translate(-248 -1383)"><circle cx="91.5" cy="91.5" r="91.5" transform="translate(248 1383)" fill="#fff" opacity="0.2"/><g transform="translate(238.156 1385.615)"><path d="M141.674,54.113a1.245,1.245,0,0,0-.087-.311c0-.011-.011-.021-.016-.033s-.024-.051-.038-.076-.022-.037-.034-.055-.019-.031-.029-.047-.03-.042-.046-.063L141.4,53.5c-.017-.021-.035-.039-.053-.059l-.029-.03c-.018-.017-.036-.033-.054-.049l-.036-.032c-.017-.014-.034-.026-.052-.039s-.031-.023-.047-.034l-.047-.028c-.019-.012-.038-.023-.058-.034l-.043-.021-.066-.03-.046-.017c-.022-.008-.044-.016-.067-.023l-.06-.015-.056-.014c-.03-.006-.06-.01-.09-.014a.287.287,0,0,1-.03,0,1.216,1.216,0,0,0-.138-.006H61.238a1.09,1.09,0,0,0-.111.006l-.05.007c-.023,0-.047.006-.07.011l-.072.017-.045.012c-.027.008-.053.018-.079.027l-.035.013c-.026.01-.051.023-.075.035l-.034.016c-.023.012-.044.025-.066.038l-.04.024-.053.038-.046.034-.042.036c-.017.015-.034.03-.05.046l-.031.033c-.017.018-.035.036-.051.056l-.028.036c-.015.02-.03.039-.045.06s-.021.032-.03.048-.023.035-.033.054-.025.05-.037.076-.011.021-.016.033a1.326,1.326,0,0,0-.1.5V79.4a1.3,1.3,0,0,0,.13.553l.012.025a1.21,1.21,0,0,0,.09.146l.025.033a1.319,1.319,0,0,0,.11.128l.013.012a1.237,1.237,0,0,0,.123.1l.027.021a1.219,1.219,0,0,0,.146.089l.023.011a1.243,1.243,0,0,0,.156.064l.013,0a1.239,1.239,0,0,0,.167.041l.042.006a1.274,1.274,0,0,0,.163.013h79.211a1.274,1.274,0,0,0,.163-.013l.042-.006a1.246,1.246,0,0,0,.168-.041l.012,0a1.229,1.229,0,0,0,.155-.064l.023-.011a1.261,1.261,0,0,0,.146-.089l.027-.021a1.284,1.284,0,0,0,.122-.1l.013-.012a1.263,1.263,0,0,0,.11-.128l.025-.033a1.209,1.209,0,0,0,.09-.146l.012-.025a1.3,1.3,0,0,0,.13-.552V54.3a1.246,1.246,0,0,0-.015-.184ZM62.5,56,96.708,66.851,62.5,77.7Zm6.83-.458h63.028l-31.514,9.993Zm31.514,12.616,31.514,9.992H69.33Zm4.137-1.312L139.188,56V77.7Z" transform="translate(0 0)" fill="#fff"/><path d="M281.092,235.03v-.019a.189.189,0,0,0,0-.025,1.232,1.232,0,0,0-.026-.218.054.054,0,0,0,0-.012,1.228,1.228,0,0,0-.07-.218l-.005-.011a1.25,1.25,0,0,0-.112-.2l-.011-.014a1.262,1.262,0,0,0-.151-.177l-.006-.006-.011-.009a1.262,1.262,0,0,0-.179-.14l-.025-.015a1.247,1.247,0,0,0-.194-.1l-.026-.01a1.254,1.254,0,0,0-.208-.056l-.026,0a1.264,1.264,0,0,0-.2-.017H237.351a1.248,1.248,0,0,0-.194.017l-.029,0a1.228,1.228,0,0,0-.205.056l-.028.01a1.254,1.254,0,0,0-.193.1l-.025.015a1.249,1.249,0,0,0-.179.14l-.011.008-.005.006a1.246,1.246,0,0,0-.152.178l-.01.014a1.235,1.235,0,0,0-.113.2l-.005.01a1.251,1.251,0,0,0-.07.219.065.065,0,0,1,0,.012,1.273,1.273,0,0,0-.026.218.168.168,0,0,1,0,.025.093.093,0,0,0,0,.019v44.442a.232.232,0,0,0,0,.025,1.272,1.272,0,0,0,.026.218.063.063,0,0,0,0,.012,1.251,1.251,0,0,0,.07.219l0,.01a1.251,1.251,0,0,0,.113.2l.01.014a1.235,1.235,0,0,0,.152.178l.005.006.011.009a1.269,1.269,0,0,0,.174.137l.023.014a1.265,1.265,0,0,0,.189.1l.024.009a1.249,1.249,0,0,0,.2.059l.019,0a1.241,1.241,0,0,0,.219.021h42.491a1.239,1.239,0,0,0,.219-.021l.019,0a1.24,1.24,0,0,0,.2-.059l.024-.009a1.265,1.265,0,0,0,.189-.1l.024-.015a1.245,1.245,0,0,0,.173-.136l.012-.009.006-.006a1.262,1.262,0,0,0,.151-.177l.011-.014a1.258,1.258,0,0,0,.112-.2l.005-.011a1.231,1.231,0,0,0,.07-.218.065.065,0,0,1,0-.012,1.232,1.232,0,0,0,.026-.218c0-.009,0-.017,0-.025V235.03Zm-24.226,22.211-18.265,19.1V238.147Zm-16.589-20.961h36.639L258.6,255.433Zm18.319,22.77L276.916,278.2H240.277Zm1.73-1.809,18.266-19.1v38.191Z" transform="translate(-139.404 -143.071)" fill="#fff"/><path d="M85.676,234.934c0-.013,0-.026,0-.038s-.007-.045-.01-.067-.005-.039-.009-.058,0-.016-.006-.024a1.258,1.258,0,0,0-.4-.667l-.019-.017c-.015-.012-.031-.023-.047-.035s-.035-.027-.054-.04l-.033-.021c-.025-.016-.05-.031-.076-.045l-.005,0-.026-.012c-.027-.013-.053-.026-.081-.037l-.045-.016c-.023-.009-.046-.017-.07-.024l-.061-.016-.056-.013c-.026-.005-.052-.009-.079-.012l-.042-.005c-.031,0-.063,0-.094,0H61.227c-.031,0-.063,0-.094,0l-.042.006c-.026,0-.052.007-.078.012l-.057.013-.06.016c-.024.007-.047.015-.07.024l-.045.016c-.028.011-.054.024-.081.037l-.026.012-.006,0c-.026.014-.051.029-.076.045s-.023.013-.033.021-.036.026-.054.04-.032.023-.047.035l-.018.016a1.257,1.257,0,0,0-.4.667c0,.008,0,.016-.006.024s-.006.039-.009.058-.008.044-.01.067,0,.026,0,.038c0,.029,0,.059,0,.088v44.436c0,.03,0,.059,0,.088,0,.013,0,.026,0,.038s.006.044.01.067.005.039.009.058,0,.016.006.024a1.257,1.257,0,0,0,.4.667l.018.016c.015.012.031.023.047.035s.036.027.054.04l.033.021c.025.016.05.031.076.045l.006,0,.017.008c.035.018.07.034.107.048l.04.015a.94.94,0,0,0,.093.029l.047.012c.029.006.059.011.089.016l.049.008c.034,0,.07.005.1.006l.031,0H84.431l.03,0a.985.985,0,0,0,.105-.006l.048-.007c.031,0,.061-.01.091-.016l.045-.012c.032-.009.063-.018.094-.029l.039-.014c.037-.014.073-.03.108-.048l.017-.007.005,0c.026-.014.051-.029.076-.045l.033-.021c.019-.012.036-.026.054-.04s.032-.023.047-.035l.019-.017a1.255,1.255,0,0,0,.4-.667c0-.008,0-.016.006-.024s.006-.038.009-.058.008-.044.01-.067,0-.026,0-.038c0-.029,0-.059,0-.088V235.022c0-.03,0-.059,0-.088ZM71.431,257.24,62.5,274.352V240.128Zm-8.115-20.961H82.368l-9.526,18.258Zm9.525,23.664L82.367,278.2H63.316Zm1.41-2.7,8.928-17.112v34.223Z" transform="translate(-0.002 -143.07)" fill="#fff"/></g></g></svg>