<svg xmlns="http://www.w3.org/2000/svg" width="183" height="183" viewBox="0 0 183 183"><g transform="translate(-248 -1383)"><circle cx="91.5" cy="91.5" r="91.5" transform="translate(248 1383)" fill="#fff" opacity="0.2"/><g transform="translate(284.036 1412.43)"><path d="M.47,139.022a.2.2,0,0,0,.01.025,1.565,1.565,0,0,0,.107.22c.007.01.012.02.019.028a1.456,1.456,0,0,0,.143.194s.007.01.011.014l23.915,26.715v27.564a1.505,1.505,0,0,0,2.421,1.195l14.123-10.818a1.505,1.505,0,0,0,.59-1.195v-1.178a25.891,25.891,0,0,0,2.706,2.224l-.123,4.152a1.507,1.507,0,0,0,.963,1.449l8.332,3.216a1.506,1.506,0,0,0,1.681-.421l2.7-3.124a28.89,28.89,0,0,0,7.323-.189L68.27,192.1a1.5,1.5,0,0,0,1.69.337l8.185-3.581a1.507,1.507,0,0,0,.9-1.49l-.306-4.158a26.008,26.008,0,0,0,5.06-5.313l4.152.123a1.507,1.507,0,0,0,1.449-.963l3.215-8.331a1.5,1.5,0,0,0-.421-1.681l-3.123-2.7a28.943,28.943,0,0,0-.19-7.324l3.007-2.883a1.505,1.505,0,0,0,.337-1.69l-3.582-8.185a1.5,1.5,0,0,0-1.489-.9l-4.159.3a26.028,26.028,0,0,0-5.312-5.06l.123-4.151a1.507,1.507,0,0,0-.963-1.45L68.512,129.8a1.5,1.5,0,0,0-1.681.42l-.721.837v-2.388a1.506,1.506,0,0,0-1.506-1.506H58.4a7.063,7.063,0,1,0-13.166,0H1.881a1.506,1.506,0,0,0-1.506,1.506V138.5a1.628,1.628,0,0,0,.024.259c0,.008,0,.016,0,.023a1.429,1.429,0,0,0,.068.24Zm38.327,43.2-11.112,8.511V165.643a1.505,1.505,0,0,0-.383-1L5.248,140.006H61.234l-4.02,4.489-.014.016L39.181,164.64a1.506,1.506,0,0,0-.384,1Zm22.3-35.464a14.554,14.554,0,1,1-14.554,14.554c0-.132.009-.265.013-.4l12.55-14.019a14.731,14.731,0,0,1,1.992-.136Zm7.318-13.771,6.349,2.45-.115,3.9a1.5,1.5,0,0,0,.669,1.3,23.022,23.022,0,0,1,5.763,5.489,1.5,1.5,0,0,0,1.321.606l3.907-.287,2.733,6.247L86.221,155.4a1.5,1.5,0,0,0-.439,1.357,25.914,25.914,0,0,1,.207,8.013,1.507,1.507,0,0,0,.51,1.334l2.924,2.524-2.45,6.348-3.9-.115a1.507,1.507,0,0,0-1.3.67,23.022,23.022,0,0,1-5.489,5.763,1.506,1.506,0,0,0-.607,1.32l.288,3.908-6.248,2.733-2.706-2.823a1.509,1.509,0,0,0-1.358-.439,25.885,25.885,0,0,1-8.013.208,1.5,1.5,0,0,0-1.334.51l-2.523,2.925-6.348-2.45.115-3.9a1.509,1.509,0,0,0-.669-1.3,23.083,23.083,0,0,1-5.071-4.6V166.219l1.94-2.167a17.565,17.565,0,1,0,18.159-20.284l3.817-4.264s.007-.01.011-.014a1.619,1.619,0,0,0,.144-.193c.006-.01.011-.02.018-.029a1.566,1.566,0,0,0,.107-.22c0-.009.007-.018.01-.025a1.43,1.43,0,0,0,.068-.24c0-.007,0-.015,0-.023a1.523,1.523,0,0,0,.025-.259v-2.839Zm-19.468-11.25a4.053,4.053,0,0,1,6.01,5.424H48.669a4.06,4.06,0,0,1,.278-5.424Zm14.15,8.435v6.823H3.386v-6.823Zm0,0" transform="translate(0 -88.045)" fill="#fff"/><path d="M115.286,2.067a7.061,7.061,0,1,0,0,9.99,7.06,7.06,0,0,0,0-9.99Zm-2.128,7.861a4.051,4.051,0,1,1,0-5.732,4.052,4.052,0,0,1,0,5.732Zm0,0" transform="translate(-77.05 0)" fill="#fff"/><path d="M9.684,75.525a7.065,7.065,0,1,0,9.991,0,7.066,7.066,0,0,0-9.991,0Zm7.861,7.862a4.051,4.051,0,1,1,0-5.732,4.051,4.051,0,0,1,0,5.732Zm0,0" transform="translate(-5.424 -55.026)" fill="#fff"/><path d="M109.684,435.524a7.065,7.065,0,1,0,9.991,0A7.066,7.066,0,0,0,109.684,435.524Zm7.861,7.862a4.051,4.051,0,1,1,0-5.732,4.051,4.051,0,0,1,0,5.732Zm0,0" transform="translate(-80.331 -324.693)" fill="#fff"/><path d="M170.653,30.566l-6.658,6.657a1.507,1.507,0,0,0,0,2.129l6.658,6.658a1.507,1.507,0,0,0,2.129,0l6.658-6.658a1.505,1.505,0,0,0,0-2.129l-6.658-6.658a1.506,1.506,0,0,0-2.129,0Zm1.064,12.25-4.528-4.528,4.528-4.528,4.528,4.528Zm0,0" transform="translate(-122.234 -22.565)" fill="#fff"/><path d="M115.916,93.662,105,91.156a1.506,1.506,0,0,0-1.839,1.577l.815,11.175a1.506,1.506,0,0,0,2.482,1.033l10.107-8.67a1.5,1.5,0,0,0-.644-2.609Zm-9.159,7.05-.449-6.166,6.026,1.382Zm0,0" transform="translate(-76.988 -68.254)" fill="#fff"/><path d="M272.711,130.828l5.122-5.122a1.505,1.505,0,0,0-.758-2.539l-15.055-3.129a1.506,1.506,0,0,0-1.782,1.78l3.13,15.055a1.5,1.5,0,0,0,2.538.758l4.673-4.672a44.365,44.365,0,0,1,9.479,31.033c-.785,10.241-5,19.877-11.56,26.438a39.933,39.933,0,0,1-16.275,9.6,45.506,45.506,0,0,1-20.481,1.568,1.506,1.506,0,1,0-.46,2.976,47.89,47.89,0,0,0,7.29.557,48.633,48.633,0,0,0,14.554-2.229,42.934,42.934,0,0,0,17.5-10.346c7.062-7.061,11.593-17.389,12.434-28.337a47.372,47.372,0,0,0-10.2-33.231,1.505,1.505,0,0,0-.152-.164Zm-6.961,2.7-2.095-10.078,10.078,2.095Zm0,0" transform="translate(-172.012 -89.893)" fill="#fff"/></g></g></svg>