<svg xmlns="http://www.w3.org/2000/svg" width="183" height="183" viewBox="0 0 183 183"><g transform="translate(-248 -1383)"><circle cx="91.5" cy="91.5" r="91.5" transform="translate(248 1383)" fill="#fff" opacity="0.2"/><g transform="translate(280.837 1415.837)"><path d="M117.126,206.922a1.2,1.2,0,0,0,.438-1.975l-8.7-8.7a8.85,8.85,0,0,0-12.36-12.36l-8.7-8.7a1.2,1.2,0,0,0-1.975.438l-7.159,19.688a47.393,47.393,0,0,1-10.955,17.2,5.024,5.024,0,0,0,0,7.106l5.41,5.409a5.024,5.024,0,0,0,7.105,0l.1-.1,11.187,11.188a1.2,1.2,0,0,0,1.7,0,8.859,8.859,0,0,0,0-12.515l-4.985-4.985a47.162,47.162,0,0,1,9.2-4.545Zm-10.86-20.43a6.452,6.452,0,0,1,.876,8.034l-8.909-8.909A6.461,6.461,0,0,1,106.266,186.491ZM76.684,224.109a2.609,2.609,0,0,1-1.857-.769l-5.409-5.41a2.626,2.626,0,0,1,0-3.714q1.4-1.4,2.688-2.919l9.354,9.354q-1.514,1.286-2.919,2.689a2.609,2.609,0,0,1-1.857.769Zm14.84,1.2a6.455,6.455,0,0,1,.77,8.2L82.082,223.292a47.245,47.245,0,0,1,4.129-3.3Zm-8.187-6.169L73.62,209.42a49.8,49.8,0,0,0,7.31-13.281l6.515-17.918,27.091,27.09-17.918,6.515a49.8,49.8,0,0,0-13.281,7.312Z" transform="translate(-45.008 -131.899)" fill="#fff"/><path d="M249.588,188.2a13.01,13.01,0,0,0-14.083-2.873,1.2,1.2,0,1,0,.9,2.225,10.631,10.631,0,0,1,13.833,13.833,1.2,1.2,0,1,0,2.224.9A13.008,13.008,0,0,0,249.588,188.2Z" transform="translate(-179.837 -139.532)" fill="#fff"/><path d="M247.808,180.032a1.2,1.2,0,0,0,1.56-.664A19.225,19.225,0,0,0,224.35,154.35a1.2,1.2,0,1,0,.9,2.224,16.827,16.827,0,0,1,21.9,21.9A1.2,1.2,0,0,0,247.808,180.032Z" transform="translate(-170.912 -114.387)" fill="#fff"/><path d="M339.311,10a18.061,18.061,0,1,0,18.061,18.061A18.061,18.061,0,0,0,339.311,10Zm0,33.724a15.663,15.663,0,1,1,15.663-15.663A15.663,15.663,0,0,1,339.311,43.724Z" transform="translate(-249.047 0)" fill="#fff"/><path d="M374.166,53.973a4.484,4.484,0,1,0-4.483-4.5l-5.561,3.211a4.484,4.484,0,1,0-.115,6.875l5.7,3.572a4.487,4.487,0,1,0,.475-2.532L365.405,57.6a4.479,4.479,0,0,0,.049-2.921l4.9-2.831A4.484,4.484,0,0,0,374.166,53.973Zm0-6.57a2.086,2.086,0,1,1-2.086,2.086,2.086,2.086,0,0,1,2.086-2.086ZM361.191,58.156a2.086,2.086,0,1,1,2.086-2.086A2.086,2.086,0,0,1,361.191,58.156Zm12.975,2.41a2.086,2.086,0,1,1-2.086,2.086,2.086,2.086,0,0,1,2.086-2.086Z" transform="translate(-277.415 -28.009)" fill="#fff"/><path d="M339.311,321.25a18.061,18.061,0,1,0,18.061,18.061A18.061,18.061,0,0,0,339.311,321.25Zm0,33.724a15.663,15.663,0,1,1,15.663-15.663A15.663,15.663,0,0,1,339.311,354.974Z" transform="translate(-249.047 -249.047)" fill="#fff"/><path d="M402.077,381.48l-9.823-6.075a1.2,1.2,0,0,0-1.83,1.019v12.151a1.2,1.2,0,0,0,1.83,1.019l9.823-6.075a1.2,1.2,0,0,0,0-2.04Zm-9.254,4.944v-7.848l6.344,3.924Z" transform="translate(-304.398 -292.235)" fill="#fff"/><path d="M28.061,46.123A18.061,18.061,0,1,0,10,28.061,18.061,18.061,0,0,0,28.061,46.123Zm0-33.724A15.663,15.663,0,1,1,12.4,28.061,15.663,15.663,0,0,1,28.061,12.4Z" transform="translate(0 0)" fill="#fff"/><path d="M50.7,78.835h8.581a3.2,3.2,0,0,0,3.2-3.2v-.19l4.382,2.4A1.2,1.2,0,0,0,68.634,76.8V66.528a1.2,1.2,0,0,0-1.776-1.051l-4.381,2.4v-.191a3.2,3.2,0,0,0-3.2-3.2H50.7a3.2,3.2,0,0,0-3.2,3.2v7.947A3.2,3.2,0,0,0,50.7,78.835ZM66.236,68.554v6.22l-3.759-2.063V70.617ZM49.9,67.691a.8.8,0,0,1,.8-.8h8.581a.8.8,0,0,1,.8.8v7.947a.8.8,0,0,1-.8.8H50.7a.8.8,0,0,1-.8-.8Z" transform="translate(-30.006 -43.603)" fill="#fff"/></g></g></svg>