<svg xmlns="http://www.w3.org/2000/svg" width="315.588" height="80.399" viewBox="0 0 315.588 80.399"><g transform="translate(-56.941 -219.879)"><g transform="translate(56.941 219.879)"><path d="M100.264,234.31a8.933,8.933,0,0,0-10.955-6.325l-25.734,6.9a8.946,8.946,0,1,0,4.631,17.281l25.733-6.9A8.956,8.956,0,0,0,100.264,234.31Zm20.458,3.465a8.988,8.988,0,0,0,2.321-.307,8.936,8.936,0,1,0-2.321.307ZM141.87,273.4a8.981,8.981,0,0,0-8.313-5.641,8.66,8.66,0,0,0-1.155.078,8.91,8.91,0,0,0-7.369,6.181,2.113,2.113,0,0,1-2.01,1.5,2,2,0,0,1-1.363-.539,8.913,8.913,0,0,0-8.4-2.087l-36.195,9.7a9.234,9.234,0,0,0-6.8,10.8,8.936,8.936,0,0,0,11.023,6.592l36.6-9.807a8.9,8.9,0,0,0,6.23-6.01,2.056,2.056,0,0,1,3.352-.9,8.922,8.922,0,0,0,6.082,2.4h0A8.95,8.95,0,0,0,141.87,273.4Z" transform="translate(-56.941 -219.879)" fill="#fff"/><path d="M80.347,304.318a8.955,8.955,0,1,1,2.322-.307,8.955,8.955,0,0,1-2.322.307Zm22.441-6.013a8.947,8.947,0,0,1-2.308-17.588l32.142-8.612a8.945,8.945,0,1,1,4.63,17.281L105.11,298a8.951,8.951,0,0,1-2.321.307Z" transform="translate(-64.689 -247.687)" fill="#fff"/></g><g transform="translate(151.097 237.53)"><g transform="translate(56.655 35.775)"><path d="M384.149,346.531a3.357,3.357,0,0,1-.976-.443,3.3,3.3,0,0,1-.778-.717,3.132,3.132,0,0,1-.514-1,4.135,4.135,0,0,1-.184-1.258,4.386,4.386,0,0,1,.148-1.151,3.359,3.359,0,0,1,1.17-1.778,3.146,3.146,0,0,1,1-.516,4.056,4.056,0,0,1,1.243-.184,3.543,3.543,0,0,1,2.777,1.352l-.882.746a2.684,2.684,0,0,0-.85-.7,2.208,2.208,0,0,0-1.044-.262,2.313,2.313,0,0,0-1.2.31,2.116,2.116,0,0,0-.814.877,2.83,2.83,0,0,0-.291,1.308,2.653,2.653,0,0,0,.3,1.267,2.127,2.127,0,0,0,.821.86,2.327,2.327,0,0,0,1.19.305,2.2,2.2,0,0,0,1.056-.259,2.7,2.7,0,0,0,.838-.7l.882.751a3.619,3.619,0,0,1-1.19.974,3.415,3.415,0,0,1-1.587.363A4.141,4.141,0,0,1,384.149,346.531Z" transform="translate(-381.698 -337.368)" fill="#fff"/><path d="M401.168,346.417a3.291,3.291,0,0,1-1.132-.751,3.412,3.412,0,0,1-.724-1.144,4.058,4.058,0,0,1,0-2.868,3.413,3.413,0,0,1,.724-1.144,3.292,3.292,0,0,1,1.132-.751,3.961,3.961,0,0,1,2.862-.012,3.341,3.341,0,0,1,1.129.729,3.3,3.3,0,0,1,.741,1.141,4.143,4.143,0,0,1,0,2.939,3.277,3.277,0,0,1-.741,1.141,3.391,3.391,0,0,1-1.129.729,3.938,3.938,0,0,1-2.862-.01Zm2.36-1.032a2.189,2.189,0,0,0,.732-.514,2.421,2.421,0,0,0,.484-.79,2.855,2.855,0,0,0,0-1.991,2.4,2.4,0,0,0-.484-.788,2.208,2.208,0,0,0-.732-.511,2.251,2.251,0,0,0-.911-.186,2.29,2.29,0,0,0-.94.194,2.146,2.146,0,0,0-.737.528,2.483,2.483,0,0,0-.473.79,2.826,2.826,0,0,0,0,1.941,2.459,2.459,0,0,0,.473.792,2.147,2.147,0,0,0,.737.528,2.29,2.29,0,0,0,.94.194A2.252,2.252,0,0,0,403.527,345.385Z" transform="translate(-390.992 -337.368)" fill="#fff"/><path d="M425.442,339.653v7.05h-1.221l-3.411-4.987h-.02V346.7h-1.2v-7.05h1.187l3.441,5.058h.024v-5.058Z" transform="translate(-401.995 -337.458)" fill="#fff"/><path d="M438.183,339.653h4.434v1.076H439.38v1.943H442v1.076H439.38v1.88h3.445V346.7h-4.642Z" transform="translate(-411.952 -337.458)" fill="#fff"/><path d="M454.519,346.531a3.36,3.36,0,0,1-.977-.443,3.313,3.313,0,0,1-.777-.717,3.124,3.124,0,0,1-.514-1,4.122,4.122,0,0,1-.184-1.258,4.386,4.386,0,0,1,.148-1.151,3.359,3.359,0,0,1,1.17-1.778,3.147,3.147,0,0,1,1-.516,4.058,4.058,0,0,1,1.243-.184,3.543,3.543,0,0,1,2.777,1.352l-.882.746a2.68,2.68,0,0,0-.851-.7,2.206,2.206,0,0,0-1.044-.262,2.314,2.314,0,0,0-1.2.31,2.12,2.12,0,0,0-.814.877,2.83,2.83,0,0,0-.291,1.308,2.658,2.658,0,0,0,.3,1.267,2.13,2.13,0,0,0,.822.86,2.327,2.327,0,0,0,1.19.305,2.206,2.206,0,0,0,1.056-.259,2.708,2.708,0,0,0,.838-.7l.882.751a3.615,3.615,0,0,1-1.19.974,3.415,3.415,0,0,1-1.587.363A4.138,4.138,0,0,1,454.519,346.531Z" transform="translate(-419.389 -337.368)" fill="#fff"/><path d="M471.665,340.729h-2v-1.076h5.219v1.076h-2.021V346.7h-1.2Z" transform="translate(-428.814 -337.458)" fill="#fff"/><path d="M487.282,345.186H484.4l-.528,1.517h-1.25l2.631-7.05h1.168l2.646,7.05h-1.255Zm-.364-1.036-1.071-3.053h-.009l-1.071,3.053Z" transform="translate(-435.756 -337.458)" fill="#fff"/><path d="M506.817,339.653v7.05H505.6l-3.411-4.987h-.02V346.7h-1.2v-7.05h1.187l3.441,5.058h.024v-5.058Z" transform="translate(-445.581 -337.458)" fill="#fff"/><path d="M519.558,339.653H521.8a4.217,4.217,0,0,1,1.512.261,3.278,3.278,0,0,1,1.158.727,3.221,3.221,0,0,1,.729,1.119,3.842,3.842,0,0,1,.26,1.43,3.906,3.906,0,0,1-.252,1.425,3.19,3.19,0,0,1-.712,1.112,3.148,3.148,0,0,1-1.146.72,4.3,4.3,0,0,1-1.519.257h-2.273Zm2.2,5.974a2.731,2.731,0,0,0,1.013-.184,2.224,2.224,0,0,0,.782-.509,2.3,2.3,0,0,0,.494-.775,2.783,2.783,0,0,0-.126-2.239,2.185,2.185,0,0,0-.853-.877,2.456,2.456,0,0,0-1.243-.315h-1.071v4.9Z" transform="translate(-455.538 -337.458)" fill="#fff"/><path d="M538.845,346.417a3.289,3.289,0,0,1-1.131-.751,3.407,3.407,0,0,1-.724-1.144,4.058,4.058,0,0,1,0-2.868,3.407,3.407,0,0,1,.724-1.144,3.29,3.29,0,0,1,1.131-.751,3.961,3.961,0,0,1,2.861-.012,3.341,3.341,0,0,1,1.129.729,3.3,3.3,0,0,1,.741,1.141,4.142,4.142,0,0,1,0,2.939,3.271,3.271,0,0,1-.741,1.141,3.391,3.391,0,0,1-1.129.729,3.938,3.938,0,0,1-2.861-.01Zm2.36-1.032a2.182,2.182,0,0,0,.732-.514,2.42,2.42,0,0,0,.484-.79,2.848,2.848,0,0,0,0-1.991,2.394,2.394,0,0,0-.484-.788,2.2,2.2,0,0,0-.732-.511,2.253,2.253,0,0,0-.911-.186,2.29,2.29,0,0,0-.94.194,2.146,2.146,0,0,0-.736.528,2.48,2.48,0,0,0-.472.79,2.818,2.818,0,0,0,0,1.941,2.457,2.457,0,0,0,.472.792,2.147,2.147,0,0,0,.736.528,2.291,2.291,0,0,0,.94.194A2.255,2.255,0,0,0,541.2,345.385Z" transform="translate(-464.734 -337.368)" fill="#fff"/><path d="M571.841,339.653l-.867,7.05H569.8l.568-4.661h-.025l-2,3.3h-.814l-1.216-3.4h-.02l-.581,4.759h-1.173l.867-7.05h1.255l1.444,4.138h.029l2.427-4.138Z" transform="translate(-479.631 -337.458)" fill="#fff"/><path d="M587.374,342.64h-2.529l-.664,1.532h-1.236l3.223-7.05h1.216l1.492,7.05H587.66Zm-.194-1.017-.567-3.028h-.019l-1.313,3.028Zm.353-5.262h-1.1l1.183-1.429,1.2,0Z" transform="translate(-489.49 -334.926)" fill="#fff"/><path d="M602.85,342.623l.349.194c.091.05.2.115.318.194a3.364,3.364,0,0,1,.3.216,2.507,2.507,0,0,1,.242.235,1.3,1.3,0,0,1,.2.279,1.5,1.5,0,0,1,.118.325,1.618,1.618,0,0,1,.046.392,2.424,2.424,0,0,1-.189.977,1.825,1.825,0,0,1-.521.7,2.4,2.4,0,0,1-.763.412,2.937,2.937,0,0,1-.93.143,3.02,3.02,0,0,1-1.393-.322,2.429,2.429,0,0,1-.976-.865l.867-.795a1.521,1.521,0,0,0,.368.492,1.619,1.619,0,0,0,.5.308,1.577,1.577,0,0,0,.557.1,1.367,1.367,0,0,0,.894-.291.865.865,0,0,0,.352-.7.563.563,0,0,0-.046-.23.86.86,0,0,0-.1-.179.9.9,0,0,0-.189-.167q-.131-.092-.228-.148t-.3-.17c-.138-.076-.249-.14-.337-.191-.042-.026-.108-.065-.2-.116l-.252-.148q-.088-.05-.245-.15c-.1-.066-.185-.122-.242-.167s-.128-.1-.214-.175a1.512,1.512,0,0,1-.2-.2q-.072-.09-.157-.215a1.146,1.146,0,0,1-.128-.248,1.962,1.962,0,0,1-.075-.273,1.548,1.548,0,0,1-.032-.313,1.977,1.977,0,0,1,.182-.848,1.862,1.862,0,0,1,.492-.647,2.3,2.3,0,0,1,.729-.4,2.72,2.72,0,0,1,.894-.145,2.55,2.55,0,0,1,1.148.271,2.583,2.583,0,0,1,.916.751l-.848.746a1.8,1.8,0,0,0-.31-.349,1.344,1.344,0,0,0-.344-.221,1.672,1.672,0,0,0-.33-.106,1.525,1.525,0,0,0-.31-.032,1.063,1.063,0,0,0-.731.244.74.74,0,0,0-.267.6.866.866,0,0,0,.029.194.488.488,0,0,0,.095.175,1.9,1.9,0,0,0,.131.148,1.436,1.436,0,0,0,.2.155q.138.095.23.153c.061.039.159.1.3.175.029.016.05.029.063.039C602.591,342.479,602.708,342.544,602.85,342.623Z" transform="translate(-498.436 -337.368)" fill="#fff"/></g><g transform="translate(0 0)"><path d="M426.173,261.978,408.207,287.77A1.474,1.474,0,0,1,407,288.4l-6.108,0a1.472,1.472,0,0,1-1.468-1.58L400.49,272.2h-.06l-9.449,15.482a1.474,1.474,0,0,1-1.258.705l-6.343,0a1.472,1.472,0,0,1-1.471-1.469l-.055-25.8a1.472,1.472,0,0,1,1.473-1.475l7.281,0a1.472,1.472,0,0,1,1.47,1.535l-.059,12.252h.059l8.135-13.085a1.474,1.474,0,0,1,1.252-.7l5.886,0a1.473,1.473,0,0,1,1.468,1.573l-.835,12.214h.06l8.579-13.114a1.473,1.473,0,0,1,1.233-.666l7.109,0A1.472,1.472,0,0,1,426.173,261.978Z" transform="translate(-325.126 -258.826)" fill="#fff"/><path d="M312.417,259.666a1.611,1.611,0,0,0-1.909-1.585,9.337,9.337,0,0,0-2.638.986,10.945,10.945,0,0,0-3.684,3.417H304.1v-2.107a1.878,1.878,0,0,0-1.878-1.878h-6.989a1.878,1.878,0,0,0-1.878,1.878v25.416a1.878,1.878,0,0,0,1.878,1.878h6.989a1.878,1.878,0,0,0,1.878-1.878v-10.86a5.64,5.64,0,0,1,1.556-4.174,6.164,6.164,0,0,1,4.55-1.556h.378a1.872,1.872,0,0,0,1.882-1.877Zm-26.844,2.411a14.059,14.059,0,0,0-4.712-3.068,15.539,15.539,0,0,0-5.9-1.12,15.874,15.874,0,0,0-7.867,1.949,13.918,13.918,0,0,0-5.446,5.41,16.611,16.611,0,0,0,.059,15.734,13.908,13.908,0,0,0,5.534,5.4,16.33,16.33,0,0,0,7.9,1.9,19.466,19.466,0,0,0,7.97-1.556,15.786,15.786,0,0,0,4.146-2.606,1.937,1.937,0,0,0,.137-2.754l-3.032-3.306a1.929,1.929,0,0,0-2.62-.2,8.642,8.642,0,0,1-5.456,2.019,7.373,7.373,0,0,1-4.1-1.076,4.446,4.446,0,0,1-2.011-3.112H287.45a2.336,2.336,0,0,0,2.327-2.281q.008-.263.008-.541a16,16,0,0,0-1.13-6.036A14.035,14.035,0,0,0,285.573,262.077ZM270.2,269.9a4.675,4.675,0,0,1,1.63-2.865A4.725,4.725,0,0,1,274.9,266a4.814,4.814,0,0,1,1.6.262,3.746,3.746,0,0,1,1.306.77,4.681,4.681,0,0,1,.954,1.236,6.32,6.32,0,0,1,.6,1.629Z" transform="translate(-259.696 -257.889)" fill="#fff"/><path d="M497.556,277.582a1.958,1.958,0,0,0-2.456-.075,6.778,6.778,0,0,1-4.175,1.323A5.53,5.53,0,0,1,486.8,277.2a6.254,6.254,0,0,1-.059-8.289,5.388,5.388,0,0,1,4.066-1.6,6.707,6.707,0,0,1,4.283,1.473,1.989,1.989,0,0,0,2.53,0l4.26-3.6a1.962,1.962,0,0,0,.115-2.9,15.184,15.184,0,0,0-6.395-3.664,18.034,18.034,0,0,0-5.707-.736,17.608,17.608,0,0,0-7.731,1.91,14,14,0,0,0-5.724,5.38,15.284,15.284,0,0,0-2.04,7.911,15.475,15.475,0,0,0,2.011,7.9,13.935,13.935,0,0,0,5.534,5.381,16.326,16.326,0,0,0,7.9,1.9,20.387,20.387,0,0,0,8.146-1.527,15.926,15.926,0,0,0,3.988-2.408,1.951,1.951,0,0,0-.011-2.96Zm29.928-17.773a19.222,19.222,0,0,0-16.747,0,14,14,0,0,0-5.724,5.38,16.359,16.359,0,0,0,0,15.822,13.9,13.9,0,0,0,5.724,5.366,19.358,19.358,0,0,0,16.747,0,14.023,14.023,0,0,0,5.724-5.366,16.255,16.255,0,0,0,0-15.822A14.121,14.121,0,0,0,527.484,259.809Zm-4.55,17.436a4.991,4.991,0,0,1-3.816,1.643,5.262,5.262,0,0,1-1.717-.276,4.889,4.889,0,0,1-1.468-.8,5.689,5.689,0,0,1-1.145-1.222,5.481,5.481,0,0,1-.749-1.6,6.971,6.971,0,0,1,.132-4.218,5.381,5.381,0,0,1,1.1-1.832,5.085,5.085,0,0,1,1.7-1.193,5.3,5.3,0,0,1,2.143-.436,5.01,5.01,0,0,1,3.846,1.614,6.477,6.477,0,0,1-.029,8.318ZM595,266.832a13.586,13.586,0,0,0-7.794-7.823,15.539,15.539,0,0,0-5.9-1.12,15.874,15.874,0,0,0-7.867,1.949,13.918,13.918,0,0,0-5.446,5.41,16.61,16.61,0,0,0,.059,15.734,13.908,13.908,0,0,0,5.534,5.4,16.33,16.33,0,0,0,7.9,1.9,19.466,19.466,0,0,0,7.97-1.556,15.786,15.786,0,0,0,4.146-2.606,1.937,1.937,0,0,0,.137-2.754L590.7,278.06a1.929,1.929,0,0,0-2.62-.2,8.642,8.642,0,0,1-5.456,2.019,7.373,7.373,0,0,1-4.1-1.076,4.446,4.446,0,0,1-2.011-3.112h17.274a2.336,2.336,0,0,0,2.327-2.281q.008-.263.008-.541A16,16,0,0,0,595,266.832ZM576.546,269.9a4.673,4.673,0,0,1,1.63-2.865A4.725,4.725,0,0,1,581.243,266a4.813,4.813,0,0,1,1.6.262,3.746,3.746,0,0,1,1.306.77,4.679,4.679,0,0,1,.954,1.236,6.32,6.32,0,0,1,.6,1.629Z" transform="translate(-374.694 -257.889)" fill="#fff"/><path d="M636.133,267.812a13.2,13.2,0,0,0-3.041-4.651,13.811,13.811,0,0,0-4.813-3.012,17.461,17.461,0,0,0-6.273-1.087h-9.03a2.919,2.919,0,0,0-2.919,2.919v23.465a2.919,2.919,0,0,0,2.919,2.919h9.15a18.02,18.02,0,0,0,6.355-1.067,13.011,13.011,0,0,0,4.762-3,13.155,13.155,0,0,0,2.941-4.622,16.442,16.442,0,0,0,1.027-5.911A16.064,16.064,0,0,0,636.133,267.812ZM625.9,276.259a4.281,4.281,0,0,1-1.373,1.8,3.319,3.319,0,0,1-2.044.67H619.74V268.719h3.035a2.785,2.785,0,0,1,1.415.388,3.642,3.642,0,0,1,1.15,1.057,5.431,5.431,0,0,1,.762,1.6,6.835,6.835,0,0,1,.281,1.984A6.364,6.364,0,0,1,625.9,276.259Z" transform="translate(-447.356 -258.517)" fill="#fff"/></g></g></g></svg>