<svg xmlns="http://www.w3.org/2000/svg" width="273.668" height="167.928" viewBox="0 0 273.668 167.928"><g transform="translate(56.929)"><path d="M283.1,149.062a11.044,11.044,0,0,0-13.54-7.818l-31.8,8.522a11.056,11.056,0,1,0,5.724,21.358l31.8-8.522A11.069,11.069,0,0,0,283.1,149.062Zm25.284,4.282a11.11,11.11,0,0,0,2.869-.38,11.042,11.042,0,1,0-2.869.38Zm26.136,44.023a11.1,11.1,0,0,0-10.275-6.972,10.72,10.72,0,0,0-1.428.1,11.013,11.013,0,0,0-9.108,7.639,2.612,2.612,0,0,1-2.484,1.849,2.472,2.472,0,0,1-1.685-.666,11.012,11.012,0,0,0-10.378-2.58L254.429,208.72c-5.991,1.605-9.761,7.592-8.4,13.345a11.042,11.042,0,0,0,13.623,8.147l45.235-12.12a11,11,0,0,0,7.7-7.427,2.541,2.541,0,0,1,4.143-1.11,11.027,11.027,0,0,0,7.517,2.961h0a11.062,11.062,0,0,0,10.275-15.15Z" transform="translate(-229.557 -131.227)" fill="#fff"/><path d="M257.941,233.632a11.067,11.067,0,1,1,2.869-.38,11.067,11.067,0,0,1-2.869.38Zm27.735-7.431a11.057,11.057,0,0,1-2.853-21.738l39.724-10.644a11.056,11.056,0,0,1,5.722,21.359l-39.725,10.644a11.071,11.071,0,0,1-2.868.38Z" transform="translate(-238.589 -163.642)" fill="#fff"/></g><g transform="translate(70.02 156.406)"><path d="M259.92,471.954a4.151,4.151,0,0,1-2.168-1.434,3.871,3.871,0,0,1-.635-1.234,5.1,5.1,0,0,1-.228-1.554,5.421,5.421,0,0,1,.182-1.422,4.156,4.156,0,0,1,1.446-2.2,3.887,3.887,0,0,1,1.23-.638,5.017,5.017,0,0,1,1.536-.228,4.378,4.378,0,0,1,3.431,1.671l-1.09.922a3.312,3.312,0,0,0-1.051-.868,2.733,2.733,0,0,0-1.29-.323,2.859,2.859,0,0,0-1.485.383,2.616,2.616,0,0,0-1.006,1.084,3.5,3.5,0,0,0-.36,1.617,3.281,3.281,0,0,0,.365,1.566,2.632,2.632,0,0,0,1.015,1.063,2.877,2.877,0,0,0,1.471.377,2.722,2.722,0,0,0,1.305-.32,3.333,3.333,0,0,0,1.036-.865l1.09.928a4.463,4.463,0,0,1-1.47,1.2,4.217,4.217,0,0,1-1.961.449A5.107,5.107,0,0,1,259.92,471.954Z" transform="translate(-256.89 -460.63)" fill="#fff"/><path d="M280.3,471.814a4.072,4.072,0,0,1-1.4-.928,4.22,4.22,0,0,1-.895-1.414,5.015,5.015,0,0,1,0-3.545,4.215,4.215,0,0,1,.895-1.413,4.066,4.066,0,0,1,1.4-.929,4.893,4.893,0,0,1,3.537-.015,4.136,4.136,0,0,1,1.4.9,4.085,4.085,0,0,1,.916,1.411,5.128,5.128,0,0,1,0,3.632,4.051,4.051,0,0,1-.916,1.41,4.2,4.2,0,0,1-1.4.9,4.873,4.873,0,0,1-3.537-.012Zm2.916-1.275a2.715,2.715,0,0,0,.9-.635,3,3,0,0,0,.6-.977,3.532,3.532,0,0,0,0-2.461,2.957,2.957,0,0,0-.6-.973,2.72,2.72,0,0,0-.9-.632,2.774,2.774,0,0,0-1.126-.231,2.824,2.824,0,0,0-1.162.24,2.648,2.648,0,0,0-.91.652,3.055,3.055,0,0,0-.584.977,3.487,3.487,0,0,0,0,2.4,3.036,3.036,0,0,0,.584.979,2.645,2.645,0,0,0,.91.653,2.832,2.832,0,0,0,1.162.24A2.783,2.783,0,0,0,283.216,470.539Z" transform="translate(-267.724 -460.63)" fill="#fff"/><path d="M309.529,463.447v8.714h-1.51L303.8,466h-.024v6.162H302.3v-8.714h1.467l4.252,6.252h.03v-6.252Z" transform="translate(-280.551 -460.734)" fill="#fff"/><path d="M324.576,463.447h5.48v1.33h-4v2.4h3.234v1.33h-3.234v2.323h4.258v1.33h-5.737Z" transform="translate(-292.157 -460.734)" fill="#fff"/><path d="M344.243,471.954a4.142,4.142,0,0,1-1.207-.548,4.1,4.1,0,0,1-.961-.886,3.891,3.891,0,0,1-.635-1.234,5.1,5.1,0,0,1-.227-1.554,5.421,5.421,0,0,1,.182-1.422,4.156,4.156,0,0,1,1.446-2.2,3.891,3.891,0,0,1,1.23-.638,5.017,5.017,0,0,1,1.536-.228,4.378,4.378,0,0,1,3.431,1.671l-1.09.922a3.318,3.318,0,0,0-1.051-.868,2.731,2.731,0,0,0-1.29-.323,2.86,2.86,0,0,0-1.485.383,2.619,2.619,0,0,0-1.006,1.084,3.5,3.5,0,0,0-.359,1.617,3.281,3.281,0,0,0,.365,1.566,2.63,2.63,0,0,0,1.015,1.063,2.875,2.875,0,0,0,1.47.377,2.722,2.722,0,0,0,1.305-.32,3.339,3.339,0,0,0,1.036-.865l1.09.928a4.463,4.463,0,0,1-1.47,1.2,4.215,4.215,0,0,1-1.961.449A5.1,5.1,0,0,1,344.243,471.954Z" transform="translate(-300.826 -460.63)" fill="#fff"/><path d="M364.773,464.777H362.3v-1.33h6.45v1.33h-2.5v7.384h-1.479Z" transform="translate(-311.813 -460.734)" fill="#fff"/><path d="M383.586,470.286h-3.558l-.653,1.875H377.83l3.252-8.714h1.444l3.27,8.714h-1.551ZM383.136,469l-1.324-3.773H381.8L380.477,469Z" transform="translate(-319.905 -460.734)" fill="#fff"/><path d="M407.04,463.447v8.714h-1.51L401.314,466h-.024v6.162h-1.479v-8.714h1.467l4.252,6.252h.03v-6.252Z" transform="translate(-331.358 -460.734)" fill="#fff"/><path d="M422.087,463.447h2.773a5.218,5.218,0,0,1,1.868.323,4.061,4.061,0,0,1,1.431.9,3.982,3.982,0,0,1,.9,1.383,4.755,4.755,0,0,1,.32,1.767,4.831,4.831,0,0,1-.311,1.761,3.955,3.955,0,0,1-.88,1.375,3.9,3.9,0,0,1-1.417.889,5.312,5.312,0,0,1-1.878.317h-2.809Zm2.719,7.384a3.371,3.371,0,0,0,1.252-.228,2.742,2.742,0,0,0,.967-.629,2.828,2.828,0,0,0,.611-.958,3.441,3.441,0,0,0-.156-2.767,2.7,2.7,0,0,0-1.054-1.084,3.034,3.034,0,0,0-1.536-.389h-1.323v6.055Z" transform="translate(-342.965 -460.734)" fill="#fff"/><path d="M445.278,471.814a4.072,4.072,0,0,1-1.4-.928,4.221,4.221,0,0,1-.9-1.414,5.021,5.021,0,0,1,0-3.545,4.217,4.217,0,0,1,.9-1.413,4.066,4.066,0,0,1,1.4-.929,4.892,4.892,0,0,1,3.536-.015,4,4,0,0,1,2.312,2.312,5.128,5.128,0,0,1,0,3.632,4.059,4.059,0,0,1-.916,1.41,4.192,4.192,0,0,1-1.4.9,4.872,4.872,0,0,1-3.536-.012Zm2.917-1.275a2.718,2.718,0,0,0,.9-.635,3,3,0,0,0,.6-.977,3.525,3.525,0,0,0,0-2.461,2.956,2.956,0,0,0-.6-.973,2.723,2.723,0,0,0-.9-.632,2.78,2.78,0,0,0-1.126-.231,2.824,2.824,0,0,0-1.162.24,2.649,2.649,0,0,0-.91.652,3.057,3.057,0,0,0-.584.977,3.494,3.494,0,0,0,0,2.4,3.038,3.038,0,0,0,.584.979,2.645,2.645,0,0,0,.91.653,2.832,2.832,0,0,0,1.162.24A2.788,2.788,0,0,0,448.195,470.539Z" transform="translate(-353.685 -460.63)" fill="#fff"/><path d="M485.012,463.447l-1.072,8.714h-1.449l.7-5.761h-.031l-2.473,4.078h-1.006l-1.5-4.2h-.023l-.719,5.881h-1.449l1.072-8.714h1.551l1.785,5.114h.036l3-5.114Z" transform="translate(-371.049 -460.734)" fill="#fff"/><path d="M503.518,467.317h-3.127l-.82,1.892h-1.527l3.983-8.714h1.5l1.844,8.714h-1.5Zm-.24-1.258-.7-3.743h-.024l-1.623,3.743Zm.437-6.5h-1.36l1.462-1.767,1.479-.006Z" transform="translate(-382.542 -457.783)" fill="#fff"/><path d="M522.016,467.125l.431.239q.167.093.392.239a4.165,4.165,0,0,1,.368.267,3.092,3.092,0,0,1,.3.29,1.6,1.6,0,0,1,.246.344,1.845,1.845,0,0,1,.147.4,2,2,0,0,1,.057.485,2.994,2.994,0,0,1-.233,1.207,2.251,2.251,0,0,1-.644.868,2.975,2.975,0,0,1-.944.51,3.641,3.641,0,0,1-1.15.176,3.733,3.733,0,0,1-1.721-.4,3,3,0,0,1-1.206-1.069l1.072-.982a1.874,1.874,0,0,0,.455.608,2,2,0,0,0,.623.381,1.96,1.96,0,0,0,.689.125,1.688,1.688,0,0,0,1.1-.36,1.067,1.067,0,0,0,.434-.868.7.7,0,0,0-.056-.284,1.05,1.05,0,0,0-.129-.222,1.1,1.1,0,0,0-.233-.206q-.162-.114-.282-.183t-.374-.21q-.254-.14-.416-.237-.078-.047-.246-.143l-.311-.183c-.072-.042-.173-.1-.3-.185a3.506,3.506,0,0,1-.3-.206c-.07-.057-.158-.128-.264-.216a1.883,1.883,0,0,1-.249-.242c-.06-.074-.125-.163-.194-.267a1.42,1.42,0,0,1-.159-.305,2.479,2.479,0,0,1-.093-.339,1.909,1.909,0,0,1-.039-.387,2.443,2.443,0,0,1,.224-1.048,2.3,2.3,0,0,1,.608-.8,2.838,2.838,0,0,1,.9-.5,3.349,3.349,0,0,1,1.1-.18,3.156,3.156,0,0,1,1.419.336,3.194,3.194,0,0,1,1.132.928l-1.048.922a2.223,2.223,0,0,0-.383-.431,1.668,1.668,0,0,0-.425-.273,2.091,2.091,0,0,0-.407-.131,1.9,1.9,0,0,0-.384-.039,1.312,1.312,0,0,0-.9.3.914.914,0,0,0-.33.739,1.088,1.088,0,0,0,.036.24.619.619,0,0,0,.116.216c.058.071.112.133.162.182a1.836,1.836,0,0,0,.246.192c.114.078.208.141.284.188s.2.12.365.216a.794.794,0,0,1,.078.048Q521.752,466.978,522.016,467.125Z" transform="translate(-392.97 -460.63)" fill="#fff"/></g><g transform="translate(0 112.192)"><path d="M311.851,370.458l-22.2,31.876a1.819,1.819,0,0,1-1.494.78l-7.548,0a1.819,1.819,0,0,1-1.814-1.952l1.319-18.062h-.074l-11.679,19.134a1.82,1.82,0,0,1-1.554.872l-7.84,0a1.82,1.82,0,0,1-1.819-1.816l-.068-31.89a1.82,1.82,0,0,1,1.821-1.824l9,.006a1.819,1.819,0,0,1,1.817,1.9l-.074,15.143h.074l10.055-16.172a1.821,1.821,0,0,1,1.547-.859l7.275,0a1.82,1.82,0,0,1,1.815,1.944l-1.032,15.1h.074l10.6-16.208a1.82,1.82,0,0,1,1.524-.823l8.786.005A1.82,1.82,0,0,1,311.851,370.458Z" transform="translate(-186.967 -366.563)" fill="#fff"/><path d="M175.854,367.667a1.99,1.99,0,0,0-2.359-1.959,11.531,11.531,0,0,0-3.26,1.219,13.527,13.527,0,0,0-4.553,4.223h-.109v-2.6a2.321,2.321,0,0,0-2.321-2.321h-8.637a2.321,2.321,0,0,0-2.321,2.321v31.411a2.321,2.321,0,0,0,2.321,2.321h8.637a2.321,2.321,0,0,0,2.321-2.321V386.535a6.972,6.972,0,0,1,1.923-5.158,7.621,7.621,0,0,1,5.623-1.923h.468a2.315,2.315,0,0,0,2.326-2.32Zm-33.176,2.98a17.389,17.389,0,0,0-5.823-3.792,19.213,19.213,0,0,0-7.293-1.384,19.616,19.616,0,0,0-9.723,2.408,17.2,17.2,0,0,0-6.731,6.686,20.531,20.531,0,0,0,.073,19.446,17.188,17.188,0,0,0,6.839,6.668,20.181,20.181,0,0,0,9.76,2.355,24.06,24.06,0,0,0,9.851-1.923,19.518,19.518,0,0,0,5.124-3.22,2.4,2.4,0,0,0,.17-3.4l-3.747-4.085a2.384,2.384,0,0,0-3.239-.251,10.68,10.68,0,0,1-6.743,2.5,9.115,9.115,0,0,1-5.062-1.329,5.494,5.494,0,0,1-2.485-3.846H145a2.887,2.887,0,0,0,2.876-2.819q.01-.325.01-.668a19.782,19.782,0,0,0-1.4-7.459A17.343,17.343,0,0,0,142.678,370.647Zm-18.993,9.67a5.775,5.775,0,0,1,2.014-3.54,5.837,5.837,0,0,1,3.791-1.276,5.941,5.941,0,0,1,1.978.324,4.629,4.629,0,0,1,1.614.953,5.78,5.78,0,0,1,1.179,1.528,7.809,7.809,0,0,1,.744,2.013Z" transform="translate(-110.696 -365.471)" fill="#fff"/><path d="M396.592,389.809a2.42,2.42,0,0,0-3.035-.093,8.376,8.376,0,0,1-5.16,1.635,6.834,6.834,0,0,1-5.1-2.013,7.731,7.731,0,0,1-.073-10.244,6.662,6.662,0,0,1,5.025-1.977,8.287,8.287,0,0,1,5.292,1.82,2.458,2.458,0,0,0,3.127.005l5.266-4.443a2.426,2.426,0,0,0,.142-3.579,18.767,18.767,0,0,0-7.9-4.528,22.284,22.284,0,0,0-7.054-.91,21.764,21.764,0,0,0-9.555,2.361,17.309,17.309,0,0,0-7.075,6.65,18.887,18.887,0,0,0-2.521,9.777,19.13,19.13,0,0,0,2.485,9.759,17.226,17.226,0,0,0,6.839,6.65,20.177,20.177,0,0,0,9.759,2.355,25.2,25.2,0,0,0,10.068-1.887,19.7,19.7,0,0,0,4.929-2.976,2.412,2.412,0,0,0-.013-3.659Zm36.989-21.966a23.761,23.761,0,0,0-20.7,0,17.309,17.309,0,0,0-7.075,6.65,20.218,20.218,0,0,0,0,19.554,17.186,17.186,0,0,0,7.075,6.632,23.922,23.922,0,0,0,20.7,0,17.331,17.331,0,0,0,7.075-6.632,20.092,20.092,0,0,0,0-19.554A17.456,17.456,0,0,0,433.581,367.843Zm-5.623,21.549a6.169,6.169,0,0,1-4.717,2.031,6.513,6.513,0,0,1-2.122-.341,6.063,6.063,0,0,1-1.814-.989,7.026,7.026,0,0,1-1.415-1.51,6.79,6.79,0,0,1-.925-1.977,8.611,8.611,0,0,1,.163-5.212,6.639,6.639,0,0,1,1.36-2.264,6.271,6.271,0,0,1,2.1-1.474,6.543,6.543,0,0,1,2.648-.539,6.192,6.192,0,0,1,4.753,1.995,8,8,0,0,1-.036,10.28Zm89.063-12.869a16.8,16.8,0,0,0-9.633-9.669,19.209,19.209,0,0,0-7.293-1.384,19.616,19.616,0,0,0-9.723,2.408,17.194,17.194,0,0,0-6.731,6.686,20.531,20.531,0,0,0,.073,19.446,17.188,17.188,0,0,0,6.839,6.668,20.179,20.179,0,0,0,9.76,2.355,24.06,24.06,0,0,0,9.851-1.923,19.517,19.517,0,0,0,5.124-3.22,2.4,2.4,0,0,0,.169-3.4l-3.747-4.085a2.385,2.385,0,0,0-3.239-.251,10.679,10.679,0,0,1-6.742,2.5,9.114,9.114,0,0,1-5.062-1.329,5.494,5.494,0,0,1-2.485-3.846H515.53a2.887,2.887,0,0,0,2.876-2.819q.01-.325.01-.668A19.781,19.781,0,0,0,517.02,376.524Zm-22.8,3.792a5.775,5.775,0,0,1,2.014-3.54,5.837,5.837,0,0,1,3.791-1.276,5.943,5.943,0,0,1,1.978.324,4.63,4.63,0,0,1,1.614.953,5.79,5.79,0,0,1,1.179,1.528,7.807,7.807,0,0,1,.744,2.013Z" transform="translate(-244.748 -365.471)" fill="#fff"/><path d="M562.758,377.691A16.315,16.315,0,0,0,559,371.942a17.082,17.082,0,0,0-5.949-3.722,21.575,21.575,0,0,0-7.752-1.344H534.138a3.608,3.608,0,0,0-3.607,3.608v29a3.608,3.608,0,0,0,3.607,3.608h11.309a22.276,22.276,0,0,0,7.853-1.319,16.085,16.085,0,0,0,5.886-3.71,16.262,16.262,0,0,0,3.635-5.712,20.323,20.323,0,0,0,1.269-7.3A19.852,19.852,0,0,0,562.758,377.691ZM550.117,388.13a5.289,5.289,0,0,1-1.7,2.224,4.1,4.1,0,0,1-2.526.828h-3.4v-12.37h3.751a3.44,3.44,0,0,1,1.749.479,4.508,4.508,0,0,1,1.421,1.307,6.733,6.733,0,0,1,.941,1.98,8.451,8.451,0,0,1,.348,2.452A7.868,7.868,0,0,1,550.117,388.13Z" transform="translate(-329.449 -366.203)" fill="#fff"/></g></svg>