<svg xmlns="http://www.w3.org/2000/svg" width="183" height="183" viewBox="0 0 183 183"><g transform="translate(-248 -1383)"><circle cx="91.5" cy="91.5" r="91.5" transform="translate(248 1383)" fill="#fff" opacity="0.2"/><g transform="translate(284.813 1419.813)"><g transform="translate(0 0)"><path d="M94.21,16.164A55.187,55.187,0,1,0,16.164,94.21,55.187,55.187,0,1,0,94.21,16.164ZM55.187,106.889a51.7,51.7,0,1,1,51.7-51.7A51.76,51.76,0,0,1,55.187,106.889Z" transform="translate(0 0)" fill="#fff"/></g><g transform="translate(20.913 20.913)"><path d="M151.084,97.011h-39.6a14.491,14.491,0,0,0-14.475,14.475v39.6a14.491,14.491,0,0,0,14.475,14.474h39.6a14.491,14.491,0,0,0,14.474-14.475v-39.6A14.491,14.491,0,0,0,151.084,97.011Zm10.989,54.073a11,11,0,0,1-10.989,10.989h-39.6A11,11,0,0,1,100.5,151.084v-39.6A11,11,0,0,1,111.486,100.5h39.6a11,11,0,0,1,10.989,10.989v39.6Z" transform="translate(-97.011 -97.011)" fill="#fff"/></g><g transform="translate(37.179 37.179)"><path d="M208.451,189.442a18.028,18.028,0,1,0-8.476,16.317,1.727,1.727,0,0,0,.311-2.686l-.025-.025a1.736,1.736,0,0,0-2.149-.232,14.432,14.432,0,0,1-7.795,2.178,14.538,14.538,0,1,1,12.987-7.733,1.735,1.735,0,0,0,.293,2.046l.027.027a1.721,1.721,0,0,0,2.732-.391A17.9,17.9,0,0,0,208.451,189.442Z" transform="translate(-172.463 -172.464)" fill="#fff"/></g><g transform="translate(69.129 29.627)"><circle cx="4.647" cy="4.647" r="4.647" fill="#fff"/></g></g></g></svg>