<svg xmlns="http://www.w3.org/2000/svg" width="35.385" height="35.385" viewBox="0 0 35.385 35.385"><path d="M37.411,23.88H26.824a3.068,3.068,0,0,0-3.065,3.065V37.532A3.069,3.069,0,0,0,26.824,40.6H37.411a3.069,3.069,0,0,0,3.065-3.065V26.945A3.068,3.068,0,0,0,37.411,23.88ZM32.117,37.742a5.5,5.5,0,1,1,5.5-5.5A5.509,5.509,0,0,1,32.117,37.742Zm5.68-9.868a1.3,1.3,0,1,1,1.3-1.3A1.3,1.3,0,0,1,37.8,27.873Z" transform="translate(-14.425 -14.498)" fill="#fff"/><path d="M40.027,36.971A3.178,3.178,0,1,0,43.2,40.148,3.182,3.182,0,0,0,40.027,36.971Z" transform="translate(-22.334 -22.408)" fill="#fff"/><path d="M17.692,0A17.692,17.692,0,1,0,35.385,17.692,17.693,17.693,0,0,0,17.692,0ZM28.335,23.013a5.375,5.375,0,0,1-5.369,5.369H12.419A5.375,5.375,0,0,1,7.05,23.013V12.467A5.375,5.375,0,0,1,12.419,7.1H22.966a5.375,5.375,0,0,1,5.369,5.369Z" fill="#fff"/></svg>