<svg xmlns="http://www.w3.org/2000/svg" xmlns:xlink="http://www.w3.org/1999/xlink" width="150" height="150" viewBox="0 0 150 150"><defs><clipPath id="a"><rect width="150" height="150" transform="translate(469.5 1331)" fill="#fff" stroke="#707070" stroke-width="1"/></clipPath></defs><g transform="translate(-469.5 -1331)" clip-path="url(#a)"><g transform="translate(495.952 1337.661)"><path d="M97.1,29.394H0L9.1,128.1l39.44,11.186L87.983,128.1Z" transform="translate(0 -2.61)" fill="#e6a329"/><path d="M53.274,38.22v93.488l31.955-9.054L93,38.22Z" transform="translate(-4.731 -3.394)" fill="#f1bf22"/><path d="M76.052,51.51H26.918L23.5,88.468l.071-.23H65.309l-1.361,15.636-13.318,3.832-13.515-3.893-.809-9.464H24.037l1.749,18.911,24.843,7.053,24.854-7.053,3.422-37.116h-44.3l.569-12.367H65.91l.459,7.085H78.747Z" transform="translate(-2.087 -4.575)" fill="#fff"/><path d="M50.64,51.51H26.918L23.5,88.468l.071-.23H50.64V76.183H36.333L36.9,63.817H50.64ZM36.333,94.35h-12.3l1.749,18.9,24.843,7.042V107.718l-13.515-3.9Z" transform="translate(-2.087 -4.575)" fill="#ebebeb"/><path d="M42.07,12.225H33.426V18.43H48.253V0H42.07ZM69.6.1H54.535V6.55c2.012,2.012,3.062,2.98,6.025,5.894H54.535v5.883H69.6V12.454L63.577,6.561H69.6Z" transform="translate(-2.969)" fill="#231f20"/></g></g></svg>