<svg xmlns="http://www.w3.org/2000/svg" width="183" height="183" viewBox="0 0 183 183"><g transform="translate(-248 -1383)"><circle cx="91.5" cy="91.5" r="91.5" transform="translate(248 1383)" fill="#fff" opacity="0.2"/><g transform="translate(298.737 1423.219)"><path d="M26.523,25a2.023,2.023,0,1,0,2.023,2.023A2.025,2.025,0,0,0,26.523,25Zm0,0" transform="translate(-19.545 -19.943)" fill="#fff"/><path d="M61.523,25a2.023,2.023,0,1,0,2.023,2.023A2.025,2.025,0,0,0,61.523,25Zm0,0" transform="translate(-47.465 -19.943)" fill="#fff"/><path d="M96.523,25a2.023,2.023,0,1,0,2.023,2.023A2.025,2.025,0,0,0,96.523,25Zm0,0" transform="translate(-75.386 -19.943)" fill="#fff"/><path d="M76.963,0H5.562A5.569,5.569,0,0,0,0,5.562V88.9a1.517,1.517,0,1,0,3.034,0V48.342H28.578a4.559,4.559,0,0,0,4.29,3.034H49.657a4.559,4.559,0,0,0,4.29-3.034H79.492V98a2.531,2.531,0,0,1-2.528,2.528H5.562A2.531,2.531,0,0,1,3.034,98V95.978a1.517,1.517,0,1,0-3.034,0V98a5.569,5.569,0,0,0,5.562,5.562h71.4A5.569,5.569,0,0,0,82.526,98V5.562A5.569,5.569,0,0,0,76.963,0ZM49.657,48.342H32.869a1.517,1.517,0,0,1,0-3.034H49.657a1.517,1.517,0,0,1,0,3.034Zm29.835-3.034H53.947a4.559,4.559,0,0,0-4.29-3.034H32.869a4.559,4.559,0,0,0-4.29,3.034H3.034V14.159h70.9a1.517,1.517,0,1,0,0-3.034H3.034V5.562A2.531,2.531,0,0,1,5.562,3.034h71.4a2.531,2.531,0,0,1,2.528,2.528Zm0,0" transform="translate(0)" fill="#fff"/><path d="M86.861,111.017a1.517,1.517,0,0,0-1.517-1.517H74.017a1.517,1.517,0,1,0,0,3.034H85.344A1.517,1.517,0,0,0,86.861,111.017Zm0,0" transform="translate(-57.836 -87.352)" fill="#fff"/><path d="M160.017,112.534h15.372a1.517,1.517,0,0,0,0-3.034H160.017a1.517,1.517,0,1,0,0,3.034Zm0,0" transform="translate(-126.44 -87.352)" fill="#fff"/><path d="M277.344,109.5H266.017a1.517,1.517,0,1,0,0,3.034h11.327a1.517,1.517,0,1,0,0-3.034Zm0,0" transform="translate(-211 -87.352)" fill="#fff"/><path d="M127.9,141.017a1.517,1.517,0,0,0-1.517-1.517H112.017a1.517,1.517,0,0,0,0,3.034h14.361A1.517,1.517,0,0,0,127.9,141.017Zm0,0" transform="translate(-88.149 -111.283)" fill="#fff"/><path d="M227.378,139.5H213.017a1.517,1.517,0,1,0,0,3.034h14.361a1.517,1.517,0,0,0,0-3.034Zm0,0" transform="translate(-168.72 -111.283)" fill="#fff"/><path d="M170.446,169.5H150.017a1.517,1.517,0,1,0,0,3.034h20.429a1.517,1.517,0,1,0,0-3.034Zm0,0" transform="translate(-118.463 -135.215)" fill="#fff"/><path d="M58.293,268.5a8.293,8.293,0,1,0,8.293,8.293A8.3,8.3,0,0,0,58.293,268.5Zm0,13.552a5.259,5.259,0,1,1,5.259-5.259A5.265,5.265,0,0,1,58.293,282.052Zm0,0" transform="translate(-39.887 -214.191)" fill="#fff"/><path d="M59.017,365.5a1.517,1.517,0,0,0,0,3.034H69.535a1.517,1.517,0,0,0,0-3.034Zm0,0" transform="translate(-45.87 -291.571)" fill="#fff"/><path d="M171.293,268.5a8.293,8.293,0,1,0,8.293,8.293A8.3,8.3,0,0,0,171.293,268.5Zm0,13.552a5.259,5.259,0,1,1,5.259-5.259A5.265,5.265,0,0,1,171.293,282.052Zm0,0" transform="translate(-130.03 -214.191)" fill="#fff"/><path d="M184.052,367.017a1.517,1.517,0,0,0-1.517-1.517H172.017a1.517,1.517,0,0,0,0,3.034h10.518A1.517,1.517,0,0,0,184.052,367.017Zm0,0" transform="translate(-136.013 -291.571)" fill="#fff"/><path d="M284.293,268.5a8.293,8.293,0,1,0,8.293,8.293A8.3,8.3,0,0,0,284.293,268.5Zm0,13.552a5.259,5.259,0,1,1,5.259-5.259A5.265,5.265,0,0,1,284.293,282.052Zm0,0" transform="translate(-220.174 -214.191)" fill="#fff"/><path d="M285.017,365.5a1.517,1.517,0,1,0,0,3.034h10.518a1.517,1.517,0,0,0,0-3.034Zm0,0" transform="translate(-226.157 -291.571)" fill="#fff"/><path d="M49,414.058a2.531,2.531,0,0,0,2.528,2.528H75.194a2.531,2.531,0,0,0,2.528-2.528V402.528A2.531,2.531,0,0,0,75.194,400H51.528A2.531,2.531,0,0,0,49,402.528Zm10.893-.506,2.395-2.395a1.52,1.52,0,0,1,2.146,0l2.395,2.395Zm-7.858-10.518H74.688v10.518h-3.57l-4.54-4.54a4.556,4.556,0,0,0-6.436,0l-4.541,4.54H52.034Zm0,0" transform="translate(-39.089 -319.092)" fill="#fff"/><path d="M217,402.528v11.529a2.531,2.531,0,0,0,2.528,2.528h23.665a2.531,2.531,0,0,0,2.528-2.528V402.528A2.531,2.531,0,0,0,243.194,400H219.528A2.531,2.531,0,0,0,217,402.528Zm10.893,11.024,2.395-2.395a1.52,1.52,0,0,1,2.146,0l2.395,2.395Zm-7.858-10.518h22.654v10.518h-3.57l-4.54-4.54a4.556,4.556,0,0,0-6.436,0l-4.541,4.54h-3.567Zm0,0" transform="translate(-173.108 -319.092)" fill="#fff"/></g></g></svg>