<svg xmlns="http://www.w3.org/2000/svg" xmlns:xlink="http://www.w3.org/1999/xlink" width="762.91" height="654.636" viewBox="0 0 762.91 654.636">
  <defs>
    <linearGradient id="linear-gradient" x1="0.1" y1="0.091" x2="0.736" y2="0.506" gradientUnits="objectBoundingBox">
      <stop offset="0" stop-color="#1a1a59"/>
      <stop offset="0.07" stop-color="#1a1a59" stop-opacity="0.796"/>
      <stop offset="0.194" stop-color="#1a1a59" stop-opacity="0.506"/>
      <stop offset="0.331" stop-color="#1a1a59" stop-opacity="0.278"/>
      <stop offset="0.487" stop-color="#1a1a59" stop-opacity="0.122"/>
      <stop offset="0.677" stop-color="#1a1a59" stop-opacity="0.027"/>
      <stop offset="1" stop-color="#1a1a59" stop-opacity="0"/>
    </linearGradient>
    <linearGradient id="linear-gradient-2" x1="0.333" y1="0.672" x2="0.844" y2="0.847" gradientUnits="objectBoundingBox">
      <stop offset="0" stop-color="#1a1a59"/>
      <stop offset="0.081" stop-color="#1a1a59" stop-opacity="0.706"/>
      <stop offset="0.176" stop-color="#1a1a59" stop-opacity="0.447"/>
      <stop offset="0.287" stop-color="#1a1a59" stop-opacity="0.247"/>
      <stop offset="0.419" stop-color="#1a1a59" stop-opacity="0.106"/>
      <stop offset="0.596" stop-color="#1a1a59" stop-opacity="0.024"/>
      <stop offset="1" stop-color="#1a1a59" stop-opacity="0"/>
    </linearGradient>
    <linearGradient id="linear-gradient-3" x1="0.426" y1="0.105" x2="0.641" y2="0.935" xlink:href="#linear-gradient-2"/>
    <linearGradient id="linear-gradient-4" x1="0.375" y1="0.206" x2="0.967" y2="0.565" xlink:href="#linear-gradient"/>
  </defs>
  <g id="laptop" transform="translate(-291.699 -67.44)">
    <circle id="Elipse_236" data-name="Elipse 236" cx="156.659" cy="156.659" r="156.659" transform="translate(291.699 500.526) rotate(-45)" fill="#00f5ff"/>
    <circle id="Elipse_237" data-name="Elipse 237" cx="75.721" cy="75.721" r="75.721" transform="translate(783.428 216.927) rotate(-80.783)" fill="#00f5ff"/>
    <g id="Grupo_1436" data-name="Grupo 1436" transform="translate(348.952 124.443)">
      <g id="Grupo_1425" data-name="Grupo 1425" transform="translate(494.404 150.665)">
        <path id="Trazado_4751" data-name="Trazado 4751" d="M670.9,372.3l-68.969-87.6,153.018-78.4,54.441,81.325Z" transform="translate(-598.134 -165.341)" opacity="0.7" fill="url(#linear-gradient)" style="mix-blend-mode: multiply;isolation: isolate"/>
        <g id="Grupo_1424" data-name="Grupo 1424">
          <path id="Trazado_4752" data-name="Trazado 4752" d="M759.185,244.318a21.207,21.207,0,0,0-12.42-27.3L660.7,184.78A21.21,21.21,0,0,0,633.4,197.2L601.161,283.26a21.216,21.216,0,0,0,12.422,27.3L699.645,342.8a21.216,21.216,0,0,0,27.3-12.422Z" transform="translate(-599.809 -183.426)" fill="#939df9"/>
          <g id="Grupo_1423" data-name="Grupo 1423" transform="translate(24.081 23.14)">
            <path id="Trazado_4753" data-name="Trazado 4753" d="M715.559,283.422a55.9,55.9,0,1,0-77.568,15.23A55.892,55.892,0,0,0,715.559,283.422Z" transform="translate(-613.258 -196.35)" fill="#fff"/>
            <path id="Trazado_4754" data-name="Trazado 4754" d="M699.467,270.776a43.24,43.24,0,1,0-60.007,11.781A43.24,43.24,0,0,0,699.467,270.776Z" transform="translate(-607.671 -190.762)" fill="#1a1a59"/>
            <g id="Grupo_1422" data-name="Grupo 1422" transform="translate(23.216 23.236)">
              <path id="Trazado_4755" data-name="Trazado 4755" d="M636.585,227a34.808,34.808,0,0,1,35.986-14.666,32.65,32.65,0,0,0-35.956,53.526A34.808,34.808,0,0,1,636.585,227Z" transform="translate(-626.225 -209.328)" fill="#777ce0"/>
            </g>
            <path id="Trazado_4756" data-name="Trazado 4756" d="M694.763,262.8a10.019,10.019,0,0,1-13.9,2.729l-11.38-7.645a10.018,10.018,0,0,1-2.73-13.9h0a10.018,10.018,0,0,1,13.9-2.727l11.382,7.645a10.019,10.019,0,0,1,2.729,13.9Z" transform="translate(-572.323 -162.202)" fill="#fff"/>
          </g>
        </g>
      </g>
      <g id="Grupo_1429" data-name="Grupo 1429" transform="translate(0 227.111)">
        <path id="Trazado_4757" data-name="Trazado 4757" d="M360.241,402.654l-36.565-43.167L402.231,226.6l36.88,41.988Z" transform="translate(-323.676 -225.742)" opacity="0.7" fill="url(#linear-gradient-2)" style="mix-blend-mode: multiply;isolation: isolate"/>
        <g id="Grupo_1428" data-name="Grupo 1428">
          <path id="Trazado_4758" data-name="Trazado 4758" d="M379.385,235.441a6.175,6.175,0,0,0-2.172-8.456h0a6.174,6.174,0,0,0-8.46,2.174l-12.567,21.26a6.174,6.174,0,0,0,2.174,8.458h0a6.171,6.171,0,0,0,8.456-2.174Z" transform="translate(-298.658 -226.123)" fill="#28287f"/>
          <rect id="Rectángulo_81" data-name="Rectángulo 81" width="123.491" height="12.349" transform="matrix(0.509, -0.861, 0.861, 0.509, 4.11, 114.654)" fill="#1a1a59"/>
          <rect id="Rectángulo_82" data-name="Rectángulo 82" width="12.348" height="12.349" transform="translate(60.669 18.98) rotate(-59.415)" fill="#777ce0"/>
          <g id="Grupo_1426" data-name="Grupo 1426" transform="translate(55.701 27.035)">
            <path id="Trazado_4759" data-name="Trazado 4759" d="M361.167,242.83c-.433-.254-.836-.181-1.2.435l-.544.917-1.273-.756.492-.831c.811-1.373,1.961-1.755,3.286-.97s1.545,1.973.734,3.345c-1.594,2.7-4.872,2.116-5.7,3.525a.837.837,0,0,0-.1.192l2.55,1.506-.725,1.225-3.9-2.3.623-1.053c1.493-2.526,4.413-1.364,5.878-3.839C361.742,243.451,361.593,243.082,361.167,242.83Z" transform="translate(-354.786 -241.222)" fill="#00f5ff"/>
          </g>
          <g id="Grupo_1427" data-name="Grupo 1427" transform="translate(0 114.656)">
            <path id="Trazado_4760" data-name="Trazado 4760" d="M323.676,303.631l4.914-4.268-3.545-2.1Z" transform="translate(-323.676 -284.542)" fill="#1a1a59"/>
            <path id="Trazado_4761" data-name="Trazado 4761" d="M327.183,290.16l-2.743,12.725,3.545,2.1,9.828-8.536Z" transform="translate(-323.071 -290.16)" fill="#777ce0"/>
          </g>
        </g>
      </g>
      <g id="Grupo_1432" data-name="Grupo 1432" transform="translate(69.346)">
        <path id="Trazado_4762" data-name="Trazado 4762" d="M534.215,522.98,364.7,321.028l379.706-82.517,133.17,193.115Z" transform="translate(-360.594 10.781)" opacity="0.7" fill="url(#linear-gradient-3)" style="mix-blend-mode: multiply;isolation: isolate"/>
        <g id="Grupo_1431" data-name="Grupo 1431">
          <path id="Trazado_4763" data-name="Trazado 4763" d="M745.6,293.736a18.323,18.323,0,0,0-11.881-23.027L438.946,176.58a18.319,18.319,0,0,0-23.027,11.881L363.281,353.3a18.318,18.318,0,0,0,11.88,23.027l294.778,94.13a18.321,18.321,0,0,0,23.027-11.881Z" transform="translate(-362.407 -38.863)" fill="#777ce0"/>
          <rect id="Rectángulo_83" data-name="Rectángulo 83" width="50.386" height="109.935" rx="2.535" transform="translate(112.887 351.813) rotate(-72.291)" fill="#28287f"/>
          <path id="Trazado_4764" data-name="Trazado 4764" d="M790.018,237.432a18.324,18.324,0,0,0-11.881-23.027L420.333,100.15A18.324,18.324,0,0,0,397.3,112.03L398.849,215.1a18.326,18.326,0,0,0,11.883,23.029l296.715,94.746A18.322,18.322,0,0,0,730.474,321Z" transform="translate(-334.824 -99.277)" fill="#3c3592"/>
          <path id="Trazado_4765" data-name="Trazado 4765" d="M789.657,240.217a18.323,18.323,0,0,0-11.881-23.025L419.97,102.935a18.324,18.324,0,0,0-23.029,11.881l1.547,103.073a18.322,18.322,0,0,0,11.883,23.027l296.713,94.747a18.321,18.321,0,0,0,23.027-11.88Z" transform="translate(-335.109 -97.076)" fill="#1a1a59"/>
          <g id="Grupo_1430" data-name="Grupo 1430" transform="translate(44.796 162.489)">
            <rect id="Rectángulo_84" data-name="Rectángulo 84" width="313.945" height="6.114" transform="translate(22.147 0) rotate(17.913)" fill="#28287f"/>
            <rect id="Rectángulo_85" data-name="Rectángulo 85" width="313.945" height="6.114" transform="translate(18.094 12.54) rotate(17.913)" fill="#28287f"/>
            <rect id="Rectángulo_86" data-name="Rectángulo 86" width="313.945" height="6.114" transform="translate(14.041 25.079) rotate(17.913)" fill="#28287f"/>
            <rect id="Rectángulo_87" data-name="Rectángulo 87" width="313.945" height="6.114" transform="translate(9.987 37.619) rotate(17.913)" fill="#28287f"/>
            <rect id="Rectángulo_88" data-name="Rectángulo 88" width="313.945" height="6.114" transform="translate(5.934 50.159) rotate(17.913)" fill="#28287f"/>
            <rect id="Rectángulo_89" data-name="Rectángulo 89" width="313.945" height="6.114" transform="translate(1.881 62.699) rotate(17.913)" fill="#28287f"/>
          </g>
          <rect id="Rectángulo_90" data-name="Rectángulo 90" width="7.267" height="6.114" transform="translate(104.075 174.491) rotate(17.913)" fill="#48ede7"/>
          <rect id="Rectángulo_91" data-name="Rectángulo 91" width="7.267" height="6.114" transform="translate(285.098 288.405) rotate(17.913)" fill="#48ede7"/>
          <rect id="Rectángulo_92" data-name="Rectángulo 92" width="19.639" height="6.114" transform="translate(241.19 288.062) rotate(17.913)" fill="#48ede7"/>
          <rect id="Rectángulo_93" data-name="Rectángulo 93" width="23.18" height="6.114" transform="matrix(0.952, 0.308, -0.308, 0.952, 119.037, 207.027)" fill="#48ede7"/>
          <path id="Trazado_4766" data-name="Trazado 4766" d="M421.858,106.4,453.43,257.528l58.823,19.09-29.709-150.84Z" transform="translate(-315.413 -93.647)" fill="#4747dd" opacity="0.14"/>
          <path id="Trazado_4767" data-name="Trazado 4767" d="M491.915,128.77l31.059,151.288,19.734,6.511L513.435,135.642Z" transform="translate(-260.036 -75.964)" fill="#4747dd" opacity="0.14"/>
          <rect id="Rectángulo_94" data-name="Rectángulo 94" width="8.398" height="255.747" transform="translate(98.832 154.188) rotate(-72.291)" fill="#0f0f3a"/>
        </g>
      </g>
      <g id="Grupo_1435" data-name="Grupo 1435" transform="translate(422.525 310.857)">
        <path id="Trazado_4768" data-name="Trazado 4768" d="M630.205,470.319l-70.542-87.791,147.793-84.769L760.138,371Z" transform="translate(-559.663 -253.244)" opacity="0.7" fill="url(#linear-gradient-4)" style="mix-blend-mode: multiply;isolation: isolate"/>
        <g id="Grupo_1434" data-name="Grupo 1434" transform="translate(0.005)">
          <g id="Grupo_1433" data-name="Grupo 1433">
            <path id="Trazado_4769" data-name="Trazado 4769" d="M632.3,272.9,559.666,402.147,628.094,440.6s15.2,8.546,23.752-6.661L707.39,335.1s8.544-15.206-6.662-23.752Z" transform="translate(-559.666 -272.896)" fill="#1a1a59"/>
            <rect id="Rectángulo_95" data-name="Rectángulo 95" width="148.263" height="8.721" transform="translate(60.824 163.431) rotate(-60.665)" fill="#00f5ff"/>
          </g>
          <path id="Trazado_4770" data-name="Trazado 4770" d="M627.413,275.527l51.947,30.536L617.021,422.109,562.5,391.036Z" transform="translate(-557.425 -270.816)" fill="#777ce0" opacity="0.22"/>
        </g>
      </g>
    </g>
  </g>
</svg>
