<svg xmlns="http://www.w3.org/2000/svg" xmlns:xlink="http://www.w3.org/1999/xlink" width="150" height="150" viewBox="0 0 150 150"><defs><clipPath id="a"><rect width="150" height="150" transform="translate(801.5 1331)" fill="#fff" stroke="#707070" stroke-width="1"/></clipPath></defs><g transform="translate(-801.5 -1331)" clip-path="url(#a)"><path d="M134.3,43.108c-.962-.962-13.3-16.507-15.385-19.071-2.244-2.564-3.205-2.083-4.648-1.923S97.281,25,95.518,25.159c-1.763.321-2.885.962-1.763,2.564.962,1.442,11.218,15.866,13.462,19.232L66.35,56.731,33.977,2.4C32.695.478,32.374-.163,29.489,0S4.008,2.081,2.4,2.081c-1.6.16-3.366.8-1.763,4.648s27.245,58.977,27.886,60.58,2.564,4.167,6.891,3.205c4.487-1.122,19.873-5.128,28.367-7.372,4.487,8.013,13.462,24.36,15.225,26.764,2.244,3.205,3.846,2.564,7.212,1.6,2.724-.8,41.989-14.9,43.752-15.706s2.885-1.282,1.6-3.045c-.962-1.282-11.218-15.225-16.667-22.437,3.686-.962,16.988-4.487,18.43-4.968,1.6-.481,1.923-1.282.962-2.244ZM60.1,58.333c-.481.16-23.4,5.609-24.52,5.93-1.282.321-1.282.16-1.282-.321C33.977,63.462,7.053,7.69,6.572,7.049c-.321-.641-.321-1.282,0-1.282S28.207,3.844,28.848,3.844c.8,0,.641.16.962.641,0,0,29.969,51.765,30.45,52.566.641.8.321,1.122-.16,1.282Zm64.426,12.02c.321.641.8.962-.481,1.282-1.122.481-38.623,13.142-39.425,13.462s-1.282.481-2.244-.962S69.235,61.7,69.235,61.7L109.14,51.282c.962-.321,1.282-.481,1.923.481.641,1.122,13.142,18.11,13.462,18.591Zm2.564-28.206c-.962.16-15.546,3.846-15.546,3.846L99.525,29.646c-.321-.481-.641-.962.16-1.122S114.109,25.96,114.75,25.8s1.122-.321,1.923.8c.8.962,11.058,14.1,11.539,14.584s-.16.8-1.122.962Z" transform="translate(809.074 1359.868)" fill="#fb503b"/></g></svg>