<svg xmlns="http://www.w3.org/2000/svg" width="115.688" height="90.427" viewBox="0 0 115.688 115.696"><g transform="translate(-0.488 0.001)"><path d="M215.631,90.392a.5.5,0,0,1,.839.361v14.5h17.355V90.495a.474.474,0,0,1,.817-.327l7.584,7.767a4.454,4.454,0,0,0,6.186.181l7.248-6.858a2.681,2.681,0,0,0,.105-3.79c-.025-.026-.051-.052-.077-.079a2.681,2.681,0,0,0-3.687-.05l-6.722,6.2-8.105-8.613a4.839,4.839,0,0,0-3.526-1.522h-3.741a1.507,1.507,0,0,1-1.825-1.1,1.53,1.53,0,0,1-.044-.364V80.924a5.621,5.621,0,0,1-5.785-.011v1.071a1.505,1.505,0,0,1-1.833,1.472h-2.834a6.941,6.941,0,0,0-4.678,1.813l-6.6,6.011a9.066,9.066,0,0,0-2.657,4.386l-2.134,8.1a2.552,2.552,0,0,0,4.884,1.47c.011-.033.022-.066.032-.1l2.278-7.751a2.644,2.644,0,0,1,.727-1.184Zm0,0" transform="translate(-155.538 -62.63)" fill="#60bae2"/><path d="M56.279,204.171a2.5,2.5,0,0,0-3.326.952l-4,6.86a.905.905,0,0,1-1.253.256l-.022-.015-5.961-4.179a7.466,7.466,0,0,0-4.285-1.352H33.951a1.507,1.507,0,0,1-1.826-1.1,1.523,1.523,0,0,1-.044-.363v-1.01a5.621,5.621,0,0,1-5.785-.011v1.072a1.506,1.506,0,0,1-1.508,1.506,1.491,1.491,0,0,1-.326-.035H20.589a4.26,4.26,0,0,0-2.872,1.112L9.77,215.108A6.381,6.381,0,0,0,7.9,218.2L5.56,227.058a2.552,2.552,0,0,0,4.885,1.471c.011-.034.021-.066.031-.1l2.481-8.442,7.552-7.089v15.647H37.865V213.789a.474.474,0,0,1,.817-.328l6.947,4.443a5.186,5.186,0,0,0,7.162-1.575c.041-.064.079-.129.117-.193l4.43-8.6a2.5,2.5,0,0,0-1.059-3.36Zm0,0" transform="translate(-3.86 -157.81)" fill="#e9e9ea"/><path d="M269.249,226.44h4.62a3.667,3.667,0,0,1,.988.139v-28.6a2.457,2.457,0,0,1,2.458-2.458h8V212.6a3.662,3.662,0,0,1,1.24-.219h4.619a3.668,3.668,0,0,1,1.04.152V193.7a5.088,5.088,0,0,0-5.088-5.087H267.957V226.68a3.648,3.648,0,0,1,1.291-.239Zm0,0" transform="translate(-207.027 -145.995)" fill="#6d6c6b"/><path d="M73.3,350.846h4.62a3.633,3.633,0,0,1,.988.139v-28.6a2.457,2.457,0,0,1,2.458-2.458h8v17.089a3.64,3.64,0,0,1,1.239-.22h4.621a3.669,3.669,0,0,1,1.04.152V318.111a5.088,5.088,0,0,0-5.088-5.088H72v38.063a3.667,3.667,0,0,1,1.291-.239Zm0,0" transform="translate(-55.355 -242.288)" fill="#6d6c6b"/><path d="M267.957,339.669V343.6a3.667,3.667,0,0,1,1.291-.239h4.62a3.631,3.631,0,0,1,.988.139v-3.828Zm0,0" transform="translate(-207.026 -262.911)" fill="#e9e9ea"/><path d="M344.762,277.463v3.907a3.663,3.663,0,0,1,1.24-.219h4.619a3.669,3.669,0,0,1,1.04.152v-3.842Zm0,0" transform="translate(-266.475 -214.762)" fill="#e9e9ea"/><path d="M72,464.078v3.927a3.648,3.648,0,0,1,1.291-.239h4.62a3.667,3.667,0,0,1,.988.139v-3.827Zm0,0" transform="translate(-55.355 -359.207)" fill="#e9e9ea"/><path d="M148.813,401.875v3.91a3.641,3.641,0,0,1,1.239-.22h4.62a3.668,3.668,0,0,1,1.04.152v-3.842Zm0,0" transform="translate(-114.806 -311.061)" fill="#e9e9ea"/><path d="M274.7,13.159a2.353,2.353,0,0,1,.361.029v-.271a.3.3,0,0,1,.305-.3.272.272,0,0,1,.06.007,6.135,6.135,0,0,0,6.141-2.018.3.3,0,0,1,.428-.05.282.282,0,0,1,.024.022,5.893,5.893,0,0,0,4.068,1.466.3.3,0,0,1,.292.3v.847a2.351,2.351,0,0,1,2,.633V9.573a3.241,3.241,0,0,0-3.23-3.233A3.2,3.2,0,0,0,283.5,6.8a3.236,3.236,0,0,0-2.773-1.582h-1.66a5.857,5.857,0,0,0-5.841,5.841v2.617a2.35,2.35,0,0,1,1.474-.518Zm0,0" transform="translate(-211.108 -4.041)" fill="#6d6c6b"/><path d="M78.751,137.569a2.36,2.36,0,0,1,.361.028v-.271a.3.3,0,0,1,.305-.3.278.278,0,0,1,.06.006,6.132,6.132,0,0,0,6.141-2.018.305.305,0,0,1,.428-.049l.024.021a5.894,5.894,0,0,0,4.068,1.467.3.3,0,0,1,.292.3v.847a2.349,2.349,0,0,1,2,.633v-4.249a3.243,3.243,0,0,0-3.229-3.235,3.207,3.207,0,0,0-1.652.462,3.234,3.234,0,0,0-2.772-1.582H83.118a5.858,5.858,0,0,0-5.841,5.841v2.617a2.343,2.343,0,0,1,1.474-.518Zm0,0" transform="translate(-59.436 -100.337)" fill="#6d6c6b"/><path d="M342.21,293.777h-4.62a3.706,3.706,0,0,0-3.7,3.7v1.808a.5.5,0,0,0,.5.5h11.011a.5.5,0,0,0,.5-.5h0v-1.808A3.706,3.706,0,0,0,342.21,293.777Zm0,0" transform="translate(-258.063 -227.391)" fill="#c1814c"/><path d="M265.632,355.992h-4.62a3.706,3.706,0,0,0-3.7,3.7V361.5a.5.5,0,0,0,.5.5h11.009a.5.5,0,0,0,.5-.5h0v-1.808A3.706,3.706,0,0,0,265.632,355.992Zm0,0" transform="translate(-198.79 -275.546)" fill="#c1814c"/><path d="M146.257,418.2h-4.62a3.706,3.706,0,0,0-3.7,3.7V423.7a.5.5,0,0,0,.5.5h11.011a.5.5,0,0,0,.5-.5h0v-1.808A3.707,3.707,0,0,0,146.257,418.2Zm0,0" transform="translate(-106.391 -323.693)" fill="#c1814c"/><path d="M69.68,480.4h-4.62a3.706,3.706,0,0,0-3.7,3.7V485.9a.5.5,0,0,0,.5.5H72.875a.5.5,0,0,0,.5-.5h0v-1.808A3.707,3.707,0,0,0,69.68,480.4Zm0,0" transform="translate(-47.119 -371.839)" fill="#c1814c"/><path d="M331.76,40.355a2.343,2.343,0,0,0-.377.031c.008.126.014.253.014.382v3.9c0,.127-.006.254-.014.38a2.362,2.362,0,0,0,.759-4.662A2.517,2.517,0,0,0,331.76,40.355Zm0,0" transform="translate(-256.12 -31.237)" fill="#f9d0b4"/><path d="M271.967,44.658v-3.9c0-.129.006-.256.014-.382a2.364,2.364,0,1,0,0,4.662c-.009-.124-.015-.252-.015-.379Zm0,0" transform="translate(-208.007 -31.227)" fill="#f9d0b4"/><path d="M297.363,81.936V80.925a5.621,5.621,0,0,1-5.785-.011v1.071A1.5,1.5,0,0,1,291,83.17l.833,1.5a1.355,1.355,0,0,0,1.184.7h2.907a1.355,1.355,0,0,0,1.184-.7l.853-1.534A1.5,1.5,0,0,1,297.363,81.936Zm0,0" transform="translate(-224.862 -62.63)" fill="#f9d0b4"/><path d="M331.76,40.355a2.343,2.343,0,0,0-.377.031c.008.126.014.253.014.382v3.9c0,.127-.006.254-.014.38a2.362,2.362,0,0,0,.759-4.662A2.517,2.517,0,0,0,331.76,40.355Zm0,0" transform="translate(-256.12 -31.237)" fill="#f9d0b4"/><path d="M271.967,44.658v-3.9c0-.129.006-.256.014-.382a2.364,2.364,0,1,0,0,4.662c-.009-.124-.015-.252-.015-.379Zm0,0" transform="translate(-208.007 -31.227)" fill="#f9d0b4"/><path d="M287.866,28.658a6.131,6.131,0,0,1-6.141,2.018.3.3,0,0,0-.358.232.35.35,0,0,0-.007.06v4.556a5.66,5.66,0,0,0,11.319,0V30.393a.3.3,0,0,0-.291-.3,5.9,5.9,0,0,1-4.068-1.467.305.305,0,0,0-.431,0l-.023.026Zm0,0" transform="translate(-217.4 -22.093)" fill="#f9d0b4"/><path d="M202.157,171.359l-.636,2.411a2.552,2.552,0,0,0,4.884,1.471c.011-.034.022-.066.032-.1l.7-2.369Zm0,0" transform="translate(-155.538 -132.637)" fill="#f9d0b4"/><path d="M418.6,106.879l-1.927,1.775,3.719,3.91,1.867-1.766a2.681,2.681,0,0,0-3.661-3.918Zm0,0" transform="translate(-322.135 -82.169)" fill="#f9d0b4"/><path d="M135.807,164.766a2.343,2.343,0,0,0-.377.03c.009.127.014.254.014.382v3.9c0,.127-.005.253-.014.38a2.362,2.362,0,0,0,.759-4.662,2.309,2.309,0,0,0-.382-.031Zm0,0" transform="translate(-104.448 -127.533)" fill="#f9d0b4"/><path d="M76.016,169.069v-3.9c0-.128.006-.255.015-.382a2.364,2.364,0,0,0-.785,4.663,2.39,2.39,0,0,0,.785,0C76.022,169.323,76.016,169.2,76.016,169.069Zm0,0" transform="translate(-56.338 -127.523)" fill="#f9d0b4"/><path d="M101.413,206.344v-1.01a5.629,5.629,0,0,1-5.785-.013v1.071a1.5,1.5,0,0,1-.577,1.186l.833,1.5a1.355,1.355,0,0,0,1.184.7h2.907a1.355,1.355,0,0,0,1.184-.7l.852-1.534A1.5,1.5,0,0,1,101.413,206.344Zm0,0" transform="translate(-73.193 -158.924)" fill="#f9d0b4"/><path d="M135.807,164.766a2.343,2.343,0,0,0-.377.03c.009.127.014.254.014.382v3.9c0,.127-.005.253-.014.38a2.362,2.362,0,0,0,.759-4.662,2.309,2.309,0,0,0-.382-.031Zm0,0" transform="translate(-104.448 -127.533)" fill="#f9d0b4"/><path d="M76.016,169.069v-3.9c0-.128.006-.255.015-.382a2.364,2.364,0,0,0-.785,4.663,2.39,2.39,0,0,0,.785,0C76.022,169.323,76.016,169.2,76.016,169.069Zm0,0" transform="translate(-56.338 -127.523)" fill="#f9d0b4"/><path d="M91.913,153.069a6.132,6.132,0,0,1-6.141,2.018.3.3,0,0,0-.358.231.358.358,0,0,0-.007.061v4.556a5.659,5.659,0,0,0,11.318,0V154.8a.3.3,0,0,0-.292-.3,5.9,5.9,0,0,1-4.068-1.467.305.305,0,0,0-.431.006.284.284,0,0,0-.021.025Zm0,0" transform="translate(-65.728 -118.389)" fill="#f9d0b4"/><path d="M6.2,295.777l-.637,2.409a2.552,2.552,0,0,0,4.885,1.471c.011-.034.021-.066.031-.1l.7-2.369Zm0,0" transform="translate(-3.86 -228.939)" fill="#f9d0b4"/><path d="M213.7,204.171a2.5,2.5,0,0,0-3.326.952l-1.519,2.6,4.513,2.512,1.395-2.709a2.5,2.5,0,0,0-1.062-3.36Zm0,0" transform="translate(-161.278 -157.81)" fill="#f9d0b4"/><path d="M385.977,31.546l1.229-1.13a2.671,2.671,0,0,1,1.805-.707L379.5,8.456a1.8,1.8,0,0,0-2.242-.988,1.763,1.763,0,0,0-1.036,2.267c.013.035.027.069.042.1Zm0,0" transform="translate(-290.742 -5.705)" fill="#c1814c"/><path d="M434.089,128.942,432.775,126c-.045.052-.094.105-.147.154l-2.557,2.42.805,1.8a1.76,1.76,0,1,0,3.213-1.438Zm0,0" transform="translate(-332.506 -97.531)" fill="#c1814c"/><path d="M392.551,15.383l5.008,11.194,9.854-11.125Zm0,0" transform="translate(-303.465 -11.908)" fill="#f75c64"/><path d="M420.244,223.059H399.971a2.26,2.26,0,1,1,0-4.52h20.273a2.26,2.26,0,1,1,0,4.52Zm0,0" transform="translate(-307.459 -169.155)" fill="#e9e9ea"/><path d="M436.356,198.543H429.93A2.457,2.457,0,0,0,427.473,201v2.061h11.344V201a2.458,2.458,0,0,0-2.458-2.458Zm0,0" transform="translate(-330.495 -153.678)" fill="#e9e9ea"/><path d="M407.6,238.539h19.8V299.2H407.6Zm0,0" transform="translate(-315.112 -184.635)" fill="#ffae2c"/><path d="M319.992,320.367h19.8v42.17h-19.8Zm0,0" transform="translate(-247.303 -247.972)" fill="#fcd770"/><path d="M232.391,382.57h19.8v28.113h-19.8Zm0,0" transform="translate(-179.498 -296.118)" fill="#ffae2c"/><path d="M144.785,444.773h19.8V458.83h-19.8Zm0,0" transform="translate(-111.689 -344.265)" fill="#fcd770"/><path d="M169.258,4.041A5,5,0,0,1,165.286.07.092.092,0,0,0,165.178,0a.092.092,0,0,0-.068.069,5,5,0,0,1-3.971,3.971.09.09,0,0,0,0,.176,5,5,0,0,1,3.971,3.971.091.091,0,0,0,.108.069.093.093,0,0,0,.069-.069,5,5,0,0,1,3.971-3.971.09.09,0,0,0,0-.176Zm0,0" transform="translate(-124.292)" fill="#ffae2c"/><path d="M22.065,379.838H18.138a1.13,1.13,0,1,1,0-2.26h3.927a1.13,1.13,0,1,1,0,2.26Zm0,0" transform="translate(-12.786 -292.254)" fill="#60bae2"/><path d="M26.825,375.066a1.13,1.13,0,0,1-1.13-1.13v-3.927a1.13,1.13,0,1,1,2.26,0v3.927A1.13,1.13,0,0,1,26.825,375.066Zm0,0" transform="translate(-19.511 -285.521)" fill="#60bae2"/><path d="M490.106,119.729h-3.926a1.13,1.13,0,0,1,0-2.26h3.927a1.13,1.13,0,1,1,0,2.26Zm0,0" transform="translate(-375.062 -90.925)" fill="#f75c64"/><path d="M494.86,114.964a1.13,1.13,0,0,1-1.13-1.13v-3.927a1.13,1.13,0,0,1,2.26,0v3.927A1.13,1.13,0,0,1,494.86,114.964Zm0,0" transform="translate(-381.78 -84.197)" fill="#f75c64"/><path d="M473.794,166.592a1.126,1.126,0,0,1-.94-.5,1.268,1.268,0,0,1-.1-.2,1.172,1.172,0,0,1-.063-.21,1.045,1.045,0,0,1-.023-.222,1.033,1.033,0,0,1,.023-.222,1.172,1.172,0,0,1,.063-.21,1.23,1.23,0,0,1,.1-.2,1.128,1.128,0,0,1,1.372-.416,1.206,1.206,0,0,1,.194.1,1.048,1.048,0,0,1,.172.14,1.186,1.186,0,0,1,.14.171,1.158,1.158,0,0,1,.1.2,1.115,1.115,0,0,1,.066.21,1.235,1.235,0,0,1,.022.222,1.251,1.251,0,0,1-.022.222,1.116,1.116,0,0,1-.066.21,1.093,1.093,0,0,1-.244.368,1.048,1.048,0,0,1-.172.14,1.278,1.278,0,0,1-.194.1,1.19,1.19,0,0,1-.212.063A1.021,1.021,0,0,1,473.794,166.592Zm0,0" transform="translate(-365.474 -127.199)" fill="#fcd770"/><path d="M209.95,65.885a1.126,1.126,0,0,1-.94-.5,1.231,1.231,0,0,1-.1-.2,1.173,1.173,0,0,1-.063-.21,1.031,1.031,0,0,1-.023-.222,1.043,1.043,0,0,1,.023-.222,1.173,1.173,0,0,1,.063-.21,1.269,1.269,0,0,1,.1-.2,1.128,1.128,0,0,1,1.372-.416,1.279,1.279,0,0,1,.194.1,1.049,1.049,0,0,1,.172.14,1.092,1.092,0,0,1,.244.368,1.115,1.115,0,0,1,.066.21,1.25,1.25,0,0,1,.022.222,1.233,1.233,0,0,1-.022.222,1.115,1.115,0,0,1-.066.21,1.161,1.161,0,0,1-.1.2,1.189,1.189,0,0,1-.14.171,1,1,0,0,1-.172.14,1.2,1.2,0,0,1-.194.1,1.113,1.113,0,0,1-.213.064A1.007,1.007,0,0,1,209.95,65.885Zm0,0" transform="translate(-161.253 -49.25)" fill="#6dcc6d"/><path d="M416.374,220.318H396.1a3.39,3.39,0,0,1,0-6.779h20.273a3.39,3.39,0,1,1,0,6.779ZM396.1,215.8a1.13,1.13,0,0,0,0,2.26h20.273a1.13,1.13,0,0,0,0-2.26Zm0,0" transform="translate(-303.589 -165.285)" fill="#231f20"/><path d="M434.939,200.321H423.595a1.13,1.13,0,0,1-1.13-1.13V197.13a3.592,3.592,0,0,1,3.587-3.587h6.426a3.593,3.593,0,0,1,3.588,3.587v2.061A1.13,1.13,0,0,1,434.939,200.321Zm-10.214-2.26h9.084v-.931a1.33,1.33,0,0,0-1.328-1.328h-6.426a1.329,1.329,0,0,0-1.328,1.328Zm0,0" transform="translate(-326.619 -149.807)" fill="#231f20"/><path d="M393.687,23.833a1.131,1.131,0,0,1-1.031-.668L387.648,11.97a1.132,1.132,0,0,1,.085-1.078,1.1,1.1,0,0,1,.952-.514l14.862.069a1.13,1.13,0,0,1,.841,1.878l-9.856,11.126a1.126,1.126,0,0,1-.846.381Zm-3.261-11.187,3.577,8,7.038-7.945Zm0,0" transform="translate(-299.594 -8.034)" fill="#231f20"/><path d="M331.76,40.355a2.343,2.343,0,0,0-.377.031c.008.126.014.253.014.382v3.9c0,.127-.006.254-.014.38a2.362,2.362,0,0,0,.759-4.662A2.517,2.517,0,0,0,331.76,40.355Zm0,0" transform="translate(-256.12 -31.237)" fill="#f9d0b4"/><path d="M271.967,44.658v-3.9c0-.129.006-.256.014-.382a2.364,2.364,0,1,0,0,4.662c-.009-.124-.015-.252-.015-.379Zm0,0" transform="translate(-208.007 -31.227)" fill="#f9d0b4"/><path d="M302.536,112.454a1.127,1.127,0,0,1-1.13-1.123v-.007a1.123,1.123,0,0,1,.33-.8,1.165,1.165,0,0,1,1.6,0,1.124,1.124,0,0,1,.335.8,1.146,1.146,0,0,1-.335.8,1.157,1.157,0,0,1-.365.244A1.142,1.142,0,0,1,302.536,112.454Zm0,0" transform="translate(-232.917 -85.305)" fill="#231f20"/><path d="M302.536,130.976a1.145,1.145,0,0,1-.8-.329,1.236,1.236,0,0,1-.14-.171,1.254,1.254,0,0,1-.1-.2,1.341,1.341,0,0,1-.063-.213.93.93,0,0,1-.023-.222,1.152,1.152,0,0,1,.019-.221,1.188,1.188,0,0,1,.171-.407,1.012,1.012,0,0,1,.14-.172,1.176,1.176,0,0,1,1.6,0,1.3,1.3,0,0,1,.14.172,1.576,1.576,0,0,1,.1.194,1.2,1.2,0,0,1,.064.213,1.129,1.129,0,0,1,0,.442,1,1,0,0,1-.068.213,1.1,1.1,0,0,1-.1.2c-.045.058-.09.117-.14.171A1.149,1.149,0,0,1,302.536,130.976Zm0,0" transform="translate(-232.916 -99.643)" fill="#231f20"/><path d="M302.537,149.439a.988.988,0,0,1-.222-.023,1.172,1.172,0,0,1-.212-.064.962.962,0,0,1-.2-.1,1.237,1.237,0,0,1-.171-.14,1.307,1.307,0,0,1-.14-.171,1.141,1.141,0,0,1-.167-.849,1.368,1.368,0,0,1,.063-.213,1.257,1.257,0,0,1,.1-.2,1.013,1.013,0,0,1,.14-.167,1.123,1.123,0,0,1,1.021-.312,1.18,1.18,0,0,1,.208.064,1.288,1.288,0,0,1,.194.1.886.886,0,0,1,.171.144.962.962,0,0,1,.145.167,1.651,1.651,0,0,1,.1.2,1.281,1.281,0,0,1,.064.213,1.318,1.318,0,0,1,.022.222,1.135,1.135,0,0,1-.335.8,1.043,1.043,0,0,1-.171.14.975.975,0,0,1-.194.1,1.072,1.072,0,0,1-.208.064A.931.931,0,0,1,302.537,149.439Zm0,0" transform="translate(-232.918 -113.921)" fill="#231f20"/><path d="M302.537,167.97a.9.9,0,0,1-.222-.022,1.175,1.175,0,0,1-.212-.064.959.959,0,0,1-.2-.1.869.869,0,0,1-.171-.14,1.136,1.136,0,0,1,0-1.6,1.085,1.085,0,0,1,.171-.139,1.01,1.01,0,0,1,.2-.1,1.128,1.128,0,0,1,.863,0,1.029,1.029,0,0,1,.194.1,1.4,1.4,0,0,1,.176.139c.05.055.1.113.14.172a1.328,1.328,0,0,1,.1.2,1.136,1.136,0,0,1,.064.208,1.123,1.123,0,0,1,0,.443,1.193,1.193,0,0,1-.064.212,1.463,1.463,0,0,1-.1.194,1.863,1.863,0,0,1-.14.172,1,1,0,0,1-.176.14.975.975,0,0,1-.194.1,1.183,1.183,0,0,1-.208.064A.929.929,0,0,1,302.537,167.97Zm0,0" transform="translate(-232.918 -128.266)" fill="#231f20"/><path d="M292.062,82.627h-2.906a2.485,2.485,0,0,1-2.17-1.278l-.833-1.5a1.13,1.13,0,0,1,.29-1.438.374.374,0,0,0,.146-.3V77.044a1.13,1.13,0,0,1,1.712-.968,4.563,4.563,0,0,0,4.624.009,1.13,1.13,0,0,1,1.709.97v1.012a.371.371,0,0,0,.15.3,1.129,1.129,0,0,1,.3,1.446l-.852,1.534A2.487,2.487,0,0,1,292.062,82.627Zm-3.562-3.2.46.828a.228.228,0,0,0,.2.116h2.906a.227.227,0,0,0,.2-.116l.474-.853a2.614,2.614,0,0,1-.278-.674,6.8,6.8,0,0,1-3.678,0,2.577,2.577,0,0,1-.275.7Zm0,0" transform="translate(-221 -58.76)" fill="#231f20"/><path d="M327.883,42.342a3.462,3.462,0,0,1-.557-.048,1.13,1.13,0,0,1-.949-1.193c.006-.1.011-.2.011-.3V36.9c0-.1-.005-.206-.011-.307a1.13,1.13,0,0,1,.949-1.191,3.492,3.492,0,0,1,1.1,6.9,3.456,3.456,0,0,1-.54.044Zm.768-4.458v1.93a1.229,1.229,0,0,0,0-1.93Zm0,0" transform="translate(-252.243 -27.368)" fill="#231f20"/><path d="M267.772,42.341a3.493,3.493,0,1,1,.558-6.94,1.129,1.129,0,0,1,.949,1.192c-.006.1-.011.2-.011.305v3.9c0,.1.005.2.011.3a1.129,1.129,0,0,1-.949,1.19,3.483,3.483,0,0,1-.558.048ZM267,37.884a1.232,1.232,0,0,0-.2,1.73,1.254,1.254,0,0,0,.2.2Zm0,0" transform="translate(-204.175 -27.367)" fill="#231f20"/><path d="M283.148,38.456a6.8,6.8,0,0,1-6.789-6.789V27.114a1.43,1.43,0,0,1,1.726-1.4,4.985,4.985,0,0,0,5.026-1.615,1.435,1.435,0,0,1,1.036-.539,1.465,1.465,0,0,1,1.093.409,4.8,4.8,0,0,0,3.306,1.144,1.431,1.431,0,0,1,1.389,1.4v5.152a6.8,6.8,0,0,1-6.787,6.789Zm-4.529-10.391v3.6a4.529,4.529,0,1,0,9.059,0V27.314a7.178,7.178,0,0,1-3.354-1.186,7.141,7.141,0,0,1-5.7,1.938Zm6.259-2.56" transform="translate(-213.53 -18.235)" fill="#231f20"/><path d="M284.518,11.082a1.129,1.129,0,0,1-.785-.316,1.242,1.242,0,0,0-1.043-.331,1.13,1.13,0,0,1-1.3-1.117V9.249a7.171,7.171,0,0,1-3.353-1.186,7.2,7.2,0,0,1-5.92,1.918,1.13,1.13,0,0,1-1.09.452,1.211,1.211,0,0,0-.957.255,1.129,1.129,0,0,1-1.835-.883V7.19A6.979,6.979,0,0,1,275.2.219h1.66a4.384,4.384,0,0,1,3.119,1.324,4.3,4.3,0,0,1,1.3-.2A4.367,4.367,0,0,1,285.647,5.7V9.951a1.13,1.13,0,0,1-1.13,1.13Zm-9.316-8.6a4.717,4.717,0,0,0-4.711,4.711v.844c.033-.033.068-.064.1-.094a1.429,1.429,0,0,1,1.2-.291,4.985,4.985,0,0,0,5.026-1.615,1.436,1.436,0,0,1,1.036-.543,1.469,1.469,0,0,1,1.093.41,4.807,4.807,0,0,0,3.306,1.143,1.426,1.426,0,0,1,1.13.613V5.7a2.1,2.1,0,0,0-2.1-2.1,2.079,2.079,0,0,0-1.07.3,1.13,1.13,0,0,1-1.55-.388,2.118,2.118,0,0,0-1.8-1.033Zm2.164,5.036" transform="translate(-207.238 -0.17)" fill="#231f20"/><path d="M200.128,104.236a3.687,3.687,0,0,1-3.565-4.624l2.135-8.1a10.174,10.174,0,0,1,2.989-4.934l6.595-6.011a8.055,8.055,0,0,1,5.439-2.107h2.834a1.135,1.135,0,0,1,.245.027.377.377,0,0,0,.451-.286.431.431,0,0,0,.009-.082V77.052a1.129,1.129,0,0,1,1.712-.967,4.566,4.566,0,0,0,4.624.009,1.13,1.13,0,0,1,1.709.97v1.009a.379.379,0,0,0,.378.379.352.352,0,0,0,.091-.011,1.122,1.122,0,0,1,.271-.034h3.741a6,6,0,0,1,4.346,1.878l7.339,7.8,5.9-5.438a3.811,3.811,0,0,1,5.2,5.571l-7.249,6.858a5.568,5.568,0,0,1-7.771-.214l-6.463-6.619v13.146a1.13,1.13,0,0,1-1.13,1.13H212.6a1.13,1.13,0,0,1-1.13-1.13V88.352L206.35,93.16a1.519,1.519,0,0,0-.418.678l-2.277,7.75a3.69,3.69,0,0,1-3.526,2.646Zm13.593-23.513A5.8,5.8,0,0,0,209.8,82.24l-6.595,6.011a7.912,7.912,0,0,0-2.327,3.842l-2.134,8.1a1.422,1.422,0,0,0,2.722.819c.006-.019.012-.037.018-.056l2.277-7.752a3.788,3.788,0,0,1,1.039-1.69l6.187-5.807a1.627,1.627,0,0,1,2.742,1.187v13.368h15.1V86.631a1.6,1.6,0,0,1,2.761-1.11l7.577,7.761a3.312,3.312,0,0,0,4.617.136l7.231-6.844a1.55,1.55,0,1,0-2.116-2.267l-6.722,6.2a1.13,1.13,0,0,1-1.588-.057l-8.105-8.613a3.724,3.724,0,0,0-2.7-1.166h-3.623a2.64,2.64,0,0,1-3.036-1.934,6.8,6.8,0,0,1-3.679,0,2.639,2.639,0,0,1-3,1.992Zm16.247,6.371.007.007Zm0,0" transform="translate(-151.672 -58.766)" fill="#231f20"/><path d="M200.128,174.236a3.687,3.687,0,0,1-3.565-4.624l.636-2.411a1.129,1.129,0,0,1,1.381-.8l.02.005,4.977,1.412a1.13,1.13,0,0,1,.779,1.4l0,.01-.7,2.369a3.69,3.69,0,0,1-3.526,2.646Zm-1.039-5.345-.342,1.3a1.422,1.422,0,0,0,2.722.819c.007-.019.012-.037.018-.056l.375-1.275Zm0,0" transform="translate(-151.672 -128.767)" fill="#231f20"/><path d="M416.522,109.924a1.126,1.126,0,0,1-.818-.351l-3.718-3.91a1.129,1.129,0,0,1,.041-1.6l.012-.012,1.927-1.776a3.811,3.811,0,0,1,5.2,5.571l-1.867,1.766a1.128,1.128,0,0,1-.778.31Zm-2.109-4.987,2.151,2.26,1.048-.995a1.55,1.55,0,1,0-2.116-2.267Zm0,0" transform="translate(-318.267 -78.4)" fill="#231f20"/><path d="M341.536,297.046H330.525a1.632,1.632,0,0,1-1.63-1.63v-1.808a4.832,4.832,0,0,1,4.826-4.83h4.62a4.832,4.832,0,0,1,4.826,4.829v1.808A1.632,1.632,0,0,1,341.536,297.046Zm-10.382-2.26h9.752v-1.18a2.569,2.569,0,0,0-2.566-2.566h-4.62a2.569,2.569,0,0,0-2.566,2.566Zm0,0" transform="translate(-254.193 -223.521)" fill="#231f20"/><path d="M264.956,359.269H253.947a1.632,1.632,0,0,1-1.63-1.63v-1.808A4.832,4.832,0,0,1,257.142,351h4.62a4.833,4.833,0,0,1,4.827,4.827v1.808A1.633,1.633,0,0,1,264.956,359.269Zm-10.382-2.26h9.753V355.83a2.569,2.569,0,0,0-2.567-2.567h-4.618a2.569,2.569,0,0,0-2.566,2.567Zm0,0" transform="translate(-194.92 -271.685)" fill="#231f20"/><path d="M264.083,223.938a1.13,1.13,0,0,1-1.13-1.13V184.747a1.13,1.13,0,0,1,1.13-1.13h19.169a6.224,6.224,0,0,1,6.218,6.217v18.831a1.131,1.131,0,0,1-1.449,1.085,2.554,2.554,0,0,0-.72-.106h-4.62a2.524,2.524,0,0,0-.859.154,1.129,1.129,0,0,1-1.445-.681,1.112,1.112,0,0,1-.067-.383V192.776h-6.87a1.329,1.329,0,0,0-1.327,1.328V222.71a1.13,1.13,0,0,1-1.13,1.13,1.109,1.109,0,0,1-.3-.042,2.526,2.526,0,0,0-.684-.1h-4.618a2.522,2.522,0,0,0-.9.167,1.126,1.126,0,0,1-.4.072Zm1.13-38.062v35.565l.162,0h4.478V194.1a3.591,3.591,0,0,1,3.587-3.587h8a1.13,1.13,0,0,1,1.13,1.13v15.738h4.641v-17.55a3.963,3.963,0,0,0-3.958-3.957Zm0,0" transform="translate(-203.153 -142.125)" fill="#231f20"/><path d="M264.083,340.858a1.13,1.13,0,0,1-1.13-1.13V335.8a1.13,1.13,0,0,1,1.13-1.13h6.9a1.13,1.13,0,0,1,1.13,1.13v3.828a1.13,1.13,0,0,1-1.13,1.13,1.112,1.112,0,0,1-.3-.042,2.521,2.521,0,0,0-.683-.1h-4.62a2.522,2.522,0,0,0-.9.167A1.126,1.126,0,0,1,264.083,340.858Zm1.13-3.926v1.431l.162,0h4.478v-1.428Zm0,0" transform="translate(-203.153 -259.044)" fill="#231f20"/><path d="M340.892,278.636a1.129,1.129,0,0,1-1.13-1.13V273.6a1.13,1.13,0,0,1,1.13-1.13h6.9a1.13,1.13,0,0,1,1.13,1.13v3.842a1.13,1.13,0,0,1-1.129,1.131,1.153,1.153,0,0,1-.32-.046,2.523,2.523,0,0,0-.72-.106h-4.62a2.545,2.545,0,0,0-.859.153,1.1,1.1,0,0,1-.381.064Zm1.13-3.907v1.429h4.641V274.73Zm0,0" transform="translate(-262.605 -210.898)" fill="#231f20"/><path d="M382.1,28.8a1.128,1.128,0,0,1-1.031-.668L371.357,6.417A2.894,2.894,0,0,1,372.82,2.6c.056-.025.114-.048.171-.07a2.927,2.927,0,0,1,3.667,1.585l9.508,21.253a1.128,1.128,0,0,1-1.027,1.591,1.55,1.55,0,0,0-1.044.407l-1.228,1.13a1.133,1.133,0,0,1-.766.3ZM373.972,4.611a.553.553,0,0,0-.192.034.631.631,0,0,0-.376.809c.005.014.011.028.017.041l9.071,20.277.072-.066a3.8,3.8,0,0,1,.984-.657L374.6,5.035a.705.705,0,0,0-.623-.425Zm0,0" transform="translate(-286.866 -1.825)" fill="#231f20"/><path d="M428.615,128.7a2.891,2.891,0,0,1-2.643-1.71l-.805-1.8a1.129,1.129,0,0,1,.255-1.282l2.557-2.42c.03-.027.056-.057.082-.086a1.132,1.132,0,0,1,1.873.291l1.314,2.938a2.889,2.889,0,0,1-2.633,4.068Zm-1.057-3.7.478,1.067a.63.63,0,1,0,1.15-.515l-.659-1.472Zm0,0" transform="translate(-328.634 -93.68)" fill="#231f20"/><path d="M135.807,164.766a2.343,2.343,0,0,0-.377.03c.009.127.014.254.014.382v3.9c0,.127-.005.253-.014.38a2.362,2.362,0,0,0,.759-4.662,2.309,2.309,0,0,0-.382-.031Zm0,0" transform="translate(-104.448 -127.533)" fill="#f9d0b4"/><path d="M76.016,169.069v-3.9c0-.128.006-.255.015-.382a2.364,2.364,0,0,0-.785,4.663,2.39,2.39,0,0,0,.785,0C76.022,169.323,76.016,169.2,76.016,169.069Zm0,0" transform="translate(-56.338 -127.523)" fill="#f9d0b4"/><g transform="translate(0.488 28.162)"><path d="M106.573,236.8a1.13,1.13,0,0,1-.8-1.93c.055-.049.113-.1.172-.14a1.577,1.577,0,0,1,.194-.1,1.256,1.256,0,0,1,.213-.064,1.067,1.067,0,0,1,.442,0,1.256,1.256,0,0,1,.213.064,1.644,1.644,0,0,1,.194.1,1.866,1.866,0,0,1,.172.14,1.13,1.13,0,0,1-.8,1.93Zm0,0" transform="translate(-81.724 -209.701)" fill="#231f20"/><path d="M106.579,255.328a.927.927,0,0,1-.221-.022,1.282,1.282,0,0,1-.213-.064,1.139,1.139,0,0,1-.194-.1,1.251,1.251,0,0,1-.172-.139,1.2,1.2,0,0,1-.14-.172,1,1,0,0,1-.1-.2,1.1,1.1,0,0,1-.064-.212,1.25,1.25,0,0,1-.023-.222,1.175,1.175,0,0,1,.023-.216,1.122,1.122,0,0,1,.064-.214,1.025,1.025,0,0,1,.1-.194,1.143,1.143,0,0,1,.14-.171,1.2,1.2,0,0,1,.172-.14,1.162,1.162,0,0,1,.194-.109,1.256,1.256,0,0,1,.213-.064,1.2,1.2,0,0,1,.442,0,1.114,1.114,0,0,1,.213.064,1.162,1.162,0,0,1,.194.109,1.014,1.014,0,0,1,.172.14,1.086,1.086,0,0,1,.139.171,1.029,1.029,0,0,1,.1.194,1.19,1.19,0,0,1,.064.214,1.1,1.1,0,0,1,0,.438,1.1,1.1,0,0,1-.064.212,1.009,1.009,0,0,1-.1.2,1.112,1.112,0,0,1-.94.5Zm0,0" transform="translate(-81.73 -224.045)" fill="#231f20"/><path d="M106.579,273.844a1.23,1.23,0,0,1-.221-.019,1.267,1.267,0,0,1-.213-.067,1.138,1.138,0,0,1-.194-.1,1.2,1.2,0,0,1-.172-.14,1.142,1.142,0,0,1-.14-.171,1.373,1.373,0,0,1-.1-.2,1.1,1.1,0,0,1-.064-.213,1.192,1.192,0,0,1-.023-.216,1.25,1.25,0,0,1,.023-.222,1.1,1.1,0,0,1,.064-.212,1.006,1.006,0,0,1,.1-.2,1.08,1.08,0,0,1,.312-.312,1.079,1.079,0,0,1,.194-.1,1.267,1.267,0,0,1,.213-.067,1.117,1.117,0,0,1,.849.171,1.193,1.193,0,0,1,.172.14,1.086,1.086,0,0,1,.139.171,1.01,1.01,0,0,1,.1.2,1.113,1.113,0,0,1,.064.213.887.887,0,0,1,.022.222.9.9,0,0,1-.022.216,1.2,1.2,0,0,1-.064.213,1.028,1.028,0,0,1-.1.194,1.134,1.134,0,0,1-.139.172,1.191,1.191,0,0,1-.172.139,1.08,1.08,0,0,1-.194.1,1.169,1.169,0,0,1-.213.068A1.243,1.243,0,0,1,106.579,273.844Zm0,0" transform="translate(-81.73 -238.377)" fill="#231f20"/><path d="M106.573,292.426a1.13,1.13,0,0,1-.8-1.931,1.168,1.168,0,0,1,1.6,0,1,1,0,0,1,.139.172,1.028,1.028,0,0,1,.1.194,1.18,1.18,0,0,1,.064.213,1.157,1.157,0,0,1,.022.222,1.248,1.248,0,0,1-.022.222,1.148,1.148,0,0,1-.064.207,1.028,1.028,0,0,1-.1.194,1.346,1.346,0,0,1-.139.177,1.311,1.311,0,0,1-.172.14,1.514,1.514,0,0,1-.194.1,1.183,1.183,0,0,1-.213.064A1.327,1.327,0,0,1,106.573,292.426Zm0,0" transform="translate(-81.724 -252.768)" fill="#231f20"/><path d="M96.11,207.033H93.2a2.487,2.487,0,0,1-2.17-1.277l-.833-1.5a1.13,1.13,0,0,1,.29-1.437.373.373,0,0,0,.146-.3V201.45a1.129,1.129,0,0,1,1.712-.967,4.565,4.565,0,0,0,4.624.008,1.131,1.131,0,0,1,1.709.971v1.012a.37.37,0,0,0,.151.3,1.131,1.131,0,0,1,.3,1.446l-.854,1.538a2.486,2.486,0,0,1-2.172,1.276Zm-3.562-3.2.46.828a.225.225,0,0,0,.2.115h2.907a.225.225,0,0,0,.2-.115l.474-.853a2.608,2.608,0,0,1-.278-.674,6.8,6.8,0,0,1-3.678,0,2.661,2.661,0,0,1-.276.7Zm0,0" transform="translate(-69.818 -183.215)" fill="#231f20"/><path d="M131.931,166.75a3.463,3.463,0,0,1-.557-.048,1.129,1.129,0,0,1-.949-1.19c.006-.1.011-.2.011-.3v-3.9c0-.1-.005-.2-.011-.307a1.129,1.129,0,0,1,.949-1.19,3.492,3.492,0,1,1,.558,6.939Zm.769-4.458v1.93a1.232,1.232,0,0,0,.2-1.73A1.254,1.254,0,0,0,132.7,162.292Zm0,0" transform="translate(-101.06 -151.824)" fill="#231f20"/><path d="M71.819,166.751a3.493,3.493,0,1,1-.011-6.985,3.4,3.4,0,0,1,.568.045,1.13,1.13,0,0,1,.945,1.19c-.007.1-.011.2-.011.307v3.9c0,.1,0,.2.011.3a1.129,1.129,0,0,1-.949,1.19,3.439,3.439,0,0,1-.554.048Zm-.769-4.458a1.231,1.231,0,0,0-.2,1.73,1.185,1.185,0,0,0,.2.2Zm0,0" transform="translate(-52.992 -151.825)" fill="#231f20"/><path d="M87.2,162.863a6.8,6.8,0,0,1-6.789-6.789v-4.552a1.432,1.432,0,0,1,1.433-1.432,1.488,1.488,0,0,1,.293.03,4.982,4.982,0,0,0,5.026-1.615,1.435,1.435,0,0,1,2.016-.23c.039.031.076.064.112.1a4.8,4.8,0,0,0,3.307,1.144,1.432,1.432,0,0,1,1.389,1.405v5.15a6.8,6.8,0,0,1-6.787,6.789Zm-4.529-10.391v3.6a4.529,4.529,0,0,0,9.059,0v-4.355a7.159,7.159,0,0,1-3.353-1.185,7.134,7.134,0,0,1-5.705,1.938Zm6.26-2.562" transform="translate(-62.346 -142.691)" fill="#231f20"/><path d="M88.562,135.492a1.133,1.133,0,0,1-.785-.317,1.242,1.242,0,0,0-1.043-.331,1.13,1.13,0,0,1-1.291-.942,1.145,1.145,0,0,1-.013-.174v-.072a7.159,7.159,0,0,1-3.353-1.185,7.2,7.2,0,0,1-5.921,1.919,1.128,1.128,0,0,1-1.088.452,1.21,1.21,0,0,0-.957.255,1.13,1.13,0,0,1-1.836-.883V131.6a6.978,6.978,0,0,1,6.972-6.971h1.66a4.373,4.373,0,0,1,3.118,1.324,4.308,4.308,0,0,1,1.3-.2,4.367,4.367,0,0,1,4.362,4.362v4.249a1.13,1.13,0,0,1-1.13,1.13Zm-9.316-8.6a4.716,4.716,0,0,0-4.711,4.711v.844c.034-.034.069-.065.105-.1a1.439,1.439,0,0,1,1.2-.291,4.982,4.982,0,0,0,5.026-1.615,1.435,1.435,0,0,1,2.016-.231,1.347,1.347,0,0,1,.112.1,4.805,4.805,0,0,0,3.308,1.144,1.428,1.428,0,0,1,1.13.612v-1.954a2.09,2.09,0,0,0-3.169-1.8,1.13,1.13,0,0,1-1.551-.387h0a2.116,2.116,0,0,0-1.8-1.033Zm0,0" transform="translate(-56.052 -124.629)" fill="#231f20"/><path d="M4.175,227.519A3.69,3.69,0,0,1,.608,222.9l2.337-8.861a7.5,7.5,0,0,1,2.2-3.635l7.947-7.245a5.384,5.384,0,0,1,3.633-1.408H20.6a1.14,1.14,0,0,1,.245.027.377.377,0,0,0,.45-.286.371.371,0,0,0,.009-.082v-1.072a1.129,1.129,0,0,1,1.712-.967,4.566,4.566,0,0,0,4.624.009,1.129,1.129,0,0,1,1.709.97v1.012a.378.378,0,0,0,.378.378.347.347,0,0,0,.091-.011,1.129,1.129,0,0,1,.272-.033h3.475a8.556,8.556,0,0,1,4.934,1.556l5.761,4.038,3.858-6.6a3.632,3.632,0,0,1,6.365,3.494l-4.429,8.6-.027.049a6.316,6.316,0,0,1-8.633,2.3c-.079-.046-.157-.094-.234-.143l-6.025-3.852v13.544a1.13,1.13,0,0,1-1.13,1.13H16.65a1.13,1.13,0,0,1-1.13-1.13V211.635L10.1,216.725l-2.4,8.147a3.69,3.69,0,0,1-3.525,2.646Zm12.554-23.512a3.123,3.123,0,0,0-2.111.818l-7.946,7.244a5.248,5.248,0,0,0-1.54,2.541l-2.337,8.862a1.422,1.422,0,0,0,2.722.818c.006-.019.012-.037.018-.056l2.48-8.442a1.129,1.129,0,0,1,.312-.5l7.55-7.087a1.13,1.13,0,0,1,1.9.824v14.517h15.1V209.915a1.6,1.6,0,0,1,2.636-1.229l6.866,4.391a4.055,4.055,0,0,0,5.6-1.231l.079-.129,4.415-8.578a1.372,1.372,0,0,0-2.405-1.321l-4.006,6.86c-.011.019-.022.037-.034.055a2.033,2.033,0,0,1-2.819.574l-.046-.031L37.2,205.1a6.307,6.307,0,0,0-3.636-1.148H30.209a2.639,2.639,0,0,1-3.036-1.933,6.817,6.817,0,0,1-3.679,0,2.639,2.639,0,0,1-3,1.992Zm0,0" transform="translate(-0.488 -182.098)" fill="#231f20"/><path d="M4.175,298.645a3.69,3.69,0,0,1-3.566-4.624l.636-2.412a1.13,1.13,0,0,1,1.381-.8l.02.005,4.975,1.412a1.13,1.13,0,0,1,.779,1.4l0,.011L7.7,296a3.69,3.69,0,0,1-3.527,2.646ZM3.136,293.3l-.343,1.3a1.422,1.422,0,0,0,2.723.817c.006-.018.011-.036.018-.054l.374-1.276Zm0,0" transform="translate(-0.488 -253.224)" fill="#231f20"/><path d="M145.583,421.471H134.572a1.632,1.632,0,0,1-1.63-1.63v-1.808a4.831,4.831,0,0,1,4.826-4.826h4.62a4.832,4.832,0,0,1,4.826,4.826v1.808A1.632,1.632,0,0,1,145.583,421.471Zm-10.382-2.26h9.752v-1.18a2.568,2.568,0,0,0-2.566-2.566h-4.62a2.568,2.568,0,0,0-2.566,2.566Zm0,0" transform="translate(-103.01 -347.994)" fill="#231f20"/><path d="M69.005,483.665H57.994a1.631,1.631,0,0,1-1.63-1.63v-1.808a4.831,4.831,0,0,1,4.826-4.829h4.62a4.831,4.831,0,0,1,4.826,4.826v1.808A1.632,1.632,0,0,1,69.005,483.665ZM58.623,481.4h9.752v-1.179a2.569,2.569,0,0,0-2.566-2.567h-4.62a2.569,2.569,0,0,0-2.566,2.567Zm0,0" transform="translate(-43.737 -396.132)" fill="#231f20"/><path d="M68.134,348.345a1.13,1.13,0,0,1-1.13-1.13V309.153a1.13,1.13,0,0,1,1.13-1.13H87.3a6.225,6.225,0,0,1,6.218,6.218v18.831a1.129,1.129,0,0,1-1.45,1.084,2.543,2.543,0,0,0-.719-.105H86.73a2.524,2.524,0,0,0-.859.153,1.128,1.128,0,0,1-1.51-1.062V317.183h-6.87a1.329,1.329,0,0,0-1.328,1.328v28.6a1.13,1.13,0,0,1-1.13,1.13,1.117,1.117,0,0,1-.3-.042,2.591,2.591,0,0,0-.683-.1h-4.62a2.537,2.537,0,0,0-.894.167,1.134,1.134,0,0,1-.4.072Zm1.13-38.062v35.566l.162,0H73.9V318.51a3.592,3.592,0,0,1,3.587-3.587h8a1.13,1.13,0,0,1,1.13,1.13V331.79h4.64v-17.55a3.963,3.963,0,0,0-3.958-3.958Zm0,0" transform="translate(-51.973 -266.58)" fill="#231f20"/><path d="M68.134,465.268a1.13,1.13,0,0,1-1.13-1.13v-3.926a1.13,1.13,0,0,1,1.13-1.13h6.9a1.129,1.129,0,0,1,1.13,1.13v3.827a1.13,1.13,0,0,1-1.13,1.13,1.118,1.118,0,0,1-.3-.042,2.591,2.591,0,0,0-.683-.1h-4.62a2.537,2.537,0,0,0-.894.167,1.134,1.134,0,0,1-.4.072Zm1.13-3.926v1.43l.162,0H73.9v-1.427Zm0,0" transform="translate(-51.973 -383.503)" fill="#231f20"/><path d="M144.943,403.055a1.13,1.13,0,0,1-1.13-1.13v-3.908a1.13,1.13,0,0,1,1.13-1.13h6.9a1.13,1.13,0,0,1,1.13,1.13v3.842a1.13,1.13,0,0,1-1.129,1.131,1.164,1.164,0,0,1-.321-.046,2.511,2.511,0,0,0-.719-.106h-4.62a2.524,2.524,0,0,0-.859.153,1.118,1.118,0,0,1-.38.064Zm1.13-3.908v1.429h4.64v-1.428Zm0,0" transform="translate(-111.425 -335.362)" fill="#231f20"/><path d="M209.487,207.491a1.128,1.128,0,0,1-.55-.143l-4.513-2.511a1.13,1.13,0,0,1-.437-1.537l.011-.02,1.521-2.6a3.632,3.632,0,0,1,6.366,3.494l-1.395,2.709a1.13,1.13,0,0,1-1,.613Zm-2.955-4.068,2.486,1.383.858-1.673a1.373,1.373,0,0,0-2.405-1.321Zm0,0" transform="translate(-157.89 -182.094)" fill="#231f20"/><path d="M423.526,296.46h-19.8a1.13,1.13,0,0,1-1.13-1.13V234.669a1.13,1.13,0,0,1,1.13-1.13h19.8a1.13,1.13,0,0,1,1.13,1.13V295.33A1.13,1.13,0,0,1,423.526,296.46Zm-18.665-2.26H422.4V235.8H404.861Zm0,0" transform="translate(-311.732 -208.928)" fill="#231f20"/><path d="M335.922,359.8h-19.8a1.13,1.13,0,0,1-1.13-1.13V316.5a1.13,1.13,0,0,1,1.13-1.13h19.8a1.13,1.13,0,0,1,1.13,1.13v42.17A1.13,1.13,0,0,1,335.922,359.8Zm-18.666-2.26h17.536v-39.91H317.256Zm0,0" transform="translate(-243.924 -272.265)" fill="#231f20"/><path d="M248.319,407.95h-19.8a1.13,1.13,0,0,1-1.13-1.13V378.709a1.13,1.13,0,0,1,1.13-1.13h19.8a1.13,1.13,0,0,1,1.13,1.13V406.82A1.13,1.13,0,0,1,248.319,407.95Zm-18.665-2.26H247.19V379.839H229.654Zm0,0" transform="translate(-176.118 -320.418)" fill="#231f20"/><path d="M160.715,456.093h-19.8a1.13,1.13,0,0,1-1.13-1.13V440.908a1.13,1.13,0,0,1,1.13-1.13h19.8a1.13,1.13,0,0,1,1.13,1.13v14.056A1.13,1.13,0,0,1,160.715,456.093Zm-18.666-2.26h17.536v-11.8H142.049Zm0,0" transform="translate(-108.31 -368.561)" fill="#231f20"/><path d="M78.061,504.237H59.712a1.13,1.13,0,0,1,0-2.26H78.061a1.13,1.13,0,1,1,0,2.26Zm0,0" transform="translate(-45.454 -416.704)" fill="#231f20"/><path d="M23.872,504.237H19.88a1.13,1.13,0,0,1,0-2.26h3.992a1.13,1.13,0,0,1,0,2.26Zm0,0" transform="translate(-14.623 -416.704)" fill="#231f20"/></g></g></svg>
