<svg xmlns="http://www.w3.org/2000/svg" width="35.385" height="35.385" viewBox="0 0 35.385 35.385"><path d="M19.553,15.548h0l.032-.032A.031.031,0,0,0,19.553,15.548Zm0,0h0l.032-.032A.031.031,0,0,0,19.553,15.548ZM17.692,0A17.692,17.692,0,1,0,35.385,17.692,17.686,17.686,0,0,0,17.692,0ZM13.025,26.4H8.8V13.687h4.226ZM10.912,11.953h0a2.214,2.214,0,1,1,.032-4.415,2.2,2.2,0,0,1,2.365,2.208A2.225,2.225,0,0,1,10.912,11.953ZM28.257,26.4H24.031V19.616c0-1.7-.6-2.87-2.145-2.87a2.338,2.338,0,0,0-2.176,1.545,3.356,3.356,0,0,0-.126,1.041v7.1H15.359s.063-11.511,0-12.71h4.226v1.8A4.256,4.256,0,0,1,23.4,13.4c2.775,0,4.857,1.829,4.857,5.74ZM19.585,15.548v-.032s-.032,0,0,.032Z" fill="#fff"/></svg>