<svg xmlns="http://www.w3.org/2000/svg" xmlns:xlink="http://www.w3.org/1999/xlink" width="13" height="13" viewBox="0 0 13 18"><defs><clipPath id="a"><rect width="13" height="18" fill="#e4f1fe"/></clipPath></defs><g clip-path="url(#a)"><g transform="translate(0.3 0)"><path d="M14.907,4.48a5.608,5.608,0,0,0-.29-.72A6.05,6.05,0,0,0,8.916,0,6.059,6.059,0,0,0,2.8,5.584v.768c0,.032.011.32.027.464.224,1.792,1.638,3.7,2.694,5.488C6.657,14.224,7.836,16.112,9,18c.72-1.232,1.438-2.48,2.141-3.68.192-.352.414-.7.606-1.04.128-.224.372-.448.484-.656,1.136-2.08,2.965-4.176,2.965-6.24V5.536A6.387,6.387,0,0,0,14.907,4.48ZM8.966,8.336a2.2,2.2,0,0,1-2.107-1.5,2.086,2.086,0,0,1-.059-.56v-.5A2.084,2.084,0,0,1,9.035,3.728a2.266,2.266,0,0,1,2.27,2.3A2.324,2.324,0,0,1,8.966,8.336Z" transform="translate(-2.8 0)" fill="#e4f1fe"/></g></g></svg>
