<svg xmlns="http://www.w3.org/2000/svg" xmlns:xlink="http://www.w3.org/1999/xlink" width="250" height="180" viewBox="0 0 250 180">
  <defs>
    <clipPath id="clip-path">
      <rect id="Rectángulo_97" data-name="Rectángulo 97" width="250" height="180" transform="translate(-7392 -801)" fill="#fff"/>
    </clipPath>
    <linearGradient id="linear-gradient" x1="0.685" y1="0.5" x2="0.983" y2="0.5" gradientUnits="objectBoundingBox">
      <stop offset="0" stop-color="#003352"/>
      <stop offset="1" stop-color="#fff"/>
    </linearGradient>
    <linearGradient id="linear-gradient-2" x1="0.5" y1="0.5" x2="0.5" y2="1" xlink:href="#linear-gradient"/>
    <linearGradient id="linear-gradient-3" x1="0.083" y1="255.091" x2="0.134" y2="257.156" gradientUnits="objectBoundingBox">
      <stop offset="0" stop-color="#003352"/>
      <stop offset="1" stop-color="#00335b"/>
    </linearGradient>
  </defs>
  <g id="logo-jcdecaux" transform="translate(7392 801)" clip-path="url(#clip-path)">
    <g id="layer1" transform="translate(-7411.032 -800.425)">
      <path id="path59" d="M222.115,41.939,19.032,42.07l.012,4.165L226.281,46.1Z" fill="url(#linear-gradient)"/>
      <path id="path61" d="M23.2,46.235l.065,90.673-4.169,0-.062-94.838Z" fill="url(#linear-gradient-2)"/>
      <path id="path67" d="M74.88,102.387c0,4.3-1.155,11.319-11.119,11.324-5.571.007-10.995-3.034-11-10.328l0-2.9,6.642,0,0,1.5c.006,3.231.8,5.568,4.264,5.562,3.881,0,3.876-3.131,3.875-5.475L67.529,79.52h7.336Z" fill="url(#linear-gradient-3)"/>
      <path id="path69" d="M101.443,90.722a7.2,7.2,0,0,0-7.293-5.841c-6.6.006-9.078,5.616-9.07,11.465,0,5.563,2.486,11.177,9.08,11.174,4.49,0,7.016-3.094,7.57-7.488l7.118,0c-.746,8.322-6.5,13.659-14.683,13.663-10.338.011-16.427-7.7-16.429-17.34C77.73,86.438,83.8,78.712,94.14,78.7c7.343,0,13.52,4.294,14.419,12.011Z" fill="url(#linear-gradient-3)"/>
      <path id="path71" d="M118.8,85.657l5.232,0c7.3-.009,9.643,4.289,9.647,11.029,0,7.39-4.061,10.013-8.318,10.013l-6.546.008L118.8,85.657m-7.33,27.223,14.413-.006c10.2-.005,15.143-7.21,15.138-16.889-.007-11.089-6.511-16.511-15.16-16.5l-14.41.008Z" fill="url(#linear-gradient-3)"/>
      <path id="path73" d="M149.444,98.177a5.241,5.241,0,0,1,5.522-5.151c3.219,0,4.671,1.775,5.286,5.144l-10.808.007m17.45,4.195c.464-7.434-3.514-14.359-11.75-14.355-7.344.015-12.341,5.534-12.338,12.782,0,7.485,4.731,12.722,12.355,12.717,5.475,0,9.45-2.436,11.314-8.148l-5.846,0c-.423,1.5-2.57,3.141-5.232,3.138-3.7.006-5.759-1.913-5.95-6.124Z" fill="url(#linear-gradient-3)"/>
      <path id="path75" d="M185.837,97.174a4.526,4.526,0,0,0-4.909-4.168c-4.263.009-5.663,4.31-5.658,7.87,0,3.457,1.364,7.62,5.525,7.615,3.084,0,4.864-1.964,5.282-4.919h6.406c-.84,6.409-5.277,9.917-11.642,9.924-7.3.007-12.21-5.138-12.213-12.386,0-7.532,4.481-13.1,12.341-13.108,5.7-.007,10.945,2.99,11.369,9.16Z" fill="url(#linear-gradient-3)"/>
      <path id="path77" d="M209.942,103.469c0,1.453-.185,5.567-5.374,5.571-2.154,0-4.071-.607-4.071-3.084,0-2.429,1.87-3.138,3.925-3.562,2.056-.372,4.394-.423,5.519-1.4l0,2.477m-8.7-7.382c.23-2.621,1.868-3.653,4.391-3.655,2.341,0,4.3.42,4.305,3.269,0,2.717-3.791,2.578-7.856,3.191-4.117.563-8.233,1.873-8.228,7.348,0,4.958,3.652,7.243,8.237,7.242a11.089,11.089,0,0,0,8.138-3,9.632,9.632,0,0,0,.467,2.337l6.736,0c-.607-.974-.839-3.177-.844-5.375l-.006-12.584c-.008-5.8-5.807-6.869-10.627-6.866-5.423,0-10.991,1.872-11.359,8.1Z" fill="url(#linear-gradient-3)"/>
      <path id="path79" d="M242.906,112.8l-6.317.009,0-3.37-.149,0a8.614,8.614,0,0,1-7.382,4.03c-7.06,0-8.845-3.966-8.847-9.958L220.2,88.633l6.641-.009.015,13.666c0,3.973,1.161,5.94,4.255,5.933,3.6,0,5.145-2.012,5.138-6.923l0-12.678,6.642,0Z" fill="url(#linear-gradient-3)"/>
      <path id="path81" d="M252.605,100.07,244.65,88.615l7.576,0,4.261,6.313,4.2-6.314,7.339-.007L260.1,99.928l8.936,12.858-7.574.006-5.055-7.621-5.049,7.627-7.434,0Z" fill="url(#linear-gradient-3)"/>
    </g>
  </g>
</svg>
