<svg xmlns="http://www.w3.org/2000/svg" xmlns:xlink="http://www.w3.org/1999/xlink" width="250" height="180" viewBox="0 0 250 180">
  <defs>
    <clipPath id="clip-path">
      <rect id="Rectángulo_68" data-name="Rectángulo 68" width="250" height="180" transform="translate(-8292 -1029)" fill="#fff"/>
    </clipPath>
  </defs>
  <g id="logo-unimilenium" transform="translate(8292 1029)" clip-path="url(#clip-path)">
    <g id="logotipo-milenium" transform="translate(-8291.997 -969.563)">
      <g id="Grupo_5" data-name="Grupo 5">
        <path id="Trazado_1460" data-name="Trazado 1460" d="M100.84,25.227H94.4a.9.9,0,0,0-.706.441L86.9,44.1,83.287,25.666a.588.588,0,0,0-.617-.441H76.319a.749.749,0,0,0-.706.617L70.939,51.424a1.119,1.119,0,0,0,.088.529c.088.174.265.174.441.174h4.587a.749.749,0,0,0,.706-.614L79.406,34.4l3.528,16.938a.588.588,0,0,0,.617.441h5.2a.9.9,0,0,0,.706-.441L95.9,34.491,95.636,51.6a.6.6,0,0,0,.617.617h4.587a1.254,1.254,0,0,0,.529-.174.648.648,0,0,0,.174-.529l-.174-25.58a.534.534,0,0,0-.529-.71Z" fill="#604876"/>
        <path id="Trazado_1461" data-name="Trazado 1461" d="M113.718,25.227h-4.94a.681.681,0,0,0-.706.617l-2.2,25.58a.6.6,0,0,0,.617.617h4.941a.681.681,0,0,0,.706-.617l2.205-25.58a.6.6,0,0,0-.619-.617Z" fill="#604876"/>
        <path id="Trazado_1462" data-name="Trazado 1462" d="M131.89,47.19h-8.558l1.853-21.346a.6.6,0,0,0-.617-.617h-5.028a.681.681,0,0,0-.706.617l-2.205,25.579a.6.6,0,0,0,.617.617h14.2a.681.681,0,0,0,.706-.617l.353-3.616a.6.6,0,0,0-.617-.617Z" fill="#604876"/>
        <path id="Trazado_1463" data-name="Trazado 1463" d="M148.027,35.635a4.015,4.015,0,0,0-1.764.441,4.642,4.642,0,0,0-1.235,1.058,4.944,4.944,0,0,0-.882,1.323c-.265.441-.441.882-.617,1.235a.543.543,0,0,0,.088.617.533.533,0,0,0,.529.265h7.762a.681.681,0,0,0,.706-.617l.353-3.528a.6.6,0,0,0-.617-.617h-4.323Z" fill="#604876"/>
        <path id="Trazado_1464" data-name="Trazado 1464" d="M153.586,25.227H138.238a.681.681,0,0,0-.706.617l-2.2,25.58a.6.6,0,0,0,.617.617h15.877a.681.681,0,0,0,.706-.617l.353-3.616a.6.6,0,0,0-.617-.617H142.031l1.5-17.022h9.614a.681.681,0,0,0,.706-.617l.351-3.619a.629.629,0,0,0-.616-.706Z" fill="#604876"/>
        <path id="Trazado_1465" data-name="Trazado 1465" d="M179.872,25.227h-4.5a.681.681,0,0,0-.706.617l-1.321,15.61L164.7,25.58a.6.6,0,0,0-.529-.353H159.32a.681.681,0,0,0-.706.617l-2.205,25.58a.6.6,0,0,0,.617.617h4.322a.681.681,0,0,0,.706-.617l1.412-16.406,9.085,16.76a.533.533,0,0,0,.529.265h4.5a.681.681,0,0,0,.706-.617l2.205-25.58a.6.6,0,0,0-.618-.618Z" fill="#604876"/>
        <path id="Trazado_1466" data-name="Trazado 1466" d="M191.25,25.227h-4.94a.681.681,0,0,0-.706.617l-2.2,25.58a.6.6,0,0,0,.617.617h4.941a.681.681,0,0,0,.706-.617l2.208-25.58a.6.6,0,0,0-.619-.617Z" fill="#604876"/>
        <path id="Trazado_1467" data-name="Trazado 1467" d="M217.535,25.227H212.6a.681.681,0,0,0-.706.617l-1.412,16.318a9.451,9.451,0,0,1-.529,2.381,4.706,4.706,0,0,1-1.146,1.676,5.8,5.8,0,0,1-1.5,1.058,4.606,4.606,0,0,1-1.853.353,3.949,3.949,0,0,1-1.764-.353,3.906,3.906,0,0,1-1.323-1.058,4.917,4.917,0,0,1-.794-1.676,6.9,6.9,0,0,1-.174-2.381l1.409-16.318a.6.6,0,0,0-.617-.617h-4.941a.681.681,0,0,0-.706.617l-1.588,15.877a13.288,13.288,0,0,0,.353,4.675,8.619,8.619,0,0,0,1.853,3.44,7.5,7.5,0,0,0,3.264,2.117,13.6,13.6,0,0,0,4.409.706,12.844,12.844,0,0,0,4.587-.794,9.973,9.973,0,0,0,3.616-2.205,10.177,10.177,0,0,0,2.47-3.528,14.113,14.113,0,0,0,1.147-4.41l1.412-15.789a.534.534,0,0,0-.527-.706Z" fill="#604876"/>
        <path id="Trazado_1468" data-name="Trazado 1468" d="M249.906,25.844a.6.6,0,0,0-.617-.617H242.85a.9.9,0,0,0-.706.441L235.352,44.1l-3.616-18.435a.588.588,0,0,0-.617-.441h-6.351a.749.749,0,0,0-.705.617l-4.675,25.581a1.12,1.12,0,0,0,.088.529c.088.174.265.174.441.174H224.5a.749.749,0,0,0,.706-.614L227.855,34.4l3.528,16.938a.588.588,0,0,0,.617.441h5.2a.9.9,0,0,0,.706-.441l6.439-16.848L244.085,51.6a.6.6,0,0,0,.617.617h4.587a1.254,1.254,0,0,0,.529-.174.648.648,0,0,0,.174-.529Z" fill="#604876"/>
      </g>
      <g id="Grupo_6" data-name="Grupo 6">
        <path id="Trazado_1469" data-name="Trazado 1469" d="M78.524,14.907a6.58,6.58,0,0,1,.617-1.058,3.917,3.917,0,0,1,.97-.706,2.817,2.817,0,0,1,1.235-.265,2.442,2.442,0,0,1,.794.088,3.879,3.879,0,0,1,.882.174l.529-1.058a2.348,2.348,0,0,0-1.058-.265,3.618,3.618,0,0,0-.97-.088,4.748,4.748,0,0,0-1.941.353,4.8,4.8,0,0,0-1.588.97,5.381,5.381,0,0,0-1.058,1.412,5.854,5.854,0,0,0-.529,1.764,3.917,3.917,0,0,0,.088,1.764A4.245,4.245,0,0,0,77.2,19.4a3.684,3.684,0,0,0,1.323.97,4.245,4.245,0,0,0,1.941.353,4.427,4.427,0,0,0,1.058-.174,9.894,9.894,0,0,0,1.147-.441l-.265-1.058a4.313,4.313,0,0,1-1.679.441,2.817,2.817,0,0,1-1.235-.265,2.084,2.084,0,0,1-.791-.706,1.892,1.892,0,0,1-.353-1.058,2.517,2.517,0,0,1,0-1.147,2.2,2.2,0,0,1,.174-1.411Z" fill="#878785"/>
        <path id="Trazado_1470" data-name="Trazado 1470" d="M86.463,15.7c-.088.088-.174.265-.265.353a.917.917,0,0,0-.174.441H88.67l.174-1.147H87.433a.661.661,0,0,0-.441.088c-.353,0-.441.086-.529.265Z" fill="#878785"/>
        <path id="Trazado_1471" data-name="Trazado 1471" d="M83.375,20.376h5.292l.174-1.235H85.228l.706-6.172h3.44l.174-1.147H84.434Z" fill="#878785"/>
        <path id="Trazado_1472" data-name="Trazado 1472" d="M96.163,17.552l-.088.441-.086-.441-2.91-5.732H91.491l-1.06,8.556h1.412l.706-6.086.088-.353.088.441,3.087,6h1.5l1.056-8.557h-1.5Z" fill="#878785"/>
        <path id="Trazado_1473" data-name="Trazado 1473" d="M99.429,12.969h2.205l-.882,7.411h1.679l.882-7.411H105.6l.088-1.147H99.6Z" fill="#878785"/>
        <path id="Trazado_1474" data-name="Trazado 1474" d="M111.777,12.349a3.423,3.423,0,0,0-.97-.529,5.339,5.339,0,0,0-1.323-.174h-1.235c-.174,0-.441.088-.706.088a3.879,3.879,0,0,0-.882.174L105.6,20.375h1.679l.882-7.411h.97a1.308,1.308,0,0,1,.617.088,1.929,1.929,0,0,1,.441.265.753.753,0,0,1,.265.441,1.118,1.118,0,0,1,.088.529,1.253,1.253,0,0,1-.174.529c-.088.174-.174.265-.265.441a1.928,1.928,0,0,1-.441.265c-.174.088-.353.088-.441.174-.174,0-.265.088-.353.088a1.216,1.216,0,0,1-.353.265,1.216,1.216,0,0,0-.265.353.669.669,0,0,0-.174.353,1.119,1.119,0,0,0,.529.088h.529a1.389,1.389,0,0,1,.441.706,2.609,2.609,0,0,1,.174.882c.088.353.088.617.174.97a3.751,3.751,0,0,0,.174.97h1.764c-.088-.353-.174-.706-.265-1.147-.088-.353-.088-.706-.174-1.058s-.174-.617-.265-.882a1.92,1.92,0,0,0-.441-.706l-.088-.088c-.088,0-.088,0-.088-.088l.353-.088a4.244,4.244,0,0,0,.97-.794,2.107,2.107,0,0,0,.441-1.235,2.443,2.443,0,0,0-.088-1.147.926.926,0,0,0-.442-.789Z" fill="#878785"/>
        <path id="Trazado_1475" data-name="Trazado 1475" d="M121.744,13.055A3.3,3.3,0,0,0,120.6,12a4.205,4.205,0,0,0-1.941-.441,4.091,4.091,0,0,0-1.853.353,4.03,4.03,0,0,0-1.412.97,3.694,3.694,0,0,0-.97,1.412,5.854,5.854,0,0,0-.529,1.764,3.917,3.917,0,0,0,.088,1.764,4.053,4.053,0,0,0,.617,1.412,4.636,4.636,0,0,0,1.235.97,3.715,3.715,0,0,0,1.764.353,4.091,4.091,0,0,0,1.853-.353,5.686,5.686,0,0,0,1.412-.97,5.041,5.041,0,0,0,.97-1.412,5.322,5.322,0,0,0,.529-1.679,4.8,4.8,0,0,0,0-1.588,5.9,5.9,0,0,0-.617-1.5Zm-1.147,3a6.609,6.609,0,0,1-.353,1.412,2.765,2.765,0,0,1-.706.97,3.168,3.168,0,0,1-.882.617,2.464,2.464,0,0,1-2.026-.088,2.685,2.685,0,0,1-.706-.706,2.975,2.975,0,0,1-.353-1.058,2.907,2.907,0,0,1,0-1.235,5.055,5.055,0,0,1,.353-1.235,6.578,6.578,0,0,1,.617-1.058,3.454,3.454,0,0,1,.882-.706,2.442,2.442,0,0,1,1.147-.265,1.778,1.778,0,0,1,.97.265,1.805,1.805,0,0,1,.706.706,2.976,2.976,0,0,1,.353,1.058Z" fill="#878785"/>
        <path id="Trazado_1476" data-name="Trazado 1476" d="M131.623,17.289a1.49,1.49,0,0,1-.265.882,2.312,2.312,0,0,1-1.058,1.058,1.5,1.5,0,0,1-1.412,0,2.339,2.339,0,0,1-.529-.441.8.8,0,0,1-.265-.617,1.5,1.5,0,0,1,0-.882l.708-5.469h-1.679l-.619,5.292a2.837,2.837,0,0,0,.088,1.5,2.012,2.012,0,0,0,.529,1.058,2.284,2.284,0,0,0,.97.617,3.9,3.9,0,0,0,2.822,0,3.112,3.112,0,0,0,1.147-.706,3.042,3.042,0,0,0,.794-1.058,6.612,6.612,0,0,0,.441-1.412l.617-5.292h-1.588Z" fill="#878785"/>
        <path id="Trazado_1477" data-name="Trazado 1477" d="M140.531,17.552l-.088.441-.086-.441-2.91-5.732h-1.588l-1.06,8.556h1.412l.706-6.086.088-.353.088.441,3.087,6h1.5l1.058-8.557h-1.5Z" fill="#878785"/>
        <path id="Trazado_1478" data-name="Trazado 1478" d="M143.8,20.376h1.679l1.058-8.556h-1.679Z" fill="#878785"/>
        <path id="Trazado_1479" data-name="Trazado 1479" d="M153.587,11.82l-2.822,6.439-.174.441v-.441l-1.238-6.439h-1.764l1.941,8.556h1.765l3.968-8.556Z" fill="#878785"/>
        <path id="Trazado_1480" data-name="Trazado 1480" d="M155.262,20.376h5.292l.174-1.235h-3.613l.706-6.172h3.44l.174-1.147h-5.116Z" fill="#878785"/>
        <path id="Trazado_1481" data-name="Trazado 1481" d="M158.349,15.7c-.088.088-.174.265-.265.353a.917.917,0,0,0-.174.441h2.646l.174-1.147h-1.412a.661.661,0,0,0-.441.088.533.533,0,0,0-.529.265Z" fill="#878785"/>
        <path id="Trazado_1482" data-name="Trazado 1482" d="M168.228,12.349a3.424,3.424,0,0,0-.97-.529,5.339,5.339,0,0,0-1.323-.174H164.7c-.174,0-.441.088-.706.088a3.879,3.879,0,0,0-.882.174l-1.058,8.467h1.676l.882-7.411h.97a1.308,1.308,0,0,1,.617.088,1.929,1.929,0,0,1,.441.265.753.753,0,0,1,.265.441,1.119,1.119,0,0,1,.088.529,1.253,1.253,0,0,1-.174.529c-.088.174-.174.265-.265.441a1.928,1.928,0,0,1-.441.265c-.174.088-.353.088-.441.174-.174,0-.265.088-.353.088a1.216,1.216,0,0,1-.353.265,1.216,1.216,0,0,0-.265.353.669.669,0,0,0-.174.353,1.119,1.119,0,0,0,.529.088h.527a1.389,1.389,0,0,1,.441.706,2.61,2.61,0,0,1,.174.882c.088.353.088.617.174.97s.088.617.174.97h1.764c-.088-.353-.174-.706-.265-1.147-.088-.353-.088-.706-.174-1.058s-.174-.617-.265-.882a1.921,1.921,0,0,0-.441-.706l-.088-.088c-.088,0-.088,0-.088-.088l.353-.088a4.244,4.244,0,0,0,.97-.794,2.107,2.107,0,0,0,.441-1.235,2.443,2.443,0,0,0-.088-1.147.926.926,0,0,0-.442-.789Z" fill="#878785"/>
        <path id="Trazado_1483" data-name="Trazado 1483" d="M172.727,13.055a1.49,1.49,0,0,1,.882-.265,2.442,2.442,0,0,1,.794.088,4.552,4.552,0,0,1,.97.174l.529-1.058a2.244,2.244,0,0,0-.617-.174,1.119,1.119,0,0,0-.529-.088c-.174,0-.353-.088-.529-.088H173.7a4.427,4.427,0,0,0-1.058.174,2.76,2.76,0,0,0-.882.441,2.377,2.377,0,0,0-.617.706,3.16,3.16,0,0,0-.353.97,1.368,1.368,0,0,0,.174,1.058,4.847,4.847,0,0,0,.617.794,3.167,3.167,0,0,0,.882.617,7.757,7.757,0,0,1,.882.529,4.889,4.889,0,0,1,.706.529.686.686,0,0,1,.174.706c0,.174-.088.265-.174.441a.689.689,0,0,1-.353.353,2.936,2.936,0,0,1-.529.265,1.308,1.308,0,0,1-.617.088,3.956,3.956,0,0,1-.97-.088,3.778,3.778,0,0,1-1.147-.441l-.613,1.061a5.638,5.638,0,0,0,1.412.529,6.07,6.07,0,0,0,1.147.174,5.206,5.206,0,0,0,1.235-.174,3.261,3.261,0,0,0,.97-.441,2.684,2.684,0,0,0,.706-.706,3.159,3.159,0,0,0,.353-.97,1.6,1.6,0,0,0-.174-1.147,1.921,1.921,0,0,0-.615-.794,3.168,3.168,0,0,0-.882-.617,7.756,7.756,0,0,1-.882-.529,4.89,4.89,0,0,1-.706-.529.686.686,0,0,1-.174-.706c.17-.44.258-.705.521-.881Z" fill="#878785"/>
        <path id="Trazado_1484" data-name="Trazado 1484" d="M177.05,20.376h1.588L179.7,11.82h-1.588Z" fill="#878785"/>
        <path id="Trazado_1485" data-name="Trazado 1485" d="M186.928,11.82h-6.177l-.174,1.147h2.293l-.97,7.411h1.676l.97-7.411h2.205Z" fill="#878785"/>
        <path id="Trazado_1486" data-name="Trazado 1486" d="M190.456,11.82l-4.143,8.556h1.676l.882-1.853h2.558a3.823,3.823,0,0,1-.088-.441c-.088-.174-.088-.265-.174-.353l-.265-.265a.661.661,0,0,0-.444-.087H189.4l.174-.265,1.412-3.087.174-.441v.441l1.323,6.351h1.763l-2.026-8.556h-1.761Z" fill="#878785"/>
        <path id="Trazado_1487" data-name="Trazado 1487" d="M201.482,12.349a3.423,3.423,0,0,0-.97-.529,5.339,5.339,0,0,0-1.323-.174h-1.238c-.174,0-.441.088-.706.088a3.879,3.879,0,0,0-.882.174L195.3,20.375h1.676l.882-7.411h.97a1.308,1.308,0,0,1,.617.088,1.928,1.928,0,0,1,.441.265.752.752,0,0,1,.265.441,1.119,1.119,0,0,1,.088.529,1.254,1.254,0,0,1-.174.529c-.088.174-.174.265-.265.441a1.928,1.928,0,0,1-.441.265c-.174.088-.353.088-.441.174-.174,0-.265.088-.353.088a1.215,1.215,0,0,1-.353.265,1.216,1.216,0,0,0-.265.353.669.669,0,0,0-.174.353,1.119,1.119,0,0,0,.529.088h.529a1.389,1.389,0,0,1,.441.706,2.609,2.609,0,0,1,.174.882c.088.353.088.617.174.97s.088.617.174.97h1.764c-.088-.353-.174-.706-.265-1.147-.088-.353-.088-.706-.174-1.058s-.174-.617-.265-.882a1.921,1.921,0,0,0-.441-.706l-.088-.088c-.088,0-.088,0-.088-.088l.353-.088a4.245,4.245,0,0,0,.97-.794,2.107,2.107,0,0,0,.441-1.235,2.442,2.442,0,0,0-.088-1.147.926.926,0,0,0-.438-.789Z" fill="#878785"/>
        <path id="Trazado_1488" data-name="Trazado 1488" d="M203.422,20.376H205.1l1.058-8.556h-1.676Z" fill="#878785"/>
        <path id="Trazado_1489" data-name="Trazado 1489" d="M215.595,14.466a3.9,3.9,0,0,0-.529-1.412A3.3,3.3,0,0,0,213.919,12a4.205,4.205,0,0,0-1.941-.441,4.091,4.091,0,0,0-1.853.353,4.031,4.031,0,0,0-1.412.97,3.694,3.694,0,0,0-.97,1.412,5.856,5.856,0,0,0-.529,1.764,3.917,3.917,0,0,0,.088,1.764,4.053,4.053,0,0,0,.617,1.412,4.637,4.637,0,0,0,1.235.97,3.715,3.715,0,0,0,1.764.353,4.091,4.091,0,0,0,1.853-.353,5.687,5.687,0,0,0,1.412-.97,5.04,5.04,0,0,0,.97-1.412,5.322,5.322,0,0,0,.529-1.679,10.13,10.13,0,0,0-.087-1.676Zm-1.764,1.588a6.608,6.608,0,0,1-.353,1.412,2.764,2.764,0,0,1-.706.97,3.168,3.168,0,0,1-.882.617,2.464,2.464,0,0,1-2.026-.088,2.685,2.685,0,0,1-.706-.706,2.975,2.975,0,0,1-.353-1.058,2.906,2.906,0,0,1,0-1.235,5.056,5.056,0,0,1,.353-1.235,6.576,6.576,0,0,1,.617-1.058,3.453,3.453,0,0,1,.882-.706A2.442,2.442,0,0,1,211.8,12.7a1.778,1.778,0,0,1,.97.265,1.805,1.805,0,0,1,.706.706,2.976,2.976,0,0,1,.353,1.058,3.341,3.341,0,0,1,0,1.323Z" fill="#878785"/>
      </g>
      <path id="Trazado_1490" data-name="Trazado 1490" d="M61.059,0H51.974a2.346,2.346,0,0,0-2.205,1.941v.086L40.947,28.4l-2.026,6.174c0,.088-.088.088-.088.174L30.011,61.126h2.822a2.346,2.346,0,0,0,2.205-1.941V59.1L45.976,26.459a.364.364,0,0,1,.706.174L42.713,59.092a1.7,1.7,0,0,0,1.676,1.941H56.032a2.642,2.642,0,0,0,2.558-2.205l.529-4.234a1.7,1.7,0,0,0-1.676-1.941H57L63.176,2.381A2.068,2.068,0,0,0,61.059,0ZM33.189,0H30.8a2.275,2.275,0,0,0-1.941,1.235L27.453,4.94,17.221,34.929a.364.364,0,0,1-.706-.174l3.44-28.312.353-3.086.174-1.323A1.687,1.687,0,0,0,18.808,0H7.166A2.642,2.642,0,0,0,4.607,2.205L4.078,6.527A1.7,1.7,0,0,0,5.754,8.468H6.2L.021,58.745a2.068,2.068,0,0,0,2.117,2.381h9.174a2.275,2.275,0,0,0,1.941-1.235l9.437-28.225Z" fill="#604876"/>
      <path id="Trazado_1491" data-name="Trazado 1491" d="M42,2.381A2.007,2.007,0,0,0,39.977,0H35.3L25.069,31.049l-3.44,27.7a2.068,2.068,0,0,0,2.117,2.381h4.236L38.92,27.961Z" fill="#878785"/>
    </g>
  </g>
</svg>
