<svg xmlns="http://www.w3.org/2000/svg" xmlns:xlink="http://www.w3.org/1999/xlink" width="250" height="180" viewBox="0 0 250 180">
  <defs>
    <clipPath id="clip-path">
      <rect id="Rectángulo_73" data-name="Rectángulo 73" width="250" height="180" transform="translate(3447 3648)" fill="#fff"/>
    </clipPath>
  </defs>
  <g id="logo-gonzalez" transform="translate(-3447 -3648)" clip-path="url(#clip-path)">
    <g id="logo" transform="translate(3446.986 3708.816)">
      <path id="Trazado_1" data-name="Trazado 1" d="M676.308,847.774h-2.425v6.292h-1.462v-6.292H670v-1.291h6.312Z" transform="translate(-565.328 -795.8)" fill="#103746"/>
      <path id="Trazado_2" data-name="Trazado 2" d="M729.028,846.481h1.3l2.885,7.583H731.7l-.714-1.89h-2.636l-.694,1.89h-1.521Zm1.7,4.655-1.047-2.98-1.089,2.98Z" transform="translate(-608.223 -795.8)" fill="#103746"/>
      <path id="Trazado_3" data-name="Trazado 3" d="M789.5,846.466l1.89,2.819,1.879-2.819h1.587l-2.7,3.844,2.618,3.745h-1.6l-1.783-2.721-1.807,2.714h-1.6L790.6,850.3l-2.7-3.844Z" transform="translate(-655.422 -795.783)" fill="#103746"/>
      <path id="Trazado_4" data-name="Trazado 4" d="M898.084,853.76l-.6-.631a3.537,3.537,0,0,1-1.014.551,3.433,3.433,0,0,1-1.122.178,2.946,2.946,0,0,1-1.07-.178,2.442,2.442,0,0,1-.807-.492,2.206,2.206,0,0,1-.512-.713,2.106,2.106,0,0,1-.178-.859,1.924,1.924,0,0,1,.107-.652,2.084,2.084,0,0,1,.294-.549,2.985,2.985,0,0,1,.426-.466,4.961,4.961,0,0,1,.508-.4,4.35,4.35,0,0,1-.647-.88,1.789,1.789,0,0,1-.02-1.516,1.752,1.752,0,0,1,.438-.577,1.95,1.95,0,0,1,.656-.367,2.577,2.577,0,0,1,.832-.129,2.672,2.672,0,0,1,.756.107,1.983,1.983,0,0,1,.64.314,1.607,1.607,0,0,1,.45.524,1.512,1.512,0,0,1,.178.731,1.708,1.708,0,0,1-.357,1.084,4.42,4.42,0,0,1-.929.87l1.454,1.517a3.761,3.761,0,0,0,.249-.747,4.015,4.015,0,0,0,.091-.875h1.164a5.439,5.439,0,0,1-.178,1.376,4.445,4.445,0,0,1-.48,1.134l1.569,1.646Zm-2.594-1.014a1.965,1.965,0,0,0,1.227-.438l-1.751-1.847a2.755,2.755,0,0,0-.588.535,1,1,0,0,0-.212.621,1.016,1.016,0,0,0,.1.432,1.046,1.046,0,0,0,.271.357,1.391,1.391,0,0,0,.422.24,1.53,1.53,0,0,0,.535.1Zm-.892-4.893a.56.56,0,0,0,.032.178.843.843,0,0,0,.107.2,2.853,2.853,0,0,0,.2.246c.083.091.179.2.316.341a3.471,3.471,0,0,0,.619-.517.78.78,0,0,0,.214-.535.586.586,0,0,0-.2-.463.733.733,0,0,0-.506-.178.782.782,0,0,0-.562.209.669.669,0,0,0-.227.522Z" transform="translate(-735.563 -795.493)" fill="#103746"/>
      <path id="Trazado_5" data-name="Trazado 5" d="M1000.828,854.063v-7.581h1.475v6.29h3.855v1.292Z" transform="translate(-818.118 -795.8)" fill="#103746"/>
      <path id="Trazado_6" data-name="Trazado 6" d="M1058.735,846.481h1.3l2.885,7.583H1061.4l-.7-1.89h-2.645l-.694,1.89h-1.517Zm1.7,4.655-1.047-2.98-1.089,2.98Z" transform="translate(-860.154 -795.8)" fill="#103746"/>
      <path id="Trazado_7" data-name="Trazado 7" d="M1118.3,846.5h1.361l.854,2.509.854-2.509h1.367l-1.292,3.448.961,2.425,2.14-5.9h1.6l-3.086,7.583h-1.248l-1.314-3.183-1.314,3.183h-1.248l-3.065-7.583h1.61l2.157,5.9.94-2.425Z" transform="translate(-905.26 -795.794)" fill="#103746"/>
      <path id="Trazado_8" data-name="Trazado 8" d="M559.389,664.536a11.446,11.446,0,0,0,1.289-.066,8.191,8.191,0,0,0,1.109-.2,7.6,7.6,0,0,0,.979-.321c.308-.125.615-.269.922-.43v-3.826H561a.509.509,0,0,1-.369-.132.437.437,0,0,1-.139-.328V657.9h5.328v6.66a9.9,9.9,0,0,1-1.361.824,9.3,9.3,0,0,1-1.512.587,10.989,10.989,0,0,1-1.726.357,16.14,16.14,0,0,1-2,.116,8.994,8.994,0,0,1-3.463-.649,7.926,7.926,0,0,1-2.713-1.822,8.223,8.223,0,0,1-1.783-2.8,9.841,9.841,0,0,1-.626-3.6,10.09,10.09,0,0,1,.624-3.62,7.775,7.775,0,0,1,4.578-4.614,10.018,10.018,0,0,1,3.675-.642,11.458,11.458,0,0,1,1.913.151,8.933,8.933,0,0,1,1.64.437,7.556,7.556,0,0,1,1.4.69,8.557,8.557,0,0,1,1.2.915l-.667,1.07a.612.612,0,0,1-.535.326.856.856,0,0,1-.424-.132c-.2-.114-.426-.249-.676-.412a5.72,5.72,0,0,0-.915-.466,7.372,7.372,0,0,0-1.271-.378,8.352,8.352,0,0,0-1.739-.159,7.071,7.071,0,0,0-2.646.48,5.6,5.6,0,0,0-2.023,1.361,6.064,6.064,0,0,0-1.285,2.154,8.508,8.508,0,0,0-.448,2.838,8.622,8.622,0,0,0,.466,2.937,6.2,6.2,0,0,0,1.315,2.184,5.661,5.661,0,0,0,2.011,1.37,6.775,6.775,0,0,0,2.557.478Z" transform="translate(-474.123 -644.668)" fill="#103746"/>
      <path id="Trazado_9" data-name="Trazado 9" d="M655.522,657.592a10.051,10.051,0,0,1-.617,3.578,8.2,8.2,0,0,1-1.744,2.8,7.739,7.739,0,0,1-2.707,1.822,9.708,9.708,0,0,1-6.979,0,7.762,7.762,0,0,1-2.7-1.822,8.2,8.2,0,0,1-1.744-2.8,10.688,10.688,0,0,1,0-7.157,8.254,8.254,0,0,1,1.744-2.808,7.845,7.845,0,0,1,2.7-1.828,9.628,9.628,0,0,1,6.98,0,7.819,7.819,0,0,1,2.707,1.834,8.251,8.251,0,0,1,1.739,2.814A10.052,10.052,0,0,1,655.522,657.592Zm-2.409,0a8.806,8.806,0,0,0-.437-2.853,6.063,6.063,0,0,0-1.234-2.15,5.374,5.374,0,0,0-1.938-1.35,7.043,7.043,0,0,0-5.073,0,5.424,5.424,0,0,0-1.943,1.35,6.011,6.011,0,0,0-1.248,2.15,9.659,9.659,0,0,0,0,5.732,6.029,6.029,0,0,0,1.248,2.14,5.364,5.364,0,0,0,1.943,1.345,7.145,7.145,0,0,0,5.073,0,5.317,5.317,0,0,0,1.938-1.345,6.062,6.062,0,0,0,1.234-2.14,8.756,8.756,0,0,0,.437-2.88Z" transform="translate(-541.198 -644.692)" fill="#103746"/>
      <path id="Trazado_10" data-name="Trazado 10" d="M738.529,649.623a1.267,1.267,0,0,1,.346.321l10.053,13.076c-.025-.21-.041-.413-.05-.612s-.011-.388-.011-.574v-12.29h2.057V666.9h-1.187a1.011,1.011,0,0,1-.466-.1,1.159,1.159,0,0,1-.369-.328L738.863,653.4c.016.2.026.4.036.594s.012.371.012.535V666.9h-2.059V649.544h1.209A1.07,1.07,0,0,1,738.529,649.623Z" transform="translate(-616.413 -645.318)" fill="#103746"/>
      <path id="Trazado_11" data-name="Trazado 11" d="M835.408,649.549v.869a1.332,1.332,0,0,1-.255.775l-9.819,13.79h9.9V666.9H822.264v-.92a1.167,1.167,0,0,1,.227-.69l9.831-13.828h-9.6v-1.91Z" transform="translate(-681.677 -645.323)" fill="#103746"/>
      <path id="Trazado_12" data-name="Trazado 12" d="M910.994,653.215H909.18a.79.79,0,0,1-.508-.157.962.962,0,0,1-.291-.4l-1.623-4.19h-7.785l-1.623,4.19a.963.963,0,0,1-.29.387.778.778,0,0,1-.508.169h-1.814l6.938-17.351h2.382Zm-11.369-6.442H906.1l-2.721-7.059a13.076,13.076,0,0,1-.521-1.633c-.089.332-.178.635-.26.915s-.168.522-.248.731Zm7.348-15.135-3.566,2.616a1.407,1.407,0,0,1-.357.194,1.506,1.506,0,0,1-.412.048h-1.67l2.55-2.459a1.854,1.854,0,0,1,.227-.194,1.187,1.187,0,0,1,.212-.12.9.9,0,0,1,.24-.068,2.893,2.893,0,0,1,.339-.018Z" transform="translate(-737.053 -631.635)" fill="#103746"/>
      <path id="Trazado_13" data-name="Trazado 13" d="M987.623,664.927h7.506V666.9h-9.857V649.549h2.35Z" transform="translate(-806.233 -645.323)" fill="#103746"/>
      <path id="Trazado_14" data-name="Trazado 14" d="M1061.025,649.549v1.913h-8.33v5.765h6.744v1.84h-6.744v5.92h8.33V666.9h-10.7V649.549Z" transform="translate(-855.943 -645.323)" fill="#103746"/>
      <path id="Trazado_15" data-name="Trazado 15" d="M1130.95,649.549v.869a1.331,1.331,0,0,1-.255.776l-9.819,13.79h9.9V666.9h-12.972v-.92a1.167,1.167,0,0,1,.227-.69l9.83-13.828h-9.6v-1.91Z" transform="translate(-907.501 -645.323)" fill="#103746"/>
      <path id="Trazado_16" data-name="Trazado 16" d="M1231,660.029v6.9h-2.338v-6.9L1222.3,649.58h2.06a.733.733,0,0,1,.5.159,1.532,1.532,0,0,1,.314.386l3.971,6.745a8.322,8.322,0,0,1,.407.8c.109.25.207.5.3.74.088-.252.178-.5.289-.751a6.442,6.442,0,0,1,.4-.788l3.959-6.745a1.511,1.511,0,0,1,.3-.367.68.68,0,0,1,.488-.178h2.082Z" transform="translate(-987.348 -645.344)" fill="#103746"/>
      <path id="Trazado_17" data-name="Trazado 17" d="M562.795,769.119h-1.814a.781.781,0,0,1-.508-.159.968.968,0,0,1-.291-.4l-1.623-4.188h-7.785l-1.623,4.188a.965.965,0,0,1-.291.388.777.777,0,0,1-.508.178h-1.814l6.943-17.36h2.38Zm-11.369-6.442H557.9l-2.721-7.059a13,13,0,0,1-.521-1.635q-.134.5-.26.915t-.248.732Z" transform="translate(-470.991 -723.432)" fill="#688f9f"/>
      <path id="Trazado_18" data-name="Trazado 18" d="M647.55,753.851a.945.945,0,0,1-.227.271.5.5,0,0,1-.316.091.836.836,0,0,1-.478-.2,7.75,7.75,0,0,0-.69-.454,5.69,5.69,0,0,0-1.005-.453,4.306,4.306,0,0,0-1.426-.207,4.226,4.226,0,0,0-1.394.212,2.934,2.934,0,0,0-1.009.576,2.327,2.327,0,0,0-.611.854,2.7,2.7,0,0,0-.207,1.058,1.95,1.95,0,0,0,.357,1.206,3.055,3.055,0,0,0,.943.819,7.28,7.28,0,0,0,1.332.586c.5.166,1.006.337,1.526.516s1.029.378,1.525.6a5.4,5.4,0,0,1,1.334.84,3.88,3.88,0,0,1,.943,1.248,4.166,4.166,0,0,1,.357,1.814,5.847,5.847,0,0,1-.387,2.14,4.949,4.949,0,0,1-1.134,1.738,5.308,5.308,0,0,1-1.828,1.163,6.741,6.741,0,0,1-2.464.422,7.506,7.506,0,0,1-3.069-.611,7.146,7.146,0,0,1-2.368-1.653l.68-1.113a.864.864,0,0,1,.237-.227.548.548,0,0,1,.308-.091.963.963,0,0,1,.581.273,9.553,9.553,0,0,0,.817.6,6.294,6.294,0,0,0,1.188.6,4.671,4.671,0,0,0,1.7.273,4.479,4.479,0,0,0,1.489-.227,3.15,3.15,0,0,0,1.107-.649,2.757,2.757,0,0,0,.7-1,3.315,3.315,0,0,0,.244-1.295,2.176,2.176,0,0,0-.357-1.291,2.994,2.994,0,0,0-.938-.84,6.524,6.524,0,0,0-1.327-.576l-1.525-.485a15.216,15.216,0,0,1-1.526-.574,4.945,4.945,0,0,1-1.325-.847,3.906,3.906,0,0,1-.94-1.3,4.993,4.993,0,0,1,0-3.711,4.592,4.592,0,0,1,1.036-1.525,5.019,5.019,0,0,1,1.676-1.069,6.162,6.162,0,0,1,2.295-.4,7.344,7.344,0,0,1,2.652.46,6.091,6.091,0,0,1,2.1,1.332Z" transform="translate(-540.309 -722.8)" fill="#688f9f"/>
      <path id="Trazado_19" data-name="Trazado 19" d="M729.016,759.822a10.016,10.016,0,0,1-.617,3.578,8.2,8.2,0,0,1-1.744,2.8,7.786,7.786,0,0,1-2.707,1.823,9.705,9.705,0,0,1-6.979,0,7.818,7.818,0,0,1-2.7-1.822,8.164,8.164,0,0,1-1.738-2.8,10.658,10.658,0,0,1,0-7.156,8.244,8.244,0,0,1,1.738-2.81,7.845,7.845,0,0,1,2.7-1.833,9.629,9.629,0,0,1,6.979,0,7.815,7.815,0,0,1,2.707,1.833,8.28,8.28,0,0,1,1.744,2.81A10.012,10.012,0,0,1,729.016,759.822Zm-2.409,0a8.821,8.821,0,0,0-.437-2.872,6.061,6.061,0,0,0-1.234-2.149,5.359,5.359,0,0,0-1.937-1.35,7.049,7.049,0,0,0-5.075,0,5.4,5.4,0,0,0-1.943,1.35,6.019,6.019,0,0,0-1.248,2.149,9.663,9.663,0,0,0,0,5.734,6.019,6.019,0,0,0,1.248,2.14,5.325,5.325,0,0,0,1.943,1.345,7.132,7.132,0,0,0,5.075,0,5.281,5.281,0,0,0,1.937-1.345,6.064,6.064,0,0,0,1.233-2.14,8.769,8.769,0,0,0,.437-2.865Z" transform="translate(-597.354 -722.802)" fill="#688f9f"/>
      <path id="Trazado_20" data-name="Trazado 20" d="M825.461,764.894a.487.487,0,0,1,.357.157l.92,1a7.415,7.415,0,0,1-2.585,1.926,8.812,8.812,0,0,1-3.662.69,8.624,8.624,0,0,1-3.4-.647,7.443,7.443,0,0,1-2.6-1.814,8.2,8.2,0,0,1-1.67-2.8,10.474,10.474,0,0,1-.594-3.6,9.862,9.862,0,0,1,.635-3.595,8.237,8.237,0,0,1,1.783-2.81,8.012,8.012,0,0,1,2.755-1.822,9.382,9.382,0,0,1,3.541-.647,7.909,7.909,0,0,1,5.763,2.2l-.761,1.07a.8.8,0,0,1-.194.2.534.534,0,0,1-.315.076.6.6,0,0,1-.332-.114c-.118-.076-.257-.178-.419-.285s-.357-.234-.569-.357a4.846,4.846,0,0,0-.774-.357,6.53,6.53,0,0,0-1.042-.285,7.261,7.261,0,0,0-1.37-.114,6.6,6.6,0,0,0-2.548.478,5.705,5.705,0,0,0-1.992,1.361,6.226,6.226,0,0,0-1.3,2.154,8.238,8.238,0,0,0-.467,2.853,8.381,8.381,0,0,0,.467,2.894,6.376,6.376,0,0,0,1.271,2.15,5.349,5.349,0,0,0,1.906,1.337,6.1,6.1,0,0,0,2.373.46,9.614,9.614,0,0,0,1.392-.091,5.783,5.783,0,0,0,1.144-.284,4.814,4.814,0,0,0,.983-.492,7.432,7.432,0,0,0,.915-.714.621.621,0,0,1,.4-.187Z" transform="translate(-674.005 -722.787)" fill="#688f9f"/>
      <path id="Trazado_21" data-name="Trazado 21" d="M909.505,769.119h-2.35V751.772h2.35Z" transform="translate(-746.542 -723.432)" fill="#688f9f"/>
      <path id="Trazado_22" data-name="Trazado 22" d="M963.141,769.149h-1.814a.781.781,0,0,1-.508-.159.953.953,0,0,1-.291-.4l-1.623-4.188H951.12l-1.623,4.188a.966.966,0,0,1-.291.388.777.777,0,0,1-.508.178h-1.814l6.938-17.351h2.384Zm-11.369-6.442h6.478l-2.721-7.059a12.955,12.955,0,0,1-.521-1.635q-.134.5-.26.915t-.248.733Z" transform="translate(-776.898 -723.461)" fill="#688f9f"/>
      <path id="Trazado_23" data-name="Trazado 23" d="M1058.629,760.449a9.762,9.762,0,0,1-.617,3.548,7.871,7.871,0,0,1-1.744,2.737,7.792,7.792,0,0,1-2.7,1.762,9.4,9.4,0,0,1-3.488.624h-6.49V751.77h6.491a9.4,9.4,0,0,1,3.487.622,7.731,7.731,0,0,1,2.7,1.769,7.913,7.913,0,0,1,1.744,2.742,9.77,9.77,0,0,1,.617,3.547Zm-2.409,0a8.7,8.7,0,0,0-.437-2.853,6.011,6.011,0,0,0-1.234-2.14,5.274,5.274,0,0,0-1.936-1.332,6.7,6.7,0,0,0-2.532-.46h-4.129v13.551h4.128a6.667,6.667,0,0,0,2.532-.46,5.28,5.28,0,0,0,1.937-1.325,5.957,5.957,0,0,0,1.234-2.125,8.716,8.716,0,0,0,.437-2.856Z" transform="translate(-850.791 -723.43)" fill="#688f9f"/>
      <path id="Trazado_24" data-name="Trazado 24" d="M1152.258,759.822a10.014,10.014,0,0,1-.619,3.578,8.158,8.158,0,0,1-1.744,2.8,7.8,7.8,0,0,1-2.705,1.822,9.71,9.71,0,0,1-6.981,0,7.793,7.793,0,0,1-2.7-1.822,8.2,8.2,0,0,1-1.744-2.8,10.683,10.683,0,0,1,0-7.156,8.277,8.277,0,0,1,1.744-2.81,7.819,7.819,0,0,1,2.7-1.833,9.628,9.628,0,0,1,6.98,0,7.822,7.822,0,0,1,2.705,1.833,8.25,8.25,0,0,1,1.744,2.81,10.013,10.013,0,0,1,.619,3.577Zm-2.41,0a8.824,8.824,0,0,0-.436-2.872,6.059,6.059,0,0,0-1.236-2.149,5.359,5.359,0,0,0-1.936-1.35,7.049,7.049,0,0,0-5.075,0,5.416,5.416,0,0,0-1.943,1.35,6.045,6.045,0,0,0-1.248,2.149,9.664,9.664,0,0,0,0,5.734,6.046,6.046,0,0,0,1.248,2.14,5.339,5.339,0,0,0,1.943,1.345,7.133,7.133,0,0,0,5.075,0,5.281,5.281,0,0,0,1.937-1.345,6.061,6.061,0,0,0,1.236-2.14,8.77,8.77,0,0,0,.435-2.862Z" transform="translate(-920.756 -722.801)" fill="#688f9f"/>
      <path id="Trazado_25" data-name="Trazado 25" d="M1244.042,753.851a.944.944,0,0,1-.227.271.5.5,0,0,1-.315.091.835.835,0,0,1-.478-.2,7.778,7.778,0,0,0-.69-.453,5.691,5.691,0,0,0-1.005-.453,4.307,4.307,0,0,0-1.426-.207,4.211,4.211,0,0,0-1.392.212,2.929,2.929,0,0,0-1.011.576,2.327,2.327,0,0,0-.612.854,2.7,2.7,0,0,0-.207,1.058,1.951,1.951,0,0,0,.357,1.206,3.055,3.055,0,0,0,.943.819,7.278,7.278,0,0,0,1.332.586c.5.166,1.006.337,1.526.516s1.029.378,1.525.6a5.4,5.4,0,0,1,1.334.84,3.885,3.885,0,0,1,.943,1.248,4.168,4.168,0,0,1,.357,1.814,5.845,5.845,0,0,1-.387,2.14,4.95,4.95,0,0,1-1.134,1.739,5.308,5.308,0,0,1-1.828,1.162,6.739,6.739,0,0,1-2.464.423,7.506,7.506,0,0,1-3.069-.612,7.146,7.146,0,0,1-2.368-1.653l.68-1.112a.862.862,0,0,1,.237-.227.548.548,0,0,1,.308-.091.963.963,0,0,1,.581.273,9.632,9.632,0,0,0,.816.6,6.292,6.292,0,0,0,1.188.6,4.676,4.676,0,0,0,1.7.273,4.478,4.478,0,0,0,1.489-.227,3.137,3.137,0,0,0,1.107-.649,2.783,2.783,0,0,0,.7-1,3.348,3.348,0,0,0,.243-1.295,2.175,2.175,0,0,0-.357-1.291,3,3,0,0,0-.938-.84,6.525,6.525,0,0,0-1.326-.576l-1.525-.485a15.22,15.22,0,0,1-1.526-.575,4.948,4.948,0,0,1-1.325-.846,3.907,3.907,0,0,1-.94-1.3,4.99,4.99,0,0,1,0-3.711,4.6,4.6,0,0,1,1.036-1.525,5.021,5.021,0,0,1,1.676-1.069,6.159,6.159,0,0,1,2.295-.4,7.346,7.346,0,0,1,2.651.46,6.1,6.1,0,0,1,2.1,1.332Z" transform="translate(-996.092 -722.8)" fill="#688f9f"/>
      <path id="Trazado_26" data-name="Trazado 26" d="M272.152,661.148l-4.636,4.762h17.367V682.9q-1.593.483-3.875.952t-5.051.854c-1.842.257-3.818.471-5.9.636s-4.172.24-6.293.24a48.965,48.965,0,0,1-14.147-1.83,33.282,33.282,0,0,1-3.611-1.316c-.4-.178-.811-.357-1.2-.535-.009,0-.016,0-.025-.016-.248-.109-.48-.232-.714-.357l-.05-.025c-.207-.107-.4-.214-.592-.319-.535-.293-1-.568-1.353-.783-.4-.239-.636-.4-.636-.4a22.59,22.59,0,0,1-1.856-1.35,20.669,20.669,0,0,1-5.995-7.758,24.221,24.221,0,0,1-1.971-9.837,25.171,25.171,0,0,1,2.013-10.267,20.129,20.129,0,0,1,6.041-7.735,28.923,28.923,0,0,1,10.11-4.886,52.316,52.316,0,0,1,14.224-1.707,47.163,47.163,0,0,1,7.479.563,44.619,44.619,0,0,1,5.77,1.325l3.825-3.7q-2.072-.644-4.222-1.141a57.536,57.536,0,0,0-6.392-1.1,63.15,63.15,0,0,0-7.211-.388,59.516,59.516,0,0,0-9.863.794,45.626,45.626,0,0,0-8.817,2.37,33.306,33.306,0,0,0-7.451,3.965,25.45,25.45,0,0,0-5.738,5.647,25.1,25.1,0,0,0-3.692,7.286,29.07,29.07,0,0,0-1.3,8.983,27.7,27.7,0,0,0,2.807,12.825,25.568,25.568,0,0,0,7.758,9.07c.307.223.621.438.936.646l-6.512,6.608h6.97l4.037-4.1a38.131,38.131,0,0,0,6.28,2.227,57.021,57.021,0,0,0,14.664,1.773c2.574,0,5.042-.091,7.386-.282s4.62-.472,6.8-.836,4.308-.82,6.349-1.366,4.082-1.168,6.094-1.871V661.148Z" transform="translate(-226.373 -631.929)" fill="#103746"/>
      <path id="Trazado_27" data-name="Trazado 27" d="M304.532,693.176l13.908-14.135,4.686-4.762,3.843-3.909h0l14.166-14.382v14.384h4.611V651.188h0c-1.3-.547-3.014-1.325-4.586-1.979l-.394.378-3.5,3.25L299.9,690.8a29.479,29.479,0,0,0,4.629,2.375Z" transform="translate(-282.54 -645.064)" fill="#688f9f"/>
    </g>
  </g>
</svg>
