<svg xmlns="http://www.w3.org/2000/svg" xmlns:xlink="http://www.w3.org/1999/xlink" width="250" height="180" viewBox="0 0 250 180">
  <defs>
    <clipPath id="clip-path">
      <rect id="Rectángulo_69" data-name="Rectángulo 69" width="250" height="180" transform="translate(2251 3648)" fill="#fff"/>
    </clipPath>
  </defs>
  <g id="logo-tusOfertias" transform="translate(-2251 -3648)" clip-path="url(#clip-path)">
    <g id="Layer_2" data-name="Layer 2" transform="translate(2251 3706.577)">
      <g id="Layer_1" data-name="Layer 1">
        <path id="Trazado_3770" data-name="Trazado 3770" d="M5.152,39.01q-2.135-2.272-2.135-6.648V20.985H0v-6.96H3.017V5.473l8.543-.907v9.459h6.489v6.96H11.56V30.76A4.675,4.675,0,0,0,12,33a1.647,1.647,0,0,0,1.586.8,5.741,5.741,0,0,0,2.643-.667l2.11,6.3a15.363,15.363,0,0,1-3.27,1.375,15.705,15.705,0,0,1-4.2.468A7.476,7.476,0,0,1,5.152,39.01Z" fill="#4c94d0"/>
        <path id="Trazado_3771" data-name="Trazado 3771" d="M45.084,14.026V40.78H36.516V37.763h-.134a9.391,9.391,0,0,1-7.558,3.525q-9.634,0-9.637-11.4V14.026h8.552V27.768a8.294,8.294,0,0,0,.935,4.554,3.556,3.556,0,0,0,3.142,1.34,4.155,4.155,0,0,0,3.363-1.639,7.4,7.4,0,0,0,1.337-4.769V14.026Z" fill="#4c94d0"/>
        <path id="Trazado_3772" data-name="Trazado 3772" d="M45.742,37.327l4.052-5.741a10.082,10.082,0,0,0,7.022,3.045,4.279,4.279,0,0,0,1.309-.175,1.714,1.714,0,0,0,.813-.508,1.219,1.219,0,0,0,.281-.813c0-.355-.287-.7-.866-1.029a19.383,19.383,0,0,0-3.245-1.247q-1.016-.312-1.87-.655a16.378,16.378,0,0,1-1.733-.8,11.961,11.961,0,0,1-1.558-.976,8.821,8.821,0,0,1-1.293-1.187,7.347,7.347,0,0,1-1.029-1.456,7.06,7.06,0,0,1-.639-1.749,9.123,9.123,0,0,1-.228-2.094,7.692,7.692,0,0,1,1.334-4.473A8.481,8.481,0,0,1,51.7,14.518a12.349,12.349,0,0,1,5.1-1.013,17.236,17.236,0,0,1,3.684.374,15.141,15.141,0,0,1,3.257,1.113A18.423,18.423,0,0,1,66.855,16.9L62.8,23.014a9.868,9.868,0,0,0-2.989-2.082,7.574,7.574,0,0,0-3.045-.72,2.68,2.68,0,0,0-1.309.312,1.1,1.1,0,0,0-.586,1.041c0,.337.271.686.813,1.041a13.484,13.484,0,0,0,2.684,1.2l1.7.623c.449.165.957.368,1.509.6s1.01.443,1.375.623.757.405,1.175.655a7.237,7.237,0,0,1,1.029.72,10.039,10.039,0,0,1,.829.813,4.364,4.364,0,0,1,.667.935,9.662,9.662,0,0,1,.452,1.082,6.411,6.411,0,0,1,.312,1.281,10.973,10.973,0,0,1,.093,1.484,8.7,8.7,0,0,1-.667,3.457A7.6,7.6,0,0,1,64.864,38.8a9.207,9.207,0,0,1-3.379,1.817,15.8,15.8,0,0,1-4.738.651A15.99,15.99,0,0,1,45.742,37.327Z" fill="#4c94d0"/>
        <path id="Trazado_3773" data-name="Trazado 3773" d="M79.961,39.823A17.875,17.875,0,0,1,69.548,29.4a21.665,21.665,0,0,1-1.468-8.038,21.65,21.65,0,0,1,1.468-8.035,18.641,18.641,0,0,1,4.074-6.343,18.265,18.265,0,0,1,6.34-4.111,22.821,22.821,0,0,1,16.114-.028A17.9,17.9,0,0,1,106.5,13.231a21.6,21.6,0,0,1,1.5,8.129,21.531,21.531,0,0,1-1.5,8.1A17.925,17.925,0,0,1,96.075,39.851a22.868,22.868,0,0,1-16.114-.028Zm13.471-8.559a10.139,10.139,0,0,0,3.712-4.1,12.654,12.654,0,0,0,1.322-5.807,12.742,12.742,0,0,0-1.322-5.819,10.142,10.142,0,0,0-3.712-4.114,10.18,10.18,0,0,0-14.5,4.158,12.6,12.6,0,0,0-1.325,5.775,12.542,12.542,0,0,0,1.325,5.757,10.18,10.18,0,0,0,14.5,4.152Z" fill="#30336b"/>
        <path id="Trazado_3774" data-name="Trazado 3774" d="M110.977,20.985h-2.615v-6.96h2.615V9.852q0-4.856,2.338-7.356A8.412,8.412,0,0,1,119.788,0a12.941,12.941,0,0,1,4.261.664,11.9,11.9,0,0,1,2.936,1.39L125.426,8.2a7.7,7.7,0,0,0-3.391-.935q-2.493,0-2.493,2.911v3.852h5.1v6.96h-5.093V40.771h-8.571Z" fill="#30336b"/>
        <path id="Trazado_3775" data-name="Trazado 3775" d="M150.108,29.691H131.9a5.277,5.277,0,0,0,2.2,3.4,7.041,7.041,0,0,0,4.124,1.216,8.34,8.34,0,0,0,6.489-3.232l4.538,5.1a12.932,12.932,0,0,1-4.887,3.7,16.781,16.781,0,0,1-7.047,1.4,14.914,14.914,0,0,1-5.514-1.016,12.617,12.617,0,0,1-7.331-7.225,14.764,14.764,0,0,1-1.05-5.645,15.041,15.041,0,0,1,1.01-5.576,13.109,13.109,0,0,1,2.805-4.407,12.888,12.888,0,0,1,4.314-2.855,14.069,14.069,0,0,1,5.433-1.041,13.636,13.636,0,0,1,6.888,1.736,12.155,12.155,0,0,1,4.741,4.859,14.555,14.555,0,0,1,1.7,7.047,19.662,19.662,0,0,1-.2,2.534Zm-16.4-8.238a5.124,5.124,0,0,0-1.789,3.139l10.014-.053A6.427,6.427,0,0,0,141,22.294a4.326,4.326,0,0,0-1.655-1.443,5.024,5.024,0,0,0-2.269-.5A5.227,5.227,0,0,0,133.711,21.453Z" fill="#30336b"/>
        <path id="Trazado_3776" data-name="Trazado 3776" d="M168.522,13.536v9.216c-.517-.037-1.184-.053-2-.053a6.8,6.8,0,0,0-3.376.785,5.021,5.021,0,0,0-2.085,2.151,6.913,6.913,0,0,0-.679,3.117V40.768h-8.543V14.026h8.543v3.569h.106a11.045,11.045,0,0,1,2.257-2.241,9.7,9.7,0,0,1,2.631-1.375,8.889,8.889,0,0,1,2.858-.468A1.2,1.2,0,0,1,168.522,13.536Z" fill="#30336b"/>
        <path id="Trazado_3777" data-name="Trazado 3777" d="M174.656,39.01q-2.138-2.272-2.135-6.648V20.985H169.5v-6.96h3.017V5.473l8.543-.907v9.459h6.489v6.96h-6.489V30.76A4.706,4.706,0,0,0,181.5,33a1.652,1.652,0,0,0,1.59.8,5.76,5.76,0,0,0,2.643-.667l2.11,6.3a15.384,15.384,0,0,1-3.273,1.375,15.69,15.69,0,0,1-4.2.468A7.472,7.472,0,0,1,174.656,39.01Z" fill="#30336b"/>
        <path id="Trazado_3778" data-name="Trazado 3778" d="M189.451,9.438a4.641,4.641,0,0,1-1.537-3.591,4.716,4.716,0,0,1,.72-2.578,4.962,4.962,0,0,1,1.939-1.761,5.747,5.747,0,0,1,2.68-.623,5.439,5.439,0,0,1,3.806,1.4A4.622,4.622,0,0,1,198.6,5.85a4.65,4.65,0,0,1-1.537,3.591,5.86,5.86,0,0,1-7.608,0Zm-.468,4.588H197.5V40.78h-8.518Z" fill="#30336b"/>
        <path id="Trazado_3779" data-name="Trazado 3779" d="M227.582,14.026V40.78h-8.1V37.9h-.106a8.78,8.78,0,0,1-7.421,3.391,12.654,12.654,0,0,1-5.074-1.016,11.666,11.666,0,0,1-4.005-2.805,12.723,12.723,0,0,1-2.59-4.364,16.55,16.55,0,0,1-.935-5.66,16.5,16.5,0,0,1,.935-5.61,13.225,13.225,0,0,1,2.562-4.42,11.682,11.682,0,0,1,3.887-2.846,11.532,11.532,0,0,1,4.819-1.025,9.267,9.267,0,0,1,7.371,3.335h.106V14.026ZM217.73,32.009a6.417,6.417,0,0,0,1.627-4.554,7.194,7.194,0,0,0-.732-3.27,5.61,5.61,0,0,0-2.032-2.269,5.3,5.3,0,0,0-2.867-.813,5.361,5.361,0,0,0-4.114,1.761,6.477,6.477,0,0,0-1.627,4.582,6.435,6.435,0,0,0,1.6,4.554,5.61,5.61,0,0,0,8.144,0Z" fill="#30336b"/>
        <path id="Trazado_3780" data-name="Trazado 3780" d="M228.237,37.327l4.052-5.741a10.089,10.089,0,0,0,7.022,3.045,4.279,4.279,0,0,0,1.309-.175,1.727,1.727,0,0,0,.817-.508,1.216,1.216,0,0,0,.277-.813c0-.355-.287-.7-.866-1.029a19.384,19.384,0,0,0-3.245-1.247q-1.016-.312-1.87-.655A16.143,16.143,0,0,1,234,29.4a11.712,11.712,0,0,1-1.558-.976,8.683,8.683,0,0,1-1.3-1.188,7.348,7.348,0,0,1-1.029-1.456,7.06,7.06,0,0,1-.639-1.749,9.124,9.124,0,0,1-.227-2.094,7.692,7.692,0,0,1,1.334-4.473,8.481,8.481,0,0,1,3.606-2.952,12.349,12.349,0,0,1,5.1-1.013,17.236,17.236,0,0,1,3.684.374,15.085,15.085,0,0,1,3.257,1.113,18.446,18.446,0,0,1,3.117,1.911l-4.052,6.112a9.867,9.867,0,0,0-2.989-2.082,7.574,7.574,0,0,0-3.045-.72,2.659,2.659,0,0,0-1.306.312,1.094,1.094,0,0,0-.589,1.041c0,.337.271.686.813,1.041a13.482,13.482,0,0,0,2.684,1.2l1.7.623c.449.165.957.368,1.509.6s1.01.443,1.378.623.754.405,1.172.655a7.062,7.062,0,0,1,1.029.72,10.04,10.04,0,0,1,.829.813,4.251,4.251,0,0,1,.667.935,10.284,10.284,0,0,1,.455,1.082,6.631,6.631,0,0,1,.312,1.281A10.972,10.972,0,0,1,250,32.62a8.7,8.7,0,0,1-.655,3.491,7.6,7.6,0,0,1-1.976,2.724,9.207,9.207,0,0,1-3.379,1.817,15.8,15.8,0,0,1-4.738.651A16.139,16.139,0,0,1,228.237,37.327Z" fill="#30336b"/>
        <path id="Trazado_3781" data-name="Trazado 3781" d="M139.526,52.431a68.529,68.529,0,0,1-26.309,5.38A69.284,69.284,0,0,1,78.74,48.666c-.857-.5-1.493.377-.782,1.022a51.034,51.034,0,0,0,34.459,13.156c9.528,0,20.571-3,28.213-8.621C141.892,53.3,140.817,51.888,139.526,52.431Z" fill="#010101"/>
      </g>
    </g>
  </g>
</svg>
