<svg xmlns="http://www.w3.org/2000/svg" xmlns:xlink="http://www.w3.org/1999/xlink" width="250" height="180" viewBox="0 0 250 180">
  <defs>
    <clipPath id="clip-path">
      <rect id="Rectángulo_71" data-name="Rectángulo 71" width="250" height="180" transform="translate(2849 3648)" fill="#fff"/>
    </clipPath>
  </defs>
  <g id="logo-sacamo" transform="translate(-2849 -3648)" clip-path="url(#clip-path)">
    <g id="Layer_2" data-name="Layer 2" transform="translate(2849 3698.631)">
      <g id="Capa_1" data-name="Capa 1">
        <path id="Trazado_3761" data-name="Trazado 3761" d="M70.4,48.308a13.311,13.311,0,0,0-9.68-3.193A13.963,13.963,0,0,0,51.025,50a11.859,11.859,0,0,0-2.847,8.461,11.231,11.231,0,0,0,3.887,7.9,9.524,9.524,0,0,0,6.927,2.286A9.971,9.971,0,0,0,65.9,65.152a8.622,8.622,0,0,0,2.089-6.169,8.205,8.205,0,0,0-2.835-5.761,7.1,7.1,0,0,0-4.7-1.719,7.949,7.949,0,0,0-2.679.22,8.2,8.2,0,0,1,3.229-.9,7.735,7.735,0,0,1,5.635,1.854,10.81,10.81,0,0,1,.92,15.244,14.445,14.445,0,0,1-10.015,5.056A13.651,13.651,0,0,1,47.591,69.7s-9.941-7.932-2.644-21.445c.347-.605,2.306-3.6,8.449-6.419.438-.176.867-.364,1.293-.564l.038-.018h0A23.669,23.669,0,0,0,67.961,24.3a19.236,19.236,0,0,0-3-14.421,20.191,20.191,0,0,0-13.132-8.6A16.532,16.532,0,0,0,32.371,14.186a13.3,13.3,0,0,0,2.077,9.988,13.951,13.951,0,0,0,9.075,5.946,11.865,11.865,0,0,0,8.766-1.763,11.26,11.26,0,0,0,4.9-7.318A9.536,9.536,0,0,0,55.7,13.9a9.968,9.968,0,0,0-6.481-4.242,8.649,8.649,0,0,0-6.384,1.275,8.226,8.226,0,0,0-3.572,5.335,7.1,7.1,0,0,0,.881,4.938,7.785,7.785,0,0,0,1.531,2.209,8.137,8.137,0,0,1-2.421-2.35,7.738,7.738,0,0,1-1.222-5.787A10.8,10.8,0,0,1,50.775,6.86,14.448,14.448,0,0,1,60.176,13a13.672,13.672,0,0,1,2.133,10.25S60.684,34.039,48.246,35.981a13.955,13.955,0,0,1-11.328-4.133h0a23.806,23.806,0,0,0-23.872-5.026,19.218,19.218,0,0,0-10.99,9.806,20.188,20.188,0,0,0-.881,15.664,16.527,16.527,0,0,0,20.9,10.4A13.322,13.322,0,0,0,29.685,55.9,13.957,13.957,0,0,0,30.3,45.067a11.86,11.86,0,0,0-5.9-6.713,11.237,11.237,0,0,0-8.787-.588,9.515,9.515,0,0,0-5.441,4.856,9.988,9.988,0,0,0-.435,7.735,8.631,8.631,0,0,0,4.295,4.9,8.2,8.2,0,0,0,6.407.426,7.1,7.1,0,0,0,3.843-3.231,7.87,7.87,0,0,0,1.146-2.429A8.143,8.143,0,0,1,24.6,53.3a7.732,7.732,0,0,1-4.424,3.951A10.806,10.806,0,0,1,6.516,50.423a14.445,14.445,0,0,1,.626-11.2,13.66,13.66,0,0,1,7.811-6.959s11.883-4.665,19.941,8.5A15.161,15.161,0,0,1,36.219,51.09a.085.085,0,0,0,0,.026.181.181,0,0,1-.021.1h0a23.794,23.794,0,0,0,7.638,22.855,19.213,19.213,0,0,0,13.989,4.615,20.206,20.206,0,0,0,14.013-7.071A16.522,16.522,0,0,0,70.4,48.308Z" fill="#4d4084"/>
        <path id="Trazado_3762" data-name="Trazado 3762" d="M72.05,47.315a13.29,13.29,0,0,0-9.68-3.19,13.957,13.957,0,0,0-9.694,4.885,11.865,11.865,0,0,0-2.864,8.466,11.26,11.26,0,0,0,3.887,7.9,9.527,9.527,0,0,0,6.927,2.283,9.988,9.988,0,0,0,6.915-3.49A8.64,8.64,0,0,0,69.626,58a8.2,8.2,0,0,0-2.832-5.761,7.112,7.112,0,0,0-4.7-1.719,7.932,7.932,0,0,0-2.676.223,8.14,8.14,0,0,1,3.231-.92,7.741,7.741,0,0,1,5.635,1.857A10.8,10.8,0,0,1,69.2,66.924,14.43,14.43,0,0,1,59.2,71.974,13.684,13.684,0,0,1,49.254,68.7s-9.938-7.932-2.644-21.445c.347-.605,2.3-3.6,8.446-6.419q.658-.267,1.293-.567h.038a23.669,23.669,0,0,0,13.22-16.951,19.242,19.242,0,0,0-3-14.424A20.217,20.217,0,0,0,53.481.294,16.536,16.536,0,0,0,34.024,13.22,13.314,13.314,0,0,0,36.1,23.208a13.969,13.969,0,0,0,9.078,5.946,11.845,11.845,0,0,0,8.763-1.763,11.243,11.243,0,0,0,4.9-7.318,9.518,9.518,0,0,0-1.486-7.147,9.968,9.968,0,0,0-6.481-4.242,8.637,8.637,0,0,0-6.384,1.275,8.2,8.2,0,0,0-3.569,5.317,7.109,7.109,0,0,0,.881,4.941,7.891,7.891,0,0,0,1.531,2.206,8.187,8.187,0,0,1-2.418-2.35A7.753,7.753,0,0,1,39.7,14.265,10.8,10.8,0,0,1,52.441,5.849a14.427,14.427,0,0,1,9.4,6.143,13.672,13.672,0,0,1,2.133,10.25S62.35,33.026,49.912,34.97a13.976,13.976,0,0,1-11.328-4.133h0a23.891,23.891,0,0,0-23.9-5.009A19.239,19.239,0,0,0,3.707,35.634a20.2,20.2,0,0,0-.881,15.673,16.526,16.526,0,0,0,20.9,10.4,13.3,13.3,0,0,0,7.606-6.771A13.957,13.957,0,0,0,31.948,44.1a11.854,11.854,0,0,0-5.9-6.716,11.26,11.26,0,0,0-8.787-.588,9.509,9.509,0,0,0-5.441,4.859,9.988,9.988,0,0,0-.435,7.735,8.654,8.654,0,0,0,4.3,4.888,8.2,8.2,0,0,0,6.4.426,7.1,7.1,0,0,0,3.845-3.231,8,8,0,0,0,1.146-2.429,8.167,8.167,0,0,1-.828,3.27,7.756,7.756,0,0,1-4.424,3.954,10.81,10.81,0,0,1-13.66-6.827A14.424,14.424,0,0,1,8.8,38.24,13.669,13.669,0,0,1,16.6,31.266S28.5,26.6,36.545,39.771A15.153,15.153,0,0,1,37.87,50.1a.091.091,0,0,1,0,.024,1,1,0,0,1-.021.1h0a23.806,23.806,0,0,0,7.638,22.858A19.245,19.245,0,0,0,59.477,77.7,20.2,20.2,0,0,0,73.49,70.622,16.523,16.523,0,0,0,72.05,47.315Z" fill="#625d9c"/>
        <path id="Trazado_3763" data-name="Trazado 3763" d="M78.3,18.44a6.631,6.631,0,0,1,1.9-2.118,11.9,11.9,0,0,1,2.427-1.3,9.674,9.674,0,0,1,2.6-.588h.64l.144-.044h.241a11.863,11.863,0,0,1,1.977.165,10.893,10.893,0,0,1,1.863.5,5.582,5.582,0,0,1,1.469.723,4.207,4.207,0,0,1,.993.922l-.414.517-.294.588c-.082.22-.165.473-.253.761s-.159.588-.241.931v.082l-.044.059v.185l-.041.062v.065l-.658-.088-.1-.223-.144-.294-.179-.4-.229-.35a4.2,4.2,0,0,0-.714-.781,6.8,6.8,0,0,0-1.019-.7,4.486,4.486,0,0,0-1.254-.517,6.275,6.275,0,0,0-1.545-.185,4.022,4.022,0,0,0-1.7.373,5.393,5.393,0,0,0-1.548,1.113,4.868,4.868,0,0,0-1.1,1.61,4.782,4.782,0,0,0-.35,1.81v.452l.044.082v.167a3.927,3.927,0,0,0,.35,1.093,7.481,7.481,0,0,0,.682,1.134,6.463,6.463,0,0,0,1.087,1.011,8.857,8.857,0,0,0,1.545.881l4.574,1.857A10.335,10.335,0,0,1,91.157,29.3,6.407,6.407,0,0,1,92.6,30.952a6.942,6.942,0,0,1,.843,1.877,7.288,7.288,0,0,1,.267,1.957v.588l-.041.126v.082a8.711,8.711,0,0,1-.928,3.132,11.422,11.422,0,0,1-2.121,2.847,8.831,8.831,0,0,1-3.032,2.018,10.015,10.015,0,0,1-3.725.661h-.7l-.167-.044h-.326l-.159-.041-.214-.021-.159-.021a11.932,11.932,0,0,1-1.548-.35c-.511-.153-1.011-.323-1.5-.514a11.231,11.231,0,0,1-1.3-.679,10.128,10.128,0,0,1-1.008-.726l-.044-.041h-.038v-.038l-.044-.041c.109-.276.2-.538.294-.781a3.961,3.961,0,0,0,.167-.661l.059-.311.021-.308.062-.267.009-.323V38.93l.044-.144v-.993l.658-.079a16.847,16.847,0,0,0,2,2.6,4.406,4.406,0,0,0,1.71,1.193,8.91,8.91,0,0,0,1.469.414,7.306,7.306,0,0,0,1.3.123,6.381,6.381,0,0,0,2.391-.411,4.2,4.2,0,0,0,1.733-1.281,6.425,6.425,0,0,0,1.052-1.81,6.533,6.533,0,0,0,.391-1.983,5.482,5.482,0,0,0-.229-1.586,6.374,6.374,0,0,0-.676-1.5,4.213,4.213,0,0,0-1.1-1.275,5.473,5.473,0,0,0-1.592-.864L82.176,29.3a11.228,11.228,0,0,1-2.858-1.689,4.386,4.386,0,0,1-1.381-1.895,17.213,17.213,0,0,1-.455-2.021,13.765,13.765,0,0,1-.162-2.1v-.082a8.5,8.5,0,0,1,.987-3.073" fill="#636569"/>
        <path id="Trazado_3764" data-name="Trazado 3764" d="M106.768,14.671h.952l12.694,28.9h-1.422l-.185-.041h-.637l-.179-.041H117l-.311.062-.27.021h-.588l-4.533-11.375h-10.05l-4.2,11.375H96.8l-.147-.021-.144-.021h-.118l-.126-.041h-.787l-.085.041h-.209l-.059.041H93.78l12.979-28.9m3.878,15.57-4.2-10.047-4.207,10.065Z" fill="#636569"/>
        <path id="Trazado_3765" data-name="Trazado 3765" d="M121.876,24.174a15.637,15.637,0,0,1,3.052-4.724,13.2,13.2,0,0,1,4.865-3.273,17.259,17.259,0,0,1,6.307-1.093h.826l.414.041h.411c.294.026.588.044.881.062s.588.035.881.062a14.35,14.35,0,0,1,1.71.185c.561.1,1.122.214,1.672.35a10.942,10.942,0,0,1,1.563.514,9.573,9.573,0,0,1,1.4.723l-.99,3.173h-.329a17.392,17.392,0,0,0-1.528-1.213,11.689,11.689,0,0,0-3.267-1.648,16.5,16.5,0,0,0-1.677-.438l-.5-.059-.452-.062H136.9l-.209-.041h-.452a10.385,10.385,0,0,0-4.113.825,11.83,11.83,0,0,0-3.625,2.471,11.163,11.163,0,0,0-2.518,3.916,14.6,14.6,0,0,0-.861,5.2v.529a19.706,19.706,0,0,0,.966,6.016,8.845,8.845,0,0,0,2.585,3.972,12.244,12.244,0,0,0,3.634,2.2,11.078,11.078,0,0,0,4,.726h.743a18.872,18.872,0,0,0,2.227-.311,13.193,13.193,0,0,0,2.18-.64,13.631,13.631,0,0,0,2.021-.966,12.875,12.875,0,0,0,1.73-1.219l-.329,2.515-.588.373-.532.329-.588.294-.588.244c-.294.115-.588.209-.881.294a8.675,8.675,0,0,0-.846.294l-.311.082-.264.082q-.623.123-1.2.247c-.385.082-.77.15-1.155.209s-.761.094-1.134.12-.746.044-1.131.044a16.254,16.254,0,0,1-5.608-.949,14.659,14.659,0,0,1-4.824-2.967,12.7,12.7,0,0,1-3.317-4.762,16.693,16.693,0,0,1-1.061-6.228v-.085a14.289,14.289,0,0,1,1.028-5.417" fill="#636569"/>
        <path id="Trazado_3766" data-name="Trazado 3766" d="M160.128,14.671h.949l12.7,28.9h-1.422l-.185-.041h-.643l-.182-.041h-.987l-.314.062-.267.021h-.561l-4.536-11.375H154.608l-4.2,11.375h-.25l-.144-.021-.147-.021h-.123l-.123-.041h-.781l-.082.041h-.206l-.062.041H147.15l12.985-28.9m3.875,15.57-4.2-10.047L155.6,30.258Z" fill="#636569"/>
        <path id="Trazado_3767" data-name="Trazado 3767" d="M179.911,15h1.281l11.378,21.762L204.229,15h1.322l3.255,28.566-.494-.021-.455-.062-.408-.021-.414-.062h-.588l-.253.041-.294.021-.247.021-.517.062c-.179,0-.376.021-.588.021l-1.936-21.445L191.9,42.893h-.658L180.863,22.462l-1.939,21.1-.267-.021-.311-.062L178,43.422l-.4-.021h-.411l-.065.041h-.056l-.311.021-.264.062-.25.041H176L179.911,15" fill="#636569"/>
        <path id="Trazado_3768" data-name="Trazado 3768" d="M211.189,28.954V28.6l.032-.4.062-.411a13.806,13.806,0,0,1,1.36-4.759,17.591,17.591,0,0,1,3.09-4.407,12.1,12.1,0,0,1,4.771-3.149,19.027,19.027,0,0,1,6.6-1.049,23.9,23.9,0,0,1,6.489.987,10.282,10.282,0,0,1,4.348,2.556,16.689,16.689,0,0,1,2.7,3.466,13.491,13.491,0,0,1,1.5,3.787l.126.5.079.452.082.494.085.494a8.849,8.849,0,0,1,.1.969c0,.317.032.626.059.928v.535a15.306,15.306,0,0,1-1.175,6.125,12.147,12.147,0,0,1-3.569,4.633,16.507,16.507,0,0,1-5.088,2.938,17.183,17.183,0,0,1-5.705.949h-.7c-.358,0-.711,0-1.052-.021a10.281,10.281,0,0,1-1.052-.106,7.082,7.082,0,0,1-1.069-.165l-1.072-.247a13.411,13.411,0,0,1-3.957-1.566,18.863,18.863,0,0,1-3.625-2.8,10.367,10.367,0,0,1-2.579-4.186,17.858,17.858,0,0,1-.843-5.767v-.423m5.047,6.037a10.869,10.869,0,0,0,6.207,6.8,12.083,12.083,0,0,0,4.656.881,10.411,10.411,0,0,0,4.269-.881,9.988,9.988,0,0,0,3.481-2.594,12.72,12.72,0,0,0,2.471-4.207,20.8,20.8,0,0,0,1.155-5.614v-.649a14.81,14.81,0,0,0-.814-4.932,12.339,12.339,0,0,0-2.412-4.08,10.755,10.755,0,0,0-3.757-2.735,11.877,11.877,0,0,0-4.721-.908,10.717,10.717,0,0,0-4.139.746A7.861,7.861,0,0,0,219.6,19a17.827,17.827,0,0,0-2.083,3.09,17.264,17.264,0,0,0-1.34,3.337c-.082.358-.165.705-.247,1.031s-.153.661-.206.99-.106.661-.144.99-.091.646-.144.949V29.3a18.532,18.532,0,0,0,.8,5.687Z" fill="#636569"/>
        <path id="Trazado_3769" data-name="Trazado 3769" d="M246.265,12.661a3.847,3.847,0,1,1-.021,0Zm-.044.731a2.9,2.9,0,1,0,.044,5.8,2.782,2.782,0,0,0,2.767-2.879,2.834,2.834,0,0,0-2.788-2.92Zm-.552,4.78h-.843V14.545a9.442,9.442,0,0,1,1.4-.112,1.892,1.892,0,0,1,1.24.294.911.911,0,0,1,.376.773.937.937,0,0,1-.752.864v.044c.353.112.532.4.643.881a3.129,3.129,0,0,0,.264.881h-.881a2.82,2.82,0,0,1-.294-.881c-.065-.376-.294-.552-.752-.552h-.4Zm.021-2.036h.4c.464,0,.84-.156.84-.532,0-.332-.244-.552-.776-.552a1.939,1.939,0,0,0-.464.044Z" fill="#636569"/>
      </g>
    </g>
  </g>
</svg>
