<svg id="sacamo-logo" xmlns="http://www.w3.org/2000/svg" xmlns:xlink="http://www.w3.org/1999/xlink" width="298.306" height="93.958" viewBox="0 0 298.306 93.958">
  <defs>
    <radialGradient id="radial-gradient" cx="0.5" cy="0.5" r="0.5" gradientTransform="translate(0)" gradientUnits="objectBoundingBox">
      <stop offset="0" stop-color="#fff"/>
      <stop offset="0.18" stop-color="#fff" stop-opacity="0.78"/>
      <stop offset="0.48" stop-color="#fff" stop-opacity="0.451"/>
      <stop offset="0.73" stop-color="#fff" stop-opacity="0.212"/>
      <stop offset="0.91" stop-color="#fff" stop-opacity="0.059"/>
      <stop offset="1" stop-color="#fff" stop-opacity="0"/>
    </radialGradient>
  </defs>
  <path id="Trazado_4412" data-name="Trazado 4412" d="M84,59.814A15.883,15.883,0,0,0,72.452,56a16.661,16.661,0,0,0-11.568,5.829,14.151,14.151,0,0,0-3.4,10.1,13.4,13.4,0,0,0,4.638,9.426,11.364,11.364,0,0,0,8.266,2.727,11.9,11.9,0,0,0,8.248-4.168,10.288,10.288,0,0,0,2.492-7.361,9.79,9.79,0,0,0-3.383-6.874,8.465,8.465,0,0,0-5.609-2.051,9.485,9.485,0,0,0-3.2.263A9.783,9.783,0,0,1,72.8,62.815a9.23,9.23,0,0,1,6.723,2.212,12.9,12.9,0,0,1,1.1,18.189,17.236,17.236,0,0,1-11.95,6.033,16.289,16.289,0,0,1-11.88-3.908s-11.862-9.464-3.155-25.589c.414-.722,2.752-4.291,10.081-7.659.522-.21,1.034-.435,1.542-.673L65.3,51.4h0A28.243,28.243,0,0,0,81.093,31.169a22.953,22.953,0,0,0-3.579-17.208A24.092,24.092,0,0,0,61.845,3.7,19.727,19.727,0,0,0,38.625,19.1,15.869,15.869,0,0,0,41.1,31.018a16.647,16.647,0,0,0,10.828,7.095,14.158,14.158,0,0,0,10.46-2.1,13.436,13.436,0,0,0,5.847-8.732,11.378,11.378,0,0,0-1.774-8.521,11.894,11.894,0,0,0-7.733-5.062,10.32,10.32,0,0,0-7.617,1.521,9.815,9.815,0,0,0-4.262,6.366A8.476,8.476,0,0,0,47.9,27.474,9.289,9.289,0,0,0,49.73,30.11a9.71,9.71,0,0,1-2.888-2.8A9.233,9.233,0,0,1,45.384,20.4a12.891,12.891,0,0,1,15.2-10.043A17.239,17.239,0,0,1,71.8,17.687a16.314,16.314,0,0,1,2.545,12.23S72.41,42.789,57.568,45.106c-2.517.3-8.1.214-13.517-4.932h0a28.405,28.405,0,0,0-28.484-6,22.932,22.932,0,0,0-13.113,11.7A24.089,24.089,0,0,0,1.4,64.568,19.72,19.72,0,0,0,26.346,76.977a15.9,15.9,0,0,0,9.075-8.1,16.654,16.654,0,0,0,.729-12.928,14.151,14.151,0,0,0-7.039-8.01,13.408,13.408,0,0,0-10.484-.7,11.354,11.354,0,0,0-6.492,5.794,11.918,11.918,0,0,0-.519,9.23,10.3,10.3,0,0,0,5.125,5.847,9.78,9.78,0,0,0,7.645.508,8.469,8.469,0,0,0,4.585-3.856,9.391,9.391,0,0,0,1.367-2.9,9.717,9.717,0,0,1-.989,3.9,9.226,9.226,0,0,1-5.279,4.715,12.894,12.894,0,0,1-16.3-8.143,17.236,17.236,0,0,1,.747-13.369,16.3,16.3,0,0,1,9.321-8.3S32.021,35.1,41.636,50.813a18.091,18.091,0,0,1,1.581,12.321.1.1,0,0,0,0,.032.215.215,0,0,1-.025.119h0a28.392,28.392,0,0,0,9.114,27.272A22.925,22.925,0,0,0,69,96.063a24.11,24.11,0,0,0,16.72-8.437A19.715,19.715,0,0,0,84,59.814Z" transform="translate(0 -2.169)" fill="#4d4084"/>
  <path id="Trazado_4413" data-name="Trazado 4413" d="M89.621,56.451a15.858,15.858,0,0,0-11.55-3.807A16.654,16.654,0,0,0,66.5,58.474a14.158,14.158,0,0,0-3.418,10.1,13.436,13.436,0,0,0,4.638,9.429,11.368,11.368,0,0,0,8.266,2.724,11.918,11.918,0,0,0,8.252-4.164A10.309,10.309,0,0,0,86.729,69.2,9.79,9.79,0,0,0,83.35,62.33a8.486,8.486,0,0,0-5.609-2.051,9.464,9.464,0,0,0-3.193.266,9.713,9.713,0,0,1,3.856-1.1,9.237,9.237,0,0,1,6.723,2.215,12.892,12.892,0,0,1,1.1,18.186,17.218,17.218,0,0,1-11.939,6.026,16.328,16.328,0,0,1-11.866-3.908S50.561,72.5,59.264,56.377c.414-.722,2.748-4.294,10.078-7.659q.785-.319,1.542-.677h.046A28.243,28.243,0,0,0,86.7,27.816,22.96,22.96,0,0,0,83.129,10.6,24.124,24.124,0,0,0,67.463.345,19.732,19.732,0,0,0,44.248,15.768a15.886,15.886,0,0,0,2.475,11.918,16.668,16.668,0,0,0,10.832,7.095,14.134,14.134,0,0,0,10.456-2.1,13.415,13.415,0,0,0,5.847-8.732,11.357,11.357,0,0,0-1.774-8.529,11.894,11.894,0,0,0-7.733-5.062,10.306,10.306,0,0,0-7.617,1.521,9.787,9.787,0,0,0-4.259,6.345,8.483,8.483,0,0,0,1.052,5.9,9.415,9.415,0,0,0,1.826,2.633,9.769,9.769,0,0,1-2.885-2.8,9.251,9.251,0,0,1-1.448-6.93,12.89,12.89,0,0,1,15.2-10.043A17.215,17.215,0,0,1,77.44,14.3a16.314,16.314,0,0,1,2.545,12.23S78.046,39.4,63.2,41.722c-2.517.294-8.1.21-13.517-4.932h0a28.507,28.507,0,0,0-28.512-5.977,22.956,22.956,0,0,0-13.1,11.7,24.106,24.106,0,0,0-1.052,18.7A19.719,19.719,0,0,0,31.965,73.624a15.869,15.869,0,0,0,9.075-8.08,16.654,16.654,0,0,0,.729-12.928A14.144,14.144,0,0,0,34.731,44.6a13.436,13.436,0,0,0-10.484-.7,11.347,11.347,0,0,0-6.492,5.8,11.918,11.918,0,0,0-.519,9.23,10.327,10.327,0,0,0,5.128,5.833,9.787,9.787,0,0,0,7.642.508,8.476,8.476,0,0,0,4.588-3.856,9.549,9.549,0,0,0,1.367-2.9,9.745,9.745,0,0,1-.989,3.9,9.254,9.254,0,0,1-5.279,4.718,12.9,12.9,0,0,1-16.3-8.146,17.211,17.211,0,0,1,.75-13.366A16.31,16.31,0,0,1,23.461,37.3s14.19-5.566,23.794,10.148a18.081,18.081,0,0,1,1.581,12.325.108.108,0,0,1,0,.028,1.191,1.191,0,0,1-.025.119h0A28.406,28.406,0,0,0,57.925,87.2,22.963,22.963,0,0,0,74.618,92.7a24.1,24.1,0,0,0,16.72-8.441A19.715,19.715,0,0,0,89.621,56.451Z" transform="translate(-3.649 0.009)" fill="#625d9c"/>
  <path id="Trazado_4414" data-name="Trazado 4414" d="M262.886,53.814a7.912,7.912,0,0,1,2.268-2.527,14.193,14.193,0,0,1,2.9-1.553,11.543,11.543,0,0,1,3.106-.7h.764l.172-.053h.287a14.155,14.155,0,0,1,2.359.2,13,13,0,0,1,2.222.592,6.66,6.66,0,0,1,1.753.862,5.02,5.02,0,0,1,1.185,1.1l-.494.617-.351.7c-.1.263-.2.564-.3.908s-.189.7-.287,1.111v.1l-.053.07v.221l-.049.074v.077l-.785-.105-.119-.266-.172-.351-.214-.48-.273-.417a5.009,5.009,0,0,0-.852-.932,8.117,8.117,0,0,0-1.216-.838,5.352,5.352,0,0,0-1.5-.617,7.487,7.487,0,0,0-1.844-.221,4.8,4.8,0,0,0-2.03.445,6.435,6.435,0,0,0-1.847,1.329,5.808,5.808,0,0,0-1.307,1.921,5.707,5.707,0,0,0-.417,2.159v.54l.053.1v.2a4.687,4.687,0,0,0,.417,1.3,8.927,8.927,0,0,0,.813,1.353,7.711,7.711,0,0,0,1.3,1.206,10.569,10.569,0,0,0,1.844,1.052L275.67,65.2a12.332,12.332,0,0,1,2.559,1.574,7.645,7.645,0,0,1,1.721,1.966,8.283,8.283,0,0,1,1.006,2.24,8.7,8.7,0,0,1,.319,2.335v.7l-.049.151v.1A10.394,10.394,0,0,1,280.119,78a13.63,13.63,0,0,1-2.531,3.4,10.537,10.537,0,0,1-3.618,2.408,11.95,11.95,0,0,1-4.445.789h-.838l-.2-.053H268.1l-.189-.049-.256-.025-.189-.025a14.237,14.237,0,0,1-1.847-.417c-.61-.182-1.206-.386-1.795-.613a13.4,13.4,0,0,1-1.549-.81,12.085,12.085,0,0,1-1.2-.866l-.053-.049h-.046v-.046l-.053-.049c.13-.329.242-.641.351-.932a4.726,4.726,0,0,0,.2-.789l.07-.372.025-.368.074-.319.011-.386v-.168l.053-.172V76.907l.785-.095a20.1,20.1,0,0,0,2.387,3.1,5.258,5.258,0,0,0,2.04,1.423,10.631,10.631,0,0,0,1.753.494,8.718,8.718,0,0,0,1.549.147,7.614,7.614,0,0,0,2.853-.491,5.013,5.013,0,0,0,2.068-1.528,7.667,7.667,0,0,0,1.255-2.159,7.8,7.8,0,0,0,.466-2.366,6.541,6.541,0,0,0-.273-1.893,7.605,7.605,0,0,0-.806-1.795,5.026,5.026,0,0,0-1.307-1.521,6.53,6.53,0,0,0-1.9-1.031l-5.058-2.415a13.4,13.4,0,0,1-3.411-2.016,5.234,5.234,0,0,1-1.648-2.261,20.542,20.542,0,0,1-.543-2.412,16.427,16.427,0,0,1-.193-2.51v-.1a10.144,10.144,0,0,1,1.178-3.667" transform="translate(-169.459 -31.808)" fill="#636569"/>
  <path id="Trazado_4415" data-name="Trazado 4415" d="M334.727,49.94h1.136l15.147,34.479h-1.7l-.221-.049h-.761l-.214-.049h-1.185l-.372.074-.322.025h-.7l-5.409-13.573H328.137l-5.013,13.573h-.294l-.175-.025-.172-.025h-.14l-.151-.049h-.939l-.1.049H320.9l-.07.049h-1.6L334.717,49.94m4.627,18.578L334.335,56.53l-5.02,12.009Z" transform="translate(-207.329 -32.431)" fill="#636569"/>
  <path id="Trazado_4416" data-name="Trazado 4416" d="M412.588,62.191a18.659,18.659,0,0,1,3.642-5.637,15.75,15.75,0,0,1,5.8-3.9,20.594,20.594,0,0,1,7.526-1.3h.985l.494.049h.491c.351.032.7.053,1.052.074s.7.042,1.052.074a17.123,17.123,0,0,1,2.04.221c.669.116,1.339.256,1.995.417a13.057,13.057,0,0,1,1.865.613,11.424,11.424,0,0,1,1.676.862l-1.181,3.786h-.393a20.752,20.752,0,0,0-1.823-1.448,13.948,13.948,0,0,0-3.9-1.966,19.688,19.688,0,0,0-2-.522l-.6-.07-.54-.074h-.266l-.249-.049h-.54a12.391,12.391,0,0,0-4.907.985,14.116,14.116,0,0,0-4.326,2.948,13.32,13.32,0,0,0-3,4.673,17.424,17.424,0,0,0-1.027,6.2v.631a23.514,23.514,0,0,0,1.153,7.179,10.554,10.554,0,0,0,3.085,4.739,14.61,14.61,0,0,0,4.336,2.629,13.219,13.219,0,0,0,4.767.866h.887a22.519,22.519,0,0,0,2.657-.372,15.745,15.745,0,0,0,2.6-.764,16.266,16.266,0,0,0,2.412-1.153,15.365,15.365,0,0,0,2.065-1.455l-.393,3-.7.445-.634.393-.7.351-.7.291c-.351.137-.7.249-1.052.351a10.354,10.354,0,0,0-1.01.351l-.372.1-.315.1q-.743.147-1.43.294c-.459.1-.918.179-1.378.249s-.908.112-1.353.144-.89.053-1.35.053A19.4,19.4,0,0,1,422.34,85.4a17.491,17.491,0,0,1-5.756-3.54,15.157,15.157,0,0,1-3.958-5.682,19.918,19.918,0,0,1-1.265-7.431v-.1a17.05,17.05,0,0,1,1.227-6.464" transform="translate(-267.162 -33.343)" fill="#636569"/>
  <path id="Trazado_4417" data-name="Trazado 4417" d="M516.387,49.94h1.132l15.15,34.479h-1.7l-.221-.049h-.768l-.217-.049h-1.178l-.375.074-.319.025h-.669l-5.412-13.573H509.8l-5.009,13.573h-.3l-.172-.025-.175-.025H504l-.147-.049h-.932l-.1.049h-.245l-.074.049h-1.6L516.394,49.94m4.624,18.578L516.008,56.53l-5.027,12.009Z" transform="translate(-325.317 -32.431)" fill="#636569"/>
  <path id="Trazado_4418" data-name="Trazado 4418" d="M603.769,51.06H605.3l13.576,25.968L632.786,51.06h1.577l3.884,34.086-.589-.025-.543-.074-.487-.025-.494-.074h-.7l-.3.049-.351.025-.294.025-.617.074c-.214,0-.449.025-.7.025l-2.31-25.589-12.78,24.786h-.785L604.9,59.964l-2.314,25.182-.319-.025-.372-.074-.414-.074-.473-.025h-.491l-.077.049h-.067l-.372.025-.315.074-.3.049H599.1l4.669-34.086" transform="translate(-389.095 -33.158)" fill="#636569"/>
  <path id="Trazado_4419" data-name="Trazado 4419" d="M718.883,66.437v-.417l.039-.48.074-.491a16.474,16.474,0,0,1,1.623-5.679,20.989,20.989,0,0,1,3.688-5.258A14.435,14.435,0,0,1,730,50.354a22.7,22.7,0,0,1,7.87-1.251,28.523,28.523,0,0,1,7.743,1.178,12.269,12.269,0,0,1,5.188,3.05,19.916,19.916,0,0,1,3.225,4.136,16.1,16.1,0,0,1,1.795,4.518l.151.592.095.54.1.589.1.589a10.551,10.551,0,0,1,.123,1.157c0,.379.039.747.07,1.108V67.2a18.263,18.263,0,0,1-1.4,7.309,14.494,14.494,0,0,1-4.259,5.528,19.7,19.7,0,0,1-6.071,3.505,20.5,20.5,0,0,1-6.807,1.132h-.838c-.428,0-.848,0-1.255-.025a12.268,12.268,0,0,1-1.255-.126,8.451,8.451,0,0,1-1.276-.2l-1.279-.294a16,16,0,0,1-4.722-1.868,22.511,22.511,0,0,1-4.326-3.344,12.371,12.371,0,0,1-3.078-5,21.308,21.308,0,0,1-1.006-6.881v-.5m6.022,7.2a12.97,12.97,0,0,0,7.407,8.115,14.417,14.417,0,0,0,5.556,1.052,12.423,12.423,0,0,0,5.093-1.052,11.918,11.918,0,0,0,4.154-3.1,15.177,15.177,0,0,0,2.948-5.02,24.819,24.819,0,0,0,1.378-6.7v-.775a17.672,17.672,0,0,0-.971-5.885,14.723,14.723,0,0,0-2.878-4.869,12.833,12.833,0,0,0-4.483-3.263,14.172,14.172,0,0,0-5.633-1.083,12.788,12.788,0,0,0-4.939.89,9.381,9.381,0,0,0-3.614,2.6,21.271,21.271,0,0,0-2.485,3.688,20.6,20.6,0,0,0-1.6,3.982c-.1.428-.2.841-.294,1.23s-.182.789-.245,1.181-.126.789-.172,1.181-.109.771-.172,1.132v-.1a22.111,22.111,0,0,0,.95,6.786Z" transform="translate(-466.887 -31.885)" fill="#636569"/>
  <path id="Trazado_4420" data-name="Trazado 4420" d="M829.963,43.1a4.59,4.59,0,1,1-.025,0Zm-.053.873a3.46,3.46,0,1,0,.053,6.92,3.319,3.319,0,0,0,3.3-3.435,3.381,3.381,0,0,0-3.327-3.484Zm-.659,5.7h-1.006V45.344a11.268,11.268,0,0,1,1.665-.133,2.257,2.257,0,0,1,1.479.351,1.087,1.087,0,0,1,.449.922,1.118,1.118,0,0,1-.9,1.031v.053c.421.133.634.477.768,1.052a3.734,3.734,0,0,0,.315,1.052h-1.052a3.365,3.365,0,0,1-.35-1.052c-.077-.449-.351-.659-.9-.659h-.473Zm.025-2.429h.477c.554,0,1-.186,1-.634,0-.4-.291-.659-.925-.659a2.313,2.313,0,0,0-.554.053Z" transform="translate(-536.113 -27.986)" fill="#636569"/>
  <circle id="Elipse_33" data-name="Elipse 33" cx="17.755" cy="17.755" r="17.755" transform="translate(34.566 31.867)" fill="url(#radial-gradient)"/>
</svg>
