<svg xmlns="http://www.w3.org/2000/svg" xmlns:xlink="http://www.w3.org/1999/xlink" width="250" height="180" viewBox="0 0 250 180">
  <defs>
    <clipPath id="clip-path">
      <rect id="Rectángulo_101" data-name="Rectángulo 101" width="250" height="180" transform="translate(-7092 -801)" fill="#fff"/>
    </clipPath>
  </defs>
  <g id="logo-bts" transform="translate(7092 801)" clip-path="url(#clip-path)">
    <g id="Capa_2" data-name="Capa 2" transform="translate(-7054.992 -775.65)">
      <g id="Capa_1" data-name="Capa 1" transform="translate(-0.002 0.001)">
        <path id="Trazado_8766" data-name="Trazado 8766" d="M90.461,28.182q.094-1.078.193-2.153A18.156,18.156,0,0,1,92,20.6a4.454,4.454,0,0,1,4.686-2.769,4.489,4.489,0,0,1,3.645,6.057,15.3,15.3,0,0,0-.947,5.461,14.777,14.777,0,0,0,3.971,9.929,14.017,14.017,0,0,0,8.584,4.661c6.241.888,11.245-1.325,14.9-6.451A14.082,14.082,0,0,0,129.453,29a14.116,14.116,0,0,0-1-5.223,4.493,4.493,0,1,1,8.457-3.032,26.1,26.1,0,0,1,1.418,9.574,22.606,22.606,0,0,1-6.261,14.975,24.092,24.092,0,0,1-9.549,6.4A23.829,23.829,0,0,1,112.1,52.916c-8.794-.851-14.99-5.543-19.148-13.134a20.323,20.323,0,0,1-2.292-7.943l-.187-1.986Z" transform="translate(-26.78 -5.227)" fill="#5268c2"/>
        <path id="Trazado_8767" data-name="Trazado 8767" d="M103.271,91.083c-.681-.187-13.373-5.146-14.028-5.435a6.573,6.573,0,0,1-3.759-5.674,6.329,6.329,0,0,1,2.269-4.967c1.736-1.478,4.669-3.322,10.612-7.447l4,4.488c-2.786,2.7-4.434,3.554-4.434,5.54,0,2.76,1.418,3.835,7.327,4.417" transform="translate(-25.306 -20.002)" fill="#5268c2"/>
        <path id="Trazado_8768" data-name="Trazado 8768" d="M115.584,92.735a4.675,4.675,0,1,1-4.675-4.675,4.675,4.675,0,0,1,4.675,4.675" transform="translate(-31.449 -26.071)" fill="#5268c2"/>
        <path id="Trazado_8769" data-name="Trazado 8769" d="M98.15,82.4a6.335,6.335,0,1,1-6.335-6.335A6.335,6.335,0,0,1,98.15,82.4" transform="translate(-25.305 -22.519)" fill="#5268c2"/>
        <path id="Trazado_8770" data-name="Trazado 8770" d="M108.168,69.655a3.018,3.018,0,1,1-3.018-3.018,3.018,3.018,0,0,1,3.018,3.018" transform="translate(-30.235 -19.729)" fill="#5268c2"/>
        <path id="Trazado_8771" data-name="Trazado 8771" d="M131.03,4.619A4.479,4.479,0,1,1,126.446.225a4.479,4.479,0,0,1,4.584,4.394" transform="translate(-36.138 -0.067)" fill="#3cdbc0"/>
        <path id="Trazado_8772" data-name="Trazado 8772" d="M109.418,10.743a4.5,4.5,0,1,1-4.6-4.408,4.5,4.5,0,0,1,4.6,4.408" transform="translate(-29.728 -1.876)" fill="#3cdbc0"/>
        <path id="Trazado_8773" data-name="Trazado 8773" d="M102.45,5.691A23.949,23.949,0,0,1,121.329.2l-1.052,8.927s-6.7-1.206-11.832,3.271Z" transform="translate(-30.329 -0.001)" fill="#3cdbc0"/>
        <path id="Trazado_8774" data-name="Trazado 8774" d="M155.594,104.955a7.183,7.183,0,1,1-7.182-7.18,7.183,7.183,0,0,1,7.182,7.18" transform="translate(-41.81 -28.947)" fill="#3cdbc0"/>
        <path id="Trazado_8775" data-name="Trazado 8775" d="M134.183,83.918a4.559,4.559,0,1,1-4.559-4.559,4.559,4.559,0,0,1,4.559,4.559" transform="translate(-37.024 -23.495)" fill="#3cdbc0"/>
        <path id="Trazado_8776" data-name="Trazado 8776" d="M224.058,149.044c.017-.218.037-.44.057-.658a5.589,5.589,0,0,1,.414-1.662,1.364,1.364,0,0,1,1.418-.851,1.382,1.382,0,0,1,1.118,1.858,4.666,4.666,0,0,0-.284,1.671A4.539,4.539,0,0,0,228,152.44a4.3,4.3,0,0,0,2.627,1.418,4.452,4.452,0,0,0,4.562-1.986,4.292,4.292,0,0,0,.8-2.6,4.369,4.369,0,0,0-.306-1.6,1.376,1.376,0,1,1,2.587-.93,7.944,7.944,0,0,1,.431,2.933,6.9,6.9,0,0,1-1.918,4.581,7.3,7.3,0,0,1-11.954-1.648,6.209,6.209,0,0,1-.7-2.431c-.02-.2-.04-.4-.057-.6Z" transform="translate(-66.331 -43.159)" fill="#5268c2"/>
        <path id="Trazado_8777" data-name="Trazado 8777" d="M159.178,149.614v-.6c0-.148.026-.284.037-.443a5.909,5.909,0,0,1,.411-1.8,1.373,1.373,0,0,1,2.576.947,4.556,4.556,0,0,0-.221,2.454,4.471,4.471,0,0,0,1.3,2.44,4.386,4.386,0,0,0,4.074,1.228,4.5,4.5,0,0,0,3.5-3.081,4.229,4.229,0,0,0,.207-1.852,4.359,4.359,0,0,0-.284-1.211,1.37,1.37,0,0,1,.947-1.827c.1-.026.207-.037.312-.054h.051l.094.017a1.3,1.3,0,0,1,1.024.618,2.386,2.386,0,0,1,.224.533,7.072,7.072,0,0,1,.369,2.1c.017.618.017,1.237.02,1.855v6.893a5.334,5.334,0,0,1-.15,1.325,5.878,5.878,0,0,1-1.759,2.967,7.943,7.943,0,0,1-5.137,2.145,7.321,7.321,0,0,1-2.136-.207,7.849,7.849,0,0,1-5.038-3.722,1.776,1.776,0,0,1-.332-.851,1.39,1.39,0,0,1,.284-.973,1.353,1.353,0,0,1,1.169-.516.984.984,0,0,1,.743.312c.2.221.38.451.567.687a7.743,7.743,0,0,0,.947,1.118,4.942,4.942,0,0,0,3.067,1.359,5.169,5.169,0,0,0,2.292-.284,4.227,4.227,0,0,0,2.315-1.9,2.956,2.956,0,0,0,.409-1.322v-2.911l-.1.079a6.967,6.967,0,0,1-3.841,1.5,8.014,8.014,0,0,1-1.787-.062,6.826,6.826,0,0,1-2.213-.721,7.66,7.66,0,0,1-2.678-2.389,6.808,6.808,0,0,1-1.225-3.438C159.209,149.887,159.195,149.751,159.178,149.614Z" transform="translate(-47.123 -43.17)" fill="#5268c2"/>
        <path id="Trazado_8778" data-name="Trazado 8778" d="M208.106,141.793v.264a7.526,7.526,0,0,1,2.136-1.206,7.155,7.155,0,0,1,2.46-.42,10.82,10.82,0,0,1,1.237.079,5.622,5.622,0,0,1,1.217.284,2.584,2.584,0,0,1,.922.567,1.217,1.217,0,0,1,.366.916,1.319,1.319,0,0,1-.111.539,1.5,1.5,0,0,1-.284.437,1.231,1.231,0,0,1-.431.284,1.39,1.39,0,0,1-.536.1,1.463,1.463,0,0,1-.567-.145,4.823,4.823,0,0,0-1.793-.326,4.468,4.468,0,0,0-1.793.36,4.559,4.559,0,0,0-2.44,2.44,4.482,4.482,0,0,0-.363,1.793v5.957a1.362,1.362,0,0,1-1.359,1.362,1.325,1.325,0,0,1-.976-.4,1.311,1.311,0,0,1-.4-.962V141.793a1.311,1.311,0,0,1,.4-.962,1.336,1.336,0,0,1,.976-.4,1.322,1.322,0,0,1,.962.4,1.308,1.308,0,0,1,.4.962" transform="translate(-60.805 -41.575)" fill="#5268c2"/>
        <path id="Trazado_8779" data-name="Trazado 8779" d="M193.927,153.742a6.061,6.061,0,0,1-1.912,1.027,7.194,7.194,0,0,1-2.184.321,6.525,6.525,0,0,1-2.644-.545,6.953,6.953,0,0,1-3.657-3.645,6.508,6.508,0,0,1-.545-2.644V141.79a1.311,1.311,0,0,1,.4-.962,1.331,1.331,0,0,1,.976-.4,1.364,1.364,0,0,1,1.362,1.362v6.465a3.972,3.972,0,0,0,.321,1.6,4.094,4.094,0,0,0,.877,1.3,4.176,4.176,0,0,0,1.3.877,4.1,4.1,0,0,0,3.18,0,4.187,4.187,0,0,0,2.193-2.187,3.972,3.972,0,0,0,.321-1.591V141.79a1.367,1.367,0,1,1,2.735,0v6.564a7.135,7.135,0,0,1-2.735,5.39" transform="translate(-54.172 -41.573)" fill="#5268c2"/>
        <path id="Trazado_8780" data-name="Trazado 8780" d="M248.5,142.358a1.781,1.781,0,1,1-1.776-1.733,1.742,1.742,0,0,1,1.776,1.733Zm-3.12,0a1.345,1.345,0,0,0,1.353,1.384,1.384,1.384,0,1,0,0-2.769,1.347,1.347,0,0,0-1.353,1.384Zm1.069.908h-.4v-1.733a3.54,3.54,0,0,1,.667-.054,1.067,1.067,0,0,1,.6.128.479.479,0,0,1,.17.38.442.442,0,0,1-.36.4v.02a.513.513,0,0,1,.318.423,1.31,1.31,0,0,0,.128.434h-.434a1.387,1.387,0,0,1-.136-.423.314.314,0,0,0-.36-.284h-.19Zm0-.982h.19c.221,0,.4-.074.4-.255s-.116-.264-.369-.264a1.1,1.1,0,0,0-.221.02Z" transform="translate(-72.512 -41.632)" fill="#5268c2"/>
        <path id="Trazado_8781" data-name="Trazado 8781" d="M51.816,134.945a1.084,1.084,0,1,1-.67-1,1.086,1.086,0,0,1,.67,1" transform="translate(-14.696 -39.63)" fill="#3cdbc0"/>
        <path id="Trazado_8782" data-name="Trazado 8782" d="M1.622,140.419l.525-.5a7.064,7.064,0,0,1,5.183-2.147,7.072,7.072,0,0,1,5.183,2.147,7.336,7.336,0,0,1,0,10.366A7.061,7.061,0,0,1,7.33,152.43a7.052,7.052,0,0,1-5.183-2.147A7.052,7.052,0,0,1,0,145.091v-12.8a.786.786,0,0,1,.235-.567.786.786,0,0,1,.567-.235.786.786,0,0,1,.567.235.786.786,0,0,1,.235.567ZM7.33,150.8a5.5,5.5,0,0,0,4.031-1.677,5.719,5.719,0,0,0,0-8.062,5.506,5.506,0,0,0-4.031-1.674A5.5,5.5,0,0,0,3.3,141.052a5.674,5.674,0,0,0,0,8.062A5.489,5.489,0,0,0,7.33,150.79" transform="translate(0.002 -38.928)" fill="#3cdbc0"/>
        <path id="Trazado_8783" data-name="Trazado 8783" d="M36.827,152.4a7.927,7.927,0,0,1-5.693,2.658,7.33,7.33,0,1,1,5.171-12.5,7.061,7.061,0,0,1,2.147,5.183v6.525a.818.818,0,0,1-1.393.576.777.777,0,0,1-.244-.567Zm-5.7-10.377a5.7,5.7,0,1,0,5.265,3.522,5.708,5.708,0,0,0-5.265-3.522" transform="translate(-7.039 -41.566)" fill="#3cdbc0"/>
        <path id="Trazado_8784" data-name="Trazado 8784" d="M47.741,141.21a.8.8,0,0,1,.806-.811.811.811,0,0,1,.567.235.777.777,0,0,1,.241.567v13.886a6.258,6.258,0,0,1-6.241,6.241.806.806,0,0,1-.584-.238.769.769,0,0,1-.241-.567.823.823,0,0,1,.826-.823,4.624,4.624,0,0,0,4.607-4.61Z" transform="translate(-12.518 -41.566)" fill="#3cdbc0"/>
        <path id="Trazado_8785" data-name="Trazado 8785" d="M68.372,152.517a7.952,7.952,0,0,1-5.693,2.655A7.33,7.33,0,1,1,70,147.833v6.525a.8.8,0,0,1-.814.811.811.811,0,0,1-.567-.235.769.769,0,0,1-.241-.567Zm-5.693-10.391A5.7,5.7,0,1,0,66.71,143.8a5.492,5.492,0,0,0-4.031-1.677" transform="translate(-16.382 -41.599)" fill="#3cdbc0"/>
        <path id="Trazado_8786" data-name="Trazado 8786" d="M86.562,150.764a.809.809,0,0,1,.582,1.387.808.808,0,0,1-.582.235q-5.157,0-5.157-5.157v-7.878H80.058a.794.794,0,0,1-.567-.238.772.772,0,0,1-.244-.567.78.78,0,0,1,.244-.567.8.8,0,0,1,.567-.235h1.347v-5.5a.8.8,0,0,1,.811-.811.814.814,0,0,1,.584.235.783.783,0,0,1,.241.567v5.484H85.49a.808.808,0,0,1,.582.235.777.777,0,0,1,.241.567.769.769,0,0,1-.241.567.8.8,0,0,1-.582.238H83.033V147.2q0,3.535,3.52,3.535" transform="translate(-23.46 -38.91)" fill="#3cdbc0"/>
        <path id="Trazado_8787" data-name="Trazado 8787" d="M107.348,148.973a6.962,6.962,0,0,1-1.625,3.855,7.353,7.353,0,0,1-5.157,2.329,6.746,6.746,0,0,1-6.78-6.791v-7.055a.814.814,0,0,1,1.387-.567.78.78,0,0,1,.235.567v7.055a4.973,4.973,0,0,0,1.506,3.651,5.061,5.061,0,0,0,3.651,1.518,5.183,5.183,0,0,0,5.157-5.169v-7.055a.818.818,0,0,1,1.393-.576.777.777,0,0,1,.244.567Z" transform="translate(-27.764 -41.595)" fill="#3cdbc0"/>
        <path id="Trazado_8788" data-name="Trazado 8788" d="M118.424,147.566h0a8.511,8.511,0,0,1-.984-.445,2.488,2.488,0,0,1-.63-.451,2.936,2.936,0,0,1-.877-2.108,3.024,3.024,0,0,1,.916-2.162,6.594,6.594,0,0,1,4.922-1.909,6.956,6.956,0,0,1,3.044.692,8.456,8.456,0,0,1,2.579,1.946.709.709,0,0,1,.142.457.823.823,0,0,1-.823.823.635.635,0,0,1-.511-.21l-.406-.4a5.492,5.492,0,0,0-4.031-1.677,5,5,0,0,0-3.81,1.518,1.677,1.677,0,0,0-.392,1.135,1.282,1.282,0,0,0,.235.681,1.237,1.237,0,0,0,.616.431l6.689,2.213H125.1a8.544,8.544,0,0,1,1.007.437,2.247,2.247,0,0,1,.616.451,2.882,2.882,0,0,1,.891,2.108,2.967,2.967,0,0,1-.93,2.162,6.552,6.552,0,0,1-4.908,1.909,7.3,7.3,0,0,1-5.628-2.618.769.769,0,0,1-.145-.471.811.811,0,0,1,.235-.582.774.774,0,0,1,.567-.241.706.706,0,0,1,.525.21l.406.4a5.489,5.489,0,0,0,4.031,1.677,4.965,4.965,0,0,0,3.781-1.5,1.631,1.631,0,0,0,.406-1.135,1.211,1.211,0,0,0-.851-1.135Z" transform="translate(-34.321 -41.593)" fill="#3cdbc0"/>
        <path id="Trazado_8789" data-name="Trazado 8789" d="M146.954,152.006a.769.769,0,0,1,.567.241.808.808,0,0,1,.235.582.789.789,0,0,1-.21.567,7.333,7.333,0,1,1,2.553-5.56.8.8,0,0,1-.811.808H137.113a6.108,6.108,0,0,0,1.648,3.22,5.5,5.5,0,0,0,4.025,1.671,5.441,5.441,0,0,0,3.665-1.347.783.783,0,0,1,.511-.182m1.5-4.987a5.957,5.957,0,0,0-1.637-3.22,5.674,5.674,0,0,0-8.062,0,6.116,6.116,0,0,0-1.648,3.22Z" transform="translate(-40.094 -41.596)" fill="#3cdbc0"/>
        <path id="Trazado_8790" data-name="Trazado 8790" d="M184.2,171.168a.616.616,0,1,1-.179-.437.6.6,0,0,1,.179.437" transform="translate(-54.166 -50.492)" fill="#3cdbc0"/>
        <path id="Trazado_8791" data-name="Trazado 8791" d="M189.976,168.463a.411.411,0,0,1,.411.414.431.431,0,0,1-.128.3,2.891,2.891,0,1,1,0-4.391.414.414,0,0,1,.145.321.4.4,0,0,1-.122.284.4.4,0,0,1-.284.122.406.406,0,0,1-.264-.094,2.068,2.068,0,1,0,0,3.12.423.423,0,0,1,.255-.082" transform="translate(-54.913 -48.581)" fill="#3cdbc0"/>
        <path id="Trazado_8792" data-name="Trazado 8792" d="M199.482,166.986a2.891,2.891,0,1,1-.851-2.045,2.774,2.774,0,0,1,.851,2.045m-2.894-2.065a2.062,2.062,0,1,0,1.464.6,1.986,1.986,0,0,0-1.464-.6" transform="translate(-57.344 -48.582)" fill="#3cdbc0"/>
        <path id="Trazado_8793" data-name="Trazado 8793" d="M203.915,169.457a.4.4,0,0,1-.122.284.411.411,0,0,1-.584,0,.4.4,0,0,1-.122-.284V164.5a.414.414,0,1,1,.828,0v.1a2.167,2.167,0,0,1,1.447-.519,2.2,2.2,0,0,1,1.606.664,2.729,2.729,0,0,1,.252.284,3.081,3.081,0,0,1,.252-.284,2.269,2.269,0,0,1,3.881,1.608v3.1a.4.4,0,0,1-.122.284.411.411,0,0,1-.584,0,.4.4,0,0,1-.122-.284V166.36a1.447,1.447,0,1,0-2.891,0v3.1a.4.4,0,0,1-.122.284.411.411,0,0,1-.584,0,.4.4,0,0,1-.122-.284v-3.1a1.447,1.447,0,1,0-2.891,0Z" transform="translate(-60.122 -48.574)" fill="#3cdbc0"/>
        <path id="Trazado_8794" data-name="Trazado 8794" d="M236.486,141.851a1.373,1.373,0,1,1-.421-.964,1.37,1.37,0,0,1,.421.964" transform="translate(-69.199 -41.597)" fill="#3cdbc0"/>
        <path id="Trazado_8795" data-name="Trazado 8795" d="M229.87,143.723a1.379,1.379,0,1,1-1.418-1.35,1.379,1.379,0,0,1,1.418,1.35" transform="translate(-67.235 -42.15)" fill="#3cdbc0"/>
        <path id="Trazado_8796" data-name="Trazado 8796" d="M227.737,142.173a7.333,7.333,0,0,1,5.779-1.679l-.321,2.732a4.708,4.708,0,0,0-3.623,1Z" transform="translate(-67.42 -41.572)" fill="#3cdbc0"/>
        <path id="Trazado_8797" data-name="Trazado 8797" d="M171.611,141.808a1.376,1.376,0,1,1-.429-.968,1.373,1.373,0,0,1,.429.968" transform="translate(-49.991 -41.584)" fill="#3cdbc0"/>
        <path id="Trazado_8798" data-name="Trazado 8798" d="M165,143.7a1.379,1.379,0,1,1-.428-.971,1.376,1.376,0,0,1,.428.971" transform="translate(-48.031 -42.143)" fill="#3cdbc0"/>
        <path id="Trazado_8799" data-name="Trazado 8799" d="M162.865,142.131a7.327,7.327,0,0,1,5.779-1.682l-.323,2.735a4.7,4.7,0,0,0-3.623,1Z" transform="translate(-48.215 -41.559)" fill="#3cdbc0"/>
      </g>
    </g>
  </g>
</svg>
