<svg xmlns="http://www.w3.org/2000/svg" xmlns:xlink="http://www.w3.org/1999/xlink" width="250" height="180" viewBox="0 0 250 180">
  <defs>
    <clipPath id="clip-path">
      <rect id="Rectángulo_72" data-name="Rectángulo 72" width="250" height="180" transform="translate(3148 3648)" fill="#fff"/>
    </clipPath>
  </defs>
  <g id="logo-atope" transform="translate(-3148 -3648)" clip-path="url(#clip-path)">
    <g id="logo-construyendo-atope" transform="translate(3152.286 3612.097)">
      <path id="Trazado_1405" data-name="Trazado 1405" d="M115.76,121.118a.2.2,0,0,1,.121.121l.7,1c1.069,1.822,4.324,6.75,4.81,7.9l-11.153.049a82.435,82.435,0,0,1,5.539-9.037Zm17.151,9.037c-1.263-1.7-2.5-3.984-3.718-5.928-1.239-1.992-2.429-3.815-3.62-5.831-4.981-8.357-4.981-4.981-.9-11.758,2.454-4.057,4.835-7.749,7.337-11.806l7.24-11.636c.685.632,13.75,22.034,14.7,23.492,2.454,3.887,4.81,7.9,7.312,11.806.85,1.312,7,11.078,7.069,11.661H132.915Zm-45.259,0c.1-.924,3.326-5.636,4.082-6.875l12.73-20.384,5.587,8.843L98.657,130.153H87.651Zm28.107-27.67c-.85-.85-10.3-16.884-11.321-17.88a21.746,21.746,0,0,0-1.774,2.721c-7.215,12.122-15.572,24.947-23.079,37.217l-3.546,5.587-34.546.024-.024,5.126H199.859v-5.1l-20.091-.024c-6.924-10.81-13.361-21.888-20.237-32.6-1.725-2.672-3.326-5.515-5.029-8.139l-14.79-23.856a1.7,1.7,0,0,0-.2-.243c-.267-.293-.049-.121-.34-.293a46.349,46.349,0,0,0-2.963,4.665l-8.77,14.088c-1.967,3.109-3.936,6.244-5.831,9.4-.9,1.507-5.15,8.7-5.9,9.328Z" transform="translate(0)" fill="#1f354a" fill-rule="evenodd"/>
      <path id="Trazado_1406" data-name="Trazado 1406" d="M60.54,178.1c.243-.826,9.474-15.475,10.131-16.52H81.824L71.649,178.125,60.523,178.1Zm94.987-6.969c-1.045-1.628-1.967-3.182-2.988-4.835a49.957,49.957,0,0,1-2.866-4.713l35.566.024,12.73,20.553a29.426,29.426,0,0,0,1.846,2.866c.294-4.129.049-9.183.049-13.41,0-2.575.437-4.057-.8-6a36.234,36.234,0,0,1-2.429-4.033h3.228l-.049-5.15-158.345-.024v5.15H59.176c-.267,1.02-17.249,27.573-17.662,28.763H75.481a36.1,36.1,0,0,1,2.211-3.692l15.572-25.071,45.016.024c3.012,4.713,5.831,9.328,8.77,14.088l8.819,14.088,2.866-4.4c.489-.8.9-1.458,1.409-2.308,1.944-3.158,1.9-1.287-1.6-7.142-.971-1.6-1.992-3.255-2.988-4.835Z" transform="translate(0 -3.54)" fill="#1f354a" fill-rule="evenodd"/>
      <path id="Trazado_1407" data-name="Trazado 1407" d="M57.617,140.407c9.061-1.263,10.786,12,2.308,13.459C50.5,155.494,48.9,141.6,57.617,140.407Zm-.753-1c-10.252,2.478-6.848,17.708,3.522,15.548,10.111-2.089,7.022-18.1-3.521-15.548Z" transform="translate(-0.357 -2.868)" fill="#1f354a" fill-rule="evenodd"/>
      <path id="Trazado_1408" data-name="Trazado 1408" d="M144.133,140.432a6.711,6.711,0,0,1,7.944,5.3c1.822,9.328-11.952,11.251-13.41,2.745a6.8,6.8,0,0,1,5.441-8.041Zm-.462-1.045c-10.057,2.187-7.118,17.662,3.4,15.6C156.984,153.041,154.506,137.031,143.671,139.387Z" transform="translate(-3.715 -2.869)" fill="#1f354a" fill-rule="evenodd"/>
      <path id="Trazado_1409" data-name="Trazado 1409" d="M174.247,148.542c-1.822-9.11,11.71-11.394,13.385-2.842a6.842,6.842,0,1,1-13.386,2.842Zm4.932-9.159c-9.985,2.211-7.166,17.832,3.6,15.548,6.608-1.409,8.332-10.324,2.915-14.284a7.849,7.849,0,0,0-6.535-1.263Z" transform="translate(-5.091 -2.864)" fill="#1f354a" fill-rule="evenodd"/>
      <path id="Trazado_1410" data-name="Trazado 1410" d="M89.107,150.647l-.024-10.131C95.423,141.294,95.743,149.7,89.107,150.647Zm-1.191,4.3,1.166-.024-.024-3.158c2.672,1.263,2.357,3.228,5.709,3.182l-3.913-3.424c1.7-1.093,2.162-1.045,3.182-2.551,2.162-3.182,1.215-9.523-6.1-9.6l-.049,15.572Z" transform="translate(-1.795 -2.881)" fill="#1f354a" fill-rule="evenodd"/>
      <path id="Trazado_1411" data-name="Trazado 1411" d="M128.433,153.631V140.586c1.774-.391,3.887,1.045,4.64,1.8,4.373,4.421.391,12.122-4.64,11.272Zm-1.166,1.287c9.474.218,10.884-9.669,6.414-13.556-1.7-1.482-3.4-1.944-6.341-2.016Z" transform="translate(-3.32 -2.877)" fill="#1f354a" fill-rule="evenodd"/>
      <path id="Trazado_1412" data-name="Trazado 1412" d="M162.033,143.2c0-2.016-.024-3.279,2.187-2.721a4.16,4.16,0,0,1,.364,2.7h-1.676l-.9.024Zm-1.142-.218-.608.267c-.316.294-.413-.608-.2.489.293,1.433.462-.316.8,1.093v10.079l1.166-.024V144.344l2.6-.024v10.543l1.142.073c.146-3.984.049-8.357.024-12.365-.024-1.992-.413-3.522-2.624-3.424-2.187.121-2.259,1.846-2.283,3.838Z" transform="translate(-4.585 -2.87)" fill="#1f354a" fill-rule="evenodd"/>
      <path id="Trazado_1413" data-name="Trazado 1413" d="M68.864,154.912l1.166-.049.024-13.6a11.657,11.657,0,0,1,3.228,1.944l.049,11.661,1.142.1L74.5,139.34l-1.117.049-.072,2.235-4.324-2.478-.1,15.742Z" transform="translate(-1.06 -2.869)" fill="#1f354a" fill-rule="evenodd"/>
      <path id="Trazado_1414" data-name="Trazado 1414" d="M119.206,154.911l1.166-.024V141.234a18.925,18.925,0,0,1,3.255,1.846l.024,11.855h1.166V139.364h-1.069l-.1,2.308c-1.409-.587-2.988-1.8-4.324-2.5l-.072,15.767Z" transform="translate(-3.009 -2.87)" fill="#1f354a" fill-rule="evenodd"/>
      <path id="Trazado_1415" data-name="Trazado 1415" d="M192.318,140.514c6.681.587,6.365,10.009,0,10.272Zm-1.166,14.332,1.166.1v-2.915c2.113-.85,2.721-.34,4.275-2.065a6.278,6.278,0,0,0-5.417-10.566l-.049,15.426Z" transform="translate(-5.792 -2.877)" fill="#1f354a" fill-rule="evenodd"/>
      <path id="Trazado_1416" data-name="Trazado 1416" d="M100.637,153.826c-3.061.559-2.381-1.652-2.381-6.1l.024-7.652c-.267-1.166.462-.534-.729-.729-.753.146-.462,2.988-.462,4.252v4.737c0,2.935-.632,6.608,2.526,6.778,3.353.17,2.818-3.62,2.818-6.365,0-2.915.2-6.555-.049-9.377l-1.041-.024c-.316,3.5.826,12.244-.7,14.455Z" transform="translate(-2.151 -2.877)" fill="#1f354a" fill-rule="evenodd"/>
      <path id="Trazado_1417" data-name="Trazado 1417" d="M200.339,143.013l-.924.413c.729,1.9.947-.024.947,2.041,0,1.02-.024,2.065-.024,3.109,0,2.113-.024,4.252,0,6.365h3.981l-.049-1.191h-2.788v-9.377l2.988-.049c-.049-1.507-.413-1.093-3.033-1.142l.049-2.648,2.818-.049v-1.138l-3.936.024-.024,3.62Z" transform="translate(-6.112 -2.877)" fill="#1f354a" fill-rule="evenodd"/>
      <path id="Trazado_1418" data-name="Trazado 1418" d="M113.151,142.8c-.218.587-.1.17-.971.559l.364.685c1,1.239.608.293.608,4.543,0,2.09-.073,4.275.024,6.365h3.984l-.024-1.069-2.818-.072v-9.4h3.033l-.294-1.142-2.745.024v-2.7l2.842-.024-.018-1.042-3.936-.072-.049,3.45Z" transform="translate(-2.737 -2.883)" fill="#1f354a" fill-rule="evenodd"/>
      <path id="Trazado_1419" data-name="Trazado 1419" d="M49.726,154.919c.049-1.919-.267-.685-2.5-1.579a6.677,6.677,0,0,1,2.5-12.851l-.024-1.117c-10.519.294-10.034,15.475.024,15.523Z" transform="translate(-0.021 -2.878)" fill="#1f354a" fill-rule="evenodd"/>
      <path id="Trazado_1420" data-name="Trazado 1420" d="M107.175,154.943l1.045-.293c.218-.9.1-7.968.072-8.964-.024-2.963,2.308-3.984,3.061-6.316h-1.239a36.111,36.111,0,0,1-2.454,3.62A35.052,35.052,0,0,0,105.3,139.4l-1.287-.024a20.321,20.321,0,0,0,1.749,2.842c.7,1.069,1.384,1.6,1.384,3.255-.024,3.131.049,6.341-.024,9.474Z" transform="translate(-2.421 -2.877)" fill="#1f354a" fill-rule="evenodd"/>
      <path id="Trazado_1421" data-name="Trazado 1421" d="M76.037,153.754l-.1,1.166c5.029.049,6.535-2.527,4.154-6.8-3.741-6.75-3.5-6.924.489-7.7l.024-1c-2.016-.267-3.838.489-4.13,2.211-.316,1.822.826,3.522,1.53,4.883,1.652,3.131,4.446,7.385-1.944,7.24Z" transform="translate(-1.334 -2.878)" fill="#1f354a" fill-rule="evenodd"/>
      <path id="Trazado_1422" data-name="Trazado 1422" d="M81.7,139.515l-.049.826a6.565,6.565,0,0,0,1.871.267L83.5,154.966H84.64l.024-14.333,1.774-.1-.024-1.142c-1.409.024-3.546-.316-4.737.146Z" transform="translate(-1.555 -2.874)" fill="#1f354a" fill-rule="evenodd"/>
      <path id="Trazado_1423" data-name="Trazado 1423" d="M167.347,140.488l1.822.049v14.406l1.166-.024V140.537a3.446,3.446,0,0,0,1.8-.2l-.049-.971h-4.665l-.049,1.117Z" transform="translate(-4.872 -2.877)" fill="#1f354a" fill-rule="evenodd"/>
    </g>
  </g>
</svg>
