<svg xmlns="http://www.w3.org/2000/svg" xmlns:xlink="http://www.w3.org/1999/xlink" width="398" height="224" viewBox="0 0 398 224">
  <defs>
    <clipPath id="clip-path">
      <rect id="icon" width="398" height="224" transform="translate(278 4543)" fill="#fff"/>
    </clipPath>
  </defs>
  <g id="bajatuseguro" transform="translate(-278 -4543)" clip-path="url(#clip-path)">
    <g id="bajatuseguro-2" data-name="bajatuseguro" transform="translate(292.864 4529.219)">
      <g id="Grupo_34" data-name="Grupo 34" transform="translate(162.459 64.308)">
        <path id="Trazado_197" data-name="Trazado 197" d="M201.073,85.449l.157-1.742a14.712,14.712,0,0,1,1.091-4.392,3.6,3.6,0,0,1,3.789-2.238,3.642,3.642,0,0,1,2.948,4.907,12.366,12.366,0,0,0-.766,4.416,11.96,11.96,0,0,0,3.21,8.027,11.372,11.372,0,0,0,6.943,3.77A12.179,12.179,0,0,0,231.8,81.888a3.635,3.635,0,1,1,6.839-2.459,21.1,21.1,0,0,1,1.137,7.743,18.3,18.3,0,0,1-5.063,12.112,19.517,19.517,0,0,1-7.722,5.173,19.259,19.259,0,0,1-8.425.991c-7.1-.7-12.122-4.483-15.485-10.623a16.418,16.418,0,0,1-1.853-6.418q-.075-.8-.153-1.6Z" transform="translate(-198.24 -66.883)" fill="#5268c2"/>
        <g id="Grupo_32" data-name="Grupo 32" transform="translate(0 37.943)">
          <path id="Trazado_198" data-name="Trazado 198" d="M211.9,131.659c-.549-.151-10.814-4.162-11.345-4.4a5.315,5.315,0,0,1-3.038-4.583,5.111,5.111,0,0,1,1.834-4.015c1.405-1.2,3.777-2.687,8.584-6.023l3.232,3.629c-2.253,2.18-3.582,2.868-3.582,4.483,0,2.232,1.154,3.1,5.926,3.572" transform="translate(-197.514 -112.115)" fill="#5268c2"/>
          <g id="Grupo_31" data-name="Grupo 31">
            <path id="Trazado_199" data-name="Trazado 199" d="M219.919,131.075a3.782,3.782,0,1,1-3.781-3.78,3.781,3.781,0,0,1,3.781,3.78" transform="translate(-200.542 -115.105)" fill="#5268c2"/>
            <path id="Trazado_200" data-name="Trazado 200" d="M207.758,123.838a5.122,5.122,0,1,1-5.122-5.122,5.122,5.122,0,0,1,5.122,5.122" transform="translate(-197.513 -113.355)" fill="#5268c2"/>
            <path id="Trazado_201" data-name="Trazado 201" d="M214.306,114.421a2.441,2.441,0,1,1-2.441-2.441,2.441,2.441,0,0,1,2.441,2.441" transform="translate(-199.944 -111.98)" fill="#5268c2"/>
          </g>
        </g>
        <g id="Grupo_33" data-name="Grupo 33" transform="translate(8.503)">
          <path id="Trazado_202" data-name="Trazado 202" d="M230.931,68.025a3.624,3.624,0,1,1-3.709-3.554,3.624,3.624,0,0,1,3.709,3.554" transform="translate(-211.358 -64.341)" fill="#3cdbc0"/>
          <path id="Trazado_203" data-name="Trazado 203" d="M215.475,72.4a3.639,3.639,0,1,1-3.725-3.566,3.639,3.639,0,0,1,3.725,3.566" transform="translate(-208.197 -65.233)" fill="#3cdbc0"/>
          <path id="Trazado_204" data-name="Trazado 204" d="M209.649,68.911a19.374,19.374,0,0,1,15.27-4.443l-.852,7.221a12.427,12.427,0,0,0-9.568,2.645Z" transform="translate(-208.493 -64.308)" fill="#3cdbc0"/>
        </g>
        <path id="Trazado_205" data-name="Trazado 205" d="M249.006,140.052a5.809,5.809,0,1,1-5.809-5.808,5.809,5.809,0,0,1,5.809,5.808" transform="translate(-205.651 -78.581)" fill="#3cdbc0"/>
        <path id="Trazado_206" data-name="Trazado 206" d="M233.2,124.756a3.686,3.686,0,1,1-3.686-3.686,3.686,3.686,0,0,1,3.686,3.686" transform="translate(-203.292 -75.893)" fill="#3cdbc0"/>
      </g>
      <g id="Grupo_38" data-name="Grupo 38" transform="translate(25.749 135.455)">
        <path id="Trazado_207" data-name="Trazado 207" d="M382.469,182.433q.053-.594.106-1.187a10,10,0,0,1,.745-2.991,2.452,2.452,0,0,1,2.582-1.525,2.481,2.481,0,0,1,2.008,3.343,8.436,8.436,0,0,0-.522,3.008,8.149,8.149,0,0,0,2.187,5.469,7.748,7.748,0,0,0,4.73,2.568,8.3,8.3,0,0,0,9.1-11.11,2.476,2.476,0,1,1,4.659-1.675,14.371,14.371,0,0,1,.775,5.275,12.465,12.465,0,0,1-3.449,8.252,13.294,13.294,0,0,1-5.261,3.524,13.121,13.121,0,0,1-5.739.675c-4.839-.476-8.258-3.054-10.549-7.237a11.181,11.181,0,0,1-1.263-4.372q-.051-.545-.1-1.089Z" transform="translate(-98.549 -158.377)" fill="#5268c2"/>
        <path id="Trazado_208" data-name="Trazado 208" d="M279.177,183.432V182.35c.022-.266.047-.531.064-.8a10.745,10.745,0,0,1,.742-3.233,2.47,2.47,0,1,1,4.637,1.706,8.24,8.24,0,0,0-.4,4.416,8.058,8.058,0,0,0,2.347,4.394,7.9,7.9,0,0,0,7.333,2.212,8.1,8.1,0,0,0,6.307-5.549,7.616,7.616,0,0,0,.375-3.33,7.848,7.848,0,0,0-.518-2.18,2.471,2.471,0,0,1,1.709-3.294c.183-.045.373-.065.56-.1h.093c.055.011.109.025.165.031a2.347,2.347,0,0,1,1.846,1.116,4.472,4.472,0,0,1,.406.96,12.8,12.8,0,0,1,.663,3.783c.03,1.112.028,2.225.033,3.338q.013,3.122.018,6.244.006,1.924.014,3.848c0,.773,0,1.546.007,2.318a9.912,9.912,0,0,1-.27,2.386,10.609,10.609,0,0,1-3.167,5.341,14.329,14.329,0,0,1-9.247,3.856,13.064,13.064,0,0,1-3.843-.371,14.143,14.143,0,0,1-9.072-6.7,3.212,3.212,0,0,1-.6-1.518,2.51,2.51,0,0,1,.5-1.752,2.441,2.441,0,0,1,2.1-.929,1.771,1.771,0,0,1,1.34.564q.529.594,1,1.235a14.014,14.014,0,0,0,1.707,2.011,8.891,8.891,0,0,0,5.517,2.447,9.373,9.373,0,0,0,4.128-.533,7.62,7.62,0,0,0,4.166-3.427,5.282,5.282,0,0,0,.734-2.38c.016-.489.022-.978.024-1.467,0-1.2,0-2.392.005-3.586v-.2c-.086.064-.139.1-.189.141a12.529,12.529,0,0,1-6.951,2.712,14.356,14.356,0,0,1-3.219-.112,12.235,12.235,0,0,1-3.983-1.294,13.757,13.757,0,0,1-4.819-4.3,12.229,12.229,0,0,1-2.207-6.186C279.222,183.921,279.2,183.677,279.177,183.432Z" transform="translate(-77.469 -158.372)" fill="#5268c2"/>
        <path id="Trazado_209" data-name="Trazado 209" d="M357.617,170.477v.473a13.456,13.456,0,0,1,3.843-2.168,12.855,12.855,0,0,1,4.429-.755,18.622,18.622,0,0,1,2.225.142,9.622,9.622,0,0,1,2.191.505,4.666,4.666,0,0,1,1.662,1,2.189,2.189,0,0,1,.658,1.647,2.331,2.331,0,0,1-.2.967,2.719,2.719,0,0,1-.529.789,2.294,2.294,0,0,1-.778.531,2.471,2.471,0,0,1-.965.189,2.664,2.664,0,0,1-1.037-.258,8.635,8.635,0,0,0-3.227-.588,8.066,8.066,0,0,0-3.228.647,8.239,8.239,0,0,0-4.392,4.392,8.074,8.074,0,0,0-.649,3.228v10.743a2.462,2.462,0,1,1-4.924,0V170.477a2.363,2.363,0,0,1,.718-1.73,2.392,2.392,0,0,1,1.756-.72,2.454,2.454,0,0,1,2.449,2.45" transform="translate(-92.473 -156.622)" fill="#5268c2"/>
        <path id="Trazado_210" data-name="Trazado 210" d="M336.766,191.986a10.96,10.96,0,0,1-3.44,1.849,12.9,12.9,0,0,1-3.935.577,11.744,11.744,0,0,1-4.758-.978,12.523,12.523,0,0,1-6.561-6.561,11.76,11.76,0,0,1-.977-4.758V170.477a2.361,2.361,0,0,1,.719-1.732,2.387,2.387,0,0,1,1.754-.718,2.452,2.452,0,0,1,2.45,2.45v11.638a7.2,7.2,0,0,0,.577,2.874,7.364,7.364,0,0,0,9.647,3.922,7.49,7.49,0,0,0,3.946-3.934,7.117,7.117,0,0,0,.577-2.863V170.477a2.363,2.363,0,0,1,.718-1.732,2.387,2.387,0,0,1,1.755-.718,2.452,2.452,0,0,1,2.45,2.45v11.815a12.829,12.829,0,0,1-4.924,9.694" transform="translate(-85.207 -156.622)" fill="#5268c2"/>
        <g id="Grupo_35" data-name="Grupo 35" transform="translate(310.361 11.644)">
          <path id="Trazado_211" data-name="Trazado 211" d="M422.1,171.449a3.207,3.207,0,1,1-3.2-3.121,3.137,3.137,0,0,1,3.2,3.121Zm-5.613,0a2.418,2.418,0,0,0,2.436,2.493,2.516,2.516,0,1,0-2.436-2.493Zm1.922,1.636h-.723v-3.121a6.347,6.347,0,0,1,1.2-.095,1.948,1.948,0,0,1,1.085.228.867.867,0,0,1,.3.685.8.8,0,0,1-.647.723v.039a.921.921,0,0,1,.571.761,2.4,2.4,0,0,0,.229.78h-.78a2.656,2.656,0,0,1-.247-.762c-.057-.342-.247-.494-.647-.494h-.343Zm.02-1.77h.342c.4,0,.723-.133.723-.456,0-.285-.209-.475-.667-.475a1.747,1.747,0,0,0-.4.039Z" transform="translate(-415.69 -168.328)" fill="#5268c2"/>
        </g>
        <path id="Trazado_212" data-name="Trazado 212" d="M108.695,159.48a1.95,1.95,0,1,1-1.2-1.806,1.958,1.958,0,0,1,1.2,1.806" transform="translate(-41.879 -154.48)" fill="#3cdbc0"/>
        <path id="Trazado_213" data-name="Trazado 213" d="M28.672,169.859l.941-.92a12.716,12.716,0,0,1,9.329-3.863,13.193,13.193,0,1,1-13.193,13.19V155.229a1.461,1.461,0,1,1,2.921,0ZM38.944,188.54A10.271,10.271,0,1,0,29.47,182.2a10.271,10.271,0,0,0,9.474,6.343" transform="translate(-25.749 -153.713)" fill="#3cdbc0"/>
        <path id="Trazado_214" data-name="Trazado 214" d="M87.079,189.579q-4.759,4.784-10.249,4.782a13.193,13.193,0,1,1,9.329-22.522,12.72,12.72,0,0,1,3.864,9.33V192.9a1.475,1.475,0,0,1-2.509,1.036,1.392,1.392,0,0,1-.437-1.036ZM76.829,170.9a10.255,10.255,0,1,0,7.255,3.015,9.892,9.892,0,0,0-7.255-3.015" transform="translate(-33.481 -156.612)" fill="#3cdbc0"/>
        <path id="Trazado_215" data-name="Trazado 215" d="M102.9,169.435a1.474,1.474,0,0,1,2.509-1.036,1.4,1.4,0,0,1,.435,1.036V194.43A11.263,11.263,0,0,1,94.6,205.671a1.445,1.445,0,0,1-1.049-.427,1.387,1.387,0,0,1-.435-1.036,1.487,1.487,0,0,1,1.484-1.483,8.325,8.325,0,0,0,8.293-8.294Z" transform="translate(-39.498 -156.612)" fill="#3cdbc0"/>
        <path id="Trazado_216" data-name="Trazado 216" d="M137.317,189.735q-4.758,4.784-10.247,4.784a13.194,13.194,0,1,1,13.193-13.193v11.73a1.474,1.474,0,0,1-2.509,1.036,1.392,1.392,0,0,1-.437-1.036Zm-10.248-18.679a10.255,10.255,0,1,0,7.255,3.015,9.892,9.892,0,0,0-7.255-3.015" transform="translate(-43.734 -156.644)" fill="#3cdbc0"/>
        <path id="Trazado_217" data-name="Trazado 217" d="M165.073,188.495a1.461,1.461,0,1,1,0,2.922q-9.283,0-9.282-9.281V167.954h-2.426a1.461,1.461,0,1,1,0-2.922h2.426v-9.87a1.474,1.474,0,0,1,2.509-1.039,1.4,1.4,0,0,1,.436,1.039v9.87h4.405a1.461,1.461,0,1,1,0,2.922h-4.4v14.182q0,6.361,6.338,6.359" transform="translate(-51.49 -153.698)" fill="#3cdbc0"/>
        <path id="Trazado_218" data-name="Trazado 218" d="M199.473,183.384c-.036,3.626-2.928,6.941-2.928,6.941q-4.336,4.192-9.283,4.193a12.148,12.148,0,0,1-12.2-12.227v-12.7a1.461,1.461,0,1,1,2.921,0v12.7a8.959,8.959,0,0,0,2.709,6.573,9.112,9.112,0,0,0,6.573,2.731,9.327,9.327,0,0,0,9.283-9.3v-12.7a1.474,1.474,0,0,1,2.509-1.036,1.4,1.4,0,0,1,.436,1.036Z" transform="translate(-56.22 -156.644)" fill="#3cdbc0"/>
        <path id="Trazado_219" data-name="Trazado 219" d="M214.8,180.855h.025a15.079,15.079,0,0,1-1.815-.789,4.458,4.458,0,0,1-1.131-.813,5.279,5.279,0,0,1-1.579-3.793,5.422,5.422,0,0,1,1.65-3.889,11.888,11.888,0,0,1,8.857-3.439,12.485,12.485,0,0,1,5.49,1.236,15.238,15.238,0,0,1,4.642,3.5,1.289,1.289,0,0,1,.258.824,1.487,1.487,0,0,1-1.483,1.483,1.156,1.156,0,0,1-.92-.377l-.73-.729a9.891,9.891,0,0,0-7.257-3.015,9.01,9.01,0,0,0-6.854,2.731,3.006,3.006,0,0,0-.706,2.026,2.289,2.289,0,0,0,.424,1.227,2.235,2.235,0,0,0,1.107.775l12.039,3.982h-.025a14.934,14.934,0,0,1,1.815.789,4.039,4.039,0,0,1,1.107.812,5.184,5.184,0,0,1,1.6,3.793,5.336,5.336,0,0,1-1.673,3.889,11.816,11.816,0,0,1-8.835,3.439,13.131,13.131,0,0,1-10.129-4.713,1.389,1.389,0,0,1-.259-.847,1.451,1.451,0,0,1,.423-1.048,1.393,1.393,0,0,1,1.036-.435,1.274,1.274,0,0,1,.941.377l.73.728A9.884,9.884,0,0,0,220.8,191.6a8.945,8.945,0,0,0,6.81-2.708,2.952,2.952,0,0,0,.73-2.025,2.179,2.179,0,0,0-1.529-2.025Z" transform="translate(-63.412 -156.644)" fill="#3cdbc0"/>
        <path id="Trazado_220" data-name="Trazado 220" d="M262.1,188.84a1.39,1.39,0,0,1,1.036.435,1.451,1.451,0,0,1,.425,1.048,1.421,1.421,0,0,1-.377,1.013,13.2,13.2,0,1,1,4.594-10.012,1.447,1.447,0,0,1-1.461,1.459H244.363a11.013,11.013,0,0,0,2.967,5.8,10.211,10.211,0,0,0,13.853.59,1.414,1.414,0,0,1,.919-.328m2.686-8.976a10.778,10.778,0,0,0-2.946-5.8,10.238,10.238,0,0,0-14.512,0,11.019,11.019,0,0,0-2.967,5.8Z" transform="translate(-69.754 -156.642)" fill="#3cdbc0"/>
        <path id="Trazado_221" data-name="Trazado 221" d="M319.251,217.088a1.111,1.111,0,1,1-.325-.791,1.075,1.075,0,0,1,.325.791" transform="translate(-85.194 -166.407)" fill="#3cdbc0"/>
        <path id="Trazado_222" data-name="Trazado 222" d="M329.123,213.558a.745.745,0,0,1,.745.745.772.772,0,0,1-.233.549,5.207,5.207,0,1,1,0-7.9.752.752,0,0,1-.485,1.322.729.729,0,0,1-.474-.167,3.718,3.718,0,1,0-.009,5.608.73.73,0,0,1,.456-.149" transform="translate(-86.012 -164.31)" fill="#3cdbc0"/>
        <path id="Trazado_223" data-name="Trazado 223" d="M344.531,210.9a5.205,5.205,0,1,1-1.525-3.682,5.014,5.014,0,0,1,1.525,3.682m-5.206-3.72a3.715,3.715,0,1,0,2.631,1.088,3.585,3.585,0,0,0-2.631-1.088" transform="translate(-88.682 -164.309)" fill="#3cdbc0"/>
        <path id="Trazado_224" data-name="Trazado 224" d="M350.557,215.362a.745.745,0,0,1-1.488,0v-8.926a.745.745,0,0,1,1.488,0v.2a3.9,3.9,0,0,1,2.6-.938,3.939,3.939,0,0,1,2.891,1.2,4.55,4.55,0,0,1,.455.53,4.642,4.642,0,0,1,.456-.53,4.091,4.091,0,0,1,6.98,2.892v5.578a.745.745,0,0,1-1.487,0v-5.58a2.6,2.6,0,0,0-5.206,0v5.578a.745.745,0,0,1-1.488,0v-5.578a2.6,2.6,0,1,0-5.206,0Z" transform="translate(-91.733 -164.31)" fill="#3cdbc0"/>
        <g id="Grupo_36" data-name="Grupo 36" transform="translate(287.782 11.408)">
          <path id="Trazado_225" data-name="Trazado 225" d="M402.808,170.563a2.471,2.471,0,1,1-2.526-2.421,2.471,2.471,0,0,1,2.526,2.421" transform="translate(-389.474 -168.054)" fill="#3cdbc0"/>
          <path id="Trazado_226" data-name="Trazado 226" d="M392.28,173.548a2.479,2.479,0,1,1-2.537-2.429,2.479,2.479,0,0,1,2.537,2.429" transform="translate(-387.322 -168.661)" fill="#3cdbc0"/>
          <path id="Trazado_227" data-name="Trazado 227" d="M388.311,171.167a13.2,13.2,0,0,1,10.4-3.027l-.58,4.92a8.461,8.461,0,0,0-6.52,1.8Z" transform="translate(-387.524 -168.031)" fill="#3cdbc0"/>
        </g>
        <g id="Grupo_37" data-name="Grupo 37" transform="translate(205.581 11.355)">
          <path id="Trazado_228" data-name="Trazado 228" d="M299.529,170.5A2.471,2.471,0,1,1,297,168.074a2.471,2.471,0,0,1,2.526,2.421" transform="translate(-286.195 -167.987)" fill="#3cdbc0"/>
          <path id="Trazado_229" data-name="Trazado 229" d="M289,173.48a2.479,2.479,0,1,1-2.537-2.431A2.479,2.479,0,0,1,289,173.48" transform="translate(-284.043 -168.594)" fill="#3cdbc0"/>
          <path id="Trazado_230" data-name="Trazado 230" d="M285.029,171.1a13.2,13.2,0,0,1,10.4-3.027l-.58,4.92a8.465,8.465,0,0,0-6.52,1.8Z" transform="translate(-284.244 -167.965)" fill="#3cdbc0"/>
        </g>
      </g>
    </g>
  </g>
</svg>
