<svg xmlns="http://www.w3.org/2000/svg" xmlns:xlink="http://www.w3.org/1999/xlink" width="250" height="180" viewBox="0 0 250 180">
  <defs>
    <clipPath id="clip-path">
      <rect id="Rectángulo_68" data-name="Rectángulo 68" width="250" height="180" transform="translate(1952 3648)" fill="#fff"/>
    </clipPath>
  </defs>
  <g id="logo-unimilenium" transform="translate(-1952 -3648)" clip-path="url(#clip-path)">
    <g id="_01" data-name="01" transform="translate(1996.99 3686.949)">
      <g id="Grupo_7" data-name="Grupo 7" transform="translate(0.36 77.693)">
        <path id="Trazado_1530" data-name="Trazado 1530" d="M22.864,166.322a.5.5,0,0,1-.533-.533L22.6,150.6l-5.7,15.028a.622.622,0,0,1-.586.426H11.727a.519.519,0,0,1-.533-.426L8.05,150.6,5.7,165.84a.633.633,0,0,1-.64.533H.909a.485.485,0,0,1-.426-.213.442.442,0,0,1-.106-.426l4.21-22.755a.633.633,0,0,1,.64-.533h5.6a.519.519,0,0,1,.533.426l3.2,16.414,6.075-16.414a.622.622,0,0,1,.586-.426h5.7a.5.5,0,0,1,.533.533l.16,22.755a.485.485,0,0,1-.213.426.658.658,0,0,1-.426.213H22.862Z" transform="translate(-0.36 -142.391)" fill="#604876"/>
        <path id="Trazado_1531" data-name="Trazado 1531" d="M57.743,166.279a.518.518,0,0,1-.533-.586l1.972-22.755a.684.684,0,0,1,.643-.586h4.37a.518.518,0,0,1,.533.586l-1.972,22.755a.684.684,0,0,1-.64.586Z" transform="translate(-26.179 -142.348)" fill="#604876"/>
        <path id="Trazado_1532" data-name="Trazado 1532" d="M75.219,166.279a.518.518,0,0,1-.533-.586l1.972-22.755a.684.684,0,0,1,.643-.586h4.53a.518.518,0,0,1,.533.586l-1.652,18.971h7.617a.518.518,0,0,1,.533.586l-.266,3.251a.684.684,0,0,1-.64.586H75.219Z" transform="translate(-34.116 -142.348)" fill="#604876"/>
        <path id="Trazado_1533" data-name="Trazado 1533" d="M105.779,166.279a.518.518,0,0,1-.533-.586l1.972-22.755a.684.684,0,0,1,.643-.586H121.5a.518.518,0,0,1,.533.586l-.266,3.251a.684.684,0,0,1-.64.586h-8.583l-1.332,15.135h9.059a.518.518,0,0,1,.533.586l-.266,3.251a.684.684,0,0,1-.64.586H105.779Zm7.78-10.339a.477.477,0,0,1-.426-.213.611.611,0,0,1-.053-.533,10.648,10.648,0,0,1,.533-1.12,5.705,5.705,0,0,1,.8-1.172,3.648,3.648,0,0,1,1.12-.906,3.019,3.019,0,0,1,1.545-.373h3.251a.518.518,0,0,1,.533.586l-.266,3.144a.684.684,0,0,1-.64.586Z" transform="translate(-47.996 -142.348)" fill="#604876"/>
        <path id="Trazado_1534" data-name="Trazado 1534" d="M154.387,166.279a.56.56,0,0,1-.48-.266l-8.1-14.921-1.279,14.6a.684.684,0,0,1-.64.586h-3.837a.518.518,0,0,1-.533-.586l1.972-22.755a.684.684,0,0,1,.64-.586h4.316a.56.56,0,0,1,.48.266l7.674,14.175,1.226-13.855a.684.684,0,0,1,.64-.586h4a.518.518,0,0,1,.533.586l-1.972,22.755a.684.684,0,0,1-.64.586Z" transform="translate(-63.562 -142.348)" fill="#604876"/>
        <path id="Trazado_1535" data-name="Trazado 1535" d="M184.083,166.279a.518.518,0,0,1-.533-.586l1.972-22.755a.684.684,0,0,1,.64-.586h4.37a.518.518,0,0,1,.533.586l-1.972,22.755a.684.684,0,0,1-.64.586Z" transform="translate(-83.56 -142.348)" fill="#604876"/>
        <path id="Trazado_1536" data-name="Trazado 1536" d="M211.259,166.757a11.551,11.551,0,0,1-3.944-.641,7.9,7.9,0,0,1-2.931-1.866,8.283,8.283,0,0,1-1.705-3.091,12.809,12.809,0,0,1-.32-4.156l1.226-14.069a.684.684,0,0,1,.64-.586h4.37a.518.518,0,0,1,.533.586l-1.279,14.549a6.341,6.341,0,0,0,.16,2.079,3.926,3.926,0,0,0,.747,1.493,3.64,3.64,0,0,0,1.226.959,3.893,3.893,0,0,0,1.6.32,4.151,4.151,0,0,0,1.652-.32,4.056,4.056,0,0,0,1.385-.959,4.921,4.921,0,0,0,1.013-1.493,7.4,7.4,0,0,0,.533-2.079l1.279-14.549a.684.684,0,0,1,.64-.586h4.37a.518.518,0,0,1,.533.586L221.759,157a11.611,11.611,0,0,1-1.013,3.944,9.28,9.28,0,0,1-2.185,3.091,9.184,9.184,0,0,1-3.251,1.972A10.958,10.958,0,0,1,211.259,166.757Z" transform="translate(-92.085 -142.346)" fill="#604876"/>
        <path id="Trazado_1537" data-name="Trazado 1537" d="M264.844,166.323a.5.5,0,0,1-.533-.533l.266-15.188-5.7,15.028a.622.622,0,0,1-.586.426h-4.583a.519.519,0,0,1-.533-.426L250.028,150.6l-2.345,15.242a.633.633,0,0,1-.64.533h-4.106a.485.485,0,0,1-.426-.213.414.414,0,0,1-.106-.426l4.156-22.755a.633.633,0,0,1,.641-.534h5.649a.519.519,0,0,1,.533.426l3.2,16.414,6.075-16.414a.622.622,0,0,1,.586-.426h5.649a.5.5,0,0,1,.533.533l.16,22.755a.485.485,0,0,1-.213.426.658.658,0,0,1-.426.213H264.84Z" transform="translate(-110.286 -142.392)" fill="#604876"/>
      </g>
      <g id="Grupo_8" data-name="Grupo 8" transform="translate(18.865 63.305)">
        <path id="Trazado_1538" data-name="Trazado 1538" d="M37.89,123.974a4.23,4.23,0,0,1-1.705-.32,3.177,3.177,0,0,1-1.172-.853,3.02,3.02,0,0,1-.64-1.226,3.748,3.748,0,0,1-.054-1.545,4.019,4.019,0,0,1,.48-1.545,4.456,4.456,0,0,1,.959-1.226,4.05,4.05,0,0,1,1.385-.853,4.694,4.694,0,0,1,1.759-.32,5.249,5.249,0,0,1,.906.106,8.221,8.221,0,0,1,.906.266l-.48.959c-.32-.106-.533-.16-.747-.213a2.816,2.816,0,0,0-.693-.053,2.477,2.477,0,0,0-1.12.266,3.251,3.251,0,0,0-.853.64,5.28,5.28,0,0,0-.586.906,3.48,3.48,0,0,0-.266,1.066,3.573,3.573,0,0,0,0,1.066,2.624,2.624,0,0,0,.32.906,1.618,1.618,0,0,0,.693.64,2.1,2.1,0,0,0,1.066.266,3.247,3.247,0,0,0,1.493-.373l.266.959a7.115,7.115,0,0,1-.959.373A7.481,7.481,0,0,1,37.89,123.974Z" transform="translate(-34.264 -116.03)" fill="#878785"/>
        <path id="Trazado_1539" data-name="Trazado 1539" d="M46.7,116.381H51.28l-.106,1.066H48.082l-.692,5.436H50.64l-.106,1.066H45.791Zm1.385,4.156a2.6,2.6,0,0,0,.16-.373.783.783,0,0,1,.266-.32,1.412,1.412,0,0,1,.32-.266,1,1,0,0,1,.426-.106h1.279l-.106,1.066Z" transform="translate(-39.5 -116.164)" fill="#878785"/>
        <path id="Trazado_1540" data-name="Trazado 1540" d="M59.337,118.672l-.106-.373v.373L58.591,124H57.312l.959-7.62H59.6l2.613,5.116.106.426.054-.426.64-5.116h1.332L63.335,124H62Z" transform="translate(-44.732 -116.164)" fill="#878785"/>
        <path id="Trazado_1541" data-name="Trazado 1541" d="M71.859,117.447l.106-1.066h5.489l-.106,1.066H75.376l-.8,6.555H73.084l.8-6.555Z" transform="translate(-51.34 -116.164)" fill="#878785"/>
        <path id="Trazado_1542" data-name="Trazado 1542" d="M88.23,118.476a2.146,2.146,0,0,1-.426,1.066,2.873,2.873,0,0,1-.853.747l-.32.106a.186.186,0,0,0,.106.054.187.187,0,0,1,.106.054,1.917,1.917,0,0,1,.426.64,4.438,4.438,0,0,1,.213.8c.054.266.106.586.16.906a4.087,4.087,0,0,0,.266,1.013H86.365a3.993,3.993,0,0,1-.213-.853c-.054-.32-.054-.586-.106-.906a4.44,4.44,0,0,0-.213-.8,1.587,1.587,0,0,0-.373-.586h-.48a1.556,1.556,0,0,1-.48-.106l.16-.32c.053-.106.16-.213.213-.32a.933.933,0,0,1,.266-.213.757.757,0,0,1,.32-.106,1.254,1.254,0,0,0,.426-.106,1.394,1.394,0,0,0,.64-.64l.16-.48a1.323,1.323,0,0,0-.054-.48.956.956,0,0,0-.266-.373,1.16,1.16,0,0,0-.426-.266,1.893,1.893,0,0,0-.533-.106h-.957l-.747,6.713H82.209l.906-7.514a4.182,4.182,0,0,1,.747-.106,2.389,2.389,0,0,1,.586-.054c.16,0,.373-.053.533-.053h.533a3.542,3.542,0,0,1,1.12.16,2.455,2.455,0,0,1,.906.48,1.493,1.493,0,0,1,.533.747,1.221,1.221,0,0,1,.158.906Z" transform="translate(-56.04 -116.075)" fill="#878785"/>
        <path id="Trazado_1543" data-name="Trazado 1543" d="M98.662,123.929a3.893,3.893,0,0,1-1.6-.32A2.805,2.805,0,0,1,96,122.756a3.27,3.27,0,0,1-.586-1.226,4.96,4.96,0,0,1-.054-1.545,5.122,5.122,0,0,1,.426-1.545,4.3,4.3,0,0,1,.906-1.279,4.084,4.084,0,0,1,2.931-1.172,3.364,3.364,0,0,1,1.705.373,2.936,2.936,0,0,1,1.069.906,2.668,2.668,0,0,1,.48,1.279,6.149,6.149,0,0,1,.054,1.385,4.8,4.8,0,0,1-.426,1.493,4.3,4.3,0,0,1-.906,1.279,5.537,5.537,0,0,1-1.279.906A4.343,4.343,0,0,1,98.662,123.929Zm.8-6.821a1.825,1.825,0,0,0-.959.213,2.8,2.8,0,0,0-.747.64,5.061,5.061,0,0,0-.533.906,3.823,3.823,0,0,0-.266,1.12,3.573,3.573,0,0,0,0,1.066,2.286,2.286,0,0,0,.906,1.545,1.8,1.8,0,0,0,.906.266,1.687,1.687,0,0,0,.853-.213,1.917,1.917,0,0,0,.747-.586,3.8,3.8,0,0,0,.586-.906,4.129,4.129,0,0,0,.32-1.226,4.313,4.313,0,0,0,0-1.172,2.282,2.282,0,0,0-.32-.906,1.356,1.356,0,0,0-.64-.586,1.866,1.866,0,0,0-.852-.161Z" transform="translate(-61.996 -115.985)" fill="#878785"/>
        <path id="Trazado_1544" data-name="Trazado 1544" d="M118.623,124.064a2.809,2.809,0,0,1-1.226-.213,2.056,2.056,0,0,1-.906-.586,2.705,2.705,0,0,1-.48-.959,3.572,3.572,0,0,1-.053-1.332l.586-4.69h1.493l-.586,4.85a1.711,1.711,0,0,0,.053.747,1.97,1.97,0,0,0,.266.586,1.16,1.16,0,0,0,.48.373,1.054,1.054,0,0,0,.586.106,2.675,2.675,0,0,0,.64-.106,1.914,1.914,0,0,0,.533-.373,2.363,2.363,0,0,0,.426-.586,3.054,3.054,0,0,0,.213-.747l.586-4.85h1.493l-.586,4.69a3.259,3.259,0,0,1-.373,1.279,2.6,2.6,0,0,1-.747.959,4.053,4.053,0,0,1-1.013.64A4.174,4.174,0,0,1,118.623,124.064Z" transform="translate(-71.352 -116.12)" fill="#878785"/>
        <path id="Trazado_1545" data-name="Trazado 1545" d="M131.587,118.672l-.106-.373v.373l-.64,5.329h-1.279l.959-7.62h1.439l2.613,5.116.106.426.053-.426.64-5.116H136.7l-.959,7.62h-1.332Z" transform="translate(-77.547 -116.164)" fill="#878785"/>
        <path id="Trazado_1546" data-name="Trazado 1546" d="M145.6,124h-1.493l.959-7.62h1.493Z" transform="translate(-84.155 -116.164)" fill="#878785"/>
        <path id="Trazado_1547" data-name="Trazado 1547" d="M152.019,123.957l-1.759-7.62h1.6l1.066,5.755v.373l.106-.373,2.5-5.809h1.545l-3.57,7.62h-1.493Z" transform="translate(-86.949 -116.12)" fill="#878785"/>
        <path id="Trazado_1548" data-name="Trazado 1548" d="M163.859,116.381h4.583l-.106,1.066h-3.091l-.693,5.436H167.8l-.106,1.066h-4.743Zm1.385,4.156a2.6,2.6,0,0,0,.16-.373.783.783,0,0,1,.266-.32,1.413,1.413,0,0,1,.32-.266,1,1,0,0,1,.426-.106H167.7l-.106,1.066Z" transform="translate(-92.713 -116.164)" fill="#878785"/>
        <path id="Trazado_1549" data-name="Trazado 1549" d="M180.158,118.388a2.146,2.146,0,0,1-.426,1.066,2.873,2.873,0,0,1-.853.747l-.32.106a.187.187,0,0,0,.106.054.187.187,0,0,1,.106.053,1.916,1.916,0,0,1,.426.64,4.44,4.44,0,0,1,.213.8c.053.266.106.586.16.906a4.085,4.085,0,0,0,.266,1.013h-1.545a3.993,3.993,0,0,1-.213-.853c-.053-.32-.053-.586-.106-.906a4.442,4.442,0,0,0-.213-.8,1.588,1.588,0,0,0-.373-.586h-.48a1.555,1.555,0,0,1-.48-.106l.16-.32c.053-.106.16-.213.213-.32a.934.934,0,0,1,.266-.213.757.757,0,0,1,.32-.106,1.254,1.254,0,0,0,.426-.106,1.394,1.394,0,0,0,.64-.64l.16-.48a1.323,1.323,0,0,0-.053-.48.956.956,0,0,0-.266-.373,1.16,1.16,0,0,0-.426-.266,1.893,1.893,0,0,0-.533-.106h-.959l-.8,6.606h-1.493l.906-7.514a4.18,4.18,0,0,1,.747-.106c.213,0,.426-.053.586-.053s.373-.054.533-.054h.533a3.543,3.543,0,0,1,1.12.16,2.455,2.455,0,0,1,.906.48,1.493,1.493,0,0,1,.533.747,1.364,1.364,0,0,1,.212,1.013Z" transform="translate(-97.768 -115.986)" fill="#878785"/>
        <path id="Trazado_1550" data-name="Trazado 1550" d="M189.982,117.15a1.284,1.284,0,0,0-.8.213,1.013,1.013,0,0,0-.373.586.783.783,0,0,0,.213.64,5.661,5.661,0,0,0,.586.48l.8.48a6.944,6.944,0,0,1,.8.533,4.026,4.026,0,0,1,.586.747,1.58,1.58,0,0,1,.16,1.013,2.624,2.624,0,0,1-.32.906,1.837,1.837,0,0,1-.64.64,3.591,3.591,0,0,1-2.025.586,7.278,7.278,0,0,1-1.012-.106,3.831,3.831,0,0,1-1.279-.48l.533-.959a4.754,4.754,0,0,0,1.012.373,5.935,5.935,0,0,0,.906.106,1.642,1.642,0,0,0,.533-.053,1.071,1.071,0,0,0,.426-.213l.32-.32c.053-.106.106-.266.16-.373a.83.83,0,0,0-.16-.64,5.836,5.836,0,0,0-.586-.533l-.8-.48a6.943,6.943,0,0,1-.8-.533,2.392,2.392,0,0,1-.586-.693,1.423,1.423,0,0,1-.16-.959,4.5,4.5,0,0,1,.266-.906,1.694,1.694,0,0,1,.586-.64,2.785,2.785,0,0,1,.8-.373,2.493,2.493,0,0,1,.906-.106h.48c.16,0,.32.054.48.054a1.555,1.555,0,0,1,.48.106c.16.053.373.106.586.16l-.48.959c-.32-.106-.586-.16-.8-.213Z" transform="translate(-103.489 -116.027)" fill="#878785"/>
        <path id="Trazado_1551" data-name="Trazado 1551" d="M199.79,124H198.3l.959-7.62h1.493Z" transform="translate(-108.766 -116.164)" fill="#878785"/>
        <path id="Trazado_1552" data-name="Trazado 1552" d="M204.155,117.447l.106-1.066h5.489l-.106,1.066h-1.972l-.8,6.555H205.38l.8-6.555Z" transform="translate(-111.426 -116.164)" fill="#878785"/>
        <path id="Trazado_1553" data-name="Trazado 1553" d="M215.67,122.252l-.747,1.652H213.43l3.677-7.62H218.6l1.812,7.62h-1.545l-1.172-5.649-.053-.373-.16.426-1.226,2.718-.16.213h.959a.77.77,0,0,1,.373.106.643.643,0,0,1,.266.266,2.6,2.6,0,0,1,.16.373c.053.106.053.266.106.373H215.67Z" transform="translate(-115.639 -116.12)" fill="#878785"/>
        <path id="Trazado_1554" data-name="Trazado 1554" d="M234.346,118.388a2.146,2.146,0,0,1-.426,1.066,2.873,2.873,0,0,1-.853.747l-.32.106a.187.187,0,0,0,.106.054.187.187,0,0,1,.106.053,1.916,1.916,0,0,1,.426.64,4.441,4.441,0,0,1,.213.8c.053.266.106.586.16.906a4.088,4.088,0,0,0,.266,1.013H232.48a3.992,3.992,0,0,1-.213-.853c-.053-.32-.053-.586-.106-.906a4.44,4.44,0,0,0-.213-.8,1.588,1.588,0,0,0-.373-.586h-.48a1.555,1.555,0,0,1-.48-.106l.16-.32c.053-.106.16-.213.213-.32a.934.934,0,0,1,.266-.213.757.757,0,0,1,.32-.106,1.254,1.254,0,0,0,.426-.106,1.394,1.394,0,0,0,.64-.64l.16-.48a1.323,1.323,0,0,0-.049-.48.956.956,0,0,0-.266-.373,1.16,1.16,0,0,0-.426-.266,1.894,1.894,0,0,0-.533-.106h-.959l-.8,6.606h-1.493l.906-7.514a4.18,4.18,0,0,1,.747-.106,2.39,2.39,0,0,1,.586-.053c.16,0,.373-.054.533-.054h.533a3.542,3.542,0,0,1,1.12.16,2.456,2.456,0,0,1,.906.48,1.493,1.493,0,0,1,.533.747A1.364,1.364,0,0,1,234.346,118.388Z" transform="translate(-122.38 -115.986)" fill="#878785"/>
        <path id="Trazado_1555" data-name="Trazado 1555" d="M242.847,124h-1.493l.959-7.62h1.493Z" transform="translate(-128.322 -116.164)" fill="#878785"/>
        <path id="Trazado_1556" data-name="Trazado 1556" d="M250.68,123.929a3.894,3.894,0,0,1-1.6-.32,2.805,2.805,0,0,1-1.066-.853,3.27,3.27,0,0,1-.586-1.226,4.96,4.96,0,0,1-.053-1.545,5.123,5.123,0,0,1,.426-1.545,4.3,4.3,0,0,1,.906-1.279,4.084,4.084,0,0,1,2.931-1.172,3.365,3.365,0,0,1,1.705.373,2.937,2.937,0,0,1,1.066.906,2.668,2.668,0,0,1,.48,1.279,6.153,6.153,0,0,1,.053,1.385,4.8,4.8,0,0,1-.426,1.493,4.3,4.3,0,0,1-.906,1.279,5.537,5.537,0,0,1-1.279.906A4.151,4.151,0,0,1,250.68,123.929Zm.853-6.821a1.825,1.825,0,0,0-.959.213,2.8,2.8,0,0,0-.747.64,5.057,5.057,0,0,0-.533.906,3.823,3.823,0,0,0-.266,1.12,3.572,3.572,0,0,0,0,1.066,2.625,2.625,0,0,0,.32.906,2.273,2.273,0,0,0,.586.64,1.8,1.8,0,0,0,.906.266,1.687,1.687,0,0,0,.853-.213,1.918,1.918,0,0,0,.747-.586,3.8,3.8,0,0,0,.586-.906,4.129,4.129,0,0,0,.32-1.226,4.315,4.315,0,0,0,0-1.172,2.282,2.282,0,0,0-.32-.906,1.356,1.356,0,0,0-.64-.586,2.029,2.029,0,0,0-.852-.16Z" transform="translate(-131.04 -115.985)" fill="#878785"/>
      </g>
      <path id="Trazado_1557" data-name="Trazado 1557" d="M155.383,0h-8.154a2.053,2.053,0,0,0-1.972,1.759v.108l-7.834,23.448L135.557,30.8a.114.114,0,0,1-.106.106l-7.78,23.448h2.558A2.053,2.053,0,0,0,132.2,52.6v-.106l9.7-28.937a.33.33,0,0,1,.64.16L138.968,52.6h0v.053a1.489,1.489,0,0,0,1.493,1.705h10.39a2.294,2.294,0,0,0,2.24-1.972l.48-3.784a1.489,1.489,0,0,0-1.493-1.705H151.7l5.489-44.764A1.777,1.777,0,0,0,155.383,0ZM130.655,0h-2.131a2.029,2.029,0,0,0-1.756,1.12l-1.281,3.3-9.113,26.7a.33.33,0,0,1-.64-.16l3.091-25.206h0L119.2,2.93l.16-1.172h0V1.7A1.489,1.489,0,0,0,117.866,0h-10.39a2.294,2.294,0,0,0-2.24,1.972l-.48,3.784A1.489,1.489,0,0,0,106.25,7.46h.373l-5.489,44.764A1.8,1.8,0,0,0,103,54.3h8.152a2.029,2.029,0,0,0,1.759-1.12h.054l8.42-25.1Z" transform="translate(-45.761 0)" fill="#604876"/>
      <path id="Trazado_1558" data-name="Trazado 1558" d="M154.45,2.131A1.84,1.84,0,0,0,152.584,0h-4.156l-9.109,27.6-3.037,24.674a1.8,1.8,0,0,0,1.866,2.079h3.733l9.748-29.472Z" transform="translate(-61.725 0)" fill="#878785"/>
    </g>
  </g>
</svg>
