<svg xmlns="http://www.w3.org/2000/svg" xmlns:xlink="http://www.w3.org/1999/xlink" width="13" height="14" viewBox="0 0 13 14"><defs><clipPath id="a"><rect width="13" height="14" fill="#e4f1fe"/></clipPath></defs><g clip-path="url(#a)"><g transform="translate(0 4.053)"><path d="M11.413,1.553H1.59A1.591,1.591,0,0,0,0,3.143V9.857a1.591,1.591,0,0,0,1.59,1.59H11.41A1.591,1.591,0,0,0,13,9.857V3.146A1.589,1.589,0,0,0,11.413,1.553Zm.863,8.3a.864.864,0,0,1-.863.863H1.59a.864.864,0,0,1-.863-.863V3.146a.864.864,0,0,1,.863-.863H11.41a.864.864,0,0,1,.863.863V9.857Z" transform="translate(0 -1.553)" fill="#e4f1fe"/><path d="M8.2,6.417l3.179-2.851a.364.364,0,0,0-.487-.541L6.507,6.96,5.651,6.2s-.005-.005-.005-.008a.538.538,0,0,0-.059-.051L2.106,3.022a.364.364,0,0,0-.484.543L4.839,6.441l-3.2,3a.365.365,0,0,0-.016.514.372.372,0,0,0,.266.116.364.364,0,0,0,.247-.1L5.385,6.93l.882.788a.362.362,0,0,0,.484,0L7.658,6.9l3.233,3.072a.364.364,0,0,0,.514-.013.365.365,0,0,0-.013-.514Z" transform="translate(0 -1.553)" fill="#e4f1fe"/></g></g></svg>
