<svg xmlns="http://www.w3.org/2000/svg" xmlns:xlink="http://www.w3.org/1999/xlink" width="150" height="150" viewBox="0 0 150 150"><defs><clipPath id="a"><rect width="150" height="150" transform="translate(137.5 1671)" fill="#fff" stroke="#707070" stroke-width="1"/></clipPath></defs><g transform="translate(-137.5 -1671)" clip-path="url(#a)"><g transform="translate(137.488 1707.554)"><path d="M37.034,2.462A5.118,5.118,0,0,1,39.3.217,7.2,7.2,0,0,1,40.546.181h20.49A6.781,6.781,0,0,0,59.461,1.9a27.573,27.573,0,0,0-2.408,5.557,179.207,179.207,0,0,0-4.38,17.7c-.561,2.7-1.1,5.412-1.611,8.109C49.506,42.1,47.895,50.918,45.886,59.66a94.879,94.879,0,0,1-3.421,11.965,12.317,12.317,0,0,1-2.679,4.526c-.308.271-.615.615-1.05.561h-18.1c-1.231-.036-2.444.072-3.674-.055a7.183,7.183,0,0,0,2.009-2.3,43.945,43.945,0,0,0,3.023-8.182c1.267-4.489,2.281-9.032,3.24-13.575.6-2.987,1.3-5.955,1.738-8.96.489-3.349,1.231-6.661,1.828-9.992.941-4.905,1.937-9.811,3.041-14.68.887-3.8,1.792-7.584,3-11.295A28.632,28.632,0,0,1,37.034,2.462Z" fill="#eb7077" stroke="#eb7077" stroke-width="0.055"/><path d="M61.036.181c.525,0,1.05-.018,1.575,0A6.009,6.009,0,0,1,65.29,2.987a35.121,35.121,0,0,1,1.865,4.308,173.34,173.34,0,0,1,4.272,17.087Q73,32.093,74.413,39.858c.073.272-.018.652.344.724-1.3,6.806-2.588,13.63-4.217,20.382a89.606,89.606,0,0,1-3.168,10.77c-.724,1.756-1.467,3.674-3.005,4.923-.977.217-1.683-.525-2.281-1.195A17.437,17.437,0,0,1,59.8,71.028,130.484,130.484,0,0,1,55.244,53.85c-.959-4.507-1.81-9.05-2.7-13.576-.4-2.3-.941-4.561-1.249-6.86-.054-.036-.181-.109-.235-.145.507-2.7,1.05-5.412,1.611-8.109a179.207,179.207,0,0,1,4.38-17.7A27.573,27.573,0,0,1,59.461,1.9,6.781,6.781,0,0,1,61.036.181Z" fill="#f6a2ad" stroke="#f6a2ad" stroke-width="0.055"/><path d="M83.68,3.312C84.332,2.063,85.128.67,86.54.2,93.726.163,100.912.181,108.1.181a9.642,9.642,0,0,0-1.828,2.19,40.243,40.243,0,0,0-3.041,8c-2.136,7.53-3.638,15.223-5.068,22.916C96.839,40.872,95.427,48.456,93.817,56c-.832,3.8-1.7,7.584-2.805,11.331A36.967,36.967,0,0,1,88.4,74.141a5.782,5.782,0,0,1-2.281,2.552c-6.86.055-13.739,0-20.6.018a8.249,8.249,0,0,1-1.159-.055c1.539-1.249,2.281-3.168,3.005-4.923a89.606,89.606,0,0,0,3.168-10.77c1.629-6.752,2.914-13.576,4.217-20.382,1.574-8.779,3.222-17.558,5.322-26.228A60.085,60.085,0,0,1,83.68,3.312Z" fill="#eb7077" stroke="#eb7077" stroke-width="0.055"/><path d="M108.1.181c.579,0,1.176-.018,1.756,0a6.5,6.5,0,0,1,2.209,2.172,26.628,26.628,0,0,1,2.226,5.032,145.207,145.207,0,0,1,3.656,14.1c1.376,6.39,2.57,12.815,3.747,19.241.29,1.539.579,3.1.76,4.652l.271.272a11.39,11.39,0,0,0-1.267,3.023,85.652,85.652,0,0,0-2.516,11.259,60.622,60.622,0,0,1-2.081,8.779,19.331,19.331,0,0,1-2.9,5.991,6.454,6.454,0,0,1-2.516,1.937c-1.5.163-2.39-1.285-3.114-2.353a40.1,40.1,0,0,1-3.186-8.417c-2.86-10.589-4.724-21.431-6.733-32.2a.477.477,0,0,0-.254-.38c1.43-7.693,2.933-15.386,5.068-22.916a40.243,40.243,0,0,1,3.041-8A9.642,9.642,0,0,1,108.1.181Z" fill="#f6a2ad" stroke="#f6a2ad" stroke-width="0.055"/><path d="M.018,41.36c.471-.036.941-.109,1.43-.109h19.73a8.381,8.381,0,0,1,2.5.4,7.117,7.117,0,0,1,2.95,2.263c.091-.054.253-.2.344-.272-.434,3-1.14,5.973-1.738,8.96-.959,4.543-1.973,9.087-3.24,13.575a43.945,43.945,0,0,1-3.023,8.182,7.183,7.183,0,0,1-2.009,2.3c-.308.055-.543-.163-.8-.326A6.745,6.745,0,0,1,14.3,74C11.82,68.349,11.548,62.1,10.01,56.2a41.483,41.483,0,0,0-3.15-8.6A15.943,15.943,0,0,0,3.53,43.171,9.038,9.038,0,0,0,.018,41.36Z" fill="#f6a2ad" stroke="#f6a2ad" stroke-width="0.055"/><path d="M124.317,43.243a5.9,5.9,0,0,1,4.561-2.027h14.843c2.063.036,4.145-.072,6.209.054a20.135,20.135,0,0,1-2.009.923,12,12,0,0,0-5.43,4.905c-1.973,3.439-2.661,7.385-3.24,11.259-.579,3.8-.561,7.729-1.792,11.422a13.863,13.863,0,0,1-4.29,6.9c-6.806.073-13.612.018-20.4.036a6.38,6.38,0,0,1-1.321-.073,6.454,6.454,0,0,0,2.516-1.937,19.331,19.331,0,0,0,2.9-5.991,60.622,60.622,0,0,0,2.081-8.779,85.652,85.652,0,0,1,2.516-11.259,11.39,11.39,0,0,1,1.267-3.023A15.412,15.412,0,0,1,124.317,43.243Z" fill="#eb7077" stroke="#eb7077" stroke-width="0.055"/></g></g></svg>