<svg xmlns="http://www.w3.org/2000/svg" width="835.83" height="181.274" viewBox="0 0 835.83 181.274"><path d="M165.161,125.854a56.613,56.613,0,0,0-24.109,5.066,49.383,49.383,0,0,0-18.372,14.587h-.366q-10.742-19.653-36.255-19.653a44.155,44.155,0,0,0-19.775,4.7,50.318,50.318,0,0,0-16.724,13.489h-.366V127.93H16.479V250H49.194V188.965a45.276,45.276,0,0,1,3.418-18.372q3.418-7.751,9.155-11.536a23.4,23.4,0,0,1,13.184-3.784q21.606,0,21.606,31.738v63.11h32.715V188.965a46,46,0,0,1,3.357-18.372q3.357-7.751,8.972-11.536a21.994,21.994,0,0,1,12.573-3.784q21.362,0,21.362,31.738v63.11h32.715V179.077q0-27.1-11.292-40.161T165.161,125.854Zm89.785-15.137a19.7,19.7,0,0,0,14.282-5.859,19.607,19.607,0,0,0,0-28.2,20.411,20.411,0,0,0-28.625,0,19.053,19.053,0,0,0-5.92,14.038,19.54,19.54,0,0,0,2.686,10.071,19.773,19.773,0,0,0,7.385,7.263A20.2,20.2,0,0,0,254.946,110.718ZM238.589,250H271.3V127.93H238.589ZM342.9,252.075q23.071,0,35.217-10.5t12.146-27.466a41.849,41.849,0,0,0-.732-8.179q-2.319-12.207-14.16-19.531-6.836-4.395-27.1-11.841-9.644-3.662-13.977-6.592t-4.333-6.592a7.618,7.618,0,0,1,3.662-6.775,14.9,14.9,0,0,1,8.3-2.38,37.61,37.61,0,0,1,14.709,3.235,48.835,48.835,0,0,1,14.465,9.7l15.869-23.926a68.45,68.45,0,0,0-44.678-15.381,53.6,53.6,0,0,0-22.4,4.517,37.609,37.609,0,0,0-15.747,12.878,32.912,32.912,0,0,0-5.8,19.226,39.947,39.947,0,0,0,1.343,10.62,28.182,28.182,0,0,0,3.967,8.667,43.228,43.228,0,0,0,5.859,6.836,38.2,38.2,0,0,0,7.751,5.554,92.946,92.946,0,0,0,8.85,4.333q4.334,1.831,9.827,3.662,8.667,2.808,13,4.639a25.2,25.2,0,0,1,6.775,3.967,6.414,6.414,0,0,1,2.441,4.944,8.564,8.564,0,0,1-4.028,7.324q-4.028,2.808-10.986,2.808-18.555,0-33.813-14.282l-15.869,22.583Q313.848,252.075,342.9,252.075Zm109.438,0q23.071,0,35.217-10.5T499.7,214.111a41.849,41.849,0,0,0-.732-8.179q-2.319-12.207-14.16-19.531-6.836-4.395-27.1-11.841-9.644-3.662-13.977-6.592t-4.333-6.592a7.618,7.618,0,0,1,3.662-6.775,14.9,14.9,0,0,1,8.3-2.38,37.61,37.61,0,0,1,14.709,3.235,48.835,48.835,0,0,1,14.465,9.7l15.869-23.926a68.45,68.45,0,0,0-44.678-15.381,53.6,53.6,0,0,0-22.4,4.517,37.609,37.609,0,0,0-15.747,12.878,32.912,32.912,0,0,0-5.8,19.226,39.947,39.947,0,0,0,1.343,10.62,28.182,28.182,0,0,0,3.967,8.667,43.228,43.228,0,0,0,5.859,6.836,38.2,38.2,0,0,0,7.751,5.554,92.946,92.946,0,0,0,8.85,4.333q4.334,1.831,9.827,3.662,8.667,2.808,13,4.639a25.2,25.2,0,0,1,6.775,3.967A6.414,6.414,0,0,1,467.6,215.7a8.564,8.564,0,0,1-4.028,7.324q-4.028,2.808-10.986,2.808-18.555,0-33.813-14.282L402.9,234.131Q423.286,252.075,452.339,252.075Zm87.832-141.357a19.7,19.7,0,0,0,14.282-5.859,19.607,19.607,0,0,0,0-28.2,20.411,20.411,0,0,0-28.625,0,19.053,19.053,0,0,0-5.92,14.038,19.54,19.54,0,0,0,2.686,10.071,19.773,19.773,0,0,0,7.385,7.263A20.2,20.2,0,0,0,540.171,110.718ZM523.813,250h32.715V127.93H523.813Zm123.11,2.075q18.8,0,33.569-7.874a57.1,57.1,0,0,0,23.071-22.278q8.3-14.4,8.3-32.837a67.187,67.187,0,0,0-4.822-25.7,57.849,57.849,0,0,0-13.367-20.02,60.579,60.579,0,0,0-20.63-12.878,75.976,75.976,0,0,0-52.612.122,59.556,59.556,0,0,0-20.63,13.123,58.693,58.693,0,0,0-13.123,20.081,67.253,67.253,0,0,0-4.7,25.269,68.858,68.858,0,0,0,2.991,20.508,57.734,57.734,0,0,0,8.728,17.4,59.859,59.859,0,0,0,31.616,22.034A74.547,74.547,0,0,0,646.924,252.075Zm0-29.3q-13.916,0-22.888-9.7t-8.972-23.987q0-14.648,8.85-24.231t23.01-9.583q13.672,0,22.705,9.46t9.033,24.353q0,14.648-9.155,24.17A30.088,30.088,0,0,1,646.924,222.778ZM808,125.854a52,52,0,0,0-21.545,4.578,50.067,50.067,0,0,0-17.639,13.245h-.366V127.93H735.732V250h32.715V188.6q0-15.991,7.507-24.658t20.2-8.667q11.963,0,17.7,6.836t5.737,23.682v64.331H852.31v-72.51a80.385,80.385,0,0,0-3.174-23.926q-3.174-10.132-9.216-16.113A38.129,38.129,0,0,0,826,128.723,52.409,52.409,0,0,0,808,125.854Z" transform="translate(-16.479 -70.801)" fill="#e8ebef"/></svg>