<svg xmlns="http://www.w3.org/2000/svg" xmlns:xlink="http://www.w3.org/1999/xlink" width="746.31" height="601" viewBox="0 0 746.31 601"><defs><clipPath id="a"><path d="M183.583,469.96S61.338,418.667,64.177,315.169s117.509-136.007,196.156-72.111,154.472,44.992,195.215-9S523.463,61.71,637.511,107.293c85.008,33.968,142.115,125.2,160.544,207.405,12.675,56.5-5.693,116.192-49.988,153.47-1.442,1.215-2.915,2.414-4.433,3.584Z" transform="translate(-64.128 -97.062)" fill="none"/></clipPath></defs><path d="M183.583,469.631S61.338,418.338,64.177,314.84s117.509-119.684,196.156-55.727S414.8,304.044,455.578,250,523.463,61.38,637.511,106.964c85.008,33.968,142.115,125.2,160.544,207.405,12.675,56.5-5.693,116.192-49.988,153.47-1.442,1.215-2.915,2.414-4.433,3.584Z" transform="translate(-64.128 47.195)" fill="#0050c8"/><g transform="translate(0 143.928)" clip-path="url(#a)"><path d="M225.308,277.194S198.515,500.011,365.829,378.17C503.148,278.241,697.756,289.508,701.824,530.3c0,0,70.39,3.037,64.151-118.758S703.464,11.48,540.946,42.73,225.308,277.194,225.308,277.194Z" transform="translate(18.547 -126.49)" fill="#3f71e2"/></g><path d="M263.6,73.86l148.307.623a34.2,34.2,0,0,1,33.968,36.595L421.8,452.729a33.679,33.679,0,0,1-33.588,31.326H237.495a33.664,33.664,0,0,1-33.573-36.17L229.356,105.52A34.18,34.18,0,0,1,263.6,73.86Z" transform="translate(8.208 34.837)" fill="#f1f2ff"/><path d="M263.6,73.86l148.307.623a34.2,34.2,0,0,1,33.968,36.595L421.8,452.729a33.679,33.679,0,0,1-33.588,31.326H237.495a33.664,33.664,0,0,1-33.573-36.17L229.356,105.52A34.18,34.18,0,0,1,263.6,73.86Z" transform="translate(8.208 34.837)" fill="#99c1f9"/><path d="M252.627,73.86l148.322.623a34.2,34.2,0,0,1,33.968,36.595L410.835,452.729a33.679,33.679,0,0,1-33.588,31.326H226.495a33.664,33.664,0,0,1-33.573-36.169L218.386,105.52A34.211,34.211,0,0,1,252.627,73.86Z" transform="translate(2.512 34.837)" fill="#d8e7fc"/><path d="M232.016,94.46h169.6L381.219,420.289,210.97,421.565Z" transform="translate(11.915 45.596)" fill="#fff"/><path d="M267.82,348.309a16.84,16.84,0,1,1,16.84-16.84A16.84,16.84,0,0,1,267.82,348.309Zm0-31.31A14.471,14.471,0,1,0,282.29,331.47,14.471,14.471,0,0,0,267.82,317Z" transform="translate(32.659 159.691)" fill="#99c1f9"/><path d="M301.616,88.49H273.175a2.885,2.885,0,0,1-2.885-2.885h0a2.885,2.885,0,0,1,2.885-2.885h28.441a2.885,2.885,0,0,1,2.885,2.885h0a2.885,2.885,0,0,1-2.885,2.885Z" transform="translate(42.661 39.559)" fill="#99c1f9"/><path d="M371.976,166.8H234.314a6.271,6.271,0,0,1-6.271-6.575l1.853-37.339a6.256,6.256,0,0,1,6.256-5.952H373.829a6.256,6.256,0,0,1,6.256,6.575l-1.777,37.339A6.241,6.241,0,0,1,371.976,166.8Z" transform="translate(20.759 57.277)" fill="#d8e7fc"/><path d="M299.938,166.917H337.9A6.241,6.241,0,0,0,344.14,161l1.868-37.521a6.226,6.226,0,0,0-6.226-6.545H301.821a6.226,6.226,0,0,0-6.226,5.922l-1.883,37.521a6.241,6.241,0,0,0,6.226,6.545Z" transform="translate(54.787 57.277)" fill="#99c1f9"/><path d="M316.469,125.92H238.162a.941.941,0,1,1,0-1.868h78.306a.941.941,0,1,1,0,1.868Z" transform="translate(25.464 60.967)" fill="#eef4fd"/><path d="M316.079,134.148H237.711a.941.941,0,0,1-.941-.941.926.926,0,0,1,.941-.926h78.367a.926.926,0,0,1,.941.926.941.941,0,0,1-.941.941Z" transform="translate(25.293 65.233)" fill="#eef4fd"/><path d="M275.976,142.378h-38.66a.934.934,0,0,1,0-1.868h38.69a.926.926,0,0,1,.941.926.941.941,0,0,1-.972.941Z" transform="translate(25.101 69.497)" fill="#eef4fd"/><path d="M368.746,213.286h-137.6a6.271,6.271,0,0,1-6.271-6.575l1.853-37.339a6.256,6.256,0,0,1,6.256-5.952H370.659a6.256,6.256,0,0,1,6.256,6.575l-1.852,37.339A6.241,6.241,0,0,1,368.746,213.286Z" transform="translate(19.117 81.359)" fill="#d8e7fc"/><path d="M296.739,213.407H334.7a6.241,6.241,0,0,0,6.226-5.922l1.959-37.521a6.226,6.226,0,0,0-6.226-6.545H298.7a6.226,6.226,0,0,0-6.226,5.922l-1.959,37.475a6.226,6.226,0,0,0,6.226,6.59Z" transform="translate(53.128 81.359)" fill="#99c1f9"/><path d="M313.259,172.41H234.952a.941.941,0,1,1,0-1.868h78.306a.941.941,0,1,1,0,1.868Z" transform="translate(23.802 85.051)" fill="#eef4fd"/><path d="M312.808,180.638H234.5a.941.941,0,0,1-.941-.941.926.926,0,0,1,.941-.926h78.306a.926.926,0,0,1,.941.926.941.941,0,0,1-.941.941Z" transform="translate(23.63 89.317)" fill="#eef4fd"/><path d="M272.782,188.873h-38.69a.941.941,0,1,1,0-1.883h38.69a.941.941,0,0,1,0,1.883Z" transform="translate(23.422 93.575)" fill="#eef4fd"/><path d="M330.455,139.936a15.594,15.594,0,1,1-3.771-11.362A15.594,15.594,0,0,1,330.455,139.936Z" transform="translate(57.692 60.525)" fill="#fff"/><path d="M309.958,141.427a1.351,1.351,0,0,1-.881-.395l-5.239-5.148A1.4,1.4,0,0,1,305.8,133.9l4.343,4.267,9.991-8.048a1.4,1.4,0,1,1,1.746,2.187l-10.948,8.822a1.382,1.382,0,0,1-.972.3Z" transform="translate(59.845 63.952)" fill="#eef4fd"/><path d="M328.045,186.426a15.61,15.61,0,1,1-3.776-11.358,15.595,15.595,0,0,1,3.776,11.358Z" transform="translate(56.444 84.607)" fill="#fff"/><path d="M307.559,187.957a1.382,1.382,0,0,1-.9-.395l-5.223-5.148a1.4,1.4,0,0,1,0-1.974,1.412,1.412,0,0,1,1.989,0l4.343,4.282,9.991-8.048a1.4,1.4,0,0,1,1.746,2.187l-10.933,8.716a1.382,1.382,0,0,1-1.017.38Z" transform="translate(58.587 88.072)" fill="#eef4fd"/><path d="M126.62,283.982s-1.989-3.113-7.152-23.9-18.662-40.634-39.662-33.254-15,31.887-4.555,71.458c7.395,28.258-22.777,50.109,16.991,72.142,24.128,13.3,66.022-4.555,57.792-44.794a54.5,54.5,0,0,0-10.2-22.488,149.658,149.658,0,0,1-13.211-19.163Z" transform="translate(-63.298 113.368)" fill="#83b9fd"/><path d="M100.869,395.618a.9.9,0,0,1-.7-1.032c9.566-61.209-16.566-143.448-16.84-144.253a.911.911,0,0,1,1.731-.562c.273.835,26.527,83.515,16.885,145.118a.911.911,0,0,1-1.033.759Z" transform="translate(-54.189 125.733)" fill="#4b8dd9"/><path d="M89.566,278.8h-.152a.911.911,0,0,1-.5-1.184,120.837,120.837,0,0,0,6.241-20.3.881.881,0,0,1,1.048-.729.9.9,0,0,1,.729,1.048A123.345,123.345,0,0,1,90.6,278.254a.911.911,0,0,1-1.033.547Z" transform="translate(-51.313 129.616)" fill="#4b8dd9"/><path d="M97.638,287.459a1.064,1.064,0,0,1-.349-.167c-4.677-3.614-16.354-10.341-16.475-10.4a.926.926,0,0,1-.334-1.245.911.911,0,0,1,1.245-.334c.486.273,11.9,6.848,16.7,10.538a.911.911,0,0,1,.152,1.275.9.9,0,0,1-.941.334Z" transform="translate(-55.711 139.264)" fill="#4b8dd9"/><path d="M94.052,300H93.87a.911.911,0,0,1-.44-1.215l5.983-12.8a.911.911,0,1,1,1.64.759L95.07,299.563A.9.9,0,0,1,94.052,300Z" transform="translate(-48.982 144.527)" fill="#4b8dd9"/><path d="M89.68,138.607l116.48.531a90.8,90.8,0,0,0-6.666-7.015c-4.555-3.948-9.855-10.933-26.694-5.785a39.129,39.129,0,0,0-3.842,1.518c-1.518.638-6.074.653-10.8-3.037-7.471-5.937-10.4-10.417-20.666-10.629-11.92-.167-13.8,14.7-23.065,18.51-5.907,2.43-21.471,4.829-24.705,5.907" transform="translate(-50.881 55.86)" fill="#d7e7fc"/><path d="M316.23,24.006a81.656,81.656,0,0,1,5.876-6.074c4.024-3.462,8.64-9.581,23.4-5.072a33.5,33.5,0,0,1,3.371,1.291c1.291.547,5.33.562,9.46-2.718,6.56-5.208,9.111-9.111,18.115-9.263C386.9,2.034,388.6,15.062,396.678,18.4c5.178,2.126,18.814,4.236,21.638,5.178Z" transform="translate(66.445 -2.169)" fill="#d7e7fc"/><path d="M435.89,75.753A144.074,144.074,0,0,1,446.215,65c7.076-6.074,15.184-16.824,41.1-8.9a60.477,60.477,0,0,1,5.907,2.247c2.278.972,9.354,1,16.612-4.753,11.51-9.111,16.02-16.05,31.887-16.278,18.358-.243,21.258,22.655,35.517,28.516,9.111,3.72,33.057,7.425,37.961,9.111Z" transform="translate(128.394 16.054)" fill="#d7e7fc"/><path d="M219.809,85.134A23.035,23.035,0,0,0,202.073,47.34h-50a23.08,23.08,0,0,0,0,46.161h50a22.776,22.776,0,0,0,10.3-2.475l11.555,6.347Z" transform="translate(-30.5 21.249)" fill="#3f71e2"/><path d="M168.71,64.256a5.026,5.026,0,1,0,5-5.026A5.026,5.026,0,0,0,168.71,64.256Z" transform="translate(-9.954 27.414)" fill="#fff"/><path d="M157.35,64.256a5.026,5.026,0,1,0,5.026-5.026A5.026,5.026,0,0,0,157.35,64.256Z" transform="translate(-15.839 27.414)" fill="#fff"/><path d="M146,64.256a5.026,5.026,0,1,0,5.026-5.026A5.026,5.026,0,0,0,146,64.256Z" transform="translate(-21.681 27.414)" fill="#fff"/><path d="M480.99,401.693c-1.594.091-41.666-4.722-43.488-42s23.718-46.495,16.991-88.07-24.3-53.419,15.184-83.712c0,0,17.614-12.148,18.449-29.291.972-20.484,36.321-44.248,60.039-30.582S566.3,162.8,546,196.945s-.729,40.117,3.158,51.157,12.952,22.625-7.759,49.016,3.963,58.6-13.666,83.864C527.7,381.058,512.225,399.765,480.99,401.693Z" transform="translate(129.182 60.902)" fill="#5ed291"/><path d="M473,438.255a1.67,1.67,0,0,0,1.245-1.944c-21.532-113.777,22.367-268.933,22.777-270.5a1.689,1.689,0,1,0-3.249-.926c-.456,1.518-44.567,157.494-22.883,272.046a1.7,1.7,0,0,0,1.974,1.351Z" transform="translate(143.432 81.395)" fill="#e2e2e2"/><path d="M481.243,219.237a.972.972,0,0,0,.273-.091,1.7,1.7,0,0,0,.865-2.232c-.091-.213-9.111-20.317-12.709-37.475a1.692,1.692,0,1,0-3.31.7C470.1,197.66,479.194,218.1,479.285,218.3a1.685,1.685,0,0,0,1.959.941Z" transform="translate(144.174 88.963)" fill="#e2e2e2"/><path d="M473.062,236.013a1.671,1.671,0,0,0,.653-.334c8.518-7.046,29.913-20.287,30.126-20.423a1.688,1.688,0,1,0-1.777-2.87c-.881.547-21.8,13.5-30.506,20.681a1.7,1.7,0,0,0-.228,2.384A1.731,1.731,0,0,0,473.062,236.013Z" transform="translate(146.569 106.597)" fill="#e2e2e2"/><path d="M474,259.148a1.4,1.4,0,0,0,.349-.137,1.685,1.685,0,0,0,.759-2.262l-12-23.566a1.7,1.7,0,1,0-3.037,1.518l11.935,23.551A1.67,1.67,0,0,0,474,259.148Z" transform="translate(140.817 116.966)" fill="#e2e2e2"/><path d="M535.645,358.66c-1.518,1.154-14.911-23.141-18.039-54.042,0,0-1.518-15.184,12.907-7.456,0,0-14.911-66.447,24.827-61.482,6.848.85,10.751,2.384,14.7,6.712,5.33,5.846,8.276,15.306,1.974,28.851-12.6,27.18-23.673,37.734-18.221,52.128S557.344,341.926,535.645,358.66Z" transform="translate(170.736 118.637)" fill="#83b9fd"/><path d="M533.661,388.477a1.519,1.519,0,0,0,1.139-1.716c-9.111-44.658,4.024-119.958,5.694-123.192a1.427,1.427,0,0,0-.349-2,1.518,1.518,0,0,0-2.065.38c-2.718,3.781-15.018,82-6.074,125.394a1.427,1.427,0,0,0,1.655,1.139Z" transform="translate(176.562 132.023)" fill="#4b8dd9"/><path d="M376.179,251.793l-5.239,20.818,62.894,3.371-2.126-26.1Z" transform="translate(94.79 126.15)" fill="#3f71e2"/><path d="M406.637,260.07l-18.3,61.8.364,93.385-22.336.456-4.328-95.252L377,261.71Z" transform="translate(90.184 131.377)" fill="#3f71e2"/><path d="M394.641,266.332l-14.5-1.382,10.644,14.395Z" transform="translate(99.566 133.959)" fill="#3f71e2" opacity="0.44"/><path d="M422.141,266.426l4.221,57.99,17.675,95.723-22.093,4.54-21.349-97.652L393.23,260.14Z" transform="translate(106.339 131.414)" fill="#3f71e2"/><path d="M376.629,362.421l12.148-.091.319,17.432-34.575.228h0a6.15,6.15,0,0,1,4.753-5.542l17.128-4.191Z" transform="translate(86.291 184.394)" fill="#ccd9f8"/><rect width="34.575" height="2.688" transform="translate(440.844 564.356) rotate(-0.38)" fill="#99c1f9"/><path d="M376.494,368.027a2.657,2.657,0,1,1-2.672-2.627,2.657,2.657,0,0,1,2.672,2.627Z" transform="translate(94.926 185.986)" fill="#fff"/><path d="M423.088,367.46l12.056-1.61,2.49,17.25-34.271,4.555h0a6.074,6.074,0,0,1,4.024-6.074l16.46-6.286Z" transform="translate(111.586 186.219)" fill="#ccd9f8"/><rect width="34.575" height="2.688" transform="translate(514.95 573.84) rotate(-7.55)" fill="#99c1f9"/><path d="M424.307,371.713a2.672,2.672,0,1,1-1.039-1.782,2.657,2.657,0,0,1,1.039,1.782Z" transform="translate(119.704 188.055)" fill="#fff"/><path d="M377.294,248.032a6.493,6.493,0,0,1-.744,0l-56.79-8.443,2.764-18.555,50.883,7.592a395.2,395.2,0,0,1,25.586-33.406c-.121.228.562.82,0,0l17.887,1.853c.8,4.555-3.128,4.555-31.113,46.829a9.369,9.369,0,0,1-8.473,4.13Z" transform="translate(68.274 97.831)" fill="#ccd9f8"/><path d="M405.828,192l1.837.3a20.484,20.484,0,0,1,16.612,15.382l13,74.04c-27.636,15.063-62.606.152-62.606.152l-6.712-69.044a18.009,18.009,0,0,1,9.9-18.373h0Z" transform="translate(93.172 96.156)" fill="#ccd9f8"/><path d="M394.054,208.845l-15.564-1.291,2.536-35.334,15.564,1.306Z" transform="translate(98.71 85.919)" fill="#ebb28b"/><path d="M376.182,194.18l23.779-2.08s-.182,13.894-14.516,13.666C372.31,205.614,376.182,194.18,376.182,194.18Z" transform="translate(97.238 96.221)" fill="#ebb28b"/><path d="M327.2,222.28a10.083,10.083,0,1,1-8.26-11.631A10.083,10.083,0,0,1,327.2,222.28Z" transform="translate(61.768 105.755)" fill="#fff"/><path d="M328.948,226.229l-10.341-1.761a5,5,0,0,1-4.085-5.74h0a5,5,0,0,1,5.74-4.085l10.356,1.761a4.965,4.965,0,0,1,4.069,5.74h0A5,5,0,0,1,328.948,226.229Z" transform="translate(65.54 107.864)" fill="#fff"/><circle cx="29.002" cy="29.002" r="29.002" transform="translate(350.201 348.098) rotate(-64)" fill="#f4be46"/><path d="M321.153,237.382a2.566,2.566,0,0,1-1.64-.744l-9.748-9.581a2.6,2.6,0,1,1,3.659-3.705l8.078,7.941,18.586-14.957a2.6,2.6,0,0,1,3.265,4.054L322.96,236.805a2.566,2.566,0,0,1-1.807.577Z" transform="translate(62.707 108.477)" fill="#fae2a3"/><path d="M382.742,203h0a19.178,19.178,0,0,1-17.827-20.454l1.67-23.794,38.3,2.642-1.655,23.794A19.163,19.163,0,0,1,382.742,203Z" transform="translate(91.651 78.941)" fill="#f0bc99"/><path d="M404.547,184.422l-5.466-.273a2.369,2.369,0,0,1-2.187-2.931c.957-3.9,2.2-10.629-.319-11.586-3.584-1.382-23.4,2.551-29.746-2.915-8.959-7.683-1.518-18.692,6.954-18.677s6.651,9.733,16.521,10.128,25.039-2.505,17.037,23.217Z" transform="translate(90.558 73.394)" fill="#21283a"/><path d="M398.814,175.2a6.074,6.074,0,1,1-5.588-6.423A6.074,6.074,0,0,1,398.814,175.2Z" transform="translate(102.953 84.129)" fill="#f0bc99"/><path d="M352.3,238.279a10.1,10.1,0,1,1-9.369-10.751,10.1,10.1,0,0,1,9.369,10.751Z" transform="translate(74.693 114.56)" fill="#f0af74"/><path d="M354.587,241.832l-10.462-.729a5,5,0,0,1-4.631-5.315h0a5.011,5.011,0,0,1,5.315-4.555l10.477.729a5,5,0,0,1,4.555,5.315h0a5,5,0,0,1-5.254,4.555Z" transform="translate(78.504 116.488)" fill="#f0af74"/><path d="M345.67,263.382V244.614h51.718l17.781-42.183A9.369,9.369,0,0,1,427.59,197.8h0a9.369,9.369,0,0,1,4.646,12.421L411.95,257.9a9.4,9.4,0,0,1-8.549,5.5Z" transform="translate(81.696 98.726)" fill="#ccd9f8"/><rect width="28" height="9.764" transform="translate(453.67 537.34)" fill="#0050c8"/><rect width="28" height="9.764" transform="translate(524.014 547.656) rotate(-11.09)" fill="#0050c8"/><path d="M371.3,257.616H388a12.816,12.816,0,0,0,10.811-7.41l18.571-42.016c-7.2,24.508-16.7,49.471-16.7,49.471a7.8,7.8,0,0,1-7.592,5.132l-21.38-.85Z" transform="translate(94.98 104.549)" fill="#ccd9f8"/><rect width="136.797" height="45.417" rx="1.93" transform="translate(227.961 365.795) rotate(-7.55)" fill="#99c1f9"/><rect width="136.797" height="45.417" rx="1.93" transform="translate(219.146 350.932) rotate(-7.55)" fill="#d8e7fc"/><path d="M217.6,243.639a.865.865,0,0,1-.85-.744.85.85,0,0,1,.729-.957l70.7-9.384a.82.82,0,0,1,.957.744.85.85,0,0,1-.729.957l-70.7,9.369Z" transform="translate(14.921 117.172)" fill="#eef4fd"/><path d="M218.564,251.043a.85.85,0,0,1-.106-1.686L289.142,240a.82.82,0,0,1,.957.729.835.835,0,0,1-.729.957l-70.684,9.384Z" transform="translate(15.448 121.031)" fill="#eef4fd"/><path d="M219.573,256.882a.866.866,0,0,1-.85-.744.85.85,0,0,1,.729-.957l34.924-4.677a.82.82,0,0,1,.957.729.85.85,0,0,1-.729.957l-34.924,4.677Z" transform="translate(15.946 126.471)" fill="#eef4fd"/><path d="M190.1,355.285l-11.085-.835-1.625,18.221,31.553,2.49.182-2.445a5.664,5.664,0,0,0-3.994-5.36L189.8,362.467Z" transform="translate(-5.46 180.309)" fill="#ccd9f8"/><path d="M97.875,354.4,96.781,343.35,78.56,344.868,81.6,376.361l2.445-.243a5.618,5.618,0,0,0,4.555-4.859l2.156-15.944Z" transform="translate(-56.646 174.554)" fill="#ccd9f8"/><path d="M138.427,299.714,158.5,364.445,88.47,368.621l2.08,16.7,85.4-2.87c7.592-.243,13.332-6.074,11.783-14.866L182.948,319.5l45.144-.7-7.8,71.367,19.451.683,19.072-80.22a15.9,15.9,0,0,0-15.078-19.573L197.8,289.92Z" transform="translate(-51.508 146.853)" fill="#3f71e2"/><path d="M140.35,259.119l17.265,3.659,7.319-36.625-17.1-3.584Z" transform="translate(-24.611 112.001)" fill="#ebb28b"/><path d="M154.115,252.166h0a17.857,17.857,0,0,0,21.152-13.833l4.555-21.744L144.9,209.27l-4.555,21.744a17.857,17.857,0,0,0,13.772,21.152Z" transform="translate(-24.851 105.111)" fill="#f0bc99"/><path d="M169.786,225.081l-3.341,15.989a11.51,11.51,0,0,1-13.347,9.278l-3.158-.668c-10.538-2.2-17.189-13.044-14.85-24.2l3.037-14.456L171,217.914Z" transform="translate(-27.58 106.018)" fill="#21283a"/><path d="M157,223.788a72.5,72.5,0,0,0,13.378,2.247c6.757.091,10.933-7.592,6.727-12.922a8.31,8.31,0,0,0-.607-.7c-5.132-5.6-14.122-2.809-14.076-2.247S157,223.788,157,223.788Z" transform="translate(-16.021 104.962)" fill="#21283a"/><path d="M178.034,216.46S167.982,201.7,150.6,206.043c0,0-6.666-.349-13.666,7.972l29.245,13.924Z" transform="translate(-26.384 103.028)" fill="#21283a"/><path d="M153.1,226.363a5.223,5.223,0,1,0,2.255-3.314A5.224,5.224,0,0,0,153.1,226.363Z" transform="translate(-18.058 111.812)" fill="#f0bc99"/><path d="M159.42,211.3a16.885,16.885,0,1,1-2.4-12.713,16.9,16.9,0,0,1,2.4,12.713Z" transform="translate(-32.065 95.619)" fill="#21283a"/><path d="M183.138,314.677c-6.438-10.477-3.371-34.681-.729-49.2a17.69,17.69,0,0,0-8.093-18.221h0l-20-5.922c-4.95-1.716-11.434,4.039-14.972,7.926-31.538,34.651-19.391,78.792-19.391,78.792a97.423,97.423,0,0,0,31.2,1.61h.668A54.664,54.664,0,0,0,183.138,314.677Z" transform="translate(-36.377 121.551)" fill="#ccd9f8"/><path d="M210.96,258.053a10.811,10.811,0,1,0,2.43-15.093A10.811,10.811,0,0,0,210.96,258.053Z" transform="translate(10.869 121.504)" fill="#f0bc99"/><path d="M211.544,263.308l9.111-6.59a5.345,5.345,0,0,0,1.184-7.456h0a5.36,5.36,0,0,0-7.456-1.2l-9.111,6.59a5.36,5.36,0,0,0-1.2,7.456h0a5.36,5.36,0,0,0,7.471,1.2Z" transform="translate(7.843 124.69)" fill="#f0bc99"/><path d="M248.545,264.506l-10.629-17.052-47,29.367L161.447,246.8a10.052,10.052,0,0,0-13.924,2.824h0a10.067,10.067,0,0,0,2.809,13.939l34.924,33.588a10.1,10.1,0,0,0,10.887.152Z" transform="translate(-21.803 123.684)" fill="#ccd9f8"/><path d="M150.69,313l18.935-10.629-1.017,4.92,27.226,5.011Z" transform="translate(-19.291 153.345)" fill="#3f71e2" opacity="0.44"/><path d="M429.5,134.125l-1.518-4.555-1.518,4.555a15.625,15.625,0,0,1-8.7,8.853h0a15.655,15.655,0,0,1,8.7,8.868l1.518,4.479,1.518-4.479a15.655,15.655,0,0,1,8.7-8.868h0A15.625,15.625,0,0,1,429.5,134.125Z" transform="translate(119.051 63.827)" fill="#fff"/><path d="M118.775,219.367l-1.033-3.037-1.033,3.037a10.4,10.4,0,0,1-5.74,5.846h0a10.4,10.4,0,0,1,5.74,5.846l1.033,2.961,1.033-2.961a10.356,10.356,0,0,1,5.74-5.846h0a10.356,10.356,0,0,1-5.74-5.846Z" transform="translate(-39.843 108.772)" fill="#fff"/><path d="M217.56,398.166l3.826,7.38,43.9,1.124,8.944-24.477-3.7-7.122Z" transform="translate(15.345 190.999)" fill="#b2bad9"/><path d="M226.111,407.442l38.341,1.518c3.356.121,6.165-1.351,6.393-3.371l2.536-22.777c.243-2.156-2.566-4.085-6.165-4.221l-38.341-1.518c-3.356-.137-6.165,1.351-6.393,3.371l-2.536,22.777C219.673,405.377,222.482,407.336,226.111,407.442Z" transform="translate(16.572 192.033)" fill="#99c1f9"/><path d="M223.654,402.737,262,404.255c3.356.137,6.165-1.351,6.393-3.371l2.536-22.777c.243-2.171-2.566-4.1-6.165-4.237L226.4,372.352c-3.341-.121-6.074,1.367-6.378,3.371L217.474,398.5C217.247,400.671,220.056,402.6,223.654,402.737Z" transform="translate(15.295 189.587)" fill="#d8e7fc"/></svg>