<svg xmlns="http://www.w3.org/2000/svg" xmlns:xlink="http://www.w3.org/1999/xlink" width="150" height="150" viewBox="0 0 150 150"><defs><clipPath id="a"><rect width="150" height="150" transform="translate(1299.5 1331)" fill="#fff" stroke="#707070" stroke-width="1"/></clipPath></defs><g transform="translate(-1299.5 -1331)" clip-path="url(#a)"><g transform="translate(1299.5 1384.571)"><path d="M139.823,17.734c-.135.027-.27.325-.27.487-.027,1.083-.054,3.952-.054,5.9a.2.2,0,0,0,.162.162c.406.027,1.38.054,2.219.054a5.794,5.794,0,0,0,2.22-.324,2.875,2.875,0,0,0,1.434-2.707c0-2.625-1.84-3.627-4.574-3.627a4.342,4.342,0,0,0-1.137.054Zm6.984,12.1c0-2.68-1.976-4.168-5.549-4.168-.162,0-1.3-.027-1.57.027-.081.027-.189.082-.189.163,0,1.921-.027,4.98.054,6.171a2.042,2.042,0,0,0,.893,1.462,6.2,6.2,0,0,0,2.355.325,3.7,3.7,0,0,0,4.006-3.979ZM134.3,16.246c.27,0,1.082.081,3.167.081,1.976,0,3.546-.054,5.467-.054,2.355,0,5.6.839,5.6,4.358a4.244,4.244,0,0,1-2.815,3.79c-.081.027-.081.081,0,.108C148,25.1,150,26.5,150,29.156c0,2.6-1.624,4.25-3.979,5.278a12.947,12.947,0,0,1-5.034.839c-1.381,0-5.089-.162-7.146-.108-.216-.082.189-1.056.379-1.218a5.052,5.052,0,0,0,1.381-.217c.731-.189.812-.406.92-1.516.054-.947.054-4.3.054-6.686,0-3.275.027-5.494,0-6.577-.027-.839-.325-1.11-.92-1.272-.46-.081-1.218-.189-1.841-.27-.135-.136.325-1.056.487-1.164ZM118.683,33.081a5.457,5.457,0,0,0,3.059.73,6,6,0,0,0,4.331-1.543c1.435-1.3,2.436-3.3,2.436-6.5a7.754,7.754,0,0,0-3.546-7.01,9.575,9.575,0,0,0-5.089-1.191,4.056,4.056,0,0,0-1.516.189.8.8,0,0,0-.271.433c-.054.541-.054,4.71-.054,7.146,0,2.517,0,6.036.054,6.442a1.678,1.678,0,0,0,.6,1.3Zm-6.144-16.836c.514,0,2.49.081,3.438.081,1.706,0,2.923-.081,6.144-.081a10.013,10.013,0,0,1,6.6,2.111,8.776,8.776,0,0,1,3,6.929,9.07,9.07,0,0,1-3.736,7.8,12.517,12.517,0,0,1-7.768,2.192c-1.84,0-5.007-.054-7.633-.081h-.027c-.135-.243.216-1.191.433-1.218a4.315,4.315,0,0,0,1.245-.243c.568-.217.677-.514.758-1.516.081-1.868.054-4.114.054-6.659,0-1.813.027-5.359-.027-6.5-.081-.947-.487-1.191-1.3-1.353-.406-.081-.947-.189-1.7-.27-.109-.19.379-1.029.514-1.191Z" fill="#8e714e" fill-rule="evenodd"/><path d="M79.789,34.136a5.444,5.444,0,0,1-1.759-.46.825.825,0,0,1-.217-.433c-.054-.947-.054-3.654-.054-5.467a6.38,6.38,0,0,0-.866-3.627,3.7,3.7,0,0,0-3.14-1.624,7.24,7.24,0,0,0-4.114,1.949c-.027.027-.243.217-.216-.081,0-.3.054-.893.081-1.3a.7.7,0,0,0-.189-.568,18.065,18.065,0,0,1-4.2,1.082c-.649.136-.812.758-.135.975h.027a6.006,6.006,0,0,1,1.6.7.842.842,0,0,1,.244.758c.027,2.03.027,5.143-.054,6.848-.027.677-.216.92-.7,1.028l.054-.027a10.687,10.687,0,0,1-1.137.216,1.582,1.582,0,0,0,0,1.218c.3,0,1.867-.081,3.167-.081,1.786,0,2.707.081,3.167.081a1.762,1.762,0,0,0,.136-1.218,5.011,5.011,0,0,1-1.245-.189c-.487-.109-.623-.352-.65-.92-.054-1.435-.054-4.466-.054-6.523a1.305,1.305,0,0,1,.324-1,4.1,4.1,0,0,1,2.517-.92,2.8,2.8,0,0,1,1.867.623,2.662,2.662,0,0,1,.866,1.7c.135,1.164.081,3.465.081,5.468,0,1.083-.081,1.353-.487,1.489a5.151,5.151,0,0,1-1.245.243,1.585,1.585,0,0,0,0,1.218c.785,0,1.705-.081,3.059-.081,1.678,0,2.761.081,3.194.081a1.888,1.888,0,0,0,.081-1.164Zm7.5-10.339c-1.434,0-2.328,1.11-2.328,2.842,0,1.76.785,3.79,3,3.79a2.1,2.1,0,0,0,1.407-.541,3.584,3.584,0,0,0,.866-2.49c0-2.246-1.11-3.6-2.95-3.6ZM87.1,35.76a2.327,2.327,0,0,0-1.164.3c-1.137.73-1.651,1.434-1.651,2.274a2.394,2.394,0,0,0,.947,1.948,4.809,4.809,0,0,0,3.248,1c2.761,0,3.979-1.489,3.979-2.95a2.069,2.069,0,0,0-1.57-2.084,10.932,10.932,0,0,0-3.79-.487Zm.189,7.038a5.989,5.989,0,0,1-3.87-1.137,3.567,3.567,0,0,1-1.435-2.68,2.074,2.074,0,0,1,.541-1.353,14.354,14.354,0,0,1,2.49-2c.054-.027.081-.054.081-.109a.179.179,0,0,0-.108-.135,2.576,2.576,0,0,1-1.76-1.705v-.054c-.027-.162-.081-.325.163-.487.189-.135.46-.3.758-.487a11.119,11.119,0,0,0,1.245-.812.2.2,0,0,0,.054-.162.179.179,0,0,0-.109-.135A3.947,3.947,0,0,1,82.5,27.4a4.11,4.11,0,0,1,1.732-3.41,7.958,7.958,0,0,1,3.9-1.326h.081a8.3,8.3,0,0,1,2.977.65,5.01,5.01,0,0,0,1.76.27,2.343,2.343,0,0,0,1.894-.7,1.47,1.47,0,0,1,.109.541,2.044,2.044,0,0,1-.352,1.245,1.537,1.537,0,0,1-1.191.514h-.136a6.031,6.031,0,0,1-.7-.109l-.108.054c-.027.054,0,.108.027.189l.027.054a9.99,9.99,0,0,1,.162,1.164,4.385,4.385,0,0,1-1.84,3.924,6.233,6.233,0,0,1-3.167,1.218,3.409,3.409,0,0,0-.379.027c-.135,0-.325.027-.352.027h-.027c-.216.054-.758.325-.758.785,0,.406.243.893,1.407.975.243.027.487.027.758.054a23.73,23.73,0,0,1,4.358.541,3.033,3.033,0,0,1,2.03,2.9c0,2-1.434,3.871-3.816,5.034a8.707,8.707,0,0,1-3.6.785Zm15.428-18.865a2.514,2.514,0,0,0-1.462.406c-1.055.65-1.6,1.949-1.6,3.843,0,3.546,1.786,6.036,4.331,6.036a2.754,2.754,0,0,0,1.867-.65c.785-.65,1.191-1.949,1.191-3.763,0-3.518-1.76-5.873-4.331-5.873Zm.487,11.584c-4.6,0-6.252-3.383-6.252-6.55a5.86,5.86,0,0,1,2.679-5.143,8.147,8.147,0,0,1,4.141-1.218,5.8,5.8,0,0,1,5.982,6.144,6.285,6.285,0,0,1-2.842,5.6,7.506,7.506,0,0,1-3.708,1.164h0ZM54.969,23.932a2.515,2.515,0,0,0-1.462.406c-1.055.65-1.6,1.949-1.6,3.843,0,3.546,1.786,6.036,4.331,6.036a2.755,2.755,0,0,0,1.868-.65c.785-.65,1.191-1.949,1.191-3.763,0-3.518-1.732-5.873-4.331-5.873Zm.487,11.585c-4.6,0-6.252-3.383-6.252-6.55a5.86,5.86,0,0,1,2.679-5.143,8.147,8.147,0,0,1,4.141-1.218,5.8,5.8,0,0,1,5.982,6.144,6.285,6.285,0,0,1-2.842,5.6,7.332,7.332,0,0,1-3.708,1.164Zm-30.937-.271a1.157,1.157,0,0,1-.081-.622.914.914,0,0,1,.081-.406,9.983,9.983,0,0,0,1.191-.244c.541-.136.758-.433.785-1.11.082-1.624.082-4.71.054-6.848v-.054a.82.82,0,0,0-.3-.758,6.115,6.115,0,0,0-1.624-.7c-.243-.081-.406-.216-.379-.378,0-.162.162-.352.514-.406A19.8,19.8,0,0,0,28.9,22.66a.67.67,0,0,1,.136.433l-.027.3c-.027.3-.054.65-.054,1a.209.209,0,0,0,.216.189.381.381,0,0,0,.162-.054,7.634,7.634,0,0,1,4.114-1.84,3.5,3.5,0,0,1,3.14,1.922.2.2,0,0,0,.189.109.193.193,0,0,0,.162-.081,8.227,8.227,0,0,1,4.249-1.949c2.517,0,4.006,1.868,4.006,5.035,0,.893,0,2.057-.027,3.113,0,.947-.027,1.813-.027,2.436a.852.852,0,0,0,.487.649,5.78,5.78,0,0,0,1.57.379h.027a2.171,2.171,0,0,1-.162,1.029,6.651,6.651,0,0,1-.677-.027q-1.028-.054-2.057-.054c-1.678,0-2.544.027-3.384.081a2.641,2.641,0,0,1,0-1.029,8.4,8.4,0,0,0,1.029-.243c.541-.162.677-.406.7-1.11,0-.514.108-4.9-.055-5.955a2.669,2.669,0,0,0-2.761-2.355A4.8,4.8,0,0,0,37.1,25.692a.483.483,0,0,0-.109.271v.027a12.465,12.465,0,0,1,.109,2.219v1.759c0,1.218-.027,2.355,0,3.221a.793.793,0,0,0,.65.839c.162.027.27.054.406.081.243.054.487.109.866.189a1.461,1.461,0,0,1-.027.758.519.519,0,0,1-.109.271c-.92-.027-1.867-.054-3.248-.054-.406,0-1.11.027-1.705.027-.487,0-.947.027-1.218.027a1.428,1.428,0,0,1-.082-.541.843.843,0,0,1,.109-.487,1.83,1.83,0,0,1,.379-.054c.324-.054.6-.109.866-.162.46-.135.623-.379.65-.974a46.973,46.973,0,0,0-.027-6.2,2.55,2.55,0,0,0-2.653-2.355A4.966,4.966,0,0,0,29.2,25.611a.874.874,0,0,0-.244.622v1.6c0,1.949,0,4.385.027,5.441a.839.839,0,0,0,.758.839,5.668,5.668,0,0,0,.623.109l.487.081a2.27,2.27,0,0,1-.081,1.029c-.271,0-.6-.027-.975-.027-.568-.027-1.3-.054-2.111-.054-.947,0-1.624.027-2.165.054a6.539,6.539,0,0,0-1-.054Z" fill="#442d22" fill-rule="evenodd"/><path d="M10.281,41.742l-1.11-.379s.136-5.657-1.895-6.063c-1.353-1.57.217-66.584,5.089-.217a3.957,3.957,0,0,0-1.976,2.274,20.876,20.876,0,0,0-.109,4.385Z" fill="#fff" fill-rule="evenodd"/><path d="M10.281,41.742l-1.11-.379s.136-5.657-1.895-6.063c-1.353-1.57.217-66.584,5.089-.217a3.957,3.957,0,0,0-1.976,2.274,20.876,20.876,0,0,0-.109,4.385Z" fill="#a6a385" fill-rule="evenodd"/><path d="M10.877,36.275S20.594,29.887,18.32,16.6C16.128,6.935,10.958,3.768,10.39,2.55A13.664,13.664,0,0,1,9.172.168l.406,26.877c0,.027-.839,8.228,1.3,9.23" fill="#fff" fill-rule="evenodd"/><path d="M10.877,36.275S20.594,29.887,18.32,16.6C16.128,6.935,10.958,3.768,10.39,2.55A13.664,13.664,0,0,1,9.172.168l.406,26.877c0,.027-.839,8.228,1.3,9.23" fill="#499d4a" fill-rule="evenodd"/><path d="M8.6,36.627S-.518,30.4.023,19.439C.537,8.477,6.979,3.091,8.224,2.117A2.52,2.52,0,0,0,9.118.06c.568,1.218.46,18.216.541,20.219C9.9,27.992,9.226,35.165,8.6,36.627Z" fill="#fff" fill-rule="evenodd"/><path d="M8.6,36.627S-.518,30.4.023,19.439C.537,8.477,6.979,3.091,8.224,2.117A2.52,2.52,0,0,0,9.118.06c.568,1.218.46,18.216.541,20.219C9.9,27.992,9.226,35.165,8.6,36.627Z" fill="#58aa50" fill-rule="evenodd"/></g></g></svg>