<svg xmlns="http://www.w3.org/2000/svg" xmlns:xlink="http://www.w3.org/1999/xlink" width="150" height="150" viewBox="0 0 150 150"><defs><clipPath id="a"><rect width="150" height="150" transform="translate(1133.5 1331)" fill="#fff" stroke="#707070" stroke-width="1"/></clipPath></defs><g transform="translate(-1133.5 -1331)" clip-path="url(#a)"><g transform="translate(1147.984 1348.853)"><path d="M-14.484,5.163h150V109.131h-150Z" fill="none"/><path d="M31.431,89.131H27.37q-.215-10.282-1.186-19.337h-.036L19.966,89.131H16.874L10.728,69.794h-.035q-.684,8.7-.862,19.337h-3.7q.358-12.94,1.8-24.263h5.033L18.816,82.7h.036l5.894-17.828h4.816q1.582,13.263,1.869,24.263m17.611-17.9Q46.563,84.689,42.5,90.791q-3.164,4.7-6.937,4.7a6.819,6.819,0,0,1-2.48-.6V92.724a11.943,11.943,0,0,0,1.689.108,4.082,4.082,0,0,0,2.841-.971A3.544,3.544,0,0,0,38.906,89.2,17.69,17.69,0,0,0,37.9,85.068L33.443,71.229h3.99l3.2,10.35a13.967,13.967,0,0,1,.9,4.926A67.61,67.61,0,0,0,45.2,71.228h3.846v0Z" fill="#5d87a1"/><path d="M103.1,89.131H91.563V64.868h3.88V86.144H103.1Zm-14.555.586-4.46-2.2A8.289,8.289,0,0,0,85.2,86.432q2.844-3.341,2.841-9.883,0-12.04-9.452-12.042a8.952,8.952,0,0,0-7.225,3.056q-2.841,3.343-2.84,9.849,0,6.4,2.515,9.378,2.3,2.7,6.939,2.7a11.18,11.18,0,0,0,3.177-.426l5.807,3.381ZM74.094,84.276q-1.474-2.371-1.474-7.617,0-9.164,5.572-9.167a4.674,4.674,0,0,1,4.276,2.191q1.471,2.374,1.474,7.548,0,9.239-5.571,9.239a4.665,4.665,0,0,1-4.278-2.194m-7.263-1.87a6.437,6.437,0,0,1-2.263,5.068A8.914,8.914,0,0,1,58.5,89.45a12.158,12.158,0,0,1-6.9-2.266L52.638,85.1a11.805,11.805,0,0,0,5.209,1.437,5.471,5.471,0,0,0,3.433-.967A3.3,3.3,0,0,0,62.6,82.877c0-1.442-1.005-2.674-2.849-3.705-1.7-.934-5.1-2.886-5.1-2.886a5.808,5.808,0,0,1-2.766-5.162,6.028,6.028,0,0,1,2.065-4.762,7.785,7.785,0,0,1,5.338-1.817,11.068,11.068,0,0,1,6.144,1.8L64.5,68.427a11.879,11.879,0,0,0-4.67-1.005,4.16,4.16,0,0,0-2.872.9,3.006,3.006,0,0,0-1.088,2.3c0,1.434,1.026,2.682,2.921,3.734C60.511,75.292,64,77.278,64,77.278a5.734,5.734,0,0,1,2.834,5.127" fill="#f8981d"/><path d="M107.97,56.742a13.547,13.547,0,0,0-5.688.822c-.44.176-1.14.176-1.2.732.238.235.265.615.472.94a6.812,6.812,0,0,0,1.524,1.786c.614.471,1.231.937,1.878,1.347,1.14.705,2.433,1.116,3.544,1.819.647.409,1.291.938,1.939,1.378.319.235.523.615.936.762v-.089c-.207-.264-.266-.645-.469-.939l-.88-.849a13.952,13.952,0,0,0-3.048-2.959c-.939-.647-2.991-1.525-3.372-2.607l-.06-.06a11.679,11.679,0,0,0,2.023-.474c1-.263,1.907-.2,2.93-.466.471-.118.938-.265,1.41-.41V57.21c-.53-.528-.909-1.23-1.467-1.729a39.032,39.032,0,0,0-4.837-3.606c-.91-.588-2.081-.966-3.05-1.466-.349-.177-.938-.264-1.143-.557a11.943,11.943,0,0,1-1.2-2.258c-.848-1.611-1.671-3.4-2.4-5.1a31.706,31.706,0,0,0-1.5-3.341A29.567,29.567,0,0,0,82.965,28.189a14.059,14.059,0,0,0-3.75-1.2l-2.2-.116a11.655,11.655,0,0,1-1.349-1.027c-1.673-1.055-5.98-3.341-7.211-.323-.793,1.908,1.172,3.783,1.847,4.751a13.475,13.475,0,0,1,1.493,2.2c.206.5.264,1.027.471,1.554a35.114,35.114,0,0,0,1.525,3.929,13.989,13.989,0,0,0,1.084,1.814c.235.325.645.468.734,1a8.412,8.412,0,0,0-.676,2.2,12.918,12.918,0,0,0,.852,9.85c.468.733,1.584,2.346,3.076,1.728,1.321-.527,1.029-2.2,1.409-3.663.087-.354.03-.586.206-.818v.057c.409.82.822,1.61,1.2,2.433a16.715,16.715,0,0,0,3.812,3.925c.7.53,1.259,1.438,2.138,1.762v-.088h-.058a3.284,3.284,0,0,0-.673-.585A14.234,14.234,0,0,1,85.371,55.8a37.759,37.759,0,0,1-3.282-5.337c-.472-.91-.88-1.905-1.26-2.814-.177-.351-.177-.88-.472-1.056a10.965,10.965,0,0,0-1.405,1.992,16.582,16.582,0,0,0-.823,4.431l-.115.056c-.934-.235-1.259-1.2-1.613-2.021a12.7,12.7,0,0,1-.264-7.828c.2-.614,1.087-2.55.734-3.135-.177-.561-.764-.88-1.085-1.322a11.917,11.917,0,0,1-1.056-1.875c-.7-1.641-1.057-3.459-1.814-5.1a15.791,15.791,0,0,0-1.466-2.259,14.524,14.524,0,0,1-1.615-2.286c-.146-.323-.351-.85-.116-1.2a.467.467,0,0,1,.41-.382c.38-.321,1.465.087,1.846.264a14.853,14.853,0,0,1,2.9,1.465c.41.294.851.851,1.377,1h.617c.936.2,1.992.056,2.873.322a18.872,18.872,0,0,1,4.222,2.021,26.011,26.011,0,0,1,9.144,10.027c.351.673.5,1.29.82,1.992.618,1.438,1.381,2.9,1.994,4.31A19.316,19.316,0,0,0,98.006,51c.439.615,2.2.938,2.991,1.26a20.68,20.68,0,0,1,2.022.819c1,.614,1.991,1.32,2.929,2,.467.352,1.934,1.084,2.021,1.671m-29.9-25.475a4.567,4.567,0,0,0-1.2.148v.059h.057a9.565,9.565,0,0,0,.939,1.2c.236.47.441.936.673,1.405l.056-.058a1.647,1.647,0,0,0,.619-1.466,6.7,6.7,0,0,1-.354-.615c-.173-.293-.553-.439-.79-.675" fill="#5d87a1"/><path d="M110.762,89.127h.607V86.154h-.911l-.743,2.029-.807-2.029h-.877v2.973h.574V86.865h.032l.846,2.262h.437l.843-2.262v2.262Zm-4.893,0h.643V86.658h.841v-.5h-2.36v.5h.875l0,2.469Z" fill="#f8981d"/></g></g></svg>