<svg xmlns="http://www.w3.org/2000/svg" xmlns:xlink="http://www.w3.org/1999/xlink" width="150" height="150" viewBox="0 0 150 150">
  <defs>
    <clipPath id="clip-path">
      <rect id="container" width="150" height="150" stroke-width="1" fill="#fff" stroke="#707070" transform="translate(-8292.5 -2353)"/>
    </clipPath>
    <linearGradient id="linear-gradient" x1="0.682" y1="0.175" x2="0.278" y2="0.898" gradientUnits="objectBoundingBox">
      <stop offset="0" stop-color="#41873f"/>
      <stop offset="0.329" stop-color="#418b3d"/>
      <stop offset="0.635" stop-color="#419637"/>
      <stop offset="0.932" stop-color="#3fa92d"/>
      <stop offset="1" stop-color="#3fae2a"/>
    </linearGradient>
    <linearGradient id="linear-gradient-2" x1="0.433" y1="0.552" x2="1.592" y2="-0.183" gradientUnits="objectBoundingBox">
      <stop offset="0.138" stop-color="#41873f"/>
      <stop offset="0.403" stop-color="#54a044"/>
      <stop offset="0.714" stop-color="#66b848"/>
      <stop offset="0.908" stop-color="#6cc04a"/>
    </linearGradient>
    <linearGradient id="linear-gradient-3" x1="-44.138" y1="0.134" x2="53.279" y2="0.134" gradientUnits="objectBoundingBox">
      <stop offset="0.092" stop-color="#6cc04a"/>
      <stop offset="0.286" stop-color="#66b848"/>
      <stop offset="0.597" stop-color="#54a044"/>
      <stop offset="0.862" stop-color="#41873f"/>
    </linearGradient>
    <linearGradient id="linear-gradient-4" x1="-0.044" y1="0.5" x2="1.015" y2="0.5" xlink:href="#linear-gradient-3"/>
    <linearGradient id="linear-gradient-5" x1="-97.138" y1="0.362" x2="0.279" y2="0.362" xlink:href="#linear-gradient-3"/>
    <linearGradient id="linear-gradient-6" x1="-1.039" y1="0.503" x2="1.008" y2="0.503" xlink:href="#linear-gradient-3"/>
    <linearGradient id="linear-gradient-7" x1="1.306" y1="-2.111" x2="0.044" y2="2.016" xlink:href="#linear-gradient"/>
  </defs>
  <g id="node" transform="translate(8292.5 2353)" clip-path="url(#clip-path)">
    <g id="node-2" data-name="node" transform="translate(-8292.567 -2323.926)">
      <path id="Trazado_4771" data-name="Trazado 4771" d="M74.254,91.851a2.974,2.974,0,0,1-1.424-.373L68.32,88.8c-.678-.373-.339-.509-.136-.576a8.226,8.226,0,0,0,2.034-.915.312.312,0,0,1,.339.034l3.458,2.068a.431.431,0,0,0,.407,0l13.529-7.832a.39.39,0,0,0,.2-.373V65.574a.39.39,0,0,0-.2-.373L74.423,57.4a.429.429,0,0,0-.407,0L60.488,65.2a.426.426,0,0,0-.2.373V81.2a.426.426,0,0,0,.2.373l3.7,2.136c2,1.017,3.255-.17,3.255-1.356V66.93a.412.412,0,0,1,.407-.407h1.729a.412.412,0,0,1,.407.407V82.357c0,2.678-1.458,4.238-4,4.238a5.816,5.816,0,0,1-3.119-.848L59.3,83.714a2.861,2.861,0,0,1-1.424-2.475V65.608A2.861,2.861,0,0,1,59.3,63.133L72.83,55.3a3.027,3.027,0,0,1,2.848,0l13.528,7.832a2.862,2.862,0,0,1,1.424,2.475V81.239a2.862,2.862,0,0,1-1.424,2.475L75.678,91.546a3.468,3.468,0,0,1-1.424.305ZM78.424,81.1c-5.933,0-7.154-2.712-7.154-5.018a.412.412,0,0,1,.407-.407H73.44a.348.348,0,0,1,.373.339c.271,1.8,1.051,2.678,4.645,2.678,2.848,0,4.069-.644,4.069-2.17,0-.882-.339-1.525-4.781-1.966-3.7-.373-6-1.187-6-4.136,0-2.746,2.306-4.374,6.171-4.374,4.34,0,6.476,1.492,6.747,4.747a.547.547,0,0,1-.1.305.419.419,0,0,1-.271.136H82.527a.4.4,0,0,1-.373-.305c-.407-1.865-1.458-2.475-4.238-2.475-3.119,0-3.493,1.085-3.493,1.9,0,.983.441,1.288,4.645,1.831,4.17.543,6.137,1.322,6.137,4.238C85.172,79.408,82.731,81.1,78.424,81.1Z" fill="#539e43"/>
      <path id="Trazado_4772" data-name="Trazado 4772" d="M32.278,30.719a1.726,1.726,0,0,0-.882-1.492L17.021,20.954a2.088,2.088,0,0,0-.78-.238h-.136a1.611,1.611,0,0,0-.78.238L.949,29.227a1.725,1.725,0,0,0-.882,1.492L.1,52.961a.843.843,0,0,0,.441.746.77.77,0,0,0,.848,0l8.544-4.882a1.725,1.725,0,0,0,.882-1.492V36.924a1.725,1.725,0,0,1,.882-1.492l3.628-2.1a1.643,1.643,0,0,1,.882-.238,1.458,1.458,0,0,1,.848.238l3.628,2.1a1.724,1.724,0,0,1,.882,1.492V47.333a1.725,1.725,0,0,0,.882,1.492l8.544,4.882a.827.827,0,0,0,.882,0,.843.843,0,0,0,.441-.746l-.034-22.242ZM101.379.1a.932.932,0,0,0-.848,0,.884.884,0,0,0-.441.746V22.887a.61.61,0,0,1-.915.542l-3.594-2.068a1.748,1.748,0,0,0-1.729,0L79.475,29.668a1.725,1.725,0,0,0-.882,1.492v16.58a1.726,1.726,0,0,0,.882,1.492l14.376,8.307a1.748,1.748,0,0,0,1.729,0l14.376-8.307a1.725,1.725,0,0,0,.882-1.492V6.408a1.739,1.739,0,0,0-.882-1.526L101.379.1Zm-1.322,42.179a.389.389,0,0,1-.2.373L94.937,45.5a.5.5,0,0,1-.441,0L89.58,42.654a.425.425,0,0,1-.2-.373v-5.7a.389.389,0,0,1,.2-.373L94.5,33.363a.5.5,0,0,1,.441,0l4.916,2.848a.425.425,0,0,1,.2.373v5.7Zm49.163-5.832a1.693,1.693,0,0,0,.848-1.492V30.922a1.766,1.766,0,0,0-.848-1.492l-14.274-8.273a1.748,1.748,0,0,0-1.729,0L118.84,29.464a1.725,1.725,0,0,0-.882,1.492v16.58a1.725,1.725,0,0,0,.882,1.492l14.274,8.137a1.684,1.684,0,0,0,1.7,0l8.646-4.814a.852.852,0,0,0,0-1.492l-14.444-8.307a.883.883,0,0,1-.441-.746V36.619a.843.843,0,0,1,.441-.746l4.51-2.577a.828.828,0,0,1,.882,0l4.509,2.577a.883.883,0,0,1,.441.746v4.069a.842.842,0,0,0,.441.746.827.827,0,0,0,.882,0Z" fill="#333"/>
      <path id="Trazado_4773" data-name="Trazado 4773" d="M133.861,35.669a.308.308,0,0,1,.339,0l2.746,1.594a.355.355,0,0,1,.17.305v3.187a.356.356,0,0,1-.17.305L134.2,42.654a.308.308,0,0,1-.339,0l-2.746-1.594a.356.356,0,0,1-.17-.305V37.568a.355.355,0,0,1,.17-.305Z" fill="#539e43"/>
      <g id="Grupo_1441" data-name="Grupo 1441" transform="translate(39.331 20.683)">
        <path id="Trazado_4774" data-name="Trazado 4774" d="M16.987.543a1.748,1.748,0,0,0-1.729,0L.983,8.781a1.693,1.693,0,0,0-.848,1.492V26.785a1.766,1.766,0,0,0,.848,1.492l14.274,8.239a1.748,1.748,0,0,0,1.729,0l14.275-8.239a1.694,1.694,0,0,0,.848-1.492V10.273a1.767,1.767,0,0,0-.848-1.492Z" fill="url(#linear-gradient)"/>
        <g id="Grupo_1439" data-name="Grupo 1439">
          <path id="Trazado_4775" data-name="Trazado 4775" d="M15.224.543.916,8.781A1.759,1.759,0,0,0,0,10.274V26.786a1.633,1.633,0,0,0,.441,1.085L16.512.339a1.937,1.937,0,0,0-1.288.2Zm1.39,36.144a2.085,2.085,0,0,0,.407-.17l14.308-8.239a1.725,1.725,0,0,0,.882-1.492V10.273A1.727,1.727,0,0,0,31.7,9.087l-15.088,27.6Z" fill="none"/>
          <path id="Trazado_4776" data-name="Trazado 4776" d="M31.3,8.782,16.953.543a2.354,2.354,0,0,0-.441-.17L.441,27.9a1.784,1.784,0,0,0,.475.407l14.342,8.239a1.652,1.652,0,0,0,1.322.169l15.088-27.6a1.779,1.779,0,0,0-.373-.339Z" fill="url(#linear-gradient-2)"/>
        </g>
        <g id="Grupo_1440" data-name="Grupo 1440">
          <path id="Trazado_4777" data-name="Trazado 4777" d="M32.211,26.786V10.273A1.758,1.758,0,0,0,31.3,8.782L16.952.543a1.5,1.5,0,0,0-.542-.2l15.7,26.819a.684.684,0,0,0,.1-.373Zm-31.3-18A1.759,1.759,0,0,0,0,10.274V26.786a1.833,1.833,0,0,0,.915,1.492l14.342,8.239a1.6,1.6,0,0,0,1.119.2L1.017,8.748l-.1.034Z" fill="none"/>
          <path id="Trazado_4778" data-name="Trazado 4778" d="M14.783.237l-.2.1h.271Z" transform="translate(0 -2.712)" fill-rule="evenodd" fill="url(#linear-gradient-3)"/>
          <path id="Trazado_4779" data-name="Trazado 4779" d="M31.329,30.99a1.929,1.929,0,0,0,.848-1.085L16.444,3.052a1.722,1.722,0,0,0-1.22.2L.983,11.46,16.342,39.467a2.364,2.364,0,0,0,.644-.2L31.329,30.99Z" transform="translate(0 -2.712)" fill-rule="evenodd" fill="url(#linear-gradient-4)"/>
          <path id="Trazado_4780" data-name="Trazado 4780" d="M32.652,30.719l-.1-.17v.237l.1-.068Z" transform="translate(0 -2.712)" fill-rule="evenodd" fill="url(#linear-gradient-5)"/>
          <path id="Trazado_4781" data-name="Trazado 4781" d="M31.329,30.99,17.021,39.229a2.046,2.046,0,0,1-.644.2l.271.509,15.868-9.188v-.2l-.407-.678a1.575,1.575,0,0,1-.78,1.119Z" transform="translate(0 -2.712)" fill-rule="evenodd" fill="url(#linear-gradient-6)"/>
          <path id="Trazado_4782" data-name="Trazado 4782" d="M31.329,30.99,17.021,39.229a2.046,2.046,0,0,1-.644.2l.271.509,15.868-9.188v-.2l-.407-.678a1.575,1.575,0,0,1-.78,1.119Z" transform="translate(0 -2.712)" fill-rule="evenodd" fill="url(#linear-gradient-7)"/>
        </g>
      </g>
    </g>
  </g>
</svg>
