<svg xmlns="http://www.w3.org/2000/svg" xmlns:xlink="http://www.w3.org/1999/xlink" width="150" height="150" viewBox="0 0 150 150"><defs><clipPath id="a"><rect width="150" height="150" transform="translate(137.5 1501)" fill="#fff" stroke="#707070" stroke-width="1"/></clipPath></defs><g transform="translate(-137.5 -1501)" clip-path="url(#a)"><g transform="translate(137.249 1554.709)"><path d="M138.237,15.146a2.08,2.08,0,0,0-1.034.253l-9.945,5.743a2.1,2.1,0,0,0-1.035,1.816V34.424a2.1,2.1,0,0,0,1.035,1.816l2.6,1.5a4.247,4.247,0,0,0,2.3.612c1.868,0,2.935-1.134,2.935-3.1V23.93a.284.284,0,0,0-.3-.274H133.55a.282.282,0,0,0-.3.274V35.248c0,.873-.91,1.751-2.386,1.013l-2.7-1.584a.3.3,0,0,1-.169-.253V22.958a.335.335,0,0,1,.169-.274l9.924-5.722a.293.293,0,0,1,.3,0l9.924,5.722a.337.337,0,0,1,.169.275V34.424a.319.319,0,0,1-.148.274l-9.945,5.722a.306.306,0,0,1-.3,0l-2.555-1.52a.266.266,0,0,0-.253,0,6.579,6.579,0,0,1-1.5.676c-.163.057-.41.145.085.423l3.336,1.963a2.087,2.087,0,0,0,2.069,0l9.945-5.722a2.1,2.1,0,0,0,1.034-1.816V22.959a2.1,2.1,0,0,0-1.034-1.816L139.272,15.4a2.07,2.07,0,0,0-1.034-.254Z" fill="#83cd29"/><path d="M140.9,23.339c-2.832,0-4.518,1.205-4.518,3.21,0,2.174,1.674,2.771,4.392,3.04,3.252.318,3.5.8,3.5,1.436,0,1.11-.885,1.584-2.977,1.584-2.629,0-3.206-.656-3.4-1.964a.287.287,0,0,0-.275-.254h-1.288a.3.3,0,0,0-.3.3c0,1.674.91,3.653,5.258,3.653,3.147,0,4.962-1.235,4.962-3.4,0-2.145-1.466-2.721-4.519-3.125-3.084-.408-3.378-.608-3.378-1.33,0-.6.249-1.394,2.534-1.394,2.041,0,2.795.44,3.1,1.816a.289.289,0,0,0,.274.232h1.288a.312.312,0,0,0,.211-.106.277.277,0,0,0,.085-.211c-.2-2.369-1.78-3.484-4.962-3.484Z" fill="#83cd29"/><path d="M79.77.112a.632.632,0,0,0-.634.633V16.9a.427.427,0,0,1-.211.38.44.44,0,0,1-.443,0l-2.639-1.52a1.265,1.265,0,0,0-1.267,0L64.04,21.839a1.3,1.3,0,0,0-.633,1.119V35.121a1.264,1.264,0,0,0,.633,1.1L74.576,42.3a1.262,1.262,0,0,0,1.267,0l10.536-6.081a1.264,1.264,0,0,0,.634-1.1V4.8a1.287,1.287,0,0,0-.654-1.119L80.087.175A.616.616,0,0,0,79.77.112ZM11.991,15.294a1.19,1.19,0,0,0-.57.148L.885,21.523a1.262,1.262,0,0,0-.633,1.1L.273,38.943a.623.623,0,0,0,.317.549.615.615,0,0,0,.634,0L7.473,35.9a1.29,1.29,0,0,0,.654-1.1V27.182a1.26,1.26,0,0,1,.634-1.1l2.66-1.541a1.271,1.271,0,0,1,1.267,0l2.661,1.541a1.261,1.261,0,0,1,.634,1.1V34.8a1.292,1.292,0,0,0,.654,1.1l6.25,3.59a.615.615,0,0,0,.634,0,.635.635,0,0,0,.317-.549l.021-16.322a1.256,1.256,0,0,0-.633-1.1L12.688,15.442a1.183,1.183,0,0,0-.57-.148Zm94.679.148a1.264,1.264,0,0,0-.633.169L95.5,21.692a1.264,1.264,0,0,0-.634,1.1V34.952a1.272,1.272,0,0,0,.654,1.1L105.974,42a1.268,1.268,0,0,0,1.246.021l6.334-3.526a.64.64,0,0,0,.338-.549.624.624,0,0,0-.317-.549l-10.6-6.081a.682.682,0,0,1-.338-.57v-3.8a.651.651,0,0,1,.338-.549l3.294-1.9a.632.632,0,0,1,.634,0l3.294,1.9a.632.632,0,0,1,.317.549v3a.633.633,0,0,0,.95.549l6.314-3.673a1.269,1.269,0,0,0,.634-1.1V22.79a1.267,1.267,0,0,0-.634-1.1L107.3,15.611a1.256,1.256,0,0,0-.634-.169Zm-31.5,9.08a.354.354,0,0,1,.169.042l3.611,2.09a.328.328,0,0,1,.169.274v4.181a.326.326,0,0,1-.169.275l-3.611,2.09a.319.319,0,0,1-.317,0l-3.611-2.09a.327.327,0,0,1-.169-.275V26.928a.328.328,0,0,1,.169-.274l3.611-2.09a.278.278,0,0,1,.148-.042h0Z" fill="#404137"/><path d="M43.642,15.378a1.263,1.263,0,0,0-.633.169l-10.536,6.06a1.3,1.3,0,0,0-.634,1.119V34.888a1.264,1.264,0,0,0,.634,1.1l10.536,6.081a1.261,1.261,0,0,0,1.267,0l10.536-6.081a1.264,1.264,0,0,0,.633-1.1V22.726a1.3,1.3,0,0,0-.633-1.119l-10.536-6.06a1.261,1.261,0,0,0-.634-.169Zm63.007,10.853a.259.259,0,0,0-.126.021L104.5,27.435a.247.247,0,0,0-.127.211v2.322a.247.247,0,0,0,.127.211l2.027,1.161a.221.221,0,0,0,.232,0l2.027-1.162a.248.248,0,0,0,.127-.211V27.646a.248.248,0,0,0-.127-.211l-2.027-1.183a.176.176,0,0,0-.106-.021Z" fill="#83cd29"/></g></g></svg>