<svg xmlns="http://www.w3.org/2000/svg" width="116.376" height="90.427" viewBox="0 0 116.376 90.427"><g transform="translate(0 -0.001)"><path d="M453.1,5h10.276a1.113,1.113,0,0,1,1.113,1.113v33.9a1.113,1.113,0,0,1-1.113,1.113H453.1a1.113,1.113,0,0,1-1.113-1.113V6.109A1.114,1.114,0,0,1,453.1,5Zm0,0" transform="translate(-349.253 -3.86)" fill="#60bae2"/><path d="M6.12,233.9H16.4a1.113,1.113,0,0,1,1.113,1.112v33.9a1.114,1.114,0,0,1-1.113,1.113H6.12a1.113,1.113,0,0,1-1.113-1.113v-33.9A1.113,1.113,0,0,1,6.12,233.9Zm0,0" transform="translate(-3.87 -180.731)" fill="#60bae2"/><path d="M425.614,48.186h5.14V16.949h-5.137a1.113,1.113,0,0,0-1.113,1.113V47.073a1.113,1.113,0,0,0,1.11,1.113Zm0,0" transform="translate(-328.016 -13.096)" fill="#e9e9ea"/><path d="M65.14,243.453H60V274.69h5.137a1.113,1.113,0,0,0,1.113-1.113V244.566a1.113,1.113,0,0,0-1.11-1.113Zm0,0" transform="translate(-46.362 -188.116)" fill="#e9e9ea"/><path d="M85.978,147.109a3.818,3.818,0,0,0-5.4,0l0,0a.211.211,0,0,1-.3,0,3.818,3.818,0,0,0-5.4,0l0,0a3.819,3.819,0,0,0,0,5.4l0,0,4.783,4.783a1.1,1.1,0,0,0,1.536,0l4.783-4.783a4.089,4.089,0,0,0,0-5.4Zm0,0" transform="translate(-56.991 -112.806)" fill="#f75c64"/><path d="M163.669,171.753a25.366,25.366,0,0,0,6.141,1.017c4.286,0,9.338-.511,12.089,1.1l10.4-10.4A12.7,12.7,0,0,0,174.336,145.5a.7.7,0,0,1-.99,0,12.7,12.7,0,0,0-17.963,17.964Zm0,0" transform="translate(-117.19 -109.556)" fill="#f75c64"/><path d="M182.388,25.154a32.81,32.81,0,0,1-11.855-.88l-12.84-3.364A28.642,28.642,0,0,0,136.131,23.8L118.526,35a4.715,4.715,0,0,0,4.551,8.238L141.5,34.495a3.927,3.927,0,0,0-1.975,3.261c0,5.975,7.877,4.89,14.124,4.89,3.871,0,9.984,2.086,14.075,3.672a19.924,19.924,0,0,0,9.285,1.232l9.366-.983V24.719Zm0,0" transform="translate(-89.897 -15.434)" fill="#f9d0b4"/><path d="M150.822,260.477,132.4,269.219a3.927,3.927,0,0,0,1.975-3.261c0-5.975-7.877-4.89-14.124-4.89-3.871,0-9.984-2.086-14.075-3.672a19.924,19.924,0,0,0-9.285-1.232l-9.366.983v21.848l3.994-.433a32.811,32.811,0,0,1,11.855.881l12.84,3.364a28.646,28.646,0,0,0,21.562-2.892l17.606-11.2a4.715,4.715,0,0,0-4.554-8.24Zm0,0" transform="translate(-67.627 -197.853)" fill="#f9d0b4"/><path d="M385.619,208.162a5.034,5.034,0,0,1-4-4,.091.091,0,0,0-.108-.068.092.092,0,0,0-.068.068,5.034,5.034,0,0,1-4,4,.091.091,0,0,0-.068.108.093.093,0,0,0,.068.069,5.034,5.034,0,0,1,4,3.995.09.09,0,0,0,.108.068.091.091,0,0,0,.068-.068,5.034,5.034,0,0,1,4-3.995.091.091,0,0,0,0-.178Zm0,0" transform="translate(-291.604 -157.705)" fill="#fcd770"/><path d="M38.887,59.664H34.937a1.136,1.136,0,1,1,0-2.273h3.95a1.136,1.136,0,1,1,0,2.273Zm0,0" transform="translate(-26.118 -44.345)" fill="#ffae2c"/><path d="M43.621,54.922a1.136,1.136,0,0,1-1.136-1.136v-3.95a1.136,1.136,0,1,1,2.273,0v3.95A1.135,1.135,0,0,1,43.621,54.922Zm0,0" transform="translate(-32.828 -37.629)" fill="#ffae2c"/><path d="M405.356,346.488h-3.95a1.136,1.136,0,0,1,0-2.273h3.95a1.136,1.136,0,0,1,0,2.273Zm0,0" transform="translate(-309.289 -265.975)" fill="#f75c64"/><path d="M410.1,341.75a1.136,1.136,0,0,1-1.136-1.137v-3.95a1.136,1.136,0,1,1,2.273,0v3.952A1.137,1.137,0,0,1,410.1,341.75Zm0,0" transform="translate(-316.005 -259.262)" fill="#f75c64"/><path d="M78.148,105.426a1.125,1.125,0,0,1,.946.5,1.17,1.17,0,0,1,.1.2,1.017,1.017,0,0,1,.063.211,1.083,1.083,0,0,1,0,.445A1.042,1.042,0,0,1,79.2,107a1.2,1.2,0,0,1-.1.2,1.131,1.131,0,0,1-1.38.418,1.326,1.326,0,0,1-.2-.1,1.055,1.055,0,0,1-.173-.141A1.161,1.161,0,0,1,77.1,107a1.176,1.176,0,0,1-.066-.212,1.124,1.124,0,0,1,.065-.656,1.279,1.279,0,0,1,.1-.2,1.194,1.194,0,0,1,.141-.172,1.049,1.049,0,0,1,.172-.141,1.342,1.342,0,0,1,.2-.1,1.177,1.177,0,0,1,.213-.063A1.033,1.033,0,0,1,78.148,105.426Zm0,0" transform="translate(-59.507 -81.462)" fill="#6dcc6d"/><path d="M439.374,271.176a1.118,1.118,0,0,1,.946.5,1.172,1.172,0,0,1,.1.2,1.07,1.07,0,0,1,.064.211,1.124,1.124,0,0,1,0,.445,1.1,1.1,0,0,1-.064.212,1.2,1.2,0,0,1-.1.2,1.126,1.126,0,0,1-1.38.418,1.383,1.383,0,0,1-.2-.1,1.052,1.052,0,0,1-.172-.141,1.2,1.2,0,0,1-.141-.173,1.274,1.274,0,0,1-.1-.2,1.17,1.17,0,0,1-.066-.212,1.079,1.079,0,0,1,0-.445,1.14,1.14,0,0,1,.066-.211,1.242,1.242,0,0,1,.1-.2,1.2,1.2,0,0,1,.141-.173,1,1,0,0,1,.172-.14,1.294,1.294,0,0,1,.2-.1,1.141,1.141,0,0,1,.214-.064A1.019,1.019,0,0,1,439.374,271.176Zm0,0" transform="translate(-338.628 -209.538)" fill="#60bae2"/><g transform="translate(0 0.001)"><path d="M459.515,38.4H449.238a2.252,2.252,0,0,1-2.25-2.249V2.25A2.253,2.253,0,0,1,449.238,0h10.276a2.252,2.252,0,0,1,2.251,2.249v33.9A2.252,2.252,0,0,1,459.515,38.4Zm-10.251-2.273h10.253L459.493,2.25l-10.252.024Zm0,0" transform="translate(-345.389 -0.001)" fill="#231f20"/><path d="M426.893,45.459h-5.137a2.251,2.251,0,0,1-2.248-2.25V14.2a2.251,2.251,0,0,1,2.248-2.249h5.137a1.136,1.136,0,0,1,1.136,1.136V44.323a1.136,1.136,0,0,1-1.136,1.136Zm-5.114-2.273h3.978V14.222h-4Zm0,0" transform="translate(-324.155 -9.233)" fill="#231f20"/><path d="M171.068,44.887a21.115,21.115,0,0,1-7.619-1.418c-5.977-2.318-10.83-3.6-13.664-3.6-.819,0-1.665.019-2.519.037-4.358.1-8.867.2-11.219-2.1a5.309,5.309,0,0,1-1.524-3.961,5.023,5.023,0,0,1,.029-.542L119.7,40.355a5.852,5.852,0,0,1-5.649-10.225l17.606-11.2.042-.026A29.6,29.6,0,0,1,154.115,15.9l12.839,3.364a31.551,31.551,0,0,0,11.445.849l3.994-.433a1.132,1.132,0,0,1,1.259,1.13V42.658a1.135,1.135,0,0,1-1.018,1.13l-9.367.984a20.655,20.655,0,0,1-2.2.115ZM149.785,37.6c3.984,0,10.076,2.039,14.486,3.75a18.877,18.877,0,0,0,8.756,1.162l8.349-.876V22.076l-2.735.3a33.8,33.8,0,0,1-12.266-.909L153.537,18.1a27.333,27.333,0,0,0-20.684,2.767L115.267,32.046a3.579,3.579,0,0,0,3.456,6.253l18.335-8.7c4.128-2.76,11.962-2.867,13.138-2.867a1.136,1.136,0,1,1,0,2.273c-2.609,0-8.851.5-11.8,2.425a1.134,1.134,0,0,1-.237.162,2.8,2.8,0,0,0-1.358,2.252,3.09,3.09,0,0,0,.84,2.335c1.667,1.632,5.871,1.536,9.579,1.455C148.087,37.62,148.951,37.6,149.785,37.6Zm0,0" transform="translate(-86.029 -11.525)" fill="#231f20"/><path d="M76.508,154.841a2.214,2.214,0,0,1-1.566-.645l-4.786-4.786a4.955,4.955,0,0,1,6.355-7.561,4.957,4.957,0,0,1,6.356,7.559l0,0-4.776,4.776a2.241,2.241,0,0,1-1.582.655Zm-2.847-11.619a2.682,2.682,0,0,0-1.9,4.581l4.748,4.747,4.749-4.748a2.682,2.682,0,0,0,0-3.793l0,0a2.682,2.682,0,0,0-3.793,0l0,0a1.347,1.347,0,0,1-1.9,0,2.665,2.665,0,0,0-1.9-.787Zm0,0" transform="translate(-53.076 -108.901)" fill="#231f20"/><path d="M12.527,267.295H2.251A2.253,2.253,0,0,1,0,265.045v-33.9A2.252,2.252,0,0,1,2.249,228.9H12.527a2.253,2.253,0,0,1,2.25,2.249v33.9a2.254,2.254,0,0,1-2.25,2.25ZM2.251,231.168l.022,33.877,10.252-.024L12.5,231.167Zm10.276,0" transform="translate(0 -176.868)" fill="#231f20"/><path d="M61.277,271.963H56.136A1.136,1.136,0,0,1,55,270.827V239.59a1.136,1.136,0,0,1,1.136-1.137h5.137a2.251,2.251,0,0,1,2.248,2.25v29.011a2.252,2.252,0,0,1-2.245,2.25Zm-4-2.273h4l-.024-28.964h-3.98Zm4-28.964" transform="translate(-42.499 -184.254)" fill="#231f20"/><path d="M119.64,281.024a29.892,29.892,0,0,1-7.592-.983l-12.839-3.364a31.571,31.571,0,0,0-11.445-.85l-3.994.433a1.133,1.133,0,0,1-1.259-1.129V253.282a1.136,1.136,0,0,1,1.018-1.13l9.367-.985a21.133,21.133,0,0,1,9.816,1.3c5.977,2.318,10.83,3.6,13.664,3.6.819,0,1.665-.019,2.519-.037,4.359-.1,8.868-.2,11.219,2.1a5.309,5.309,0,0,1,1.524,3.961,5.024,5.024,0,0,1-.029.542l14.857-7.05a5.852,5.852,0,0,1,5.649,10.225l-17.606,11.2-.043.027A29.62,29.62,0,0,1,119.64,281.024ZM91.2,273.366a33.788,33.788,0,0,1,8.589,1.112l12.841,3.363a27.341,27.341,0,0,0,20.684-2.764l17.585-11.184a3.579,3.579,0,0,0-3.456-6.253l-18.335,8.7c-4.127,2.76-11.962,2.867-13.138,2.867a1.136,1.136,0,0,1,0-2.273c2.609,0,8.851-.5,11.8-2.425a1.135,1.135,0,0,1,.237-.162,2.8,2.8,0,0,0,1.358-2.252,3.09,3.09,0,0,0-.84-2.335c-1.668-1.633-5.872-1.538-9.579-1.455-.87.02-1.734.039-2.57.039-3.983,0-10.076-2.039-14.485-3.75a18.877,18.877,0,0,0-8.756-1.162l-8.347.875v19.558l2.735-.3a33.864,33.864,0,0,1,3.675-.2Zm0,0" transform="translate(-63.757 -193.989)" fill="#231f20"/><path d="M178.044,171.152a1.133,1.133,0,0,1-.574-.155c-1.943-1.136-5.5-1.057-8.948-.98-.87.02-1.733.038-2.567.038A26.055,26.055,0,0,1,159.52,169a1.127,1.127,0,0,1-.509-.294l-8.287-8.287a13.838,13.838,0,0,1,19.262-19.869,13.838,13.838,0,0,1,19.262,19.869l-10.4,10.4a1.137,1.137,0,0,1-.8.333Zm-6.93-3.448a17.962,17.962,0,0,1,6.7.932l9.824-9.825a11.565,11.565,0,0,0-16.348-16.364l-.008.008a1.879,1.879,0,0,1-2.6,0A11.565,11.565,0,0,0,152.321,158.8l.011.011,8.071,8.071a23.222,23.222,0,0,0,5.554.9c.819,0,1.664-.019,2.517-.037C169.351,167.725,170.238,167.7,171.114,167.7Zm0,0" transform="translate(-113.335 -105.705)" fill="#231f20"/></g></g></svg>
