<svg xmlns="http://www.w3.org/2000/svg" xmlns:xlink="http://www.w3.org/1999/xlink" width="13" height="14" viewBox="0 0 13 18"><defs><clipPath id="a"><rect width="13" height="18" fill="#e4f1fe"/></clipPath></defs><g clip-path="url(#a)"><g transform="translate(1.272)"><path d="M13.012,0H4.988A1.219,1.219,0,0,0,3.772,1.216V16.784A1.22,1.22,0,0,0,4.988,18h8.025a1.219,1.219,0,0,0,1.216-1.216V1.216A1.219,1.219,0,0,0,13.012,0Zm-5.3.876h2.567a.147.147,0,0,1,0,.295H7.716a.147.147,0,0,1,0-.295ZM9,17.392a.608.608,0,1,1,.608-.608A.608.608,0,0,1,9,17.392Zm4.382-1.642H4.618V1.928h8.764Z" transform="translate(-3.772)" fill="#e4f1fe"/></g></g></svg>
