<svg xmlns="http://www.w3.org/2000/svg" xmlns:xlink="http://www.w3.org/1999/xlink" width="150" height="150" viewBox="0 0 150 150"><defs><clipPath id="a"><rect width="150" height="150" transform="translate(635.5 1331)" fill="#fff" stroke="#707070" stroke-width="1"/></clipPath></defs><g transform="translate(-635.5 -1331)" clip-path="url(#a)"><g transform="translate(635.5 1366.959)"><ellipse cx="75" cy="39.041" rx="75" ry="39.041" transform="translate(0 0)" fill="#8993be"/><path d="M21.062,62.157l8.22-41.61H48.287c8.219.514,12.329,4.623,12.329,11.815,0,12.329-9.76,19.521-18.493,19.007H32.877L30.822,62.157Zm13.87-18.493L37.5,28.253h6.678c3.6,0,6.164,1.541,6.164,4.623-.513,8.733-4.623,10.274-9.246,10.788H34.932ZM58.706,51.37,66.925,9.761h9.761L74.631,20.548h9.246c8.22.514,11.3,4.623,10.274,9.761l-3.6,21.062H80.282l3.6-19.007c.513-2.569.513-4.11-3.082-4.11H73.09L68.467,51.37ZM89.9,62.157l8.219-41.61h19.007c8.22.514,12.329,4.623,12.329,11.815,0,12.329-9.761,19.521-18.493,19.007h-9.247L99.657,62.157Zm13.869-18.493,2.569-15.411h6.679c3.6,0,6.164,1.541,6.164,4.623-.513,8.733-4.623,10.274-9.246,10.788h-6.165Z" fill="#232531" fill-rule="evenodd"/></g></g></svg>