<svg xmlns="http://www.w3.org/2000/svg" width="650.403" height="677.769" viewBox="0 0 650.403 677.769">
  <g id="portafolio" transform="translate(0 0)">
    <path id="Trazado_7700" data-name="Trazado 7700" d="M297.685,10.27H36.58V338.353h261.1Z" transform="translate(23.149 6.499)" fill="#e0e0e0"/>
    <path id="Trazado_7701" data-name="Trazado 7701" d="M286.106,16.02H42.44V325.342H286.106Z" transform="translate(26.857 10.138)" fill="#fafafa"/>
    <path id="Trazado_7702" data-name="Trazado 7702" d="M42.44,197.762H91.457l6.3,28.836h21.276l18.108-82.033H197.8V88.64h44.119V182.1h44.184v97.284H42.44Z" transform="translate(26.857 56.094)" fill="#f5f5f5"/>
    <path id="Trazado_7703" data-name="Trazado 7703" d="M122.48,16.02h-7.87V322.795h7.87Z" transform="translate(72.528 10.138)" fill="#e0e0e0"/>
    <path id="Trazado_7704" data-name="Trazado 7704" d="M286.106,107.79H42.44v8.066H286.106Z" transform="translate(26.857 68.212)" fill="#e0e0e0"/>
    <path id="Trazado_7705" data-name="Trazado 7705" d="M349.108,63.83l15.675,40.1-9.748-.049-7.8-24.639Z" transform="translate(219.736 40.393)" fill="#e0e0e0"/>
    <path id="Trazado_7706" data-name="Trazado 7706" d="M317.688,41.14,312.3,117.964l55.63,1.159,6.254-77.984Z" transform="translate(197.631 26.034)" fill="#ebebeb"/>
    <path id="Trazado_7707" data-name="Trazado 7707" d="M320.75,45.076l-4.49,63.941L357.6,110.96l5.78-66.26Z" transform="translate(200.137 28.287)" fill="#fafafa"/>
    <path id="Trazado_7708" data-name="Trazado 7708" d="M325.874,50.47,322.51,95.422H345.32l4.017-44.952Z" transform="translate(204.092 31.939)" fill="#e0e0e0"/>
    <path id="Trazado_7709" data-name="Trazado 7709" d="M265.02,113.038V49.88h46.258v63.109Z" transform="translate(167.711 31.565)" fill="#ebebeb"/>
    <path id="Trazado_7710" data-name="Trazado 7710" d="M286.908,81.429S298.06-.114,294.941,0s-10.973,74.342-10.973,74.342-.327-61.476-3.266-61.149,0,65.084,0,65.084-5.029-52.561-7.74-51.3,1.159,54.455,1.159,54.455h12.8" transform="translate(172.128 0)" fill="#e0e0e0"/>
    <path id="Trazado_7711" data-name="Trazado 7711" d="M275.98,74.851s3.87-40.641,5.143-37.865,0,24.2,0,24.2,10.793-52.5,13.52-50.748-10.891,57.035-10.891,57.035,10.45-31.53,12.752-28.2-8.67,32.9-8.67,32.9,11.217-20.916,11.985-18.108-5.356,20.8-5.356,20.8Z" transform="translate(174.647 6.577)" fill="#ebebeb"/>
    <path id="Trazado_7712" data-name="Trazado 7712" d="M280.439,68.265s-24.721-48.544-21.668-47.042,18.875,32.885,18.875,32.885-10.466-30.273-8.164-31.2,13.765,34.012,13.765,34.012l2.58,11.43Z" transform="translate(163.591 13.409)" fill="#ebebeb"/>
    <path id="Trazado_7713" data-name="Trazado 7713" d="M286.363,50.022l1.176,63.174H265.545L265.12,49.81Z" transform="translate(167.774 31.521)" fill="#e0e0e0"/>
    <path id="Trazado_7714" data-name="Trazado 7714" d="M265.284,55.631l21.308.359,24.9-.359.784-6.041h-47.6Z" transform="translate(167.496 31.382)" fill="#f5f5f5"/>
    <path id="Trazado_7715" data-name="Trazado 7715" d="M471.946,87.93H240.64V98.086H471.946Z" transform="translate(152.283 55.644)" fill="#e0e0e0"/>
    <path id="Trazado_7716" data-name="Trazado 7716" d="M267.358,318.2c-1.959-2.172,2.661-14.859,24.59-15.757s30.713,7.086,30.746,15.757C322.711,322.041,267.358,318.2,267.358,318.2Z" transform="translate(168.933 191.352)" fill="#455a64"/>
    <path id="Trazado_7717" data-name="Trazado 7717" d="M270.012,109.41,245.65,260.071H468.139L494.933,107.81Z" transform="translate(155.453 68.225)" fill="#f5f5f5"/>
    <path id="Trazado_7718" data-name="Trazado 7718" d="M259.21,123.116c.1-.522,224.611-.849,224.611-.849l2.547-14.467-224.938,1.633-2.221,13.716" transform="translate(164.034 68.218)" fill="#e0e0e0"/>
    <path id="Trazado_7719" data-name="Trazado 7719" d="M267.925,113.738a2.059,2.059,0,1,1-.609-1.461,2.056,2.056,0,0,1,.609,1.461Z" transform="translate(166.945 70.674)" fill="#263238"/>
    <path id="Trazado_7720" data-name="Trazado 7720" d="M274.125,113.737a2.057,2.057,0,1,1-.6-1.455A2.062,2.062,0,0,1,274.125,113.737Z" transform="translate(170.869 70.674)" fill="#263238"/>
    <path id="Trazado_7721" data-name="Trazado 7721" d="M280.335,113.738a2.059,2.059,0,1,1-.609-1.461,2.056,2.056,0,0,1,.609,1.461Z" transform="translate(174.799 70.674)" fill="#263238"/>
    <path id="Trazado_7722" data-name="Trazado 7722" d="M311.634,174.419l-27.84,32.2A39.512,39.512,0,0,1,266.47,174.5c0-22.386,20.394-40.821,45.164-40.821S356.8,152.1,356.8,174.5Z" transform="translate(168.629 84.596)" fill="#3088f4"/>
    <path id="Trazado_7723" data-name="Trazado 7723" d="M307.2,161.76a3.835,3.835,0,0,1-.474.637l-1.453,1.731-5.519,6.531c-4.8,5.617-11.626,13.552-19.806,23.1v-.523a45.235,45.235,0,0,0,20.737,7.707,47.662,47.662,0,0,0,24.656-3.723,44.591,44.591,0,0,0,18.467-14.908,41.543,41.543,0,0,0,5.045-9.879,40.373,40.373,0,0,0,1.943-10.107l.359.376-31.84-.539-8.948-.2L308,161.891a4.434,4.434,0,0,1-.833,0,4.187,4.187,0,0,1,.784,0h11.234l31.971.212h.392v.392a40.067,40.067,0,0,1-1.927,10.336,41.936,41.936,0,0,1-5.111,10.091,45.1,45.1,0,0,1-18.892,15.267,48.64,48.64,0,0,1-25.1,3.755,45.973,45.973,0,0,1-21.064-7.936l-.327-.229.261-.31L299.54,170.5l5.633-6.368,1.5-1.633a5.033,5.033,0,0,1,.522-.735Z" transform="translate(176.64 102.366)" fill="#263238"/>
    <path id="Trazado_7724" data-name="Trazado 7724" d="M306.871,147.3a2.531,2.531,0,1,0-2.531-2.531A2.531,2.531,0,0,0,306.871,147.3Z" transform="translate(192.594 90.013)" fill="#263238"/>
    <path id="Trazado_7725" data-name="Trazado 7725" d="M358.7,132.611a14.034,14.034,0,0,1-2.384.163l-6.531.131c-5.47,0-13.063.131-21.374.131h-3.984l.294-.114c-5.241,5.225-9.911,9.8-13.291,13.063l-4,3.821a8.263,8.263,0,0,1-1.535,1.306,11.708,11.708,0,0,1,1.323-1.519c1-1.061,2.286-2.4,3.821-4,3.266-3.38,7.87-8.05,13.063-13.307l.114-.114H328.5c8.344,0,15.9,0,21.374.114l6.531.147a12.05,12.05,0,0,1,2.286.18Z" transform="translate(193.575 83.64)" fill="#263238"/>
    <path id="Trazado_7726" data-name="Trazado 7726" d="M397.935,169.639a4.687,4.687,0,0,1,.114-.865c.1-.588.229-1.388.408-2.417l1.633-9.127,5.894-32.754.343.408-63.239.082.408-.343v.735l-.147.751-.278,1.519-.555,3c-.376,1.992-.735,3.968-1.11,5.927q-1.078,5.878-2.139,11.56c-1.421,7.544-2.776,14.7-4.033,21.57l-.392-.457,45.556.18,13.063.114h.147l-12.932.1-45.719.18H334.5l.082-.457c1.257-6.809,2.58-14.042,3.984-21.6.686-3.772,1.4-7.625,2.123-11.544.376-1.976.735-3.951,1.11-5.943.18-1,.359-1.992.555-3l.278-1.5.131-.751.082-.392v-.327l.425-.359,63.239.082h.229l-.082.408c-2.613,13.667-4.768,24.95-6.27,32.869-.767,3.87-1.355,6.907-1.78,9.046l-.474,2.335C398,169.394,397.935,169.655,397.935,169.639Z" transform="translate(211.68 78.42)" fill="#263238"/>
    <path id="Trazado_7727" data-name="Trazado 7727" d="M309.3,178.482a2.531,2.531,0,1,0-2.531-2.531A2.531,2.531,0,0,0,309.3,178.482Z" transform="translate(194.132 109.744)" fill="#263238"/>
    <path id="Trazado_7728" data-name="Trazado 7728" d="M354.268,175.125c0,.245-10.287.425-22.974.425s-22.974-.18-22.974-.425,10.287-.425,22.974-.425S354.268,174.9,354.268,175.125Z" transform="translate(195.112 110.554)" fill="#263238"/>
    <path id="Trazado_7729" data-name="Trazado 7729" d="M398.827,200.1a3.632,3.632,0,0,1,.114-.62c.1-.441.229-1.029.408-1.763.376-1.633.914-3.8,1.633-6.646,1.421-5.78,3.445-14.026,5.943-24.166l.31.392-65.215.1.408-.31v.506l-.147.555-.278,1.078-.539,2.188c-.376,1.437-.735,2.874-1.094,4.311l-2.319,8.556c-1.4,5.535-2.759,10.891-4.066,16l-.376-.49,46.78.18,13.52.1h.163l-13.454.1-47.009.18h-.523l.131-.506c1.29-5.111,2.629-10.483,4.017-16.018q1.046-4.164,2.139-8.442l1.078-4.311.555-2.172.278-1.094.131-.555v-.506l.408-.327,65.215.114h.588l-.1.392c-2.645,10.189-4.784,18.467-6.286,24.264-.751,2.792-1.339,5-1.747,6.531-.2.7-.343,1.257-.457,1.633S398.827,200.111,398.827,200.1Z" transform="translate(210.787 105.308)" fill="#263238"/>
    <path id="Trazado_7730" data-name="Trazado 7730" d="M386.97,132.955c0,.245-9.683.425-21.635.425s-21.635-.18-21.635-.425,9.683-.425,21.635-.425S386.97,132.726,386.97,132.955Z" transform="translate(217.502 83.868)" fill="#263238"/>
    <path id="Trazado_7731" data-name="Trazado 7731" d="M386.755,137.295c0,.245-9.8.425-21.749.425s-21.766-.18-21.766-.425,9.8-.425,21.766-.425S386.755,137.066,386.755,137.295Z" transform="translate(217.211 86.615)" fill="#263238"/>
    <path id="Trazado_7732" data-name="Trazado 7732" d="M385.4,141.515c0,.229-9.405.425-21,.425s-21.014-.2-21.014-.425,9.405-.425,21.014-.425S385.4,141.221,385.4,141.515Z" transform="translate(217.306 89.285)" fill="#263238"/>
    <path id="Trazado_7733" data-name="Trazado 7733" d="M385.565,174.644c0,.229-9.225.425-20.622.425s-20.623-.2-20.623-.425,9.242-.425,20.623-.425S385.565,174.432,385.565,174.644Z" transform="translate(217.894 110.251)" fill="#263238"/>
    <path id="Trazado_7734" data-name="Trazado 7734" d="M381.661,179.445c0,.245-7.87.425-17.586.425s-17.586-.18-17.586-.425,7.87-.425,17.586-.425S381.661,179.216,381.661,179.445Z" transform="translate(219.267 113.288)" fill="#263238"/>
    <path id="Trazado_7735" data-name="Trazado 7735" d="M212.2,279.75c-.784,4.588-22.566,52.789-8.507,52.789h70.669s-7.3-6.858,14.793-52.789Z" transform="translate(125.921 177.033)" fill="#455a64"/>
    <path id="Trazado_7736" data-name="Trazado 7736" d="M190.275,183.511,161.39,352.328H405.007L434.9,177.6Z" transform="translate(102.132 112.39)" fill="#455a64"/>
    <path id="Trazado_7737" data-name="Trazado 7737" d="M193.592,186.9,169.23,337.557H391.719L418.53,185.28Z" transform="translate(107.093 117.25)" fill="#fafafa"/>
    <path id="Trazado_7738" data-name="Trazado 7738" d="M434.9,177.6l4.6,3.086L408.485,356.917H167.807l-6.417-4.588H405.007Z" transform="translate(102.132 112.39)" fill="#263238"/>
    <path id="Trazado_7739" data-name="Trazado 7739" d="M182.8,200.6c.082-.539,224.595-.849,224.595-.849l2.547-14.467L185,186.913l-2.2,13.716" transform="translate(115.68 117.25)" fill="#ebebeb"/>
    <path id="Trazado_7740" data-name="Trazado 7740" d="M284.02,304.592v-.425l.2-1.257q.311-1.8.833-4.9c.767-4.392,1.845-10.7,3.184-18.516,2.776-15.838,6.646-37.882,11.038-62.9v-.359h18.386l-.082.506c-6.809,36.885-12.769,69.3-16.214,87.928v.2h-.18l-12.8-.131h.2l12.654-.131-.229.18L316.807,216.8l.424.49h-17.5l.408-.343c-4.523,24.868-8.491,46.764-11.43,62.521-1.437,7.838-2.612,14.157-3.429,18.565-.408,2.139-.718,3.821-.947,5.029-.114.539-.2.98-.261,1.306-.013.077-.029.153-.049.229Z" transform="translate(179.735 136.842)" fill="#263238"/>
    <path id="Trazado_7741" data-name="Trazado 7741" d="M266.74,294.815a6.1,6.1,0,0,1,.18-1.176c.147-.865.359-2.025.62-3.494.588-3.151,1.4-7.609,2.433-13.063,2.139-11.315,5.127-27.056,8.54-45.05v-.343H296.9l-.1.506c-5.16,25.586-9.8,48.332-12.671,62.749v.212h-.212l-12.785-.147h-3.266a8.159,8.159,0,0,1-1.094,0h4.6l12.605-.147-.261.212c2.841-14.434,7.315-37.2,12.344-62.815l.408.506h-17.6l.408-.327c-3.543,17.83-6.646,33.44-8.883,44.658-1.127,5.568-2.025,10.042-2.678,13.193l-.735,3.576a3.951,3.951,0,0,1-.212.931Z" transform="translate(168.8 146.619)" fill="#263238"/>
    <path id="Trazado_7742" data-name="Trazado 7742" d="M249.394,312.578a3.1,3.1,0,0,1,0-.523l.261-1.633c.245-1.437.588-3.494,1.045-6.139.947-5.4,2.3-13.193,4-22.86,3.462-19.594,8.278-46.715,13.732-77.461v-.343h18.386l-.082.49c-8.523,46.682-16.051,87.356-20.035,108.469v.18h-.18l-12.85-.131h.163l12.7-.114-.2.163c3.723-21.227,11.071-61.868,19.594-108.534l.425.506H268.906l.408-.359c-5.568,30.583-10.5,57.622-14.059,77.069-1.8,9.7-3.266,17.52-4.245,22.941l-1.176,6.221c-.131.686-.229,1.225-.31,1.633Z" transform="translate(157.816 128.856)" fill="#263238"/>
    <path id="Trazado_7743" data-name="Trazado 7743" d="M232.083,287.854a5.715,5.715,0,0,1,.1-.816c.114-.637.245-1.437.408-2.449.376-2.253.914-5.388,1.633-9.291,1.421-8.083,3.4-19.3,5.666-32.265v-.343h18.369l-.1.506c-3.38,17.635-6.417,33.506-8.572,44.723v.245h-.229L236.622,288l-3.445-.147a9.252,9.252,0,0,1-1.127,0h4.686l12.54-.163-.294.229c2.09-11.218,5.045-27.121,8.311-44.772l.425.506H240.23l.392-.327c-2.417,12.818-4.49,23.9-6.009,31.889-.751,3.919-1.372,7.087-1.812,9.356-.212,1.029-.376,1.878-.506,2.515a6.945,6.945,0,0,1-.212.767Z" transform="translate(146.847 153.58)" fill="#263238"/>
    <path id="Trazado_7744" data-name="Trazado 7744" d="M214.765,299.093v-.343a3.162,3.162,0,0,1,.147-1.061c.163-1,.376-2.368.653-4.131.6-3.674,1.453-8.932,2.515-15.463,2.221-13.291,5.29-31.775,8.8-52.822v-.343h18.386l-.1.506c-5.388,30.419-10.14,57.312-13.063,73.706v.212h-.2l-12.769-.147h-3.347a8.747,8.747,0,0,1-1.094,0h4.588l12.622-.131-.245.2,12.7-73.771.425.506H227.371l.408-.343c-3.641,20.9-6.842,39.188-9.144,52.43-1.176,6.531-2.106,11.838-2.776,15.545-.327,1.78-.571,3.266-.767,4.2l-.212,1.11Z" transform="translate(135.867 142.341)" fill="#263238"/>
    <path id="Trazado_7745" data-name="Trazado 7745" d="M197.446,309a1.769,1.769,0,0,1,0-.474,11.852,11.852,0,0,1,.229-1.437c.229-1.323.539-3.266.947-5.617.833-4.9,2.057-12.067,3.56-20.917,3.1-17.879,7.429-42.764,12.328-70.93v-.343h18.386l-.082.506c-7.609,42.323-14.336,79.323-18.043,99.259v.18h-.18l-12.818-.131h.163l12.687-.131-.212.18c3.462-19.986,10.026-57.018,17.634-99.325l.408.49H214.966l.408-.343c-5.013,28.019-9.454,52.757-12.638,70.538-1.633,8.883-2.923,16.018-3.837,20.982-.441,2.449-.8,4.343-1.045,5.7-.131.62-.212,1.11-.294,1.486S197.446,309,197.446,309Z" transform="translate(124.939 132.437)" fill="#263238"/>
    <path id="Trazado_7746" data-name="Trazado 7746" d="M191.517,191.217a2.071,2.071,0,1,1-.612-1.456,2.074,2.074,0,0,1,.612,1.456Z" transform="translate(118.572 119.705)" fill="#263238"/>
    <path id="Trazado_7747" data-name="Trazado 7747" d="M195.647,193.275a2.057,2.057,0,1,0-2.057-2.057A2.057,2.057,0,0,0,195.647,193.275Z" transform="translate(122.508 119.705)" fill="#263238"/>
    <path id="Trazado_7748" data-name="Trazado 7748" d="M203.927,191.217a2.074,2.074,0,1,1-.607-1.45A2.068,2.068,0,0,1,203.927,191.217Z" transform="translate(126.426 119.705)" fill="#263238"/>
    <path id="Trazado_7749" data-name="Trazado 7749" d="M180.12,296.264a6.67,6.67,0,0,1,.18-1.257c.18-.833.343-2.139.6-3.706.571-3.266,1.372-8.05,2.368-13.912,2.09-11.985,4.98-28.64,8.295-47.646V229.4h18.386l-.1.506c-5.045,27.2-9.536,51.336-12.328,66.423v.212h-.2l-12.785-.147h-3.266a9,9,0,0,1-1.11,0h4.6l12.622-.147-.261.212,12-66.472.408.49H191.974l.408-.343c-3.445,18.859-6.531,35.383-8.621,47.254-1.11,5.894-1.992,10.646-2.629,13.977-.294,1.633-.539,2.874-.718,3.788l-.2,1c-.031.039-.064.077-.1.114Z" transform="translate(113.984 145.17)" fill="#263238"/>
    <path id="Trazado_7750" data-name="Trazado 7750" d="M333.132,241.8h-93.2l5.307-31.3h93.871Z" transform="translate(151.834 133.21)" fill="#3088f4"/>
    <path id="Trazado_7751" data-name="Trazado 7751" d="M240.632,229.825l-1.812,10.924S251.066,229.4,250.87,229.4H240.714" transform="translate(151.131 145.17)" fill="#3088f4"/>
    <path id="Trazado_7752" data-name="Trazado 7752" d="M318.936,217.325c0,.229-15.528.425-34.665.425s-34.681-.2-34.681-.425,15.528-.425,34.681-.425S318.936,217.1,318.936,217.325Z" transform="translate(157.947 137.26)" fill="#fafafa"/>
    <path id="Trazado_7753" data-name="Trazado 7753" d="M318.376,221.955c0,.229-15.528.425-34.665.425s-34.681-.2-34.681-.425,15.528-.425,34.681-.425S318.376,221.71,318.376,221.955Z" transform="translate(157.592 140.19)" fill="#fafafa"/>
    <path id="Trazado_7754" data-name="Trazado 7754" d="M487.76,318.71H222.23V473.649H487.76Z" transform="translate(140.633 201.687)" fill="#263238"/>
    <path id="Trazado_7755" data-name="Trazado 7755" d="M343.19,318.71H222.23V473.649H343.19Z" transform="translate(140.633 201.687)" fill="#455a64"/>
    <path id="Trazado_7756" data-name="Trazado 7756" d="M326.573,367.814v-3.037c0-2.008,0-4.9-.082-8.605,0-7.446-.082-18.173-.163-31.4l.31.31-97.3.114c-.376.392.506-.506.425-.408v43.025l-.392-.392,69.738.18,20.231.114h7.331a1.986,1.986,0,0,1-.441,0h-6.711l-20.133.114-70.015.2h-.408V324.789c-.1,0,.8-.816.425-.441l97.186.065h.31v.294c0,13.307-.131,24.084-.163,31.6,0,3.674,0,6.531-.082,8.523v2.2a5.462,5.462,0,0,1-.065.784Z" transform="translate(144.889 205.193)" fill="#263238"/>
    <path id="Trazado_7757" data-name="Trazado 7757" d="M264.894,339.491s-.1-.359-.294-.963a4.137,4.137,0,0,0-1.519-2.074,3.821,3.821,0,0,0-3.609-.474,3.755,3.755,0,0,0,0,7.037,3.92,3.92,0,0,0,3.609-.474,4.137,4.137,0,0,0,1.519-2.074c.2-.6.212-.98.294-.98s.131.376,0,1.061a4.2,4.2,0,0,1-1.486,2.466,4.391,4.391,0,0,1-4.229.735,4.507,4.507,0,0,1,0-8.507,4.445,4.445,0,0,1,4.229.718,4.21,4.21,0,0,1,1.486,2.482C265.025,339.132,264.943,339.508,264.894,339.491Z" transform="translate(162.106 211.995)" fill="#263238"/>
    <path id="Trazado_7758" data-name="Trazado 7758" d="M326.57,396.783V393.73c0-2.008,0-4.9-.082-8.589,0-7.462-.082-18.173-.163-31.4l.31.31-97.3.114.425-.424V396.75l-.392-.408,69.738.2,20.231.114h6.842a3.081,3.081,0,0,1,.49,0h-7.152l-20.133.114-70.015.2h-.408V353.775l.425-.425,97.3.114h.31v.31c0,13.308-.131,24.084-.163,31.579,0,3.674,0,6.531-.082,8.54v2.188a6.146,6.146,0,0,1-.18.7Z" transform="translate(144.891 223.608)" fill="#263238"/>
    <path id="Trazado_7759" data-name="Trazado 7759" d="M264.894,368.518s-.1-.376-.294-.98a4.137,4.137,0,0,0-1.519-2.074,3.92,3.92,0,0,0-3.609-.474,3.755,3.755,0,0,0,0,7.038,3.868,3.868,0,0,0,3.609-.457,4.1,4.1,0,0,0,1.519-2.09c.2-.6.212-.963.294-.963s.131.376,0,1.045a4.176,4.176,0,0,1-1.486,2.482,4.39,4.39,0,0,1-4.229.718,4.507,4.507,0,0,1,0-8.507,4.391,4.391,0,0,1,4.229.735,4.177,4.177,0,0,1,1.486,2.482C265.025,368.143,264.943,368.518,264.894,368.518Z" transform="translate(162.106 230.353)" fill="#263238"/>
    <path id="Trazado_7760" data-name="Trazado 7760" d="M326.573,425.842V422.8c0-2.008,0-4.9-.082-8.6,0-7.446-.082-18.173-.163-31.4l.31.31-97.3.114c-.376.392.506-.506.425-.408v43.025l-.392-.392,69.738.18,20.231.114h7.331a1.99,1.99,0,0,1-.441,0h-6.711l-20.133.1-70.015.2h-.408V382.817c-.1.082.8-.816.425-.441l97.3.131H327v.294c0,13.308-.131,24.1-.163,31.6,0,3.674,0,6.531-.082,8.523v2.2a5.442,5.442,0,0,1-.18.719Z" transform="translate(144.889 241.918)" fill="#263238"/>
    <path id="Trazado_7761" data-name="Trazado 7761" d="M264.894,397.521s-.1-.359-.294-.963a4.137,4.137,0,0,0-1.519-2.074,3.87,3.87,0,0,0-3.609-.474,3.755,3.755,0,0,0,0,7.037,3.87,3.87,0,0,0,3.609-.474A4.137,4.137,0,0,0,264.6,398.5c.2-.6.212-.98.294-.98s.131.376,0,1.061a4.266,4.266,0,0,1-1.486,2.482,4.446,4.446,0,0,1-4.229.719,4.507,4.507,0,0,1,0-8.507,4.445,4.445,0,0,1,4.229.719,4.21,4.21,0,0,1,1.486,2.482C265.025,397.162,264.943,397.538,264.894,397.521Z" transform="translate(162.106 248.718)" fill="#263238"/>
    <path id="Trazado_7762" data-name="Trazado 7762" d="M228.594,318.71H5.24V473.649H228.594Z" transform="translate(3.316 201.687)" fill="#263238"/>
    <path id="Trazado_7763" data-name="Trazado 7763" d="M638.026,312.09H0v14.728H638.026Z" transform="translate(0 197.498)" fill="#263238"/>
    <path id="Trazado_7764" data-name="Trazado 7764" d="M25.03,321.11H5.24V472.13H25.03Z" transform="translate(3.316 203.206)" fill="#455a64"/>
    <path id="Trazado_7765" data-name="Trazado 7765" d="M161.631,173.2a15.177,15.177,0,0,1-.278-1.878,13.406,13.406,0,0,0-1.633-4.768,5.563,5.563,0,0,0-2.384-2.286,3.117,3.117,0,0,0-3.413.637,13.208,13.208,0,0,0,0,16.573,3.119,3.119,0,0,0,3.413.653,5.7,5.7,0,0,0,2.384-2.3,13.406,13.406,0,0,0,1.633-4.768,14.62,14.62,0,0,1,.278-1.861,5.772,5.772,0,0,1,0,1.91,12.362,12.362,0,0,1-1.421,5.029,6.28,6.28,0,0,1-2.629,2.629,3.63,3.63,0,0,1-2.139.31,4.474,4.474,0,0,1-2.057-1,13.713,13.713,0,0,1,0-17.765,4.37,4.37,0,0,1,2.057-1.012,3.766,3.766,0,0,1,2.139.31,6.28,6.28,0,0,1,2.629,2.629,12.334,12.334,0,0,1,1.421,5.045,5.86,5.86,0,0,1,0,1.91Z" transform="translate(95 103.318)" fill="#263238"/>
    <path id="Trazado_7766" data-name="Trazado 7766" d="M115.9,153.331,111,251.17l42.029,3.951,2.319-23.758s14.7,3.658,19.267-10.009c2.857-8.736,5.4-77.135,5.4-77.135Z" transform="translate(70.243 91.266)" fill="#ffbe9d"/>
    <path id="Trazado_7767" data-name="Trazado 7767" d="M193.265,160.133c-3.576,8.507-17.063,15.806-17.063,15.806L174,197.606a43.635,43.635,0,0,0-6.025,0c1.078-10.173-12-8.164-13.34-1.257-1.274,6.662,6.319,11.12,6.319,11.12-5.241,8.034-7.364,12.279-14.81,19.806-8.034,8.164-12.361,8.817-20.672,8.572l-9.16-.425s-3.266-7.821-5.633-26.288c-1.159-8.883-8.164-20.525-6.123-34.975,5.617-41.033,51.026-33.75,51.026-33.75C172.626,127.15,201.69,140.13,193.265,160.133Z" transform="translate(65.93 85.444)" fill="#263238"/>
    <path id="Trazado_7768" data-name="Trazado 7768" d="M164.473,169.5a50.645,50.645,0,0,1-9.405.914,53.277,53.277,0,0,1-9.438,0,51.169,51.169,0,0,1,9.389-.9,54.567,54.567,0,0,1,9.454-.016Z" transform="translate(92.158 107.137)" fill="#263238"/>
    <path id="Trazado_7769" data-name="Trazado 7769" d="M292.156,241.644,276.889,251.1l-5.6,13.063v-11.43s4.147-4.9,7.544-8.474.963-6.058,0-7.282-15.577,15.757-15.577,15.757v9.8c-6.809-8.376-9.96-5.5-11.005-3.984s11.005,12.883,11.005,12.883v3.462l-59.876,32.2L187.623,267.9,155.44,284.8l19.218,46.519a24.264,24.264,0,0,0,34.8,11.642l70.456-41.653,4.686-7.821a19.709,19.709,0,0,0,2.792-8.883l2.433-35.187C294.1,246.739,292.156,241.644,292.156,241.644Z" transform="translate(98.366 149.923)" fill="#ffbe9d"/>
    <path id="Trazado_7770" data-name="Trazado 7770" d="M187.271,279.92a83.7,83.7,0,0,1-5.911,15.969A86.82,86.82,0,0,1,187.271,279.92Z" transform="translate(114.769 177.14)" fill="#eb996e"/>
    <path id="Trazado_7771" data-name="Trazado 7771" d="M242.315,244.57a27.763,27.763,0,0,1-2.776,1.241,8.771,8.771,0,0,0-4.588,5.225,64.739,64.739,0,0,1-4.441,9.519,65.676,65.676,0,0,1,3.658-9.8,9.972,9.972,0,0,1,2.221-3.576,9.805,9.805,0,0,1,2.89-1.861,6.921,6.921,0,0,1,3.037-.751Z" transform="translate(145.872 154.77)" fill="#eb996e"/>
    <path id="Trazado_7772" data-name="Trazado 7772" d="M239.568,248.062a1.784,1.784,0,0,0-1.29.849,35.664,35.664,0,0,0-1.633,3.886,56.136,56.136,0,0,1-2.155,5.715,14.135,14.135,0,0,1,1.355-6.025,20.547,20.547,0,0,1,2.008-3.919,1.742,1.742,0,0,1,1.274-.718C239.437,247.85,239.584,248.013,239.568,248.062Z" transform="translate(148.391 156.846)" fill="#eb996e"/>
    <path id="Trazado_7773" data-name="Trazado 7773" d="M192.81,300.392l6.842,23.17,43.417-19.594c-1.633-4.9-8.752-26.468-22.484-60.757a59.008,59.008,0,0,0-45.017-36.281c-14.206-2.368-29.668-4.213-41.572-4.066a51.613,51.613,0,0,0-50.1,41.31c-3.674,18.206,2.759,30.24-1.388,70.081L81.19,414.461l115.931,4.262Z" transform="translate(51.379 128.372)" fill="#3088f4"/>
    <path id="Trazado_7774" data-name="Trazado 7774" d="M94,302.59s-16.116.947-22.451-11.25c0,0,17.357-64.17,23.415-71.73Z" transform="translate(45.279 138.975)" fill="#3088f4"/>
    <path id="Trazado_7775" data-name="Trazado 7775" d="M221.462,235.862a5.011,5.011,0,0,1-1.372.751,13.93,13.93,0,0,1-4.425.833,29.146,29.146,0,0,1-7.037-.9c-2.678-.6-5.666-1.5-9.013-2.057a39.013,39.013,0,0,0-5.258-.278,33.738,33.738,0,0,0-5.633.931,48.594,48.594,0,0,0-11.707,4.9c-3.968,2.155-8,4.7-12.3,7.217a64.467,64.467,0,0,1-14.059,6.531,27.747,27.747,0,0,1-15.593.245,39.742,39.742,0,0,1-12.752-6.907c-3.641-2.825-6.809-5.8-9.8-8.507a84.016,84.016,0,0,0-8.654-7.054,33.513,33.513,0,0,0-14.7-6.237,52.483,52.483,0,0,0-5.911,0,5.978,5.978,0,0,1,1.5-.392,20.312,20.312,0,0,1,4.474-.212,32.527,32.527,0,0,1,15.251,5.911,78.512,78.512,0,0,1,8.915,7c3.037,2.678,6.237,5.584,9.8,8.295a38.662,38.662,0,0,0,12.262,6.531,26.413,26.413,0,0,0,14.7-.278,65.04,65.04,0,0,0,13.7-6.319c4.262-2.466,8.327-5.013,12.377-7.168a49.391,49.391,0,0,1,12.132-4.9,34.572,34.572,0,0,1,5.911-.882,41.647,41.647,0,0,1,5.5.425c3.462.653,6.417,1.633,9.046,2.319a30.189,30.189,0,0,0,6.809,1.143,19.06,19.06,0,0,0,5.829-.947Z" transform="translate(52.689 142.186)" fill="#263238"/>
    <path id="Trazado_7776" data-name="Trazado 7776" d="M170.3,282.136a20.366,20.366,0,0,0-7.2-2.613,24.188,24.188,0,0,0-8.295.457c-3.1.62-6.45,1.747-10.124,2.661a40.822,40.822,0,0,1-19.251.261c-4.9-1.143-7.527-2.694-7.446-2.857s2.923.865,7.691,1.633a45.068,45.068,0,0,0,18.6-.735c3.576-.9,6.989-1.992,10.238-2.564a23.443,23.443,0,0,1,8.785-.1,13.965,13.965,0,0,1,5.486,2.253C169.921,281.434,170.378,282.071,170.3,282.136Z" transform="translate(74.66 175.871)" fill="#263238"/>
    <path id="Trazado_7777" data-name="Trazado 7777" d="M171.971,317.635a9.408,9.408,0,0,1-1.535,1.763,23.772,23.772,0,0,1-5.258,3.641,20.933,20.933,0,0,1-9.258,2.351,30.709,30.709,0,0,1-11.43-2.547c-3.8-1.486-7.282-3.151-10.564-4.082a25.149,25.149,0,0,0-8.964-1.045,14.059,14.059,0,0,0-5.78,1.633c-1.274.7-1.861,1.274-1.976,1.159s.392-.8,1.633-1.633a12.832,12.832,0,0,1,6.009-2.351,24.789,24.789,0,0,1,9.5.735,103.763,103.763,0,0,1,10.777,4.017,31.118,31.118,0,0,0,10.76,2.564,20.857,20.857,0,0,0,8.736-1.878,68.492,68.492,0,0,0,7.348-4.327Z" transform="translate(74.161 200.199)" fill="#263238"/>
    <g id="Grupo_1534" data-name="Grupo 1534" transform="translate(120.404 441.288)" opacity="0.3">
      <path id="Trazado_7778" data-name="Trazado 7778" d="M73.74,271.664c15.185,3.1,30.779,0,46.242-.947,9.389-.555,19.79-1.633,27.2,4.2,5.878,4.572,8.164,12.263,9.944,19.512,6.531,27.66,7.658,52.365,9.111,80.727l-75.11-1.633Z" transform="translate(-73.74 -270.26)" opacity="0.3"/>
    </g>
    <path id="Trazado_7779" data-name="Trazado 7779" d="M88.472,239.23l3.249,46.829H81.81Z" transform="translate(51.771 151.391)" opacity="0.3"/>
    <path id="Trazado_7780" data-name="Trazado 7780" d="M98.81,332.41l149.077,5.274a44.447,44.447,0,0,1,42.878,45.131l-1.306,84.6H234.792l-3.527-72.938L98.81,390.979Z" transform="translate(62.529 210.357)" fill="#263238"/>
    <path id="Trazado_7781" data-name="Trazado 7781" d="M135.1,379.78H120.44v53.671H135.1Z" transform="translate(76.217 240.334)" fill="#455a64"/>
    <path id="Trazado_7782" data-name="Trazado 7782" d="M45.1,280.653v129.32a30.714,30.714,0,0,0,30.713,30.7h86.115V280.653a13.7,13.7,0,0,0-13.7-13.683H58.783A13.682,13.682,0,0,0,45.1,280.653Z" transform="translate(28.54 168.945)" fill="#455a64"/>
    <path id="Trazado_7783" data-name="Trazado 7783" d="M268.91,388.6H59.19A22.859,22.859,0,0,1,82.05,365.84H246.23A22.762,22.762,0,0,1,268.992,388.6Z" transform="translate(37.457 231.512)" fill="#455a64"/>
    <path id="Trazado_7784" data-name="Trazado 7784" d="M150.816,363.99a11.989,11.989,0,0,1-.327,3.8,15.479,15.479,0,0,1-12.263,11.593,21.938,21.938,0,0,1-4.033.278H76.833l-10.368-.131H63.64a3.805,3.805,0,0,1-.98-.1,6.358,6.358,0,0,1,.98-.082l2.825-.082,10.368-.147,34.289-.163h23.072a20.306,20.306,0,0,0,3.919-.229,14.692,14.692,0,0,0,6.319-2.727,15.32,15.32,0,0,0,5.666-8.262,33.765,33.765,0,0,0,.718-3.756Z" transform="translate(39.653 230.342)" fill="#263238"/>
    <path id="Trazado_7785" data-name="Trazado 7785" d="M142.777,380.234a95.4,95.4,0,0,1-12.85.425,95.349,95.349,0,0,1-12.867-.425,98.969,98.969,0,0,1,12.867-.425,99.03,99.03,0,0,1,12.85.425Z" transform="translate(74.078 240.321)" fill="#263238"/>
    <path id="Trazado_7786" data-name="Trazado 7786" d="M213.27,405.7a6.306,6.306,0,0,1-.392-1.633c-.212-1.061-.49-2.6-.816-4.588-.669-4-1.633-9.8-2.678-16.916-.588-3.56-1.061-7.527-1.845-11.658-.212-1.029-.408-2.074-.62-3.151s-.62-2.09-.931-3.168c-.163-.523-.31-1.078-.474-1.633s-.408-1.061-.62-1.633c-.441-1.078-.833-2.172-1.306-3.266a59.408,59.408,0,0,0-7.8-12.491,56.28,56.28,0,0,0-11.74-10.581A52.449,52.449,0,0,0,169.8,328.13a53.537,53.537,0,0,0-14.516-2.482c-9.5-.212-18.157-.163-25.374-.261s-13.063-.18-17.112-.278c-2.025,0-3.592-.1-4.67-.163a6.319,6.319,0,0,1-1.633-.163,5.788,5.788,0,0,1,1.633-.18l4.67-.163c4.033-.1,9.895-.18,17.112-.261s15.822-.229,25.423-.1a53.707,53.707,0,0,1,14.973,2.466,52.523,52.523,0,0,1,14.7,7.037,56.261,56.261,0,0,1,12.083,10.924,60.461,60.461,0,0,1,7.952,12.916c.473,1.11.865,2.253,1.306,3.347.2.555.408,1.094.62,1.633s.31,1.11.474,1.633c.31,1.11.6,2.188.9,3.266s.408,2.172.6,3.266c.735,4.229,1.127,8.164,1.633,11.724.931,7.168,1.633,12.981,2.139,17,.229,2.008.408,3.576.506,4.637a5.914,5.914,0,0,1,.049,1.78Z" transform="translate(67.396 205.053)" fill="#455a64"/>
    <path id="Trazado_7787" data-name="Trazado 7787" d="M10.078,278.21s-2.645,7.4,2.416,12.752H23.026S22.1,279.01,10.078,278.21Z" transform="translate(5.94 176.058)" fill="#3088f4"/>
    <path id="Trazado_7788" data-name="Trazado 7788" d="M10.078,278.21s-2.645,7.4,2.416,12.752H23.026S22.1,279.01,10.078,278.21Z" transform="translate(5.94 176.058)" opacity="0.4"/>
    <path id="Trazado_7789" data-name="Trazado 7789" d="M23.1,268.885c-.441-.523-9.454,13.585-4.392,27.987h9.928S32.52,280.119,23.1,268.885Z" transform="translate(10.864 170.148)" fill="#3088f4"/>
    <path id="Trazado_7790" data-name="Trazado 7790" d="M36.24,278.21a12.917,12.917,0,0,0-12.05,12.752H34.1S38.445,284.856,36.24,278.21Z" transform="translate(15.308 176.058)" fill="#3088f4"/>
    <path id="Trazado_7791" data-name="Trazado 7791" d="M14.385,285.68A22.254,22.254,0,0,0,5.47,307.756c2.547,14.7,18.059,21.031,18.059,21.031H40.723s17.5-7.723,17.079-23.611S46.96,285.909,46.96,285.909Z" transform="translate(3.233 180.785)" fill="#455a64"/>
    <path id="Trazado_7792" data-name="Trazado 7792" d="M57.749,298.1a8.242,8.242,0,0,0-1.421-1.78,7.727,7.727,0,0,0-5.731-1.633,20.729,20.729,0,0,0-8.409,3.658,29.306,29.306,0,0,1-5.013,2.563,11.661,11.661,0,0,1-6.058.6c-4.2-.718-7.544-2.972-10.679-4.474a15.762,15.762,0,0,0-8.817-2.123,8.361,8.361,0,0,0-5.356,2.727A10.36,10.36,0,0,0,5.09,299.6,2.306,2.306,0,0,1,5.2,299a5.23,5.23,0,0,1,.8-1.633,8.4,8.4,0,0,1,5.535-3.1,15.787,15.787,0,0,1,9.307,2.074c3.266,1.5,6.531,3.674,10.466,4.327a10.815,10.815,0,0,0,5.65-.539,28.926,28.926,0,0,0,4.9-2.465,20.8,20.8,0,0,1,8.752-3.576,7.84,7.84,0,0,1,6.025,1.992,4.912,4.912,0,0,1,1.012,1.437C57.732,297.889,57.781,298.085,57.749,298.1Z" transform="translate(3.221 186.08)" fill="#263238"/>
    <path id="Trazado_7793" data-name="Trazado 7793" d="M57.658,300.442a8.916,8.916,0,0,0-1.4-1.763,7.508,7.508,0,0,0-5.682-1.633,20.512,20.512,0,0,0-8.311,3.641,28.028,28.028,0,0,1-4.9,2.58,11.427,11.427,0,0,1-6.009.6c-4.164-.718-7.478-2.972-10.581-4.474a15.391,15.391,0,0,0-8.7-2.123,8.3,8.3,0,0,0-5.307,2.743,9.6,9.6,0,0,0-1.143,1.943,2.8,2.8,0,0,1,.1-.6,5.46,5.46,0,0,1,.784-1.551,8.362,8.362,0,0,1,5.47-3.119,15.546,15.546,0,0,1,9.16,2.008c3.168,1.5,6.531,3.674,10.352,4.327a10.572,10.572,0,0,0,5.584-.539,27.784,27.784,0,0,0,4.817-2.466,20.418,20.418,0,0,1,8.67-3.576,7.678,7.678,0,0,1,5.878,1.992,4.895,4.895,0,0,1,1,1.421A1.907,1.907,0,0,1,57.658,300.442Z" transform="translate(3.557 187.576)" fill="#263238"/>
    <path id="Trazado_7794" data-name="Trazado 7794" d="M10.65,298.944c0-.1.457-.392,1.061.1a1.191,1.191,0,0,1,.343,1.306,1.372,1.372,0,0,1-2.629-.163,1.273,1.273,0,0,1,.376-1.257c.588-.49,1.094-.261,1.061-.163s-.359.18-.6.571a.67.67,0,0,0,0,.637.732.732,0,0,0,.555.441.7.7,0,0,0,.588-.359.588.588,0,0,0,0-.6C11.042,299.074,10.666,299.058,10.65,298.944Z" transform="translate(5.939 188.977)" fill="#263238"/>
    <path id="Trazado_7795" data-name="Trazado 7795" d="M22.581,295.144c0-.1.457-.408,1.078.1a1.225,1.225,0,0,1,.327,1.306,1.406,1.406,0,0,1-1.372.914,1.437,1.437,0,0,1-1.257-1.078,1.242,1.242,0,0,1,.392-1.257c.588-.49,1.094-.261,1.045-.163s-.359.18-.6.572a.718.718,0,0,0,0,.637.735.735,0,0,0,.221.292.744.744,0,0,0,.334.149.686.686,0,0,0,.342-.1.679.679,0,0,0,.246-.258.571.571,0,0,0,0-.6C22.972,295.274,22.6,295.258,22.581,295.144Z" transform="translate(13.489 186.572)" fill="#263238"/>
    <path id="Trazado_7796" data-name="Trazado 7796" d="M34.15,299.114c0-.1.457-.392,1.078.1a1.225,1.225,0,0,1,.327,1.306,1.406,1.406,0,0,1-1.372.914,1.438,1.438,0,0,1-1.257-1.061,1.274,1.274,0,0,1,.392-1.274c.588-.49,1.094-.261,1.045-.163s-.359.2-.6.571a.664.664,0,0,0-.154.24.655.655,0,0,0,.052.557.643.643,0,0,0,.2.207.654.654,0,0,0,.266.1.673.673,0,0,0,.285-.018.661.661,0,0,0,.416-.372.571.571,0,0,0,0-.6C34.542,299.261,34.183,299.228,34.15,299.114Z" transform="translate(20.811 189.084)" fill="#263238"/>
    <path id="Trazado_7797" data-name="Trazado 7797" d="M338.05,276.51l5.617,58.1h28.3l6.793-58.1Z" transform="translate(213.926 174.982)" fill="#455a64"/>
    <path id="Trazado_7798" data-name="Trazado 7798" d="M339.092,271.9a12.135,12.135,0,0,0-2.662,7.674h46.013a8.585,8.585,0,0,0-2.661-7.674Z" transform="translate(212.901 172.065)" fill="#263238"/>
    <path id="Trazado_7799" data-name="Trazado 7799" d="M341.877,268.675l-1.567,5.748,34.73.261-2.286-6.074Z" transform="translate(215.356 169.983)" fill="#263238"/>
    <path id="Trazado_7800" data-name="Trazado 7800" d="M337.74,285.41c0,.539,3.266,29.293,3.266,29.293h34.6l3.266-29.244Z" transform="translate(213.73 180.614)" fill="#3088f4"/>
  </g>
</svg>
