<svg xmlns="http://www.w3.org/2000/svg" width="183" height="183" viewBox="0 0 183 183"><g transform="translate(-248 -1383)"><circle cx="91.5" cy="91.5" r="91.5" transform="translate(248 1383)" fill="#fff" opacity="0.2"/><g transform="translate(283.659 1412.693)"><path d="M106.7,222.126h-1.415V165.338a5.521,5.521,0,0,0-5.514-5.514H77.616a1.621,1.621,0,0,0,0,3.243H99.77a2.274,2.274,0,0,1,2.272,2.272v56.787H8.622V165.338a2.275,2.275,0,0,1,2.272-2.272H33.067a1.621,1.621,0,0,0,0-3.243H10.894a5.52,5.52,0,0,0-5.514,5.514v56.787h-1.4A3.988,3.988,0,0,0,0,226.109a9.327,9.327,0,0,0,9.317,9.317h92.051a9.327,9.327,0,0,0,9.317-9.317A3.988,3.988,0,0,0,106.7,222.126ZM44.8,232.183a2.979,2.979,0,0,1,2.812-2H63.068a2.979,2.979,0,0,1,2.812,2Zm56.563,0H69.209a6.227,6.227,0,0,0-6.142-5.247H47.616a6.227,6.227,0,0,0-6.142,5.247H9.316a6.081,6.081,0,0,1-6.074-6.074.742.742,0,0,1,.741-.741H106.7a.741.741,0,0,1,.741.741,6.081,6.081,0,0,1-6.074,6.074Zm0,0" transform="translate(0 -125.273)" fill="#fff"/><path d="M73.426,58.567A7.524,7.524,0,0,0,71.8,62.205L69.344,78.261a3.642,3.642,0,0,0,6.439,2.831l6.443-8.02a4.274,4.274,0,0,1,2.364-1.485c.306,1.241.627,2.388.965,3.412A4.042,4.042,0,0,0,88.6,77.7,111.171,111.171,0,0,0,84.964,90.42H58.243V43.961H75.708a1.621,1.621,0,1,0,0-3.243H57.2a2.2,2.2,0,0,0-2.2,2.2V91.463a2.2,2.2,0,0,0,2.2,2.2h82.485a2.2,2.2,0,0,0,2.2-2.2V42.919a2.2,2.2,0,0,0-2.2-2.2H121.2a1.621,1.621,0,0,0,0,3.243h17.446V90.42H112.157a111.817,111.817,0,0,0-3.65-12.761A4.046,4.046,0,0,0,111.35,75c.338-1.023.66-2.17.965-3.412a4.277,4.277,0,0,1,2.364,1.485l6.443,8.02a3.642,3.642,0,0,0,2.221,1.308,3.587,3.587,0,0,0,.614.052,3.641,3.641,0,0,0,3.6-4.192L125.1,62.206a7.531,7.531,0,0,0-1.625-3.639l-8.223-10c.073-1.792.111-3.575.111-5.322a61.851,61.851,0,0,0-3.281-19.355c0-.012-.006-.024-.01-.037-.456-1.379-.945-2.716-1.453-4.009-.009-.022-.018-.044-.026-.067l-.223-.557c-.029-.072-.057-.143-.087-.214-.064-.159-.129-.317-.193-.474l-.151-.361c-.047-.114-.095-.228-.143-.341q-.156-.365-.312-.725L109.44,17q-.148-.338-.3-.67c-.012-.027-.024-.054-.036-.08A112.591,112.591,0,0,0,101.7,2.637q-.308-.5-.574-.929a.3.3,0,0,0-.017-.028l0-.007-.171-.279A2.882,2.882,0,0,0,98.452,0a2.941,2.941,0,0,0-.744.1,2.883,2.883,0,0,0-1.736,1.3c-.227.372-.484.787-.767,1.243a112.666,112.666,0,0,0-7.4,13.6c-.015.035-.03.068-.046.1-.094.211-.187.422-.281.636l-.062.142q-.153.352-.306.709l-.162.387c-.044.1-.088.209-.131.314-.068.164-.135.329-.2.494-.026.064-.052.128-.078.193-.077.191-.154.382-.23.575l-.016.041c-.512,1.3-1,2.64-1.461,4.026,0,.012-.006.024-.009.037a61.83,61.83,0,0,0-3.281,19.354c0,1.747.038,3.531.111,5.323Zm41.556-5.228,5.991,7.288A4.284,4.284,0,0,1,121.9,62.7l2.457,16.056a.4.4,0,0,1-.462.453.4.4,0,0,1-.242-.144l-6.444-8.02a7.512,7.512,0,0,0-4.19-2.619,126.946,126.946,0,0,0,1.967-15.085Zm-6.113,37.081H88.251c.629-3.139,2.51-8.895,3.732-12.633h2.755c.28.854.58,1.745.9,2.664a2.933,2.933,0,0,0,2.808,2h0a2.934,2.934,0,0,0,2.808-2c.318-.92.618-1.812.9-2.666h2.987c1.222,3.738,3.1,9.494,3.732,12.633ZM96.3,63.065c.22-1.072.491-2.29.806-3.619.271-1.149.578-2.395.91-3.7q.208-.813.426-1.653c1.869,7.142,2.929,12.279,2.882,14.037-.019.654-.289,2.5-1.9,7.546h0c-.3.937-.629,1.933-.983,2.972-.353-1.039-.682-2.035-.98-2.972h0c-1.608-5.043-1.877-6.892-1.895-7.546a26.058,26.058,0,0,1,.735-5.061Zm-3.5-49.744c.035-.068.07-.138.106-.205l.133-.255q.1-.186.193-.369l.076-.145c.089-.167.176-.334.264-.5l.016-.03c1.67-3.115,3.248-5.663,4.377-7.488q.256-.412.482-.779.225.367.482.779c1.194,1.93,2.89,4.668,4.666,8.03l.061.116.211.4c.038.074.077.149.116.223s.086.167.128.251a83.184,83.184,0,0,1,4.132,9.384H88.656a83.456,83.456,0,0,1,4.15-9.417Zm-5.248,12.66h21.79a57.964,57.964,0,0,1,2.777,17.262c0,1.905-.047,3.852-.134,5.8,0,.023,0,.045,0,.068-.43,9.519-1.838,19.168-3.717,24.869a.809.809,0,0,1-.768.559h-4.33a28.882,28.882,0,0,0,1.4-6.329c.084-3.079-2.092-11.744-3.93-18.471a2.252,2.252,0,0,0-2.195-1.675h0a2.252,2.252,0,0,0-2.195,1.677c-.486,1.783-.947,3.532-1.371,5.2-.338,1.327-.649,2.591-.924,3.758-.322,1.36-.6,2.609-.826,3.711a29.372,29.372,0,0,0-.8,5.8,28.9,28.9,0,0,0,1.394,6.331H89.4a.809.809,0,0,1-.768-.56c-1.879-5.7-3.287-15.351-3.717-24.869,0-.023,0-.045,0-.068-.087-1.952-.134-3.9-.134-5.8a57.964,57.964,0,0,1,2.777-17.262ZM83.889,68.423a7.521,7.521,0,0,0-4.19,2.619l-6.443,8.02a.4.4,0,0,1-.243.143.4.4,0,0,1-.462-.453L75.007,62.7a4.28,4.28,0,0,1,.924-2.069l5.991-7.288a126.937,126.937,0,0,0,1.967,15.085Zm0,0" transform="translate(-43.111)" fill="#fff"/><path d="M226.2,157.965a8.358,8.358,0,1,0-8.358-8.358A8.367,8.367,0,0,0,226.2,157.965Zm0-13.473a5.115,5.115,0,1,1-5.115,5.116A5.121,5.121,0,0,1,226.2,144.492Zm0,0" transform="translate(-170.748 -110.714)" fill="#fff"/></g></g></svg>