<svg xmlns="http://www.w3.org/2000/svg" xmlns:xlink="http://www.w3.org/1999/xlink" width="150" height="150" viewBox="0 0 150 150"><defs><clipPath id="a"><rect width="150" height="150" transform="translate(1465.5 1331)" fill="#fff" stroke="#707070" stroke-width="1"/></clipPath></defs><g transform="translate(-1465.5 -1331)" clip-path="url(#a)"><g transform="translate(1480.665 1344.279)"><path d="M119.184,73.9a6.054,6.054,0,0,0-5.026-4.048,11.508,11.508,0,0,0-4.01.222,36.045,36.045,0,0,1-6.179.812,119.182,119.182,0,0,0,12.617-30.011c4.187-16.209,1.949-23.593-.665-26.933C109,5.106,98.908.356,86.73.211A51.729,51.729,0,0,0,71.556,2.337a56.5,56.5,0,0,0-8.873-.812A28.847,28.847,0,0,0,47.227,5.333a70.472,70.472,0,0,0-10.916-2.74C25.638.841,17.036,2.206,10.744,6.651,3.125,12.033-.407,21.383.246,34.443.453,38.59,2.773,51.205,6.425,63.17a99.21,99.21,0,0,0,6.652,16.975c3.283,6.221,6.8,9.885,10.741,11.2A10.558,10.558,0,0,0,34.269,89.08a9.14,9.14,0,0,0,2.2,1.891,14.623,14.623,0,0,0,4.147,1.748,22.271,22.271,0,0,0,14.5-.863c.026.753.046,1.473.063,2.094.028,1.008.056,2,.093,2.92.251,6.249.676,11.108,1.936,14.508.069.187.162.472.26.774a17.466,17.466,0,0,0,4.353,7.668A12.985,12.985,0,0,0,71,123.235a20.64,20.64,0,0,0,4.293-.478c4.588-.984,9.8-2.482,13.57-7.849,3.564-5.074,5.3-12.717,5.61-24.76.041-.341.078-.666.114-.976l.075-.636.84.074.216.014a33.225,33.225,0,0,0,13.9-2.408c2.773-1.287,11.66-5.979,9.567-12.313" transform="translate(0)"/><path d="M112.325,76.268c-13.9,2.867-14.852-1.838-14.852-1.838,14.672-21.771,20.805-49.406,15.513-56.169-14.44-18.45-39.436-9.724-39.853-9.5L73,8.787a49.56,49.56,0,0,0-9.271-.966c-6.287-.1-11.057,1.648-14.676,4.393,0,0-44.59-18.37-42.516,23.1.441,8.823,12.646,66.758,27.2,49.259C39.059,78.177,44.2,72.767,44.2,72.767a13.494,13.494,0,0,0,8.814,2.251l.249-.211a9.71,9.71,0,0,0,.1,2.491c-3.75,4.19-2.648,4.925-10.145,6.469-7.586,1.563-3.13,4.346-.22,5.074,3.527.882,11.687,2.131,17.2-5.587l-.22.881c1.469,1.177,2.5,7.655,2.328,13.528s-.288,9.9.869,13.054,2.312,10.235,12.167,8.124c8.234-1.765,12.5-6.338,13.1-13.966.421-5.423,1.375-4.621,1.434-9.47l.765-2.3c.882-7.351.14-9.723,5.213-8.62l1.234.108a28.1,28.1,0,0,0,11.489-1.934c6.176-2.866,9.839-7.652,3.749-6.395h0" transform="translate(-1.132 -1.132)" fill="#336791"/><path d="M60.821,46.24a4.311,4.311,0,0,0-2.96.421,1.086,1.086,0,0,0-.449.722,2.11,2.11,0,0,0,.512,1.382A3.87,3.87,0,0,0,60.38,50.3a2.8,2.8,0,0,0,.393.027,3.185,3.185,0,0,0,3.017-2.052c.152-1.092-1.433-1.819-2.969-2.033m41.485.034c-.12-.856-1.642-1.1-3.087-.9s-2.842.852-2.725,1.71a2.93,2.93,0,0,0,2.723,1.805,2.6,2.6,0,0,0,.364-.025,3.51,3.51,0,0,0,1.981-1.084,2.183,2.183,0,0,0,.743-1.507" transform="translate(-10.291 -8.11)" fill="#fff"/><path d="M116.55,75.527c-.53-1.6-2.235-2.118-5.069-1.533-8.413,1.736-11.426.534-12.415-.195a115.677,115.677,0,0,0,14.821-33.239,63.157,63.157,0,0,0,2.2-14.293c.069-4.422-.685-7.671-2.238-9.656C107.583,8.61,98.393,4.318,87.267,4.2A45.535,45.535,0,0,0,71.9,6.622a38.3,38.3,0,0,0-8.645-1.11A24.976,24.976,0,0,0,48.445,9.6,66.131,66.131,0,0,0,36.406,6.438c-9.753-1.57-17.5-.38-23.033,3.538-6.6,4.675-9.646,13.033-9.055,24.839.2,3.972,2.462,16.192,6.034,27.894,4.7,15.4,9.812,24.122,15.19,25.916a6.8,6.8,0,0,0,2.155.357c1.962,0,4.366-.884,6.869-3.892q4.578-5.492,9.467-10.712a15.253,15.253,0,0,0,6.811,1.832c0,.062.011.124.016.186q-.613.731-1.2,1.484c-1.646,2.089-1.988,2.524-7.285,3.615-1.507.311-5.509,1.136-5.568,3.941-.064,3.065,4.731,4.352,5.277,4.489a22.6,22.6,0,0,0,5.486.712,15.966,15.966,0,0,0,10.988-4.1c-.092,10.927.364,21.695,1.676,24.975,1.075,2.686,3.7,9.249,11.992,9.249a19.236,19.236,0,0,0,4.029-.457c8.654-1.855,12.412-5.68,13.866-14.112.778-4.507,2.113-15.268,2.741-21.04a16.957,16.957,0,0,0,4.875.6A29.02,29.02,0,0,0,108.8,83.639c3.127-1.452,8.769-5.015,7.746-8.112ZM95.941,36.521a35.009,35.009,0,0,1-.512,4.866,44.942,44.942,0,0,0-.614,5.712,43.317,43.317,0,0,0,.452,6.46c.518,4.308,1.049,8.743-1.007,13.12A17.059,17.059,0,0,1,93.35,64.8c-.256-.62-.811-1.615-1.579-2.992-2.99-5.362-9.992-17.919-6.407-23.043,1.068-1.525,3.777-3.093,10.579-2.249ZM87.7,7.65c9.968.22,17.854,3.949,23.437,11.083,4.282,5.472-.433,30.371-14.083,51.851q-.206-.262-.414-.522l-.173-.216c3.527-5.825,2.838-11.589,2.224-16.7a40.045,40.045,0,0,1-.43-5.938,42.059,42.059,0,0,1,.576-5.3,33.456,33.456,0,0,0,.538-6.559,2.718,2.718,0,0,0,.057-.924c-.222-2.357-2.913-9.412-8.4-15.8A37.833,37.833,0,0,0,77.678,8.592,45.02,45.02,0,0,1,87.7,7.65ZM31.917,82.888c-2.757,3.315-4.66,2.679-5.287,2.471C22.552,84,17.818,75.376,13.645,61.7c-3.611-11.83-5.721-23.726-5.888-27.062-.527-10.55,2.03-17.9,7.6-21.853,9.067-6.429,23.973-2.581,29.963-.629-.086.085-.176.164-.261.251-9.829,9.926-9.6,26.886-9.572,27.923,0,.4.033.966.078,1.745a70.166,70.166,0,0,1-.357,14.174,17.925,17.925,0,0,0,4.724,15q.582.607,1.223,1.153c-1.684,1.8-5.344,5.792-9.24,10.479Zm10.5-14.014a14.5,14.5,0,0,1-3.8-12.144A73.355,73.355,0,0,0,39,41.875c-.025-.416-.047-.78-.059-1.068,1.436-1.273,8.09-4.838,12.835-3.751,2.165.5,3.485,1.97,4.033,4.507,2.839,13.131.376,18.6-1.6,23-.408.906-.793,1.762-1.122,2.648l-.255.685a44.9,44.9,0,0,0-1.619,4.871,12.251,12.251,0,0,1-8.793-3.9Zm.5,17.709a7.613,7.613,0,0,1-2.3-.988,11.219,11.219,0,0,1,2.447-.729c6.232-1.283,7.194-2.188,9.3-4.857.482-.612,1.028-1.306,1.784-2.15h0c1.127-1.262,1.642-1.048,2.576-.66a3.645,3.645,0,0,1,1.794,2.307,2.568,2.568,0,0,1-.22,2.159C53.91,87.811,47.513,87.732,42.918,86.582Zm32.614,30.349c-7.624,1.634-10.323-2.256-12.1-6.7-1.148-2.871-1.712-15.817-1.312-30.113a1.723,1.723,0,0,0-.074-.547,7.217,7.217,0,0,0-.213-1.01,6.98,6.98,0,0,0-3.787-4.542,5.341,5.341,0,0,0-3.486-.422,42.118,42.118,0,0,1,1.5-4.492l.257-.689c.289-.777.651-1.582,1.034-2.434,2.071-4.6,4.908-10.9,1.829-25.143-1.153-5.333-5-7.938-10.842-7.333a25.019,25.019,0,0,0-8.3,2.584c-.343.174-.657.342-.951.506.446-5.373,2.13-15.416,8.429-21.769,3.967-4,9.249-5.975,15.685-5.869A33.247,33.247,0,0,1,88.6,21.093a38.553,38.553,0,0,1,6.951,11.92c-6.427-.654-10.8.615-13.014,3.783-4.821,6.891,2.637,20.266,6.221,26.694.657,1.178,1.225,2.2,1.4,2.629a23.868,23.868,0,0,0,3.781,6.1c.338.422.666.832.916,1.19-1.947.561-5.443,1.858-5.124,8.339C89.482,85,87.655,100.221,86.726,105.6c-1.226,7.107-3.841,9.754-11.194,11.331Zm31.822-36.416a25.108,25.108,0,0,1-8.486,1.766c-3.5.164-5.274-.392-5.693-.733-.2-4.039,1.307-4.461,2.9-4.908.25-.07.494-.139.729-.221a5.945,5.945,0,0,0,.482.353c2.809,1.854,7.819,2.054,14.893.594l.078-.015a19.044,19.044,0,0,1-4.9,3.164Z" transform="translate(-0.733 -0.717)" fill="#fff"/></g></g></svg>