<svg xmlns="http://www.w3.org/2000/svg" xmlns:xlink="http://www.w3.org/1999/xlink" width="844.367" height="789.038" viewBox="0 0 844.367 789.038"><defs><linearGradient id="a" x1="1.63" y1="-0.826" x2="0.696" y2="0.315" gradientUnits="objectBoundingBox"><stop offset="0" stop-color="#9feab2"/><stop offset="1" stop-color="#6ad4ab"/></linearGradient><linearGradient id="b" x1="0.44" y1="0.662" x2="1.479" y2="-0.006" gradientUnits="objectBoundingBox"><stop offset="0" stop-color="#67d690"/><stop offset="1" stop-color="#00a99d"/></linearGradient><linearGradient id="c" x1="0.652" y1="1.355" x2="0.308" y2="-0.317" xlink:href="#b"/><linearGradient id="d" x1="1.569" y1="-3.264" x2="0.443" y2="0.681" xlink:href="#b"/><linearGradient id="e" x1="1.766" y1="-0.739" x2="-1.475" y2="2.363" xlink:href="#a"/><linearGradient id="f" x1="-3.291" y1="6.066" x2="2.371" y2="-2.148" xlink:href="#a"/><linearGradient id="g" x1="-1.921" y1="6.567" x2="2.646" y2="-4.883" xlink:href="#a"/><linearGradient id="h" x1="2.952" y1="-6.137" x2="-0.281" y2="2.587" xlink:href="#b"/><linearGradient id="i" x1="-117.261" y1="0.959" x2="-116.1" y2="-0.256" xlink:href="#b"/><linearGradient id="j" x1="-129.104" y1="-17.527" x2="-127.821" y2="-18.589" xlink:href="#b"/><linearGradient id="k" x1="-139.485" y1="-39.281" x2="-138.088" y2="-40.278" xlink:href="#b"/><linearGradient id="l" x1="-115.277" y1="-65.352" x2="-113.98" y2="-66.453" xlink:href="#b"/><linearGradient id="m" x1="1.161" y1="1.496" x2="0.332" y2="0.412" xlink:href="#b"/><linearGradient id="n" x1="-216.312" y1="-1.209" x2="-216.312" y2="-3.204" gradientUnits="objectBoundingBox"><stop offset="0" stop-color="#fe4500"/><stop offset="1" stop-color="#efdb29"/></linearGradient><linearGradient id="o" x1="0.073" y1="1.6" x2="0.879" y2="-0.476" gradientUnits="objectBoundingBox"><stop offset="0" stop-color="#36078b"/><stop offset="1" stop-color="#16b1ff"/></linearGradient><linearGradient id="p" y1="0.495" x2="1" y2="0.495" gradientUnits="objectBoundingBox"><stop offset="0" stop-color="#fea600"/><stop offset="1" stop-color="#efdb29"/></linearGradient><linearGradient id="q" x1="0.5" y1="1.777" x2="0.5" y2="-0.088" gradientUnits="objectBoundingBox"><stop offset="0" stop-color="#00fef6"/><stop offset="1" stop-color="#29a0ef" stop-opacity="0"/></linearGradient><linearGradient id="r" x1="0.5" y1="0.946" x2="0.5" y2="-3.795" xlink:href="#o"/><linearGradient id="s" x1="0.278" y1="11.89" x2="0.565" y2="7.965" xlink:href="#o"/></defs><g transform="translate(-739.065 -45.051)"><ellipse cx="337.243" cy="7.799" rx="337.243" ry="7.799" transform="translate(908.947 818.492)" fill="#ccd9f8"/><path d="M138.4,381.306c0,2.252,22.708,4.066,50.713,4.066s50.692-1.814,50.692-4.066-22.687-4.066-50.692-4.066S138.4,379.054,138.4,381.306Z" transform="translate(712.369 409.39)" fill="#ccd9f8"/><path d="M445.935,236.185c-13.325,19.476-17.641,32.738-.772,34.406s38.577-41.7,26.065-50.045C462.408,214.687,452.295,226.906,445.935,236.185Z" transform="translate(1033.32 237.682)" fill="url(#a)"/><g transform="translate(1430.572 383.799)"><path d="M482.816,194.782c10.218-3.19,14.3,4.17,13.325,9.9-1.4,8.07-5.776,8.987,4.984,15.952,7.945,5.13,9.821,15.785.855,21.123-12.511,7.465.834,13.241,3.733,19.643,6.026,13.2-3.837,16.432-19.768,22.937-16.369,6.819-28.547,3.482-40.036-6.944-8.445-7.694-13.471-16.369-8.341-24.209,7.277-11.281,19.2-3.628,14.6-14.6-2.773-6.568-3.044-18.767,11.886-19.872S468.094,199.39,482.816,194.782Z" transform="translate(-395.786 -173.256)" fill="url(#b)"/><path d="M442.741,184.522c-12.866-2.69-16.974,6.86-15.1,13.7,2.648,9.675,8.112,10.28-4.17,20.06-9.092,7.236-10.113,20.477,1.46,25.919,16.181,7.632.563,16.286-2.231,24.439-5.776,16.849,6.652,19.622,26.9,25.753,20.852,6.256,35.449.813,48.085-13.262,9.383-10.426,14.6-21.582,7.382-30.569-10.238-12.908-23.876-2.085-19.538-16.1,2.606-8.341,1.46-23.334-16.89-22.937S461.383,188.4,442.741,184.522Z" transform="translate(-416.453 -184.057)" fill="url(#c)"/><path d="M445.433,298.258h38.222a9.738,9.738,0,0,0,9.592-8.153l8.341-51.442a1.919,1.919,0,0,0-1.9-2.252H429.252a1.939,1.939,0,0,0-1.918,2.252l8.341,51.442a9.7,9.7,0,0,0,9.759,8.153Z" transform="translate(-404.674 -127.242)" fill="#0050c8"/></g><path d="M438.394,211.749c11.907,3.607,21.811,8.57,14.117,12.073s-34.469-7.632-30.736-12.511C424.423,208.058,432.722,210.018,438.394,211.749Z" transform="translate(1019.508 227.42)" fill="url(#d)"/><path d="M429.923,197.685c2.732,7.486,5.547,11.3,9.321,6.985s-3.878-18.767-8.633-17.036C427.254,188.907,428.63,194.1,429.923,197.685Z" transform="translate(1027.207 203.47)" fill="url(#e)"/><path d="M460.359,203.248c-2.919,7.423-3.336,12.136,2.356,11.406s9.571-16.682,4.817-18.475C464.175,194.907,461.756,199.7,460.359,203.248Z" transform="translate(1059.495 212.671)" fill="url(#f)"/><path d="M470.542,221.589c5.171-4.608,7.34-8.091,2.648-9.759s-13.95,9.154-10.968,12.407C464.307,226.552,468.06,223.779,470.542,221.589Z" transform="translate(1063.158 229.695)" fill="url(#g)"/><path d="M441.879,210.1c-4.692-1.585-7.611-1.689-6.985,1.793s10.614,5.422,11.594,2.419C447.176,212.186,444.11,210.851,441.879,210.1Z" transform="translate(1034.039 226.858)" fill="url(#h)"/><path d="M107,425.957H611.749V123.6H107Zm496.846-7.9H114.924V131.566H603.846Z" transform="translate(678.293 134.134)" fill="#99c1f9"/><rect width="496.846" height="294.392" transform="translate(1293.462 556.15) rotate(180)" fill="#d8e7fc"/><g transform="translate(817.426 313.088)" opacity="0.7"><path d="M289.052,166.523a4.858,4.858,0,0,1-1.293-3.879c.48-2.085,3.295-3.441,7.528-3.816a5.109,5.109,0,0,1-.73-3.607c1.251-5.734,15.514-6.756,31.841-2.315a79.587,79.587,0,0,1,15.493,5.943,3.711,3.711,0,0,1,0-2.085c1.481-4.17,12.511-3.461,24.71,1.814a67.143,67.143,0,0,1,8.216,4.17c.938-1.689,5.734-1.585,11.073.292a24.689,24.689,0,0,1,6.9,3.587l42.5,2.627H246.68Z" transform="translate(12.451 -150.146)" fill="#fff"/><path d="M210.063,221.4a3.336,3.336,0,0,1-.9-2.648c.334-1.46,2.273-2.356,5.171-2.607a3.587,3.587,0,0,1-.5-2.481c.855-3.92,10.614-4.629,21.791-1.564a54.219,54.219,0,0,1,10.614,4.045,2.523,2.523,0,0,1,0-1.418c1-2.919,8.591-2.356,16.911,1.23a48.873,48.873,0,0,1,5.63,2.9c.646-1.147,3.92-1.084,7.569.209a16.91,16.91,0,0,1,4.733,2.461l29.089,1.793H181.12Z" transform="translate(-58.697 -84.979)" fill="#fff"/><path d="M184.112,211.348a5.693,5.693,0,0,1-.563-3.461c.73-3.733,6.256-5.526,13.888-5.234a10.988,10.988,0,0,1-.292-5.234c2.627-13.366,32.509-15.785,66.727-5.4a166,166,0,0,1,18.35,6.756,9.821,9.821,0,0,1-.313-4.754c1.835-9.342,19.059-12.511,41.246-8.654a3.2,3.2,0,0,1,.209-.855c3.253-10.426,26.9-8.862,53.486,3.295,6.631-2.69,20.143-.834,34.761,5.4a91.359,91.359,0,0,1,21.1,12.344,4.17,4.17,0,0,1-.354-2.711c1.063-3.816,9.863-3.524,19.664.646a40.287,40.287,0,0,1,13.325,8.737l55.133,4.17H122.41Z" transform="translate(-122.41 -120.361)" fill="#fff"/></g><path d="M289.871,419.933H375.3L222.852,125.52H137.42Z" transform="translate(711.305 136.217)" fill="#f8fff8" opacity="0.3"/><path d="M272.5,419.933H293.52L141.069,125.52H120.05Z" transform="translate(692.455 136.217)" fill="#f8fff8" opacity="0.3"/><path d="M412.512,419.933h21.019L281.08,125.52H260.04Z" transform="translate(844.375 136.217)" fill="#f8fff8" opacity="0.3"/><path d="M110.54,425.957H615.289V123.6H110.54Zm496.846-7.9H118.443V131.566H607.386Z" transform="translate(682.134 134.134)" fill="#d8e7fc"/><g transform="translate(825.934 437.063)" opacity="0.8"><rect width="52.277" height="69.459" transform="translate(103.385 45.666)" fill="#56a8ed"/><rect width="42.288" height="38.41" transform="translate(0 76.715)" fill="#62afef"/><rect width="23.5" height="69.459" transform="translate(94.565 45.666)" fill="#7abaf9"/><rect width="52.277" height="115.125" transform="translate(42.309)" fill="#56a8ed"/><rect width="5.547" height="69.459" transform="translate(94.565 45.666)" fill="#62afef"/><rect width="23.48" height="115.125" transform="translate(33.51)" fill="#7abaf9"/><rect width="37.576" height="7.966" transform="translate(94.565 28.151) rotate(180)" fill="#7abaf9"/><rect width="37.576" height="7.966" transform="translate(94.565 42.643) rotate(180)" fill="#7abaf9"/><rect width="37.576" height="7.966" transform="translate(94.565 57.156) rotate(180)" fill="#7abaf9"/><rect width="37.576" height="7.966" transform="translate(94.565 71.627) rotate(180)" fill="#7abaf9"/><rect width="37.576" height="7.966" transform="translate(94.565 86.141) rotate(180)" fill="#7abaf9"/><rect width="37.576" height="7.966" transform="translate(94.565 100.633) rotate(180)" fill="#7abaf9"/><rect width="37.576" height="7.966" transform="translate(56.989 107.16)" fill="#7abaf9"/><rect width="37.576" height="7.966" transform="translate(94.565 13.637) rotate(180)" fill="#7abaf9"/><path d="M203.65,256.718v34.865h52.256V240.14H218.33Z" transform="translate(-42.754 -176.457)" fill="#56a8ed"/><path d="M199.43,266.664v24.918h23.48V240.14l-14.68,16.578-5.255,5.943Z" transform="translate(-47.334 -176.457)" fill="#7abaf9"/><rect width="37.576" height="7.966" transform="translate(213.172 71.627) rotate(180)" fill="#7abaf9"/><rect width="37.576" height="7.966" transform="translate(213.172 86.141) rotate(180)" fill="#7abaf9"/><rect width="37.576" height="7.966" transform="translate(213.172 100.633) rotate(180)" fill="#7abaf9"/><rect width="37.576" height="7.966" transform="translate(175.597 107.16)" fill="#7abaf9"/><rect width="47.043" height="9.217" transform="translate(150.428 45.666) rotate(180)" fill="#56a8ed"/><rect width="29.131" height="9.217" transform="translate(141.482 37.346) rotate(180)" fill="#56a8ed"/><rect width="35.678" height="17.891" transform="translate(232.607 97.255)" fill="#56a8ed"/><rect width="16.035" height="17.891" transform="translate(226.601 97.255)" fill="#7abaf9"/><rect width="34.364" height="9.425" transform="translate(264.74 97.234) rotate(180)" fill="#56a8ed"/><rect width="11.093" height="11.698" transform="translate(254.21 88.434) rotate(180)" fill="#56a8ed"/><rect width="2.773" height="11.219" transform="translate(256.983 103.907)" fill="#62afef"/></g><path d="M175.1,364.671c11.823-7.549-3.316-30.59-30.861-32.821a55.281,55.281,0,0,0-.25,22.937C146.307,363.962,158.527,375.2,175.1,364.671Z" transform="translate(717.265 360.131)" fill="url(#i)"/><path d="M179.244,370.24c13.783-2.669,8.112-29.673-16.682-41.83a55.134,55.134,0,0,0-8.612,21.228C152.616,359.042,159.872,373.993,179.244,370.24Z" transform="translate(729.077 356.398)" fill="url(#j)"/><path d="M178.355,370.49c12.219,3.441,18.6-20.706,3.462-40.62a50.046,50.046,0,0,0-15.6,13.679C161.423,350.66,161.214,365.715,178.355,370.49Z" transform="translate(739.517 357.983)" fill="url(#k)"/><path d="M176.672,364.245c8.529,7.569,23.167-9.4,18.767-31.445a44.935,44.935,0,0,0-17.975,4.9C170.812,341.558,164.723,353.631,176.672,364.245Z" transform="translate(746.517 361.162)" fill="url(#l)"/><path d="M238.553,391.811c46.855-18.371,9.384-109.954-86.057-136.791,0,0-18.767,40.7-16.682,80.51C137.545,369.52,172.848,417.626,238.553,391.811Z" transform="translate(709.387 276.754)" fill="url(#m)"/><path d="M148.25,260.993a84.807,84.807,0,0,1,21.811,22.937,60.786,60.786,0,0,1,4.17,6.631,75.426,75.426,0,0,1,3.9,6.8c1.105,2.4,2.273,4.733,3.441,7.069l1.731,3.5,1.376,3.691a202.624,202.624,0,0,1,9.238,29.985c.98,5.171,2.085,10.3,3.17,15.452l1.856,15.723c.292,2.627.813,5.213.959,7.861l.4,7.945c.292,5.3.5,10.593.855,15.91-.146,10.655,0,21.332-.313,32.05-.292,5.359-.688,10.7-.876,16.077l-.334,8.091-.167,4.045-.375,4.024-1.293,16.2-.646,8.132-.4,8.195.771.146,5.63-32.071.709-4.024.438-4.045.9-8.091,1.772-16.2.438-4.045.167-4.066.313-8.153.626-16.286-.6-16.286-.313-8.153c-.125-2.711-.6-5.4-.876-8.112l-2.085-16.181-3.524-15.931a180.833,180.833,0,0,0-10.8-30.778l-1.626-3.733-1.981-3.566-4-7.131c-1.293-2.4-3.065-4.5-4.567-6.777a61.969,61.969,0,0,0-4.9-6.527,79.739,79.739,0,0,0-24.71-21.123Z" transform="translate(723.058 282.353)" fill="#e2e2e2"/><path d="M178.732,353.276c-35.657-13.992-7.131-83.722,65.518-104.136,0,0,14.242,30.966,12.657,61.285C255.552,336.3,228.694,372.856,178.732,353.276Z" transform="translate(739.515 270.372)" fill="#39c296"/><path d="M233.821,253.14a212.192,212.192,0,0,0-19.288,27.712c-2.752,4.9-5.5,9.821-7.986,14.889l-3.816,7.548-3.524,7.694A378.053,378.053,0,0,0,177.353,375c-1.272,5.484-2.335,11.031-3.5,16.557l-1.689,8.341-1.293,8.341-2.356,16.682c-.542,5.588-.959,11.219-1.355,16.849l-.6,8.341c-.125,2.815-.125,5.63-.209,8.445L166.03,475.4c0,5.609.563,11.239.813,16.849s.688,11.177,1.189,16.682h.6c.209-11.156,0-22.312.542-33.468l1.063-16.682c.188-2.773.313-5.568.563-8.341l.959-8.341,1.918-16.682,2.711-16.181L177.77,401l1.752-8.195c1.209-5.442,2.315-10.906,3.607-16.327A469.168,469.168,0,0,1,203.5,312.736a318.123,318.123,0,0,1,30.778-59.241Z" transform="translate(742.354 274.713)" fill="#e2e2e2"/><path d="M232.821,383.741C300.174,363.1,257.656,231.249,127.309,183.56c0,0-30.444,54.779-31.779,110.517C94.446,341.828,138.507,412.643,232.821,383.741Z" transform="translate(665.824 199.204)" fill="#5ed291"/><path d="M116.5,192.1q3.712,5.151,7.048,10.551c2.377,3.5,4.567,7.111,6.735,10.718s4.3,7.257,6.256,10.968,4.17,7.277,5.964,11.114c3.816,7.486,7.84,14.826,11.177,22.541,1.731,3.816,3.566,7.569,5.359,11.344l4.838,11.594,4.817,11.573,4.358,11.74,4.379,11.74c1.46,3.92,2.544,7.966,3.816,11.927s2.565,7.945,3.837,11.927l1.939,5.943c.6,2.085,1.084,4.025,1.627,6.047l6.381,24.209c1.918,8.112,3.524,16.327,5.317,24.48.834,4.17,1.835,8.153,2.544,12.261s1.189,8.341,1.9,12.386c1.293,8.341,2.836,16.515,3.941,24.793.771,8.341,1.71,16.682,2.669,25.023l1.418,12.511L213.484,500l1.564,25.21c1.022,16.869.375,33.739,1.355,50.8h.917l1.481-25.4.751-12.7c.271-4.17.563-8.466.417-12.7l-.209-25.461v-12.72l-.938-12.678-1.877-25.4c-.917-8.341-2.273-16.807-3.378-25.231l-1.752-12.511c-.667-4.17-1.647-8.341-2.461-12.511-1.731-8.341-3.295-16.682-5.171-25.023a540.586,540.586,0,0,0-33.53-95.92c-14.346-30.715-31.278-60.471-53.4-86.37Z" transform="translate(688.602 207.701)" fill="#e2e2e2"/><path d="M206.126,367.309c41.183-29.8-18.6-109.912-118.712-112.039,0,0-8.007,44.5,4.17,82.929C101.865,370.9,148.47,409.013,206.126,367.309Z" transform="translate(654.234 277.025)" fill="#3cc395"/><path d="M91.9,259.786a210.061,210.061,0,0,1,28.3,22.937l6.631,6.256,6.256,6.506c4.3,4.17,8.132,8.9,12.053,13.47a407.694,407.694,0,0,1,41.225,59.137l8.675,15.848a88.149,88.149,0,0,1,4.024,8.07l3.837,8.195,3.92,8.174c.646,1.355,1.335,2.711,1.939,4.17l1.689,4.171c2.189,5.63,4.525,11.2,6.923,16.786s4.337,11.3,6.256,17.036l5.985,17.245c3.858,11.552,6.923,23.354,10.947,35.011l.646-.125c-2.732-11.927-5.234-23.917-8.174-35.8l-5.192-17.62c-1.772-5.859-3.336-11.8-5.63-17.5l-6.381-17.224-1.606-4.316c-.584-1.418-1.251-2.794-1.856-4.17l-3.774-8.341-3.774-8.341a91.5,91.5,0,0,0-4.024-8.341L192.2,364.652a341.974,341.974,0,0,0-43.206-59.345c-4.17-4.462-8.341-9.008-12.866-13.116l-6.694-6.256-7.027-5.943A182.392,182.392,0,0,0,92.129,259.14Z" transform="translate(661.906 281.225)" fill="#e2e2e2"/><path d="M172.623,257.215a62.137,62.137,0,0,0-15.785-8.445c-2.711-1.168-5.547-1.9-8.341-2.794s-5.714-1.335-8.591-1.981a92.337,92.337,0,0,0-17.662-1.355,51.775,51.775,0,0,0-17.724,3.295v.626a175.3,175.3,0,0,1,34.365,3.566,327.755,327.755,0,0,1,33.676,7.695Z" transform="translate(675.601 263.299)" fill="#e2e2e2"/><path d="M160.639,241.215a46.356,46.356,0,0,0-11.823-9.425,67.357,67.357,0,0,0-6.568-3.378c-2.252-.98-4.567-1.793-6.86-2.669a68.562,68.562,0,0,0-14.6-2.961,39.328,39.328,0,0,0-15.18,1.376v.626a149.389,149.389,0,0,1,27.921,6.86,275.254,275.254,0,0,1,26.92,10.134Z" transform="translate(676.784 241.535)" fill="#e2e2e2"/><path d="M155,263.116a49.419,49.419,0,0,0,4.587-8.862c1.147-2.857,2.21-5.588,3.107-8.216.334-1.4.9-2.627,1.334-3.92l.646-1.939a13.472,13.472,0,0,0,.73-1.877,41.5,41.5,0,0,1,4.17-8.07l-.209-.542a18,18,0,0,0-7.632,5.9,30.529,30.529,0,0,0-4.462,8.57,58.032,58.032,0,0,0-2.878,18.955Z" transform="translate(729.718 249.265)" fill="#e2e2e2"/><path d="M144.941,240.379a34.223,34.223,0,0,0,1.856-7.465c.417-2.335.563-4.608.813-6.777s.334-4.3.542-6.256a27.108,27.108,0,0,1,1.606-6.777l-.25-.354a13.158,13.158,0,0,0-4.483,5.88,24.1,24.1,0,0,0-1.71,7.236,53.634,53.634,0,0,0,1.209,14.722Z" transform="translate(717.61 230.881)" fill="#e2e2e2"/><path d="M155.318,420.848h57.948a5.672,5.672,0,0,0,5.63-5.025l7.986-67.1a5.693,5.693,0,0,0-5.651-6.36h-73.9a5.672,5.672,0,0,0-5.63,6.36l7.966,67.1A5.714,5.714,0,0,0,155.318,420.848Z" transform="translate(715.907 371.537)" fill="#3f71e2"/><path d="M143.59,358.582h88.83a3.753,3.753,0,0,0,3.712-3.169l1.731-11.406a3.733,3.733,0,0,0-3.691-4.317H141.943a3.754,3.754,0,0,0-3.691,4.317L140,355.413a3.712,3.712,0,0,0,3.587,3.169Z" transform="translate(712.162 368.639)" fill="#0050c8"/><path d="M179.469,287.548H825.721a10.76,10.76,0,0,0,10.739-10.739h0a10.76,10.76,0,0,0-10.739-10.739H179.469a10.739,10.739,0,0,0-10.739,10.739h0A10.739,10.739,0,0,0,179.469,287.548Z" transform="translate(745.284 288.745)" fill="#d8e7fc"/><path d="M408.469,287.548H577.205a10.76,10.76,0,0,0,10.739-10.739h0a10.76,10.76,0,0,0-10.739-10.739H408.469a10.739,10.739,0,0,0-10.739,10.739h0A10.739,10.739,0,0,0,408.469,287.548Z" transform="translate(993.8 288.745)" fill="#99c1f9"/><rect width="21.499" height="249.977" transform="translate(1544.919 576.272)" fill="#99c1f9"/><rect width="21.499" height="249.935" transform="translate(1406.94 576.314)" fill="#99c1f9"/><rect width="10.76" height="249.935" transform="translate(1406.94 576.314)" fill="#d8e7fc"/><rect width="21.499" height="249.935" transform="translate(929.34 576.314)" fill="#99c1f9"/><rect width="21.457" height="249.977" transform="translate(1067.34 576.272)" fill="#d8e7fc"/><rect width="10.76" height="249.935" transform="translate(929.34 576.314)" fill="#d8e7fc"/><path d="M492.778,276.37v6.881L471.3,298.6V276.37Z" transform="translate(1073.64 299.923)" fill="#d8e7fc"/><path d="M405.12,276.37H426.6v6.881L405.12,298.6Z" transform="translate(1001.819 299.923)" fill="#d8e7fc"/><path d="M242.26,276.37h21.478v6.881L242.26,298.6Z" transform="translate(825.08 299.923)" fill="url(#n)"/><path d="M197.558,276.37v6.881L176.08,298.6V276.37Z" transform="translate(753.26 299.923)" fill="#d8e7fc"/><path d="M524.412,302.64H325.92l14.6-129.2H538.988Z" transform="translate(915.87 188.221)" fill="#55a4ff" opacity="0.3"/><path d="M343.983,177.9l-2.106,18.642-14.6,129.18H525.772l14.6-129.18,2.085-18.642Z" transform="translate(917.346 193.061)" fill="#99c1f9" opacity="0.4"/><path d="M524.412,314.67H325.92l14.6-129.2H538.988Z" transform="translate(915.87 201.276)" opacity="0.6" fill="url(#o)"/><path d="M516.347,276.467H328.99l7.048-62.557H523.416Z" transform="translate(919.201 232.14)" fill="#fff"/><path d="M384.986,266.836H331.5l5.734-50.8H390.72Z" transform="translate(921.925 234.452)" fill="#57afff"/><path d="M387.439,252.27H344.4l4.629-40.87h43.018Z" transform="translate(935.925 229.416)" fill="#164dd6" opacity="0.7"/><path d="M374.076,216.947H332.83l1.543-13.637h41.246Z" transform="translate(923.369 220.637)" fill="#f9f4ea"/><path d="M355.842,206.318H335.97l.229-1.9h19.872Z" transform="translate(926.776 221.841)" fill="url(#p)"/><path d="M446.885,240.794H393.42l3.232-28.734h53.486Z" transform="translate(989.122 230.132)" fill="#57afff"/><path d="M446.546,230.034H393.06l.25-2.064h53.465Z" transform="translate(988.732 247.398)" fill="#33333d"/><path d="M446.316,232.074H392.83l.25-2.064h53.465Z" transform="translate(988.482 249.612)" fill="#33333d"/><path d="M397.436,214.647H356.19l1.543-13.637h41.246Z" transform="translate(948.72 218.141)" fill="#f9f4ea"/><path d="M475.016,216.947H385.08l1.543-13.637h89.936Z" transform="translate(980.072 220.637)" fill="#51cc93"/><path d="M421.513,206.318H387.19l.229-1.9h34.3Z" transform="translate(982.361 221.841)" fill="#f9f4ea"/><path d="M421.323,208.028H387l.209-1.9h34.323Z" transform="translate(982.155 223.697)" fill="#f9f4ea"/><path d="M515.367,209.089H328.01l2.127-18.809H517.494Z" transform="translate(918.138 206.496)" fill="#fff"/><path d="M423.707,205.157H410.07l1.543-13.637H425.25Z" transform="translate(1007.191 207.842)" fill="#84deae"/><path d="M414.347,205.157H400.71l1.543-13.637H415.89Z" transform="translate(997.034 207.842)" fill="#57afff"/><path d="M404.977,205.157H391.34l1.543-13.637H406.52Z" transform="translate(986.865 207.842)" fill="#57afff"/><path d="M376.151,194.467H331.34l.292-2.627h44.811Z" transform="translate(921.752 208.189)" fill="#57afff"/><path d="M375.912,196.707H331.08l.313-2.627H376.2Z" transform="translate(921.47 210.62)" fill="#57afff"/><path d="M350.7,198.947H330.83l.292-2.627h19.872Z" transform="translate(921.198 213.051)" fill="#57afff"/><path d="M416.715,249.754H363.25l3.232-28.714h53.465Z" transform="translate(956.381 239.878)" fill="#57afff"/><path d="M416.376,239H362.89l.229-2.064h53.486Z" transform="translate(955.991 257.133)" fill="#33333d"/><path d="M416.146,241.034H362.66l.229-2.044h53.486Z" transform="translate(955.741 259.357)" fill="#33333d"/><path d="M398.778,236.841h-20.5L380.3,218.95h20.5Z" transform="translate(972.692 237.61)" fill="#164dd6" opacity="0.7"/><path d="M531.392,195.161H332.92l2.106-18.621H533.5Z" transform="translate(923.466 191.585)" fill="#d3d3d3"/><path d="M526.021,186.8H334.89l.688-6.151H526.731Z" transform="translate(925.604 196.046)" fill="#f2f2f2"/><path d="M338.52,181.32h-3.19l.375-3.19h3.19Z" transform="translate(926.082 193.311)" fill="#f9f4ea"/><path d="M341.25,181.32h-3.19l.355-3.19h3.19Z" transform="translate(929.044 193.311)" fill="#f9f4ea"/><path d="M343.97,181.32h-3.19l.354-3.19h3.211Z" transform="translate(931.996 193.311)" fill="#f9f4ea"/><path d="M358.6,342.781,328.01,177.59H541.662L391.672,342.781Z" transform="translate(918.138 192.725)" fill="url(#q)"/><path d="M379.912,258.43H360.04a32.241,32.241,0,0,0-26.674,14.123l-1.226,1.808h75.694l-1.23-1.814A32.237,32.237,0,0,0,379.912,258.43Z" transform="translate(922.62 280.454)" fill="#3f71e2"/><path d="M368.964,260.228c0,.646-5.505,1.168-12.282,1.168s-12.282-.521-12.282-1.168,5.505-1.168,12.282-1.168S368.964,259.581,368.964,260.228Z" transform="translate(935.925 281.138)" opacity="0.4" fill="url(#r)"/><path d="M304.14,386.395c1.293,2.085,1.439,5.568,9.446,8.549s24.689,3.774,15.6,7.194a43.893,43.893,0,0,1-21.707,2.273c-5.484-.563-8.716.292-15.16.563-8.466.375-8.57-.125-7.882-9.4C285.394,382.808,299.97,379.409,304.14,386.395Z" transform="translate(870.568 415.457)" fill="#231a66"/><path d="M284.807,479.827c13.825-47.46,20.247-136.249,44.061-170.988,15.139-22.041,44.54-13.345,33.655,16.223-11.656,31.591-41.162,90.6-57.7,153.556C303.2,484.853,283.222,485.395,284.807,479.827Z" transform="translate(871.155 321.753)" fill="#3f71e2"/><path d="M400.114,337.664c12.657-4.671,23.6-47.96-22.937-42.1-20.665,2.586-93.668,8.112-104.678,9.446s-27.108,4.024-28.776,9.655c-8.779,28.13,25.377,53.423,66.477,44.228C337.557,352.74,373.8,347.339,400.114,337.664Z" transform="translate(825.161 320.161)" fill="#3f71e2"/><path d="M306.663,276.111c-6.756,5.15-13.992,5.046-33.822,7.423-28.547,3.42-35.553,2.4-53.715-1.752-11.844-2.711-2.523-28.568,13.888-29.193,13.867-.6,62.161,14.013,70.606,13.617C309.207,265.852,312.23,271.94,306.663,276.111Z" transform="translate(794.187 274.096)" fill="url(#s)"/><path d="M214.454,305.232c1.23-6.527,6.256-20.623,26.753-50.588A233.542,233.542,0,0,1,265,224.388c8.195-9.008,20.393-5.943,23.25-.209,4.567,9.238,4.525,24.856.5,29.84-22.625,28.151-41.7,48.4-46.021,56.176C236.516,321.5,212.994,312.968,214.454,305.232Z" transform="translate(794.833 237.343)" fill="#ccd9f8"/><path d="M321.251,388.345c1.293,2.085,7.194,7.006,15.2,9.988s24.689,3.774,15.618,7.194-19.935,2.085-25.44,1.564a114.159,114.159,0,0,0-17.2-.167c-8.487.375-8.57-.125-7.882-9.4C302.505,384.758,317.081,381.359,321.251,388.345Z" transform="translate(889.135 417.573)" fill="#231a66"/><path d="M247.46,219.131c1.71,17.161,2.21,20.852,9.717,27.984s19.2,8.049,27.337,8.049c8.779,0,14.6-10.593,16.557-17.849a105.678,105.678,0,0,0,1.71-40.432c-1.251-9.53-12.991-21.082-25.127-21.082S243.268,177.218,247.46,219.131Z" transform="translate(830.161 190.782)" fill="#f0bc99"/><path d="M251.958,216.889c-.459,5.943-.9,12.782-1.105,19.038a16.39,16.39,0,0,0,14.3,16.682,7.545,7.545,0,0,0,.938,0c7.4,0,16.119-6.714,15.472-14.138-.438-4.817-.584-9.675-.6-13.95a19.33,19.33,0,0,0-12.866-18.1h0a12.136,12.136,0,0,0-16.14,10.468Z" transform="translate(834.399 223.26)" fill="#f0bc99"/><path d="M236.957,278.942c13.783,45.27,18.308,72.336,15.6,103.969H356.274s-.6-76.966-7.549-130.16a39.848,39.848,0,0,0-21.916-30.507c-7.8-4.17-21.916-6.11-27.65-6.11H280a72.982,72.982,0,0,0-20.227,2.5C231.494,227.312,228.992,252.71,236.957,278.942Z" transform="translate(815.056 234.544)" fill="#ccd9f8"/><path d="M244.743,359.563s-8.966-21.77-.438-63.453H348.024a591.655,591.655,0,0,1,3.774,63.453Z" transform="translate(823.306 321.345)" fill="#0050c8"/><path d="M301.863,479.142C319.5,432.975,333.142,345,359.749,312.324c16.89-20.727,45.479-9.655,32.2,18.934-14.179,30.548-48.419,86.933-70.043,148.322C319.776,485.669,299.862,484.563,301.863,479.142Z" transform="translate(889.61 327.339)" fill="#3f71e2"/><path d="M421.793,343.6c12.991-3.628,27.442-45.875-19.434-43.79-20.852.9-94.023.417-105.074.876s-27.275,1.772-29.485,7.236c-11.052,27.337,20.852,55.342,62.557,49.524C358.319,353.524,394.873,351.084,421.793,343.6Z" transform="translate(850.399 325.278)" fill="#3f71e2"/><path d="M272.332,199.373c-2.419,5.943-1.856,11.782,1.251,13.053s7.59-2.523,10.009-8.445,1.877-11.781-1.23-13.053S274.772,193.431,272.332,199.373Z" transform="translate(856.084 206.932)" fill="#f0bc99"/><path d="M256.755,199.373c2.44,5.943,1.877,11.782-1.23,13.053s-7.59-2.523-10.009-8.445-1.877-11.781,1.23-13.053S254.42,193.431,256.755,199.373Z" transform="translate(826.975 206.932)" fill="#f0bc99"/><path d="M250.176,189.855c6.673,9.967,38.973,10.906,49.524,7.215s9.8-24.043-5.276-25.44c-8.487,0-2.335,2.085-9.217,4.817C281.725,177.844,243.044,179.2,250.176,189.855Z" transform="translate(832.72 186.257)" fill="#21283a"/><path d="M340.286,239.866c4.316-2.711,41.267-26.149,40.829-16.974-.48,10.176-13.158,21.123-17.745,24.251-8.341,5.714-17.432,7.569-20.852,3.065C340.057,247.018,336.178,242.431,340.286,239.866Z" transform="translate(929.508 239.589)" fill="#f0bc99"/><path d="M427.051,240.732c-7.82,1.71-54.925,15.889-69.667,23.313-8.508-4.671-26.92-23.667-56.864-41.7-11.114-6.673-21.248-4.421-30.277.584-5.588,3.086-8.091,15.41,1.272,23.209a233.542,233.542,0,0,0,31.278,22.374c30.861,19.142,45.187,23.5,51.755,24.439a3.542,3.542,0,0,0,.813,0h.25a3.442,3.442,0,0,0,.667-.146,7.23,7.23,0,0,0,1.272-.25A264.329,264.329,0,0,0,408.6,268.486c18.955-11.156,20.977-10.155,24.814-17.6a6.631,6.631,0,0,0-6.36-10.155Z" transform="translate(850.042 236.784)" fill="#ccd9f8"/><path d="M291.117,181.575c9.926,6.005,12.24,11.26,11.969,23.563s-5.547,33.364-28.171,37.951-27.984-17.766-29.36-33.364-.48-27.108,10.968-29.86C273.518,175.82,285.091,177.926,291.117,181.575Z" transform="translate(828.124 192.806)" fill="#21283a"/><path d="M384.981,400.956a7.528,7.528,0,0,1-7.361-6.005H249.358a7.507,7.507,0,0,1-14.868-1.5A13.533,13.533,0,0,1,248.065,380H379.038a13.512,13.512,0,0,1,13.512,13.512,7.507,7.507,0,0,1-7.569,7.444Z" transform="translate(816.648 412.385)" fill="#f1d27f"/><path d="M443.881,402.153H404.262c-20.852,0-34.2-11.031-37.388-31.091-3.9-24.564-11.156-104.908-11.239-105.7a9.363,9.363,0,0,0-11.49-8.341H224.933a11.928,11.928,0,0,0-9.613,12.365c.292,3.336,7.382,81.824,11.406,107.055,4.65,29.193,25.627,46.771,56.092,46.771H441.65a12.032,12.032,0,0,0,11.656-10.551,9.3,9.3,0,0,0-9.425-10.51Z" transform="translate(795.824 278.652)" fill="#f1d27f"/><path d="M263.85,336.6H299.3v15.222a2.919,2.919,0,0,1-2.919,2.919H266.79a2.919,2.919,0,0,1-2.919-2.919V336.6Z" transform="translate(848.51 365.286)" fill="#f1d27f"/><rect width="23.855" height="70.668" transform="translate(1118.219 720.027)" fill="#d8e7fc"/><path d="M267.568,373h26.316a2.878,2.878,0,0,1,2.878,2.878V395.02H264.69V375.878A2.878,2.878,0,0,1,267.568,373Z" transform="translate(849.422 404.788)" fill="#d8b058"/><path d="M324.985,400.956a7.528,7.528,0,0,1-7.361-6.005H268.267a7.507,7.507,0,0,1-14.847-1.5A13.512,13.512,0,0,1,266.932,380h52.131a13.533,13.533,0,0,1,13.512,13.512,7.507,7.507,0,0,1-7.59,7.444Z" transform="translate(837.191 412.385)" fill="#d8b058"/><path d="M273.777,396.668a10.238,10.238,0,1,1-10.238-10.218,10.238,10.238,0,0,1,10.238,10.218Z" transform="translate(837.061 419.384)" fill="#d8b058"/><path d="M271.355,396.668a10.218,10.218,0,1,1-10.218-10.218A10.218,10.218,0,0,1,271.355,396.668Z" transform="translate(834.478 419.384)" fill="#f1d27f"/><path d="M304.5,396.668a10.238,10.238,0,1,1-10.218-10.218A10.238,10.238,0,0,1,304.5,396.668Z" transform="translate(870.399 419.384)" fill="#d8b058"/><path d="M302.107,396.668a10.238,10.238,0,1,1-10.238-10.218,10.238,10.238,0,0,1,10.238,10.218Z" transform="translate(867.805 419.384)" fill="#f1d27f"/><path d="M254.857,396.668a10.238,10.238,0,1,1-10.238-10.218A10.238,10.238,0,0,1,254.857,396.668Z" transform="translate(816.528 419.384)" fill="#d8b058"/><path d="M252.457,396.668a10.238,10.238,0,1,1-10.218-10.218A10.238,10.238,0,0,1,252.457,396.668Z" transform="translate(813.924 419.384)" fill="#f1d27f"/><path d="M323.4,396.668a10.218,10.218,0,1,1-10.218-10.218A10.218,10.218,0,0,1,323.4,396.668Z" transform="translate(890.953 419.384)" fill="#d8b058"/><path d="M321.027,396.668a10.238,10.238,0,1,1-10.218-10.218,10.238,10.238,0,0,1,10.218,10.218Z" transform="translate(888.337 419.384)" fill="#f1d27f"/><path d="M290.515,353.745l-23.855-6.673V345.3h23.855Z" transform="translate(851.559 374.727)" fill="#cecece"/><path d="M299.4,345.024l-35.553-6.652V336.6H299.4Z" transform="translate(848.51 365.286)" fill="#d8b058"/><path d="M379.608,423.224H339.988c-30.465,0-51.443-17.5-56.092-46.772-4.024-25.231-11.114-103.719-11.406-107.055a11.927,11.927,0,0,1,9.613-12.365,9.363,9.363,0,0,1,11.49,8.341c0,.792,7.34,81.136,11.239,105.7,3.19,20.06,16.473,31.091,37.388,31.091h39.619a9.3,9.3,0,0,1,9.425,10.53A12.032,12.032,0,0,1,379.608,423.224Z" transform="translate(857.866 278.663)" fill="#d8b058"/><path d="M475.568,293.274h0c-15.973,4.525-50.191,15.243-62.369,21.374-8.508-4.671-26.92-23.667-56.864-41.7a27.3,27.3,0,0,0-12.636-4.17,81.488,81.488,0,0,0-22.52-4.358v-2.961a18.586,18.586,0,0,0-.167-1.856c8.487-.417,14.1-10.7,16.035-17.808a72.81,72.81,0,0,0,1.793-9.05,15.326,15.326,0,0,0,6.652-8.132c2.44-5.943,1.877-11.781-1.23-13.053a4.88,4.88,0,0,0-4.546,1c-.146-3.524-.438-7.236-.959-11.2a16.682,16.682,0,0,0-1.147-4.17.822.822,0,0,0,.626-.188c10.426-3.67,9.8-24.043-5.276-25.44-8.487,0-2.335,2.085-9.217,4.817-3.211,1.293-35.97,2.523-35.887,10.947-7.966,3.441-9.363,12.511-8.675,24.439-2.773,1.585-3.211,7.131-.876,12.824a19.02,19.02,0,0,0,3.67,5.859,40.976,40.976,0,0,0,3.587,8.925,21.832,21.832,0,0,0,7.132,11.781,12.113,12.113,0,0,0-.521,2.669c-.271,3.462-.521,7.236-.73,11.01a56.712,56.712,0,0,0-10.781,2.085c-10.781,3.316-17.787,9.05-21.936,16.306a273.353,273.353,0,0,0-16.87,22.5c-18.225,26.607-24.189,40.683-26.17,48.064-2.815,6.381-2.627,13.012,1.939,15.243,1.9,20.56,7.382,78.759,10.739,99.82,4.65,29.193,25.627,46.772,56.093,46.772h33.718V528.7a5.067,5.067,0,0,0,5.067,5.067h.792v57.865a4.984,4.984,0,0,0-4.17,4.9V606.2H270.486a13.533,13.533,0,0,0-13.512,13.512,6.626,6.626,0,0,0,.146,1.293A10.2,10.2,0,0,0,262,640.172a9.763,9.763,0,0,0,2.481-.354,10.074,10.074,0,0,0,2.5.355,10.2,10.2,0,0,0,5.276-18.955h23.917a10.176,10.176,0,0,0,7.778,18.6,9.762,9.762,0,0,0,2.481.355,10.2,10.2,0,0,0,5.276-18.955h48.44a10.2,10.2,0,0,0,5.255,18.955,9.8,9.8,0,0,0,2.5-.354,9.936,9.936,0,0,0,2.5.354,10.2,10.2,0,0,0,9.529-6.61,36.252,36.252,0,0,1,3.837.188,51.914,51.914,0,0,0,11.677.167,9.074,9.074,0,0,0,.792,1.46,2.857,2.857,0,0,0,2.773,2.919,10.114,10.114,0,0,0,5.859,1.877,9.763,9.763,0,0,0,2.481-.355,9.931,9.931,0,0,0,2.5.354,10.281,10.281,0,0,0,5.985-1.96c1.9,0,3.774.146,5.651.334,5.5.584,16.348,1.856,25.44-1.564s-7.611-4.171-15.618-7.194a40.2,40.2,0,0,1-14.2-8.737.743.743,0,0,0,.125-.208C437.888,562.206,470,508.24,485.2,476.857a29.528,29.528,0,0,0,5.463-17.432,15.827,15.827,0,0,0-5-12.7c-4.733-5.067-13.22-8.341-27.108-7.8-4.379.188-11.114.313-19.08.4a14.115,14.115,0,0,0-3.733-4.17c-5.13-4.65-13.867-7.277-27.713-5.547-6.381.813-17.766,1.877-30.757,3.024-.1-.834-.146-1.293-.146-1.293s-.438-54.862-4.754-103.948c21.54,12.261,32.53,15.472,38.034,16.265a3.548,3.548,0,0,0,.813,0h.25a3.436,3.436,0,0,0,.667-.146,7.211,7.211,0,0,0,1.272-.25,264.329,264.329,0,0,0,51-24.168c14.034-8.341,18.767-9.863,21.874-13.158a31.592,31.592,0,0,0,12.407-5.38c4.567-3.128,17.266-14.075,17.745-24.251C516.834,267.126,479.884,290.564,475.568,293.274ZM261.207,338.857c.646,2.252,1.272,4.442,1.856,6.589l-6.256-1.418ZM434.468,494.624H425.5l1.251-2.94,9.217-1.168C435.448,491.871,434.947,493.247,434.468,494.624Zm-86.62,97.088V533.847h.772a5.067,5.067,0,0,0,5.067-5.067V515.705H381.9c-6.4,31.278-11.344,65.017-17.683,90.436H351.955v-9.53a4.984,4.984,0,0,0-4.108-4.9Zm42.08,32.509a19.432,19.432,0,0,1-5.672-3.065h12.866a2.21,2.21,0,0,0,.709,1.376,10.091,10.091,0,0,0-2.294,3.274A43.559,43.559,0,0,1,389.927,624.22ZM402.147,606.2H383.984a791.94,791.94,0,0,1,32.592-90.436h10.968c-9.238,30.3-17.036,64.308-25.4,90.436Z" transform="translate(794.227 186.181)" fill="none"/><g transform="translate(786.92 257.859)"><path d="M618.362,137.48H111.53l3.693-7.82H622.034Z" transform="translate(-111.53 -129.66)" fill="#99c1f9"/><path d="M148.013,199.2a1.814,1.814,0,0,1-1.793-1.814V132.373a1.814,1.814,0,0,1,3.607,0V197.39a1.814,1.814,0,0,1-1.814,1.814Z" transform="translate(-73.884 -128.474)" fill="#99c1f9"/><path d="M316.573,199.2a1.793,1.793,0,0,1-1.793-1.814V132.373a1.814,1.814,0,0,1,3.607,0V197.39a1.814,1.814,0,0,1-1.814,1.814Z" transform="translate(118.028 -128.474)" fill="#99c1f9"/><path d="M618.362,142.69H111.53l3.693-7.84H622.034Z" transform="translate(-111.53 -124.028)" fill="#99c1f9"/><path d="M618.362,147.87H111.53l3.693-7.82H622.034Z" transform="translate(-111.53 -118.385)" fill="#99c1f9"/><path d="M618.362,153.07H111.53l3.693-7.82H622.034Z" transform="translate(-111.53 -112.741)" fill="#99c1f9"/><path d="M618.362,158.28H111.53l3.693-7.84H622.034Z" transform="translate(-111.53 -107.109)" fill="#99c1f9"/><path d="M618.362,163.46H111.53l3.693-7.82H622.034Z" transform="translate(-111.53 -101.466)" fill="#99c1f9"/><path d="M618.362,168.66H111.53l3.693-7.82H622.034Z" transform="translate(-111.53 -95.823)" fill="#99c1f9"/></g><g transform="translate(916.119 45.051)"><path d="M114.56,139.54a22.75,22.75,0,1,1-22.687-22.75,22.75,22.75,0,0,1,22.687,22.75Z" transform="translate(-45.997 150.692)" fill="#f1d27f"/><path d="M126.6,247.012V226.556c-.023-6.04-4.509-10.93-10.051-10.955h-9.342V0h-6.777V215.533H91.072c-5.574-.025-10.111,4.88-10.134,10.955v20.456C66.759,255.834,58.013,272.3,58,290.128h91.5c-.018-17.8-8.746-34.233-22.9-43.116Z" transform="translate(-58)" fill="#3f71e2"/></g></g></svg>