<svg xmlns="http://www.w3.org/2000/svg" width="277.734" height="1093.945" viewBox="0 0 277.734 1093.945"><path d="M-457.91-148.975q-27.979,0-44.385,19.336h-.586v-16.846h-39.258V59.326h39.258V-16.406h.586q15.674,18.9,43.213,18.9A71.989,71.989,0,0,0-431.03-2.93a65.1,65.1,0,0,0,22.266-15.161,68.966,68.966,0,0,0,14.575-23.877A87.553,87.553,0,0,0-388.916-72.8a90.5,90.5,0,0,0-3.369-24.976,74.358,74.358,0,0,0-9.595-21.094A71.39,71.39,0,0,0-416.6-134.985a62.049,62.049,0,0,0-19.116-10.4A68.848,68.848,0,0,0-457.91-148.975Zm-8.35,116.309a38.871,38.871,0,0,1-19.409-4.907,35.231,35.231,0,0,1-13.77-14.136,42.89,42.89,0,0,1-5.054-20.947,45.926,45.926,0,0,1,2.856-16.26,39.528,39.528,0,0,1,7.837-13.037,36,36,0,0,1,12.085-8.569,37.7,37.7,0,0,1,15.454-3.149q16.113,0,26.807,11.279t10.693,29.736q0,17.725-10.474,28.857T-466.26-32.666Zm193.213-116.309a50.347,50.347,0,0,0-24.463,6.226,59.393,59.393,0,0,0-19.775,17.8h-.439v-21.533h-39.258V0h39.258V-67.969q0-16.846,9.888-27.539t27.466-10.693q4.541,0,10.4.439v-43.066A21.689,21.689,0,0,0-273.047-148.975ZM-178.271,2.49q22.559,0,40.283-9.448A68.518,68.518,0,0,0-110.3-33.691q9.961-17.285,9.961-39.4a80.625,80.625,0,0,0-5.786-30.835,69.418,69.418,0,0,0-16.04-24.023,72.694,72.694,0,0,0-24.756-15.454,86.742,86.742,0,0,0-31.348-5.566,86.73,86.73,0,0,0-31.787,5.713,71.466,71.466,0,0,0-24.756,15.747,70.431,70.431,0,0,0-15.747,24.1A80.7,80.7,0,0,0-256.2-73.1a82.631,82.631,0,0,0,3.589,24.609,69.281,69.281,0,0,0,10.474,20.874,72.733,72.733,0,0,0,16.333,16.04A73.293,73.293,0,0,0-204.2-1.172,89.456,89.456,0,0,0-178.271,2.49Zm0-35.156q-16.7,0-27.466-11.646T-216.5-73.1q0-17.578,10.62-29.077t27.612-11.5q16.406,0,27.246,11.353t10.84,29.224q0,17.578-10.986,29A36.106,36.106,0,0,1-178.271-32.666Zm128.32-135.352a23.637,23.637,0,0,0,17.139-7.031,22.915,22.915,0,0,0,7.178-16.992,22.75,22.75,0,0,0-7.178-16.846,23.637,23.637,0,0,0-17.139-7.031,23.565,23.565,0,0,0-17.212,7.031,22.863,22.863,0,0,0-7.1,16.846,23.448,23.448,0,0,0,3.223,12.085,23.728,23.728,0,0,0,8.862,8.716A24.236,24.236,0,0,0-49.951-168.018ZM-73.1,61.816q19.922,0,31.567-13.623t11.646-39.4V-146.484H-69.141V7.178q0,10.107-3.882,15.234t-11.06,5.127a26.138,26.138,0,0,1-13.037-3.662l-6.592,32.666a70.212,70.212,0,0,0,14.136,4.1A98.981,98.981,0,0,0-73.1,61.816ZM145.02-74.561q0-21.387-8.936-38.306a65.6,65.6,0,0,0-25.342-26.514q-16.406-9.595-37.646-9.595a74.838,74.838,0,0,0-28.857,5.566,67.751,67.751,0,0,0-23.071,15.454A71.779,71.779,0,0,0,6.006-103.931,82.613,82.613,0,0,0,.439-73.389q0,22.412,9.888,39.844A67.773,67.773,0,0,0,37.354-6.812q17.139,9.3,38.525,9.3,21.094,0,37.207-7.544A70.861,70.861,0,0,0,139.16-25.2l-25.488-23.73q-13.77,16.7-35.01,16.553Q64.6-32.52,54.712-39.99T41.309-60.5H143.994Q145.02-64.16,145.02-74.561ZM74.414-114.4q12.451,0,20.508,6.812T106.055-88.77h-64.6q3.369-12.451,12.085-19.043T74.414-114.4ZM243.6,2.49q21.094,0,37.866-7.324t26.88-19.043L281.4-47.607a44.885,44.885,0,0,1-14.429,10.62,44.7,44.7,0,0,1-19.556,4.175q-17.432,0-28.345-11.279t-10.913-29.3a46.221,46.221,0,0,1,2.783-16.26,36.644,36.644,0,0,1,7.837-12.744,35.577,35.577,0,0,1,12.378-8.276,41.688,41.688,0,0,1,15.967-3q20.654,0,34.131,15.674l26.514-22.852a70.352,70.352,0,0,0-27.539-20.874,86.286,86.286,0,0,0-34.717-7.251q-22.412,0-39.99,9.521a68.271,68.271,0,0,0-27.393,26.807q-9.814,17.285-9.814,39.551,0,22.119,9.741,39.4a68.049,68.049,0,0,0,26.88,26.733Q222.07,2.49,243.6,2.49Zm137.7,0q13.477,0,21.973-2.344a79.485,79.485,0,0,0,16.846-6.885L410.01-38.086q-9.961,5.127-18.457,5.127-6.885,0-9.888-4.541t-3-14.209v-62.256h39.844v-32.52H378.662v-52.148L339.4-194.385v47.9H322.119v32.52H339.4v67.676q0,24.023,11.206,36.4T381.3,2.49Zm113.672,0q27.686,0,42.261-12.6t14.575-32.959a50.218,50.218,0,0,0-.879-9.814q-2.783-14.648-16.992-23.437-8.2-5.273-32.52-14.209-11.572-4.395-16.772-7.91t-5.2-7.91a9.142,9.142,0,0,1,4.395-8.13,17.874,17.874,0,0,1,9.961-2.856,45.132,45.132,0,0,1,17.651,3.882,58.6,58.6,0,0,1,17.358,11.646l19.043-28.711A87.537,87.537,0,0,0,522.51-144.58a87.133,87.133,0,0,0-28.271-4.395,64.316,64.316,0,0,0-26.88,5.42,45.131,45.131,0,0,0-18.9,15.454,39.495,39.495,0,0,0-6.958,23.071,47.936,47.936,0,0,0,1.611,12.744,33.818,33.818,0,0,0,4.761,10.4,51.875,51.875,0,0,0,7.031,8.2,45.845,45.845,0,0,0,9.3,6.665,111.53,111.53,0,0,0,10.62,5.2q5.2,2.2,11.792,4.395,10.4,3.369,15.6,5.566a30.245,30.245,0,0,1,8.13,4.761,7.7,7.7,0,0,1,2.93,5.933,10.277,10.277,0,0,1-4.834,8.789Q503.613-29,495.264-29,473-29,454.688-46.143l-19.043,27.1Q460.107,2.49,494.971,2.49Z" transform="translate(215.918 551.807) rotate(-90)" fill="#e8ebef"/></svg>