<svg xmlns="http://www.w3.org/2000/svg" xmlns:xlink="http://www.w3.org/1999/xlink" width="150" height="150" viewBox="0 0 150 150"><defs><clipPath id="a"><rect width="150" height="150" transform="translate(967.5 1671)" fill="#fff" stroke="#707070" stroke-width="1"/></clipPath><radialGradient id="b" cx="41.283" cy="60.212" r="83.512" gradientTransform="translate(0.956 1.224) scale(0.973 0.942)" gradientUnits="userSpaceOnUse"><stop offset="0" stop-color="#34364e" stop-opacity="0.98"/><stop offset="1" stop-color="#0c0824"/></radialGradient></defs><g transform="translate(-967.5 -1671)" clip-path="url(#a)"><g transform="translate(984.198 1656.21)"><path d="M6.25,39.2H113.137V143.167H6.25Z" transform="translate(-1.391 -1.391)" fill="url(#b)"/><path d="M4.858,37.8H111.745V141.776H4.858ZM0,146.635H116.6V32.946H0ZM78.61,79.587c-3.838,0-5.15,1.943-5.15,3.547,0,1.749.874,2.964,6.025,5.636,7.628,3.693,10.009,7.239,10.009,12.438,0,7.774-5.927,11.952-13.944,11.952-4.227,0-7.871-.875-9.96-2.089-.34-.146-.389-.389-.389-.777v-7.142c0-.486.243-.632.583-.389a18.033,18.033,0,0,0,9.765,2.867c3.838,0,5.442-1.6,5.442-3.79,0-1.749-1.117-3.3-6.025-5.83-6.9-3.3-9.765-6.656-9.765-12.243C65.2,77.5,70.108,72.3,78.61,72.3a22.341,22.341,0,0,1,8.7,1.36,1.076,1.076,0,0,1,.486.972v6.656c0,.389-.243.632-.729.486a16.412,16.412,0,0,0-8.454-2.186ZM36.827,85.369c1.117.1,1.992.1,3.935.1,5.685,0,11.029-1.992,11.029-9.717,0-6.17-3.838-9.28-10.3-9.28-1.943,0-3.79.1-4.664.146Zm-8.648-25.8c0-.34.68-.583,1.069-.583,3.11-.146,7.725-.243,12.535-.243,13.458,0,18.705,7.385,18.705,16.81,0,12.34-8.94,17.636-19.92,17.636-1.846,0-2.478-.1-3.79-.1V111.75c0,.389-.146.583-.583.583H28.762c-.389,0-.583-.146-.583-.583V59.57Z" fill="#31c5f0"/></g></g></svg>