<svg xmlns="http://www.w3.org/2000/svg" xmlns:xlink="http://www.w3.org/1999/xlink" width="150" height="150" viewBox="0 0 150 150"><defs><clipPath id="a"><rect width="150" height="150" transform="translate(635.5 1501)" fill="#fff" stroke="#707070" stroke-width="1"/></clipPath></defs><g transform="translate(-635.5 -1501)" clip-path="url(#a)"><g transform="translate(643.885 1504.364)"><path d="M114.041,56.286c-.207-4.56.415-8.6-1.658-12.022-4.975-8.5-17.412-13.473-42.286-13.473v.725h0v-.725c-24.874,0-37.933,4.975-42.907,13.577-1.969,3.524-1.762,7.462-2.073,12.022-.207,3.627-1.866,7.462-1.14,11.608.829,5.389,1.14,10.779,1.969,15.753.622,4.042,6.218,7.462,6.737,11.3,1.451,10.571,12.437,15.443,37.311,15.443v.829h.1v-.829c24.874,0,35.445-4.871,36.793-15.443.518-3.938,5.7-7.255,6.322-11.3.829-4.975,1.14-10.364,1.969-15.753.725-4.146-.933-8.084-1.14-11.711Z" transform="translate(-2.705 0)" fill="#efcca3"/><path d="M75.6,63.805c4.457.1,7.566,2.9,10.468,5.493,3.42,3.006,9.224,5.078,11.608,7.669s5.493,5.182,6.633,9.224a47.934,47.934,0,0,1,1.451,10.571c0,1.347.725,1.036,2.8,0,4.871-2.384,10.26-8.809,10.26-8.809-.622,4.042-5.908,7.669-6.426,11.5-1.244,10.571-11.5,15.65-36.9,15.65h.518" transform="translate(-8.626 -3.788)" fill="#ccac8d"/><path d="M93.846,54.34c.933,3.213,4.249,14.1-2.176,10.468,0,0,2.695,1.555,4.353,7.462,1.762,5.908,6.011,6.633,6.011,6.633s6.944,1.347,12.126-3.109c4.353-3.731,5.078-10.364,3.213-15.443-1.866-4.975-5.182-6.529-10.053-7.566C102.448,51.645,92.705,50.713,93.846,54.34Z" transform="translate(-10.493 -2.407)" fill="#ccac8d"/><circle cx="9.12" cy="9.12" r="9.12" transform="translate(86.566 54.628)"/><circle cx="2.384" cy="2.384" r="2.384" transform="translate(90.919 57.323)" fill="#fff"/><path d="M92.022,67.552s8.188,5.6,12.644,11.09,4.353,6.529,4.353,6.529l-3.213,1.451s-4.56-8.6-10.157-11.815c-5.7-3.213-6.322-5.908-6.322-5.908l2.695-1.347Z" transform="translate(-10.224 -4.218)" fill="#efcca3"/><path d="M70.286,63.805c-4.457.1-7.773,2.9-10.779,5.493-3.42,3.006-9.431,5.078-11.815,7.669s-5.6,5.182-6.737,9.224A49.824,49.824,0,0,0,39.4,96.763c0,1.347.207,1.451-2.8,0-4.871-2.28-10.26-8.809-10.26-8.809.622,4.042,5.908,7.669,6.426,11.5,1.451,10.571,11.711,15.65,37.1,15.65h.518" transform="translate(-2.997 -3.788)" fill="#ccac8d"/><path d="M96.277,82.06C91.3,75.945,83.322,70.244,72.232,70.244h-.1c-11.09,0-19.07,5.7-24.045,11.815-5.182,6.322-4.767,8.81-4.767,14.821,0,21.765,7.669,15.546,12.748,18.241,5.182,2.591,10.571,1.762,16.064,1.762h.1c5.6,0,10.882.725,16.064-1.866,5.078-2.591,12.748,3.835,12.748-17.93.1-6.011.415-8.706-4.767-15.028Z" transform="translate(-4.944 -4.527)" fill="#56332b"/><path d="M75.114,76.332s-.725,10.053-2.176,12.022l2.695-.622Z" transform="translate(-8.344 -5.225)" fill="#442823"/><path d="M76.148,76.332s.725,10.053,2.176,12.022l-2.695-.622Z" transform="translate(-8.652 -5.225)" fill="#442823"/><path d="M66.359,72.82c-1.036-2.384,2.695-6.218,8.6-6.322,5.908,0,9.639,3.835,8.6,6.322s-4.767,3.213-8.6,3.317c-3.731-.1-7.566-.829-8.6-3.317Z" transform="translate(-7.569 -4.097)" fill="#56332b"/><path d="M75.279,75.983c0-.415,3.524-.518,5.389-1.762,0,0-3.835,1.244-4.664.725a2.5,2.5,0,0,1-1.036-1.658,3.389,3.389,0,0,1-.933,1.658c-.725.415-5.078-.725-5.078-.725s5.8,1.451,5.8,1.762-.1,1.347-.1,2.073c0,2.591,0,9.017.415,9.535.622.933.415-6.944.415-9.535C75.382,77.227,75.382,76.4,75.279,75.983Z" transform="translate(-7.887 -4.876)"/><path d="M75.217,91.778c1.762,0,4.871,1.244,7.669,3.213-2.695-3.006-5.908-5.078-7.669-5.078-1.866,0-5.8,2.28-8.6,5.6C69.517,93.229,73.248,91.778,75.217,91.778Z" transform="translate(-7.618 -6.784)" fill="#7f4a41"/><path d="M71.819,111.01c-3.938,0-7.773-1.244-11.3-2.176-.725-.207-1.451.311-2.176.1-6.529-2.073-11.815-5.6-15.028-10.053V99.92c0,21.765,7.669,15.65,12.748,18.241,5.182,2.591,10.571,1.762,16.064,1.762h.1c5.6,0,10.882.725,16.064-1.866,5.078-2.591,12.748,3.731,12.748-18.034a17.569,17.569,0,0,1,.1-2.384c-3.006,4.871-8.5,8.706-15.339,10.986-.622.207-2.073-.311-2.695-.207-3.731,1.244-7.048,2.591-11.3,2.591Z" transform="translate(-4.945 -7.67)" fill="#442823"/><path d="M63.974,99.513s-2.591,7.773-.829,11.193l-2.384-1.036S62.523,101.793,63.974,99.513Zm20.521,0s2.591,7.773.829,11.193l2.384-1.036s-1.866-7.877-3.213-10.157Z" transform="translate(-6.946 -7.885)" fill="#442823"/><path d="M53.724,54.34c-.933,3.213-4.249,14.1,2.176,10.468,0,0-2.695,1.555-4.353,7.462S45.536,78.9,45.536,78.9,38.592,80.25,33.41,75.794C29.057,72.063,28.332,65.43,30.2,60.351s5.182-6.529,10.053-7.566c4.871-1.14,14.51-2.073,13.473,1.555Z" transform="translate(-3.329 -2.407)" fill="#ccac8d"/><path d="M74.477,89.805c2.8,0,11.5,6.011,11.608,13.37v-.415c0-7.669-7.048-13.784-11.608-13.784s-11.608,6.218-11.608,13.784v.415C62.972,95.817,71.678,89.805,74.477,89.805Z" transform="translate(-7.188 -6.676)"/><ellipse cx="0.829" cy="1.555" rx="0.829" ry="1.555" transform="matrix(0.968, -0.25, 0.25, 0.968, 67.971, 65.976)" fill="#331712"/><ellipse cx="0.829" cy="1.555" rx="0.829" ry="1.555" transform="translate(64.353 65.549) rotate(17.235)" fill="#331712"/><circle cx="9.12" cy="9.12" r="9.12" transform="translate(29.459 54.628)"/><circle cx="2.384" cy="2.384" r="2.384" transform="translate(38.58 57.323)" fill="#fff"/><path d="M78.246,68.136c0-.1-2.384,1.036-3.006,1.14-.622-.1-3.006-1.244-3.006-1.14Z" transform="translate(-8.263 -4.284)" fill="#7f4a41"/><path d="M56.334,67.552s-8.188,5.6-12.644,11.09-4.353,6.529-4.353,6.529l3.213,1.451s4.56-8.6,10.157-11.815S59.029,68.9,59.029,68.9Z" transform="translate(-4.488 -4.218)" fill="#efcca3"/><path d="M37.115,48.35s-2.8,7.669-9.017,10.882C28.1,59.232,37.84,58.092,37.115,48.35Zm65.4,0s2.8,7.669,9.017,10.882C111.529,59.232,101.787,58.092,102.512,48.35Zm-17.723,14.3s-6.115-6.426-14.3-6.633h.207c-8.291.207-14.3,6.633-14.3,6.633,7.151-4.975,13.266-4.871,14.3-4.871a26.631,26.631,0,0,1,14.1,4.871ZM77.638,49.179s-3.109-4.353-7.255-4.457h.207c-3.109.1-7.151,4.457-7.151,4.457a10.743,10.743,0,0,1,7.151-3.317S74.011,45.759,77.638,49.179ZM41.778,81s-4.871,2.384-8.395.933h-.1c-3.109-1.762-4.664-7.048-4.664-7.048S31.725,84.21,41.778,81Zm56.8,0s4.871,2.384,8.395.933c4.146-1.762,4.767-7.048,4.767-7.048S108.627,84.21,98.574,81Z" transform="translate(-3.199 -1.599)" fill="#ccac8d"/><path d="M46.5,46.582a23.769,23.769,0,0,1,10.675.518c4.457,1.555.829,7.255,1.762,7.566s2.176-3.938,10.468-3.524c8.395.415,9.328,4.146,10.468,3.524s-1.14-10.364,11.4-8.084c0,0-13.162-3.524-12.541,6.011,0,0-7.566-5.8-18.137-.622C60.7,51.972,63.4,43.058,46.5,46.582Zm45.913,0c.207,0,.311.1.415.1S92.726,46.582,92.415,46.582ZM92.415,46.582ZM42.874,33.834S31.681,47.93,30.023,53.319c-1.658,5.493-2.9,27.983-4.353,31.2L20.488,62.336l9.535-23.112,12.851-5.389Zm52.65,0s11.193,14.1,12.852,19.485c1.658,5.493,2.9,27.983,4.353,31.2l5.182-22.179-9.535-23.112L95.524,33.834Z" transform="translate(-2.326 -0.349)" fill="#ccac8d"/><path d="M104.66,33.786s12.022,10.053,15.546,21.661,2.073,25.7,4.767,27.465c3.835,2.487,8.188-12.333,9.639-13.888,2.28-2.487,9.846-8.809,10.364-9.95s-15.339-18.448-22.283-21.868c-8.395-3.938-18.759-4.249-18.034-3.42Z" transform="translate(-11.979 -0.301)" fill="#56332b"/><path d="M116.255,40.859S130.453,59,130.246,81.59l5.7-11.608a85.189,85.189,0,0,0-19.692-29.123Z" transform="translate(-13.314 -1.155)" fill="#442823"/><path d="M40.549,33.786S28.527,43.839,25,55.447s-2.073,25.7-4.767,27.465C16.4,85.4,12.048,70.579,10.6,69.024,8.317,66.537.751,60.214.233,59.074S15.571,40.626,22.515,37.206c8.395-3.938,18.759-4.249,18.034-3.42Z" transform="translate(0 -0.301)" fill="#56332b"/><path d="M31.647,40.859S17.448,59,17.655,81.59l-5.6-11.608S17.033,55.161,31.647,40.859Z" transform="translate(-1.358 -1.155)" fill="#442823"/><path d="M25.522,86.716s1.036,5.6,2.695,7.359.518-1.347.518-1.347-1.762-.933-1.451-8.084-1.762,2.073-1.762,2.073Zm88.406,0s-1.036,5.6-2.695,7.359-.518-1.347-.518-1.347,1.762-.933,1.451-8.084,1.762,2.073,1.762,2.073Z" transform="translate(-2.903 -5.867)" fill="#ccac8d"/><g transform="translate(49.358 75.771)"><circle cx="0.829" cy="0.829" r="0.829" transform="translate(6.322)" fill="#442823"/><circle cx="0.829" cy="0.829" r="0.829" transform="translate(1.555 4.975)" fill="#442823"/><circle cx="0.829" cy="0.829" r="0.829" fill="#442823"/></g><g transform="translate(75.891 75.771)"><circle cx="0.829" cy="0.829" r="0.829" fill="#442823"/><circle cx="0.829" cy="0.829" r="0.829" transform="translate(4.767 4.975)" fill="#442823"/><circle cx="0.829" cy="0.829" r="0.829" transform="translate(6.322)" fill="#442823"/></g></g></g></svg>