<svg xmlns="http://www.w3.org/2000/svg" xmlns:xlink="http://www.w3.org/1999/xlink" width="150" height="150" viewBox="0 0 150 150"><defs><clipPath id="a"><rect width="150" height="150" transform="translate(469.5 1671)" fill="#fff" stroke="#707070" stroke-width="1"/></clipPath><linearGradient id="b" x1="-24.752" y1="3.243" x2="-23.427" y2="2.114" gradientUnits="objectBoundingBox"><stop offset="0" stop-color="#5a9fd4"/><stop offset="1" stop-color="#306998"/></linearGradient><linearGradient id="c" x1="-23.216" y1="1.078" x2="-23.689" y2="1.736" gradientUnits="objectBoundingBox"><stop offset="0" stop-color="#ffd43b"/><stop offset="1" stop-color="#ffe873"/></linearGradient><radialGradient id="d" cx="-194.184" cy="-30.055" r="11.349" gradientTransform="matrix(0, -0.194, -0.853, 0, -141.309, -83.587)" gradientUnits="userSpaceOnUse"><stop offset="0" stop-color="#b8b8b8" stop-opacity="0.498"/><stop offset="1" stop-color="#7f7f7f" stop-opacity="0"/></radialGradient></defs><g transform="translate(-469.5 -1671)" clip-path="url(#a)"><g transform="translate(467.734 1723.202)"><path d="M58.324,19.565q0-6.9-3.935-7.092a7.389,7.389,0,0,0-3.055.5,4.479,4.479,0,0,0-1.6.847V24.8A7.794,7.794,0,0,0,54.2,26.269Q58.322,26,58.324,19.565Zm3.236.191a9.758,9.758,0,0,1-1.651,5.82A6.086,6.086,0,0,1,54.8,28.27a9.063,9.063,0,0,1-5.072-1.54v9.98l-2.815-1V13.554a6.3,6.3,0,0,1,1.777-1.466,12.194,12.194,0,0,1,6.106-1.5l.04.04A5.6,5.6,0,0,1,59.9,13.32,11.45,11.45,0,0,1,61.56,19.756Zm17.2,6.55q0,4.7-.942,6.513a6.643,6.643,0,0,1-3.606,2.888,13.813,13.813,0,0,1-4.662.927l-.465-1.774a22.364,22.364,0,0,0,3.584-.693,4.736,4.736,0,0,0,2.815-2.119,10.632,10.632,0,0,0,.616-4.431v-.733a14.456,14.456,0,0,1-6.051,1.309,5.562,5.562,0,0,1-3.662-1.309,4.452,4.452,0,0,1-1.774-3.621V11.55l2.815-.964V22.376a3.583,3.583,0,0,0,1.219,2.91,4.607,4.607,0,0,0,3.156.982,7.893,7.893,0,0,0,4.141-1.5V11.01h2.815v15.3Zm10.987,1.811q-.462.039-.927.04a5.538,5.538,0,0,1-3.72-1.139,3.936,3.936,0,0,1-1.327-3.15V12.781H81.846v-1.77h1.928v-4.7l2.811-1v5.7h3.162v1.77H86.586V23.79a2.667,2.667,0,0,0,.85,2.242,4.3,4.3,0,0,0,2.313.619v1.466Zm17.041-.231h-2.815V17.021a5.134,5.134,0,0,0-.773-2.851,2.812,2.812,0,0,0-2.479-1.349q-1.935,0-4.841,2.041V27.885H93.068V1.917l2.814-.887V12.858a9.806,9.806,0,0,1,5.9-1.965,4.7,4.7,0,0,1,3.621,1.5,5.291,5.291,0,0,1,1.389,3.738V27.885h0Zm14.959-8.764a8.645,8.645,0,0,0-1-4.382,4.2,4.2,0,0,0-3.7-2.226q-4.628.268-4.625,6.627a10.9,10.9,0,0,0,.967,4.868A3.887,3.887,0,0,0,117.1,26.46q4.646-.037,4.647-7.338Zm3.082.018a10.01,10.01,0,0,1-1.928,6.282,6.932,6.932,0,0,1-5.857,2.811,6.794,6.794,0,0,1-5.783-2.811,10.143,10.143,0,0,1-1.888-6.282,8.967,8.967,0,0,1,2.042-5.974,7.034,7.034,0,0,1,5.666-2.58,7.152,7.152,0,0,1,5.706,2.58,8.967,8.967,0,0,1,2.042,5.974Zm16.135,8.745h-2.815V16.406a3.84,3.84,0,0,0-1.136-2.95,4.129,4.129,0,0,0-3.027-1.019,6.764,6.764,0,0,0-3.815,1.309v14.14h-2.815V13.4a13.869,13.869,0,0,1,4.471-2.309,13.645,13.645,0,0,1,3.393-.5,8.8,8.8,0,0,1,1.888.194,5.43,5.43,0,0,1,2.7,1.426,3.772,3.772,0,0,1,1.158,2.774V27.885Z" fill="#646464"/><path d="M19.116,2.021a24.156,24.156,0,0,0-4.048.346c-3.584.633-4.235,1.959-4.235,4.4V10H19.3v1.076H7.654a5.289,5.289,0,0,0-5.292,4.295,15.833,15.833,0,0,0,0,8.609c.6,2.508,2.04,4.295,4.5,4.295H9.777V24.4a5.383,5.383,0,0,1,5.292-5.262H23.53a4.268,4.268,0,0,0,4.235-4.3V6.77a4.729,4.729,0,0,0-4.235-4.4,26.423,26.423,0,0,0-4.413-.345Zm-4.581,2.6a1.614,1.614,0,1,1-1.589,1.619,1.607,1.607,0,0,1,1.589-1.619Z" fill="url(#b)"/><path d="M28.821,11.074v3.761a5.433,5.433,0,0,1-5.292,5.371H15.069a4.321,4.321,0,0,0-4.235,4.3v8.066c0,2.3,2,3.646,4.235,4.3a14.17,14.17,0,0,0,8.461,0c2.132-.617,4.235-1.86,4.235-4.3V29.349H19.3V28.273H32c2.462,0,3.379-1.717,4.235-4.295a14.533,14.533,0,0,0,0-8.609c-.608-2.451-1.77-4.295-4.235-4.295ZM24.063,31.5a1.614,1.614,0,1,1-1.589,1.609A1.6,1.6,0,0,1,24.063,31.5Z" fill="url(#c)"/><path d="M146.447,8.5h.493V5.406h1.169V5.037h-2.831v.369h1.169V8.5m2.1,0h.421V5.675l.915,2.826h.469l.954-2.817V8.5h.46V5.038h-.608l-1.042,2.967-.888-2.967h-.68V8.5" fill="#646464"/><path d="M30.752,42.365c0,1.216-5.082,2.2-11.352,2.2s-11.351-.985-11.351-2.2,5.082-2.2,11.351-2.2S30.752,41.149,30.752,42.365Z" opacity="0.444" fill="url(#d)"/></g></g></svg>