<svg xmlns="http://www.w3.org/2000/svg" xmlns:xlink="http://www.w3.org/1999/xlink" width="150" height="150" viewBox="0 0 150 150"><defs><clipPath id="a"><rect width="150" height="150" transform="translate(1133.5 1501)" fill="#fff" stroke="#707070" stroke-width="1"/></clipPath></defs><g transform="translate(-1133.5 -1501)" clip-path="url(#a)"><g transform="translate(1145.105 1518.94)"><path d="M.445,56.856c0,9.508,9.285,18.384,23.922,23.387-2.923,14.715-.524,26.575,7.49,31.2,8.236,4.75,20.507,1.462,32.154-8.719,11.353,9.77,22.827,13.615,30.833,8.98,8.229-4.764,10.731-17.428,7.728-32.6,15.246-5.04,23.774-12.609,23.774-22.242,0-9.287-9.3-17.322-23.741-22.293,3.234-15.8.494-27.374-7.851-32.186-8.045-4.64-19.653-.6-31.172,9.429C51.594,1.165,40.1-2.083,31.765,2.742c-8.038,4.653-10.332,16.729-7.4,31.716C10.223,39.39.445,47.606.445,56.856Z" transform="translate(0 0)" fill="#fff"/><path d="M100.917,40.8q-1.785-.612-3.6-1.134.3-1.222.556-2.455c2.725-13.226.943-23.881-5.14-27.388-5.833-3.364-15.372.144-25.006,8.527q-1.424,1.242-2.784,2.555-.91-.873-1.853-1.711C52.994,10.229,42.873,6.451,36.8,9.969c-5.827,3.373-7.553,13.39-5.1,25.924q.366,1.862.826,3.7c-1.432.407-2.815.84-4.138,1.3-11.837,4.127-19.4,10.6-19.4,17.3,0,6.93,8.115,13.88,20.445,18.094q1.5.51,3.023.945-.495,1.983-.878,3.992c-2.339,12.316-.512,22.1,5.3,25.448,6,3.461,16.078-.1,25.888-8.672q1.163-1.017,2.333-2.151,1.472,1.421,3.022,2.758c9.5,8.177,18.888,11.479,24.695,8.118,6-3.472,7.946-13.977,5.415-26.759q-.289-1.464-.67-2.989,1.061-.313,2.079-.649C112.457,72.09,120.8,65.224,120.8,58.2c0-6.733-7.8-13.245-19.879-17.4Z" transform="translate(-1.372 -1.301)" fill="#53c1de"/><path d="M99.051,72.715c-.611.2-1.239.4-1.878.587a112.108,112.108,0,0,0-5.662-14.165A112.057,112.057,0,0,0,96.953,45.18c1.144.332,2.254.68,3.324,1.049,10.347,3.561,16.658,8.828,16.658,12.885,0,4.322-6.816,9.934-17.883,13.6Zm-4.592,9.1A40.446,40.446,0,0,1,95,96.572c-.666,3.59-2.005,5.983-3.661,6.941-3.524,2.04-11.059-.612-19.186-7.6q-1.4-1.2-2.812-2.563a112.246,112.246,0,0,0,9.372-11.9A111.5,111.5,0,0,0,93.854,79.11q.341,1.381.605,2.7ZM48.019,103.16c-3.443,1.216-6.184,1.25-7.842.295-3.527-2.034-4.993-9.887-2.993-20.419q.357-1.867.816-3.712A112.316,112.316,0,0,0,53.068,81.5a116.231,116.231,0,0,0,9.6,11.858q-1.041,1.007-2.13,1.962A40.454,40.454,0,0,1,48.02,103.16ZM31.891,72.689A40.464,40.464,0,0,1,18.85,65.761c-2.773-2.375-4.173-4.733-4.173-6.647,0-4.071,6.07-9.264,16.194-12.794q1.906-.662,3.848-1.211a114.553,114.553,0,0,0,5.45,14.121,116.293,116.293,0,0,0-5.517,14.322q-1.39-.4-2.76-.864Zm5.407-36.8c-2.1-10.739-.706-18.84,2.806-20.873,3.741-2.165,12.012.922,20.73,8.663.557.495,1.117,1.013,1.677,1.549a114.461,114.461,0,0,0-9.525,11.787,116.71,116.71,0,0,0-14.92,2.319q-.428-1.713-.768-3.445ZM85.527,47.8q-1.64-2.832-3.4-5.592c3.568.45,6.986,1.049,10.2,1.782a101.888,101.888,0,0,1-3.579,9.628q-1.55-2.941-3.216-5.818ZM65.859,28.64a102.151,102.151,0,0,1,6.58,7.943q-6.6-.312-13.215,0c2.172-2.865,4.4-5.526,6.635-7.94ZM46.065,47.83q-1.645,2.854-3.156,5.782c-1.391-3.3-2.581-6.543-3.553-9.675,3.19-.714,6.592-1.3,10.137-1.74q-1.78,2.776-3.428,5.633Zm3.53,28.543a101.7,101.7,0,0,1-10.3-1.657c.987-3.188,2.2-6.5,3.624-9.871q1.517,2.93,3.17,5.786,1.686,2.912,3.51,5.742Zm16.4,13.553c-2.264-2.443-4.522-5.145-6.727-8.051Q62.475,82,65.806,82q3.419,0,6.749-.15A101.574,101.574,0,0,1,65.991,89.926Zm22.8-25.252a101.439,101.439,0,0,1,3.755,9.836,101.37,101.37,0,0,1-10.43,1.778q1.773-2.81,3.433-5.69,1.687-2.926,3.243-5.924Zm-7.38,3.538q-2.541,4.413-5.364,8.655c-3.317.237-6.746.359-10.239.359s-6.864-.108-10.123-.32q-2.9-4.229-5.464-8.668-2.555-4.412-4.77-9.009,2.208-4.595,4.756-9.014h0q2.546-4.417,5.421-8.631c3.325-.251,6.735-.383,10.181-.383,3.462,0,6.876.133,10.2.386q2.845,4.2,5.387,8.6t4.82,8.971q-2.24,4.609-4.8,9.05Zm9.854-53.339c3.744,2.159,5.2,10.867,2.848,22.286q-.231,1.116-.5,2.223a114.424,114.424,0,0,0-14.95-2.362,112.206,112.206,0,0,0-9.451-11.8q1.256-1.211,2.571-2.358c8.255-7.184,15.97-10.02,19.485-7.993Z" transform="translate(-2.287 -2.213)" fill="#fff"/><path d="M73.682,55.81A9.984,9.984,0,1,1,63.7,65.794a9.984,9.984,0,0,1,9.984-9.984" transform="translate(-10.163 -8.893)" fill="#53c1de"/></g></g></svg>