<svg xmlns="http://www.w3.org/2000/svg" xmlns:xlink="http://www.w3.org/1999/xlink" width="254.64" height="1042.547" viewBox="0 0 254.64 1042.547"><defs><filter id="a" x="0" y="0" width="254.64" height="1042.547" filterUnits="userSpaceOnUse"><feOffset dy="3" input="SourceAlpha"/><feGaussianBlur stdDeviation="12.5" result="b"/><feFlood flood-opacity="0.161"/><feComposite operator="in" in2="b"/><feComposite in="SourceGraphic"/></filter></defs><g transform="matrix(1, 0, 0, 1, 0, 0)" filter="url(#a)"><path d="M-433.73-124.3q23.32,0,37.29,11.66t17.49,30.8h-35.2a19.5,19.5,0,0,0-6.93-11.77q-5.39-4.29-13.53-4.29-6.38,0-9.68,2.75a9.6,9.6,0,0,0-3.3,7.81q0,5.72,6.05,8.58t19.03,5.72a188.979,188.979,0,0,1,23.1,6.71,38.109,38.109,0,0,1,15.62,11.11q6.6,7.7,6.6,20.68a31.715,31.715,0,0,1-5.72,18.7q-5.72,8.14-16.5,12.76t-25.52,4.62q-24.86,0-39.82-11t-18.26-31.46h36.3q.88,7.92,6.71,12.1t15.07,4.18q6.38,0,9.68-2.97a10.005,10.005,0,0,0,3.3-7.81q0-6.38-6.05-9.13t-19.69-5.83a157.448,157.448,0,0,1-22.44-6.16,37.047,37.047,0,0,1-15.18-10.67q-6.38-7.37-6.38-20.13,0-16.5,12.54-26.73T-433.73-124.3Zm189.64,59.62a51.9,51.9,0,0,1-1.1,10.12h-85.14q.66,13.86,7.04,19.91t16.28,6.05q8.36,0,13.86-4.18a19.519,19.519,0,0,0,7.26-10.78h39.82a52.029,52.029,0,0,1-10.56,23.21A56.283,56.283,0,0,1-277.31-4.29a65.479,65.479,0,0,1-27.94,5.83q-18.04,0-32.01-7.59a54.233,54.233,0,0,1-21.89-21.89q-7.92-14.3-7.92-33.44,0-19.36,7.81-33.55a53.524,53.524,0,0,1,21.89-21.78q14.08-7.59,32.12-7.59,18.26,0,32.12,7.48a52.843,52.843,0,0,1,21.45,21.01Q-244.09-82.28-244.09-64.68Zm-38.06-5.72q.22-12.1-6.49-18.15a23.89,23.89,0,0,0-16.61-6.05q-10.34,0-17.16,6.16t-7.7,18.04Zm90.86-29.26a53.383,53.383,0,0,1,18.15-17.82,46.333,46.333,0,0,1,24.09-6.6v40.26h-10.78q-14.96,0-23.21,6.38t-8.25,21.56V0h-37.62V-122.76h37.62ZM-80.85-36.74l26.62-86.02h40.04L-57.75,0h-46.64l-43.56-122.76h40.04ZM-6.49-157.3A18.363,18.363,0,0,1-.33-171.49q6.16-5.61,16.28-5.61t16.28,5.61a18.363,18.363,0,0,1,6.16,14.19,18.121,18.121,0,0,1-6.16,13.97q-6.16,5.61-16.28,5.61T-.33-143.33A18.121,18.121,0,0,1-6.49-157.3Zm41.14,34.54V0H-2.97V-122.76Zm77-1.54q23.76,0,39.82,13.09t20.24,35.97H131.89a21.007,21.007,0,0,0-7.26-12.32q-5.5-4.4-13.86-4.4a20.1,20.1,0,0,0-16.28,7.81q-6.38,7.81-6.38,22.77t6.38,22.77a20.1,20.1,0,0,0,16.28,7.81q8.36,0,13.86-4.4a21.007,21.007,0,0,0,7.26-12.32h39.82q-4.18,22.88-20.24,35.97T111.65,1.54q-18.04,0-32.01-7.59A54.232,54.232,0,0,1,57.75-27.94q-7.92-14.3-7.92-33.44,0-19.36,7.81-33.55a53.524,53.524,0,0,1,21.89-21.78Q93.61-124.3,111.65-124.3Zm71.72-33a18.363,18.363,0,0,1,6.16-14.19q6.16-5.61,16.28-5.61t16.28,5.61a18.363,18.363,0,0,1,6.16,14.19,18.121,18.121,0,0,1-6.16,13.97q-6.16,5.61-16.28,5.61t-16.28-5.61A18.121,18.121,0,0,1,183.37-157.3Zm41.14,34.54V0H186.89V-122.76Zm78.98-1.54q18.26,0,32.67,7.59a55.644,55.644,0,0,1,22.66,21.89q8.25,14.3,8.25,33.44t-8.25,33.44A55.644,55.644,0,0,1,336.16-6.05q-14.41,7.59-32.67,7.59T270.71-6.05a55.47,55.47,0,0,1-22.77-21.89q-8.25-14.3-8.25-33.44t8.25-33.44a55.47,55.47,0,0,1,22.77-21.89Q285.23-124.3,303.49-124.3Zm0,32.56a23.972,23.972,0,0,0-18.15,7.81q-7.37,7.81-7.37,22.55t7.37,22.44a24.134,24.134,0,0,0,18.15,7.7,23.786,23.786,0,0,0,18.04-7.7q7.26-7.7,7.26-22.44t-7.26-22.55A23.628,23.628,0,0,0,303.49-91.74ZM426.91-124.3q23.32,0,37.29,11.66t17.49,30.8h-35.2a19.5,19.5,0,0,0-6.93-11.77q-5.39-4.29-13.53-4.29-6.38,0-9.68,2.75a9.6,9.6,0,0,0-3.3,7.81q0,5.72,6.05,8.58t19.03,5.72a188.979,188.979,0,0,1,23.1,6.71,38.109,38.109,0,0,1,15.62,11.11q6.6,7.7,6.6,20.68a31.715,31.715,0,0,1-5.72,18.7q-5.72,8.14-16.5,12.76T435.71,1.54q-24.86,0-39.82-11T377.63-40.92h36.3q.88,7.92,6.71,12.1t15.07,4.18q6.38,0,9.68-2.97a10.005,10.005,0,0,0,3.3-7.81q0-6.38-6.05-9.13t-19.69-5.83a157.448,157.448,0,0,1-22.44-6.16,37.047,37.047,0,0,1-15.18-10.67q-6.38-7.37-6.38-20.13,0-16.5,12.54-26.73T426.91-124.3Z" transform="translate(215.1 518.45) rotate(-90)" fill="#0c3455" stroke="rgba(0,0,0,0)" stroke-width="1" opacity="0.09"/></g></svg>