<svg xmlns="http://www.w3.org/2000/svg" width="223.389" height="644.766" viewBox="0 0 223.389 644.766"><path d="M140.771,302.49q27.686,0,42.261-12.6t14.575-32.959a50.218,50.218,0,0,0-.879-9.814q-2.783-14.648-16.992-23.437-8.2-5.273-32.52-14.209-11.572-4.395-16.772-7.91t-5.2-7.91a9.142,9.142,0,0,1,4.395-8.13,17.874,17.874,0,0,1,9.961-2.856,45.132,45.132,0,0,1,17.651,3.882,58.6,58.6,0,0,1,17.358,11.646l19.043-28.711a87.537,87.537,0,0,0-25.342-14.062,87.133,87.133,0,0,0-28.271-4.395,64.316,64.316,0,0,0-26.88,5.42,45.131,45.131,0,0,0-18.9,15.454A39.495,39.495,0,0,0,87.3,194.971a47.936,47.936,0,0,0,1.611,12.744,33.818,33.818,0,0,0,4.761,10.4,51.875,51.875,0,0,0,7.031,8.2,45.845,45.845,0,0,0,9.3,6.665,111.533,111.533,0,0,0,10.62,5.2q5.2,2.2,11.792,4.395,10.4,3.369,15.6,5.566a30.245,30.245,0,0,1,8.13,4.761,7.7,7.7,0,0,1,2.93,5.933,10.277,10.277,0,0,1-4.834,8.789Q149.414,271,141.064,271q-22.266,0-40.576-17.139l-19.043,27.1Q105.908,302.49,140.771,302.49ZM284.988,241.7,319.852,300h43.8l-52.588-88.184,51.709-58.3h-46L264.48,212.549h-.586V79.1H224.637V300h39.258V264.99L284.549,241.7Zm119.9-108.838a23.637,23.637,0,0,0,17.139-7.031,23.529,23.529,0,0,0,0-33.838,24.493,24.493,0,0,0-34.351,0,22.863,22.863,0,0,0-7.1,16.846,23.448,23.448,0,0,0,3.223,12.085,23.728,23.728,0,0,0,8.862,8.716A24.236,24.236,0,0,0,404.889,132.861ZM385.26,300h39.258V153.516H385.26Zm79.617,0h39.258V79.1H464.877Zm79.471,0h39.258V79.1H544.348Zm125.027,2.49q27.686,0,42.261-12.6t14.575-32.959a50.218,50.218,0,0,0-.879-9.814q-2.783-14.648-16.992-23.437-8.2-5.273-32.52-14.209-11.572-4.395-16.772-7.91t-5.2-7.91a9.142,9.142,0,0,1,4.395-8.13,17.874,17.874,0,0,1,9.961-2.856,45.132,45.132,0,0,1,17.651,3.882,58.6,58.6,0,0,1,17.358,11.646l19.043-28.711a82.14,82.14,0,0,0-53.613-18.457,64.316,64.316,0,0,0-26.88,5.42,45.131,45.131,0,0,0-18.9,15.454,39.495,39.495,0,0,0-6.958,23.071,47.936,47.936,0,0,0,1.611,12.744,33.818,33.818,0,0,0,4.761,10.4,51.875,51.875,0,0,0,7.031,8.2,45.845,45.845,0,0,0,9.3,6.665,111.533,111.533,0,0,0,10.62,5.2q5.2,2.2,11.792,4.395,10.4,3.369,15.6,5.566a30.245,30.245,0,0,1,8.13,4.761,7.7,7.7,0,0,1,2.93,5.933,10.277,10.277,0,0,1-4.834,8.789Q678.018,271,669.668,271q-22.266,0-40.576-17.139l-19.043,27.1Q634.512,302.49,669.375,302.49Z" transform="translate(-79.102 726.211) rotate(-90)" fill="#e8ebef"/></svg>