<svg xmlns="http://www.w3.org/2000/svg" xmlns:xlink="http://www.w3.org/1999/xlink" width="150" height="150" viewBox="0 0 150 150"><defs><clipPath id="a"><rect width="150" height="150" transform="translate(1631.5 1331)" fill="#fff" stroke="#707070" stroke-width="1"/></clipPath><linearGradient id="b" x1="0.577" y1="0.02" x2="0.577" y2="0.944" gradientUnits="objectBoundingBox"><stop offset="0" stop-color="#97d9f6"/><stop offset="0.92" stop-color="#0f80cc"/><stop offset="1" stop-color="#0f80cc"/></linearGradient></defs><g transform="translate(-1631.5 -1331)" clip-path="url(#a)"><g transform="translate(1631.5 1372.713)"><path d="M57.013,32.84a6.79,6.79,0,0,0-4.871,1.775,6.122,6.122,0,0,0-1.878,4.638,7.628,7.628,0,0,0,.466,2.707,6.847,6.847,0,0,0,1.438,2.28,21.018,21.018,0,0,0,3.873,2.824A19.633,19.633,0,0,1,60.7,50.6a4.5,4.5,0,0,1,1.114,2.876,4.07,4.07,0,0,1-1.347,3.213,5.277,5.277,0,0,1-3.627,1.2,5.929,5.929,0,0,1-5.959-6.1h-.739v6.7h.739c.226-.634.538-.958.946-.958a6.076,6.076,0,0,1,1.373.388,13.384,13.384,0,0,0,4.3.92,7.054,7.054,0,0,0,7.047-7.047,6.41,6.41,0,0,0-1.36-4.016,19.489,19.489,0,0,0-5.273-4.094,17.427,17.427,0,0,1-4.391-3.316,4.507,4.507,0,0,1-1.023-2.85,3.343,3.343,0,0,1,1.231-2.708,4.887,4.887,0,0,1,3.226-1.01,5.389,5.389,0,0,1,3.757,1.347A5.652,5.652,0,0,1,62.454,38.9h.739V33.1h-.687a1.758,1.758,0,0,1-.233.57.5.5,0,0,1-.4.13,4.963,4.963,0,0,1-1.27-.3,11.323,11.323,0,0,0-3.588-.661Zm24.134,0A13.086,13.086,0,0,0,74.5,34.563,13.064,13.064,0,0,0,68,45.807a12.4,12.4,0,0,0,3.044,8.239,12.762,12.762,0,0,0,7.306,4.482,11.8,11.8,0,0,1,2.785,2.617,21.934,21.934,0,0,0,3.472,3.42,10.432,10.432,0,0,0,3.057,1.516,12.04,12.04,0,0,0,3.524.492,9.867,9.867,0,0,0,4.119-.816l-.272-.674a6.559,6.559,0,0,1-2.241.376A5.9,5.9,0,0,1,89.554,64.4,20.143,20.143,0,0,1,85.5,60.329a13.939,13.939,0,0,0-1.581-1.8,12.788,12.788,0,0,0,7.63-4.508,12.537,12.537,0,0,0,2.979-8.213A12.332,12.332,0,0,0,90.656,36.6a13.145,13.145,0,0,0-9.509-3.757Zm15.066,0,.039.79c1.622,0,2.53.478,2.733,1.438a10.925,10.925,0,0,1,.116,1.891l-.013,17.476a3.909,3.909,0,0,1-.557,2.5,2.983,2.983,0,0,1-1.839.674l-.039.79h16.167l.415-3.964H112.5a3.167,3.167,0,0,1-1.464,2.293,8.949,8.949,0,0,1-4.107.661H105.4q-2.66,0-3.07-1.93a4.055,4.055,0,0,1-.078-.829l.064-17.67a4.542,4.542,0,0,1,.506-2.6,2.522,2.522,0,0,1,1.865-.725l-.039-.79H96.213ZM81.406,33.8a8.189,8.189,0,0,1,6.724,3.265q2.6,3.275,2.591,8.965A13.323,13.323,0,0,1,88.1,54.655a8.5,8.5,0,0,1-6.957,3.239A8.133,8.133,0,0,1,74.4,54.551a13.813,13.813,0,0,1-2.578-8.693q0-5.492,2.6-8.783A8.459,8.459,0,0,1,81.406,33.8Zm37.18,3.757a1.127,1.127,0,0,0-.92.4,1.087,1.087,0,0,0-.22.985,1.735,1.735,0,0,0,.635,1,1.7,1.7,0,0,0,1.1.428,1.034,1.034,0,0,0,.881-.428,1.2,1.2,0,0,0,.194-1,1.7,1.7,0,0,0-.609-.985,1.636,1.636,0,0,0-1.062-.4Zm10.661,2.682q-1.005,3.866-4.352,4.2l.026.739h2.6l-.052,8.731a18.488,18.488,0,0,0,.155,2.993A2.155,2.155,0,0,0,130,58.723q2.872,0,6.024-3.5l-.635-.544q-2.275,2.3-4.029,2.306c-.72,0-1.166-.414-1.334-1.231a3.138,3.138,0,0,1-.064-.7l.026-9.884h3.977l-.039-1.179H130V40.237h-.751Zm15.377,3.29a6.307,6.307,0,0,0-5.441,3.226A9.161,9.161,0,0,0,137.9,53.9a6.162,6.162,0,0,0,1.956,3.562,5.57,5.57,0,0,0,3.731,1.257,7.473,7.473,0,0,0,4.145-1.062A9.732,9.732,0,0,0,150,54.228l-.557-.583a6.033,6.033,0,0,1-5.039,3.07c-2.322,0-3.745-1.274-4.275-3.809a9.268,9.268,0,0,1-.155-1.036,13.472,13.472,0,0,0,6.27-2.332c1.412-1.121,2.83-2.308,2.565-3.563a2.887,2.887,0,0,0-1.14-1.775,6.678,6.678,0,0,0-3.044-.674Zm-24.315.091-4.793,1.1v.855l1.658-.207a1.283,1.283,0,0,1,1.425,1.088,5.851,5.851,0,0,1,.091,1.011l-.052,7.837c-.013,1.084-.134,1.715-.375,1.9a3.881,3.881,0,0,1-1.93.285l-.026.738h7.6l-.013-.739a5.292,5.292,0,0,1-2.047-.246,1.224,1.224,0,0,1-.6-.907,9.607,9.607,0,0,1-.1-1.658l.026-11.063h-.868Zm23.1,1.451a2.19,2.19,0,0,1,1.36.531,2.05,2.05,0,0,1,.8,1.166C146,48.85,144.156,50.29,140,51.092a7.341,7.341,0,0,1,.816-4.145,2.969,2.969,0,0,1,2.591-1.878Z" fill="#003b57"/><path d="M46.276,2.917H5.027A5.041,5.041,0,0,0,0,7.943V53.434a5.041,5.041,0,0,0,5.027,5.027H32.194C31.886,44.943,36.5,18.708,46.276,2.917Z" fill="#0f80cc"/><path d="M44.778,4.383H5.027A3.565,3.565,0,0,0,1.466,7.944V50.115c9-3.455,22.515-6.436,31.857-6.3A290.1,290.1,0,0,1,44.778,4.383Z" fill="url(#b)"/><path d="M55.9,1.428c-2.825-2.519-6.246-1.507-9.621,1.489-.5.445-1,.939-1.5,1.466C39,10.51,33.642,21.858,31.976,30.524A23.87,23.87,0,0,1,33.466,34.8c.086.329.163.638.225.9.147.622.225,1.025.225,1.025s-.052-.2-.264-.812c-.04-.118-.086-.247-.139-.4q-.042-.111-.089-.22c-.377-.876-1.419-2.724-1.877-3.529q-.545,1.6-1.029,3.219a28.485,28.485,0,0,1,2.131,6.574s-.07-.269-.4-1.208a44.737,44.737,0,0,0-2.115-4.011c-.6,2.2-.833,3.687-.619,4.048a14.114,14.114,0,0,1,1.157,3.248c.783,3.013,1.328,6.681,1.328,6.681s.018.243.047.617a61.3,61.3,0,0,0,.152,7.525,26.669,26.669,0,0,0,1.371,7.279l.423-.23a32.543,32.543,0,0,1-1.123-10.867A82.813,82.813,0,0,1,37.416,31.9C42.134,19.433,48.681,9.433,54.673,4.657c-5.461,4.932-12.853,20.9-15.065,26.809a107.183,107.183,0,0,0-5.291,18.785c1.826-5.58,7.728-7.979,7.728-7.979S44.94,38.7,48.323,33.6a61.554,61.554,0,0,0-6.469,1.722c-1.644.69-2.087.925-2.087.925a56.187,56.187,0,0,1,9.895-4.712c6.284-9.9,13.13-23.958,6.236-30.108" fill="#003b57"/></g></g></svg>