<svg xmlns="http://www.w3.org/2000/svg" width="804.335" height="648.431" viewBox="0 0 804.335 648.431"><g transform="translate(-65.969 -88.523)"><g transform="translate(44.304 88.523)"><path d="M78.972,337.566H266.405c23.7,0-9.866-15.685-17.412-4.947,0-12.649-10.254-19.669-22.9-19.669a22.843,22.843,0,0,0-7.268,1.2,22.692,22.692,0,0,0-35.356-24.513,36.7,36.7,0,1,0-72.5-8.124,37.086,37.086,0,0,0,.436,5.662,19.709,19.709,0,0,0-26.423,26.345,13.172,13.172,0,0,0-16.992,12.611C67.991,331.029,72.7,337.566,78.972,337.566Z" transform="translate(-20.432 68.978)" fill="#fff" opacity="0.2"/><path d="M494.128,182.112a11.317,11.317,0,0,0-7.419,2.763,12.766,12.766,0,0,0-12.479-15.551A12.73,12.73,0,0,0,467.916,171a32,32,0,0,0,.363-4.817,31.635,31.635,0,0,0-63.1-3.237,10.625,10.625,0,0,0-16.844,10.84,8.983,8.983,0,0,0-13.709,11.38,14.123,14.123,0,0,0-3.963-.568c-7.248,0-12.966,6.5-7.463,6.5H502.043C506.165,191.1,501.83,182.112,494.128,182.112Z" transform="translate(274.867 -42.137)" fill="#fff" opacity="0.2"/><path d="M511.246,343.109a11.323,11.323,0,0,0-7.421,2.765A12.773,12.773,0,0,0,485.032,332a31.636,31.636,0,1,0-62.738-8.053,10.625,10.625,0,0,0-16.844,10.84,8.983,8.983,0,0,0-13.709,11.38,14.126,14.126,0,0,0-3.965-.568c-7.246,0-12.966,6.5-7.463,6.5H519.159C523.281,352.1,518.948,343.109,511.246,343.109Z" transform="translate(292.117 120.12)" fill="#fff" opacity="0.2"/><path d="M289.913,123.818H233.186a8.054,8.054,0,0,1,6.62-14.137,18.3,18.3,0,0,1,36.121-5.845,12.215,12.215,0,1,1,13.986,19.982Z" transform="translate(143.098 -88.523)" fill="#fff" opacity="0.2"/><g transform="translate(96.938 454.334)"><path d="M92.584,356.785V314.806H258.233v165.3H92.584v-24" transform="translate(-92.584 -314.806)" fill="none" stroke="#8fc4e6" stroke-linecap="round" stroke-linejoin="round" stroke-width="1"/><line y2="39.53" transform="translate(0 95.192)" stroke-width="1" stroke="#8fc4e6" stroke-linecap="round" stroke-linejoin="round" fill="none"/><line y2="5.261" transform="translate(0 80.553)" stroke-width="1" stroke="#8fc4e6" stroke-linecap="round" stroke-linejoin="round" fill="none"/><g transform="translate(13.129 19.905)"><rect width="25.991" height="51.271" transform="translate(116.892 27.672)" fill="#0964af" opacity="0.25"/><rect width="142.882" height="17.411" fill="#0964af" opacity="0.25"/><rect width="110.506" height="8.328" transform="translate(1.175 27.672)" fill="#0964af" opacity="0.25"/><rect width="110.506" height="8.328" transform="translate(1.175 49.143)" fill="#0964af" opacity="0.25"/><rect width="110.506" height="8.328" transform="translate(1.175 70.615)" fill="#0964af" opacity="0.25"/><rect width="142.296" height="8.328" transform="translate(1.175 92.086)" fill="#0964af" opacity="0.25"/><rect width="142.296" height="8.328" transform="translate(1.175 113.558)" fill="#0964af" opacity="0.25"/></g></g><g transform="translate(479.736 58.808)"><path d="M283.238,164.278V117.812H466.593V300.786H283.238V274.218" transform="translate(-283.238 -117.812)" fill="none" stroke="#8fc4e6" stroke-linecap="round" stroke-linejoin="round" stroke-width="1"/><line y2="43.755" transform="translate(0 105.367)" stroke-width="1" stroke="#8fc4e6" stroke-linecap="round" stroke-linejoin="round" fill="none"/><line y2="5.824" transform="translate(0 89.163)" stroke-width="1" stroke="#8fc4e6" stroke-linecap="round" stroke-linejoin="round" fill="none"/><g transform="translate(14.533 22.032)"><rect width="28.769" height="56.751" transform="translate(129.386 30.63)" fill="#0964af" opacity="0.25"/><rect width="158.154" height="19.272" fill="#0964af" opacity="0.25"/><rect width="122.318" height="9.218" transform="translate(1.3 30.63)" fill="#0964af" opacity="0.25"/><rect width="122.318" height="9.218" transform="translate(1.3 54.396)" fill="#0964af" opacity="0.25"/><rect width="122.318" height="9.218" transform="translate(1.3 78.163)" fill="#0964af" opacity="0.25"/><rect width="157.506" height="9.218" transform="translate(1.3 101.929)" fill="#0964af" opacity="0.25"/><rect width="157.506" height="9.218" transform="translate(1.3 125.695)" fill="#0964af" opacity="0.25"/></g></g><path d="M145.471,201.457h91.815a13.034,13.034,0,0,0-10.716-22.881,29.612,29.612,0,0,0-58.464-9.463,19.772,19.772,0,1,0-22.636,32.344Z" transform="translate(48.198 -32.279)" fill="#fff" opacity="0.2"/><g transform="translate(535.976 179.733)"><path d="M326.044,351.087l13.211,90.277s10.479,14.147,49.983,14.147,49.982-14.147,49.982-14.147l13.209-90.277Z" transform="translate(-296.338 -3.64)" fill="#0e67aa"/><path d="M389.141,399.547c23.263,0,43.937-2.931,57.1-7.473l5.9-40.329h-126l5.9,40.329C345.2,396.616,365.877,399.547,389.141,399.547Z" transform="translate(-296.241 -2.977)" fill="#1d3f72"/><path d="M467.379,375.85c0,10.551-32.229,19.1-71.988,19.1s-71.99-8.553-71.99-19.1l-3.461-28.7h150.9Z" transform="translate(-302.491 -7.606)" fill="#0e67aa"/><ellipse cx="75.451" cy="20.023" rx="75.451" ry="20.023" transform="translate(17.448 319.524)" fill="#4193b7"/><ellipse cx="67.466" cy="15.094" rx="67.466" ry="15.094" transform="translate(25.434 324.078)" fill="#1c538e"/><path d="M327,359.066c8.593-6.126,34.165-10.569,64.379-10.569s55.783,4.443,64.377,10.569c2-1.428,3.088-2.947,3.088-4.524,0-8.336-30.206-15.095-67.465-15.095s-67.467,6.758-67.467,15.095C323.916,356.119,325,357.639,327,359.066Z" transform="translate(-298.483 -15.37)" fill="#0d2644"/><g transform="translate(60.466)"><path d="M426.941,397.342c4.871-17.522-1.048-31.36-7.483-46.993s-7.511-32.221-5.048-48.661c3.3-22.315,10.7-43.867,2.156-65.495-8.007-20.426-15.741-47.338-37.833-55.948-21.476-9.172-37.727,12.009-37.363,31.523s11.441,37.112,5.907,56.379c-4.208,15.775-9.718,34.452-1.49,49.569,9.85,18.731,28.206,31.908,21.343,54.665-2.706,8.158-7.132,15.063-8.067,23.295-1.11,12.362,5.14,15.4,10.756,25.268,23.646,41.556-19.671,58.313-2.672,103.959a3.118,3.118,0,0,0,3.076,2.042h0a3.065,3.065,0,0,0,2.905-2.7c5.409-51.049,41.795-33.446,42.174-74.8.07-7.7-2.3-15.46-1.393-23.1C414.993,414.567,424.112,408.449,426.941,397.342Z" transform="translate(-341.364 -178.04)" fill="#15ccbe"/><path d="M359.928,294.968s2.022,23.377,19.09,26.266" transform="translate(-322.655 -60.198)" fill="none" stroke="#7defe9" stroke-linecap="round" stroke-linejoin="round" stroke-width="1"/><path d="M351.8,238.638s1.215,26.092,23.128,33.177" transform="translate(-330.841 -116.968)" fill="none" stroke="#7defe9" stroke-linecap="round" stroke-linejoin="round" stroke-width="1"/><path d="M387.292,220.968s-1.026,27.162-22.371,31.274" transform="translate(-317.623 -134.776)" fill="none" stroke="#7defe9" stroke-linecap="round" stroke-linejoin="round" stroke-width="1"/><path d="M381.827,263.231s5.122,29.7-12.161,37.305" transform="translate(-312.841 -92.183)" fill="none" stroke="#7defe9" stroke-linecap="round" stroke-linejoin="round" stroke-width="1"/><path d="M387.146,312.988s0,27.055-27.218,29.79" transform="translate(-322.655 -42.037)" fill="none" stroke="#7defe9" stroke-linecap="round" stroke-linejoin="round" stroke-width="1"/><path d="M356.559,202.15s2.018,27.336,18.267,31.924" transform="translate(-326.05 -153.741)" fill="none" stroke="#7defe9" stroke-linecap="round" stroke-linejoin="round" stroke-width="1"/><path d="M359.6,192.791c18.747,18.544,17.2,60.55,15.794,79.989-1.185,14.131-8.712,47-.032,70.9,9.182,25.284,17.442,52.265,6.987,87.055-7.3,24.293-31.029,36.094-26.28,80.393" transform="translate(-327.169 -163.173)" fill="none" stroke="#7defe9" stroke-linecap="round" stroke-linejoin="round" stroke-width="1"/><path d="M404.346,387.481c.036.775.06,1.55.052,2.325-.249,27.146-16.012,28.888-28.344,41.319,1.444-7.244,1.787-16.207,6.626-22.122,5.313-5.9,12.4-7.084,17.709-14.167A27.771,27.771,0,0,0,404.346,387.481Zm4.208-96.767c-6.433-15.631-7.511-32.221-5.048-48.661.239-1.618.5-3.231.775-4.841a34.721,34.721,0,0,0-19.116,17.978c-11.951,25.353-2.534,42.556,7.746,61.734,8.391,15.651,2.951,30.107,4.722,46.636.741,6.913,3.749,12.274,6.1,17.428-.594-4.779-1.289-9.553-.725-14.284,1.084-11.772,10.2-17.89,13.033-29C420.909,320.185,414.99,306.347,408.555,290.714Zm-44.61,132.8c-1.67-3.588-3.668-7.469-4.014-11.4-5.395,14.139-11.4,28.778-4.957,49.42.016.056.036.11.052.167.367,1.167.767,2.349,1.217,3.558a3.277,3.277,0,0,0,.345.655c.024.034.046.07.07.1a3.276,3.276,0,0,0,.492.534l.034.026a3.071,3.071,0,0,0,2.134.723h0a3.1,3.1,0,0,0,1.618-.562,2.989,2.989,0,0,0,1.249-1.954c.01-.064.03-.122.038-.187a71.182,71.182,0,0,1,4.259-18.649c-1.12.729-2.267,1.4-3.4,2.118C366.728,439.8,369.248,434.909,363.945,423.519Z" transform="translate(-330.461 -118.405)" fill="#15ccbe" opacity="0.75" style="mix-blend-mode:multiply;isolation:isolate"/></g><g transform="translate(85.979 101.943)"><path d="M469.745,337.093c-10.627-19.482-10.6-32.368-9.445-53.131,1.181-21.253-5.315-49.589-31.29-54.311-19.48-3.542-35.328,4.359-42.576,19.733-11.951,25.353-2.534,42.556,7.746,61.734,8.391,15.651,2.951,30.107,4.722,46.638s16.53,24.2,4.132,41.323c-5.313,7.084-12.4,8.264-17.709,14.169-5.315,6.493-5.2,16.671-7.086,24.2-4.759,19.028-23.391,16.33-24.168,35.615-.058,1.438,1.106,2.873,2.12,2.823s1.817.143,2.534-1.132c4.371-7.764,11.587-6.57,19.671-10.15,6.005-2.66,7.849-10.067,22.277-11.808,18.837-2.273,36.012,10.037,45.457-15.348,3.542-8.857,2.361-16.53,4.132-25.385,1.771-11.808,9.447-18.892,17.121-27.156C480.961,369.561,479.19,354.211,469.745,337.093Z" transform="translate(-354.071 -228.813)" fill="#17ddd8"/><g transform="translate(2.329 17.404)"><path d="M378.274,252.56s12.374,21.925,29.7,23.407" transform="translate(-332.008 -222.284)" fill="none" stroke="#6cefe8" stroke-linecap="round" stroke-linejoin="round" stroke-width="1"/><path d="M384.759,286.422s-.962,39.48,11.651,47.86" transform="translate(-325.489 -188.158)" fill="none" stroke="#6cefe8" stroke-linecap="round" stroke-linejoin="round" stroke-width="1"/><path d="M416.563,273.24s-1.436,33.938-22.716,39.9" transform="translate(-316.313 -201.443)" fill="none" stroke="#6cefe8" stroke-linecap="round" stroke-linejoin="round" stroke-width="1"/><path d="M417.478,321.647s-10.842,32.643-41.755,27.367" transform="translate(-334.579 -152.657)" fill="none" stroke="#6cefe8" stroke-linecap="round" stroke-linejoin="round" stroke-width="1"/><path d="M396.539,237.481s8.913,25.782-4.461,38.02" transform="translate(-318.096 -237.481)" fill="none" stroke="#6cefe8" stroke-linecap="round" stroke-linejoin="round" stroke-width="1"/><path d="M355.231,461.022c2.889-10.625,18.544-14.547,23.028-17.462,49.908-32.45,69.444-95.359,44.756-201.82" transform="translate(-355.231 -233.188)" fill="none" stroke="#6cefe8" stroke-linecap="round" stroke-linejoin="round" stroke-width="1"/></g><path d="M354.073,357.621c-.058,1.438,1.106,2.873,2.12,2.823l.153,0c3.17-2.389-.835-5.8,3.973-17.079C356.922,346.637,354.35,350.719,354.073,357.621Z" transform="translate(-354.071 -113.368)" fill="#15ccbe" opacity="0.75" style="mix-blend-mode:multiply;isolation:isolate"/></g><g transform="translate(0 195.645)"><path d="M400.786,379.306c-5.857-12.581-.331-28.762-6.092-37.942-7.053-11.481-18.839-2.749-32.525-18.53-11.489-13.246-3.219-31.6-29.366-45.278-7.983-4.178-17.241-2.126-20.353,6.889-3.73,8.453,2.171,20.58,4.927,28.724,2.684,6.925,5.869,12.071,4.524,19.755-.014.08-.032.165-.052.243-1.508,5.9-5.427,9.055-3.331,16,4.359,16.93,28.342,15.408,40.447,25.963,8.535,7.443.833,16.33,9.2,27.6,8.282,11.157,12.521-.978,27.429,25.435a1.974,1.974,0,0,0,2.692.743h0a1.971,1.971,0,0,0,.99-1.861C397.113,398.467,409.405,397.825,400.786,379.306Z" transform="translate(-311.249 -275.482)" fill="#17ddd8"/><g transform="translate(9.188 13.011)"><path d="M315.825,286.572s1.426,13.075,13.808,17.159" transform="translate(-315.825 -277.316)" fill="none" stroke="#6cefe8" stroke-linecap="round" stroke-linejoin="round" stroke-width="1"/><path d="M319.263,305.015s12.428,14.352,27.856,8.579" transform="translate(-312.36 -258.729)" fill="none" stroke="#6cefe8" stroke-linecap="round" stroke-linejoin="round" stroke-width="1"/><path d="M342.2,305.434s9.336,15.468,2.423,22.646" transform="translate(-289.249 -258.307)" fill="none" stroke="#6cefe8" stroke-linecap="round" stroke-linejoin="round" stroke-width="1"/><path d="M351.393,319.987s5.558,19.1-4.07,26.116" transform="translate(-284.081 -243.64)" fill="none" stroke="#6cefe8" stroke-linecap="round" stroke-linejoin="round" stroke-width="1"/><path d="M327.491,290.845s8.079,19.95,1.167,27.126" transform="translate(-304.068 -273.01)" fill="none" stroke="#6cefe8" stroke-linecap="round" stroke-linejoin="round" stroke-width="1"/><path d="M333.137,319.32s7.186,12.145,27.523,10.933" transform="translate(-298.378 -244.312)" fill="none" stroke="#6cefe8" stroke-linecap="round" stroke-linejoin="round" stroke-width="1"/><path d="M339.991,332.243s1.988,12.272,21.96,15.139" transform="translate(-291.47 -231.288)" fill="none" stroke="#6cefe8" stroke-linecap="round" stroke-linejoin="round" stroke-width="1"/><path d="M388.88,421.507c-.8-26-14.657-28.2-14.2-43.59.359-11.995-.052-23.4-14.657-32.127-25.066-14.982-35.52-30.641-40.606-63.828" transform="translate(-312.204 -281.962)" fill="none" stroke="#6cefe8" stroke-linecap="round" stroke-linejoin="round" stroke-width="1"/></g></g></g><g transform="translate(471.014 205.167)"><path d="M302.409,192.261c-2.452,26.076,16.92,41.124,25.569,63.118L359.441,236.2c-16.249-17.189-39.859-20.387-47.336-45.491" transform="translate(-255.41 -190.707)" fill="#628cd2"/><path d="M363.186,214.863c-19.936,7.459-63.732,12.738-84.292,17.709h0c0,14.607,8.411,26.417,15.577,38.536a409.327,409.327,0,0,1,19.624,36.36c1.558,3.729,7.477,22.064,10.591,24.552,13.916-3.584,30.216-9.633,43.612-19.889,20.871-15.85,37.048-33.259,43.278-58.743l-12.394-18.849-11.521-15.093-16.153-8.057h-6.052Z" transform="translate(-278.894 -169.865)" fill="#628cd2"/><path d="M367.053,242.073s1.179-8.507-3.877,1.984c-3.447,14.059-31.635,44.583-56.474,51.715a9.43,9.43,0,0,0-3.716,7.895c13.33-3.652,28.457-9.547,41.044-19.183,9.706-7.373,18.378-15.095,25.525-23.8C368.313,251.476,367.053,242.073,367.053,242.073Z" transform="translate(-254.625 -142.22)" fill="#628cd2" opacity="0.25" style="mix-blend-mode:multiply;isolation:isolate"/><path d="M330.121,280.53c.877,5.522-1.879,5.463-2.767,9.318-1.028,4.457-2.911,9.467,1.313,11.667.653.339,1.936-.181,1.12-1.8.484.131,2.532,1.759,3.1,1.867,2.209.424,3.98,1.024,4.648-2.176,2.4-2.14,3.259-6.013,2.616-9.21-.691-2.761-2.767-3.451-2.767-6.558s2.767-7.246,3.8-10.352" transform="translate(-231.384 -107.485)" fill="#ffb67e"/><path d="M338.843,262.472c4.953,36.036.647,53.42-12.151,73.779,1.283,4.371,7.214,5.238,12.453,3.4,55-62.636,21.2-115.092,5.449-122.342" transform="translate(-230.723 -163.896)" fill="#628cd2"/><path d="M347.848,219.51c15.641,16.916,33.165,62.883-14.031,116.632a10.556,10.556,0,0,1-4.246,2.112,14.884,14.884,0,0,0,6.672-.819C384.754,282.188,364.184,234.884,347.848,219.51Z" transform="translate(-227.821 -161.679)" fill="#628cd2" opacity="0.25" style="mix-blend-mode:multiply;isolation:isolate"/><path d="M333.119,201.744a149.222,149.222,0,0,1-3.385,18.992c-2.114,6.75-6.768,13.081-2.114,18.99,11.42,15.615,38.494-4.642,38.494-19.414" transform="translate(-231.801 -179.584)" fill="#ffb67e"/><path d="M334.316,211.077c-1.128,2.853-4.257,2.753-4.716,3.781s1,2.8,1.442,4.485" transform="translate(-227.882 -170.178)" fill="none" stroke="#ffb67e" stroke-miterlimit="10" stroke-width="0.5" style="mix-blend-mode:multiply;isolation:isolate"/><path d="M369.23,215.537c1.833-4.993,3.345-10.573-2.632-15-15.81-11.712-25.186-2.249-30.073-2.249-2.257-.375-6.682-9.164-9.023,1.873-4.134,19.5,14.286,31.127,30.826,24.752.376,4.5-4.887,8.626-4.512,12,.753,4.875,7.082,5.138,10.527,3.375C372.6,236.063,380.13,215.162,369.23,215.537Z" transform="translate(-230.5 -186.767)" fill="#1b3760"/><path d="M327.957,287.737c.012-.07-.723-1.789-.131-2.431a3.159,3.159,0,0,1,3.19-.369c1.187.458,1.488,1.751,1.813,2.978" transform="translate(-229.813 -95.995)" fill="none" stroke="#e88949" stroke-miterlimit="10" stroke-width="0.25"/><path d="M330.715,283.784c1.187.458,2.365,2.945,2.064,4.861" transform="translate(-226.668 -96.903)" fill="none" stroke="#e88949" stroke-miterlimit="10" stroke-width="0.25"/><path d="M328.9,285.664l.8.032a1.865,1.865,0,0,0,1.169-.211" transform="translate(-228.495 -95.188)" fill="none" stroke="#e88949" stroke-miterlimit="10" stroke-width="0.25"/><path d="M371.122,205.922a6.427,6.427,0,0,1,1.359,4.514c-.179,5.038-4.06,12.557-9.33,11.675a3.78,3.78,0,0,1-2.861-3.731c-.042-1.717,2.07-9.549.865-9.387-3.871.516-18.141,7.4-33.121-4.162,4.985,9.816,17.522,14.272,29.164,9.784.376,4.5-4.887,8.626-4.512,12,.753,4.875,7.082,5.138,10.527,3.375C370.519,226.253,377.236,209.47,371.122,205.922Z" transform="translate(-229.37 -176.472)" fill="#1b3760" opacity="0.55" style="mix-blend-mode:multiply;isolation:isolate"/></g><g transform="translate(149.56 216.639)"><path d="M131.071,196.421H161.1A12.275,12.275,0,0,1,173.371,208.7v3.8l4.887,3.267a1.693,1.693,0,0,1,0,3.032l-4.887,3.267v3.8A12.277,12.277,0,0,1,161.1,238.147H131.071a12.277,12.277,0,0,1-12.278-12.278V208.7A12.275,12.275,0,0,1,131.071,196.421Z" transform="translate(-118.793 -196.421)" fill="#8fc4e6"/><g transform="translate(7.776 9.792)" opacity="0.5"><path d="M141.648,211.329a4.046,4.046,0,0,1-.622-1.646,17.774,17.774,0,0,1-.181-2.478,18.441,18.441,0,0,0-.106-2.086,1.033,1.033,0,0,0-.349-.727,2.339,2.339,0,0,0-.95-.281,1.093,1.093,0,0,1-.745-.422,1.571,1.571,0,0,1-.287-1q0-1.394,1.723-1.4a3.623,3.623,0,0,1,2.642.968,3.563,3.563,0,0,1,1.026,2.584q.045,2.614.07,3.3a6.1,6.1,0,0,0,.169,1.267,2.078,2.078,0,0,0,.5.95,6.844,6.844,0,0,0,1.2.9,1.436,1.436,0,0,1,.681,1.3,1.344,1.344,0,0,1-.233.873,3.434,3.434,0,0,1-.791.62,3.959,3.959,0,0,0-.9.745,2.7,2.7,0,0,0-.52,1.183,9.68,9.68,0,0,0-.106,1.4q-.036,1.078-.07,2.859a3.84,3.84,0,0,1-.47,1.869,3.148,3.148,0,0,1-1.3,1.261,4.01,4.01,0,0,1-1.9.444q-1.723,0-1.723-1.418a1.555,1.555,0,0,1,.293-.984,1.083,1.083,0,0,1,.739-.434,4.059,4.059,0,0,0,.761-.171.779.779,0,0,0,.382-.375,2.253,2.253,0,0,0,.211-.837q.051-.551.052-1.711a14.122,14.122,0,0,1,.187-2.538,4,4,0,0,1,.657-1.628,4.613,4.613,0,0,1,1.3-1.154A4.433,4.433,0,0,1,141.648,211.329Z" transform="translate(-106.802 -201.298)" fill="#fff"/><path d="M135.917,211.442a1.807,1.807,0,0,1,0-2.542,1.737,1.737,0,0,1,1.261-.51,1.665,1.665,0,0,1,1.241.514,1.7,1.7,0,0,1,.5,1.231,1.664,1.664,0,0,1-.526,1.313,1.836,1.836,0,0,1-1.255.468A1.77,1.77,0,0,1,135.917,211.442Z" transform="translate(-109.838 -194.151)" fill="#fff"/><path d="M132.176,211.442a1.807,1.807,0,0,1,0-2.542,1.729,1.729,0,0,1,1.259-.51,1.666,1.666,0,0,1,1.243.514,1.7,1.7,0,0,1,.5,1.231,1.659,1.659,0,0,1-.528,1.313,1.828,1.828,0,0,1-1.253.468A1.763,1.763,0,0,1,132.176,211.442Z" transform="translate(-113.608 -194.151)" fill="#fff"/><path d="M128.435,211.442a1.673,1.673,0,0,1-.522-1.307,1.656,1.656,0,0,1,.522-1.235,1.729,1.729,0,0,1,1.259-.51,1.673,1.673,0,0,1,1.243.514,1.707,1.707,0,0,1,.5,1.231,1.666,1.666,0,0,1-.528,1.313,1.828,1.828,0,0,1-1.253.468A1.763,1.763,0,0,1,128.435,211.442Z" transform="translate(-117.378 -194.151)" fill="#fff"/><path d="M127.447,213.779a3.938,3.938,0,0,1,.622,1.57,16.692,16.692,0,0,1,.187,2.532q0,1.09.042,1.658a2.548,2.548,0,0,0,.175.859.741.741,0,0,0,.392.4,3.5,3.5,0,0,0,.785.177,1.027,1.027,0,0,1,.522.211,1.232,1.232,0,0,1,.369.5,1.745,1.745,0,0,1,.141.709,1.288,1.288,0,0,1-.44,1.054,1.924,1.924,0,0,1-1.259.363,3.651,3.651,0,0,1-2.666-.978,3.571,3.571,0,0,1-1.036-2.6q-.036-1.711-.066-2.847a8.237,8.237,0,0,0-.175-1.707,2.077,2.077,0,0,0-.516-.948,6.188,6.188,0,0,0-1.191-.885,1.4,1.4,0,0,1-.667-1.289,1.439,1.439,0,0,1,.251-.926,3,3,0,0,1,.769-.614,3.853,3.853,0,0,0,.879-.715,2.709,2.709,0,0,0,.55-1.179q.093-.386.165-4.277a3.692,3.692,0,0,1,.486-1.857,3.221,3.221,0,0,1,1.3-1.255,4.013,4.013,0,0,1,1.915-.44q1.7,0,1.7,1.4a1.515,1.515,0,0,1-.3,1,1.116,1.116,0,0,1-.733.422,3.306,3.306,0,0,0-.767.159.748.748,0,0,0-.392.367,2.358,2.358,0,0,0-.187.863q-.048.59-.048,1.7a16.055,16.055,0,0,1-.106,2,5.7,5.7,0,0,1-.361,1.47,3.573,3.573,0,0,1-.657,1.056,5.061,5.061,0,0,1-1.032.831A4.6,4.6,0,0,1,127.447,213.779Z" transform="translate(-122.666 -201.298)" fill="#fff"/></g></g><g transform="translate(167.446 48.647)"><path d="M139.979,112.752H170a12.278,12.278,0,0,1,12.278,12.278v3.8l4.885,3.267a1.694,1.694,0,0,1,0,3.034l-4.885,3.267v3.8A12.278,12.278,0,0,1,170,154.48H139.979A12.278,12.278,0,0,1,127.7,142.2V125.03A12.278,12.278,0,0,1,139.979,112.752Z" transform="translate(-127.701 -112.752)" fill="#8fc4e6"/><g transform="translate(11.83 11.967)" opacity="0.5"><path d="M148.911,130.759a4.556,4.556,0,0,1-.406,1.775,6.382,6.382,0,0,1-1.271,1.875,6.519,6.519,0,0,1-2.215,1.494,7.99,7.99,0,0,1-3.14.574,11.065,11.065,0,0,1-2.474-.257,6.993,6.993,0,0,1-2.022-.8,6.872,6.872,0,0,1-1.669-1.436,8.48,8.48,0,0,1-1.16-1.811,9.5,9.5,0,0,1-.721-2.138,11.615,11.615,0,0,1-.241-2.413,10.689,10.689,0,0,1,.6-3.716,7.912,7.912,0,0,1,1.729-2.807,7.547,7.547,0,0,1,2.636-1.775,8.551,8.551,0,0,1,3.223-.608,8.055,8.055,0,0,1,3.714.831A6.75,6.75,0,0,1,148,121.6a4.073,4.073,0,0,1,.865,2.315,1.511,1.511,0,0,1-.422,1.056,1.34,1.34,0,0,1-1.02.456,1.412,1.412,0,0,1-1-.317,4.4,4.4,0,0,1-.743-1.088,5.259,5.259,0,0,0-1.6-1.911,3.9,3.9,0,0,0-2.267-.632,4.118,4.118,0,0,0-3.417,1.628,7.383,7.383,0,0,0-1.271,4.63,8.58,8.58,0,0,0,.562,3.333,4.191,4.191,0,0,0,1.594,1.986,4.383,4.383,0,0,0,2.413.659,4.24,4.24,0,0,0,2.538-.745,4.5,4.5,0,0,0,1.564-2.185,3.706,3.706,0,0,1,.55-1.108,1.247,1.247,0,0,1,1.056-.428,1.475,1.475,0,0,1,1.066.434A1.443,1.443,0,0,1,148.911,130.759Z" transform="translate(-133.593 -118.712)" fill="#fff"/><path d="M142.838,122.827a1.626,1.626,0,0,1,.522-1.289,1.841,1.841,0,0,1,1.261-.456,1.772,1.772,0,0,1,1.229.462,1.633,1.633,0,0,1,.516,1.283,1.658,1.658,0,0,1-.562,1.207,1.719,1.719,0,0,1-1.219.552,1.667,1.667,0,0,1-1.231-.528A1.706,1.706,0,0,1,142.838,122.827Zm1.783,11.262a1.829,1.829,0,0,1-1.255-.468,1.669,1.669,0,0,1-.528-1.313,1.7,1.7,0,0,1,.5-1.231,1.674,1.674,0,0,1,1.243-.516,1.737,1.737,0,0,1,1.259.51,1.81,1.81,0,0,1,0,2.544A1.762,1.762,0,0,1,144.621,134.089Z" transform="translate(-124.276 -116.323)" fill="#fff"/><path d="M151.616,121.089,148.335,134.6c-.11.446-.2.8-.287,1.054a1.283,1.283,0,0,1-.375.6,1.09,1.09,0,0,1-.733.217q-1.2,0-1.195-1.032a9.2,9.2,0,0,1,.235-1.347l3.269-13.513a6.07,6.07,0,0,1,.492-1.476.973.973,0,0,1,.914-.4,1.286,1.286,0,0,1,.9.281.99.99,0,0,1,.309.773A6.366,6.366,0,0,1,151.616,121.089Z" transform="translate(-121.346 -118.712)" fill="#fff"/></g></g><g transform="translate(512.265 0.221)"><path d="M353.868,88.633H319.912a13.884,13.884,0,0,0-13.884,13.884v4.3l-5.526,3.694a1.916,1.916,0,0,0,0,3.431l5.526,3.694v4.3a13.884,13.884,0,0,0,13.884,13.884h33.956a13.884,13.884,0,0,0,13.884-13.884V102.517A13.884,13.884,0,0,0,353.868,88.633Z" transform="translate(-299.439 -88.633)" fill="#8fc4e6"/><g transform="translate(11.176 14.288)" opacity="0.5"><path d="M332.731,104.484l-9.29-3.578V97.129l13.334,5.778v3.206l-13.334,5.778v-3.751Z" transform="translate(-286.427 -94.358)" fill="#fff"/><path d="M315.817,96.942a1.12,1.12,0,0,1,.351-.873,1.459,1.459,0,0,1,1.014-.319,1.1,1.1,0,0,1,1.036.452,6.9,6.9,0,0,1,.556,1.669l3.7,15.281a10.253,10.253,0,0,1,.267,1.524q0,1.166-1.353,1.167a1.233,1.233,0,0,1-.827-.245,1.475,1.475,0,0,1-.426-.683c-.092-.293-.2-.689-.323-1.193L316.1,98.439A7.37,7.37,0,0,1,315.817,96.942Z" transform="translate(-294.111 -95.749)" fill="#fff"/><path d="M305.006,102.907l13.332-5.752v3.725l-9.316,3.6,9.316,3.658v3.751l-13.332-5.8Z" transform="translate(-305.006 -94.332)" fill="#fff"/></g></g><g transform="translate(315.548 62.842)"><g transform="translate(33.981)"><path d="M231.31,132.327a7.45,7.45,0,1,1-.416-10.527A7.449,7.449,0,0,1,231.31,132.327Z" transform="translate(-218.388 -119.822)" fill="#8fc4e6"/></g><g transform="translate(63.753 35.894)"><path d="M246.138,150.2a7.45,7.45,0,1,1-.416-10.527A7.449,7.449,0,0,1,246.138,150.2Z" transform="translate(-233.216 -137.699)" fill="#8fc4e6"/></g><g transform="translate(0 12.17)"><path d="M210.13,134.27a5,5,0,1,1-.279-7.059A4.994,4.994,0,0,1,210.13,134.27Z" transform="translate(-201.464 -125.883)" fill="#8fc4e6"/></g><g transform="translate(46.051 11.778)"><rect width="2.243" height="32.253" transform="translate(0 1.457) rotate(-40.515)" fill="#8fc4e6"/></g><g transform="translate(7.212 8.046)"><rect width="27.643" height="2.244" transform="translate(0 7.286) rotate(-15.282)" fill="#8fc4e6"/></g></g><g transform="translate(772.702 347.819)"><g transform="translate(26.973 20.465)"><path d="M442.87,277.931a4.423,4.423,0,1,1,5.7,2.58A4.422,4.422,0,0,1,442.87,277.931Z" transform="translate(-442.585 -271.948)" fill="#8fc4e6"/></g><g transform="translate(0 26.711)"><path d="M429.436,281.042a4.423,4.423,0,1,1,5.7,2.582A4.423,4.423,0,0,1,429.436,281.042Z" transform="translate(-429.151 -275.059)" fill="#8fc4e6"/></g><g transform="translate(32.97)"><path d="M445.763,265.768a2.967,2.967,0,1,1,3.823,1.731A2.966,2.966,0,0,1,445.763,265.768Z" transform="translate(-445.572 -261.756)" fill="#8fc4e6"/></g><g transform="translate(8.508 25.801)"><rect width="19.149" height="1.331" transform="matrix(0.971, -0.24, 0.24, 0.971, 0, 4.594)" fill="#8fc4e6"/></g><g transform="translate(31.786 4.368)"><rect width="16.412" height="1.332" transform="translate(0 16.091) rotate(-78.65)" fill="#8fc4e6"/></g></g><g transform="translate(76.813 271.009)"><g transform="translate(12.962 21.928)"><path d="M90.572,235.292a4.069,4.069,0,1,1-.685,5.714A4.069,4.069,0,0,1,90.572,235.292Z" transform="translate(-89.017 -234.422)" fill="#8fc4e6"/></g><path d="M84.115,224.371a4.069,4.069,0,1,1-.685,5.714A4.069,4.069,0,0,1,84.115,224.371Z" transform="translate(-82.561 -223.5)" fill="#8fc4e6"/><g transform="translate(34.792 21.17)"><path d="M100.931,234.628a2.73,2.73,0,1,1-.458,3.833A2.73,2.73,0,0,1,100.931,234.628Z" transform="translate(-99.889 -234.044)" fill="#8fc4e6"/></g><g transform="translate(4.632 7.339)"><rect width="1.635" height="17.619" transform="matrix(0.853, -0.521, 0.521, 0.853, 0, 0.853)" fill="#8fc4e6"/></g><g transform="translate(21.003 23.28)"><rect width="15.099" height="1.635" transform="translate(0 1.622) rotate(-6.168)" fill="#8fc4e6"/></g></g><path d="M4.783,0H54.577A4.782,4.782,0,0,1,59.36,4.782V54.577a4.783,4.783,0,0,1-4.783,4.783H4.782A4.782,4.782,0,0,1,0,54.578V4.783A4.783,4.783,0,0,1,4.783,0Z" transform="translate(717.284 188.097)" fill="#8fc4e6"/><rect width="22.262" height="22.262" rx="1.794" transform="translate(798.418 235.474)" fill="#8fc4e6"/><rect width="23.17" height="23.17" rx="1.867" transform="translate(91.38 157.594)" fill="#8fc4e6"/><path d="M106.791,142.562l3.192-3.192a1.247,1.247,0,1,0-1.763-1.763l-3.192,3.192-3.192-3.192a1.247,1.247,0,1,0-1.763,1.763l3.194,3.192-3.194,3.192a1.247,1.247,0,1,0,1.763,1.763l3.192-3.192,3.192,3.192a1.247,1.247,0,0,0,1.763-1.763Z" transform="translate(11.534 -39.423)" fill="#fff" opacity="0.2"/><path d="M62.177,219.559l3.192-3.192a1.246,1.246,0,0,0-1.763-1.761L60.414,217.8l-3.192-3.192a1.246,1.246,0,1,0-1.763,1.761l3.194,3.192-3.194,3.194a1.246,1.246,0,1,0,1.763,1.761l3.192-3.192,3.192,3.192a1.246,1.246,0,0,0,1.763-1.761Z" transform="translate(-33.429 38.176)" fill="#fff" opacity="0.2"/><path d="M267.6,130.2l3.192-3.192a1.246,1.246,0,0,0-1.761-1.763l-3.194,3.192-3.192-3.192a1.246,1.246,0,1,0-1.761,1.763l3.192,3.192-3.192,3.192a1.246,1.246,0,1,0,1.761,1.763l3.192-3.192,3.194,3.192A1.246,1.246,0,1,0,270.8,133.4Z" transform="translate(173.604 -51.877)" fill="#fff" opacity="0.2"/><path d="M393.424,178.567l3.192-3.194a1.245,1.245,0,1,0-1.761-1.761l-3.194,3.192-3.192-3.192a1.245,1.245,0,1,0-1.761,1.761l3.192,3.194-3.192,3.192a1.245,1.245,0,1,0,1.761,1.761l3.192-3.192,3.194,3.192a1.245,1.245,0,0,0,1.761-1.761Z" transform="translate(300.407 -3.138)" fill="#fff" opacity="0.2"/><path d="M457.478,293.013l3.194-3.194a1.246,1.246,0,1,0-1.763-1.761l-3.192,3.192-3.192-3.192a1.246,1.246,0,0,0-1.763,1.761l3.192,3.194-3.192,3.192a1.246,1.246,0,1,0,1.763,1.761l3.192-3.192,3.192,3.192a1.246,1.246,0,1,0,1.763-1.761Z" transform="translate(364.964 112.202)" fill="#fff" opacity="0.2"/><path d="M138.268,239.072l3.192-3.192a1.246,1.246,0,1,0-1.763-1.761l-3.192,3.192-3.192-3.192a1.246,1.246,0,1,0-1.763,1.761l3.194,3.192-3.194,3.194a1.246,1.246,0,1,0,1.763,1.761l3.192-3.192,3.192,3.192a1.246,1.246,0,0,0,1.763-1.761Z" transform="translate(43.257 57.842)" fill="#fff" opacity="0.2"/><g transform="translate(280.203 34.942)" opacity="0.2"><path d="M190.383,118.969a6.521,6.521,0,1,1,6.521-6.521A6.528,6.528,0,0,1,190.383,118.969Zm0-10.551a4.03,4.03,0,1,0,4.03,4.03A4.033,4.033,0,0,0,190.383,108.418Z" transform="translate(-183.86 -105.926)" fill="#fff"/></g><g transform="translate(90.416 221.621)" opacity="0.2"><path d="M95.857,211.947a6.522,6.522,0,1,1,6.523-6.523A6.529,6.529,0,0,1,95.857,211.947Zm0-10.553a4.031,4.031,0,1,0,4.032,4.03A4.036,4.036,0,0,0,95.857,201.394Z" transform="translate(-89.336 -198.902)" fill="#fff"/></g><g transform="translate(62.461 441.484)" opacity="0.2"><path d="M81.936,321.451a6.522,6.522,0,1,1,6.521-6.521A6.529,6.529,0,0,1,81.936,321.451Zm0-10.551a4.03,4.03,0,1,0,4.03,4.03A4.033,4.033,0,0,0,81.936,310.9Z" transform="translate(-75.413 -308.406)" fill="#fff"/></g><g transform="translate(676.997 36.092)" opacity="0.2"><path d="M388.006,119.542a6.521,6.521,0,1,1,6.523-6.521A6.529,6.529,0,0,1,388.006,119.542Zm0-10.551a4.03,4.03,0,1,0,4.03,4.03A4.033,4.033,0,0,0,388.006,108.991Z" transform="translate(-381.485 -106.499)" fill="#fff"/></g><g transform="translate(735.029 272.999)" opacity="0.2"><path d="M416.909,237.536a6.522,6.522,0,1,1,6.521-6.523A6.528,6.528,0,0,1,416.909,237.536Zm0-10.553a4.031,4.031,0,1,0,4.03,4.03A4.035,4.035,0,0,0,416.909,226.983Z" transform="translate(-410.388 -224.491)" fill="#fff"/></g><g transform="translate(254.915 120.188)"><rect width="280.664" height="503.495" rx="7.74" transform="translate(280.664 503.495) rotate(180)" fill="#3679bc"/><rect width="257.227" height="393.015" transform="translate(268.946 448.255) rotate(180)" fill="#fff"/><rect width="7.024" height="80.744" rx="1.005" transform="translate(180.704 26.595) rotate(90)" fill="#8fc4e6"/><circle cx="15.511" cy="15.511" r="15.511" transform="translate(124.821 458.346)" fill="#8fc4e6"/><g transform="translate(29.867 77.741)"><g transform="translate(1.944 293.771)"><path d="M402.676,387.579H190.528a3.49,3.49,0,0,1-3.419-3.558V350.35l16.2-16.854h199.37a3.49,3.49,0,0,1,3.419,3.556v46.969A3.491,3.491,0,0,1,402.676,387.579Z" transform="translate(-187.109 -333.335)" fill="#0964af" opacity="0.25"/><path d="M199.889,350.27h-12.78l16.2-16.854v13.3A3.49,3.49,0,0,1,199.889,350.27Z" transform="translate(-187.109 -333.416)" fill="#0964af" opacity="0.25"/></g><rect width="55.447" height="103.5" transform="translate(0 29.278)" fill="#0964af" opacity="0.25"/><rect width="87.836" height="79.532" transform="translate(133.093 198.162)" fill="#0964af" opacity="0.25"/><rect width="54.246" height="54.246" transform="translate(166.683 29.278)" fill="#0964af" opacity="0.25"/><rect width="157.944" height="18.422" transform="translate(62.985)" fill="#0964af" opacity="0.25"/><rect width="90.714" height="8.811" transform="translate(63.95 29.278)" fill="#0964af" opacity="0.25"/><rect width="90.714" height="8.811" transform="translate(63.95 51.995)" fill="#0964af" opacity="0.25"/><rect width="90.714" height="8.811" transform="translate(63.95 74.713)" fill="#0964af" opacity="0.25"/><rect width="156.98" height="8.811" transform="translate(63.95 97.43)" fill="#0964af" opacity="0.25"/><rect width="156.98" height="8.811" transform="translate(63.95 120.148)" fill="#0964af" opacity="0.25"/><path d="M198.132,193.1a6,6,0,1,1-6-6A6,6,0,0,1,198.132,193.1Z" transform="translate(-186.141 -187.102)" fill="#0964af" opacity="0.25"/><path d="M208.954,193.1a6,6,0,1,1-6-6A6,6,0,0,1,208.954,193.1Z" transform="translate(-175.234 -187.102)" fill="#0964af" opacity="0.25"/><path d="M219.776,193.1a6,6,0,1,1-6-6A6,6,0,0,1,219.776,193.1Z" transform="translate(-164.328 -187.102)" fill="#0964af" opacity="0.25"/><g transform="translate(1.944 150.86)"><rect width="116.917" height="9.423" transform="translate(116.917 127.557) rotate(180)" fill="#0964af" opacity="0.25"/><rect width="116.917" height="9.423" transform="translate(116.917 103.93) rotate(180)" fill="#0964af" opacity="0.25"/><rect width="116.917" height="9.423" transform="translate(116.917 80.303) rotate(180)" fill="#0964af" opacity="0.25"/><rect width="116.917" height="9.423" transform="translate(116.917 56.676) rotate(180)" fill="#0964af" opacity="0.25"/><rect width="218.986" height="9.423" transform="translate(218.986 33.05) rotate(180)" fill="#0964af" opacity="0.25"/><rect width="218.986" height="9.423" transform="translate(218.986 9.423) rotate(180)" fill="#0964af" opacity="0.25"/></g></g></g><g transform="translate(202.512 561.985)"><path d="M235.713,392.052H145.166l18.011-23.63h90.547Z" transform="translate(-145.166 -368.422)" fill="#2ab8ea"/><path d="M190.263,392.052v62.816l18.011-23.63V368.422Z" transform="translate(-99.716 -368.422)" fill="#2297c6"/><rect width="90.547" height="62.788" transform="translate(0 23.63)" fill="#24abe2"/></g><ellipse cx="40.628" cy="8.389" rx="40.628" ry="8.389" transform="translate(217.215 566.325)" fill="#2ab8ea" opacity="0.57" style="mix-blend-mode:multiply;isolation:isolate"/><g transform="translate(209.574 242.208)"><path d="M194.136,248.536c1.291-3.841,7.373-12.577,6.172-14.378-.269-.4-2.8,2.775-5.182,6.11a56.323,56.323,0,0,0,2.761-5.349c.383-.853.622-2.1-.213-2.52a62.177,62.177,0,0,0-4.829,5.931c.978-1.911,1.56-3.6,1.064-4.285-.4-.552-2.97,2.921-5.1,6.485,1.191-2.46,2.108-4.773,1.53-5.146-.95-.616-7.565,11.043-10.457,18.942-2.183,5.959-5.949,10.7-7.84,15.008l13.42-1s1.42-6.425,2.863-8.768c1.59-2.578,5.15-4.1,7.088-7.569,1.311-2.349,4.764-6.4,3.662-7.481S195.3,248.518,194.136,248.536Z" transform="translate(-125.142 -185.731)" fill="#ffb67e"/><g transform="translate(6.623 138.399)"><g transform="translate(8.852 33.536)"><path d="M174.913,451.513l-14.689,2.745a21.9,21.9,0,0,1,1.026-5.206c.765-1.823,1.325-1.994,1.751-4.02,1.821-8.688-3.855-49.135-1.58-64.537-.416-30.766.217-61.082-4.423-74.2-4.989-14.111,22.377-16.512,24.71,0s-8.142,138.455-5.6,140.073c4.018,2.558,11.232,2.747,11.232,4.783S174.913,451.513,174.913,451.513Z" transform="translate(-156.391 -294.789)" fill="#ffb67e"/><path d="M191.227,379.619c-.908,3.447-25.343,2.727-30.083,2.727s-2.69-8.09-1.43-8.577,6.79,2.7,13.784,1.909c1.564-.179-2.184-3.534-2.094-5.008,2.741-1.506,5.188,1.813,6.584,2.413S192.364,375.3,191.227,379.619Z" transform="translate(-154.595 -218.706)" fill="#84dbef"/><path d="M191.017,379.115c-.906,3.447-25.341,2.727-30.081,2.727s-2.69-8.092-1.43-8.577c2.164,1.412,5.178,2.207,12.171,1.412,1.564-.179-1.677-3.387,1.064-4.9s3.642,2.2,5.038,2.8S192.153,374.8,191.017,379.115Z" transform="translate(-154.806 -219.572)" fill="#063160"/><path d="M166.74,373.358A4.309,4.309,0,0,1,169,370.73" transform="translate(-145.961 -218.254)" fill="none" stroke="#84dbef" stroke-linecap="round" stroke-linejoin="round" stroke-width="0.5"/><path d="M168.284,373.655a4.525,4.525,0,0,1,2.419-2.445" transform="translate(-144.405 -217.771)" fill="none" stroke="#84dbef" stroke-linecap="round" stroke-linejoin="round" stroke-width="0.5"/><path d="M169.592,373.952a4.68,4.68,0,0,1,2.158-2.313" transform="translate(-143.087 -217.338)" fill="none" stroke="#84dbef" stroke-linecap="round" stroke-linejoin="round" stroke-width="0.5"/></g><path d="M189.751,342.884c.717,28.493-3.1,76.126-7.473,107.539v.022q-.334,2.355-.673,4.576a34.564,34.564,0,0,1-17.187-2.715c-2.827-20.552-3.478-70.81-5.407-87.187-1.48-12.88-14.055-47.107-1.526-87.033l26.812,6.351,5.632,1.323.494.112-.9,18.847-.135,30.356C189.548,337.475,189.661,340.079,189.751,342.884Z" transform="translate(-151.982 -278.086)" fill="#184580"/><path d="M177.309,364.359c-1.1-.857-19.169-.215-19.474,0-.458.325.171,4.445.634,4.694.518.279,17.3.424,18.1-.02C177.3,368.635,178.411,365.218,177.309,364.359Z" transform="translate(-146.244 -191.576)" fill="#1a60a0"/><g transform="translate(36.321 31.781)"><path d="M188.878,454.51l-14.687,2.745a21.857,21.857,0,0,1,1.024-5.206c.767-1.823,1.327-1.994,1.751-4.02,1.823-8.688-3.855-49.135-1.58-64.537-.414-30.766.219-61.08-4.421-74.2-4.991-14.111,12.481-22.939,14.814-6.425,1.08,7.636,9.314,44.252,7.469,74.659-2.144,35.338-4.538,70.968-3.17,71.84,4.02,2.558,11.232,2.745,11.232,4.781S188.878,454.51,188.878,454.51Z" transform="translate(-170.072 -293.915)" fill="#ffb67e"/><path d="M205.049,380.674c-.908,3.445-25.341,2.727-30.083,2.727s-2.688-8.091-1.428-8.577,6.79,2.7,13.784,1.907c1.564-.179-2.185-3.534-2.1-5.005,2.741-1.508,5.19,1.811,6.586,2.411S206.185,376.353,205.049,380.674Z" transform="translate(-168.133 -215.888)" fill="#84dbef"/><path d="M204.84,380.169c-.908,3.447-25.343,2.729-30.083,2.729s-2.688-8.091-1.428-8.579c2.164,1.411,5.178,2.207,12.171,1.411,1.562-.177-1.677-3.387,1.062-4.9s3.642,2.2,5.038,2.8S205.976,375.85,204.84,380.169Z" transform="translate(-168.343 -216.754)" fill="#033473"/><path d="M180.563,374.412a4.314,4.314,0,0,1,2.265-2.628" transform="translate(-159.498 -215.437)" fill="none" stroke="#84dbef" stroke-linecap="round" stroke-linejoin="round" stroke-width="0.5"/><path d="M182.106,374.711a4.538,4.538,0,0,1,2.421-2.448" transform="translate(-157.943 -214.954)" fill="none" stroke="#84dbef" stroke-linecap="round" stroke-linejoin="round" stroke-width="0.5"/><path d="M183.414,375.006a4.693,4.693,0,0,1,2.16-2.313" transform="translate(-156.625 -214.521)" fill="none" stroke="#84dbef" stroke-linecap="round" stroke-linejoin="round" stroke-width="0.5"/></g><path d="M178.985,323.328c.717,28.493-3.1,76.126-7.473,107.539-2.468-27.35,3.249-64.09-7.909-114.853a51.622,51.622,0,0,1-.165-18.522S178.788,321.364,178.985,323.328Z" transform="translate(-141.216 -258.529)" fill="#6fdef7" style="mix-blend-mode:multiply;isolation:isolate"/><path d="M198.788,455.021a12.957,12.957,0,0,0-5.5-1.323c-3.813-.157-7.83.606-12.115-.875-4.016-20.171-2.086-76.554-7.158-97.082-1.5-6.06-9.368-31.673-10.68-39.737-2.008-12.348-.179-26.7,1.952-37.918h30.74c5.833,13.44,5.742,29.5,6.529,43.841.088,1.751.179,3.59.247,5.52C204.2,362.067,202.625,423.745,198.788,455.021Z" transform="translate(-141.411 -278.086)" fill="#184580"/><path d="M194.129,455.021a12.957,12.957,0,0,0-5.5-1.323c-.2-11.643.381-85.708-.088-104.936-.315-12.34-.628-24.792-3.524-36.8-2.871-12-8.547-23.67-17.926-31.681l2.377-2.2h21.9c5.833,13.44,5.742,29.5,6.529,43.841.088,1.751.179,3.59.247,5.52C199.536,362.067,197.966,423.745,194.129,455.021Z" transform="translate(-136.752 -278.086)" fill="#6fdef7" style="mix-blend-mode:multiply;isolation:isolate"/><path d="M190.878,365.242c-1.084-.771-18.837-.193-19.137,0-.45.291.169,3.99.624,4.212.508.251,17,.382,17.789-.018C190.866,369.079,191.96,366.013,190.878,365.242Z" transform="translate(-132.226 -190.642)" fill="#1a60a0"/></g><path d="M174.477,222.571c6.806,2.042,5.156,5.682.7,6.708" transform="translate(-122.688 -195.636)" fill="#ffb67e"/><path d="M215,348.33a28.353,28.353,0,0,1-9.13,7.037,41.668,41.668,0,0,1-16.822,4.04c-.289.024-.6.048-.887.048-.408,0-.791.024-1.2.024-18.163.237-36.231-7.513-36.088-8.82,1.727-15.4.914-57.821,1.008-70.691.249-34.647,13.276-40.576,22.212-42.192l7.668.382c15.6-4.969,30.842,27.049,30.386,29.4.287,2.092.335,7.63.383,15.022C212.625,300.767,212.552,330.288,215,348.33Z" transform="translate(-146.48 -180.455)" fill="#f6cb4d"/><path d="M197.074,331.281a28.353,28.353,0,0,1-9.13,7.037,47.76,47.76,0,0,1-16.822,4.04c-.289.024-.6.048-.887.048-.526.046-1.054.07-1.582.094a1.117,1.117,0,0,0,.383-.07c4.961-1.379,18.335-9.7,19.506-24.768.122-1.578-.647-48.778-1.221-63.11l7.284,10.981C194.7,283.718,194.63,313.238,197.074,331.281Z" transform="translate(-128.557 -163.405)" fill="#f3a63f"/><path d="M190.011,251.7l4.355,5.08s-4.184,22.658-6.535,17.625-5.2-16.414-5.2-16.414Z" transform="translate(-114.469 -166.28)" fill="#f3a63f"/><path d="M249.926,246.793c.56-1.554-7.136,3.815-9.607,5.389,5.562-4.435,9.2-8.431,8.638-9.294s-9.248,6.28-11.123,7.244c1.456-1.628,8.565-7.7,7.575-9.063-.478-.657-6.706,4.726-10.437,7.335,1.753-1.727,2.582-2.564,2.4-4-.309-2.472-9.25,8.74-12.226,11.955-1.173,1.269-20.865,8.449-22.875,8.736-2.363.339-16.181-14.456-16.181-14.456l-7.158,15.8c9.913,7.19,17.36,13.986,20.976,14.617,4.925.861,27.885-16.267,30.063-16.787,4.321-1.032,11.559-6.027,14.366-8.463,1.913-1.66,5.122-3.827,5.562-5.088s-5.509,2.311-8.652,4.232C244.682,252.581,249.366,248.347,249.926,246.793Z" transform="translate(-118.194 -177.049)" fill="#ffb67e"/><path d="M209.539,266.259c-14.36-17.588-29.437-26.642-41.963-29.165L181.6,270.864c5.54,7.455,12.581,14.675,21.819,18.851C201.775,279.092,207.208,267.327,209.539,266.259Z" transform="translate(-129.643 -181)" fill="#f6cb4d"/><path d="M162.806,246.929a67.435,67.435,0,0,1,.669-13.414c1.1-6.881,15.139-6.483,13.173.263a22.6,22.6,0,0,0,.574,13.183C177.322,251.1,163.958,254.3,162.806,246.929Z" transform="translate(-134.536 -189.627)" fill="#ffb67e"/><path d="M178.313,214.663c7.632,6.1,13.77,34.918,8.085,39.488-2.8,2.253-17.452,6.311-23.054,0" transform="translate(-133.907 -203.606)" fill="#ffb67e"/><path d="M202.368,218.667a6.322,6.322,0,0,0-4.455-1.006c-.2.014-.408.064-.612.088-.072-.082-.157-.161-.233-.241a9.31,9.31,0,0,0,1.49-1.432c.881-1.08,1.508-2.682.711-3.827a3.452,3.452,0,0,0-2.978-1.1,12.609,12.609,0,0,0-5.333,1.311,3.5,3.5,0,0,0-1.48-2.757,4.54,4.54,0,0,0-2.464-.55,11.275,11.275,0,0,0-5.3,1.4c-.761-1.074-2.5-1.225-3.887-.994a16.95,16.95,0,0,0-6.827,2.8,4.391,4.391,0,0,0-2.52-.6,6.08,6.08,0,0,0-3.979,2.514,5.346,5.346,0,0,0-.719,1.112,10.8,10.8,0,0,0-1.964-.424,4.914,4.914,0,0,0-3.112.5,3.664,3.664,0,0,0-1.6,3.465,4.845,4.845,0,0,0,1.2,2.64,11.176,11.176,0,0,0-8.178,4.487c-1.915,2.925-.137,5.855,1,6.349a12.248,12.248,0,0,0-1.948,3.363,5.652,5.652,0,0,0-.159,4.263,5.218,5.218,0,0,0,3.06,2.528,8.655,8.655,0,0,0,.873.213,13.77,13.77,0,0,0-.879,2.58,3,3,0,0,0,.271,2.528,2.5,2.5,0,0,0,2.421.673,4.608,4.608,0,0,0,1.628-.685c-.643,4.8.787,6.3,3.421,5.813a13.522,13.522,0,0,0,.265,1.576,3,3,0,0,0,1.341,2.158,1.773,1.773,0,0,0,.757.157,6.167,6.167,0,0,0,1.112,3.064,2.291,2.291,0,0,0,3.3.261,4.416,4.416,0,0,0,.339-.333l.114.086a7.078,7.078,0,0,0,1.606,3.5,2.194,2.194,0,0,0,1.161.749,1.8,1.8,0,0,0,1.632-.837,4.351,4.351,0,0,0,.237-.4c2.168,1.253,4.05,2.164,5.256,2.8,7.1,3.763,9.019-5.775,12.987-12.758,4.969-8.752,5.07-11.147,2.038-20.745.114-.2.2-.4.313-.6.072,0,.143.008.213,0a7.554,7.554,0,0,0,5.554-2.642,4.1,4.1,0,0,0,.914-2.259,3.854,3.854,0,0,0-1.257-2.867,23.638,23.638,0,0,0,3.741-1.022,3.986,3.986,0,0,0,1.454-.8C204.026,221.683,203.587,219.643,202.368,218.667Z" transform="translate(-148.683 -209.156)" fill="#1b3760"/><path d="M193.637,218.524a3.726,3.726,0,0,1-1.436.785,24.329,24.329,0,0,1-3.747,1.032,3.822,3.822,0,0,1,1.255,2.873,4.041,4.041,0,0,1-.92,2.243,7.453,7.453,0,0,1-5.542,2.648h-.225c-.11.2-.2.4-.313.6,3.03,9.581,2.939,11.983-2.042,20.733-3.949,7-5.879,16.536-12.968,12.766-1.211-.651-3.1-1.548-5.273-2.8a2.175,2.175,0,0,1-.225.4,1.765,1.765,0,0,1-1.636.831,2.157,2.157,0,0,1-1.167-.741,6.657,6.657,0,0,1-1.526-3.253c1.66.92,2.931,2,4.038,2.13,6.947.8,9.019-5.789,12.991-12.766,4.959-8.75,5.072-11.151,2.042-20.731.112-.2.2-.406.315-.606h.2a7.577,7.577,0,0,0,5.564-2.648,4.225,4.225,0,0,0,.922-2.265,3.9,3.9,0,0,0-1.257-2.849,24.3,24.3,0,0,0,3.724-1.032,3.847,3.847,0,0,0,1.458-.787,2.278,2.278,0,0,0,.651-1.66.292.292,0,0,1,.135-.022,6.247,6.247,0,0,1,4.443,1.01C194.332,215.383,194.76,217.423,193.637,218.524Z" transform="translate(-139.421 -204.904)" fill="#1b3760" opacity="0.55" style="mix-blend-mode:multiply;isolation:isolate"/><path d="M173.5,213.762c-.157.024-.313.046-.494.068-.066-.09-.157-.157-.223-.247a6.628,6.628,0,0,0,.6-.538A2.615,2.615,0,0,1,173.5,213.762Z" transform="translate(-124.397 -205.236)" fill="#1b3760"/><path d="M173.873,230.791a5.819,5.819,0,0,0-2.086-3.6c-.737-.59-1.859-.974-2.584-.369a2.424,2.424,0,0,0-.659,1.241,13.035,13.035,0,0,0-.588,4.759,6.809,6.809,0,0,0,1.924,4.309A3.91,3.91,0,0,0,173.1,238.3c1.729-.277,1.632-1.409,1.789-3.154" transform="translate(-129.298 -191.664)" fill="#ffb67e" style="mix-blend-mode:multiply;isolation:isolate"/><path d="M174.349,230.3a5.814,5.814,0,0,0-2.086-3.6c-.737-.59-2.4-1.243-3.146-.671-3.849,2.929.078,9.5,1.239,10.609a3.906,3.906,0,0,0,3.216,1.169c1.729-.275,1.634-1.408,1.791-3.152" transform="translate(-129.755 -192.378)" fill="#ffb67e"/></g></g></g></svg>