<svg xmlns="http://www.w3.org/2000/svg" width="183" height="183" viewBox="0 0 183 183"><g transform="translate(-248 -1383)"><circle cx="91.5" cy="91.5" r="91.5" transform="translate(248 1383)" fill="#fff" opacity="0.2"/><g transform="translate(289.553 1427.66)"><path d="M51.914,32.035a4.957,4.957,0,1,0-4.957,4.956A4.962,4.962,0,0,0,51.914,32.035Zm-6.958,0a2,2,0,1,1,2,2A2,2,0,0,1,44.956,32.035Zm0,0" transform="translate(-33.723 -21.742)" fill="#fff"/><path d="M106.718,36.992a4.957,4.957,0,1,0-4.956-4.956A4.963,4.963,0,0,0,106.718,36.992Zm0-6.958a2,2,0,1,1-2,2,2,2,0,0,1,2-2Zm0,0" transform="translate(-81.709 -21.742)" fill="#fff"/><path d="M166.477,36.992a4.957,4.957,0,1,0-4.957-4.956A4.962,4.962,0,0,0,166.477,36.992Zm0-6.958a2,2,0,1,1-2,2,2,2,0,0,1,2-2Zm0,0" transform="translate(-129.691 -21.742)" fill="#fff"/><path d="M263.646,47.69h35.995a1.478,1.478,0,0,0,0-2.956H263.646a1.478,1.478,0,0,0,0,2.956Zm0,0" transform="translate(-210.506 -35.919)" fill="#fff"/><path d="M94.721,0H6.172A6.178,6.178,0,0,0,0,6.171V88.392a6.178,6.178,0,0,0,6.171,6.171h88.55a6.178,6.178,0,0,0,6.171-6.171V6.171A6.179,6.179,0,0,0,94.721,0Zm0,91.607H6.172a3.219,3.219,0,0,1-3.215-3.215V20.585h8.239a1.478,1.478,0,0,0,0-2.956H2.956V6.171A3.219,3.219,0,0,1,6.172,2.956h88.55a3.219,3.219,0,0,1,3.215,3.215V17.629H16.713a1.478,1.478,0,0,0,0,2.956H97.937V88.392A3.219,3.219,0,0,1,94.721,91.607Zm0,0" fill="#fff"/><path d="M133.434,126.139H57.719a1.48,1.48,0,0,0-1.513,1.507v29.486a1.479,1.479,0,0,0,1.512,1.506h75.717a1.479,1.479,0,0,0,1.512-1.509V127.649a1.481,1.481,0,0,0-1.512-1.509ZM59.162,129.78,91.507,142.39,59.162,155Zm6.383-.685h60.063L95.576,140.8Zm30.031,14.881,30.032,11.707H65.544Zm4.069-1.586L131.99,129.78V155Zm0,0" transform="translate(-45.13 -101.283)" fill="#fff"/><path d="M91.416,301.93H57.643a1.48,1.48,0,0,0-1.445,1.477c0,.334,0,25.492,0,26.153a1.478,1.478,0,0,0,1.489,1.476c26.765,0,33.753,0,33.834,0a1.494,1.494,0,0,0,1.387-1.476V303.42a1.479,1.479,0,0,0-1.493-1.489Zm-32.262,4.493,12.986,10.061L59.154,326.545ZM62,304.886H87.11l-12.556,9.729Zm12.557,13.467,12.556,9.728H62Zm2.413-1.87,12.986-10.061v20.122Zm0,0" transform="translate(-45.122 -242.433)" fill="#fff"/><path d="M304.734,301.93H270.948a1.478,1.478,0,0,0-1.448,1.49v26.125a1.478,1.478,0,0,0,1.489,1.491h16.542a1.478,1.478,0,0,0,0-2.956H275.3l12.556-9.728,12.557,9.728h-7.363a1.478,1.478,0,0,0,0,2.956H304.73a1.478,1.478,0,0,0,1.479-1.5v-26.1a1.48,1.48,0,0,0-1.476-1.5Zm-4.322,2.956-12.557,9.729L275.3,304.885Zm-27.955,21.659V306.423l12.986,10.061Zm30.8-20.122v20.122l-12.986-10.061Zm0,0" transform="translate(-216.393 -242.433)" fill="#fff"/></g></g></svg>