<svg xmlns="http://www.w3.org/2000/svg" xmlns:xlink="http://www.w3.org/1999/xlink" width="400" height="424" viewBox="0 0 400 424"><defs><clipPath id="a"><rect width="400" height="424" fill="#082c34"/></clipPath></defs><g clip-path="url(#a)"><path d="M984.508,511.345c107.647-12.807,112.169-81.19,77.987-119.223-48.436-53.871-92.648-45.1-25.1-133.788,22.932-30.124,31.758-68.6,14.376-101.863-12.495-23.931-38.324-43.6-69.54-50.9-17.355-4.046-35.724-4.316-53.5-7.013s-36.049-8.416-46.405-20.241C872.353,66.93,871.5,51.955,873.91,38.2c5.753-33.08,28.428-63.366,30.472-96.964,1.706-28.311-10.045-60.82-35.129-81.417-32.841-26.973-83.93-32.767-128.738-34.85-52.632-2.428-105.684,3.852-155.677,16.875-64.112,16.67-123.323,44.183-175.982,77.684-46.906,29.854-89.345,64.963-119.3,106.4-47.529,65.61-75.009,172.425,21.7,219.327,116.419,56.461,191.55-41.42,197.872,54.886C512.9,357.78,564.7,447.958,705.955,403.009S829.481,529.8,984.508,511.345Z" transform="translate(-195.456 -0.911)" fill="#082c34"/></g></svg>