<svg xmlns="http://www.w3.org/2000/svg" xmlns:xlink="http://www.w3.org/1999/xlink" width="613" height="131" viewBox="0 0 613 131"><defs><clipPath id="a"><rect width="613" height="131" fill="none"/></clipPath></defs><g clip-path="url(#a)"><g transform="translate(-532 -62)"><circle cx="5" cy="5" r="5" transform="translate(532 62)" fill="#082c34"/></g><g transform="translate(-507 -62)"><circle cx="5" cy="5" r="5" transform="translate(532 62)" fill="#082c34"/></g><g transform="translate(-482 -62)"><circle cx="5" cy="5" r="5" transform="translate(532 62)" fill="#082c34"/></g><g transform="translate(-457 -62)"><circle cx="5" cy="5" r="5" transform="translate(532 62)" fill="#082c34"/></g><g transform="translate(-432 -62)"><circle cx="5" cy="5" r="5" transform="translate(532 62)" fill="#082c34"/></g><g transform="translate(-407 -62)"><circle cx="5" cy="5" r="5" transform="translate(532 62)" fill="#082c34"/></g><g transform="translate(-382 -62)"><circle cx="5" cy="5" r="5" transform="translate(532 62)" fill="#082c34"/></g><g transform="translate(-357 -62)"><circle cx="5" cy="5" r="5" transform="translate(532 62)" fill="#082c34"/></g><g transform="translate(-332 -62)"><circle cx="5" cy="5" r="5" transform="translate(532 62)" fill="#082c34"/></g><g transform="translate(-307 -62)"><circle cx="5" cy="5" r="5" transform="translate(532 62)" fill="#082c34"/></g><g transform="translate(-282 -62)"><circle cx="5" cy="5" r="5" transform="translate(532 62)" fill="#082c34"/></g><g transform="translate(-257 -62)"><circle cx="5" cy="5" r="5" transform="translate(532 62)" fill="#082c34"/></g><g transform="translate(-232 -62)"><circle cx="5" cy="5" r="5" transform="translate(532 62)" fill="#082c34"/></g><g transform="translate(-207 -62)"><circle cx="5" cy="5" r="5" transform="translate(532 62)" fill="#082c34"/></g><g transform="translate(-182 -62)"><circle cx="5" cy="5" r="5" transform="translate(532 62)" fill="#082c34"/></g><g transform="translate(-157 -62)"><circle cx="5" cy="5" r="5" transform="translate(532 62)" fill="#082c34"/></g><g transform="translate(-132 -62)"><circle cx="5" cy="5" r="5" transform="translate(532 62)" fill="#082c34"/></g><g transform="translate(-107 -62)"><circle cx="5" cy="5" r="5" transform="translate(532 62)" fill="#082c34"/></g><g transform="translate(-82 -62)"><circle cx="5" cy="5" r="5" transform="translate(532 62)" fill="#082c34"/></g><g transform="translate(-57 -62)"><circle cx="5" cy="5" r="5" transform="translate(532 62)" fill="#082c34"/></g><g transform="translate(-32 -62)"><circle cx="5" cy="5" r="5" transform="translate(532 62)" fill="#082c34"/></g><g transform="translate(-7 -62)"><circle cx="5" cy="5" r="5" transform="translate(532 62)" fill="#082c34"/></g><g transform="translate(18 -62)"><circle cx="5" cy="5" r="5" transform="translate(532 62)" fill="#082c34"/></g><g transform="translate(43 -62)"><circle cx="5" cy="5" r="5" transform="translate(532 62)" fill="#082c34"/></g><g transform="translate(68 -62)"><circle cx="5" cy="5" r="5" transform="translate(532 62)" fill="#082c34"/></g><g transform="translate(-532 -32)"><circle cx="5" cy="5" r="5" transform="translate(532 62)" fill="#082c34"/></g><g transform="translate(-507 -32)"><circle cx="5" cy="5" r="5" transform="translate(532 62)" fill="#082c34"/></g><g transform="translate(-482 -32)"><circle cx="5" cy="5" r="5" transform="translate(532 62)" fill="#082c34"/></g><g transform="translate(-457 -32)"><circle cx="5" cy="5" r="5" transform="translate(532 62)" fill="#082c34"/></g><g transform="translate(-432 -32)"><circle cx="5" cy="5" r="5" transform="translate(532 62)" fill="#082c34"/></g><g transform="translate(-407 -32)"><circle cx="5" cy="5" r="5" transform="translate(532 62)" fill="#082c34"/></g><g transform="translate(-382 -32)"><circle cx="5" cy="5" r="5" transform="translate(532 62)" fill="#082c34"/></g><g transform="translate(-357 -32)"><circle cx="5" cy="5" r="5" transform="translate(532 62)" fill="#082c34"/></g><g transform="translate(-332 -32)"><circle cx="5" cy="5" r="5" transform="translate(532 62)" fill="#082c34"/></g><g transform="translate(-307 -32)"><circle cx="5" cy="5" r="5" transform="translate(532 62)" fill="#082c34"/></g><g transform="translate(-282 -32)"><circle cx="5" cy="5" r="5" transform="translate(532 62)" fill="#082c34"/></g><g transform="translate(-257 -32)"><circle cx="5" cy="5" r="5" transform="translate(532 62)" fill="#082c34"/></g><g transform="translate(-232 -32)"><circle cx="5" cy="5" r="5" transform="translate(532 62)" fill="#082c34"/></g><g transform="translate(-207 -32)"><circle cx="5" cy="5" r="5" transform="translate(532 62)" fill="#082c34"/></g><g transform="translate(-182 -32)"><circle cx="5" cy="5" r="5" transform="translate(532 62)" fill="#082c34"/></g><g transform="translate(-157 -32)"><circle cx="5" cy="5" r="5" transform="translate(532 62)" fill="#082c34"/></g><g transform="translate(-132 -32)"><circle cx="5" cy="5" r="5" transform="translate(532 62)" fill="#082c34"/></g><g transform="translate(-107 -32)"><circle cx="5" cy="5" r="5" transform="translate(532 62)" fill="#082c34"/></g><g transform="translate(-82 -32)"><circle cx="5" cy="5" r="5" transform="translate(532 62)" fill="#082c34"/></g><g transform="translate(-57 -32)"><circle cx="5" cy="5" r="5" transform="translate(532 62)" fill="#082c34"/></g><g transform="translate(-32 -32)"><circle cx="5" cy="5" r="5" transform="translate(532 62)" fill="#082c34"/></g><g transform="translate(-7 -32)"><circle cx="5" cy="5" r="5" transform="translate(532 62)" fill="#082c34"/></g><g transform="translate(18 -32)"><circle cx="5" cy="5" r="5" transform="translate(532 62)" fill="#082c34"/></g><g transform="translate(43 -32)"><circle cx="5" cy="5" r="5" transform="translate(532 62)" fill="#082c34"/></g><g transform="translate(68 -32)"><circle cx="5" cy="5" r="5" transform="translate(532 62)" fill="#082c34"/></g><g transform="translate(-532 -2)"><circle cx="5" cy="5" r="5" transform="translate(532 62)" fill="#082c34"/></g><g transform="translate(-507 -2)"><circle cx="5" cy="5" r="5" transform="translate(532 62)" fill="#082c34"/></g><g transform="translate(-482 -2)"><circle cx="5" cy="5" r="5" transform="translate(532 62)" fill="#082c34"/></g><g transform="translate(-457 -2)"><circle cx="5" cy="5" r="5" transform="translate(532 62)" fill="#082c34"/></g><g transform="translate(-432 -2)"><circle cx="5" cy="5" r="5" transform="translate(532 62)" fill="#082c34"/></g><g transform="translate(-407 -2)"><circle cx="5" cy="5" r="5" transform="translate(532 62)" fill="#082c34"/></g><g transform="translate(-382 -2)"><circle cx="5" cy="5" r="5" transform="translate(532 62)" fill="#082c34"/></g><g transform="translate(-357 -2)"><circle cx="5" cy="5" r="5" transform="translate(532 62)" fill="#082c34"/></g><g transform="translate(-332 -2)"><circle cx="5" cy="5" r="5" transform="translate(532 62)" fill="#082c34"/></g><g transform="translate(-307 -2)"><circle cx="5" cy="5" r="5" transform="translate(532 62)" fill="#082c34"/></g><g transform="translate(-282 -2)"><circle cx="5" cy="5" r="5" transform="translate(532 62)" fill="#082c34"/></g><g transform="translate(-257 -2)"><circle cx="5" cy="5" r="5" transform="translate(532 62)" fill="#082c34"/></g><g transform="translate(-232 -2)"><circle cx="5" cy="5" r="5" transform="translate(532 62)" fill="#082c34"/></g><g transform="translate(-207 -2)"><circle cx="5" cy="5" r="5" transform="translate(532 62)" fill="#082c34"/></g><g transform="translate(-182 -2)"><circle cx="5" cy="5" r="5" transform="translate(532 62)" fill="#082c34"/></g><g transform="translate(-157 -2)"><circle cx="5" cy="5" r="5" transform="translate(532 62)" fill="#082c34"/></g><g transform="translate(-132 -2)"><circle cx="5" cy="5" r="5" transform="translate(532 62)" fill="#082c34"/></g><g transform="translate(-107 -2)"><circle cx="5" cy="5" r="5" transform="translate(532 62)" fill="#082c34"/></g><g transform="translate(-82 -2)"><circle cx="5" cy="5" r="5" transform="translate(532 62)" fill="#082c34"/></g><g transform="translate(-57 -2)"><circle cx="5" cy="5" r="5" transform="translate(532 62)" fill="#082c34"/></g><g transform="translate(-32 -2)"><circle cx="5" cy="5" r="5" transform="translate(532 62)" fill="#082c34"/></g><g transform="translate(-7 -2)"><circle cx="5" cy="5" r="5" transform="translate(532 62)" fill="#082c34"/></g><g transform="translate(18 -2)"><circle cx="5" cy="5" r="5" transform="translate(532 62)" fill="#082c34"/></g><g transform="translate(43 -2)"><circle cx="5" cy="5" r="5" transform="translate(532 62)" fill="#082c34"/></g><g transform="translate(68 -2)"><circle cx="5" cy="5" r="5" transform="translate(532 62)" fill="#082c34"/></g><g transform="translate(-532 28)"><circle cx="5" cy="5" r="5" transform="translate(532 62)" fill="#082c34"/></g><g transform="translate(-507 28)"><circle cx="5" cy="5" r="5" transform="translate(532 62)" fill="#082c34"/></g><g transform="translate(-482 28)"><circle cx="5" cy="5" r="5" transform="translate(532 62)" fill="#082c34"/></g><g transform="translate(-457 28)"><circle cx="5" cy="5" r="5" transform="translate(532 62)" fill="#082c34"/></g><g transform="translate(-432 28)"><circle cx="5" cy="5" r="5" transform="translate(532 62)" fill="#082c34"/></g><g transform="translate(-407 28)"><circle cx="5" cy="5" r="5" transform="translate(532 62)" fill="#082c34"/></g><g transform="translate(-382 28)"><circle cx="5" cy="5" r="5" transform="translate(532 62)" fill="#082c34"/></g><g transform="translate(-357 28)"><circle cx="5" cy="5" r="5" transform="translate(532 62)" fill="#082c34"/></g><g transform="translate(-332 28)"><circle cx="5" cy="5" r="5" transform="translate(532 62)" fill="#082c34"/></g><g transform="translate(-307 28)"><circle cx="5" cy="5" r="5" transform="translate(532 62)" fill="#082c34"/></g><g transform="translate(-282 28)"><circle cx="5" cy="5" r="5" transform="translate(532 62)" fill="#082c34"/></g><g transform="translate(-257 28)"><circle cx="5" cy="5" r="5" transform="translate(532 62)" fill="#082c34"/></g><g transform="translate(-232 28)"><circle cx="5" cy="5" r="5" transform="translate(532 62)" fill="#082c34"/></g><g transform="translate(-207 28)"><circle cx="5" cy="5" r="5" transform="translate(532 62)" fill="#082c34"/></g><g transform="translate(-182 28)"><circle cx="5" cy="5" r="5" transform="translate(532 62)" fill="#082c34"/></g><g transform="translate(-157 28)"><circle cx="5" cy="5" r="5" transform="translate(532 62)" fill="#082c34"/></g><g transform="translate(-132 28)"><circle cx="5" cy="5" r="5" transform="translate(532 62)" fill="#082c34"/></g><g transform="translate(-107 28)"><circle cx="5" cy="5" r="5" transform="translate(532 62)" fill="#082c34"/></g><g transform="translate(-82 28)"><circle cx="5" cy="5" r="5" transform="translate(532 62)" fill="#082c34"/></g><g transform="translate(-57 28)"><circle cx="5" cy="5" r="5" transform="translate(532 62)" fill="#082c34"/></g><g transform="translate(-32 28)"><circle cx="5" cy="5" r="5" transform="translate(532 62)" fill="#082c34"/></g><g transform="translate(-7 28)"><circle cx="5" cy="5" r="5" transform="translate(532 62)" fill="#082c34"/></g><g transform="translate(18 28)"><circle cx="5" cy="5" r="5" transform="translate(532 62)" fill="#082c34"/></g><g transform="translate(43 28)"><circle cx="5" cy="5" r="5" transform="translate(532 62)" fill="#082c34"/></g><g transform="translate(68 28)"><circle cx="5" cy="5" r="5" transform="translate(532 62)" fill="#082c34"/></g><g transform="translate(-532 58)"><circle cx="5" cy="5" r="5" transform="translate(532 62)" fill="#082c34"/></g><g transform="translate(-507 58)"><circle cx="5" cy="5" r="5" transform="translate(532 62)" fill="#082c34"/></g><g transform="translate(-482 58)"><circle cx="5" cy="5" r="5" transform="translate(532 62)" fill="#082c34"/></g><g transform="translate(-457 58)"><circle cx="5" cy="5" r="5" transform="translate(532 62)" fill="#082c34"/></g><g transform="translate(-432 58)"><circle cx="5" cy="5" r="5" transform="translate(532 62)" fill="#082c34"/></g><g transform="translate(-407 58)"><circle cx="5" cy="5" r="5" transform="translate(532 62)" fill="#082c34"/></g><g transform="translate(-382 58)"><circle cx="5" cy="5" r="5" transform="translate(532 62)" fill="#082c34"/></g><g transform="translate(-357 58)"><circle cx="5" cy="5" r="5" transform="translate(532 62)" fill="#082c34"/></g><g transform="translate(-332 58)"><circle cx="5" cy="5" r="5" transform="translate(532 62)" fill="#082c34"/></g><g transform="translate(-307 58)"><circle cx="5" cy="5" r="5" transform="translate(532 62)" fill="#082c34"/></g><g transform="translate(-282 58)"><circle cx="5" cy="5" r="5" transform="translate(532 62)" fill="#082c34"/></g><g transform="translate(-257 58)"><circle cx="5" cy="5" r="5" transform="translate(532 62)" fill="#082c34"/></g><g transform="translate(-232 58)"><circle cx="5" cy="5" r="5" transform="translate(532 62)" fill="#082c34"/></g><g transform="translate(-207 58)"><circle cx="5" cy="5" r="5" transform="translate(532 62)" fill="#082c34"/></g><g transform="translate(-182 58)"><circle cx="5" cy="5" r="5" transform="translate(532 62)" fill="#082c34"/></g><g transform="translate(-157 58)"><circle cx="5" cy="5" r="5" transform="translate(532 62)" fill="#082c34"/></g><g transform="translate(-132 58)"><circle cx="5" cy="5" r="5" transform="translate(532 62)" fill="#082c34"/></g><g transform="translate(-107 58)"><circle cx="5" cy="5" r="5" transform="translate(532 62)" fill="#082c34"/></g><g transform="translate(-82 58)"><circle cx="5" cy="5" r="5" transform="translate(532 62)" fill="#082c34"/></g><g transform="translate(-57 58)"><circle cx="5" cy="5" r="5" transform="translate(532 62)" fill="#082c34"/></g><g transform="translate(-32 58)"><circle cx="5" cy="5" r="5" transform="translate(532 62)" fill="#082c34"/></g><g transform="translate(-7 58)"><circle cx="5" cy="5" r="5" transform="translate(532 62)" fill="#082c34"/></g><g transform="translate(18 58)"><circle cx="5" cy="5" r="5" transform="translate(532 62)" fill="#082c34"/></g><g transform="translate(43 58)"><circle cx="5" cy="5" r="5" transform="translate(532 62)" fill="#082c34"/></g><g transform="translate(68 58)"><circle cx="5" cy="5" r="5" transform="translate(532 62)" fill="#082c34"/></g></g></svg>