<svg xmlns="http://www.w3.org/2000/svg" xmlns:xlink="http://www.w3.org/1999/xlink" width="400" height="160" viewBox="0 0 485 251"><defs><clipPath id="a"><rect width="485" height="251" fill="none"/></clipPath></defs><g clip-path="url(#a)"><g transform="translate(-532 -62)"><circle cx="5" cy="5" r="5" transform="translate(532 62)" fill="#082c34"/></g><g transform="translate(-507 -62)"><circle cx="5" cy="5" r="5" transform="translate(532 62)" fill="#082c34"/></g><g transform="translate(-482 -62)"><circle cx="5" cy="5" r="5" transform="translate(532 62)" fill="#082c34"/></g><g transform="translate(-457 -62)"><circle cx="5" cy="5" r="5" transform="translate(532 62)" fill="#082c34"/></g><g transform="translate(-432 -62)"><circle cx="5" cy="5" r="5" transform="translate(532 62)" fill="#082c34"/></g><g transform="translate(-407 -62)"><circle cx="5" cy="5" r="5" transform="translate(532 62)" fill="#082c34"/></g><g transform="translate(-382 -62)"><circle cx="5" cy="5" r="5" transform="translate(532 62)" fill="#082c34"/></g><g transform="translate(-357 -62)"><circle cx="5" cy="5" r="5" transform="translate(532 62)" fill="#082c34"/></g><g transform="translate(-332 -62)"><circle cx="5" cy="5" r="5" transform="translate(532 62)" fill="#082c34"/></g><g transform="translate(-307 -62)"><circle cx="5" cy="5" r="5" transform="translate(532 62)" fill="#082c34"/></g><g transform="translate(-282 -62)"><circle cx="5" cy="5" r="5" transform="translate(532 62)" fill="#082c34"/></g><g transform="translate(-257 -62)"><circle cx="5" cy="5" r="5" transform="translate(532 62)" fill="#082c34"/></g><g transform="translate(-232 -62)"><circle cx="5" cy="5" r="5" transform="translate(532 62)" fill="#082c34"/></g><g transform="translate(-207 -62)"><circle cx="5" cy="5" r="5" transform="translate(532 62)" fill="#082c34"/></g><g transform="translate(-182 -62)"><circle cx="5" cy="5" r="5" transform="translate(532 62)" fill="#082c34"/></g><g transform="translate(-157 -62)"><circle cx="5" cy="5" r="5" transform="translate(532 62)" fill="#082c34"/></g><g transform="translate(-132 -62)"><circle cx="5" cy="5" r="5" transform="translate(532 62)" fill="#082c34"/></g><g transform="translate(-107 -62)"><circle cx="5" cy="5" r="5" transform="translate(532 62)" fill="#082c34"/></g><g transform="translate(-82 -62)"><circle cx="5" cy="5" r="5" transform="translate(532 62)" fill="#082c34"/></g><g transform="translate(-57 -62)"><circle cx="5" cy="5" r="5" transform="translate(532 62)" fill="#082c34"/></g><g transform="translate(-532 -32)"><circle cx="5" cy="5" r="5" transform="translate(532 62)" fill="#082c34"/></g><g transform="translate(-507 -32)"><circle cx="5" cy="5" r="5" transform="translate(532 62)" fill="#082c34"/></g><g transform="translate(-482 -32)"><circle cx="5" cy="5" r="5" transform="translate(532 62)" fill="#082c34"/></g><g transform="translate(-457 -32)"><circle cx="5" cy="5" r="5" transform="translate(532 62)" fill="#082c34"/></g><g transform="translate(-432 -32)"><circle cx="5" cy="5" r="5" transform="translate(532 62)" fill="#082c34"/></g><g transform="translate(-407 -32)"><circle cx="5" cy="5" r="5" transform="translate(532 62)" fill="#082c34"/></g><g transform="translate(-382 -32)"><circle cx="5" cy="5" r="5" transform="translate(532 62)" fill="#082c34"/></g><g transform="translate(-357 -32)"><circle cx="5" cy="5" r="5" transform="translate(532 62)" fill="#082c34"/></g><g transform="translate(-332 -32)"><circle cx="5" cy="5" r="5" transform="translate(532 62)" fill="#082c34"/></g><g transform="translate(-307 -32)"><circle cx="5" cy="5" r="5" transform="translate(532 62)" fill="#082c34"/></g><g transform="translate(-282 -32)"><circle cx="5" cy="5" r="5" transform="translate(532 62)" fill="#082c34"/></g><g transform="translate(-257 -32)"><circle cx="5" cy="5" r="5" transform="translate(532 62)" fill="#082c34"/></g><g transform="translate(-232 -32)"><circle cx="5" cy="5" r="5" transform="translate(532 62)" fill="#082c34"/></g><g transform="translate(-207 -32)"><circle cx="5" cy="5" r="5" transform="translate(532 62)" fill="#082c34"/></g><g transform="translate(-182 -32)"><circle cx="5" cy="5" r="5" transform="translate(532 62)" fill="#082c34"/></g><g transform="translate(-157 -32)"><circle cx="5" cy="5" r="5" transform="translate(532 62)" fill="#082c34"/></g><g transform="translate(-132 -32)"><circle cx="5" cy="5" r="5" transform="translate(532 62)" fill="#082c34"/></g><g transform="translate(-107 -32)"><circle cx="5" cy="5" r="5" transform="translate(532 62)" fill="#082c34"/></g><g transform="translate(-82 -32)"><circle cx="5" cy="5" r="5" transform="translate(532 62)" fill="#082c34"/></g><g transform="translate(-57 -32)"><circle cx="5" cy="5" r="5" transform="translate(532 62)" fill="#082c34"/></g><g transform="translate(-532 -2)"><circle cx="5" cy="5" r="5" transform="translate(532 62)" fill="#082c34"/></g><g transform="translate(-507 -2)"><circle cx="5" cy="5" r="5" transform="translate(532 62)" fill="#082c34"/></g><g transform="translate(-482 -2)"><circle cx="5" cy="5" r="5" transform="translate(532 62)" fill="#082c34"/></g><g transform="translate(-457 -2)"><circle cx="5" cy="5" r="5" transform="translate(532 62)" fill="#082c34"/></g><g transform="translate(-432 -2)"><circle cx="5" cy="5" r="5" transform="translate(532 62)" fill="#082c34"/></g><g transform="translate(-407 -2)"><circle cx="5" cy="5" r="5" transform="translate(532 62)" fill="#082c34"/></g><g transform="translate(-382 -2)"><circle cx="5" cy="5" r="5" transform="translate(532 62)" fill="#082c34"/></g><g transform="translate(-357 -2)"><circle cx="5" cy="5" r="5" transform="translate(532 62)" fill="#082c34"/></g><g transform="translate(-332 -2)"><circle cx="5" cy="5" r="5" transform="translate(532 62)" fill="#082c34"/></g><g transform="translate(-307 -2)"><circle cx="5" cy="5" r="5" transform="translate(532 62)" fill="#082c34"/></g><g transform="translate(-282 -2)"><circle cx="5" cy="5" r="5" transform="translate(532 62)" fill="#082c34"/></g><g transform="translate(-257 -2)"><circle cx="5" cy="5" r="5" transform="translate(532 62)" fill="#082c34"/></g><g transform="translate(-232 -2)"><circle cx="5" cy="5" r="5" transform="translate(532 62)" fill="#082c34"/></g><g transform="translate(-207 -2)"><circle cx="5" cy="5" r="5" transform="translate(532 62)" fill="#082c34"/></g><g transform="translate(-182 -2)"><circle cx="5" cy="5" r="5" transform="translate(532 62)" fill="#082c34"/></g><g transform="translate(-157 -2)"><circle cx="5" cy="5" r="5" transform="translate(532 62)" fill="#082c34"/></g><g transform="translate(-132 -2)"><circle cx="5" cy="5" r="5" transform="translate(532 62)" fill="#082c34"/></g><g transform="translate(-107 -2)"><circle cx="5" cy="5" r="5" transform="translate(532 62)" fill="#082c34"/></g><g transform="translate(-82 -2)"><circle cx="5" cy="5" r="5" transform="translate(532 62)" fill="#082c34"/></g><g transform="translate(-57 -2)"><circle cx="5" cy="5" r="5" transform="translate(532 62)" fill="#082c34"/></g><g transform="translate(-532 28)"><circle cx="5" cy="5" r="5" transform="translate(532 62)" fill="#082c34"/></g><g transform="translate(-507 28)"><circle cx="5" cy="5" r="5" transform="translate(532 62)" fill="#082c34"/></g><g transform="translate(-482 28)"><circle cx="5" cy="5" r="5" transform="translate(532 62)" fill="#082c34"/></g><g transform="translate(-457 28)"><circle cx="5" cy="5" r="5" transform="translate(532 62)" fill="#082c34"/></g><g transform="translate(-432 28)"><circle cx="5" cy="5" r="5" transform="translate(532 62)" fill="#082c34"/></g><g transform="translate(-407 28)"><circle cx="5" cy="5" r="5" transform="translate(532 62)" fill="#082c34"/></g><g transform="translate(-382 28)"><circle cx="5" cy="5" r="5" transform="translate(532 62)" fill="#082c34"/></g><g transform="translate(-357 28)"><circle cx="5" cy="5" r="5" transform="translate(532 62)" fill="#082c34"/></g><g transform="translate(-332 28)"><circle cx="5" cy="5" r="5" transform="translate(532 62)" fill="#082c34"/></g><g transform="translate(-307 28)"><circle cx="5" cy="5" r="5" transform="translate(532 62)" fill="#082c34"/></g><g transform="translate(-282 28)"><circle cx="5" cy="5" r="5" transform="translate(532 62)" fill="#082c34"/></g><g transform="translate(-257 28)"><circle cx="5" cy="5" r="5" transform="translate(532 62)" fill="#082c34"/></g><g transform="translate(-232 28)"><circle cx="5" cy="5" r="5" transform="translate(532 62)" fill="#082c34"/></g><g transform="translate(-207 28)"><circle cx="5" cy="5" r="5" transform="translate(532 62)" fill="#082c34"/></g><g transform="translate(-182 28)"><circle cx="5" cy="5" r="5" transform="translate(532 62)" fill="#082c34"/></g><g transform="translate(-157 28)"><circle cx="5" cy="5" r="5" transform="translate(532 62)" fill="#082c34"/></g><g transform="translate(-132 28)"><circle cx="5" cy="5" r="5" transform="translate(532 62)" fill="#082c34"/></g><g transform="translate(-107 28)"><circle cx="5" cy="5" r="5" transform="translate(532 62)" fill="#082c34"/></g><g transform="translate(-82 28)"><circle cx="5" cy="5" r="5" transform="translate(532 62)" fill="#082c34"/></g><g transform="translate(-57 28)"><circle cx="5" cy="5" r="5" transform="translate(532 62)" fill="#082c34"/></g><g transform="translate(-532 58)"><circle cx="5" cy="5" r="5" transform="translate(532 62)" fill="#082c34"/></g><g transform="translate(-507 58)"><circle cx="5" cy="5" r="5" transform="translate(532 62)" fill="#082c34"/></g><g transform="translate(-482 58)"><circle cx="5" cy="5" r="5" transform="translate(532 62)" fill="#082c34"/></g><g transform="translate(-457 58)"><circle cx="5" cy="5" r="5" transform="translate(532 62)" fill="#082c34"/></g><g transform="translate(-432 58)"><circle cx="5" cy="5" r="5" transform="translate(532 62)" fill="#082c34"/></g><g transform="translate(-407 58)"><circle cx="5" cy="5" r="5" transform="translate(532 62)" fill="#082c34"/></g><g transform="translate(-382 58)"><circle cx="5" cy="5" r="5" transform="translate(532 62)" fill="#082c34"/></g><g transform="translate(-357 58)"><circle cx="5" cy="5" r="5" transform="translate(532 62)" fill="#082c34"/></g><g transform="translate(-332 58)"><circle cx="5" cy="5" r="5" transform="translate(532 62)" fill="#082c34"/></g><g transform="translate(-307 58)"><circle cx="5" cy="5" r="5" transform="translate(532 62)" fill="#082c34"/></g><g transform="translate(-282 58)"><circle cx="5" cy="5" r="5" transform="translate(532 62)" fill="#082c34"/></g><g transform="translate(-257 58)"><circle cx="5" cy="5" r="5" transform="translate(532 62)" fill="#082c34"/></g><g transform="translate(-232 58)"><circle cx="5" cy="5" r="5" transform="translate(532 62)" fill="#082c34"/></g><g transform="translate(-207 58)"><circle cx="5" cy="5" r="5" transform="translate(532 62)" fill="#082c34"/></g><g transform="translate(-182 58)"><circle cx="5" cy="5" r="5" transform="translate(532 62)" fill="#082c34"/></g><g transform="translate(-157 58)"><circle cx="5" cy="5" r="5" transform="translate(532 62)" fill="#082c34"/></g><g transform="translate(-132 58)"><circle cx="5" cy="5" r="5" transform="translate(532 62)" fill="#082c34"/></g><g transform="translate(-107 58)"><circle cx="5" cy="5" r="5" transform="translate(532 62)" fill="#082c34"/></g><g transform="translate(-82 58)"><circle cx="5" cy="5" r="5" transform="translate(532 62)" fill="#082c34"/></g><g transform="translate(-57 58)"><circle cx="5" cy="5" r="5" transform="translate(532 62)" fill="#082c34"/></g><g transform="translate(-532 88)"><circle cx="5" cy="5" r="5" transform="translate(532 62)" fill="#082c34"/></g><g transform="translate(-507 88)"><circle cx="5" cy="5" r="5" transform="translate(532 62)" fill="#082c34"/></g><g transform="translate(-482 88)"><circle cx="5" cy="5" r="5" transform="translate(532 62)" fill="#082c34"/></g><g transform="translate(-457 88)"><circle cx="5" cy="5" r="5" transform="translate(532 62)" fill="#082c34"/></g><g transform="translate(-432 88)"><circle cx="5" cy="5" r="5" transform="translate(532 62)" fill="#082c34"/></g><g transform="translate(-407 88)"><circle cx="5" cy="5" r="5" transform="translate(532 62)" fill="#082c34"/></g><g transform="translate(-382 88)"><circle cx="5" cy="5" r="5" transform="translate(532 62)" fill="#082c34"/></g><g transform="translate(-357 88)"><circle cx="5" cy="5" r="5" transform="translate(532 62)" fill="#082c34"/></g><g transform="translate(-332 88)"><circle cx="5" cy="5" r="5" transform="translate(532 62)" fill="#082c34"/></g><g transform="translate(-307 88)"><circle cx="5" cy="5" r="5" transform="translate(532 62)" fill="#082c34"/></g><g transform="translate(-282 88)"><circle cx="5" cy="5" r="5" transform="translate(532 62)" fill="#082c34"/></g><g transform="translate(-257 88)"><circle cx="5" cy="5" r="5" transform="translate(532 62)" fill="#082c34"/></g><g transform="translate(-232 88)"><circle cx="5" cy="5" r="5" transform="translate(532 62)" fill="#082c34"/></g><g transform="translate(-207 88)"><circle cx="5" cy="5" r="5" transform="translate(532 62)" fill="#082c34"/></g><g transform="translate(-182 88)"><circle cx="5" cy="5" r="5" transform="translate(532 62)" fill="#082c34"/></g><g transform="translate(-157 88)"><circle cx="5" cy="5" r="5" transform="translate(532 62)" fill="#082c34"/></g><g transform="translate(-132 88)"><circle cx="5" cy="5" r="5" transform="translate(532 62)" fill="#082c34"/></g><g transform="translate(-107 88)"><circle cx="5" cy="5" r="5" transform="translate(532 62)" fill="#082c34"/></g><g transform="translate(-82 88)"><circle cx="5" cy="5" r="5" transform="translate(532 62)" fill="#082c34"/></g><g transform="translate(-57 88)"><circle cx="5" cy="5" r="5" transform="translate(532 62)" fill="#082c34"/></g><g transform="translate(-532 118)"><circle cx="5" cy="5" r="5" transform="translate(532 62)" fill="#082c34"/></g><g transform="translate(-507 118)"><circle cx="5" cy="5" r="5" transform="translate(532 62)" fill="#082c34"/></g><g transform="translate(-482 118)"><circle cx="5" cy="5" r="5" transform="translate(532 62)" fill="#082c34"/></g><g transform="translate(-457 118)"><circle cx="5" cy="5" r="5" transform="translate(532 62)" fill="#082c34"/></g><g transform="translate(-432 118)"><circle cx="5" cy="5" r="5" transform="translate(532 62)" fill="#082c34"/></g><g transform="translate(-407 118)"><circle cx="5" cy="5" r="5" transform="translate(532 62)" fill="#082c34"/></g><g transform="translate(-382 118)"><circle cx="5" cy="5" r="5" transform="translate(532 62)" fill="#082c34"/></g><g transform="translate(-357 118)"><circle cx="5" cy="5" r="5" transform="translate(532 62)" fill="#082c34"/></g><g transform="translate(-332 118)"><circle cx="5" cy="5" r="5" transform="translate(532 62)" fill="#082c34"/></g><g transform="translate(-307 118)"><circle cx="5" cy="5" r="5" transform="translate(532 62)" fill="#082c34"/></g><g transform="translate(-282 118)"><circle cx="5" cy="5" r="5" transform="translate(532 62)" fill="#082c34"/></g><g transform="translate(-257 118)"><circle cx="5" cy="5" r="5" transform="translate(532 62)" fill="#082c34"/></g><g transform="translate(-232 118)"><circle cx="5" cy="5" r="5" transform="translate(532 62)" fill="#082c34"/></g><g transform="translate(-207 118)"><circle cx="5" cy="5" r="5" transform="translate(532 62)" fill="#082c34"/></g><g transform="translate(-182 118)"><circle cx="5" cy="5" r="5" transform="translate(532 62)" fill="#082c34"/></g><g transform="translate(-157 118)"><circle cx="5" cy="5" r="5" transform="translate(532 62)" fill="#082c34"/></g><g transform="translate(-132 118)"><circle cx="5" cy="5" r="5" transform="translate(532 62)" fill="#082c34"/></g><g transform="translate(-107 118)"><circle cx="5" cy="5" r="5" transform="translate(532 62)" fill="#082c34"/></g><g transform="translate(-82 118)"><circle cx="5" cy="5" r="5" transform="translate(532 62)" fill="#082c34"/></g><g transform="translate(-57 118)"><circle cx="5" cy="5" r="5" transform="translate(532 62)" fill="#082c34"/></g><g transform="translate(-532 148)"><circle cx="5" cy="5" r="5" transform="translate(532 62)" fill="#082c34"/></g><g transform="translate(-507 148)"><circle cx="5" cy="5" r="5" transform="translate(532 62)" fill="#082c34"/></g><g transform="translate(-482 148)"><circle cx="5" cy="5" r="5" transform="translate(532 62)" fill="#082c34"/></g><g transform="translate(-457 148)"><circle cx="5" cy="5" r="5" transform="translate(532 62)" fill="#082c34"/></g><g transform="translate(-432 148)"><circle cx="5" cy="5" r="5" transform="translate(532 62)" fill="#082c34"/></g><g transform="translate(-407 148)"><circle cx="5" cy="5" r="5" transform="translate(532 62)" fill="#082c34"/></g><g transform="translate(-382 148)"><circle cx="5" cy="5" r="5" transform="translate(532 62)" fill="#082c34"/></g><g transform="translate(-357 148)"><circle cx="5" cy="5" r="5" transform="translate(532 62)" fill="#082c34"/></g><g transform="translate(-332 148)"><circle cx="5" cy="5" r="5" transform="translate(532 62)" fill="#082c34"/></g><g transform="translate(-307 148)"><circle cx="5" cy="5" r="5" transform="translate(532 62)" fill="#082c34"/></g><g transform="translate(-282 148)"><circle cx="5" cy="5" r="5" transform="translate(532 62)" fill="#082c34"/></g><g transform="translate(-257 148)"><circle cx="5" cy="5" r="5" transform="translate(532 62)" fill="#082c34"/></g><g transform="translate(-232 148)"><circle cx="5" cy="5" r="5" transform="translate(532 62)" fill="#082c34"/></g><g transform="translate(-207 148)"><circle cx="5" cy="5" r="5" transform="translate(532 62)" fill="#082c34"/></g><g transform="translate(-182 148)"><circle cx="5" cy="5" r="5" transform="translate(532 62)" fill="#082c34"/></g><g transform="translate(-157 148)"><circle cx="5" cy="5" r="5" transform="translate(532 62)" fill="#082c34"/></g><g transform="translate(-132 148)"><circle cx="5" cy="5" r="5" transform="translate(532 62)" fill="#082c34"/></g><g transform="translate(-107 148)"><circle cx="5" cy="5" r="5" transform="translate(532 62)" fill="#082c34"/></g><g transform="translate(-82 148)"><circle cx="5" cy="5" r="5" transform="translate(532 62)" fill="#082c34"/></g><g transform="translate(-57 148)"><circle cx="5" cy="5" r="5" transform="translate(532 62)" fill="#082c34"/></g><g transform="translate(-532 178)"><circle cx="5" cy="5" r="5" transform="translate(532 62)" fill="#082c34"/></g><g transform="translate(-507 178)"><circle cx="5" cy="5" r="5" transform="translate(532 62)" fill="#082c34"/></g><g transform="translate(-482 178)"><circle cx="5" cy="5" r="5" transform="translate(532 62)" fill="#082c34"/></g><g transform="translate(-457 178)"><circle cx="5" cy="5" r="5" transform="translate(532 62)" fill="#082c34"/></g><g transform="translate(-432 178)"><circle cx="5" cy="5" r="5" transform="translate(532 62)" fill="#082c34"/></g><g transform="translate(-407 178)"><circle cx="5" cy="5" r="5" transform="translate(532 62)" fill="#082c34"/></g><g transform="translate(-382 178)"><circle cx="5" cy="5" r="5" transform="translate(532 62)" fill="#082c34"/></g><g transform="translate(-357 178)"><circle cx="5" cy="5" r="5" transform="translate(532 62)" fill="#082c34"/></g><g transform="translate(-332 178)"><circle cx="5" cy="5" r="5" transform="translate(532 62)" fill="#082c34"/></g><g transform="translate(-307 178)"><circle cx="5" cy="5" r="5" transform="translate(532 62)" fill="#082c34"/></g><g transform="translate(-282 178)"><circle cx="5" cy="5" r="5" transform="translate(532 62)" fill="#082c34"/></g><g transform="translate(-257 178)"><circle cx="5" cy="5" r="5" transform="translate(532 62)" fill="#082c34"/></g><g transform="translate(-232 178)"><circle cx="5" cy="5" r="5" transform="translate(532 62)" fill="#082c34"/></g><g transform="translate(-207 178)"><circle cx="5" cy="5" r="5" transform="translate(532 62)" fill="#082c34"/></g><g transform="translate(-182 178)"><circle cx="5" cy="5" r="5" transform="translate(532 62)" fill="#082c34"/></g><g transform="translate(-157 178)"><circle cx="5" cy="5" r="5" transform="translate(532 62)" fill="#082c34"/></g><g transform="translate(-132 178)"><circle cx="5" cy="5" r="5" transform="translate(532 62)" fill="#082c34"/></g><g transform="translate(-107 178)"><circle cx="5" cy="5" r="5" transform="translate(532 62)" fill="#082c34"/></g><g transform="translate(-82 178)"><circle cx="5" cy="5" r="5" transform="translate(532 62)" fill="#082c34"/></g><g transform="translate(-57 178)"><circle cx="5" cy="5" r="5" transform="translate(532 62)" fill="#082c34"/></g></g></svg>
