<svg xmlns="http://www.w3.org/2000/svg" xmlns:xlink="http://www.w3.org/1999/xlink" width="120" height="300" viewBox="0 0 140 438"><defs><clipPath id="a"><rect width="140" height="438" fill="none"/></clipPath></defs><g clip-path="url(#a)"><g transform="translate(-532 -62)"><circle cx="5" cy="5" r="5" transform="translate(532 62)" fill="#082c34"/></g><g transform="translate(-507 -62)"><circle cx="5" cy="5" r="5" transform="translate(532 62)" fill="#082c34"/></g><g transform="translate(-482 -62)"><circle cx="5" cy="5" r="5" transform="translate(532 62)" fill="#082c34"/></g><g transform="translate(-457 -62)"><circle cx="5" cy="5" r="5" transform="translate(532 62)" fill="#082c34"/></g><g transform="translate(-432 -62)"><circle cx="5" cy="5" r="5" transform="translate(532 62)" fill="#082c34"/></g><g transform="translate(-407 -62)"><circle cx="5" cy="5" r="5" transform="translate(532 62)" fill="#082c34"/></g><g transform="translate(-532 -32)"><circle cx="5" cy="5" r="5" transform="translate(532 62)" fill="#082c34"/></g><g transform="translate(-507 -32)"><circle cx="5" cy="5" r="5" transform="translate(532 62)" fill="#082c34"/></g><g transform="translate(-482 -32)"><circle cx="5" cy="5" r="5" transform="translate(532 62)" fill="#082c34"/></g><g transform="translate(-457 -32)"><circle cx="5" cy="5" r="5" transform="translate(532 62)" fill="#082c34"/></g><g transform="translate(-432 -32)"><circle cx="5" cy="5" r="5" transform="translate(532 62)" fill="#082c34"/></g><g transform="translate(-407 -32)"><circle cx="5" cy="5" r="5" transform="translate(532 62)" fill="#082c34"/></g><g transform="translate(-532 -2)"><circle cx="5" cy="5" r="5" transform="translate(532 62)" fill="#082c34"/></g><g transform="translate(-507 -2)"><circle cx="5" cy="5" r="5" transform="translate(532 62)" fill="#082c34"/></g><g transform="translate(-482 -2)"><circle cx="5" cy="5" r="5" transform="translate(532 62)" fill="#082c34"/></g><g transform="translate(-457 -2)"><circle cx="5" cy="5" r="5" transform="translate(532 62)" fill="#082c34"/></g><g transform="translate(-432 -2)"><circle cx="5" cy="5" r="5" transform="translate(532 62)" fill="#082c34"/></g><g transform="translate(-407 -2)"><circle cx="5" cy="5" r="5" transform="translate(532 62)" fill="#082c34"/></g><g transform="translate(-532 28)"><circle cx="5" cy="5" r="5" transform="translate(532 62)" fill="#082c34"/></g><g transform="translate(-507 28)"><circle cx="5" cy="5" r="5" transform="translate(532 62)" fill="#082c34"/></g><g transform="translate(-482 28)"><circle cx="5" cy="5" r="5" transform="translate(532 62)" fill="#082c34"/></g><g transform="translate(-457 28)"><circle cx="5" cy="5" r="5" transform="translate(532 62)" fill="#082c34"/></g><g transform="translate(-432 28)"><circle cx="5" cy="5" r="5" transform="translate(532 62)" fill="#082c34"/></g><g transform="translate(-407 28)"><circle cx="5" cy="5" r="5" transform="translate(532 62)" fill="#082c34"/></g><g transform="translate(-532 58)"><circle cx="5" cy="5" r="5" transform="translate(532 62)" fill="#082c34"/></g><g transform="translate(-507 58)"><circle cx="5" cy="5" r="5" transform="translate(532 62)" fill="#082c34"/></g><g transform="translate(-482 58)"><circle cx="5" cy="5" r="5" transform="translate(532 62)" fill="#082c34"/></g><g transform="translate(-457 58)"><circle cx="5" cy="5" r="5" transform="translate(532 62)" fill="#082c34"/></g><g transform="translate(-432 58)"><circle cx="5" cy="5" r="5" transform="translate(532 62)" fill="#082c34"/></g><g transform="translate(-407 58)"><circle cx="5" cy="5" r="5" transform="translate(532 62)" fill="#082c34"/></g><g transform="translate(-532 88)"><circle cx="5" cy="5" r="5" transform="translate(532 62)" fill="#082c34"/></g><g transform="translate(-507 88)"><circle cx="5" cy="5" r="5" transform="translate(532 62)" fill="#082c34"/></g><g transform="translate(-482 88)"><circle cx="5" cy="5" r="5" transform="translate(532 62)" fill="#082c34"/></g><g transform="translate(-457 88)"><circle cx="5" cy="5" r="5" transform="translate(532 62)" fill="#082c34"/></g><g transform="translate(-432 88)"><circle cx="5" cy="5" r="5" transform="translate(532 62)" fill="#082c34"/></g><g transform="translate(-407 88)"><circle cx="5" cy="5" r="5" transform="translate(532 62)" fill="#082c34"/></g><g transform="translate(-532 118)"><circle cx="5" cy="5" r="5" transform="translate(532 62)" fill="#082c34"/></g><g transform="translate(-507 118)"><circle cx="5" cy="5" r="5" transform="translate(532 62)" fill="#082c34"/></g><g transform="translate(-482 118)"><circle cx="5" cy="5" r="5" transform="translate(532 62)" fill="#082c34"/></g><g transform="translate(-457 118)"><circle cx="5" cy="5" r="5" transform="translate(532 62)" fill="#082c34"/></g><g transform="translate(-432 118)"><circle cx="5" cy="5" r="5" transform="translate(532 62)" fill="#082c34"/></g><g transform="translate(-407 118)"><circle cx="5" cy="5" r="5" transform="translate(532 62)" fill="#082c34"/></g><g transform="translate(-532 148)"><circle cx="5" cy="5" r="5" transform="translate(532 62)" fill="#082c34"/></g><g transform="translate(-507 148)"><circle cx="5" cy="5" r="5" transform="translate(532 62)" fill="#082c34"/></g><g transform="translate(-482 148)"><circle cx="5" cy="5" r="5" transform="translate(532 62)" fill="#082c34"/></g><g transform="translate(-457 148)"><circle cx="5" cy="5" r="5" transform="translate(532 62)" fill="#082c34"/></g><g transform="translate(-432 148)"><circle cx="5" cy="5" r="5" transform="translate(532 62)" fill="#082c34"/></g><g transform="translate(-407 148)"><circle cx="5" cy="5" r="5" transform="translate(532 62)" fill="#082c34"/></g><g transform="translate(-532 178)"><circle cx="5" cy="5" r="5" transform="translate(532 62)" fill="#082c34"/></g><g transform="translate(-507 178)"><circle cx="5" cy="5" r="5" transform="translate(532 62)" fill="#082c34"/></g><g transform="translate(-482 178)"><circle cx="5" cy="5" r="5" transform="translate(532 62)" fill="#082c34"/></g><g transform="translate(-457 178)"><circle cx="5" cy="5" r="5" transform="translate(532 62)" fill="#082c34"/></g><g transform="translate(-432 178)"><circle cx="5" cy="5" r="5" transform="translate(532 62)" fill="#082c34"/></g><g transform="translate(-407 178)"><circle cx="5" cy="5" r="5" transform="translate(532 62)" fill="#082c34"/></g><g transform="translate(-532 208)"><circle cx="5" cy="5" r="5" transform="translate(532 62)" fill="#082c34"/></g><g transform="translate(-507 208)"><circle cx="5" cy="5" r="5" transform="translate(532 62)" fill="#082c34"/></g><g transform="translate(-482 208)"><circle cx="5" cy="5" r="5" transform="translate(532 62)" fill="#082c34"/></g><g transform="translate(-457 208)"><circle cx="5" cy="5" r="5" transform="translate(532 62)" fill="#082c34"/></g><g transform="translate(-432 208)"><circle cx="5" cy="5" r="5" transform="translate(532 62)" fill="#082c34"/></g><g transform="translate(-407 208)"><circle cx="5" cy="5" r="5" transform="translate(532 62)" fill="#082c34"/></g><g transform="translate(-532 238)"><circle cx="5" cy="5" r="5" transform="translate(532 62)" fill="#082c34"/></g><g transform="translate(-507 238)"><circle cx="5" cy="5" r="5" transform="translate(532 62)" fill="#082c34"/></g><g transform="translate(-482 238)"><circle cx="5" cy="5" r="5" transform="translate(532 62)" fill="#082c34"/></g><g transform="translate(-457 238)"><circle cx="5" cy="5" r="5" transform="translate(532 62)" fill="#082c34"/></g><g transform="translate(-432 238)"><circle cx="5" cy="5" r="5" transform="translate(532 62)" fill="#082c34"/></g><g transform="translate(-407 238)"><circle cx="5" cy="5" r="5" transform="translate(532 62)" fill="#082c34"/></g><g transform="translate(-532 268)"><circle cx="5" cy="5" r="5" transform="translate(532 62)" fill="#082c34"/></g><g transform="translate(-507 268)"><circle cx="5" cy="5" r="5" transform="translate(532 62)" fill="#082c34"/></g><g transform="translate(-482 268)"><circle cx="5" cy="5" r="5" transform="translate(532 62)" fill="#082c34"/></g><g transform="translate(-457 268)"><circle cx="5" cy="5" r="5" transform="translate(532 62)" fill="#082c34"/></g><g transform="translate(-432 268)"><circle cx="5" cy="5" r="5" transform="translate(532 62)" fill="#082c34"/></g><g transform="translate(-407 268)"><circle cx="5" cy="5" r="5" transform="translate(532 62)" fill="#082c34"/></g><g transform="translate(-532 298)"><circle cx="5" cy="5" r="5" transform="translate(532 62)" fill="#082c34"/></g><g transform="translate(-507 298)"><circle cx="5" cy="5" r="5" transform="translate(532 62)" fill="#082c34"/></g><g transform="translate(-482 298)"><circle cx="5" cy="5" r="5" transform="translate(532 62)" fill="#082c34"/></g><g transform="translate(-457 298)"><circle cx="5" cy="5" r="5" transform="translate(532 62)" fill="#082c34"/></g><g transform="translate(-432 298)"><circle cx="5" cy="5" r="5" transform="translate(532 62)" fill="#082c34"/></g><g transform="translate(-407 298)"><circle cx="5" cy="5" r="5" transform="translate(532 62)" fill="#082c34"/></g><g transform="translate(-532 328)"><circle cx="5" cy="5" r="5" transform="translate(532 62)" fill="#082c34"/></g><g transform="translate(-507 328)"><circle cx="5" cy="5" r="5" transform="translate(532 62)" fill="#082c34"/></g><g transform="translate(-482 328)"><circle cx="5" cy="5" r="5" transform="translate(532 62)" fill="#082c34"/></g><g transform="translate(-457 328)"><circle cx="5" cy="5" r="5" transform="translate(532 62)" fill="#082c34"/></g><g transform="translate(-432 328)"><circle cx="5" cy="5" r="5" transform="translate(532 62)" fill="#082c34"/></g><g transform="translate(-407 328)"><circle cx="5" cy="5" r="5" transform="translate(532 62)" fill="#082c34"/></g><g transform="translate(-532 358)"><circle cx="5" cy="5" r="5" transform="translate(532 62)" fill="#082c34"/></g><g transform="translate(-507 358)"><circle cx="5" cy="5" r="5" transform="translate(532 62)" fill="#082c34"/></g><g transform="translate(-482 358)"><circle cx="5" cy="5" r="5" transform="translate(532 62)" fill="#082c34"/></g><g transform="translate(-457 358)"><circle cx="5" cy="5" r="5" transform="translate(532 62)" fill="#082c34"/></g><g transform="translate(-432 358)"><circle cx="5" cy="5" r="5" transform="translate(532 62)" fill="#082c34"/></g><g transform="translate(-407 358)"><circle cx="5" cy="5" r="5" transform="translate(532 62)" fill="#082c34"/></g></g></svg>
