<svg xmlns="http://www.w3.org/2000/svg" xmlns:xlink="http://www.w3.org/1999/xlink" width="150" height="150" viewBox="0 0 150 150"><defs><clipPath id="a"><rect width="150" height="150" transform="translate(967.5 1501)" fill="#fff" stroke="#707070" stroke-width="1"/></clipPath></defs><g transform="translate(-967.5 -1501)" clip-path="url(#a)"><g transform="translate(976.569 1511.261)"><path d="M65.931,0,123.15,32.37V97.109l-57.219,32.37L8.712,97.109V32.37Z" fill="#fff"/><path d="M114.033,96.315,68.921,121.833V101.958L97.028,86.5Zm3.086-2.795V40.154l-16.509,9.527v34.3l16.509,9.538ZM19.848,96.315l45.112,25.518V101.958L36.853,86.5l-17,9.819Zm-3.086-2.795V40.154l16.509,9.527v34.3L16.762,93.521ZM18.694,36.7,64.961,10.525V29.742l-29.64,16.3-.227.129Zm96.494,0L68.921,10.525V29.742l29.64,16.3.227.129Z" transform="translate(-1.101 -1.44)" fill="#8ed6fb"/><path d="M68.2,101.027,40.475,85.781V55.569L68.2,71.581v29.446m3.96,0,27.73-15.246V55.569L72.165,71.581v29.446M42.352,52.073,70.19,36.763,98.028,52.073,70.19,68.15,42.352,52.073" transform="translate(-4.345 -5.029)" fill="#1c78c0"/></g></g></svg>