<svg xmlns="http://www.w3.org/2000/svg" xmlns:xlink="http://www.w3.org/1999/xlink" width="249.36" height="1084.989" viewBox="0 0 249.36 1084.989"><defs><filter id="a" x="0" y="0" width="249.36" height="1084.989" filterUnits="userSpaceOnUse"><feOffset dy="3" input="SourceAlpha"/><feGaussianBlur stdDeviation="12.5" result="b"/><feFlood flood-opacity="0.161"/><feComposite operator="in" in2="b"/><feComposite in="SourceGraphic"/></filter></defs><g transform="matrix(1, 0, 0, 1, 0, 0)" filter="url(#a)"><path d="M-312.62-122.76-344.08,0H-386.1l-22.22-82.28L-430.76,0h-42.02l-31.46-122.76h37.62l16.28,88.44,22.88-88.44h40.04l23.54,88.66,16.28-88.66Zm66.66-1.54q18.26,0,32.67,7.59a55.644,55.644,0,0,1,22.66,21.89q8.25,14.3,8.25,33.44t-8.25,33.44A55.644,55.644,0,0,1-213.29-6.05q-14.41,7.59-32.67,7.59t-32.78-7.59a55.47,55.47,0,0,1-22.77-21.89q-8.25-14.3-8.25-33.44t8.25-33.44a55.47,55.47,0,0,1,22.77-21.89Q-264.22-124.3-245.96-124.3Zm0,32.56a23.972,23.972,0,0,0-18.15,7.81q-7.37,7.81-7.37,22.55t7.37,22.44a24.134,24.134,0,0,0,18.15,7.7,23.786,23.786,0,0,0,18.04-7.7q7.26-7.7,7.26-22.44t-7.26-22.55A23.628,23.628,0,0,0-245.96-91.74Zm116.38-7.92a53.383,53.383,0,0,1,18.15-17.82,46.333,46.333,0,0,1,24.09-6.6v40.26H-98.12q-14.96,0-23.21,6.38t-8.25,21.56V0H-167.2V-122.76h37.62ZM-1.54,0-38.28-52.14V0H-75.9V-162.8h37.62v89.32l36.74-49.28H42.68L-6.82-61.38,43.78,0ZM113.3-139.48q-9.24,0-13.42,3.96t-4.62,12.76h22.22v31.68H95.26V0H57.64V-91.08H42.9v-31.68H57.64v-1.32q0-22.88,13.31-35.31t38.61-12.43q5.28,0,7.92.22v32.34Zm53.9-23.32V0H129.58V-162.8Zm78.98,38.5q18.26,0,32.67,7.59a55.644,55.644,0,0,1,22.66,21.89q8.25,14.3,8.25,33.44t-8.25,33.44A55.644,55.644,0,0,1,278.85-6.05q-14.41,7.59-32.67,7.59T213.4-6.05a55.47,55.47,0,0,1-22.77-21.89q-8.25-14.3-8.25-33.44t8.25-33.44a55.47,55.47,0,0,1,22.77-21.89Q227.92-124.3,246.18-124.3Zm0,32.56a23.972,23.972,0,0,0-18.15,7.81q-7.37,7.81-7.37,22.55t7.37,22.44a24.134,24.134,0,0,0,18.15,7.7,23.786,23.786,0,0,0,18.04-7.7q7.26-7.7,7.26-22.44t-7.26-22.55A23.628,23.628,0,0,0,246.18-91.74Zm258.28-31.02L473,0H430.98L408.76-82.28,386.32,0H344.3L312.84-122.76h37.62l16.28,88.44,22.88-88.44h40.04L453.2-34.1l16.28-88.66Z" transform="translate(209.82 539.6) rotate(-90)" fill="#0c3455" stroke="rgba(0,0,0,0)" stroke-width="1" opacity="0.09"/></g></svg>