<svg xmlns="http://www.w3.org/2000/svg" xmlns:xlink="http://www.w3.org/1999/xlink" width="150" height="150" viewBox="0 0 150 150"><defs><clipPath id="a"><rect width="150" height="150" transform="translate(801.5 1671)" fill="#fff" stroke="#707070" stroke-width="1"/></clipPath></defs><g transform="translate(-801.5 -1671)" clip-path="url(#a)"><g transform="translate(818.116 1689.075)"><path d="M96.091,113.849H20.677A20.659,20.659,0,0,1,0,93.172V20.677A20.659,20.659,0,0,1,20.677,0H96.091a20.659,20.659,0,0,1,20.677,20.677V93.172A20.659,20.659,0,0,1,96.091,113.849Z" fill="#ff26be"/><path d="M95.627,110.368H23.912a17.691,17.691,0,0,1-17.66-17.66v-68.8a17.691,17.691,0,0,1,17.66-17.66H95.58a17.658,17.658,0,0,1,17.66,17.66V92.661a17.632,17.632,0,0,1-17.613,17.707Z" transform="translate(-1.385 -1.385)" fill="#2e001f"/><path d="M52.374,61.154,66,87.329c.243.388.1.78-.294.78H57.236a.954.954,0,0,1-1.023-.631c-3.115-6.422-6.277-12.845-9.538-19.753h-.1c-2.919,6.52-6.133,13.382-9.243,19.8a.939.939,0,0,1-.878.537h-8.02c-.486,0-.537-.388-.29-.682l13.33-25.4L28.586,36.3a.393.393,0,0,1,.29-.682h8.37c.486,0,.682.1.873.537,3.064,6.422,6.179,13.041,9.1,19.51h.1c2.821-6.422,5.937-13.087,8.954-19.463.243-.388.388-.631.878-.631H64.98c.388,0,.537.294.294.682Zm16.011,7.931c0-11.336,7.543-20.192,19.51-20.192a21.448,21.448,0,0,1,2.532.1V36.1a.485.485,0,0,1,.486-.486H98.6c.388,0,.486.145.486.388V80.669a34.749,34.749,0,0,0,.243,4.769c0,.294-.1.388-.388.537A28.964,28.964,0,0,1,86.484,88.8c-10.561.042-18.1-6.474-18.1-19.711ZM90.422,56.633a7.314,7.314,0,0,0-2.821-.486c-6.133,0-10.411,4.717-10.411,12.555,0,8.954,4.381,12.555,9.879,12.555a9.121,9.121,0,0,0,3.358-.537V56.633Z" transform="translate(-6.204 -7.88)" fill="#ffd9f2"/></g></g></svg>